<?xml version="1.0" encoding="UTF-8"?>
<svg width="2072" height="500" version="1.1" viewBox="0 0 548.22 132.29" xmlns="http://www.w3.org/2000/svg" xmlns:cc="http://creativecommons.org/ns#" xmlns:dc="http://purl.org/dc/elements/1.1/" xmlns:rdf="http://www.w3.org/1999/02/22-rdf-syntax-ns#">
 <metadata>
  <rdf:RDF>
   <cc:Work rdf:about="">
    <dc:format>image/svg+xml</dc:format>
    <dc:type rdf:resource="http://purl.org/dc/dcmitype/StillImage"/>
    <dc:title/>
   </cc:Work>
  </rdf:RDF>
 </metadata>
 <g transform="matrix(.91257 0 0 .91257 531.43 407.91)">
  <path d="m-20.402-430.14c-1.8502 0-4.2955-0.37331-5.3159 1.5944-0.95146 1.8353 1.0365 3.2704 1.1879 5.0437 0.379 4.4381 0.10908 9.1385 0.01422 13.592-0.46721 21.934-2.1043 43.591-6.4441 65.117-1.2312 6.1071-1.2995 12.258-2.4647 18.334-0.38184 1.9914-1.9712 5.2505 0.1043 6.7203 3.7392 2.6426 8.5961-1.4098 11.338-3.5214 3.173-2.4435 6.2336-5.0418 9.4831-7.3873 1.5331-1.1095 3.5909-1.9535 4.9217-3.2811 0.98941-0.98941 0.47416-2.434 1.2739-3.4898 1.4983-1.9756 4.7162-3.3728 6.7646-4.7415 3.0441-2.0294 9.3851-4.7732 10.276-8.6391 0.65749-2.8544-2.0231-5.4117-3.9544-7.0333-4.8806-4.0904-9.2934-8.7813-13.909-13.197 3.8912-1.8397 7.3083-5.0829 10.747-7.6465 1.0463-0.78078 2.728-1.0242 3.5688-1.9725 1.0052-1.1316 0.5595-2.513-0.091635-3.6573 1.1854-0.49627 2.7975-1.8713 4.1093-1.7354 1.9124 0.19598 5.5982 4.3496 6.733 0.14224 0.48365-1.7923-1.1538-2.9524-1.7702-4.4254-1.3245-3.161-1.4636-5.5192-4.0271-8.206-2.8607-2.9966-6.2241-5.535-9.0089-8.5885-5.7183-6.2746-10.985-12.84-16.902-18.941-2.6075-2.6916 0.79342-9.967-2.8557-11.292-3.932-1.4275-3.6832 4.9701-3.7793 7.2109m-68.91 19.282h-0.3161c0-2.0041-0.95937-8.0732-4.2883-4.6404-1.3931 1.4351-0.76939 4.7036-0.76939 6.537v17.386c0 16.535-4.5032 31.702-7.969 47.732-1.0688 4.9438-2.22 9.8498-2.9616 14.857-0.30282 2.0484-1.0235 4.5898-0.60027 6.6382 0.88982 4.3053 6.0907 4.0303 6.4731-0.31611 3.2862 1.7133 5.4648-1.1601 7.9026-3.1863 5.9696-4.9628 11.347-10.488 16.832-15.966 2.2216-2.219 5.2824-3.7585 7.3712-5.9522 0.86834-0.91038 0.75201-2.219 1.7645-3.0599 4.0644-3.3696 8.8951-5.6962 12.913-9.227 1.872-1.6437 2.9733-3.7142 4.6176-5.5128 0.91827-1.002 2.2579-1.3845 2.4245-2.9303 0.15995-1.4888-1.0994-2.5699-1.7177-3.7932-1.3589-2.6869-1.9447-5.5887-3.5255-8.2187-6.7298-11.2-17.495-20.812-26.286-30.4-1.5764-1.7196-3.3014-3.4202-4.6613-5.32-1.0355-1.4478-1.6368-3.4455-3.1272-4.5108-1.1512-0.82503-3.3485-1.5457-4.6742-0.80606-2.9717 1.6564 0.08065 4.3654 0.65907 6.2652 0.39545 1.296-0.0584 3.0694-0.06127 4.4254m74.284-9.167 4.3338 4.7415-0.46783 3.161 2.8007 5.6898 15.461 16.437c-5.3927 3.3001-10.858 6.1261-15.805 10.115-1.3245 1.0684-3.8248 4.1188-5.6898 3.6984-3.4206-0.77761-1.7702-7.1439-1.5268-9.7043 0.73969-7.7698 0.57847-15.584 0.57847-23.392 0-3.1136-0.88825-7.8804 0.3161-10.747m-68.91 10.431c5.2271 11.196 14.281 21.071 22.262 30.346 2.1833 2.5383 4.7564 4.7099 6.9726 7.2166 0.76719 0.86929 2.08 1.9504 2.0256 3.2148-0.06954 1.6058-1.7638 3.3096-2.8272 4.3685-3.2657 3.2432-7.2037 5.7025-11.048 8.1776-9.9569 6.4137-17.749 13.801-25.658 22.541-2.3831 2.6331-7.1215 5.5602-7.8488 9.167-2.3546-1.4478-0.41693-6.1861-0.3161-8.5348 3.1711 1.7449 4.642-0.0728 5.5511-3.161 1.2606-4.2832 0.54939-9.1449 1.5372-13.592 2.904-13.074 6.0369-25.873 7.6785-39.197 0.4593-3.7268 0.99256-7.6276 1.0371-11.38 0.0323-2.7058-0.41188-6.6761 0.63347-9.167m63.537 17.07-0.3161 0.3161 0.3161-0.3161m0 0.94831v1.8966h-0.3161l0.3161-1.8966m0 2.5288-0.3161 0.31611 0.3161-0.31611m24.024 37.932v0.63221l-25.604 18.334c0-8.6928 1.5973-17.661 2.9749-26.237 0.48584-3.0251 0.94103-7.5738 5.2438-7.4948 1.7702 0.0317 3.907 2.8828 5.0576 4.0145 3.8154 3.7522 7.8552 7.7951 12.328 10.751m-29.081 4.4254-1.8966 16.121h-0.31611c0-4.9154-0.15678-11.674 2.2127-16.121z" style="fill:#040404"/>
  <path d="m-233.06-433.3c-2.8376-1.3575-3.8293 2.4954-4.1392 4.6482-0.81897 5.6824 0.30989 11.828 0.85661 17.486 1.804 18.631 3.4751 37.483 3.5039 56.222 0.011 7.5779-0.5113 15.279 0.3785 22.798 0.18815 1.574-0.95842 3.7374-0.43383 5.0814 0.89201 2.2858 4.5243 2.1844 6.4743 2.3733 5.4274 0.52503 10.824 0.93563 16.287 0.9064 2.7624-0.0148 5.8125 0.4987 4.9625-3.2701 1.6977 0.28731 4.2365 0.16822 5.7461-0.74526 0.64191-0.38891 1.0182-1.168 1.7088-1.4511 1.4609-0.59807 3.1962-0.12528 4.7102-0.73863 1.1732-0.47567 1.6424-2.0266 0.61091-2.9266-1.2439-1.0852-5.9652 0.10669-7.685 0.10669-5.7682 0-11.499-0.66404-17.265-0.66404-2.1183 0-4.9249-0.48961-6.8617 0.44269 1.4476-6.9982 0.22135-14.812 0.22135-21.913 0-17.794-0.99605-35.636-2.4016-53.353-0.51351-6.4444-1.1023-12.832-1.9965-19.248-0.31653-2.2763-0.093-5.9796-1.3768-7.9387-1.6158-2.4695-3.2958 0.52547-3.3002 2.1838m71.937 77.249c-1.193 4.2064-4.3229 7.8048-6.8883 11.289-4.3228 5.8765-8.7232 11.722-12.577 17.929-1.3081 2.1105-6.4633 10.053-1.12 10.182-0.82782 1.0766-4.5221 5.7844-1.1045 6.0066 1.3037 0.0848 1.97-1.3276 2.5809-2.2438 1.6712-2.5063 3.2582-5.1033 5.0488-7.5257 5.8192-7.8708 12.411-15.064 19.16-22.135 2.313-2.4255 7.0852-6.4754 6.8108-10.181-0.21692-2.9611-2.1448-5.4652-3.8602-7.747-3.6566-4.8687-8.1809-9.3784-12.699-13.464-1.9766-1.7885-5.3942-3.8284-6.6005-6.2386-0.73044-1.4556-0.40509-4.3955-0.12617-5.973 2.0408-11.521 8.3203-21.755 12.891-32.316 1.047-2.4166 4.7346-9.2356 0.69723-10.625 0.48253-1.3168 1.7907-1.8914 2.271-3.103 0.56666-1.4345-0.17927-3.9255-2.0497-3.6984-1.722 0.2094-2.7624 3.4806-3.5437 4.8094-2.8509 4.855-6.0471 9.5067-8.8515 14.387-3.9311 6.8391-6.782 14.026-9.8985 21.249-1.0071 2.3369-3.6146 6.0438-3.4131 8.6315 0.12836 1.6663 2.2533 3.3153 2.8399 4.8705 0.37628 1.0005 0.0487 2.0587 0.54229 3.0988 2.2644 4.7875 6.5252 8.8954 10.038 12.775 1.9235 2.1262 4.0705 4.0827 5.9143 6.2809 1.2196 1.4567 2.001 3.1676 3.9377 3.7429m-202.31-36.743h-0.22134c-8.3e-4 -10.295-1.2639-21.01-2.6849-31.21-0.31387-2.2524-0.35703-5.1117-1.5988-7.0733-0.66912-1.0574-2.2015-1.5642-3.0778-0.40196-0.98255 1.3039 0.64677 5.2113 0.88228 6.8112 0.96417 6.5454 1.7163 13.118 2.2416 19.708 1.3181 16.54 1.838 32.978 2.1847 49.573 0.11554 5.5254-0.60316 11.07-0.60316 16.601v15.715c0 1.4339-0.59896 4.4942 1.1165 5.1447 3.1422 1.1915 2.425-4.2416 2.425-5.8088v-21.47c0.97857 3.3091 0.6585 7.6207 0.66403 11.067 2e-3 1.1669 0.0589 3.1969 1.7674 2.9875 2.1026-0.25786 1.4308-4.8346 1.2375-6.3076-0.87166-6.637-0.78113-13.885-0.79153-20.585-0.0151-9.8022 0.0534-19.65 0.45132-29.439 0.38381-9.4448 1.3684-19.098 0.48608-28.553-0.40042-4.2928-0.72602-8.7478-0.9374-13.059-0.0684-1.3954 0.13635-4.0254-1.5583-4.4948-1.2889-0.35702-2.1214 0.6647-2.1948 1.8387-0.15361 2.4503 0.18172 4.8705 0.21072 7.3044 0.1255 10.56 8.3e-4 21.091 8.3e-4 31.652m130.59-40.506-0.22135 0.22135 0.22135-0.22135m-55.115 80.348c8.8294 7.7081 17.575 15.463 27.004 22.438 2.3197 1.7168 4.7168 3.2949 7.083 4.9468 1.1399 0.79661 2.5167 1.9848 3.9842 2.0187 4.7168 0.10868 0.0222-5.2541-1.1067-6.3836 1.9323 1.321 7.4328 7.5304 9.6683 3.7219 1.0359-1.7615-0.0885-5.2226-0.56664-7.0421-1.6712-6.3333-4.3937-12.477-6.709-18.593-1.3635-3.6008-2.893-7.5018-3.619-11.289-1.2218-6.3676-1.587-12.89-2.8576-19.257-2.0253-10.145-5.2636-19.915-8.6789-29.66-1.1488-3.2816-2.3595-6.5927-3.847-9.7391-0.57329-1.2128-1.6446-2.2765-2.074-3.5415-0.58877-1.7364 0.72601-4.5548-1.0447-5.8121-2.2953-1.6278-3.6876 1.7044-4.044 3.3773-1.2262 5.7901-1.9014 11.682-3.0546 17.486-4.0041 20.147-9.3319 40.129-16.599 59.32-1.3524 3.5694-2.5698 7.328-3.3512 11.067-0.32095 1.5273-0.17487 3.1584-0.59985 4.6482-0.48253 1.6913-2.3396 4.7461-1.2993 6.3951 0.81012 1.2842 2.758 1.2561 3.3578-0.20164 1.1798-2.8653 1.711-6.137 2.8332-9.0709 1.8836-4.9218 4.3339-9.6577 5.5203-14.83m-105.14 39.621c1.4281 1.5549 2.1174 4.1013 3.6024 5.4375 0.7207 0.64854 1.8522 0.61534 2.4618-0.17575 0.72291-0.9385 0.11001-2.348-0.33822-3.2697-1.2059-2.4797-3.2122-4.6493-5.0825-6.6436-4.1287-4.4028-8.6725-8.6785-12.322-13.499-3.6486-4.8196-6.6864-10.08-10.456-14.83 4.2162-1.9945 8.1816-5.4187 11.953-8.1561 4.6673-3.3879 9.5546-6.4708 14.166-9.9428 1.9381-1.4591 8.0082-4.0878 7.3044-6.913 1.4916-0.64278 6.1598-2.3606 4.8634-4.6188-1.6762-2.92-5.2673 2.7206-6.9365 1.0206-3.1814-3.2403-5.1834-8.7945-7.2893-12.781-4.6068-8.7214-8.9906-17.627-14.012-26.119-2.5592-4.3273-5.1396-8.6192-8.2004-12.617-1.2599-1.6457-2.0127-4.3828-4.5041-2.8775-0.757-1.3794-2.9001-1.9277-3.4454 3e-3 -0.48452 1.7152 0.2468 3.7418 0.0733 5.5216-0.52526 5.382-1.321 10.773-1.699 16.167-0.91062 12.993-1.8584 25.99-3.1559 38.957-1.1997 11.99-3.2779 23.886-4.6219 35.858-0.81499 7.2592-1.8945 14.606-1.9819 21.913-0.0188 1.5778-1.4055 7.3675 1.7683 6.714 1.0914-0.22466 1.4511-1.3265 1.6373-2.2872 0.46748-2.4118 0.7072-4.8798 1.1138-7.3044 1.1598-6.9175 1.954-13.918 3.2721-20.806 0.67732-3.5397 0.89777-6.7477 5.0471-7.9423 0.91305-0.26297 1.5051 0.70077 2.01 1.302 1.3719 1.6337 2.7456 3.2673 4.1535 4.8696 5.7284 6.519 10.313 13.6 15.103 20.806 0.92456 1.3916 4.984 6.9812 5.5168 2.2134m160.25-116.87c0 7.8367 0.58435 15.919 1.6446 23.684 0.64633 4.7361 1.8482 9.4029 2.302 14.166 1.027 10.77 0.72822 22.034-0.62641 32.759h-0.22134c0-16.716-1.3325-33.616-2.9151-50.245-0.46261-4.8652-1.0979-9.7095-0.97835-14.609 0.0443-1.9018-0.26339-4.0694 0.79463-5.755m-83.889 94.071h-0.22134c-0.49139-2.8576-2.1891-5.7501-3.3202-8.4111-2.561-6.0199-5.3897-11.987-7.5943-18.15-1.9832-5.5498-3.1254-11.331-4.5508-17.044-2.0674-8.2741-4.2653-16.512-6.3083-24.791-1.2838-5.1996-2.2201-10.92-4.055-15.936-0.58656-1.6081-3.3883-3.5557-4.3304-1.1034-0.57416 1.4952 1.1548 2.8943 1.2165 4.4227 0.0345 0.85638-0.52082 1.5642-0.4511 2.4348 0.42123 5.2591 2.2471 11.08 3.6867 16.158 2.0939 7.3909 4.1768 14.798 6.4566 22.134 1.2661 4.0752 2.9483 8.0492 4.0373 12.174 2.2024 8.3608 3.5282 16.908 5.9165 25.233 1.2462 4.3412 2.3573 9.5816 4.6372 13.502 1.41 2.4204 4.2232 2.3071 5.102-0.44268 2.3263 1.5764 3.9643-0.0786 5.0312-2.2134 2.001-4.0019 3.2759-8.9182 4.2188-13.281 2.5565-11.824 4.4136-23.74 6.5584-35.636 1.4432-7.991 3.3312-15.849 4.4269-23.905 0.757-5.5544 0.57107-11.225 0.57107-16.822 0-1.8832 0.32316-4.8406-1.9921-5.3123 0.33423-1.6138 1.8482-2.3458 2.1183-3.7662 0.2789-1.4715-0.93629-3.2487-2.561-2.7097-2.1913 0.72801-2.4835 3.6823-2.9018 5.5905-1.2373 5.6348-1.1643 11.556-1.7088 17.265-1.2794 13.433-3.0789 26.633-5.9387 39.842-2.2466 10.37-5.6775 20.445-8.0437 30.767m-100.93-85.439v0.66403h-0.22135l0.22135-0.66403m-0.22135 1.3281-0.22134 0.22134 0.22134-0.22134m0 0.44269-1.5118 15.715-1.4033 18.372-1.0691 10.625h-0.22134c7e-3 -9.6422 1.4684-19.619 2.3972-29.217 0.33622-3.4742 0.73575-6.9314 1.1076-10.403 0.16955-1.582 0.0868-3.6307 0.70078-5.0909m3.3202 2.8775 10.858 16.601 17.032 28.332c-10.734 7.2415-21.511 14.104-31.21 22.577h-0.22134c-1.3082-1.3081-2.2336-2.5616-4.2055-2.2134l5.2746-41.834 1.5246-17.044 0.94779-6.419m143.43 1.5494c4.5088 11.951 5.8125 24.876 9.0486 37.186 2.4503 9.3168 5.0666 18.592 7.5855 27.889 1.4277 5.2689 3.267 10.517 3.951 15.937-2.4503-1.251-4.5022-3.553-6.5474-5.3687-6.1622-5.4774-11.233-11.93-16.906-17.872-1.8261-1.9122-3.4906-3.9844-5.2503-5.957-0.73265-0.82119-1.6911-1.9376-2.9439-1.6563-1.3104 0.29395-1.6667 1.6849-1.0868 2.7431 1.1444 2.0824 2.9948 3.9218 4.4955 5.7549 4.5708 5.5763 9.3695 10.973 14.137 16.38 2.0142 2.2867 4.3782 4.3589 6.1335 6.8617-2.5167-1.1218-4.8984-3.4782-7.083-5.1682-5.0378-3.8981-9.9915-7.9261-14.609-12.318-1.649-1.5691-5.5159-3.6834-6.3459-5.7926-0.41392-1.0474 0.57549-3.1081 0.8411-4.1679 0.89423-3.5834 1.4963-7.3562 2.7026-10.846 2.9837-8.6284 6.056-17.178 8.0215-26.119 1.2041-5.4847 1.1488-12.506 3.8558-17.486m104.7 1.9921-0.22136 0.22136 0.22136-0.22136m-0.22136 0.4427-0.22132 0.22134 0.22132-0.22134m-0.22132 0.4427-0.22135 0.22134 0.22135-0.22134m-0.22135 0.44267-3.5415 7.3044h-0.22132l3.7628-7.3044m-132.14 3.9842-0.22135 0.22136 0.22135-0.22136m0 0.66404-0.22135 0.22135 0.22135-0.22135m-0.22135 1.5494v1.9921h-0.22134l0.22134-1.9921m0 2.2134-0.44268 4.2055h-0.22135l0.22135-4.2055h0.44268m127.72 0.88537-0.22137 0.22136 0.22137-0.22136m-0.44269 0.88539-0.22135 0.22134 0.22135-0.22134m-0.44271 0.88538-0.22132 0.22133 0.22132-0.22133m-0.66404 1.1067-0.22131 0.22134 0.22131-0.22134m-0.22131 0.44268-0.22135 0.22136 0.22135-0.22136m-126.61 0.4427v1.1067h-0.22135l0.22135-1.1067m126.39 0-0.22137 0.22133 0.22137-0.22133m-88.759 0.44269-0.22134 0.22134 0.22134-0.22134m88.538 0-0.22132 0.22134 0.22132-0.22134m-0.22132 0.44267-0.22135 0.22136 0.22135-0.22136m-0.22135 0.4427-0.22136 0.22134 0.22136-0.22134m-0.22136 0.4427-0.22132 0.22134 0.22132-0.22134m-87.431 0.22134-0.22135 0.22133 0.22135-0.22133m-38.366 0.36898-0.0753 0.14741 0.0753-0.14741m125.58-0.14765c-0.70833 1.7004-2.24 6.7552-3.9842 7.3044 0.498-2.1798 2.3972-5.7335 3.9842-7.3044m-87.061 0.59034-0.0753 0.14741 0.0753-0.14741m0.29439 0.73774-0.22134 0.22135 0.22134-0.22135m0.22135 0.66403-0.22135 0.22134 0.22135-0.22134m0.22134 0.88537-0.22134 0.22135 0.22134-0.22135m0.22134 0.66404-0.22134 0.22135 0.22134-0.22135m-102.48 0.66403-0.22134 0.22135 0.22134-0.22135m102.63 0.14763-0.0753 0.14742 0.0753-0.14742m80.2 5.8287-0.22131 0.22135 0.22131-0.22135m-241.49 11.953-0.22134 0.22135 0.22134-0.22135m0 0.44269v0.66403h-0.22134l0.22134-0.66403m-0.29505 1.9184-0.074 0.14741 0.074-0.14741m264.8 11.584c1.6003 2.265 4.7191 4.9752 4.7611 7.9684 0.0199 1.4903-1.4919 2.9266-2.3861 3.9842-2.5632 3.0295-5.3167 6.7816-8.5727 9.0751 2.2688-3.6447 5.0002-7.0399 7.3774-10.625 1.058-1.595 2.2134-3.8713-0.51574-4.4269 1.0049-2.2838-1.3546-3.7341-0.66403-5.9763m-71.937 1.3281v0.66404h-0.22134l0.22134-0.66404m-0.073 1.033-0.0753 0.14741 0.0753-0.14741m-77.84 0.95908v0.66403h-0.22135l0.22135-0.66403m-0.22135 0.88539c-0.13059 3.0176-1.047 6.1164-1.638 9.0751-1.1399 5.7043-2.2666 12.073-5.0024 17.265-0.98277-1.5054 0.89423-5.0059 1.359-6.6403 1.1289-3.9634 2.2887-7.9423 3.2383-11.953 0.58435-2.4735 0.94293-5.4608 2.043-7.747m80.569 9.0751-0.22135 0.22135 0.22135-0.22135m0 0.66403c-0.55779 4.0882 0.19921 8.3106-0.38293 12.395-0.17707 1.2437-7e-3 3.5269-1.3878 3.9842l0.86989-11.51 0.90087-4.8696m-135.46 0.88539-0.22135 0.22134 0.22135-0.22134m37.998 0.14763-0.0753 0.14742 0.0753-0.14742m-97.983 0.29505-0.66403 0.44269 0.66403-0.44269m98.277 0.22135c1.3236 3.4151 2.8332 6.7581 4.1347 10.182 0.90308 2.3702 1.7708 3.9167 0.9562 6.419h-0.22135l-3.9532-11.953-0.91636-4.6482m76.364 4.4269-0.22135 0.22135 0.22135-0.22135m0.22134 0.4427c0.94293 3.4558 2.8465 6.9883 2.8775 10.625l-3.5415-2.6561v-0.22134c3.8625-1.0881-0.0554-5.3798 0.66404-7.7471" style="fill:#040404"/>
  <path d="m-498.15-424h-0.27784c0-2.6523 0.4165-5.7798-0.45539-8.3346-0.46763-1.3709-1.9694-2.4489-3.4053-1.6602-1.2184 0.66934-1.5726 2.4045-2.0274 3.6042-1.3342 3.5198-2.3428 7.1718-3.1838 10.836-3.365 14.658-5.0321 28.932-5.9557 43.9-0.29784 4.8251-0.55485 9.8113-0.20421 14.647 0.16949 2.3384 1.9727 3.6065 4.118 2.5801 0.16171 2.1247 2.716 3.1152 3.6876 0.82825 0.97247-2.2886 0.84688-5.336 1.083-7.7744 0.53013-5.4786 1.1875-10.941 1.973-16.393 0.74407-5.1644 1.1256-10.464 2.2656-15.559 1.8777-8.3912 4.5253-16.609 6.3902-25.006 1.1703-5.2694 2.2897-10.491 3.0149-15.841 0.28869-2.1316 0.75186-5.517-0.39981-7.4674-0.97775-1.6554-3.4864-1.3053-4.0016 0.52958-0.59069 2.1041 0.0706 4.9662-0.19978 7.2199-0.55346 4.612-2.22 9.2726-2.4214 13.892m-45.567 59.737c1.6307 0.7802 3.1875 0.39482 3.5139-1.5879 0.8177-4.9629 0.20977-10.62 0.36175-15.664 0.42956-14.264 0.84771-28.472 0.84771-42.763 0-3.5189 0.0245-7.039-8.2e-4 -10.558-0.0109-1.4381 0.12308-3.5284-0.92079-4.6603-1.6318-1.7691-3.8676-0.52346-4.0535 1.6037-0.45428 5.1971-0.0262 10.619-0.0262 15.837-1.5962-4.0424-0.60016-9.3237-1.0714-13.619-0.17226-1.5721-8e-3 -4.1077-1.7193-4.8654-1.5326-0.67822-3.1533 0.4915-3.2222 2.0914-0.22061 5.1171 0.59404 10.999 1.1294 16.115 1.7149 16.38 1.2725 33.26 1.2714 49.735-2.8e-4 4.0766-0.51457 8.1354-0.55679 12.225-0.0151 1.4601-0.49819 3.5331 0.87576 4.5559 1.1439 0.85132 2.7204 0.31953 3.238-0.94525 0.86548-2.1144 0.33285-5.2599 0.33285-7.5005m41.121-57.792c0 8.247-0.82049 17.17-2.3506 25.284-1.0441 5.5369-3.3025 11.043-3.762 16.671h-0.27785c0-9.7447 1.4856-19.603 3.2619-29.174 0.73129-3.9413 1.2322-9.2401 3.1286-12.781m-41.492 0.46317-0.0929 0.18505 0.0929-0.18505m0.0926 0.92606-0.27783 0.27785 0.27783-0.27785m-20.005 92.523c-1.4037 3.8515 1.6068 4.3928 3.8065 6.9464 3.602 4.1819 5.3488 9.3348 8.3051 13.892 1.2595 1.9416 3.1452 3.7857 5.6706 3.3678 2.5078-0.41509 3.8004-3.2591 4.7456-5.3127 1.9552-4.2472 3.7668-9.8572 7.0292-13.296 1.4281-1.5051 3.9829-0.77769 5.8087-0.63988 5.0807 0.38371 11.409-0.8655 16.302 0.409 1.8977 0.49428 3.3622 3.6434 4.2908 5.191 2.3584 3.9307 4.4489 8.0542 7.2988 11.67 1.3826 1.754 3.2716 3.552 5.6489 3.5948 2.1669 0.0392 3.8146-1.7204 5.0293-3.3169 2.7899-3.6662 4.4992-8.0678 7.3807-11.667 1.6349-2.0416 5.0254-1.4423 3.9829-5.0035 5.4283 0.42844 10.63 1.9449 16.115 1.9449 1.788 0 5.2424 0.34675 4.8626-2.4964-0.31063-2.3236-3.3539-2.4695-5.1404-2.7043-5.6356-0.74101-11.322-0.6471-16.949-1.4315-11.918-1.6613-23.836-2.8335-35.842-3.3594-12.331-0.53986-24.673 0.03-36.954-1.4793-7.4627-0.9169-14.667-2.3536-21.95-4.1549-1.3926-0.34452-6.1926 0.56793-7.0176 1.7638-1.072 1.554 0.17951 3.0708 1.7387 3.4517 4.7956 1.1708 10.932 2.417 15.837 2.6307m4.4456 0.83354-0.27786 0.27784 0.27786-0.27784m20.561 3.3342-5.2074 10.002-3.128 5.557-5.2963-9.7246-6.6511-8.8911 20.283 3.0563m54.736 1.3892-3.7721 5.2791-7.064 10.558h-0.27786c-4.505-3.836-7.5524-10.658-10.28-15.837h21.394" style="fill:#040404"/>
 </g>
</svg>
