<?xml version="1.0" encoding="UTF-8"?>
<svg width="500" height="500" version="1.1" viewBox="0 0 132.29 132.29" xmlns="http://www.w3.org/2000/svg" xmlns:cc="http://creativecommons.org/ns#" xmlns:dc="http://purl.org/dc/elements/1.1/" xmlns:rdf="http://www.w3.org/1999/02/22-rdf-syntax-ns#">
 <metadata>
  <rdf:RDF>
   <cc:Work rdf:about="">
    <dc:format>image/svg+xml</dc:format>
    <dc:type rdf:resource="http://purl.org/dc/dcmitype/StillImage"/>
    <dc:title/>
   </cc:Work>
  </rdf:RDF>
 </metadata>
 <path d="m85.935 20.986h-0.25355c0-2.4204 0.38009-5.2744-0.41557-7.6058-0.42674-1.251-1.7972-2.2348-3.1076-1.515-1.1118 0.61082-1.4351 2.1943-1.8502 3.2891-1.2176 3.212-2.138 6.5447-2.9055 9.8886-3.0708 13.377-4.5921 26.402-5.4349 40.061-0.2718 4.4032-0.50634 8.9535-0.18636 13.366 0.15467 2.1339 1.8002 3.2911 3.7579 2.3545 0.14757 1.9389 2.4785 2.8428 3.3652 0.75584 0.88744-2.0885 0.77283-4.8695 0.98835-7.0947 0.48378-4.9996 1.0837-9.9847 1.8005-14.96 0.67901-4.7128 1.0271-9.5493 2.0675-14.199 1.7135-7.6576 4.1296-15.157 5.8315-22.82 1.068-4.8086 2.0895-9.5734 2.7513-14.456 0.26345-1.9453 0.68613-5.0346-0.36485-6.8145-0.89226-1.5107-3.1816-1.1912-3.6517 0.48328-0.53905 1.9202 0.0644 4.532-0.18232 6.5886-0.50507 4.2087-2.0259 8.4618-2.2097 12.678m-41.583 54.514c1.4881 0.71198 2.9088 0.36029 3.2067-1.4491 0.74621-4.529 0.19143-9.6911 0.33012-14.294 0.392-13.017 0.77359-25.983 0.77359-39.024 0-3.2113 0.02236-6.4235-7.93e-4 -9.6348-0.0099-1.3124 0.11232-3.2199-0.84028-4.2529-1.4891-1.6144-3.5295-0.47769-3.6991 1.4635-0.41456 4.7427-0.02392 9.6906-0.02392 14.453-1.4567-3.689-0.54768-8.5085-0.9777-12.428-0.1572-1.4346-0.0073-3.7485-1.569-4.44-1.3986-0.61892-2.8776 0.44852-2.9405 1.9085-0.20132 4.6697 0.5421 10.037 1.0307 14.706 1.5649 14.948 1.1613 30.352 1.1603 45.386-2.56e-4 3.7201-0.46958 7.4241-0.50811 11.156-0.01379 1.3324-0.45463 3.2242 0.79919 4.1575 1.0439 0.77688 2.4826 0.29159 2.9549-0.8626 0.78981-1.9295 0.30375-4.8 0.30375-6.8447m37.526-52.739c0 7.526-0.74875 15.669-2.1451 23.073-0.95284 5.0528-3.0137 10.077-3.4331 15.213h-0.25356c0-8.8926 1.3558-17.889 2.9767-26.623 0.66735-3.5967 1.1245-8.4322 2.855-11.663m-37.864 0.42267-0.08478 0.16887 0.08478-0.16887m0.0845 0.84509-0.25354 0.25356 0.25354-0.25356m-18.256 84.433c-1.2809 3.5148 1.4663 4.0087 3.4737 6.3391 3.2871 3.8162 4.8812 8.5186 7.579 12.677 1.1494 1.7718 2.8702 3.4547 5.1748 3.0733 2.2886-0.3788 3.4681-2.9742 4.3307-4.8482 1.7843-3.8758 3.4374-8.9953 6.4147-12.133 1.3033-1.3735 3.6347-0.70969 5.3008-0.58393 4.6365 0.35016 10.411-0.78983 14.876 0.37324 1.7318 0.45106 3.0683 3.3248 3.9156 4.7371 2.1522 3.587 4.0599 7.35 6.6606 10.649 1.2617 1.6007 2.9856 3.2414 5.155 3.2805 1.9774 0.0358 3.481-1.57 4.5896-3.0269 2.5459-3.3456 4.1058-7.3624 6.7354-10.647 1.4919-1.8631 4.586-1.3162 3.6347-4.566 4.9537 0.39098 9.7005 1.7749 14.706 1.7749 1.6316 0 4.784 0.31643 4.4374-2.2782-0.28347-2.1205-3.0607-2.2536-4.691-2.4678-5.1428-0.67622-10.332-0.59052-15.467-1.3063-10.876-1.516-21.752-2.5857-32.708-3.0657-11.252-0.49265-22.515 0.0274-33.723-1.3499-6.8102-0.83673-13.385-2.1478-20.031-3.7916-1.2709-0.3144-5.6512 0.51827-6.404 1.6096-0.97828 1.4181 0.16381 2.8023 1.5867 3.1499 4.3763 1.0685 9.9759 2.2057 14.452 2.4006m4.0569 0.76066-0.25356 0.25355 0.25356-0.25355m18.763 3.0426-4.7521 9.1279-2.8545 5.0711-4.8332-8.8744-6.0696-8.1137 18.509 2.7891m49.95 1.2678-3.4423 4.8175-6.4463 9.635h-0.25357c-4.1111-3.5006-6.8921-9.7266-9.3815-14.453h19.524" style="fill:#040404"/>
</svg>
