<svg xmlns="http://www.w3.org/2000/svg" viewBox="0 0 50 50"><path d="M25 30.83c2.75 0 4.59 4.28 5.53 7.26V25.81H19.47v12.28c.95-2.97 2.78-7.26 5.53-7.26ZM30.53 11.85V5.69H19.47v6.16c.84-.5 2.51-1.13 5.53-1.13s4.69.63 5.53 1.13ZM30.53 21.91v-6.16H19.47v6.16c.84-.5 2.51-1.13 5.53-1.13s4.69.63 5.53 1.13ZM15.49 41.15l-1.63 1.96V19.13c.64-2.7 1.17-5.15 1.58-7.21V7.9c-1.26 7.04-5.63 28.8-13.39 40.34-.07.11-.07.26 0 .38s.19.19.32.2h7.54c.11 0 .22-.05.29-.14l5.87-7.04a.73.73 0 0 1-.58-.49Zm-9.67 6.91H3.07c1.02-1.6 1.94-3.25 2.76-4.95v4.95Zm4.02-.16-.13.16H6.57v-6.54c1.21-2.65 2.3-5.5 3.29-8.38L9.84 47.9Zm3.24-3.89L10.6 47V30.83c.94-2.96 1.77-5.9 2.48-8.69V44ZM34.55 7.88v4.02c.41 2.06.94 4.53 1.58 7.21V43.1l-1.63-1.96c-.08.26-.31.46-.58.5l5.87 7.04c.07.08.18.13.29.14h7.54c.14 0 .27-.08.33-.2.07-.12.06-.27-.02-.39C40.17 36.68 35.8 14.9 34.54 7.88Zm4.82 39.11L36.89 44V22.15c.71 2.79 1.54 5.73 2.48 8.69v16.15Zm4.02 1.06h-3.14l-.13-.16V33.11c1.01 2.89 2.08 5.73 3.29 8.38l-.02 6.55Zm.75 0V43.1c.82 1.7 1.74 3.36 2.76 4.95h-2.76ZM18.13 40.39c.14-.17.35-.27.58-.27V3.18H16.2v37.71h1.51l.43-.5ZM31.28 5.69v34.45c.22 0 .44.1.58.27l.4.5h1.51V3.18h-2.51l.03 2.51ZM18.71 40.89l-6.29 7.54h25.14l-6.29-7.54H18.7Z"/></svg>