<svg xmlns="http://www.w3.org/2000/svg" viewBox="0 0 50 50"><path d="M16.62 15.89h-1.47v5.91H5.31v3.45h1.97v12.31H5.31v3.45h39.38v-3.45h-1.97V25.25h1.97V21.8h-9.85v-5.91h-1.47C32.6 11.97 29.14 9 24.99 9s-7.61 2.97-8.38 6.89ZM6.29 38.54h37.42v1.48H6.29v-1.48Zm2.95-13.29h-.98v12.31h.98V25.25Zm.98 0v12.31h7.88V25.25h-7.88Zm9.85 0h-.98v12.31h.98V25.25Zm10.83 0h-.98v12.31h.98V25.25Zm.98 0v12.31h7.88V25.25h-7.88Zm9.85 0h-.98v12.31h.98V25.25Zm-8.37 6.89h1.97v3.94h-1.97v-3.94Zm2.95 0h1.97v3.94h-1.97v-3.94Zm-24.62 0h1.97v3.94h-1.97v-3.94Zm2.95 0h1.97v3.94h-1.97v-3.94Zm14.28.49v-7.38h-7.88v7.38h7.88Zm4.43-5.91h1.97v3.94h-1.97v-3.94Zm2.95 0h1.97v3.94H36.3v-3.94Zm-24.62 0h1.97v3.94h-1.97v-3.94Zm2.95 0h1.97v3.94h-1.97v-3.94Zm29.05-3.94H6.29v1.48h37.42v-1.48Zm-11.82-.98v-2.95h-1.97v2.95h-1.97v-2.95h-1.97v2.95h-1.97v-2.95h-1.97v2.95h-1.97v-2.95h-1.97v2.95H16.1v-4.92h17.72v4.92h-1.97ZM22.8 10.3a7.59 7.59 0 0 0-5.21 5.59h2.46c.15-2.76 1.52-4.54 2.74-5.59Zm1.67 0c-1.11.67-3.23 2.35-3.43 5.59h3.43V10.3Zm.98 0v5.59h3.43c-.2-3.24-2.32-4.93-3.43-5.59Zm1.67 0c1.23 1.05 2.6 2.83 2.74 5.59h2.46a7.59 7.59 0 0 0-5.21-5.59Z" style="fill-rule:evenodd"/></svg>