<?xml version="1.0" standalone="no"?>
<!DOCTYPE svg PUBLIC "-//W3C//DTD SVG 20010904//EN"
 "http://www.w3.org/TR/2001/REC-SVG-20010904/DTD/svg10.dtd">
<svg version="1.0" xmlns="http://www.w3.org/2000/svg"
 width="626.000000pt" height="499.000000pt" viewBox="0 0 626.000000 499.000000"
 preserveAspectRatio="xMidYMid meet">

<g transform="translate(0.000000,499.000000) scale(0.100000,-0.100000)"
fill="#000000" stroke="none">
<path d="M3070 4913 c-155 -244 -607 -968 -606 -970 1 -1 45 20 98 47 86 45
235 101 343 129 37 10 46 20 129 151 49 77 92 140 97 140 4 0 47 -63 96 -140
75 -118 92 -140 118 -145 143 -29 299 -97 418 -181 26 -19 49 -34 51 -34 6 0
-642 1039 -662 1063 -8 9 -19 17 -24 17 -5 0 -31 -35 -58 -77z"/>
<path d="M2935 4090 c-238 -49 -459 -160 -710 -356 -131 -102 -183 -134 -219
-134 -17 0 -70 10 -118 22 -85 22 -87 22 -107 4 -20 -18 -21 -29 -21 -258 l0
-239 25 -24 c28 -29 51 -31 119 -10 65 20 188 20 226 0 16 -8 84 -59 152 -113
355 -283 553 -362 881 -349 243 9 399 70 682 267 253 176 309 195 479 166 186
-31 176 -47 176 281 l0 253 -24 15 c-22 14 -28 13 -98 -14 -182 -73 -228 -57
-449 155 -188 182 -284 246 -459 304 -156 52 -368 64 -535 30z m350 -319 c143
-35 319 -130 453 -246 61 -52 122 -121 122 -137 0 -19 -95 -109 -159 -152
-167 -110 -364 -183 -542 -201 -184 -19 -440 57 -634 188 -76 52 -175 148
-175 170 0 26 111 130 211 196 135 91 304 165 430 190 79 16 209 12 294 -8z"/>
<path d="M3046 3646 c-172 -64 -217 -285 -84 -413 45 -43 101 -65 168 -65 250
0 341 331 125 458 -56 33 -150 42 -209 20z"/>
<path d="M1942 3073 c-27 -5 -9 23 -441 -666 -172 -274 -311 -500 -309 -503 3
-2 29 1 58 7 51 11 202 7 275 -6 l30 -6 333 537 334 536 -33 34 c-62 64 -145
86 -247 67z"/>
<path d="M4153 3030 c-45 -9 -98 -34 -108 -50 -6 -9 627 -1034 660 -1068 10
-11 27 -11 94 -2 63 10 103 10 173 1 50 -7 92 -10 94 -8 2 2 -152 254 -344
560 l-347 556 -48 10 c-55 12 -113 13 -174 1z"/>
<path d="M3568 2675 c-52 -29 -204 -74 -303 -91 -183 -31 -393 -6 -551 66 -37
16 -68 29 -70 28 -6 -8 -607 -964 -610 -973 -3 -6 19 -28 48 -50 29 -22 105
-91 170 -153 65 -62 133 -119 153 -127 55 -24 118 -19 195 15 79 35 118 38
151 11 24 -19 24 -20 27 -285 l4 -266 349 0 349 0 2 271 3 272 28 21 28 21 92
-32 c201 -70 209 -68 422 134 91 86 165 160 165 165 0 12 -611 988 -619 988
-3 -1 -18 -7 -33 -15z"/>
<path d="M1250 1868 c-176 -25 -360 -113 -678 -325 -128 -85 -254 -164 -279
-175 l-46 -20 -87 21 c-168 41 -160 54 -160 -260 0 -154 4 -258 10 -270 14
-25 42 -24 110 2 77 30 196 37 242 15 20 -10 94 -64 165 -120 176 -141 281
-211 388 -262 176 -83 356 -110 540 -80 193 32 326 90 605 263 285 177 349
196 547 158 97 -19 89 -19 113 5 19 19 20 33 20 279 0 283 -1 289 -57 278 -16
-3 -55 -16 -88 -31 -42 -18 -78 -26 -121 -26 -93 0 -138 28 -289 180 -142 143
-204 189 -340 255 -213 103 -407 140 -595 113z m249 -344 c79 -20 241 -104
343 -177 107 -76 228 -185 247 -221 14 -25 13 -28 -15 -57 -61 -65 -214 -153
-365 -208 -286 -104 -509 -94 -794 38 -148 69 -315 194 -315 236 0 26 129 146
234 216 148 99 301 165 434 189 57 10 155 3 231 -16z"/>
<path d="M1303 1409 c-58 -11 -94 -31 -135 -77 -50 -55 -72 -119 -65 -186 25
-246 344 -311 462 -94 98 181 -58 395 -262 357z"/>
<path d="M4740 1864 c-155 -28 -341 -103 -468 -188 -37 -25 -125 -104 -197
-176 -150 -151 -196 -180 -288 -180 -42 0 -80 9 -134 30 -41 17 -82 30 -92 30
-39 0 -41 -15 -41 -282 0 -245 1 -259 20 -278 24 -24 16 -24 113 -5 198 38
262 19 547 -158 279 -173 412 -231 605 -263 184 -30 364 -3 540 80 107 51 212
121 388 262 71 56 145 110 165 120 46 22 165 15 242 -15 68 -26 96 -27 110 -2
6 12 10 116 10 270 0 314 8 301 -160 260 l-87 -21 -46 20 c-25 11 -151 90
-279 175 -128 86 -279 178 -334 206 -232 116 -419 151 -614 115z m341 -345
c94 -26 235 -95 345 -168 105 -70 234 -190 234 -216 0 -42 -167 -167 -315
-236 -285 -132 -508 -142 -794 -38 -151 55 -304 143 -365 208 -28 29 -29 32
-15 57 32 61 250 235 392 313 196 108 338 130 518 80z"/>
<path d="M4862 1409 c-160 -30 -245 -213 -167 -357 118 -217 437 -152 462 94
17 159 -134 293 -295 263z"/>
<path d="M253 403 c-237 -382 -236 -380 -228 -393 4 -7 1094 -10 3106 -10
2666 0 3100 2 3105 14 3 8 0 26 -8 39 -33 63 -424 677 -430 677 -7 0 -236
-174 -241 -183 -1 -2 26 -49 60 -105 35 -55 63 -107 63 -116 0 -15 -218 -16
-2545 -16 -2139 0 -2546 2 -2551 14 -3 7 22 56 55 109 34 53 61 99 61 101 0 3
-28 26 -62 52 -35 26 -88 71 -119 101 l-56 54 -210 -338z"/>
</g>
</svg>
