<?xml version="1.0" encoding="UTF-8"?><svg id="uuid-1c5d8f9c-d915-4c09-b64c-5ab1c920916d" xmlns="http://www.w3.org/2000/svg" viewBox="0 0 500 500"><defs><style>.uuid-28fe69c8-5671-429b-9c66-b331108cd64e{fill-rule:evenodd;}</style></defs><path class="uuid-28fe69c8-5671-429b-9c66-b331108cd64e" d="M231.59,313.49h36.92v-10.3h-26.45v-90.88l13.92-16.3-13.92,2.52v-13.96h-10.47v0h-89.45V95.51l78.94-30.79,57.52,.13,81.06,31.51,.09,88.2h-91.02v43.08l60.67,6.37,5.81-38.18h24.55l.18,156.4-91.54,83.04v-82.47h-37.13v82.48l-89.13-82.48V195.84h22.96l5.81,38.18,60.67-6.37v85.84h0Zm145.6-70.45v-44.53l41.97,6.22,2.97,20.8,19.85,6-21.15,65.18,22.31-10.12,19.58-81.29-85.54-17.22V103.5l103.05,40.06-6.72,149.51-22.68-2.88-2.55,20.11-15.28,3.85,.57,7.21,13.87-2.15,.57,12.72-9.76,6.17,1.49,21.74-10.49,32.32-52.05-31.87v-96.2l21.26-24.89-21.26,3.84h0ZM20.92,169.32l-1.16-25.76,104.85-40.89v85.42l-85.54,17.22,19.58,81.29,22.31,10.12-21.15-65.18,19.85-6,2.97-20.8,41.97-6.22v161.78l-53.85,31.59-10.49-32.05,1.49-21.74-9.77-6.17,.57-12.72,13.86,2.15,.57-6.65-15.28-4.41-2.55-20.11-22.68,2.88-5.22-116.14,7.75-9.07-8.09,1.46h0Z"/></svg>