<?xml version="1.0" encoding="UTF-8"?><svg id="uuid-94c09874-f309-4892-8b11-83415347c5f9" xmlns="http://www.w3.org/2000/svg" xmlns:xlink="http://www.w3.org/1999/xlink" viewBox="0 0 500 500"><defs><style>.uuid-97f50e3d-efe3-43ce-9488-43139fa5961e{fill:none;}.uuid-f6217b75-fb08-43dd-8b9a-db9f19441303{fill:#231f20;}.uuid-42590680-2192-408c-991e-99d88dc5259f{clip-path:url(#uuid-6fbf69b7-2024-4aed-8a36-b6b4913bc6e3);}</style><clipPath id="uuid-6fbf69b7-2024-4aed-8a36-b6b4913bc6e3"><rect class="uuid-97f50e3d-efe3-43ce-9488-43139fa5961e" x="12.76" y="0" width="474.48" height="500"/></clipPath></defs><path class="uuid-f6217b75-fb08-43dd-8b9a-db9f19441303" d="M258.77,468.77c-.13,.35-.26,.7-.36,.9,.1-.22,.23-.53,.36-.9h0Z"/><g class="uuid-42590680-2192-408c-991e-99d88dc5259f"><path class="uuid-f6217b75-fb08-43dd-8b9a-db9f19441303" d="M455.16,44.61h0c-.04-.07-.04-.08,0,0h0Z"/><path class="uuid-f6217b75-fb08-43dd-8b9a-db9f19441303" d="M397.23,251.18c-1.2,2.71-.85,15.93,1.49,18.09-3.13,1.85-3.3,10.98,.21,12.47-.77-.04-2.37,0-3-.32,.3,2.32-6.59,27.04-5.54,27.36,.21-.53,.16-.99-.16-1.38-1.12,3.05-4.11,11.05-3.63,12.5-3.34,2.43-1.94,3.91-2.73,7.49-.04-.53-.81-2.25-.31-2.74-.39,1.6-.87-2.29-.91-2.53-1.37,3.71-2.73,7.43-4.09,11.14,.58,.14,1.16,.28,1.74,.42-1.47,1.98-4.23,3.78-4.67,8.3-.13,.42,.77-2.85,.85-2.28-.09,1.23,.12,1.22,.62-.02-2.9,8.78-.22,0,.28,3.4-.56-.43-1.41-1-1.74-.44,1.18,.03-.9-1.24-.55-.94-.75,2.16-2.34,3.32-3.35,6.45,.75-2.44,2.13-4.81,3.12-7.01-.16,.49-.44,.46-.86-.1-1.03,1.3-2.74,5.58-3.27,7.47-.35,.78-.64,5.5-5.06,7.9-3.89,3.73-5.63,6.51-7.22,9.98-1.1-.4,.19-.4-.03,.06-1.62-.05-.67-1.06-2.36,1.18,.18-.65-1.67,3.11-.98,2.09-.97,1.16,.37-.52-.74,1.07-.15-1.21-2.43,2.31-2.02,1.99-5.86,3.51-5.47,4.19-12.89,7.2,.31,.38,.7,.42,1.16,.12-.59,1.18-2.36,1.04-1.63,.19-.58,.63-.4,.56-1.8,.31,.31,.51,.46,.27,1.07,.37-2.22,1.78,.31,0-.97-.03,.57-.03-.6,1.6-.56,1.47,.94-.02,.23-.99,.82,.23-1.27,.31-.25-.27-1.91-.22,.87,.99-.22,.74-1.01,1.06,.75,.28,1.5,.55,2.25,.83-.57,.46-1.64,.99-2.41,1.77,.39-.4,.86-.69,1.41-.87,.14-.02-1.61,1.91-1.59,1.91-.52,.4-11.28,4.98-12.84,4.45,.54,.31,1.07,.19,1.6-.36-.63,.97-1.55,1.58-2.75,1.83,.3-.09,.53-.05,.7,.13,.2,.04-1.46,.35-1.25,.29,.04,.08,.26,.05,.27,.05-.51-.3-.09,.17-.12,.22-.3-.25-1.34-1.19-1.82-1.92,0,0-.2,1.72-.87,2.34-.03-.72,.48-2.05,.7-2.5-2.09,2.22,.48,2.19-2.87,3.46,1.97-.65,3.77-.19-.94,1.44,2.51-1.46-6.17,4.73-1.4-.09-2.65,1.83-2.95,1.31-4.19,1.35,.08-.08-1.13,1.55-1.84,2.04-.59,.26,1.93-2.1,1.97-2.19-.11,.1-.18,.11-.2,.04-1.19,1.25-3.85,2.48-4.65,1.77-.24-.52,1.13-.11,.94-.04,0,.33-7.68,3.9-5.02,2.42-.47,.36-.97,.64-1.51,.86,2.37-1.55-17.19,3.34,3.63-1.78-2.53,.34-3.09,.28-1.67-.18-2.55,.14-2.26,1.61-3.88,2.13-.02-.57,.19-1.04,.63-1.41-2.02,1.24-2.88,2.6-5.91,3.29-.09-.2,.04-.3,.4-.3-.49,.29-.82-.73-.92-1.19,.61,1.01,.17,1.43-1.33,1.26,.04-.13,1.16-1.52,1.22-1.61-2.92,1.23-7.41,6.82-4.52-.97-.93,.88-1.86,1.76-2.8,2.63,1.97-3.73,4.93-6.99,6.21-11.08-.56,4.27,1.56-1.66,4.2-6.37,.09-.04,1.24-3.56,1.35-3.52,0,.12-.3,1.1,.17,1.26,.77-2.69,2.14-12.67-2.01-7.86,1.05-1.05,6.35-9.8,4.53-3.87,2.22-2.54,3.92-5.39,5.09-8.56,.2,1.09-.26,1.56,.97,1.5,3.43,.2,3.95-15.22,5.2-17.85-.45,1.74,13.15-4.76,3.79-4.74,3.81-1.5,5.73-1.39,6.99-3.81-4.96-2.93,6.06-4.64,.01-7.29,3.26-2.32,4.08-5.37,1.29-7.44,4.19-.01,3.06-2.92,1.9-6.39,1.43,.25,2.73-.06,3.9-.91-.67-1.33-1.51-2.53-2.54-3.61,2.25,.6,5.84,2.63,7.13,.46-.45,.84-.34,1.19,.35,1.04,.58-.72,.74-1.41-.08-2.42,.21-.02,1.64-.48,1.49-.31,.94-1.13,.8-2.48-.42-4.06,2.76-.36,4.21-1.86,4.35-4.5-1.69,1.51-3.6,2.49-5.73,2.95,4.72-2.49,10.43-11.51,2.75-14.4,5.43-1.4,7.62-6.63,7.38-11.33,3.94,1.99,4.01-2.96,8.34-3.81-.74-1.35-.55-1.3-1.73-2.79,.14-.15,.28-.35,.48-.42,.06,.01,1.26,.95,1.35,.9,.55-1.09,3.12-12.18,1.79-11.76,12.72-9.53,31.82-10.65,47.55-14.86-2.32,.56-1.19,1.56-1.82,2.45h0Zm-117.01,87.19c-1.16,3.38-4.26,9.91-5.76,10.47-.09,.89,.72,.17,.95,.94-1.24,.82-2.23,1.91-2.98,3.26-.71,1.25,1.33-2.89,1.39-2.99-1.05,2.5-1.49,3.08-1.35,1.73-2.35,2.55,1.09,1,1.33,2.84-.07-.3-1.7-1.02-1.5-1.4,.16,.39,1.1,1.19,1.5,1.4-.42,.04-.56,.06-.41,.06-.02,0-.03,0,0,0-.89-.02-.54-.05-1.35-.17,.84,.2-1.71,2.93-1.54,2.86,.32-.94,.55-1.91,.71-2.89-.73,1.88-5.59,6.81-4.05,7.04-1.95,1.85-2.9,4.08-4.03,6.12-.88,1.5-2.76,3.64-.52,4.26-1.34,.12,.24,.78-.91,1.41,.51-.33,.74-.75,1.13-.25-1.99,1.93-1.38-.3-3.08,3.65-.74-.22-.74,1.09-.69-.75,.16-1.74-.09,1.31-.25,1.54-1.17-.38-1-1.35,.53-2.9,0,1.01,.02,.63,.07-1.14-.47,1.03-4.3,8.65-4.19,9.19,.1-.11-2.93,1.89-3.66,2.97-9.09-13.68-14.3-31.26-20.04-45.7-.67,.38-1.33,.76-1.99,1.13,5.48-1.8,.5-13.2-3.72-12.55,3.15-2.13-6.89-19.24-6.55-19.39,1.6,2.85-.17-2.19,.02-1.68-.44,1.4-.45,3.25-1.07,4.58-.79-.92-1.58-1.85-2.37-2.77,3.4-1.44,4.56-1.65,1.88-5.54l.25,1.66c-2.25-2.96-1.18-7.19-4.96-10.47,2.26-.61,.71-1.01,1.72-2.99,.01,.16,.01,.15,0-.02,.26,.09,.56,.36,1.22,1.45-.56-.92,.9,.22,.57,.49,1.34,.23,6.17-1.48,7.43-2.11,.18-.02-1.13-1.37-.87-.52,.49-.97,3.42-1.68,3.81-1.86-.53,.19-.78,.04-.77-.44,1.5-.37,3.96,.27,5.07,.43-2.05,1.01-6.43,2.74-8.56,3.38,3.83-.78,5.26-1.93,8.44-2.43-1.66-.47,3.57-1.23,4.13-1.36-1.41,.2-3.1-.26-4.47-.39-.03,.05,11.49-2.09,12.95-2.42,7.06-1.61,10.72-2.07,18.25-4.42-.46,.54,1.76-.94,2.76-1.13-.77,1.19,3.83-.78,2.84-.57,5.13-.4,9.33-3.06,16.33-3.24-.13-.44-.44-.62-.94-.54,1.63-1.6,7.38-2.42,9.01-1.32-1.9-1.29,1.97,.67-2.49-.65-.47-.57,4.1-1.53,2.25-.38,2.54-.86,9.94-4.23,12.25-2.6-.38-.41-.86-.42-1.43-.03,.12,.12,6.98-1.82,8.03-2.04-.8,.39-1.38,.27-1.73-.37,3.11-.75,3.67-1.02,1.67-.82,1.91-.47,5.37-2.18,2.27,.29,1.84-.93,5.92-1.01,7.48-2.08-.7,.32-1.38,.68-2.03,1.09,1.43-.18,5.31-1.88,5.92-1.18,.09,.36,.23-1.55,.38-.15,.4-1.04,1.27-1.86,2.31-2.14-2.05,2.29-3.89,5.71-5.08,9.08-.72,.5-14.93,19.83-14.55,23.93v-.04c.23,.05,.06-.71,.75-.58-.26,.52-.89,.85-.51,1.39-.35-.23-.67-.38-.73-.37-.42-1.48-4.71,6.52-4.08,3.2-4.07,1.93-6.82,12.66-9.26,17.05-2.3,4.15-10.95,12.23-6.55,15.89-1.18,.55-5.91,4.04-6.59,4.93h0Zm-71.07-82.65c-.79,.4-1.62,.65-2.49,.77-4.14,.84-9.63,3.14-12.38-6.94-.48,.39-.54,.9-.17,1.54-2.34-2.64-5.81-11.29-5.18-14.81-.68,3.82-.24-5.02,.37,4.09,1.32-2.5-9.28-18.47-8.31-22.34-1.77-2.73-1.21-3.64-2.54-6.71,.94,1.08,1.07,2.06,.39,2.96-.8-1.48-1.49-2.97-1.99-4.55-.04-.18,.49,1.8,.4,1.79-.89-1.15-1.41-4.49-1.86-6.02-.09-.15-.01-.16-.05-.27,.61,.8,1.14,1.64,1.61,2.53-1.73-3.89-3.01-7.92-4.84-11.71,1.21,.88,1.82,2.05,1.84,3.51,0-2.18-1.87-4.92-2.75-7.11,.41,.24,.74,.57,1.01,.97-.38-.94-1.98-5.32-.81-1.63-1.9-1.65-6.11-9.56-4.71-7.69-.98-2.19-2.91-5.13-3.79-6.71,.5,.42,.41-.33,.62,.17,.05-.1,.11-.12,.17-.07-.05-.07,0-.12,.11-.15-.31-.22-.31-.34-.65-1.13,.72,.06,.79,.33,1.27,.29-2.44-2.03-3.11-4.58-4.46-7.83,.26,.5,.52,1,.78,1.5-1.82-4.39-1.54-3.19,.89-5.87-1.1-.56-2.02-.19-2.73,1.11,.04,4.67,.03-.35,.03-.35,.66-8.05,9.89,1.93,8.48-7.02,2.57-1.1,6.01-3.44,6.64-5.25-.04-1.57,1.36-1.46,3.4-2.2-.24,.1-1.87,.61-1.92,.77,2.71-.43,14.61-4.07,13.79-5.11,1.14,.56,.16-.03,.9,.8-.33-.43,.9,1.72-1.35-1.8,.32,.25,1.17,1.12,.21,.11,.25,.18,.46,.39,.65,.63-.24-.38-.06-.24,.56,.44-.4-.44-1.62-1.6-.34-.37-.52-.43-.85-.93-1.32-1.38-.01,0,.53,.42,.24,.14,.59,.39,1.32,1.2,1.77,1.72-1.26-1.16-.17-.22-1.94-1.89,.06-.02,.36,.29,.04-.02,.01,0,.82,.64,.84,.67-.02-.02-.17-.22-.12-.14,.02,.01-.6-.57-.52-.59,4.36,3.27,24.68-17.02,30.24-12.69,4.61,.05,6.2-2,10.64-3.29,5.7-1.65,7.34-2.13,9.25-3.24,11.07,5.95,29.01-2.29,41.73,2.17-.88-.65-1.74-1.3-2.61-1.96,3.2,3.05,4.85-.34,4.71-.21,0-.24,.09-.45,.26-.64,.1,.25,.31,.35,.24,.03,0,.17-.23,.61-.39,.98-.05,.03,.96-1.13,.01,.1,.46-1.23,.05-.15,.24-.65,.01,0,.12,.45,.13,.48-.06-.43-.23-.23,.01-.87,.12,.48,.25,.97,.38,1.45-.24,.02-.23-.93-.39-.76,.32,1.18,.1,.45,0,.18-.03,.09,.16,.42,.18,.51-.02,.03-.22-.46-.18-.51-.04,.71,.29,.08-.23,.37,.47,1.43,.73,1.09,.98,1.65,4.63,.84,8.18,2,13.03,2.99-2.26,.64-4.22-.81-6.3-1.41,1.75,.59,10.09,1.86,10.08,1.85-2.89,1.51,1.75-1.8,1.83-1.83-1.84,5.76,10.47,8.09,15,10.21,5.66,2.66,23.57,14.44,26.81,10.72,2.48,4.96,6.25,7.42,9.14,12.05,.86-.93,1.71-1.86,2.57-2.79,.69,.73-4.3,2.91-.75,5.26,2.07,1.37,5.27,1.45,7.49,2.07,1.17,.33,4.06-.15,4.52-.07,2.09,.37,3.49,6.42,6.06,2.74-1.5,2.73-2.92,5.5-4.27,8.3,2.02,2.13-3.37,8.09-3.74,10.93-4.76,.73-12.25,21.08-14.13,25.11,.22-.28,2.04,.09,1.91,.68-7.77,0-6.9,11.99-15.95,14.23,.97,.02,1.94,.04,2.91,.06-5.07,1.33-10.28,.23-15.91,1.79-5.17,1.43-8.92,5.07-15.12,5.01,2.12-.29,1.82-.89,4.16-1.19-3.11,.22-8.36,1.26-9.3,.93-.52,1.24-.59,1.09-2.09,1.27,3.24,.05-9.3,1.75-1.5,0-4.8-.32-10.94,1.66-15.54,2.86,5.09-.2-8.39,2.99,3.45,.07-4.82,.69,1.41-.27,1.9-.83-.55,.63-3.03,1.41,.32,.61-1.87,.53-5.74,1.45-6.92,1.45-2.42,0-.27,2.95-1.96,3.35-1.07-4.29,2.05-4.98,5.37-5.57-4.22,.45-6.06,.19-5.48,5.28-.26-.65-.64-.77-1.15-.35,.25,0,.48,.06,.71,.18-1.7,.36-.02,.61-1.62,.91-1.55-.36-1.39-.51-3.35,.16-.43-2.06-.71-3.48-2.86-3.04,3.01,.14-6.68,2.14-6.51,2.1,2.14-.21,4.28-.34,6.42-.38-1.22,1.88-15.41,2.71-16.52,3.41-3.96-.78-10.11,.83-10.8,3.59-.69-.29-.57-.91-1.26-.64,.48-1.05,.96-2.09,1.44-3.14-7.7,2.17-14.85,4.61-22.71,6.27,.57-.03,1.15-.06,1.72-.08-.17,.03-4.7,1.16-4.53,1.12-1.32,.3,0-.02-2.14,.3,2.36-1.99-4.99,1.01-5.91,1.15,2.74-.85-3.27,.09-3.47,.32h0Zm1.7,141.58c-.1,0-1.43-1.02-1.43-1.14-.35,.93-3.58,.44-3.39,.38-1-.26-7.29-2.73-6.28-2.26-4.53-1.56-3.29-.22-4.01-2.73-1.33,.05,1.88,1.68-1.21,.37,.46-.3,.88-.61,1.14-.8-6.49,.6-17.97-13.54-20.86-13.41-.51-2.28-8.31-6.26-10.62-8.22-5.66-4.82-14.06-14.73-18.72-20.62,.42,1.12,1.42,1.63,2.05,2.57-1.88-1.41-4.03-4.5-5.63-7.76,.66,.45,1.28,.94,1.87,1.47-2.39-3.74-10.45-20.05-11.89-18.67,1.43-2.64-3.78-6.39-3.28-9.02,1.4,.45,.22-.46,.67-.39,8.5,1.27,26.19-5.82,34.91-7.88,.19-.04,7.99-2.35,9-2.21,7.75,1.1,1.31-1.27,5.42,3.82,1.44,1.79,3.22,10.84,4.53,11.16-.34-.88-7.82-9.37,.69,4.53,.01-.43,.03-.87,.04-1.3,1.88,2.85,3.05,8.64,5.42,12.54-.4-.48-.76-.99-1.09-1.52,.17,1.48,2.36,6.8,1.54,4.76-.77,3.04,1.54,3.31,3.45,2.85-6.1,2.59,2.91,2.59,6.21,2.79-2.17,2.45-2.53,2.88-5.12,4.96,.46,.7,1.23,.94,2.3,.72-1.58,1.59,2.85,3.64,5.49,5.32-9.64,7.77,4.42,9.66,7.82,17.68-1.55-2.37-5.62-5.19-4.93,.09-.69-.28-1.38-.57-2.06-.89,.64,2.76,.32,4.31,.43,8.57,.79,.49,1.49-.13,1.8,0,.3,1.28-.36,2.46,.1,4.12,.36-.41,.31-1.2,.47-1.69,.4,.89,.2,.47,.14,.87,.08,.18,.92-.15,.75-.07-.15-.45-.54-.68-.54-1.25,1.64-1.18-.08,2.87,.05,2.68-.12-.17-.18-.51-.34-.59,0,.11-.05,.16-.17,.14,.46-.09,.02,.83-.09,1.02,.53-.53,.13,.26,.78,1.22-.61-.74-.33-1.55,.18-2.13,.02,.1,.09,1.67-.23,.45,.03-.1-.13,.75-.13,.29-.13,.38,2.37,3.75,2.7,5.3-.19-1.53,.72-1.98,1.15,.6,1.07-.92-1-.59,.08,.85-.03-.11,.02-.27-.02,0,0,0,0,0,0,0,0,.1-.03-.48,.04-.16-.15-.06-1.44-.76-1.28-.74,.34,.68,2.23,2.24,2.11,3.31h0Zm-85.58-125.28c-2.05,.5,2.06,1.36,1.24,1.01-.08-.11-10.36,4.79-10.37,0,.11,.69-.13,1.09-.72,1.19-.09-.23-1.47-5.3,.29-2.84-.03-.08-.58-5.19-.74-5.18,.65-.05,.95,.37,.9,1.24,.14-1.2-.47-4.06,.14-4.27-1.2,0-1.51-3.71-1.16-3.02,.33-3.52-.5-5.23,1.3-7.02-.41-.52-1.25,.1-.91-1.08,.29,.26,.85,.67,1.14,1.03,.27-1.14-.11-1.5-1.12-1.1,.83-3.84,4.44-14,3.9-18.92,2.32-.82,6.51-8.56,5.63-9.73-.86-4.47,12.05-24.08,11.4-26.89-.73,.25-1.08-.22-1.43-.54,.57-.39,2.2,.51,2.88,.74-.33-.11,.78-1.8,.29-1.18-.39-.22-.43-.56-.09-1.02,.29-.86-.69,1.98-.89,1.94,.29-.16,1.44-2.48,1.56-2.69,.04,.49-.51,1.87-.44,2.22,.73-.55,1.72-2.84,2.38-3.99,.73,1.28,.02-.01-.26,.6,.68,1.47,5.48,5.21,3.79,7.31-.18,4.09,1.42,8.29,3.39,9.79-2.27,3.13-.46,2.38,.94,4.2,1.26,.51,6.1,19.02,7.06,21.32-.03-.46,1.42-1.45,1.75-.97-4.01,4.45-1.15,6.28,3.74,9.02-1.57-.05-3.22,.75-4.8,.85,2.14,2.63,4.13,5.15,5.46,8.15-.44-.46-.81-.97-1.12-1.53,.54,4.15,1.66,4.88,1.46,5.53-.27,1.86,1.07,4.33,1.94,5.98,.24-.3,.52-.34,.83-.1-.04-.07-1.18-1.72-1.47-1.52,.55,.1,.81-.11,.79-.65-.12-.23,2.36,4.44,2.48,3.24,.51,1.21-1.13-.57,0,1.65-.62-.02-3.14-2.36-3.38-3.05,.23,.96,1.73,1.09,1.77,1.9-.65-.51-1.75,.76,1.54,1.25-3.32-3.55-15.94,4.64-19.89,3.97-1.03-.51-10.13,1.19-16.27,1.79,.19,.34,.46,.5,.83,.49-.77,.86-6.18,2.22-5.77,.85h0Zm251.03-53.69c.87-.68-.12,2.99,.2,2.72-.81-.29,9.27-18.87,10.3-20.09,.07,.71,.44,1.21,1.12,1.49,.15-.65-1.15-1.49-.99-2.28-.49,.33,7.6,19.46,8.37,21.72-7.54,1.47-15.11,2.8-22.66,4.23,.18-.39,2.36-6.07,3.65-7.8h0Zm72.92,12.86c7.5-2.6,11.16-3.55,16.64-6.33-16.64,2.28,14.77-8.48-.84-9.44,3.64-1.65-7.51-.5-9.41-.54-.5-.43-3.92-.76,.18-2.88-5.63-.88-11.75,.58-20.77,2.53,.01-.33,0,0,0-.28,2.33-.54,4.65-1.1,6.97-1.68-2.34,.34-4.66,.77-6.96,1.31,.1-3.49-2.94-10.02-4.08-13.82,.62,1.39,1.14,2.81,1.63,4.25-.88-3.74-2.48-10.39-5.9-12.31,0-1.21,3.38,5.04,2.6,3.25-.98-1.33-1.68-2.24-2.67-3.14,.1,.77,.75,1.95-.3-.14,.04,.13,.56,1.87,.14,2.29,.03-1.05-1.01-1.88-1.07-2.97,.3,.52,.3,.38,0-.43,.08,.24,.21,.44,.38,.6-1.59-6.98-6.13-13.55-9.74-19.88,.85,1.33,1.71,2.66,2.58,3.98-2.17-3.82-4.82-6.62-6.72-10.42-4.05-8.08-4.15-8.52-.27-16.35,4.67-9.43,9.53-18.77,14.29-28.15-.78,1.64-1.55,3.28-2.34,4.91,19.76-40.36,39.01-82.59,63.66-119.56-.56,.21-1.12,.42-1.68,.63,.41-.78,.81-1.55,1.22-2.33-1.48,1.27-3.84,1.55-5.48,2.63,.5-1.04-1.04-5.34-.89-6.91-12.49,24.61-20.69,41.04-35.56,62.07,2.93-4.25-1.09,.32-1.88,1.74-1.78,3.2-2.65,7.53-4.68,10.57-1.27,1.91-3.19,2.1-3.79,2.96-2.96,4.28-5.23,9.51-8.34,14.75-4.64-3.13-8.84,9.94-10.89,14.01,0,0,.82-.26,.82-.21-1.02,1.77-2.96,1.91-3.25,1.94-1.85,1.61-.83,1.65-2.84,1.66-.44,1.21-5.49,14.98-3.81,15.12-.32,.14,1.45-1.47,1.33-1.39-.36,.29-.51,1.5-.51,1.45-1.14,.06-3.32-.72-4.36-.93,.02-.22,.81,1.19-.49,1.85-.05-.39-.1-2.05-.1-2.06-.93,1.74-.43,1.95-1.67,3.6,1.89,.8,1.39,1.63,3.2,2.55-1.22,.8-3.86,3.56-5.18,3.79,.04,.45,.67,.11,.58,.76-3.4,.16-.65,2.1-.18,3.29-.37,.56-2.32,2.5-3.2,3.38-3.03-2.63-2.33-2.47-2.36-4.45-.08-.05-1.18,.47-1.09,.58,1.06-.68,.54-.72,1.18-.7-.9-.74-4.41-1.9-5.92-2.08-.24-2.58-2.53-4.85-4.53-7.13-.75,.84-1.66-1.3-.29,1.91-1.02-2.2-9.73-7.51-11.29-8.37-2.67-1.47-2.26-4.82-7.59-2.65,.4-6.94-4.27-6.12-9.83-7.75,1.4-2.32,1.06-1.88,1.21-3.47-5.7,1.75-7.14-3.86-11.19-2.21,.25-4.97-3.83-3.22-4.97-6.69-.73,3.33-2.15,6.33-4.23,9.02-1.14-2.95-1.59-6-1.34-9.15,.17,1.98-5.76-2.31-3.27-1.61,1.6,.89-6.78-2.54-11.53-4.24,2.41-.24,4.83-.3,7.25-.18-4.66-1.85-7.09-4.83-10.34-1.02-.61-5.08-5.71-3.6-8.9-4.47-.85-.23-24.13-4.04-24.16-4.1,.43,.21,.86,.42,1.3,.62-.4,.63-.92,.03-1.53,.05,.55-.01,1.21,.43,1.08,.88-3.27-.93-4.35-2.11-5.66-.23,.03-.05,0-.04-.07,.02-1.26-2.72-2.95-2.77-5.91-3.23-.96-.15-3.6,.76-5.87,1.02-3.64,.42-7.27,.73-10.9,1.25-2.95,.42-7.56,6.36-7.48,1.25-1.57,4.03-6.16-3.15-11.84-.71-.13-1.07-3.76,2.03-4.63,2.51-4.44,2.46-6.12,1.97-5.9,6.27-1.5-3.98-10.01-8.73-15.24-2.57-.33,.39-.03,6.21-.75,8.82-2.55-2.3-2.6-4.37-6.39-4.79-2.17,2.34-10.42,2.5-13.49,3.64-2.79,1.04-.93,.59-2.72,1.27-1.69,.64-13.32,4.32-9.4,3.09-8.02,2.54-19.17,9.36-21.53,11.42-3.88,3.03-6.47,6.69-10.35,9.64-5.16-12.99-9.16-21.74-13.98-35.58,.33,.49,.67,.98,1,1.48-2.31-6.9-5.88-13.09-8.62-19.8-.6,.24,2.6,7.95,2.57,9-1.05-5.4-5.98-12.09-4.11-14.12-2.93-7.54-6.37-15.07-9.43-22.64,1.82,5.21,4.26,10.18,6.14,15.36-.37-.77-.75-1.54-1.12-2.31,.48,.99,3.72,7.82,3.58,7.44-.02,1.14,.39,1.94-.34,3.13-.48-1.17,.3-1.92,.21-3.08-.19,.74-.38,1.48-.56,2.21-2.27-5.49-3.75-13.71-7-18.33,.82,1.36,1.57,2.76,2.25,4.2-3.77-8-6.63-16.39-9.8-24.63,.53,1.14,1.06,2.29,1.59,3.43-2.42-6.25-4.35-10.56-8.01-14.44,3.27,.69,5.3,4.57,5.97,8.12-3.05-7.82-8.29-10.2-14.87-15.86,.79,1.87,.64,4.15,1.32,6.06-.72-.13-1.44-.27-2.16-.4,.2,.08,2.28,1.04,2.3,1.04-.55-.09-1.11-.19-1.66-.28,1.58,2.47,4,9.58,6.71,7.92-1.05,3.5-1.99,6.59-.77,8.39-.21,.13-2.1,.51-2.45,.51,5.08,10.05,6.98,19.95,9.15,29.89,2.42,11.11,8.55,23.3,9.66,34.38,.63-.66,1.25-1.31,1.88-1.97,.34,.24,.67,.48,1.01,.73-5.8,2.11,3.04,28.34,4.99,33.8-.02-.05,.02-.1,.11,.12-.03,.01,.66-1.9,.56-1.54,.59,.94-.13,2.62-.32,3.68-.8-.47-1.6-.94-2.4-1.41,3.23,7.4,6.78,11.78,4.02,18.78-1.66,4.22-5.14,5.33-6.63,8.05-.42,.77-2.55,10.53-3.83,14.32-2.13-1.36-4.34-3.42-3.87,.56-1.53-1.22-7.97,5.96-9.72,10.85-1.39,3.89-.87,6.66-1.84,8.5-1.07,2.03-2.3-.05-3.83,3.27-1.58,3.43,.47,5.41-.12,9.06-9.89-2.75-.59,27.46-9.43,29.27,1.74,2.7,1.52,5.39,3.84,7.52-.73,3.35-3.23-7.27,.08,2.25-9.09-.34-8.19,3.79-8.94,12.08-.61,6.78,1.35,15-.02,21.47-2.68,12.67,5.05,2.57-4.2,7.67-3.85,2.12-11.35,2.37-15.99,3.3-8.79,1.77-21.59,1.28-29.24,5.47-7.53,4.12-7.85,10.87-9.85,17.71,2.41-.14,4.33,.86,5.76,3.02-10.13,4.55-6.71,14.14-11.91,21.08,3.57,1.4,7.19-.47,11.43-1.57-2.38,2.45-5.51,4.99-5.43,8.8,4.06-.06,20.81,1.46,23.19-4.22-.08,.48-.1,.96-.08,1.44,1.56-2.64,6.28-10.43,5.58-2.85,3.06-6.47,4.02-1.47,4.75,2.29,3.65-.88,12.43-8.11,13.72-10.84,1.92,2.34,1.26,4.01,1,8.08,4.44-.87,12.52-4.01,17.08-3.87,7.14,.23,2.39-2.54,7.79,4.82,1.7,2.31,.21,.65,3.34,1.03-6.86,5.72,19.94,38.38,25.64,45.19,1.36,1.63,43.67,40.32,44.97,37.71-1.99-1.19-3.82-1.81-5.65-2.86,12.34,8.07,24.65,14.13,38.49,19.14-3.08-1.32-6.15-2.64-9.23-3.96,3.76,1.27,14.86,6.36,15.62,6.54,4.07,.93,11.73,.95,15.01,3.56,2.77,2.2-1.09,8.57,4.78,7.37-4.48,3.66,8.3,26.59,8.61,32.27-.34-1.41-.67-2.8-.93-4.22,1.44,2.08,2.31,5.93,3.41,8.91,.35-.29,1.92,.06,2.28-.24,0,3.24-2.5,5.37,.11,11.06-.4-1.06-.65-2.49-1.01-3.65,2.83,3.59,4.93,4.9,9.17,9.04-3.72-7.49,4.11-26,11.06-30.43-1.31,.9-1.27,.48,.1-1.27-.14,.74-.51,1.22-1.1,1.43,0-.76,1.75-3.76,2.25-4.77,.86,1.99,.48,3.43-1.25,4.62,2.21-1.49,3.18-5.44,5.45-8.32-.05-.03-.1-.06-.14-.1-2,2.26-3.23,4.54-3.89,7.26,.14-.44-.06-3.67-.1-3.64-.1,.17-.17,.12-.19-.15,.37,.71-.67,2.66-.84,3.18,.15-.48-.06-4.8,.84-3.18,.02,.04,3.59-3.9,3.22-4.22,.65,.54,.05,.11,.03,1,1.5,3.09,.22-.92,.44-.62-.12-.1-.09-.08,.11,.08-.72-.32-1.08-1.67-1.48-1.85,4.09,1.64,6.07-6.42,7.93-10.3,.3,.72,.61,1.43,.91,2.15,1.11-2.55,2.43-5.02,3.64-7.53,1.9,1.45,8.32-.07,12.47-.63-1.63,.34-3.26,.39-4.87,.14,1.67-.49,5.01-1.36,6.68-1.23-3.2,.58-7.24,1-10.31,.95,5.7-.67,11.52-2.43,14.24-3.2-.43,1.79-4.34,3.34,.14,2.21-4.25,1.63-9.26,1.96-14,2.57,7.34-.73,12.93-2.33,19.52-3.69-1.16-.37-.16-1.04-2.41-.55,.65-1.2,.74-.34-.12-1.34,.24-.05,1.45-.39,1.11,.06,.21-.27,.9-1.07,1.02-1.16,.02-.01,.06-.04,.05-.04-.05,.03,1.73,3.3,2,3.72,4.73-3.81,15.1-3.41,21.79-5.96-1.16,.5-2.36,.88-3.59,1.14,7.1-2.67,17.83-10.8,24.84-12.35-7.74,3.39-14.81,7.04-22.84,9.93,4.2-2.52,8.96-3.09,13.23-5.26-.09,.06,10.99-5.23,12.82-6.61,4.38,1.49,10.26-4.28,15.05-7.33-2.67,1.39,.93-.78,1.7-1.41-.27,.26-.49,.46-.82,.67,1.17,.08,2.48-.78,4.03-.73-.23,.15-.47,.26-.73,.34,.28-.07,2.44-.79,.92-.32,2.66-1.16,10.77-9.54,11.6-9.29,2.69-.79,13.01-6.08,13.01-9.11,1.59-2.38,2.37-2.91,3.17-5.73-.42,.8-.94,1.52-1.58,2.14,.15-.77,.16-1.02,.84-1.49-.07-.17,.44-2.21,.16-1.86,.52,.77,1.06-.2,.58,1.21-.99,2.75,7.16-3.48,5-3.89-2.44,3.53-2.07,3.04-4.74,3.15,0-.02,5.18-.9,3.12-4.97,.54-.22,5.99-5,5.91-4.91,1.09-1.06,.78-1.23,.38-2.58,0,.87,2.61-6.44,.74-.26,2.38-5.37,9.46-10.38,12.4-14.09,2.04-2.57,1.99-7.29,4.16-11.01,3.8,.35,2.87-4.55,6.27-5.43,.25-5.57,4.43-20.55,9.34-23.93-.59-.54-1.22-.28-1.88,.78,1.6-1.15,1.33-1.65,.68-2.61,.3-.05,2.56-6.27,3.06-6.87-.28,.82-.5,1.66-.67,2.51,.31-1.92,.95-2.69,1.59-4.28-.9-.33,.27-.08-1.2-2.52,.32,.76,.52,1.55,.6,2.38-.05-.07-.86-.39-.99-.19-.09-1.41-.33-3.65,.75-3.98-1.04,.29-.16-.41-.34-1.7,1.13,.98,.15,2.3-.03,3.45,1.01-1.59,.72-1.57,.68-2.61,.22,.44,.06,.76,.58,.59,.16-2.35,2.11-6,1.17-8.86,.61,2-.9,5.88-3.18,5.54,.59-2.96,5-.53,1.67-7.03,1.18,.92,.86,2.26,.94,3.57,.03-.98-.86-4.33-.77-4.48,2.39,1.33,1.35,4.05,1.45,6.19,1.38,.04-.28-5.77-1.25-6.35,2.87-.43,1.64-3.71,1.75-4.45,.18,1.14-.2,2.38,.09,.67,.3,.72,.21,1.15-.28,1.29-.2-2.43,2.93-8.08-.34-7.76-.29-3.14,.39-5.98,2.81-6.84-.19-.44-.74-.48,.45-.17-.74-1.78-.5-4.61-.48-5.05,0-.02,.52,.59,.63,.32-1.92-1.55-1.06-15.67-1.18-17.6,.69,5.06-1.84-13.83,.25-5.47-.32-2.1-.64-9.3-1.73-11.08,.56,.91,.55,7.47,.8,8.82,.16-3.23-3.88-11.09-1.06-13.84,2.71-2.64,7.57,3.34,9-2.37h0Z"/></g><polygon class="uuid-f6217b75-fb08-43dd-8b9a-db9f19441303" points="216.07 293.51 216.07 293.52 216.07 293.51 216.07 293.51"/><path class="uuid-f6217b75-fb08-43dd-8b9a-db9f19441303" d="M215.97,293.35s0,0,0,0c0,0,0,0,0,0h0Z"/></svg>