<?xml version="1.0" standalone="no"?>
<!DOCTYPE svg PUBLIC "-//W3C//DTD SVG 20010904//EN"
 "http://www.w3.org/TR/2001/REC-SVG-20010904/DTD/svg10.dtd">
<svg version="1.0" xmlns="http://www.w3.org/2000/svg"
 width="1000.000000pt" height="1000.000000pt" viewBox="0 0 1000.000000 1000.000000"
 preserveAspectRatio="xMidYMid meet">

<g transform="translate(0.000000,1000.000000) scale(0.100000,-0.100000)"
fill="#000000" stroke="none">
<path d="M4280 9155 l-715 -715 -1007 0 -1008 0 0 -1007 0 -1008 -712 -712
-713 -713 713 -713 712 -712 0 -1008 0 -1007 1007 0 1008 0 717 -717 718 -718
718 718 717 717 1008 0 1007 0 0 1007 0 1008 712 712 713 713 -713 713 -712
712 0 1008 0 1007 -1007 0 -1008 0 -715 715 c-393 393 -717 715 -720 715 -3 0
-327 -322 -720 -715z m965 15 l240 -240 -485 0 -485 0 240 240 c132 132 242
240 245 240 3 0 113 -108 245 -240z m602 -602 c62 -62 113 -116 113 -120 0 -5
-432 -8 -960 -8 -528 0 -960 3 -960 7 0 4 51 58 112 120 l113 113 735 0 735 0
112 -112z m-3327 -451 c0 -1 -144 -146 -320 -322 l-320 -320 0 323 0 322 320
0 c176 0 320 -1 320 -3z m45 -677 l-680 -680 -3 177 -2 177 502 503 503 503
180 0 180 0 -680 -680z m2127 437 l-242 -242 0 -383 0 -382 -154 0 -155 0
-176 106 c-97 58 -178 104 -180 102 -2 -2 23 -47 56 -101 32 -54 59 -100 59
-102 0 -3 -48 -5 -107 -5 l-107 0 -276 -275 -275 -275 -275 275 -276 275 -64
0 -65 0 200 200 200 200 140 -140 140 -140 175 175 175 175 247 0 248 0 0 247
0 248 142 142 143 143 335 0 335 0 -243 -243z m1185 101 l143 -143 0 -247 0
-248 248 0 247 0 175 -175 175 -175 140 140 140 140 200 -200 200 -200 -65 0
-64 0 -276 -275 -275 -275 -275 275 -276 275 -382 0 -382 0 0 382 0 383 -242
242 -243 243 335 0 335 0 142 -142z m1741 -361 l502 -503 -2 -177 -3 -177
-680 680 -680 680 180 0 180 0 503 -503z m502 178 c0 -179 -1 -325 -3 -325 -1
0 -148 146 -327 325 l-325 325 328 0 327 0 0 -325z m-2845 -1205 l270 -270
387 0 388 0 0 -387 0 -388 272 -272 273 -273 -273 -273 -272 -272 0 -388 0
-387 -387 0 -388 0 -272 -272 -273 -273 -273 273 -272 272 -388 0 -387 0 0
388 0 387 -270 270 -270 270 -270 -270 -270 -270 -2 -385 -3 -385 -344 -3
c-245 -2 -348 1 -357 9 -11 9 -14 58 -14 235 l0 223 117 3 118 3 3 245 2 245
178 178 177 177 -177 178 -178 177 -2 245 -3 245 -117 3 -118 3 0 223 c0 177
3 226 14 235 9 8 112 11 357 9 l344 -3 3 -385 2 -385 270 -270 270 -270 270
270 270 270 0 387 0 388 388 0 387 0 108 -65 c59 -35 107 -62 107 -58 0 3 -27
50 -60 105 -33 54 -60 102 -60 106 0 8 442 452 450 452 3 0 127 -121 275 -270z
m2833 -282 c9 -9 12 -75 12 -235 l0 -223 -115 0 -115 0 0 -247 0 -248 -177
-177 -178 -178 178 -178 177 -177 0 -248 0 -247 115 0 115 0 0 -223 c0 -160
-3 -226 -12 -235 -9 -9 -102 -12 -355 -12 l-343 0 0 387 0 388 -272 272 -273
273 273 273 272 272 0 388 0 387 343 0 c253 0 346 -3 355 -12z m-6558 -1310
l0 -963 -115 115 -115 115 0 735 0 735 112 112 c62 62 114 113 115 113 2 0 3
-433 3 -962z m7130 2 l0 -735 -115 -115 -115 -115 0 965 0 965 115 -115 115
-115 0 -735z m-7610 -2 l0 -483 -242 242 -243 243 240 240 c132 132 241 240
242 240 2 0 3 -217 3 -482z m8105 242 l240 -240 -240 -240 c-132 -132 -243
-240 -247 -240 -5 0 -8 216 -8 480 0 264 3 480 8 480 4 0 115 -108 247 -240z
m-5097 -2110 l382 0 0 -382 0 -383 242 -242 243 -243 -335 0 -335 0 -142 142
-143 143 0 247 0 248 -248 0 -247 0 -175 175 -175 175 -142 -142 -143 -143
-203 203 -202 202 70 0 69 0 276 275 275 275 275 -275 275 -275 383 0z m3067
270 l270 -270 65 0 65 0 -200 -200 -200 -200 -135 135 c-74 74 -140 135 -145
135 -6 0 -87 -76 -180 -170 l-170 -170 -247 0 -248 0 0 -247 0 -248 -142 -142
-143 -143 -335 0 -335 0 243 243 242 242 0 383 0 382 383 0 382 0 270 270
c148 149 274 270 280 270 6 0 132 -121 280 -270z m-4087 -1518 l-182 -2 -498
497 -498 498 0 185 0 185 680 -680 680 -680 -182 -3z m4555 506 l-508 -508
-175 0 -175 0 680 680 680 680 3 -172 2 -172 -507 -508z m507 -178 l0 -330
-332 0 -333 0 330 330 c181 182 331 330 332 330 2 0 3 -148 3 -330z m-5915
-10 l320 -320 -323 0 -322 0 0 320 c0 176 1 320 3 320 1 0 146 -144 322 -320z
m3755 -647 c0 -4 -55 -63 -122 -130 l-123 -123 -715 0 -715 0 -122 122 c-68
68 -123 126 -123 130 0 5 432 8 960 8 528 0 960 -3 960 -7z m-510 -511 c0 -4
-101 -108 -225 -232 l-225 -225 -233 233 -232 232 458 0 c251 0 457 -3 457 -8z"/>
<path d="M4825 6020 l-169 -170 -251 -2 -250 -3 -3 -250 -2 -250 -173 -172
-172 -173 172 -172 173 -173 2 -250 3 -250 250 -3 250 -2 173 -173 172 -172
173 172 172 173 250 2 250 3 3 250 2 250 173 173 172 172 -172 173 -173 172
-2 250 -3 250 -250 3 -251 2 -169 170 c-93 94 -172 170 -175 170 -3 0 -82 -76
-175 -170z"/>
</g>
</svg>
