<?xml version="1.0" encoding="UTF-8"?><svg id="uuid-cdf6b691-b0dc-4b31-b223-65e50b74036a" xmlns="http://www.w3.org/2000/svg" xmlns:xlink="http://www.w3.org/1999/xlink" viewBox="0 0 500 500"><defs><style>.uuid-f5cbe468-9bf2-4d8a-a35a-b37afed0bc2f{fill:none;}.uuid-f065c400-181d-41b5-909f-7f1ecbc9b0e6{clip-path:url(#uuid-d3966ee0-bd1e-4911-91b0-3d8cf71a1829);}.uuid-7837b86d-7c3e-48c6-8947-1e5598e5ed26{fill:#0a0203;}</style><clipPath id="uuid-d3966ee0-bd1e-4911-91b0-3d8cf71a1829"><rect class="uuid-f5cbe468-9bf2-4d8a-a35a-b37afed0bc2f" x="-23.21" y="127.87" width="542.79" height="263.91" transform="translate(-110.73 276.67) rotate(-49)"/></clipPath></defs><g class="uuid-f065c400-181d-41b5-909f-7f1ecbc9b0e6"><path class="uuid-7837b86d-7c3e-48c6-8947-1e5598e5ed26" d="M317.84,306.76l-.97-31.32c-13.91,14.66-28.16,24.03-42.11,32.66,13.82,2.24,28.41,1.76,43.08-1.34h0Zm-51.48-.37c.29-.18,.57-.36,.86-.54,16.86-10.36,34.29-21.08,50.84-40.5l.13,.11,31.58-40.83-44.26-15.89c-18.25,1.66-60.99,13.59-104.96,35.78,5.74,17.4,15.68,32.35,29.45,43.69,10.76,8.86,23.12,14.86,36.37,18.18h0Zm-67.52-67.57c28.63-14.31,58.77-25.29,81.62-31.22l-7.69-61.93c-.81-1.44-1.61-2.84-2.4-4.18-6.44,.63-13.91,1.12-21.59,1.62-12.36,.81-25.14,1.64-33.9,3.12-2.06,.35-4.34,.71-6.93,1.09-8.24,18.8-12.75,38.52-13.09,58-.2,11.83,1.18,23.05,3.99,33.5h0Zm15.05-98.38c9.07-1.53,22-2.37,34.5-3.19,10.85-.71,21.97-1.44,29.54-2.59-10.8-7.26-26.24-18.11-43.27-30.1-.38,.45-.77,.88-1.14,1.33-9.05,10.99-16.63,22.78-22.62,35.03,1.05-.17,2.04-.33,2.99-.49h0Zm24.62-40.35c22.75,16.02,44.01,30.95,52.94,36.33,16.34,5.44,77.06,24.62,93.86,29.92-11.97-53.28-5.96-111.7-5.89-112.31l.07-.4,.35-1.3,.66-1.66c-44.99-13.94-101.8,4.57-141.99,49.42h0Zm173.24-32.68c-7.8-6.42-16.44-11.33-25.65-14.82l-.85,2.25c-.32,3.3-4.34,47.96,2.57,92.98,2.9-9.05,6.79-20.01,11.81-31.66l.25-.46c5.75-8.66,14.98-19.98,26.69-32.77-3.71-4.92-7.87-9.47-12.53-13.57-.75-.66-1.51-1.31-2.29-1.95h0Zm18.29,20.44c-10.98,12.06-19.66,22.71-25.12,30.88-7.14,16.61-11.99,31.87-14.83,41.82,.79,3.87,1.66,7.71,2.64,11.5l13.52,34.27,9.98,1.72c1.49,.05,3.78,1.17,12.92,6.02,.52,.27,1.05,.55,1.58,.84,10.19-20.76,15.79-42.83,16.16-64.61,.41-23.76-5.49-45.16-16.85-62.44h0Zm-21.82,161.86c7.7-9.35,14.33-19.28,19.83-29.58-.55-.29-1.11-.59-1.66-.88-4.04-2.15-9.02-4.79-10.51-5.31l-12.54-2.16c-9.93,.51-37.23,10.4-47.09,14.24l-.2,.08-33.49,43.31,1.11,35.97c30.51-7.88,60.86-26.9,84.54-55.67h0Zm-140.65,74.92c1.34,6.31-.19,13.16-4.78,18.37-7.71,8.77-21.07,9.62-29.84,1.91-2.35-2.07-4.11-4.55-5.31-7.23l-10.06,3.58,2.99,7.18c-9.61,4.32-19.88-2.85-43.21,21.28l-31.97,36.83c-1.48,2.38-2.43,5.11-2.63,9.33-.41,8.65-7.6,28.14-18.84,33.43-11.24,5.29-36.85,6.14-54,15.14,6.57-18.21,3.91-43.7,7.62-55.56,3.71-11.86,22.02-21.65,30.54-23.23,6.94-1.29,9.49-4.07,13.01-8.1l.25,.22,24.99-28.79c24.9-29.14,15.54-38.82,18.75-49.37l7.5,2.05,2.27-10.43c-2.81-.85-5.49-2.28-7.84-4.35-8.77-7.71-9.62-21.07-1.91-29.84,4.26-4.85,10.26-7.26,16.24-7.16-16.35-48.84-2.97-111,39.28-159.47,28.25-32.42,65.15-53.99,103.9-60.74,39-6.8,75.14,2.21,101.78,25.37l.11,.09c54.85,47.8,51.78,141.41-6.83,208.68-42.08,48.28-101.51,70.05-151.99,60.82h0Zm98.6-153.37l-42.09-14.91c-14.64-.47-27.06,3.5-34.64,7.11,13.08,32.18,53.88,55.5,99.85,31.14-7.51-10.06-15.31-17.65-23.12-23.33h0Z"/></g></svg>