<?xml version="1.0" encoding="UTF-8"?><svg id="uuid-31eb14cc-af2d-460a-a94e-8acf5fecff4e" xmlns="http://www.w3.org/2000/svg" xmlns:xlink="http://www.w3.org/1999/xlink" viewBox="0 0 500 500"><defs><style>.uuid-5504dbc4-10bb-45e9-8c28-a3002df32e03{fill:none;}.uuid-2b8e3e8d-fb41-4f72-ba40-905fc4228114{clip-path:url(#uuid-815de74a-1e2a-47ec-be26-b3fcd6635a1d);}</style><clipPath id="uuid-815de74a-1e2a-47ec-be26-b3fcd6635a1d"><rect class="uuid-5504dbc4-10bb-45e9-8c28-a3002df32e03" x="13.41" y="120.98" width="445.09" height="291.31" transform="translate(-120.08 269.78) rotate(-49)"/></clipPath></defs><g class="uuid-2b8e3e8d-fb41-4f72-ba40-905fc4228114"><path d="M477.87,184.36s.01-.02,.02-.03c-3.27-.96-6.59-2.09-9.94-3.36-3.35-1.28-6.74-2.71-10.15-4.32-30.21-14.97-56.33-36.24-83.49-55.87-2.33-1.92-4.55-3.8-6.63-5.6-24.81-21.75-67.08-62.35-83.86-99.65-.04,.03-.08,.06-.08,.06-3.97-9.01-13.63-12.58-18.01-4.93l-2.7,5.61c-1.81,3.77-3.51,7.36-5.13,10.78-14.73,31.04-22.84,48.14-48.98,70.75-11.46,9.92-24.64,21.8-37.97,35.45-2.67,2.73-5.34,5.53-8.01,8.44-10.73,11.34-20.23,23.19-29.12,35.65-1.78,2.49-3.53,5.01-5.27,7.55-7.1,8.58-13.31,17.65-18.67,27.1-1.79,3.15-3.48,6.34-5.08,9.57-14.59,35.29-18.85,73.3-27.7,109.75-.4,3.73-.72,7.42-.96,11.08-1.93,29.24,.75,56.09,8.01,80.15,1.01,3.34,2.1,6.63,3.29,9.86,10.07,6.72,20.7,11.31,31.61,13.97,3.64,.89,7.32,1.58,11.1,2.2,6.01,.64,12.1,1.31,18.24,1.91,3.07,.3,6.15,.58,9.23,.84,27.06,1.31,55.89,6.23,81.12-5.85,3.17-1.42,6.26-3,9.29-4.73,21.22-12.13,39.36-31.52,57.97-48.03,2.95-2.58,5.88-5.19,8.78-7.83,8.7-7.93,17.19-16.12,25.49-24.5,2.86-2.51,5.7-5.06,8.49-7.64,13.96-12.92,26.85-26.86,36.89-43.25,2.05-2.79,4-5.63,5.87-8.53,3.74-5.8,7.13-11.86,10.11-18.24,1.93-3.14,3.84-6.18,5.75-9.25,1.94-3.04,3.89-6.11,5.85-9.2,6.8-12.79,15.35-22.62,25.86-30.58,2.25-1.86,4.59-3.67,7.04-5.49,7.34-5.45,15.63-10.92,25.53-17.47,2.74-1.81,5.58-3.69,8.56-5.67l2.79-1.86c.39-.34,.84-.69,1.42-1.07,8.22-5.3,3.29-14.99-6.55-17.78M271.22,20.89c1.96-2.62,4.63,.12,6.03,2.81,0,0,.02-.03,.02-.03,3.13,6.35,6.88,12.74,11.02,19.06h0c-1.31,13.58-4.45,19.57-11.05,27.16-8.87,10.2-18.1,15.14-34.05,18.24-6.03,1.17-12.3,3.07-18.53,5.43,21.82-21.29,30.46-39.13,46.56-72.68M134.91,187.92c-.77,2.43-1.38,4.85-1.87,7.28-.53,9.78-1.96,19.34-4.22,28.63-.75,3.1-1.6,6.17-2.54,9.21-7.57,24.13-19.15,45.72-33.07,66.71,6.05-23.51,5.87-48.13,16.45-70.22,1.37-3.16,2.87-6.27,4.45-9.34,4.77-9.21,10.36-18.05,16.86-26.41,1.31-1.96,2.63-3.91,3.94-5.86m-47.93,183.8c4.63-11.83,11.36-24.23,18.79-36.11,1.86-2.97,3.76-5.91,5.71-8.79,11.7-16.85,25.12-33.96,38.06-49.84,2.24-2.61,4.43-5.12,6.57-7.52,4.27-4.81,8.3-9.18,11.95-13.01,2.19-2.3,4.25-4.4,6.12-6.29,5.98-5.75,12.39-13.12,21.37-16.83,3.01-.98,5.59,.19,7.68,2.19,10.35,13.48,6.83,29.12,7.08,43.73,.27,3.83,1.48,7.4,3.6,10.14,2.12,2.74,5.16,4.64,9.09,5.16,15.46,1.98,33.05-7.27,41.84,2.83,2.87,3.3,4.18,6.57,4.46,9.84-1.51,7.38-3.93,14.42-7.06,21.14-1.57,3.36-3.31,6.64-5.21,9.85-5.2,9.24-11.31,17.67-18,25.53-2.23,2.62-8.9,12.16-11.27,14.71-39.79,42.85-52.65,55.54-79.96,58.9-2.58,.43-5.25,.59-8,.45-2.75-.14-5.6-.6-8.54-1.4,2.97-3.41,5.93-6.95,8.87-10.55,1.47-1.8,2.94-3.62,4.4-5.44,12.12-16.61,34.74-34.35,24.43-57.43-1.1-2.44-2.51-4.79-4.15-6.95-6.6-8.67-17.11-14.44-27.74-11.69-2.92,.87-6.06,2.37-9.42,4.73-3.35,2.36-6.91,5.57-10.67,9.84h0s-.3,.34-.3,.34l-.02,.03h0s-27.37,31.49-27.37,31.49c-1.03-6.31-1.79-12.67-2.28-19.05m11.21,53.78c-.86-2.34-1.66-4.67-2.4-6.99-1.11-3.48-2.09-6.98-2.97-10.5-.88-3.52-1.67-7.06-2.36-10.62l30.15-34.68h0c1.76-2.01,3.56-3.67,5.5-4.84,1.93-1.17,4-1.85,6.27-1.9,8.09,1.07,14.56,4.96,18.96,10.37,2.2,2.71,3.88,5.79,4.99,9.1,4.77,14.96-3.46,29.39-12.93,39.14-1.62,1.86-3.32,3.64-5.09,5.31-5.3,5.01-11.16,9.07-16.9,11.57-3.19,.42-8.12,.45-11.78-1.47-4.38-1.47-7.19-3.38-11.43-4.51m199.36-36.66c-10.69,8.54-20.09,19.34-29.82,28.99-2.43,2.41-4.88,4.76-7.38,6.97-2.03,1.85-4.12,3.6-6.26,5.24-2.14,1.64-4.34,3.16-6.6,4.53-9.02,5.83-19.64,8.11-31.18,8.15,18.88-5.17,25.18-21.82,36.63-38,1.99-2.7,4-5.38,6.08-8,6.24-7.87,13.05-15.24,21.43-21.13,2.48-1.75,5.06-3.36,7.75-4.81,2.69-1.44,5.5-2.72,8.43-3.8,2.91-1.25,5.87-2.4,8.88-3.47,9.02-3.2,18.42-5.64,27.92-7.45-11.01,7.7-20.37,16.82-29.68,26.69-2.03,2.09-4.09,4.13-6.21,6.09m-97.47,27.3c29.79-30.33,48.91-53.59,58.29-68.65,1.29-2.08,4.1-5.25,7.18-10.93,3.51-6.47,6.64-15.5,9.77-21.88,1.09-2.53,2.01-5.1,2.76-7.78,1.51-5.36,2.37-11.14,2.71-17.79-.16-1.68-.08-4.44-.19-7.2-.11-2.76-.43-5.51-1.38-7.17-1.34-2.6-2.37-5.05-3.1-7.42-2.2-7.11-1.66-13.5,1.69-21.14,1.23-2.78,2.6-5.57,4.09-8.28,2.98-5.42,6.43-10.55,10.12-14.8,.9-1.03,2.24-2.57,3.91-4.49-.16,2.16,0,4.41,.42,6.69,.42,2.29,1.1,4.62,1.96,6.99,13.1,31.09,43.23,82.44,45.9,82.52,5.32,.16,35.98-7.85,43.94-71.01,.35-2.8,.26-5.64,.26-8.44,0-5.61-.31-11.16-.86-16.51-.43-3.75-1.02-7.47-1.76-11.11-6.54-21.89-23.14-39.2-28.54-63.08-.89-.28-1.86-.01-2.48,.69l-.62-.54s-1.69,1.93-4.49,5.14l.42,.37-54.08,62.22c-3.59,4.13-10.43,12.16-17.21,21.59-2.26,3.15-4.51,6.45-6.64,9.83-5.96,9.08-9.14,16.44-9.11,27.98,3.78-1.03,7.94,1.24,10.5,4.91,1.75,2.96,1.02,7.93-.29,11.12-10.55-7.75-24.94-4.44-36.26-7.35-2.83-.73-5.45-1.86-7.75-3.69-2.3-1.82-4.27-4.34-5.8-7.82-4.74-12.75-4.28-28.18-15.75-38.15,7.44-3.6,14,2.1,16.07,9.65,9.8-2.99,19.49-7.52,27.54-14.78,2.83-2.4,5.59-4.91,8.22-7.41,7.89-7.5,14.6-14.93,18.5-19.39,17.24-19.89,59.46-68.7,59.46-68.7h0c.61-.71,.74-1.71,.34-2.55-.4-.84-1.27-1.37-2.21-1.33-12.68,.49-22.59-4-33.08-8.76-9.42-4.27-19.15-8.69-31.16-9.4-26.62-1.57-55.85,4.55-73.17,23.72-2.47,2.74-4.7,5.75-6.65,9.03-4.26,7.44-6.79,15.31-6.97,23.79,7.55-2.07,15.43,.46,22.59,3.81-9.87,13-25.9,14.89-37.51,24.94-7.34,5.13-5.06,15.75,2.92,19.81,7.87,2.53,15.32-1.07,18.67-8.23,3.74-12.58,9.83-24.55,16.74-35.8,5.84,6.52,13.72,9.05,20.05,14.54,2.14,1.38,4.62,2.91,7.31,4.44,10.79,6.14,25.17,12.46,36.44,10.69-1.34,1.55-2.46,2.83-3.23,3.72-7.38,8.49-18.4,16.51-28.61,21.62-2.55,1.28-5.06,2.37-7.44,3.25-2.38,.87-4.65,1.53-6.73,1.93-1.32-2.84-4.35-4.79-8.14-5.74-22.26-3.53-39.47,14.6-53.13,29.55-2.09,2.19-4.3,4.55-6.6,7.06-1.92,2.09-3.9,4.29-5.93,6.58-2.03,2.29-4.11,4.67-6.22,7.14-16.14,18.46-30.06,39.45-44.53,59.84-1.89,3.05-3.72,6.1-5.47,9.14-3.49,6.08-6.66,12.13-9.39,18.05-.2-5.76-.2-11.52-.03-17.25,.09-2.87,.22-5.73,.39-8.58,3.39-35.36,32.42-60.48,43.64-93.6,1.4-3.29,2.72-6.62,3.94-9.99,4.86-13.49,8.06-27.62,8.87-42.46,.52-3.63,1.37-7,2.5-10.17,5.63-15.85,18.05-26.64,28.88-38.77,2.74-2.87,5.47-5.62,8.19-8.3,10.86-10.71,21.45-20.2,30.86-28.35,.24-.21,.45-.4,.69-.61,9.74-4.68,20.06-8.43,29.77-10.32,17.1-3.33,27.05-8.69,36.69-19.77,6.57-7.55,9.88-13.97,11.52-24.34,23.31,33.32,56.34,63.59,68.59,74.34,2.47,2.13,5.84,4.97,9.88,8.18,23.57,17.47,48.55,33.42,73.52,49.38-13.68,2.5-24.36,14.79-30.42,26.13-2.04,3.88-3.54,7.95-4.61,12.52-.19,14.78-2.62,29.23-7.14,42.95-1.13,3.43-2.38,6.82-3.74,10.17-3.37,6.89-6.65,13.77-10.17,20.45-1.76,3.34-3.58,6.63-5.5,9.84-6.93,9.71-13.84,20.97-21.61,29.53-2.47,2.45-5.02,4.8-7.63,7.07-6.55,3.82-13.5,6.2-20.61,8.05-3.56,.93-7.16,1.72-10.77,2.5-4.37,.62-8.61,1.53-12.72,2.72-4.11,1.19-8.1,2.65-11.95,4.35-3.27,1.6-6.4,3.38-9.4,5.31-3,1.93-5.87,4.02-8.63,6.23-9.14,7.08-16.76,16.28-24.14,25.77-2.46,3.17-10.25,13.56-12.72,16.79-15.27,24.54-48.55,42.6-81.79,29.53,7.86,.63,11.76-3.26,39.34-24.31m161.54-201c-.64-1.58-1.72-3.47-3.09-5.59-6.82-10.63-20.53-27.07-19.45-39l15.9-18.29c.57,2.8,1.34,5.44,2.26,7.97,3.38,12.3,14.03,21.56,18.62,33.49,1.16,2.29,2.22,4.66,3.12,7.14s1.66,5.07,2.21,7.81c.63,3.13,1.14,6.24,1.53,9.33,.22,2.72,.41,5.49,.54,8.29,.14,2.8,.22,5.64,.24,8.48-2.11,26.33-6.38,64.34-34.95,74.03,17.49-25.08,22.9-57.79,15.49-86.9-.7-2.23-1.51-4.48-2.43-6.76m-45.07,14.26c12.83,25.33,23.13,51.54,26.59,79.01-15.11-28.96-33.89-55.35-42.45-86.79-.27-4.05,.64-7.64,3.09-10.46l7.18-8.26c-.85,3.09-.98,6.25-.55,9.47,.44,3.22,1.45,6.52,2.86,9.94,.94,2.28,2.04,4.66,3.28,7.09m-49.14-96.15c-23.79-5.93-43.55-1.49-57.83,6.48-2.86,1.59-5.49,3.33-7.9,5.15-5.18,2.94-7.92,7.75-11.48,11.85,.39-5.41,3.95-9.51,6.16-14.64,1.35-2.17,2.86-4.22,4.53-6.16,4.99-5.82,11.37-10.62,19.12-14.36,13.86-6.69,32-9.75,51.1-8.62,11.14,.66,20.47,4.89,29.5,8.98,9.17,4.16,18.62,8.44,30.01,9.12l-15.9,18.29c-14,3.28-37.4-13.65-47.3-16.11m19.18,48.46l-7.18,8.26c-8.17,9.4-27.17,2.97-44.14-7.13-3.4-2.02-6.71-4.18-9.84-6.39-11.3-7.54-20.42-16.91-34.21-15.94,9.08-2.17,18.99-3.64,28.44-.42,4.5,1.17,8.53,2.76,11.51,4.52,10.37,6.13,14.99,9.43,28.75,14.98,9.78,3.95,18.82,5.49,26.66,2.11m187.16,16.36c-.08,.06-.14,.12-.22,.18-11.34,7.54-20.72,13.82-28.95,19.98-2.74,2.06-5.36,4.1-7.88,6.17-9.49,8.89-19.57,18.83-26.48,30.08,1.6-10.12,2.38-20.95,2.93-30.7,.57-3.4,1.38-6.47,2.44-9.35,5.38-15.34,19.13-27.85,35.08-30.68,3.44,1.67,6.88,3.19,10.29,4.58,3.42,1.39,6.82,2.64,10.19,3.74,2.99,1.17,5.99,3.6,2.59,6"/></g><path d="M185.15,395.18c15.86-6.03,27.26-19.14,34.75-34.89,1.38-3,2.55-6.07,3.52-9.2,1.94-6.25,3.08-12.71,3.33-19.05,.05-3.67-.3-7.31-1.05-10.92-.76-3.6-1.93-7.17-3.56-10.64-1.01-2.06-2.25-4.06-3.74-5.97-1.49-1.92-3.22-3.75-5.21-5.49-2.29-2.34-4.81-4.62-7.52-6.69-8.11-6.2-17.92-10.49-28.12-8.91-3.25,.31-6.58,1.09-9.95,2.45-3.37,1.36-6.77,3.31-10.16,5.96-19.83,15.5-24.04,24.66-33.72,40.84,4.65-3.14,9.9-4.98,15.38-5.56,2.74-.29,5.53-.27,8.34,.06,9.63,1.75,18.41,6.65,25.44,13.43,2.34,2.26,4.49,4.73,6.41,7.35,1.92,3.84,4,7.88,5.75,12.13,2.2,8.48,6.73,18.17,2.86,28.4-.64,2.47-1.56,4.71-2.77,6.69"/></svg>