<?xml version="1.0" encoding="UTF-8"?><svg id="uuid-7509d9f2-e61f-4b9e-af79-fd254844e91c" xmlns="http://www.w3.org/2000/svg" viewBox="0 0 500 500"><defs><style>.uuid-31d726ec-3196-41c6-a91b-192e6d47038f{fill:#231f20;}</style></defs><path class="uuid-31d726ec-3196-41c6-a91b-192e6d47038f" d="M131.18,389.95c24.23-8.15,28.84-15.73,37.86-32.59l35.42,7.91c-11.06,21.27-43.89,34.81-51.26,38.71-.16,1.99,.98,4.38,3.77,6.44,4.82,3.55,11.91,7.17,23.63,4.87-13.61,9.74-34.24,9.78-44.53-.96-76.67,19.15-110.28,33.19-132.08,75.22,4.86-41.31,24.04-53.35,45.63-69.44-4.79-15.51,3.71-37.57,20.98-42.66-9.03,7.82-9.36,28.39-6.21,32.73,1.9,2.61,37.6-10.41,66.78-20.22h0Z"/><path class="uuid-31d726ec-3196-41c6-a91b-192e6d47038f" d="M290.68,379.31c27.21-29.92,53.85-44.18,73.05-78.02-33.99,37.45-88.38,52.96-139.05,35.02-25.59-9.06-46.54-25.35-61.39-45.75,11.42,37,69.56,91.08,83.25,101.53,11.37,8.68,19.58,30.46,23.27,32.01-6.86-2.88,13.44-36.62,20.87-44.79h0Z"/><path class="uuid-31d726ec-3196-41c6-a91b-192e6d47038f" d="M109.93,128.53c0,.12-.92,9.9-.92,10.02-2.04,52.42,10.8,88.76,38.32,122.82-10.91-27.92-12.25-56.42-1.46-86.9,17.99-50.81,52.84-81.88,114.85-86.92-51.79-16.87-93.83-15.07-131.47,5.84-5.91,2.65-25.13,8.08-26.32,5.36-1.67,4.71,7.51,17.54,7.18,25.64-.04,.67,.02,3.49-.18,4.13-1.44,4.69,.03-.74,0,0h0Z"/><path class="uuid-31d726ec-3196-41c6-a91b-192e6d47038f" d="M342.38,63.52c-36.76-7.68-52.05,3.41-93.62,13.22,37.23,4.8,56.74,17.66,79.38,41.54,40.55,22.61,63.6,67.71,68.36,120.21,9.68-65.52,5.66-117.53-14.67-155.76-2.97-6.29-12.65-27.2-19.17-32.74,.95,4.19-10.81,13.42-20.28,13.52h0Z"/><path class="uuid-31d726ec-3196-41c6-a91b-192e6d47038f" d="M228.89,326.7c4.78,1.69,9.59,3.06,14.42,4.12-35.27-24.29-52.17-55.08-57.51-82.53-13.69-10.8-28.47-48.8-29.48-67.82-20.92,62.44,14.3,125.6,72.57,146.23h0Z"/><path class="uuid-31d726ec-3196-41c6-a91b-192e6d47038f" d="M267.84,92.85c-41.81,6.79-78.88,28.3-99.31,63.54,43.83-37.25,94.02-51.48,160.51-13.5-19.7-33.32-42.1-46.53-61.19-50.04h0Z"/><path class="uuid-31d726ec-3196-41c6-a91b-192e6d47038f" d="M388.01,260.06c-4.53-50.74-16.44-94.87-54.29-126.61,68.85,97.17-19.39,181.03-60.65,197.76,52.73,2.05,107.51-55.64,114.95-71.15h0Z"/><path class="uuid-31d726ec-3196-41c6-a91b-192e6d47038f" d="M303.43,261.82c17.2-23.51,13.07-53.28,.96-70.61,1.28,21.11-2.86,30.88-8.45,39.75-15.3,6.42-31.52,16.16-57.05,2.22,23.46,25.08,44.36,30.7,64.53,28.65h0Z"/><path class="uuid-31d726ec-3196-41c6-a91b-192e6d47038f" d="M270.37,269.47c-36.75-11.76-47.75-39.34-47.75-39.34,0,0-3.1-21.01,6.48-48.07-17.18,11.01-32.3,46.12-34.02,59.87,14.15,14.15,40.88,31.73,75.29,27.55h0Z"/><path class="uuid-31d726ec-3196-41c6-a91b-192e6d47038f" d="M167.34,169.56c-4.31,18.58,7.37,42.57,20.22,58.69,5.93-32.56,29.97-57.06,65.18-75.4-29.23-5.45-57.63-1.77-85.39,16.71h0Z"/><path class="uuid-31d726ec-3196-41c6-a91b-192e6d47038f" d="M267.06,187.29c7.8,.8,26.46,15.81,29.55,24.98,4.73-26.74-8.25-41.29-25.79-54.05-19.7,6.47-35.97,25.61-39.21,48.15,14.08-15.1,27.65-19.87,35.45-19.07h0Z"/><path class="uuid-31d726ec-3196-41c6-a91b-192e6d47038f" d="M74.32,306.55c10.08,8.31,51.32,30.6,124.76,48.91-26.32-25.1-42-44.94-52.51-78.04-24.31-21.63-39.43-60.48-42.62-88.25-9.3,16.24-14,64.9-15.78,84.98-1.78,20.09-7.65,31.63-13.84,32.39h0Z"/><path class="uuid-31d726ec-3196-41c6-a91b-192e6d47038f" d="M433.54,323.2c-5.43-.07-8.53-6.81-9.02-23.23,1.4-36.34-4.4-72.26-13.63-105.8-1.49,29.23-2.49,66.07-28.64,95.3-14.68,31.33-31.07,56.16-70.25,78.66,27.44,.66,58.59-6.81,91.68-25.51,12.26-6.2,26.34-14.54,29.85-19.42h0Z"/><path class="uuid-31d726ec-3196-41c6-a91b-192e6d47038f" d="M336.25,159.07c-13.09-12.7-70.92-47.44-118.02-18.63,14.79-1.94,62.98-4.05,94.28,39.55,15.56,21.68,14.88,55.51,4.99,74.23,30.76-35.19,33.37-70.24,18.75-95.15h0Z"/><path class="uuid-31d726ec-3196-41c6-a91b-192e6d47038f" d="M345.51,230.63c-40.34,59.39-88.4,79.66-143.19,28.15,7.37,29.28,38.78,59.61,57.26,68.83,27.29-11.28,78.1-57.09,85.93-96.99h0Z"/></svg>