<?xml version="1.0" encoding="UTF-8"?><svg id="uuid-9b08fb50-045e-4737-a092-030a3307e670" xmlns="http://www.w3.org/2000/svg" viewBox="0 0 500 500"><defs><style>.uuid-856ab419-2150-43d4-a7b5-330c1ec4ecff{fill-rule:evenodd;}</style></defs><path d="M155.44,147.72c-21.24,19.97-36.16,46.9-41.65,75.68-7.23,37.9,1.93,78.61,25.07,109.72,17.57,23.62,42.75,41.5,70.87,50.19,29.96,9.26,62.97,8.09,92.09-3.21,33.02-12.81,60.8-38.72,75.88-70.76,17.9-38.03,17.63-84-1.36-122.06-15.48-31.03-42.79-55.89-75.36-68.27-40.34-15.34-87.5-10.92-124.36,12.33-7.37,4.65-14.29,9.98-20.69,15.92-.17,.15-.33,.31-.49,.46h0Zm43.97,46.49c18.08-16.83,44.57-24.04,68.98-18.39,21.21,4.91,40.03,19.43,50.17,38.98,10.65,20.55,11.16,46.05,1.35,67.09-9.85,21.1-29.9,37.16-52.88,42.03-22.2,4.7-46.4-.98-64.12-15.63-16.94-14-27.35-35.5-27.6-57.68-.24-20.84,8.32-41.51,23.84-56.14,.09-.08,.18-.17,.27-.25h0Z"/><polygon class="uuid-856ab419-2150-43d4-a7b5-330c1ec4ecff" points="24.14 326.13 4.92 405.21 73.58 361.86 187.88 203.7 138.44 167.98 24.14 326.13 24.14 326.13"/><polygon class="uuid-856ab419-2150-43d4-a7b5-330c1ec4ecff" points="476.48 177.05 495.7 97.97 427.04 141.32 312.74 299.48 362.18 335.2 476.48 177.05 476.48 177.05"/><polygon class="uuid-856ab419-2150-43d4-a7b5-330c1ec4ecff" points="275.72 213.29 214.71 225.24 226.66 286.25 287.67 274.29 275.72 213.29 275.72 213.29"/></svg>