<?xml version="1.0" encoding="UTF-8" standalone="no"?>
<svg
   xmlns:dc="http://purl.org/dc/elements/1.1/"
   xmlns:cc="http://creativecommons.org/ns#"
   xmlns:rdf="http://www.w3.org/1999/02/22-rdf-syntax-ns#"
   xmlns:svg="http://www.w3.org/2000/svg"
   xmlns="http://www.w3.org/2000/svg"
   xmlns:sodipodi="http://sodipodi.sourceforge.net/DTD/sodipodi-0.dtd"
   xmlns:inkscape="http://www.inkscape.org/namespaces/inkscape"
   width="2072"
   height="500"
   viewBox="0 0 548.21665 132.29167"
   version="1.1"
   id="svg914"
   inkscape:version="1.0.1 (3bc2e813f5, 2020-09-07)"
   sodipodi:docname="original.svg">
  <defs
     id="defs908" />
  <sodipodi:namedview
     id="base"
     pagecolor="#ffffff"
     bordercolor="#666666"
     borderopacity="1.0"
     inkscape:pageopacity="0.0"
     inkscape:pageshadow="2"
     inkscape:zoom="0.23934825"
     inkscape:cx="884.64946"
     inkscape:cy="526.5759"
     inkscape:document-units="px"
     inkscape:current-layer="layer1"
     inkscape:document-rotation="0"
     showgrid="false"
     units="px"
     inkscape:window-width="1267"
     inkscape:window-height="1198"
     inkscape:window-x="1353"
     inkscape:window-y="178"
     inkscape:window-maximized="0" />
  <metadata
     id="metadata911">
    <rdf:RDF>
      <cc:Work
         rdf:about="">
        <dc:format>image/svg+xml</dc:format>
        <dc:type
           rdf:resource="http://purl.org/dc/dcmitype/StillImage" />
        <dc:title></dc:title>
      </cc:Work>
    </rdf:RDF>
  </metadata>
  <g
     inkscape:label="Layer 1"
     inkscape:groupmode="layer"
     id="layer1">
    <g
       id="g894"
       transform="matrix(0.91256543,0,0,0.91256543,531.4278,407.9138)">
      <path
         style="fill:#040404;stroke:none;stroke-width:0.316102"
         d="m -20.402182,-430.14331 c -1.850153,0 -4.295516,-0.37331 -5.315901,1.59442 -0.951463,1.83529 1.036502,3.2704 1.18792,5.04374 0.379001,4.43808 0.109078,9.13852 0.01422,13.59241 -0.467206,21.93437 -2.104306,43.59056 -6.444075,65.11717 -1.231217,6.1071 -1.299496,12.25846 -2.464658,18.33395 -0.381844,1.99145 -1.971214,5.25047 0.104299,6.72034 3.739184,2.64262 8.596099,-1.40982 11.337657,-3.52138 3.173041,-2.44347 6.233554,-5.04184 9.483081,-7.38732 1.533099,-1.10952 3.5909308,-1.95351 4.9217163,-3.28114 0.9894068,-0.98941 0.4741597,-2.43399 1.2739051,-3.48978 1.498321,-1.97564 4.7162483,-3.37282 6.76459408,-4.74154 3.04406012,-2.02938 9.38509052,-4.77315 10.27649352,-8.63908 0.65749,-2.85442 -2.0230527,-5.41169 -3.9544479,-7.03329 -4.8806173,-4.09037 -9.2934079,-8.78134 -13.9085113,-13.19729 3.891224,-1.83972 7.30829936,-5.08294 10.7474881,-7.64653 1.0462987,-0.78078 2.7279616,-1.02417 3.5688052,-1.97248 1.0052001,-1.13165 0.5594986,-2.51302 -0.091635,-3.65731 1.185376,-0.49627 2.7975059,-1.87132 4.1093309,-1.7354 1.912423,0.19598 5.598179,4.34958 6.732982,0.14224 0.483646,-1.7923 -1.153776,-2.95239 -1.770167,-4.42543 -1.324478,-3.16104 -1.463555,-5.51916 -4.027147,-8.20603 -2.8607306,-2.99665 -6.2240671,-5.53496 -9.0089327,-8.58852 -5.7182949,-6.27463 -10.984568,-12.84009 -16.9020113,-18.94086 -2.607522,-2.69162 0.793425,-9.96705 -2.855665,-11.29182 -3.931999,-1.42753 -3.683234,4.97008 -3.779326,7.21093 m -68.910426,19.28226 h -0.316097 c 0,-2.00408 -0.959368,-8.07325 -4.288253,-4.64039 -1.393063,1.43512 -0.769387,4.70361 -0.769387,6.53701 v 17.38566 c 0,16.53533 -4.503208,31.70194 -7.96896,47.7315 -1.06875,4.94384 -2.21999,9.84977 -2.96157,14.85683 -0.30282,2.04835 -1.02353,4.58981 -0.60027,6.63816 0.88982,4.30532 6.09067,4.03031 6.473148,-0.31611 3.286208,1.71328 5.464785,-1.16009 7.902579,-3.18632 5.969586,-4.96281 11.347452,-10.48828 16.83152,-15.96634 2.221568,-2.21905 5.282392,-3.75846 7.371192,-5.95222 0.868345,-0.91038 0.752012,-2.21903 1.764492,-3.05987 4.064449,-3.36965 8.895125,-5.69616 12.913432,-9.22704 1.871957,-1.64373 2.97326,-3.7142 4.617625,-5.51283 0.918272,-1.00204 2.257922,-1.38453 2.424502,-2.93027 0.159949,-1.48885 -1.099405,-2.56991 -1.717696,-3.79323 -1.358932,-2.68688 -1.944667,-5.5887 -3.525496,-8.21868 -6.729828,-11.19951 -17.495331,-20.81219 -26.285837,-30.3996 -1.576405,-1.7196 -3.301384,-3.42023 -4.661255,-5.32 -1.035545,-1.44775 -1.636775,-3.44552 -3.127204,-4.51079 -1.151241,-0.82503 -3.348469,-1.54574 -4.674202,-0.80606 -2.971687,1.65637 0.08065,4.36538 0.659066,6.26516 0.395451,1.29602 -0.0584,3.06936 -0.06127,4.42543 m 74.284137,-9.16697 4.333771,4.74154 -0.467828,3.16103 2.8006721,5.68984 15.460582,16.43734 c -5.3927217,3.30011 -10.8581309,6.12608 -15.8051395,10.11529 -1.3244656,1.06842 -3.8248446,4.11882 -5.6898476,3.6984 -3.420553,-0.77761 -1.77018,-7.14392 -1.52678,-9.70434 0.739686,-7.76982 0.578471,-15.58388 0.578471,-23.39161 0,-3.11362 -0.88825,-7.88044 0.316099,-10.74749 m -68.910389,10.43139 c 5.227075,11.19636 14.280892,21.0714 22.262491,30.34586 2.183313,2.5383 4.756391,4.70993 6.972583,7.21662 0.767189,0.86929 2.079958,1.95035 2.025587,3.21477 -0.06954,1.60579 -1.763848,3.30959 -2.82722,4.36854 -3.265656,3.2432 -7.203669,5.70249 -11.047798,8.17757 -9.956917,6.41372 -17.749156,13.80105 -25.658057,22.5413 -2.383096,2.63312 -7.121472,5.56024 -7.84883,9.16697 -2.35464,-1.44776 -0.41693,-6.18612 -0.3161,-8.53478 3.171148,1.74489 4.641969,-0.0728 5.55108,-3.16102 1.260618,-4.2832 0.549392,-9.14486 1.537207,-13.59242 2.904042,-13.07401 6.036934,-25.87301 7.678454,-39.19674 0.459302,-3.72684 0.992561,-7.62756 1.037131,-11.3797 0.0323,-2.70584 -0.411885,-6.67609 0.633472,-9.16697 m 63.536651,17.06955 -0.3161,0.3161 0.3161,-0.3161 m 0,0.94831 v 1.89661 h -0.3161 l 0.3161,-1.89661 m 0,2.52881 -0.3161,0.31611 0.3161,-0.31611 m 24.0238018,37.93233 v 0.63221 l -25.6043208,18.33395 c 0,-8.69283 1.597268,-17.66066 2.974851,-26.23652 0.485845,-3.02511 0.941033,-7.57382 5.243825,-7.49479 1.770166,0.0317 3.907029,2.88285 5.0576386,4.01449 3.8153592,3.75215 7.85515727,7.7951 12.3280062,10.75066 m -29.0814428,4.42543 -1.896616,16.12125 h -0.31611 c 0,-4.9154 -0.156783,-11.67367 2.212726,-16.12125 z"
         id="path862"
         sodipodi:nodetypes="ccssssccccccccccccccccccsccccsscccccscccccccccccccccccccccsccccccccccccccccccccccccccccsccccccc" />
      <path
         style="fill:#040404;stroke:none;stroke-width:0.221344"
         d="m -233.06264,-433.30275 c -2.83764,-1.35751 -3.82926,2.49544 -4.13915,4.64823 -0.81897,5.68236 0.30989,11.82843 0.85661,17.48622 1.80395,18.631 3.47511,37.48336 3.50388,56.2215 0.011,7.57793 -0.5113,15.27873 0.3785,22.79847 0.18815,1.57398 -0.95842,3.7374 -0.43383,5.0814 0.89201,2.28583 4.52427,2.18445 6.47432,2.37326 5.42736,0.52503 10.82375,0.93563 16.28653,0.9064 2.76238,-0.0148 5.8125,0.4987 4.96254,-3.27014 1.69772,0.28731 4.23654,0.16822 5.7461,-0.74526 0.64191,-0.38891 1.01819,-1.16804 1.70879,-1.45114 1.46087,-0.59807 3.19618,-0.12528 4.71018,-0.73863 1.17315,-0.47567 1.6424,-2.02662 0.61091,-2.92661 -1.24393,-1.08525 -5.96523,0.10669 -7.68505,0.10669 -5.76824,0 -11.49885,-0.66404 -17.26487,-0.66404 -2.11827,0 -4.92492,-0.48961 -6.86169,0.44269 1.4476,-6.99824 0.22135,-14.8117 0.22135,-21.91309 0,-17.79433 -0.99605,-35.63558 -2.40159,-53.35266 -0.51351,-6.44444 -1.1023,-12.83244 -1.99652,-19.24833 -0.31653,-2.2763 -0.093,-5.97962 -1.37677,-7.93874 -1.61581,-2.46954 -3.29582,0.52547 -3.30024,2.18378 m 71.93695,77.24921 c -1.19304,4.20643 -4.32288,7.80484 -6.88826,11.28857 -4.32283,5.87648 -8.72319,11.72219 -12.57677,17.92891 -1.30814,2.11051 -6.46326,10.0528 -1.12001,10.18185 -0.82782,1.07662 -4.52206,5.78439 -1.1045,6.00662 1.30372,0.0848 1.96996,-1.32763 2.58087,-2.24377 1.67116,-2.50629 3.25817,-5.10332 5.04885,-7.52571 5.81917,-7.87079 12.41081,-15.0636 19.1596,-22.13533 2.31305,-2.4255 7.08524,-6.47544 6.81075,-10.18097 -0.21692,-2.96113 -2.14483,-5.46521 -3.86023,-7.74704 -3.65661,-4.86871 -8.18089,-9.37838 -12.69853,-13.46439 -1.97661,-1.78846 -5.39416,-3.82837 -6.60049,-6.2386 -0.73044,-1.45557 -0.40509,-4.39546 -0.12617,-5.97298 2.04079,-11.52053 8.32034,-21.75461 12.89111,-32.31629 1.04696,-2.41663 4.73456,-9.23559 0.69723,-10.62453 0.48253,-1.31678 1.79068,-1.89139 2.27098,-3.10303 0.56666,-1.43453 -0.17927,-3.92554 -2.04966,-3.69845 -1.72205,0.2094 -2.76238,3.48064 -3.54373,4.80938 -2.85089,4.85497 -6.04711,9.50674 -8.85154,14.38739 -3.93108,6.8391 -6.78202,14.02637 -9.89852,21.24907 -1.00712,2.33694 -3.61456,6.0438 -3.41314,8.63154 0.12836,1.66628 2.25327,3.31529 2.83986,4.87047 0.37628,1.00048 0.0487,2.05872 0.54229,3.09882 2.26435,4.78746 6.52523,8.8954 10.03797,12.77468 1.92349,2.12623 4.07053,4.0827 5.91433,6.28087 1.21958,1.45667 2.00095,3.16765 3.93771,3.74292 m -202.30886,-36.74317 h -0.22134 c -8.3e-4,-10.29473 -1.26387,-21.0098 -2.68491,-31.20957 -0.31387,-2.2524 -0.35703,-5.11173 -1.59877,-7.07328 -0.66912,-1.05737 -2.20149,-1.56424 -3.07779,-0.40196 -0.98255,1.30394 0.64677,5.21133 0.88228,6.8112 0.96417,6.54539 1.71631,13.11821 2.24155,19.70829 1.31811,16.53952 1.83805,32.97812 2.18467,49.57253 0.11554,5.52543 -0.60316,11.06988 -0.60316,16.60083 v 15.71547 c 0,1.43386 -0.59896,4.49417 1.11646,5.14471 3.1422,1.19149 2.42505,-4.24163 2.42505,-5.80875 v -21.47041 c 0.97857,3.3091 0.6585,7.62067 0.66403,11.06722 0.002,1.16693 0.0589,3.19688 1.76744,2.98748 2.10255,-0.25786 1.43077,-4.8346 1.23754,-6.30765 -0.87166,-6.63701 -0.78113,-13.88494 -0.79153,-20.58503 -0.0151,-9.80224 0.0534,-19.64986 0.45132,-29.43881 0.38381,-9.44477 1.36836,-19.09848 0.48608,-28.55344 -0.40042,-4.29276 -0.72602,-8.74775 -0.9374,-13.05932 -0.0684,-1.39536 0.13635,-4.02537 -1.55827,-4.49485 -1.28889,-0.35702 -2.12136,0.6647 -2.19485,1.83872 -0.15361,2.45028 0.18172,4.87046 0.21072,7.30436 0.1255,10.55967 8.3e-4,21.09081 8.3e-4,31.65226 m 130.59326,-40.50604 -0.22135,0.22135 0.22135,-0.22135 m -55.11478,80.34805 c 8.82943,7.70809 17.57475,15.46311 27.00403,22.4379 2.31969,1.71675 4.71685,3.29493 7.08302,4.94683 1.13993,0.79661 2.51669,1.9848 3.98421,2.01866 4.71685,0.10868 0.0222,-5.25406 -1.10673,-6.38357 1.93234,1.32098 7.43275,7.53035 9.66833,3.7219 1.03589,-1.76146 -0.0885,-5.22262 -0.56664,-7.04207 -1.67116,-6.33333 -4.39369,-12.47741 -6.70896,-18.59294 -1.36348,-3.60083 -2.89297,-7.5018 -3.61898,-11.28856 -1.22182,-6.36764 -1.58704,-12.89 -2.85755,-19.25697 -2.02531,-10.14532 -5.26358,-19.91458 -8.67893,-29.66017 -1.14877,-3.28164 -2.35952,-6.59273 -3.84696,-9.73914 -0.57329,-1.21275 -1.64459,-2.27653 -2.074,-3.54152 -0.58877,-1.73644 0.72601,-4.55482 -1.04474,-5.81206 -2.29534,-1.62777 -3.6876,1.70436 -4.04397,3.37728 -1.22624,5.79014 -1.90135,11.68189 -3.05455,17.48621 -4.00412,20.14743 -9.33188,40.12887 -16.59862,59.32031 -1.35242,3.5694 -2.56982,7.32805 -3.35116,11.06723 -0.32095,1.52727 -0.17487,3.15836 -0.59985,4.64823 -0.48253,1.69129 -2.3396,4.74607 -1.29929,6.39508 0.81012,1.28424 2.75796,1.25613 3.3578,-0.20164 1.17977,-2.86531 1.71099,-6.137 2.83321,-9.07092 1.88364,-4.92181 4.33393,-9.65771 5.52033,-14.83007 m -105.13866,39.62066 c 1.42811,1.55493 2.11737,4.10128 3.60237,5.43754 0.7207,0.64854 1.85221,0.61534 2.4618,-0.17575 0.72291,-0.9385 0.11001,-2.34802 -0.33822,-3.2697 -1.20588,-2.47972 -3.21215,-4.64934 -5.08251,-6.64365 -4.12874,-4.40277 -8.6725,-8.67848 -12.3218,-13.4987 -3.64865,-4.81955 -6.68638,-10.0798 -10.4561,-14.83008 4.21618,-1.99453 8.18156,-5.41873 11.9526,-8.1561 4.66728,-3.3879 9.55456,-6.47077 14.16606,-9.94278 1.93809,-1.4591 8.00824,-4.08779 7.30436,-6.91304 1.49164,-0.64278 6.1598,-2.36064 4.86338,-4.61879 -1.67624,-2.91998 -5.26733,2.72055 -6.93649,1.02062 -3.18139,-3.24027 -5.18344,-8.79446 -7.28932,-12.78131 -4.60684,-8.72142 -8.99057,-17.627 -14.01221,-26.11865 -2.55919,-4.32729 -5.13962,-8.61916 -8.20037,-12.61664 -1.25989,-1.6457 -2.01269,-4.38284 -4.50414,-2.87748 -0.757,-1.37942 -2.90006,-1.92768 -3.44545,0.003 -0.48452,1.71519 0.2468,3.74182 0.0733,5.52165 -0.52526,5.38199 -1.32099,10.77284 -1.69904,16.16678 -0.91062,12.9927 -1.85842,25.98983 -3.15593,38.95663 -1.19969,11.98957 -3.2779,23.88572 -4.6219,35.8578 -0.81499,7.25922 -1.89449,14.60608 -1.98192,21.9131 -0.0188,1.57775 -1.40553,7.36746 1.76832,6.71405 1.09145,-0.22466 1.45114,-1.32652 1.63729,-2.28715 0.46748,-2.41177 0.7072,-4.87977 1.11381,-7.30437 1.15984,-6.91746 1.95402,-13.91814 3.27213,-20.80638 0.67732,-3.53974 0.89777,-6.74769 5.0471,-7.94228 0.91305,-0.26297 1.50514,0.70077 2.01002,1.30195 1.3719,1.63374 2.74556,3.26726 4.15354,4.86957 5.72839,6.51904 10.3131,13.59962 15.10255,20.80638 0.92456,1.3916 4.98401,6.98121 5.51679,2.21345 m 160.25338,-116.86991 c 0,7.8367 0.58435,15.91909 1.64459,23.68387 0.64633,4.7361 1.84823,9.40292 2.30199,14.16604 1.02704,10.76951 0.72822,22.03351 -0.62641,32.75898 h -0.22134 c 0,-16.71616 -1.3325,-33.61558 -2.91511,-50.24519 -0.46261,-4.86515 -1.09787,-9.7095 -0.97835,-14.60874 0.0443,-1.90179 -0.26339,-4.06942 0.79463,-5.75496 m -83.88947,94.0714 h -0.22134 c -0.49139,-2.85756 -2.1891,-5.75008 -3.32017,-8.41109 -2.56096,-6.01991 -5.38973,-11.98669 -7.59433,-18.15024 -1.98325,-5.54977 -3.12538,-11.33085 -4.55084,-17.04352 -2.06735,-8.27408 -4.26531,-16.51186 -6.30832,-24.79058 -1.28379,-5.19961 -2.22008,-10.92003 -4.05503,-15.93592 -0.58656,-1.60807 -3.38834,-3.55568 -4.33039,-1.1034 -0.57416,1.49518 1.15477,2.8943 1.21651,4.42268 0.0345,0.85638 -0.52082,1.56424 -0.4511,2.43479 0.42123,5.25913 2.24709,11.07962 3.68672,16.15815 2.09392,7.3909 4.17677,14.79799 6.45662,22.13444 1.26609,4.07517 2.94831,8.04919 4.03732,12.17395 2.20238,8.36084 3.52824,16.9085 5.91654,25.23326 1.24617,4.34123 2.35732,9.58156 4.63717,13.50201 1.40996,2.42041 4.22325,2.30708 5.10199,-0.44268 2.32633,1.57641 3.96427,-0.0786 5.03115,-2.21345 2.00096,-4.0019 3.27591,-8.91819 4.21883,-13.28067 2.55653,-11.82355 4.41361,-23.74007 6.55844,-35.63645 1.44316,-7.99098 3.33124,-15.84872 4.42689,-23.9052 0.757,-5.55443 0.57107,-11.22528 0.57107,-16.82218 0,-1.8832 0.32316,-4.84059 -1.9921,-5.31227 0.33423,-1.61382 1.84822,-2.34581 2.11826,-3.76618 0.2789,-1.4715 -0.93629,-3.24867 -2.56095,-2.7097 -2.19131,0.72801 -2.48348,3.68229 -2.90183,5.5905 -1.23732,5.63477 -1.16427,11.55573 -1.70878,17.26486 -1.27937,13.43274 -3.0789,26.63261 -5.93867,39.84202 -2.24665,10.36954 -5.67748,20.44536 -8.04366,30.76687 m -100.93308,-85.43896 v 0.66403 h -0.22135 l 0.22135,-0.66403 m -0.22135,1.32807 -0.22134,0.22134 0.22134,-0.22134 m 0,0.44269 -1.51178,15.71544 -1.40332,18.37161 -1.0691,10.62453 h -0.22134 c 0.007,-9.64221 1.4684,-19.6191 2.39716,-29.21747 0.33622,-3.47422 0.73575,-6.93141 1.1076,-10.40319 0.16955,-1.58195 0.0868,-3.63072 0.70078,-5.09092 m 3.32017,2.87747 10.85761,16.60084 17.03179,28.33209 c -10.7341,7.2415 -21.51092,14.10429 -31.20957,22.57713 h -0.22134 c -1.30815,-1.30814 -2.23359,-2.56162 -4.20554,-2.21344 l 5.27464,-41.8341 1.52462,-17.04352 0.94779,-6.419 m 143.43123,1.54941 c 4.50878,11.95105 5.8125,24.8758 9.04856,37.18588 2.45028,9.31683 5.06658,18.59204 7.58548,27.88939 1.42767,5.26889 3.26704,10.51675 3.95099,15.93681 -2.45028,-1.25105 -4.50215,-3.55302 -6.54737,-5.36872 -6.16223,-5.47739 -11.23323,-11.93046 -16.90629,-17.87179 -1.82609,-1.91219 -3.4906,-3.98441 -5.25029,-5.95704 -0.73265,-0.82119 -1.69107,-1.93765 -2.94389,-1.65632 -1.31035,0.29395 -1.66672,1.68487 -1.08679,2.74313 1.14435,2.08241 2.99479,3.92178 4.49551,5.75494 4.57075,5.57633 9.36951,10.97271 14.13726,16.3795 2.01424,2.2867 4.3782,4.35893 6.13346,6.86167 -2.51668,-1.12177 -4.89835,-3.4782 -7.08302,-5.16817 -5.0378,-3.8981 -9.99149,-7.92612 -14.60874,-12.31804 -1.64901,-1.56911 -5.5159,-3.68339 -6.34594,-5.79259 -0.41392,-1.04739 0.57549,-3.1081 0.8411,-4.1679 0.89423,-3.58336 1.49629,-7.35616 2.70262,-10.84588 2.98372,-8.62845 6.05599,-17.17811 8.02153,-26.11865 1.20411,-5.4847 1.14877,-12.50641 3.85582,-17.48622 m 104.69593,1.99209 -0.22136,0.22136 0.22136,-0.22136 m -0.22136,0.4427 -0.22132,0.22134 0.22132,-0.22134 m -0.22132,0.4427 -0.22135,0.22134 0.22135,-0.22134 m -0.22135,0.44267 -3.54153,7.30437 h -0.22132 l 3.76285,-7.30437 m -132.14265,3.9842 -0.22135,0.22136 0.22135,-0.22136 m 0,0.66404 -0.22135,0.22135 0.22135,-0.22135 m -0.22135,1.54942 v 1.9921 h -0.22134 l 0.22134,-1.9921 m 0,2.21344 -0.44268,4.20554 h -0.22135 l 0.22135,-4.20554 h 0.44268 m 127.71577,0.88537 -0.22137,0.22136 0.22137,-0.22136 m -0.44269,0.88539 -0.22135,0.22134 0.22135,-0.22134 m -0.44271,0.88538 -0.22132,0.22133 0.22132,-0.22133 m -0.66404,1.10672 -0.22131,0.22134 0.22131,-0.22134 m -0.22131,0.44268 -0.22135,0.22136 0.22135,-0.22136 m -126.60905,0.4427 v 1.10672 h -0.22135 l 0.22135,-1.10672 m 126.3877,0 -0.22137,0.22133 0.22137,-0.22133 m -88.75914,0.44269 -0.22134,0.22134 0.22134,-0.22134 m 88.53777,0 -0.22132,0.22134 0.22132,-0.22134 m -0.22132,0.44267 -0.22135,0.22136 0.22135,-0.22136 m -0.22135,0.4427 -0.22136,0.22134 0.22136,-0.22134 m -0.22136,0.4427 -0.22132,0.22134 0.22132,-0.22134 m -87.43105,0.22134 -0.22135,0.22133 0.22135,-0.22133 m -38.36564,0.36898 -0.0753,0.14741 0.0753,-0.14741 m 125.57537,-0.14765 c -0.70833,1.70038 -2.24001,6.75522 -3.9842,7.30438 0.498,-2.17981 2.39715,-5.7335 3.9842,-7.30438 m -87.06143,0.59034 -0.0753,0.14741 0.0753,-0.14741 m 0.29439,0.73774 -0.22134,0.22135 0.22134,-0.22135 m 0.22135,0.66403 -0.22135,0.22134 0.22135,-0.22134 m 0.22134,0.88537 -0.22134,0.22135 0.22134,-0.22135 m 0.22134,0.66404 -0.22134,0.22135 0.22134,-0.22135 m -102.4825,0.66403 -0.22134,0.22135 0.22134,-0.22135 m 102.6308,0.14763 -0.0753,0.14742 0.0753,-0.14742 m 80.19972,5.82867 -0.22131,0.22135 0.22131,-0.22135 m -241.4868,11.95261 -0.22134,0.22135 0.22134,-0.22135 m 0,0.44269 v 0.66403 h -0.22134 l 0.22134,-0.66403 m -0.29505,1.91839 -0.074,0.14741 0.074,-0.14741 m 264.80171,11.58362 c 1.60031,2.26502 4.71906,4.97516 4.76111,7.96839 0.0199,1.49031 -1.49186,2.92662 -2.38608,3.9842 -2.5632,3.02954 -5.31671,6.78156 -8.57268,9.07513 2.26878,-3.64466 5.00015,-7.03986 7.37742,-10.62454 1.05802,-1.59501 2.21344,-3.8713 -0.51574,-4.42689 1.00491,-2.28382 -1.35463,-3.73407 -0.66403,-5.97629 m -71.93697,1.32806 v 0.66404 h -0.22134 l 0.22134,-0.66404 m -0.073,1.03302 -0.0753,0.14741 0.0753,-0.14741 m -77.84021,0.95908 v 0.66403 h -0.22135 l 0.22135,-0.66403 m -0.22135,0.88539 c -0.13059,3.01758 -1.04696,6.1164 -1.63795,9.07511 -1.13992,5.70427 -2.26656,12.07302 -5.00238,17.26487 -0.98277,-1.50536 0.89423,-5.00592 1.35905,-6.64034 1.12886,-3.96339 2.2887,-7.94228 3.23827,-11.9526 0.58435,-2.47352 0.94293,-5.46078 2.04301,-7.74704 m 80.5694,9.07511 -0.22135,0.22135 0.22135,-0.22135 m 0,0.66403 c -0.55779,4.08824 0.19921,8.31061 -0.38293,12.3953 -0.17707,1.24373 -0.007,3.5269 -1.38783,3.9842 l 0.86989,-11.50991 0.90087,-4.86959 m -135.46281,0.88539 -0.22135,0.22134 0.22135,-0.22134 m 37.99819,0.14763 -0.0753,0.14742 0.0753,-0.14742 m -97.98256,0.29505 -0.66403,0.44269 0.66403,-0.44269 m 98.27695,0.22135 c 1.32364,3.41512 2.83321,6.75808 4.13472,10.18184 0.90308,2.37016 1.77075,3.91669 0.9562,6.419 h -0.22135 l -3.95321,-11.95261 -0.91636,-4.64823 m 76.36385,4.42688 -0.22135,0.22135 0.22135,-0.22135 m 0.22134,0.4427 c 0.94293,3.45585 2.84649,6.98828 2.87747,10.62453 l -3.54151,-2.65613 v -0.22134 c 3.86247,-1.08814 -0.0554,-5.37978 0.66404,-7.74706"
         id="path862-5"
         sodipodi:nodetypes="cccccccscccccsscsccccccccscccccccccccccccccccccccscccccsscscccccccsscccccccccccccccccscccccccsccccscscccsscccccccscsssssccsccsccccccccccccccccccssccccccccccscccccccccccccccccccsccccccccccccccccccccccccccccccccccccccccccccccccccccccccccccccccccccccccccccccccccccccccccccccccccccccccccccccccccccccccccccccccccccccccccccccccccccccccccccccccccccccccccccccccccccccccccccccccc" />
      <path
         style="fill:#040404;stroke:none;stroke-width:0.277847"
         d="m -498.15078,-424.00033 h -0.27784 c 0,-2.65233 0.4165,-5.77977 -0.45539,-8.33456 -0.46763,-1.37091 -1.96939,-2.44894 -3.4053,-1.66015 -1.21836,0.66934 -1.57261,2.4045 -2.02744,3.60425 -1.33423,3.51975 -2.34282,7.17177 -3.18385,10.83603 -3.36501,14.65837 -5.03209,28.93165 -5.95566,43.89954 -0.29784,4.8251 -0.55485,9.81133 -0.20421,14.6467 0.16949,2.33836 1.97271,3.60646 4.11797,2.5801 0.16171,2.12469 2.71595,3.11521 3.68758,0.82825 0.97247,-2.28861 0.84688,-5.33604 1.08305,-7.77444 0.53013,-5.47858 1.18752,-10.94133 1.97299,-16.39296 0.74407,-5.16435 1.12556,-10.46428 2.26557,-15.55944 1.87768,-8.39125 4.52529,-16.60941 6.3902,-25.00624 1.1703,-5.26935 2.28973,-10.49065 3.01491,-15.84142 0.28869,-2.13165 0.75186,-5.51695 -0.39981,-7.46743 -0.97775,-1.65541 -3.48643,-1.30532 -4.00156,0.52958 -0.59069,2.10414 0.0706,4.96624 -0.19978,7.21986 -0.55346,4.61199 -2.22,9.27257 -2.42143,13.89233 m -45.5669,59.73712 c 1.63069,0.7802 3.18746,0.39482 3.51393,-1.5879 0.8177,-4.96291 0.20977,-10.61959 0.36175,-15.66362 0.42956,-14.26384 0.84771,-28.47239 0.84771,-42.76344 0,-3.51893 0.0245,-7.03898 -8.2e-4,-10.5579 -0.0109,-1.43813 0.12308,-3.52838 -0.92079,-4.66033 -1.6318,-1.76906 -3.86763,-0.52346 -4.05352,1.60374 -0.45428,5.19712 -0.0262,10.61903 -0.0262,15.83727 -1.59624,-4.04241 -0.60016,-9.32371 -1.07138,-13.61867 -0.17226,-1.57206 -0.008,-4.10769 -1.71932,-4.86538 -1.53261,-0.67822 -3.15329,0.4915 -3.22219,2.09136 -0.22061,5.11711 0.59404,10.99913 1.12945,16.11483 1.71488,16.38047 1.27253,33.26025 1.27142,49.73463 -2.8e-4,4.07656 -0.51457,8.13537 -0.55679,12.22526 -0.0151,1.46009 -0.49819,3.5331 0.87576,4.55586 1.14389,0.85132 2.72041,0.31953 3.23804,-0.94525 0.86548,-2.1144 0.33285,-5.2599 0.33285,-7.50046 m 41.12139,-57.79218 c 0,8.24705 -0.82049,17.17039 -2.35059,25.28408 -1.04414,5.53693 -3.30248,11.04301 -3.76204,16.67082 h -0.27785 c 0,-9.74466 1.48565,-19.60267 3.26193,-29.17422 0.73129,-3.94126 1.23224,-9.24007 3.12855,-12.78068 m -41.49172,0.46317 -0.0929,0.18505 0.0929,-0.18505 m 0.0926,0.92606 -0.27783,0.27785 0.27783,-0.27785 m -20.00496,92.52305 c -1.40367,3.85151 1.60679,4.39276 3.80651,6.94645 3.602,4.18188 5.34883,9.33483 8.30513,13.89208 1.25948,1.94159 3.14522,3.78566 5.67058,3.36777 2.50784,-0.41509 3.80039,-3.25914 4.74562,-5.3127 1.95521,-4.24718 3.76677,-9.85718 7.02925,-13.29554 1.42813,-1.50509 3.98294,-0.77769 5.80867,-0.63988 5.08071,0.38371 11.40868,-0.8655 16.30184,0.409 1.8977,0.49428 3.36223,3.6434 4.2908,5.19101 2.35836,3.9307 4.44888,8.05423 7.29875,11.66957 1.38257,1.75405 3.27165,3.55199 5.64892,3.59478 2.16692,0.0392 3.81455,-1.72043 5.0293,-3.31693 2.78986,-3.6662 4.49918,-8.06785 7.38072,-11.66735 1.63486,-2.04163 5.02543,-1.44231 3.98294,-5.00347 5.42832,0.42844 10.62988,1.94492 16.11514,1.94492 1.78795,0 5.24242,0.34675 4.8626,-2.49645 -0.31063,-2.32363 -3.3539,-2.46951 -5.14044,-2.70429 -5.63557,-0.74101 -11.32199,-0.6471 -16.94868,-1.43146 -11.91797,-1.66126 -23.83594,-2.83348 -35.84227,-3.35945 -12.33057,-0.53986 -24.67253,0.03 -36.95365,-1.47926 -7.46268,-0.9169 -14.66698,-2.35364 -21.94991,-4.15493 -1.39263,-0.34452 -6.19265,0.56793 -7.01756,1.76378 -1.07201,1.55399 0.17951,3.07076 1.73869,3.45169 4.79562,1.17085 10.93167,2.41699 15.83705,2.63066 m 4.44557,0.83354 -0.27786,0.27784 0.27786,-0.27784 m 20.56067,3.33417 -5.20742,10.00248 -3.128,5.55695 -5.29631,-9.72464 -6.65111,-8.89112 20.28284,3.05633 m 54.73586,1.38923 -3.77207,5.27909 -7.06396,10.5582 h -0.27786 c -4.50501,-3.83597 -7.55243,-10.6585 -10.28034,-15.83729 h 21.39422"
         id="path862-1"
         sodipodi:nodetypes="cccccccccccscsccscccccsccccccccscccccscccccccccccccccccsccccccscccccccccccccccccccccccc" />
    </g>
  </g>
</svg>
