<?xml version="1.0" encoding="UTF-8" standalone="no"?>
<svg
   xmlns:dc="http://purl.org/dc/elements/1.1/"
   xmlns:cc="http://creativecommons.org/ns#"
   xmlns:rdf="http://www.w3.org/1999/02/22-rdf-syntax-ns#"
   xmlns:svg="http://www.w3.org/2000/svg"
   xmlns="http://www.w3.org/2000/svg"
   xmlns:sodipodi="http://sodipodi.sourceforge.net/DTD/sodipodi-0.dtd"
   xmlns:inkscape="http://www.inkscape.org/namespaces/inkscape"
   width="500"
   height="500"
   viewBox="0 0 132.29166 132.29167"
   version="1.1"
   id="svg1540"
   inkscape:version="1.0.1 (3bc2e813f5, 2020-09-07)"
   sodipodi:docname="logo-ico.svg">
  <defs
     id="defs1534" />
  <sodipodi:namedview
     id="base"
     pagecolor="#ffffff"
     bordercolor="#666666"
     borderopacity="1.0"
     inkscape:pageopacity="0.0"
     inkscape:pageshadow="2"
     inkscape:zoom="0.957393"
     inkscape:cx="290.79749"
     inkscape:cy="393.53136"
     inkscape:document-units="px"
     inkscape:current-layer="layer1"
     inkscape:document-rotation="0"
     showgrid="false"
     units="px"
     inkscape:window-width="1267"
     inkscape:window-height="1198"
     inkscape:window-x="997"
     inkscape:window-y="127"
     inkscape:window-maximized="0" />
  <metadata
     id="metadata1537">
    <rdf:RDF>
      <cc:Work
         rdf:about="">
        <dc:format>image/svg+xml</dc:format>
        <dc:type
           rdf:resource="http://purl.org/dc/dcmitype/StillImage" />
        <dc:title></dc:title>
      </cc:Work>
    </rdf:RDF>
  </metadata>
  <g
     inkscape:label="Layer 1"
     inkscape:groupmode="layer"
     id="layer1">
    <path
       style="fill:#040404;stroke:none;stroke-width:0.253554"
       d="m 85.934725,20.985758 h -0.25355 c 0,-2.42043 0.38009,-5.27442 -0.41557,-7.60584 -0.42674,-1.25104 -1.7972,-2.23481 -3.10756,-1.51499 -1.11183,0.61082 -1.43511,2.19426 -1.85017,3.28911 -1.21757,3.212 -2.137978,6.54471 -2.905474,9.88859 -3.070791,13.37672 -4.59211,26.40202 -5.434927,40.0612 -0.271799,4.40322 -0.506339,8.95348 -0.186357,13.36607 0.154673,2.13391 1.800228,3.29113 3.757919,2.35451 0.147569,1.93892 2.478482,2.84283 3.365159,0.75584 0.88744,-2.08851 0.77283,-4.86949 0.98835,-7.09469 0.48378,-4.99956 1.08369,-9.98468 1.80049,-14.95965 0.67901,-4.71281 1.02714,-9.54934 2.06748,-14.199 1.7135,-7.65757 4.12962,-15.15718 5.83147,-22.81983 1.06798,-4.80863 2.08953,-9.57341 2.7513,-14.4563405 0.26345,-1.94527 0.68613,-5.03457 -0.36485,-6.81452 -0.89226,-1.51066996 -3.18159,-1.19118996 -3.65168,0.48328 -0.53905,1.92017 0.0644,4.53202 -0.18232,6.5886 -0.50507,4.2087405 -2.02589,8.4618205 -2.20971,12.6776605 m -41.582777,54.51403 c 1.48811,0.71198 2.908766,0.36029 3.206689,-1.44907 0.746207,-4.52898 0.191429,-9.69107 0.330121,-14.29407 0.392001,-13.01669 0.773591,-25.98292 0.773591,-39.02444 0,-3.21126 0.02236,-6.42353 -7.93e-4,-9.63478 -0.0099,-1.3123805 0.112318,-3.2198705 -0.84028,-4.2528505 -1.489125,-1.61439 -3.529465,-0.47769 -3.699102,1.46352 -0.41456,4.7427105 -0.02392,9.6905605 -0.02392,14.4525405 -1.456671,-3.68896 -0.547685,-8.50849 -0.977704,-12.42793 -0.157197,-1.4346005 -0.0073,-3.7485305 -1.568992,-4.4399705 -1.398606,-0.61892 -2.877582,0.44852 -2.940458,1.9085 -0.201321,4.6697005 0.5421,10.0374205 1.030698,14.7058405 1.564939,14.94825 1.161267,30.35215 1.160253,45.3861 -2.56e-4,3.72013 -0.46958,7.42406 -0.508108,11.15635 -0.01379,1.33243 -0.454631,3.22418 0.79919,4.15752 1.043874,0.77688 2.482551,0.29159 2.954922,-0.8626 0.789808,-1.92953 0.303747,-4.80001 0.303747,-6.84466 m 37.526013,-52.73915 c 0,7.52597 -0.74875,15.6691 -2.14507,23.07338 -0.952843,5.05281 -3.013725,10.07747 -3.433106,15.21321 h -0.253555 c 0,-8.89264 1.355754,-17.88872 2.976721,-26.62338 0.66735,-3.59666 1.1245,-8.43217 2.85501,-11.66321 m -37.863909,0.42267 -0.08478,0.16887 0.08478,-0.16887 m 0.0845,0.84509 -0.253537,0.25356 0.253537,-0.25356 M 25.842575,108.46174 c -1.280941,3.51476 1.466301,4.00868 3.473689,6.33909 3.287061,3.81624 4.881157,8.51865 7.578975,12.67744 1.149358,1.77182 2.870218,3.45466 5.174776,3.07331 2.288566,-0.3788 3.468103,-2.97418 4.330687,-4.84819 1.784257,-3.87583 3.437424,-8.99532 6.414651,-12.13305 1.303263,-1.37349 3.634695,-0.70969 5.300792,-0.58393 4.636479,0.35016 10.411166,-0.78983 14.876494,0.37324 1.731777,0.45106 3.068256,3.32484 3.915637,4.73713 2.152159,3.58702 4.059899,7.35002 6.660589,10.64925 1.26168,1.60068 2.98559,3.24142 5.15501,3.28047 1.97745,0.0358 3.48102,-1.57 4.58956,-3.02691 2.54593,-3.34565 4.1058,-7.36245 6.735395,-10.64723 1.49192,-1.86312 4.58604,-1.3162 3.63469,-4.56599 4.9537,0.39098 9.70047,1.77487 14.70613,1.77487 1.63162,0 4.78405,0.31643 4.43744,-2.27818 -0.28347,-2.12046 -3.06066,-2.25359 -4.69099,-2.46784 -5.14283,-0.67622 -10.33206,-0.59052 -15.46678,-1.3063 -10.875935,-1.51601 -21.751865,-2.58573 -32.708423,-3.06572 -11.252451,-0.49265 -22.515297,0.0274 -33.722624,-1.34992 -6.810183,-0.83673 -13.384578,-2.14785 -20.030728,-3.79164 -1.270866,-0.3144 -5.651198,0.51827 -6.4039817,1.60956 -0.97828,1.41812 0.163814,2.80227 1.5866677,3.14989 4.376317,1.06848 9.975864,2.20567 14.452344,2.40065 m 4.056873,0.76066 -0.253565,0.25355 0.253565,-0.25355 m 18.762957,3.04265 -4.752112,9.12792 -2.854505,5.07108 -4.833229,-8.87437 -6.069573,-8.11373 18.509419,2.7891 m 49.95005,1.26776 -3.44226,4.81752 -6.44632,9.63505 h -0.25357 c -4.11112,-3.50058 -6.89208,-9.72658 -9.38148,-14.45257 h 19.52362"
       id="path862-1-1"
       sodipodi:nodetypes="cccccccccccscsccscccccsccccccccscccccscccccccccccccccccsccccccscccccccccccccccccccccccc" />
  </g>
</svg>
