<svg xmlns="http://www.w3.org/2000/svg" width="500" height="500" viewBox="0 0 132.292 132.292"><g style="display:inline;opacity:1"><path style="fill:#241c1c;fill-opacity:1;stroke-width:.236839" d="M66.219 0A66.146 66.146 0 0 0 .199 66.146a66.146 66.146 0 0 0 66.145 66.146 66.146 66.146 0 0 0 66.146-66.146A66.146 66.146 0 0 0 66.344 0a66.146 66.146 0 0 0-.125 0zm.017 7.22a58.737 58.737 0 0 1 .108 0v117.474A58.737 58.737 0 0 1 7.607 65.957a58.737 58.737 0 0 1 58.63-58.738z" transform="translate(-.198)"/></g></svg>