<svg width="500" height="500" viewBox="0 0 132.29 132.29" xmlns="http://www.w3.org/2000/svg"><defs><clipPath id="a"><path d="M76.535 408.89h14.109v29.02H76.535z"/></clipPath></defs><g transform="scale(5.64477) rotate(40.716 600.892 119.658)" clip-path="url(#a)"><path d="m88.047 422.85-1.14-1.23c-.044 1.082-.294 1.957-.551 2.796a6.288 6.288 0 0 0 1.691-1.566m-2.09 1.79c.004-.016.012-.032.016-.052.316-1.007.644-2.05.629-3.418h.011l-.16-2.754-2.343.91c-.676.708-1.985 2.688-2.977 5.126.84.503 1.766.757 2.719.73a4.895 4.895 0 0 0 2.105-.543m-5.094-.36c.653-1.577 1.485-3.077 2.196-4.12l-2.48-2.227a9.46 9.46 0 0 0-.247-.086c-.234.254-.52.535-.812.824-.47.465-.957.946-1.258 1.313-.07.086-.153.183-.242.289.328 1.047.836 2 1.507 2.797.407.484.856.89 1.336 1.21m-2.843-4.495c.312-.38.804-.868 1.28-1.336.41-.41.837-.828 1.098-1.14-.687.085-1.691.187-2.8.3v.094c.023.761.129 1.503.316 2.207.04-.043.07-.082.106-.125m-.422-2.489c1.48-.152 2.859-.297 3.41-.394a545.9 545.9 0 0 0 4.836-2.082c-2.352-1.73-4.156-4.297-4.176-4.324l-.012-.02-.031-.066-.031-.09c-2.305 1.015-3.95 3.758-3.996 6.976m5.843-7.394a4.738 4.738 0 0 0-1.554.3l.043.122c.101.144 1.507 2.086 3.363 3.66-.2-.469-.426-1.047-.633-1.692l-.004-.027c-.074-.55-.097-1.332-.074-2.258a4.834 4.834 0 0 0-.98-.11c-.055 0-.11 0-.16.005m1.453.184c-.02.87.003 1.605.07 2.125.297.921.633 1.707.867 2.207.168.128.34.253.512.37l1.746.91.465-.28c.058-.051.191-.086.73-.211.031-.004.063-.016.094-.02-.317-1.195-.863-2.285-1.613-3.176-.817-.972-1.809-1.629-2.871-1.926m4.796 7.293a9.376 9.376 0 0 0-.238-1.886 3.038 3.038 0 0 1-.098.023c-.238.055-.53.121-.609.153l-.582.351c-.383.371-1.137 1.727-1.398 2.227l-.008.011.168 2.922 1.308 1.41c.954-1.386 1.512-3.218 1.457-5.21m-3.046 7.957c.273.207.453.539.453.91a1.133 1.133 0 0 1-1.606 1.015l-.281.5.371.184c-.234.512-.898.582-.996 2.375l.004 2.605a.95.95 0 0 0 .219.47c.289.362.68 1.402.414 2.007-.27.61-1.274 1.543-1.649 2.508-.375-.969-1.375-1.903-1.64-2.512-.27-.605.129-1.644.418-2.008.23-.293.238-.496.238-.78h.02l-.004-2.04c-.016-2.047-.735-2.11-.973-2.648l.375-.18-.277-.5a1.13 1.13 0 0 1-1.188-1.898c-2.371-1.399-4.012-4.372-4.008-7.813.004-2.297.735-4.461 2.063-6.094 1.336-1.64 3.11-2.547 4.996-2.547h.008c3.886.008 7.047 3.89 7.043 8.66-.004 3.422-1.641 6.387-4 7.786m-1.403-9.649-2.218.875a4.079 4.079 0 0 0-1.149 1.504c1.656.836 4.121.348 5.121-2.246a5.856 5.856 0 0 0-1.754-.133"/></g></svg>