<svg xmlns="http://www.w3.org/2000/svg" width="500" height="500" viewBox="0 0 132.292 132.292"><defs><clipPath id="a"><path d="M178 471h19v19h-19zm0 0"/></clipPath><clipPath id="b"><path d="m178.184 480.617 8.949 8.95 8.945-8.946-8.95-8.95zm0 0"/></clipPath></defs><g clip-path="url(#a)" transform="matrix(7.39447 0 0 7.39608 -1317.573 -3488.582)"><g clip-path="url(#b)"><path style="fill:#780f17;fill-opacity:1;fill-rule:nonzero;stroke:none" d="m186.438 478.941-3.622-2.64v.008l2.641 3.62-4.437.688 4.437.696-2.652 3.625h.011l3.621-2.645.688 4.43h.012l.683-4.422h.012l3.621 2.645v-.008l-2.652-3.625 4.43-.696-4.422-.687v-.008l2.644-3.621h-.012c-.105.086-1.316.968-3.62 2.64l-.684-4.43zm.699-7.261 8.937 8.937-8.937 8.95-8.953-8.95zm0 0"/></g></g></svg>