<svg width="500" height="500" viewBox="0 0 132.29 132.29" xmlns="http://www.w3.org/2000/svg"><defs><clipPath id="g"><path d="M378 513.34h3v2.664h-3z"/></clipPath><clipPath id="a"><path d="M379 513.34h3v2.664h-3z"/></clipPath><clipPath id="c"><path d="M380 515h2.926v3H380z"/></clipPath><clipPath id="d"><path d="M378 520h3v2.813h-3z"/></clipPath><clipPath id="e"><path d="M376 520h2v2.813h-2z"/></clipPath><clipPath id="f"><path d="M376 513.34h2v2.664h-2z"/></clipPath><clipPath id="b"><path d="M380 518h2.926v3H380z"/></clipPath><clipPath id="h"><path d="M374 520h3v2.813h-3z"/></clipPath><clipPath id="i"><path d="M374 513.34h3v2.664h-3z"/></clipPath><clipPath id="j"><path d="M379 520h3v2.813h-3z"/></clipPath><clipPath id="k"><path d="M373.43 515h2.566v3h-2.566z"/></clipPath><clipPath id="l"><path d="M373.43 518h2.566v3h-2.566z"/></clipPath></defs><g clip-path="url(#a)" transform="translate(-5260.9 -7232.333) scale(14.088)"><path d="M380.81 515.24h1.117a4.749 4.749 0 0 0-2.125-1.574c.246.234.469.527.668.875.125.215.238.449.34.699" style="fill:#2385c5"/></g><g clip-path="url(#b)" transform="translate(-5260.9 -7232.333) scale(14.088)"><path d="M382.19 520.52a4.703 4.703 0 0 0 .684-2.394h-1.559a7.925 7.925 0 0 1-.371 2.394z" style="fill:#2385c5"/></g><g clip-path="url(#c)" transform="translate(-5260.9 -7232.333) scale(14.088)"><path d="M382.86 517.73a4.724 4.724 0 0 0-.672-2.102h-1.242a7.86 7.86 0 0 1 .363 2.102z" style="fill:#2385c5"/></g><g clip-path="url(#d)" transform="translate(-5260.9 -7232.333) scale(14.088)"><path d="M378.4 520.91v1.848c.77-.086 1.469-.754 1.938-1.848z" style="fill:#2385c5"/></g><g clip-path="url(#e)" transform="translate(-5260.9 -7232.333) scale(14.088)"><path d="M377.96 522.74v-1.828h-1.82c.441 1.031 1.097 1.691 1.82 1.828" style="fill:#2385c5"/></g><g clip-path="url(#f)" transform="translate(-5260.9 -7232.333) scale(14.088)"><path d="M377.96 515.24v-1.84c-.727.133-1.387.801-1.824 1.84z" style="fill:#2385c5"/></g><g clip-path="url(#g)" transform="translate(-5260.9 -7232.333) scale(14.088)"><path d="M378.44 513.39h-.043v1.855h1.941c-.457-1.078-1.148-1.753-1.898-1.855" style="fill:#2385c5"/></g><g clip-path="url(#h)" transform="translate(-5260.9 -7232.333) scale(14.088)"><path d="M375.67 520.91h-1.238a4.708 4.708 0 0 0 2.332 1.645c-.282-.25-.54-.57-.762-.958a5.343 5.343 0 0 1-.332-.687" style="fill:#2385c5"/></g><g clip-path="url(#i)" transform="translate(-5260.9 -7232.333) scale(14.088)"><path d="M374.43 515.24h1.234c.098-.25.211-.484.336-.7a3.81 3.81 0 0 1 .739-.937 4.723 4.723 0 0 0-2.309 1.637" style="fill:#2385c5"/></g><g clip-path="url(#j)" transform="translate(-5260.9 -7232.333) scale(14.088)"><path d="M381.92 520.91h-1.121a4.879 4.879 0 0 1-.332.688 3.723 3.723 0 0 1-.692.894 4.694 4.694 0 0 0 2.145-1.582" style="fill:#2385c5"/></g><g clip-path="url(#k)" transform="translate(-5260.9 -7232.333) scale(14.088)"><path d="M374.17 515.63a4.66 4.66 0 0 0-.672 2.102h1.668a7.71 7.71 0 0 1 .36-2.102z" style="fill:#2385c5"/></g><g clip-path="url(#l)" transform="translate(-5260.9 -7232.333) scale(14.088)"><path d="M373.48 518.12c.008.848.242 1.676.684 2.394h1.359a8.027 8.027 0 0 1-.371-2.394z" style="fill:#2385c5"/></g><path d="M829.77 416.46v-2.102h-1.977a7.63 7.63 0 0 0-.375 2.102zM830.21 414.36v2.102h2.469a7.485 7.485 0 0 0-.38-2.102zM829.77 419.24v-2.394h-2.36c.005.847.141 1.671.387 2.394zM830.21 416.85v2.394h2.086c.25-.718.383-1.546.39-2.394z" style="fill:#2385c5" transform="translate(-11626 -5805.5) scale(14.088)"/></svg>