<svg width="500" height="500" viewBox="0 0 132.29 132.29" xmlns="http://www.w3.org/2000/svg"><defs><clipPath id="a"><path d="M65.195 188.52h16.902v13.402H65.195z"/></clipPath></defs><g transform="translate(-510.38 -1462.1) scale(7.8282)" clip-path="url(#a)"><path d="m68.836 191.71.953-2.05 1.219-1.141 2.66.421s-.21.524-.789.594c-.578.07-1.328.059-1.328.059l-.633.89-.207 1.028 3.117-1.7 3.184.06 2.773 1.468s-.605.531-1.597.363c-.993-.172-1.57-.71-1.57-.71l-1.723.105-1.805 1.289 3.644-.383 3.278.817 2.086 2.457s-1.102-.215-1.383-.301c-.313-.102-1.645-.93-1.645-.93l-2.246-.52-2.98.856 3.097-.004 2.504 1.738.72 2.72s-.852.034-1.321-.724c-.406-.656-.563-1.136-.563-1.136l-1.664-1.098s-2.73.414-3.02.504c-.296.09-2.16 2.27-2.16 2.27s1.852 1.296 1.957 1.34c.106.042 1.547-.114 1.547-.114s.532-1.043 1.297-1.21c.762-.165 1.492.167 1.492.167s-.707.387-1.187 1.215c-.48.828-1.07 1.578-1.07 1.578s-2.387-.223-2.711-.172c-.324.051-1.14.465-1.14.465s-4.391-1.93-5.583-2.36c-1.187-.437-.77-4.726-.77-4.726s3.485-2.41 3.567-3.125" style="fill:#6185c2"/></g></svg>