<svg width="500" height="500" viewBox="0 0 132.29 132.29" xmlns="http://www.w3.org/2000/svg"><defs><clipPath id="a"><path d="M77 338.55h13.016v12.402H77z"/></clipPath><clipPath id="b"><path d="M76.535 338.55H90v12.402H76.535z"/></clipPath></defs><g clip-path="url(#a)" transform="matrix(9.81363 0 0 9.81363 -751.202 -3317.156)"><path d="M88.801 340.07c.031-.023-.113-.188-.145-.16-.054.058-.035.14-.015.16.02.02.086.059.16 0m-1.41-.145c.004 0 .008.004.012.008.07.06.175-.03.25.047.074.075.003.172.027.211.008.008.015.02.023.028l.004.004c.223.23.867-.164.395-.704-.477-.542-.875.227-.711.403zm1.785.735-.02-.02c-.507-.504-.945.118-.722.356.008.008.02.015.027.023.035.028.137-.035.203.04h.004c.074.081-.02.179.035.257 0 .004.004.008.008.012.164.168.934-.168.469-.664zm-3.23 1.504c-.063-.031-.149-.051-.211.062-.028.047-.02.094-.004.14zm.437.48-.219.2h.004c.043.019.09.027.137.007.113-.058.105-.14.078-.207zm2.266-3.035c.066.047.296-.184.296-.184a4.037 4.037 0 0 0-.21-.175l-.016-.016h-.004l-.004-.004a.052.052 0 0 1-.012-.043c-.004-.016 0-.031.012-.04 0 0 .004-.003.008-.003a2.37 2.37 0 0 0 .187-.145 1.37 1.37 0 0 0 .153-.18c.004-.003.008-.003.008-.007h.003c.008-.008.02-.012.036-.008.015 0 .035.004.043.015 0 0 .003 0 .003.004l.012.02c.055.078.11.152.164.222 0 0 .192-.226.192-.23h.004c0-.004 0-.004.003-.004.008-.012.024-.016.043-.016.012 0 .028.004.036.012.004.004.004.008.007.008.043.07.094.133.145.188.05.054.11.109.176.156.004.004.008.004.008.008h.003c.008.008.008.023.008.039a.082.082 0 0 1-.015.043h-.004l-.004.004-.016.012c-.078.054-.152.105-.223.164.067.062.137.12.211.18.008.003.012.007.016.011h.004c0 .004 0 .004.004.004.008.012.015.028.012.043a.044.044 0 0 1-.012.04c-.004.003-.004.003-.008.003a1.388 1.388 0 0 0-.344.324c0 .004-.004.004-.004.008a.074.074 0 0 1-.039.012c-.02-.004-.035-.008-.043-.015-.093-.133-.183-.25-.183-.25-.043.046-.262.195-.215.3.05.102.336.13.508.317l.004.004c.047.05.093.105.144.168.242.316.27.484.27.484s-.176.156-.239.23c-.066.079-.12.329-.12.329s-.29.047-.423.156c-.085.07-.25.187-.289.219l-.007.004s-.02-.07-.086-.141c-.075-.078-.196-.148-.407-.105-.398.085-.945.644-.945.644s-.594-.047-.797.09c-.129.086.094.281-.09.46-.191.185-.437.188-.554.185-.012-.004-.059.289-.242.257 0 0-.176-.043-.25-.008a.899.899 0 0 0-.297.278c-.07.12.015.293-.11.41l-.414.387c-.125.12-.37.054-.492.152-.434.351-1.629 1.469-2.027 1.887-.102.109-.02.324-.14.437l-.52.492c-.122.114-.32 0-.438.098-.324.266-1.539 1.39-1.844 1.707-.043.047.043.133.012.187-.066.11-.309.184-.402.461-.09.274-.032.418-.118.524-.082.105-.214-.028-.39.117-.176.144-.406.363-.547.348-.137-.016-.352-.133-.516-.055-.086.043-.175.11-.215.125-.007 0-.046-.004-.039-.04.012-.042.09-.124.137-.206.09-.156-.012-.383-.02-.524-.011-.136.227-.355.38-.52.156-.167.03-.308.14-.386.113-.078.25-.008.531-.082.282-.078.371-.312.485-.371.054-.031.136.059.183.02a42.767 42.767 0 0 0 1.82-1.735c.102-.113 0-.312.122-.43l.523-.492c.121-.113.332-.015.446-.113a33.24 33.24 0 0 0 2.007-1.902c.106-.118.055-.368.184-.485l.414-.39c.121-.118.289-.02.414-.082a.86.86 0 0 0 .29-.278c.042-.074.007-.25.007-.25 0-.234.285-.207.289-.222.012-.168.012-.38.215-.555.191-.164.367.062.457-.067.18-.246.14-.777.14-.777s.59-.512.696-.906c.058-.2 0-.328-.07-.406l-.004-.004c-.063-.067-.13-.09-.137-.094h-.004s.16-.191.242-.281c.121-.13.18-.414.18-.414s.254-.04.34-.102c.074-.059.242-.223.242-.223s.168.04.465.301c.066.055.117.106.164.156l.008.004c.171.184.203.446.292.508" style="fill-rule:evenodd"/></g><g clip-path="url(#b)" transform="matrix(9.81363 0 0 9.81363 -751.202 -3317.156)"><path d="m76.535 338.55 1.914 1.07s.227.082.41.242c.133.118 6.703 6.563 7.309 7.157l.117-.118.04-.043.019-.008c.004-.004.007-.004.015-.004.012-.004.032 0 .047.012.008.004.02.012.027.024.024.02.047.043.075.074.105.097.222.219.246.242.039.043.164.117.125.363a1.111 1.111 0 0 1-.086.258.945.945 0 0 1-.082.168c.012.047.07.168.125.223.058.058.156.058.226.113.133.105.114.219.192.293.086.086.183.066.289.187.035.04.058.13.133.204.082.082.074.066.156.093a.192.192 0 0 1 .14.157c.008.05.047.14.083.19.007.013.015.013.02.009.35-.254.648-.172.882.055.25.242.336.57.023.96l.094.09c.059.063.063.164 0 .223v.004c-.008.008-.016.012-.023.016a.079.079 0 0 1-.016.023v.004a.164.164 0 0 1-.227 0l-.09-.09c-.386.32-.714.242-.96-.004-.235-.226-.328-.515-.086-.87.004-.005.008-.02 0-.024a.468.468 0 0 0-.192-.086.197.197 0 0 1-.16-.137c-.027-.078-.012-.07-.094-.152-.074-.074-.168-.094-.207-.13-.125-.105-.105-.198-.195-.288-.074-.07-.187-.051-.293-.18-.058-.07-.062-.168-.121-.226a.614.614 0 0 0-.227-.122.83.83 0 0 1-.164.086.993.993 0 0 1-.254.09c-.246.047-.324-.074-.367-.113l-.25-.238c-.027-.031-.054-.055-.074-.078a.068.068 0 0 1-.023-.024c-.012-.02-.016-.035-.012-.05v-.012c.004-.012.012-.02.012-.02l.039-.039v-.004l.117-.117c-.61-.594-7.188-7.031-7.309-7.16-.164-.176-.254-.403-.254-.403z" style="fill-rule:evenodd"/></g></svg>