<?xml version="1.0" encoding="UTF-8"?>
<svg width="500" height="500" version="1.1" viewBox="0 0 132.3 132.3" xmlns="http://www.w3.org/2000/svg" xmlns:cc="http://creativecommons.org/ns#" xmlns:dc="http://purl.org/dc/elements/1.1/" xmlns:rdf="http://www.w3.org/1999/02/22-rdf-syntax-ns#">
  <g transform="matrix(.3528 0 0 .3528 29.95 111.5)">
    <path d="m146.1-65.44 1.873-27.53c-13.46 11.64-26.77 18.6-39.74 24.96 11.92 3.169 24.75 4.014 37.87 2.572zm-45.08-4.803c0.2664-0.1331 0.5329-0.2662 0.8025-0.396 15.67-7.615 31.88-15.49 48.08-31.07l0.1059 0.1054 31.23-33.03-37.41-17.78c-16.14-0.135-54.63 6.602-95.1 22.22 3.511 15.75 10.93 29.71 22 40.85 8.664 8.703 18.97 15.03 30.29 19.1zm-53.29-65.09c26.33-10.05 53.7-17.05 74.24-20.26l-1.351-54.94c-0.5888-1.33-1.169-2.625-1.735-3.871-5.703-9e-3 -12.29-0.2308-19.07-0.4575-10.9-0.3694-22.17-0.7498-29.98-0.216-1.838 0.1224-3.862 0.2394-6.171 0.3514-8.856 15.76-14.53 32.64-16.51 49.69-1.205 10.35-0.9708 20.3 0.5801 29.7zm21.75-84.9c8.082-0.5485 19.48-0.1644 30.51 0.209 9.574 0.3212 19.38 0.6491 26.11 0.3046-8.836-7.303-21.42-18.16-35.3-30.14-0.3724 0.3638-0.7538 0.7049-1.12 1.069-8.888 8.844-16.55 18.52-22.87 28.73 0.9333-0.0528 1.819-0.1102 2.663-0.1656zm25.09-33.21c18.54 16.02 35.87 30.95 43.24 36.44 13.84 6.187 65.39 28.28 79.65 34.39-5.852-47.73 4.503-98.41 4.615-98.93l0.0933-0.3431 0.4197-1.105 0.7197-1.401c-38.21-16.13-89.61-4.852-128.7 30.95zm154.7-13.56c-6.278-6.306-13.42-11.36-21.19-15.22l-0.9454 1.894c-0.5607 2.862-7.973 41.65-5.838 81.7 3.33-7.677 7.696-16.94 13.11-26.71l0.261-0.383c5.798-7.087 14.87-16.21 26.24-26.39-2.827-4.633-6.081-8.986-9.807-12.98-0.5992-0.642-1.208-1.281-1.834-1.904zm14.25 19.5c-10.68 9.611-19.21 18.19-24.7 24.88-7.704 13.93-13.29 26.88-16.64 35.36 0.3505 3.459 0.7783 6.901 1.306 10.31l8.865 31.21 8.595 2.377c1.301 0.1725 3.214 1.355 10.8 6.406 0.4304 0.2848 0.867 0.5761 1.307 0.8707 10.73-17.3 17.57-36.16 19.79-55.21 2.426-20.79-0.8765-40.05-9.326-56.19zm-33.22 139.9c7.565-7.528 14.24-15.65 19.95-24.2-0.4587-0.3016-0.9172-0.6096-1.376-0.9111-3.351-2.234-7.488-4.983-8.745-5.571l-10.8-2.986c-8.749-0.4156-33.53 5.87-42.51 8.381l-0.1808 0.0524-33.12 35.04-2.153 31.61c27.42-4.252 55.67-18.27 78.93-41.42zm-129.8 53.41c0.6259 5.651-1.313 11.51-5.789 15.68-7.518 7.011-19.3 6.596-26.31-0.9221-1.878-2.018-3.207-4.343-4.025-6.8l-9.125 2.266 1.996 6.555c-8.796 2.952-17.17-4.225-39.72 14.89l-31.23 29.49c-1.501 1.957-2.574 4.27-3.117 7.949-1.107 7.547-9.106 24-19.42 27.65-10.31 3.66-32.83 2.176-48.64 8.567 7.343-15.39 7.231-37.96 11.51-48.03 4.284-10.07 21.19-17.05 28.79-17.7 6.192-0.5268 8.674-2.744 12.11-5.967l0.1988 0.2107 24.4-23.05c24.36-23.37 17-32.66 20.73-41.63l6.397 2.447 2.896-8.942c-2.389-0.9887-4.612-2.475-6.491-4.493-7.014-7.522-6.599-19.3 0.9221-26.31 4.157-3.878 9.622-5.473 14.86-4.862-10.08-44.22 7.059-97.53 48.3-136.3 27.58-25.95 61.8-41.64 96.34-44.19 34.77-2.565 65.65 8.478 86.98 31.09 0.028 0.0297 0.0559 0.0592 0.0839 0.0889 43.91 46.67 33.07 128.4-24.15 182.3-41.07 38.64-95.06 52.55-138.5 40.07zm99.76-125.8-35.58-16.73c-12.79-1.683-24.01 0.7109-30.97 3.214 8.663 29.34 42.38 53.33 84.78 35.98-5.708-9.475-11.88-16.8-18.23-22.46" style="fill:#17110f"/>
  </g>
</svg>
