<?xml version="1.0" standalone="no"?>
<!DOCTYPE svg PUBLIC "-//W3C//DTD SVG 20010904//EN"
 "http://www.w3.org/TR/2001/REC-SVG-20010904/DTD/svg10.dtd">
<svg version="1.0" xmlns="http://www.w3.org/2000/svg"
 width="500.000000pt" height="500.000000pt" viewBox="0 0 500.000000 500.000000"
 preserveAspectRatio="xMidYMid meet">

<g transform="translate(0.000000,500.000000) scale(0.100000,-0.100000)"
fill="#000000" stroke="none">
<path d="M2447 4243 c-120 -186 -424 -679 -421 -682 2 -2 41 13 86 33 46 20
119 48 163 63 l80 28 61 90 c34 49 66 91 72 93 6 2 38 -38 72 -88 34 -50 71
-95 83 -99 12 -5 55 -19 95 -31 41 -13 108 -43 149 -68 41 -24 76 -42 78 -40
3 2 -67 118 -154 258 -244 394 -308 494 -318 497 -5 2 -26 -23 -46 -54z"/>
<path d="M2399 3660 c-94 -11 -252 -68 -353 -126 -47 -27 -139 -88 -204 -136
-64 -48 -128 -90 -142 -93 -14 -3 -57 1 -95 9 -99 21 -98 23 -103 -176 -4
-151 -3 -165 15 -187 20 -25 20 -25 105 -12 110 16 143 7 233 -65 93 -73 228
-165 290 -197 107 -54 189 -72 330 -71 205 1 292 33 547 201 75 50 153 96 174
103 36 12 170 9 219 -5 50 -14 63 37 64 252 1 109 -2 134 -15 148 -9 9 -22 14
-29 11 -7 -2 -43 -14 -81 -26 -106 -32 -139 -19 -289 121 -124 116 -161 144
-246 184 -127 59 -277 83 -420 65z m249 -251 c49 -15 177 -84 227 -122 67 -51
135 -120 135 -138 0 -24 -91 -103 -169 -147 -36 -20 -111 -52 -166 -71 -91
-32 -110 -35 -210 -34 -92 0 -123 5 -190 27 -139 47 -273 130 -329 203 -23 30
-11 50 65 111 123 100 287 177 404 190 67 8 177 -1 233 -19z"/>
<path d="M2415 3326 c-89 -39 -126 -155 -79 -248 41 -79 159 -112 239 -66 132
77 117 269 -24 317 -45 15 -99 13 -136 -3z"/>
<path d="M1648 2923 c-30 -5 -36 -13 -308 -448 -184 -294 -230 -370 -230 -382
0 -4 57 -8 126 -8 l127 0 22 35 c12 19 52 82 87 140 68 111 281 453 329 531
35 55 35 60 7 86 -42 38 -101 55 -160 46z"/>
<path d="M3239 2889 c-59 -9 -92 -26 -85 -45 13 -33 393 -649 443 -719 l30
-40 121 0 c67 0 122 3 122 7 0 8 -133 226 -359 588 -67 107 -129 197 -139 201
-34 12 -88 15 -133 8z"/>
<path d="M2765 2618 c-71 -28 -219 -58 -292 -58 -75 0 -190 21 -263 49 -30 12
-60 21 -65 21 -6 0 -22 -19 -36 -42 -14 -24 -102 -164 -195 -313 -94 -148
-180 -286 -192 -306 l-21 -35 121 -110 c66 -60 130 -114 142 -121 31 -18 89
-15 146 7 59 23 93 25 108 7 7 -8 14 -92 18 -205 l7 -192 249 0 248 0 0 88 c0
48 3 138 7 200 8 140 10 142 119 107 96 -30 119 -31 164 -4 45 28 240 209 240
223 0 6 -86 148 -191 316 -105 168 -203 324 -218 348 -14 23 -30 42 -36 41 -5
-1 -32 -10 -60 -21z"/>
<path d="M1090 2045 c-90 -20 -258 -106 -440 -225 -229 -150 -214 -143 -306
-123 -106 23 -104 27 -104 -198 0 -207 1 -210 77 -186 70 22 124 28 163 17 19
-5 82 -46 140 -92 147 -114 238 -172 333 -210 79 -32 86 -33 227 -33 201 0
257 20 548 192 147 87 229 123 282 123 16 0 62 -5 101 -12 100 -17 99 -19 99
198 0 95 -3 179 -6 188 -8 21 -29 20 -99 -4 -115 -40 -145 -28 -313 126 -110
100 -141 123 -227 164 -55 26 -127 56 -160 65 -83 24 -234 28 -315 10z m201
-235 c110 -20 318 -147 417 -254 26 -28 39 -51 36 -61 -16 -41 -183 -134 -324
-181 -73 -24 -101 -28 -205 -28 -111 -1 -127 2 -218 33 -132 45 -291 141 -317
192 -29 54 227 237 405 290 69 20 130 23 206 9z"/>
<path d="M1157 1718 c-46 -12 -112 -84 -121 -132 -25 -134 105 -249 229 -202
86 33 137 125 115 207 -16 58 -70 114 -125 128 -50 12 -47 12 -98 -1z"/>
<path d="M3655 2054 c-102 -24 -154 -43 -241 -84 -88 -43 -118 -64 -232 -169
-172 -157 -175 -159 -350 -109 -36 11 -45 10 -52 -2 -6 -8 -10 -94 -10 -191 0
-220 -1 -218 99 -201 39 7 85 12 101 12 55 0 141 -38 296 -130 267 -160 376
-196 567 -188 178 8 286 58 527 246 58 46 121 87 140 92 39 11 93 5 164 -17
73 -23 76 -17 76 192 0 218 2 215 -104 192 -92 -20 -70 -30 -308 125 -283 183
-390 228 -553 234 -55 1 -109 1 -120 -2z m224 -249 c119 -29 311 -143 395
-235 29 -33 35 -44 26 -59 -27 -51 -186 -147 -317 -192 -90 -31 -108 -33 -218
-33 -104 0 -131 4 -205 28 -138 46 -298 135 -321 178 -10 18 -3 29 58 87 38
37 101 87 139 112 182 120 293 149 443 114z"/>
<path d="M3735 1723 c-71 -17 -122 -71 -139 -146 -16 -70 41 -163 119 -193
130 -49 262 77 225 215 -13 48 -74 105 -127 120 -40 11 -46 12 -78 4z"/>
<path d="M547 1202 c-258 -413 -291 -471 -282 -480 9 -9 4238 -15 4363 -7 62
5 92 11 92 19 0 7 -46 86 -103 177 -155 246 -194 306 -207 314 -11 7 -158 -99
-166 -120 -3 -6 14 -44 37 -83 23 -40 39 -76 35 -80 -12 -12 -3633 -9 -3645 3
-7 7 2 31 29 75 22 36 39 68 40 71 0 4 -38 39 -85 78 l-85 71 -23 -38z"/>
</g>
</svg>
