<svg width="500" height="500" version="1.1" viewBox="0 0 132.3 132.3" xmlns="http://www.w3.org/2000/svg" xmlns:cc="http://creativecommons.org/ns#" xmlns:dc="http://purl.org/dc/elements/1.1/" xmlns:rdf="http://www.w3.org/1999/02/22-rdf-syntax-ns#">
  <path d="m88.51 27.24c-0.2728-0.5769-0.5641-1.087-0.9938-1.568-2.76-3.085-6.589-1.303-10.1-0.971-4.286 0.4052-8.827 0.9379-13.13 0.7099-2.898-0.1535-5.662-1.019-8.602-0.8701-2.93 0.1483-5.731 1.054-8.602 1.567v0.2264c2.173 0.374 4.864 1.244 6.338 2.943-1.263 0.3473-2.329 1.368-3.622 1.557-1.777 0.2598-4.089-0.673-5.886-0.8911-3.989-0.4843-8.211-0.7059-12.22-0.6526-4.003 0.05313-7.644 1.934-11.54 2.264-1.478 0.1248-2.825-0.7648-4.301-0.5991-1.391 0.1562-2.616 0.9738-3.848 1.571-2.373 1.15-5.633 2.067-7.47 3.995h5.659c-3.091 2.876-8.388 4.054-10.19 8.149l5.207-1.336 9.055 2.634 8.376 1.176 4.98 1.293 5.415 0.6218 2.59 2.838 2.635 2.282-4.527-2.113-2.481-0.9548-2.282 1.882-3.839 2.48-8.602 3.022-8.602 3.832v0.2264c2.835 0.1005 5.682 0.8124 8.376 1.665 2.616 0.8283 5.379 1.871 8.149 1.277-1.602 1.633-3.525 2.994-5.207 4.558-3.754 3.491-7.279 7.047-12.22 8.798v0.2264c5.172-0.3094 11.05-1.277 15.62-3.848-1.711 2.618-4.284 4.529-6.791 6.338v0.2264l5.207-0.5711 2.943-1.466c-3.431 4.575-8.355 7.936-13.58 10.19v0.2264c4.13-0.1526 7.463-2.43 11.09-4.075-3.074 3.623-6.196 6.926-9.96 9.86-1.386 1.081-2.829 2.079-4.301 3.039-0.8672 0.5657-1.848 0.989-2.49 1.814 3.317-0.9107 6.973-0.4199 10.19-1.662 3.151-1.218 6.52-2.931 9.037-5.21 1.459-1.322 2.633-2.977 3.939-4.446 1.801-2.024 3.767-3.885 5.813-5.659l-8.888 13.13-4.015 4.527 6.565-1.132c-3.931 5.71-9.936 10.38-15.62 14.26v0.2264c3.211-0.9958 6.206-2.82 9.055-4.568 3.789-2.324 7.616-4.832 10.87-7.883l-4.98 9.281c3.582-2.068 7.186-5.033 9.901-8.149 1.321-1.516 2.325-3.34 3.488-4.98 2.115-2.982 4.31-5.904 6.503-8.828 1.848-2.464 3.598-5.43 5.914-7.47-4.064 6.701-8.108 13.85-11.22 21.05-0.7656 1.774-1.111 3.652-1.827 5.433-0.558 1.389-1.34 2.677-1.873 4.075-1.211 3.176-1.418 6.56-2.74 9.734 2.775-1.478 4.85-4.779 6.707-7.244 3.926-5.211 7.464-10.83 11.63-15.85l-1.625 7.923-0.9263 5.659-1.479 4.301-0.7242 4.301c4.108-3.03 7.51-7.045 10.25-11.32 1.365-2.127 2.694-4.324 3.33-6.791h0.4527l1.004 2.716-0.5496 3.396-0.6809 6.338c1.633-1.38 2.525-3.484 3.305-5.433 1.682-4.202 3.323-9.255 3.486-13.81h0.4527l1.307 7.923-0.4016 7.017h0.2264c2.191-4.673 4.746-8.951 4.754-14.26h0.2264c0.637 2.288 0.9886 4.644 1.114 7.017 0.0738 1.392-0.08353 3.255 0.5569 4.527 1.021 2.027 3.806 3.431 5.799 4.302-1.337-4.598-2.038-9.021-2.281-13.81-0.1041-2.048-0.3454-4.057-0.1093-6.112 0.2612-2.273 0.3611-5.142 2.402-6.611 1.058-0.7617 2.434-0.8591 3.611-1.365 3.219-1.385 6.123-2.702 9.734-2.024 2.427 0.4557 5.564 2.352 5.302 5.246-0.0905 1.005-0.7212 1.879-1.228 2.716l8.602-5.433-0.2264 6.338c1.828-1.152 3.872-1.989 5.659-3.184 0.759-0.5075 1.571-1.782 2.522-1.872 1.934-0.184 2.885 3.007 4.514 3.567 1.124 0.3864 2.964-1.074 3.807-1.715 1.906-1.45 1.738-4.339 2.884-6.301 0.8731-1.494 2.437-2.471 3.478-3.85 0.8484-1.124 0.7642-2.08-0.6848-2.516-0.3665-0.1102-0.7457-0.1569-1.127-0.1763-0.678-0.03486-1.358 0.0056-2.038-0.02444 3.049-4.129 2.175-9.365-0.2264-13.58h-0.2264c-0.3649 3.856-1.834 7.967-4.964 10.36-0.4858 0.3722-0.939 1.011-1.533 1.209-0.5404 0.1795-1.142-0.1487-1.655-0.2904-0.8428-0.2334-1.628-0.3271-2.488-0.1908 0.3946-4.237-0.113-9.493-3.622-12.45 0.3796 2.403 0.2085 6.204-1.001 8.371-0.7103 1.273-1.906 1.967-2.395 3.4-1.217-0.6918-2.678-1.058-3.826-1.839-0.896-0.6101-1.284-1.651-2.101-2.335-1.606-1.343-4.295-1.568-6.297-1.474-1.264 0.05909-2.38 0.6653-3.622 0.8496-1.796 0.266-3.687-0.03283-5.433 0.5392-0.9605 0.3147-2.709 1.719-3.735 1.197-0.8303-0.4217-0.5354-1.878-0.4299-2.597 0.3796-2.589 1.074-5.145 1.649-7.697 0.2859-1.27 0.5306-2.551 0.656-3.848 0.113-1.168 0.06656-2.378 0.8607-3.337 0.9166-1.106 2.406-1.728 3.716-2.222 2.66-1.004 5.509-1.418 8.149-2.433 1.334-0.5127 2.445-1.48 3.622-2.267 1.044-0.6979 2.324-1.112 3.296-1.89 1.479-1.182 2.656-2.777 3.947-4.151l0.8559 1.736 1.479 1.486 0.5259 2.664 0.761 5.659c2.68-2.326 3.205-7.076 3.577-10.41 0.1315-1.179-0.0392-2.945 0.4844-4.01 0.4552-0.9263 1.871-0.819 2.73-1.08 1.368-0.4161 2.439-1.149 3.169-2.379h0.2264c0.7047 1.157 1.952 1.633 2.737 2.723 1.491 2.068 0.7468 4.538 0.2058 6.785 3.134-2.729 4.788-7.233 3.912-11.32-0.3106-1.449-1.292-2.651-1.586-4.075-0.321-1.557 0.1462-3.191-0.251-4.754-0.2956-1.162-1.365-2.065-1.552-3.2-0.1376-0.8345 0.1186-1.613-0.1383-2.459-0.4763-1.569-1.674-2.798-2.311-4.301-0.395-0.9337-0.7368-2.574-1.945-2.746-1.319-0.1879-2.55 0.9544-3.323 1.86-1.314 1.539-2.992 3.832-4.821 4.753-1.233 0.6207-2.733 0.8476-4.057 1.213-3.581 0.9876-7.382 1.584-10.87 2.876-1.895 0.7027-2.879 2.351-4.527 3.381-1.09 0.6809-2.461 0.6143-3.622 1.13-1.248 0.5538-2.21 1.584-3.396 2.248m-5.433 9.281c-1.48 1.903-3.807 2.753-5.655 4.237-0.628 0.5044-1.379 1.602-2.286 1.483-1.075-0.141-2.226-1.24-3.152-1.77-2.413-1.384-5.08-2.932-7.923-3.045v-0.4527l7.244-1.123 4.754 1.054z" style="fill:#020202"/>
</svg>
