<svg width="500" height="500" viewBox="0 0 132.29 132.29" xmlns="http://www.w3.org/2000/svg"><defs><clipPath id="a"><path d="M76.535 249.88h12.68v13.359h-12.68z"/></clipPath></defs><g transform="translate(-754.519 -2474.563) scale(9.90324)" clip-path="url(#a)"><path d="M86.809 256.59c-.031.074-.023.426.043.484-.086.051-.09.293.004.332-.02 0-.063 0-.082-.008.008.063-.176.723-.145.73.004-.01.004-.026-.004-.034-.03.082-.113.293-.097.332-.09.066-.055.105-.074.199-.004-.012-.024-.059-.008-.07-.012.043-.024-.063-.024-.07-.039.1-.074.199-.11.3l.044.012c-.04.05-.11.097-.125.219 0 .011.023-.075.023-.059 0 .031.004.031.016 0-.074.234-.004 0 .008.09-.012-.012-.035-.028-.043-.012.031 0-.028-.035-.016-.027-.02.058-.062.09-.09.172.02-.063.055-.13.082-.184-.004.012-.011.012-.023-.004a.93.93 0 0 0-.086.2c-.008.019-.016.148-.137.21a.877.877 0 0 0-.191.266c-.031-.008.004-.008 0 .004-.043-.004-.02-.031-.063.031.004-.02-.047.082-.027.055-.027.031.008-.012-.02.027-.003-.031-.066.063-.054.055-.156.094-.145.113-.344.191.008.012.016.012.031.004-.015.031-.062.028-.043.008-.015.016-.011.012-.05.008.011.012.015.004.03.008-.062.047.009 0-.027 0 .016 0-.015.043-.015.04.027 0 .008-.028.023.003-.035.012-.008-.004-.05-.004.023.028-.008.02-.028.028l.059.023c-.016.012-.043.027-.063.047a.07.07 0 0 1 .035-.023c.004 0-.043.05-.039.05-.015.012-.304.133-.343.121.011.008.027.004.039-.011a.105.105 0 0 1-.07.05c.007-.003.011-.003.019.005.004 0-.043.008-.035.004 0 .004.007.004.007.004-.015-.008-.003.004-.003.004a.305.305 0 0 1-.051-.051s-.004.047-.02.062c-.004-.02.012-.054.016-.066-.055.058.016.058-.074.094.05-.02.101-.008-.028.039.067-.04-.164.125-.035-.004-.07.05-.078.035-.113.035a.191.191 0 0 1-.05.055c-.013.008.054-.055.054-.06-.004.005-.004.005-.008 0-.031.036-.102.071-.121.052-.008-.016.027-.004.023-.004 0 .008-.203.105-.132.066l-.043.024c.066-.043-.457.085.097-.051-.066.011-.082.008-.043-.004-.07.004-.062.043-.105.058 0-.015.004-.027.02-.039-.055.035-.079.07-.16.09 0-.008 0-.008.01-.008-.01.008-.023-.02-.023-.031.016.023.004.039-.035.031 0-.004.028-.039.032-.043-.079.035-.2.184-.122-.023l-.074.07c.051-.102.133-.187.164-.297-.015.113.043-.047.114-.172a.915.915 0 0 0 .035-.093c0 .004-.008.03.004.035.023-.074.058-.34-.051-.211.027-.028.168-.262.12-.106a.703.703 0 0 0 .138-.226c.004.031-.008.043.023.039.094.008.106-.406.14-.477-.011.047.352-.129.102-.125.102-.043.153-.039.184-.101-.129-.078.164-.125.004-.196.086-.062.11-.144.031-.199.113 0 .082-.078.05-.172.04.008.075 0 .106-.023a.43.43 0 0 0-.066-.098c.058.016.156.07.191.012-.015.023-.011.035.008.027.016-.02.02-.035-.004-.062.008 0 .047-.012.043-.008.024-.031.02-.067-.012-.11.07-.008.11-.05.114-.12a.286.286 0 0 1-.153.077c.125-.066.278-.304.075-.382.144-.04.203-.176.199-.305.105.055.105-.078.219-.102-.02-.035-.012-.035-.043-.074 0-.004.007-.008.011-.011 0 0 .032.027.035.027.016-.031.086-.328.047-.317.344-.253.852-.285 1.274-.398-.063.016-.032.043-.051.066m-3.125 2.332c-.031.09-.113.262-.156.278 0 .023.02.008.027.027a.238.238 0 0 0-.078.086c-.02.035.035-.078.035-.078-.027.066-.039.082-.035.047-.063.066.027.023.035.074 0-.008-.047-.027-.039-.04.004.013.027.032.04.04-.013 0-.017.004-.013.004-.023-.004-.015-.004-.035-.008.024.008-.047.078-.043.078.008-.027.016-.05.02-.078-.02.05-.149.184-.106.188-.054.05-.078.109-.11.164-.023.039-.073.097-.015.113-.035.004.008.023-.023.039.015-.008.02-.02.031-.008-.055.05-.039-.008-.082.098-.02-.004-.02.027-.02-.02.004-.047-.003.035-.007.043-.032-.012-.024-.039.015-.078 0 .027 0 .016.004-.031-.015.027-.117.23-.113.246a.41.41 0 0 0-.098.078c-.242-.363-.383-.836-.535-1.223-.02.012-.035.024-.055.032.145-.047.016-.352-.097-.336.082-.055-.188-.512-.176-.52.043.078-.004-.055 0-.043-.012.04-.012.086-.027.121-.024-.023-.043-.047-.067-.074.094-.035.125-.043.051-.145.004.012.004.028.008.043-.059-.078-.031-.19-.133-.28.059-.016.02-.024.047-.079.008 0 .016.008.031.04-.015-.028.024.003.016.01.035.009.164-.038.199-.054.004-.004-.031-.039-.023-.015.011-.028.093-.043.101-.047-.016.004-.02 0-.02-.016.04-.008.106.008.137.012a3.584 3.584 0 0 1-.23.094c.101-.024.14-.055.226-.067-.046-.012.094-.035.11-.039-.04.008-.082-.004-.121-.008 0 0 .308-.055.347-.066.188-.043.286-.055.489-.118-.012.016.047-.023.074-.03-.02.034.101-.02.074-.012.137-.012.25-.082.438-.09-.004-.012-.012-.016-.024-.012.043-.043.195-.066.238-.035-.05-.035.055.016-.066-.02-.012-.015.11-.039.059-.008.07-.023.27-.113.328-.07-.008-.012-.024-.012-.04 0 .005 0 .188-.05.215-.055-.019.008-.035.008-.046-.011.086-.02.101-.028.046-.02.051-.015.145-.058.063.008.047-.027.156-.027.2-.058-.02.011-.04.02-.055.03.035-.007.14-.05.156-.03.004.008.008-.043.012-.004.011-.028.03-.051.062-.059a.767.767 0 0 0-.137.242c-.02.016-.398.531-.39.64.007 0 .004-.019.02-.015-.005.012-.024.024-.013.035a.18.18 0 0 0-.02-.008c-.01-.039-.124.172-.108.086-.11.051-.184.336-.247.453-.062.114-.292.328-.175.426-.032.016-.16.11-.176.133m-1.898-2.21a.273.273 0 0 1-.067.022c-.113.02-.258.082-.332-.187-.012.012-.016.023-.004.043-.062-.074-.156-.305-.14-.398-.016.101-.004-.133.011.109.035-.067-.25-.492-.222-.598-.047-.07-.032-.093-.067-.176.024.028.028.055.008.079a.8.8 0 0 1-.05-.122c-.005-.008.01.047.007.047-.023-.03-.035-.12-.047-.16-.004-.004 0-.004-.004-.008.016.02.031.043.043.067-.043-.106-.078-.211-.129-.313.032.024.051.055.051.094 0-.059-.05-.133-.074-.188.012.004.02.012.027.024-.012-.024-.054-.14-.023-.043-.051-.043-.164-.258-.125-.207-.028-.059-.078-.137-.102-.18.012.012.012-.008.016.004h.004s0-.004.004-.004c-.008-.004-.008-.008-.016-.031.02.004.02.008.031.008-.062-.055-.082-.121-.117-.207l.02.039c-.047-.117-.04-.086.023-.156-.027-.016-.05-.008-.07.027v-.008c.02-.215.265.05.226-.188.067-.027.16-.093.176-.14 0-.043.04-.04.094-.059-.008.004-.051.016-.055.02.074-.012.39-.106.371-.137.031.016.004 0 .024.023-.008-.011.023.043-.036-.05.008.008.032.03.004.004.008.004.012.011.02.02-.008-.013-.004-.009.012.01-.008-.01-.043-.042-.008-.01l-.035-.036.007.004c.016.008.036.031.047.043l-.054-.047c.004-.004.011.004.004-.004 0 0 .02.02.023.02-.004 0-.008-.009-.004-.005l-.016-.015c.118.086.66-.457.81-.34.124.004.167-.055.284-.086.153-.047.196-.058.246-.09.297.16.778-.058 1.118.059-.024-.016-.047-.035-.07-.05.085.081.128-.013.124-.009a.03.03 0 0 1 .008-.015c.004.008.008.008.004 0 0 .004-.004.015-.008.027-.004 0 .024-.031 0 .004.012-.035 0-.004.008-.02v.016c0-.016-.004-.008.004-.027l.008.039c-.008.004-.004-.024-.012-.02.008.031.004.012 0 .008 0 0 .008.008.008.012l-.008-.012c0 .016.008 0-.004.008.012.04.02.031.023.043.125.024.223.055.352.082-.063.016-.113-.023-.168-.039.047.016.27.05.27.05-.079.04.043-.05.046-.05-.05.156.282.219.403.274.148.07.629.386.715.285.066.136.168.199.246.324.023-.023.043-.05.066-.074.02.02-.113.078-.02.14.055.036.141.04.2.055.031.008.11-.004.12 0 .06.008.095.168.165.07-.043.075-.078.149-.117.223.054.055-.09.215-.098.293-.129.02-.328.562-.379.672.008-.008.055 0 .051.015-.207 0-.184.32-.426.383h.078c-.136.035-.273.008-.425.047-.137.04-.239.137-.403.133.055-.004.047-.02.11-.031-.082.008-.223.035-.25.027-.012.031-.012.027-.055.031.086.004-.246.047-.04 0-.128-.008-.292.047-.413.078.133-.004-.227.082.09 0-.13.02.039-.004.05-.02-.011.016-.078.036.012.016-.05.016-.156.04-.187.04-.063 0-.008.078-.051.09-.031-.114.055-.133.14-.149-.109.012-.16.004-.144.14-.008-.019-.016-.019-.031-.011.007 0 .011.004.02.008-.048.008 0 .016-.044.023-.043-.011-.039-.015-.09.004-.011-.054-.02-.093-.074-.082.078.004-.18.059-.176.059a1.2 1.2 0 0 1 .172-.012c-.035.051-.414.074-.441.09-.106-.02-.27.023-.29.098-.019-.008-.015-.024-.034-.02.015-.027.027-.054.039-.082-.207.059-.399.121-.606.168.016 0 .028 0 .047-.004-.008.004-.129.031-.121.031-.035.008 0 0-.059.008.063-.05-.132.028-.16.032.074-.024-.086.004-.09.008m.043 3.785s-.035-.028-.035-.031c-.012.023-.097.011-.094.011-.023-.008-.195-.074-.168-.062-.12-.04-.085-.004-.105-.074-.035.004.05.047-.031.011.011-.008.023-.015.027-.02-.172.016-.48-.362-.555-.359-.015-.062-.222-.168-.285-.222-.152-.125-.375-.39-.5-.547.012.027.04.043.055.066a.568.568 0 0 1-.152-.207c.02.012.035.028.05.04-.062-.098-.277-.536-.316-.5.039-.07-.102-.169-.086-.239.035.012.004-.015.016-.012.226.036.699-.156.933-.21.004 0 .215-.063.239-.06.207.032.035-.034.148.102.035.047.086.29.121.301-.012-.027-.21-.25.016.117 0-.008 0-.02.004-.03.046.073.078.23.144.331-.012-.011-.023-.023-.031-.039.004.04.062.18.043.13-.024.077.039.085.09.073-.16.07.078.07.168.074-.059.067-.067.079-.137.133.012.02.031.024.059.02-.04.043.078.097.148.14-.258.207.117.262.21.473-.042-.062-.151-.137-.132.004l-.055-.023c.016.074.008.113.012.23.02.012.04-.004.047 0 .008.031-.008.063.004.11.008-.012.008-.032.012-.047.011.023.004.011.004.023 0 .004.023-.004.02 0-.005-.012-.017-.02-.017-.035.043-.031 0 .078.004.074a.08.08 0 0 0-.011-.02c0 .004 0 .004-.004.004.011 0 0 .024 0 .028.011-.012 0 .008.02.035-.016-.023-.012-.043.003-.059 0 .004.004.047-.004.012 0 0-.004.02-.004.008-.004.012.063.102.07.14-.003-.038.02-.05.032.02.027-.027-.027-.02.004.02-.004 0 0-.008-.004 0 0 .004 0-.012.004-.004a.14.14 0 0 1-.035-.02c.007.02.058.059.054.09m-2.285-3.348c-.055.012.055.036.031.028 0-.004-.277.125-.277 0 .004.02 0 .027-.02.03 0-.007-.039-.14.008-.077 0 0-.015-.137-.02-.137.02 0 .028.012.028.035.004-.035-.016-.11.004-.117-.035 0-.043-.098-.031-.078.008-.094-.016-.14.031-.191-.012-.012-.031.004-.023-.028.007.008.023.02.03.028.009-.028-.003-.04-.03-.028.023-.105.12-.375.105-.508.063-.02.176-.226.148-.257-.019-.121.325-.645.31-.72-.024.005-.032-.007-.04-.015.016-.011.059.016.078.02-.012-.004.02-.047.004-.031-.008-.008-.012-.016 0-.028.008-.023-.02.055-.023.051a.32.32 0 0 0 .039-.07c.004.011-.012.05-.012.058.02-.015.047-.074.066-.105.02.035 0 0-.007.015.02.04.144.141.101.196-.008.11.04.222.09.262-.063.082-.012.062.023.113.036.011.164.508.192.57 0-.012.039-.039.047-.027-.11.117-.032.168.097.242-.043-.004-.086.02-.129.02.059.07.114.14.149.218a.268.268 0 0 1-.031-.039c.015.11.046.129.039.145-.008.05.03.117.05.16.008-.004.016-.008.024 0 0-.004-.031-.047-.04-.043.016.004.02 0 .02-.016 0-.004.067.121.067.086.015.035-.028-.016 0 .047a.359.359 0 0 1-.09-.082c.008.023.047.027.047.05-.016-.015-.043.02.043.032-.09-.094-.426.125-.531.105-.028-.011-.27.032-.434.051a.021.021 0 0 0 .02.012c-.02.023-.165.059-.153.023m6.707-1.438c.024-.015-.004.082.008.074-.023-.008.246-.504.274-.535 0 .016.011.031.03.04.005-.016-.03-.04-.027-.063-.011.011.204.52.223.582-.2.039-.402.074-.605.113a1.3 1.3 0 0 1 .097-.21m1.95.343c.199-.067.3-.094.445-.168-.445.062.394-.227-.024-.254.098-.043-.199-.012-.25-.012-.015-.011-.105-.02.004-.078-.148-.023-.312.016-.554.07v-.011c.062-.012.125-.027.187-.043-.062.008-.125.02-.187.035.004-.094-.079-.266-.11-.371.016.039.031.078.043.113-.023-.098-.066-.277-.156-.328 0-.031.09.137.07.086a.82.82 0 0 0-.07-.082c0 .02.02.055-.008-.004 0 .004.012.05.004.062 0-.027-.027-.05-.031-.082.008.016.008.012 0-.011.004.008.008.011.012.02-.043-.188-.165-.364-.262-.536.023.04.047.074.07.11-.058-.102-.129-.18-.18-.278-.109-.219-.113-.23-.007-.437.125-.254.254-.504.379-.754l-.06.133c.528-1.079 1.04-2.207 1.7-3.196a.206.206 0 0 0-.043.016.465.465 0 0 1 .031-.063c-.039.036-.101.043-.144.07.012-.027-.031-.14-.027-.183-.332.656-.551 1.098-.95 1.66.078-.117-.027.008-.05.043-.047.086-.07.203-.125.285-.032.051-.086.055-.102.079-.078.113-.137.253-.223.394-.12-.086-.234.266-.289.375l.02-.008a.106.106 0 0 1-.086.05c-.05.044-.02.048-.074.048-.012.031-.149.398-.102.402-.008.004.04-.039.035-.035-.011.008-.015.039-.015.039-.028 0-.086-.02-.114-.027 0-.004.02.03-.015.05l-.004-.054c-.024.047-.008.05-.043.093.05.024.039.047.086.07-.035.02-.102.094-.14.102.003.012.019.004.015.02-.09.004-.016.055-.004.086a.596.596 0 0 1-.086.09c-.078-.067-.059-.063-.063-.118-.003 0-.03.012-.027.016.027-.016.012-.02.031-.02a.455.455 0 0 0-.16-.054c-.004-.07-.066-.13-.12-.192-.02.024-.044-.035-.009.051-.027-.058-.258-.2-.3-.222-.07-.04-.063-.13-.204-.07.012-.188-.113-.165-.261-.208.035-.062.027-.05.03-.094-.151.047-.19-.101-.296-.058.004-.133-.105-.086-.133-.18a.602.602 0 0 1-.113.242.582.582 0 0 1-.04-.246c.009.055-.151-.062-.085-.043.043.024-.18-.066-.309-.113.067-.004.13-.008.196-.004-.125-.05-.192-.129-.278-.027-.015-.137-.152-.094-.238-.121l-.644-.106.035.016c-.012.015-.028 0-.043 0 .015 0 .031.011.031.023-.09-.023-.117-.055-.152-.004 0-.004 0-.004-.004 0-.032-.074-.078-.074-.157-.086-.027-.008-.097.02-.156.024l-.293.035c-.078.012-.203.172-.199.035-.043.106-.164-.086-.316-.02-.004-.03-.102.055-.125.067-.118.066-.164.05-.157.168-.039-.106-.27-.234-.406-.07-.012.011-.004.168-.023.238-.067-.063-.067-.117-.168-.129-.059.062-.282.066-.36.098-.074.027-.027.015-.074.03a4.05 4.05 0 0 1-.25.083c-.215.07-.515.25-.578.308-.102.079-.172.176-.277.258-.137-.347-.243-.582-.371-.953.007.012.015.027.027.04-.063-.184-.16-.348-.234-.528-.012.004.07.21.07.238-.027-.144-.16-.32-.11-.375-.078-.203-.171-.402-.253-.605.05.136.117.27.164.41a6.403 6.403 0 0 0 .066.137c0 .03.012.05-.008.082-.011-.028.008-.051.008-.082-.008.02-.012.039-.02.062-.058-.148-.097-.367-.183-.492.02.035.039.074.058.113-.101-.215-.175-.437-.261-.66.015.031.027.063.043.094-.063-.168-.117-.285-.215-.387.09.02.14.121.16.219-.082-.211-.219-.274-.398-.426.023.05.02.113.035.164a.938.938 0 0 0-.055-.012c.004 0 .059.028.059.028-.012-.004-.028-.004-.043-.008.043.066.105.257.18.21-.028.094-.055.176-.02.223a.2.2 0 0 1-.067.016c.137.27.188.535.243.8.066.294.23.622.261.919l.047-.055c.012.008.02.012.028.02-.153.058.082.757.132.902 0 0 .004 0 .004.004l.016-.04c.016.024-.004.07-.008.098a.575.575 0 0 1-.066-.039c.086.2.183.317.11.504-.044.113-.138.14-.177.215-.015.02-.07.281-.105.383-.055-.035-.117-.094-.102.015-.043-.035-.215.157-.261.29-.036.105-.024.175-.047.226-.028.055-.063 0-.102.086-.043.094.012.144-.004.242-.265-.074-.015.734-.254.781.047.075.043.145.106.203-.02.09-.09-.195 0 .063-.242-.012-.219.098-.238.32-.016.184.035.403 0 .575-.075.34.132.07-.114.203-.101.058-.304.066-.426.09-.234.046-.578.035-.78.144-.204.113-.212.293-.266.477a.162.162 0 0 1 .156.078c-.274.12-.18.379-.32.562.097.04.19-.012.304-.039-.062.063-.148.133-.144.234.11-.004.558.04.62-.113-.003.012-.003.024-.003.04.043-.071.168-.278.152-.079.082-.172.106-.039.125.063.098-.024.332-.215.367-.29.051.063.032.106.028.215.117-.023.332-.105.457-.101.191.004.062-.07.207.129.047.062.004.015.09.027-.184.152.53 1.024.683 1.207.04.043 1.168 1.078 1.203 1.008-.054-.031-.101-.05-.152-.078a4.7 4.7 0 0 0 1.031.512c-.082-.036-.164-.07-.25-.106.102.035.399.172.418.176.11.023.313.023.402.094.075.058-.027.23.13.199-.122.097.222.71.23.86-.012-.036-.02-.075-.027-.11.039.054.062.156.093.234.008-.008.051.004.059-.004 0 .086-.067.145.004.293-.012-.027-.02-.062-.028-.094.075.094.133.13.247.239-.102-.2.109-.696.292-.813-.035.024-.03.016.004-.031-.004.02-.015.031-.027.035-.004-.02.043-.097.059-.125.023.051.011.09-.036.121.063-.039.086-.144.149-.222h-.004a.435.435 0 0 0-.105.195.407.407 0 0 0-.004-.102c0 .008-.004.004-.004 0 .008.016-.02.07-.024.082.004-.011 0-.129.024-.082 0 0 .097-.105.086-.117.02.016 0 .004 0 .028.043.085.007-.024.011-.016-.003 0 0 0 .004.004-.02-.012-.027-.043-.039-.05.11.042.164-.173.211-.274l.024.054c.03-.066.066-.132.097-.199.051.04.223-.004.336-.015a.37.37 0 0 1-.133 0c.047-.012.137-.036.18-.032a1.712 1.712 0 0 1-.277.028c.152-.02.308-.067.383-.086-.012.047-.118.09.003.058-.113.043-.25.051-.375.067.196-.02.348-.063.524-.098-.031-.012-.004-.027-.066-.016.019-.03.019-.008-.004-.035.007 0 .039-.011.03.004a.109.109 0 0 1 .028-.03v-.005c0 .004.047.09.055.102.125-.102.402-.09.582-.16a.408.408 0 0 1-.098.03c.192-.07.477-.288.664-.331-.207.09-.394.191-.61.265.114-.066.24-.082.353-.14 0 .004.296-.137.343-.176.117.039.274-.113.403-.195-.07.039.027-.02.046-.04a.116.116 0 0 1-.023.02c.031.004.066-.02.11-.02-.008.004-.012.008-.02.008.008 0 .066-.019.023-.008.07-.03.29-.253.313-.246.07-.023.344-.164.344-.246.043-.062.066-.078.086-.152-.012.02-.024.039-.043.059.003-.02.003-.028.023-.043 0-.004.012-.06.004-.047.016.02.031-.008.016.03-.028.075.19-.093.136-.105-.066.094-.058.082-.129.086 0 0 .137-.023.082-.133.016-.004.16-.132.16-.132.028-.028.02-.032.008-.067 0 .024.07-.172.024-.008.062-.144.25-.277.328-.375.055-.07.055-.195.113-.297.102.012.074-.12.168-.144.004-.149.117-.551.25-.64-.02-.013-.035-.009-.05.023.042-.032.034-.047.015-.07.008-.005.07-.169.082-.184a.41.41 0 0 0-.016.066c.008-.05.024-.074.04-.113-.024-.012.007-.004-.032-.07.012.019.016.043.016.066 0-.004-.02-.012-.028-.008 0-.035-.007-.098.024-.106-.027.008-.004-.011-.008-.043.027.024.004.059-.004.09.028-.043.02-.043.02-.07.004.012 0 .023.015.016.004-.063.055-.16.032-.235.015.051-.024.156-.086.145.015-.078.132-.012.043-.184.035.024.023.059.027.094 0-.027-.023-.117-.02-.121.063.035.036.11.036.168.039 0-.004-.157-.032-.172.078-.012.043-.098.047-.117.004.027-.004.062.004.015.008.02.004.031-.008.035-.007-.066.078-.215-.011-.207-.008-.082.011-.16.074-.183-.004-.012-.016-.012.015-.004-.023-.047-.015-.121-.015-.137 0 0 .015.016.015.012-.05-.043-.027-.422-.027-.473.016.137-.05-.367.004-.145-.008-.054-.016-.25-.047-.296.016.023.016.199.024.234.003-.086-.106-.293-.028-.367.07-.07.2.09.239-.067"/></g></svg>