<?xml version="1.0" encoding="UTF-8"?>
<svg id="uuid-079e8208-690c-4c7a-81e4-e8646b04a1c3" xmlns="http://www.w3.org/2000/svg" viewBox="0 0 500 500">
	<defs>
		<style>
			.uuid-883db5d0-64fe-443f-b323-fa98dfe99792{fill-rule:evenodd;}
		</style>
	</defs>
	<path class="uuid-883db5d0-64fe-443f-b323-fa98dfe99792" d="M357.13,107.9c.14,.67,.47,1.2,1.18,1.78,3.44,2.82,6.78,5.77,9.99,8.86,29.5,28.38,47.91,67.68,51.66,108.61,.11,1.22,.11,1.98-.35,2.64-.56,.79-1.78,.62-1.78,.62,0,0-11.16-1.88-13.76-2.3-.97-.16,.37-1.76-.5-1.9-.76-.12-2.86,1.47-3.6,1.35-.72-.12-2.17-.34-2.17-.34,0,0-1.21-.17-1.87-1.11-.45-.63-.61-1.57-.75-2.72-1.95-16.38-6.66-31.99-14.15-47-3.25-6.51-7-12.76-11.2-18.68-.58-.82,4.14-3.35,3.55-4.15-.46-.63-6.23,.48-6.7-.14-5.94-7.77-12.66-14.94-20.02-21.4-.65-.57-1.44-.74-1.95-.67-.5,.06-1.08,1.06-1.08,1.06,0,0-4.21,8.2-5.71,11.12-1.1,2.14-2.64,6.23-2.64,6.23l-4.6,4.15-45.69,45.8s-.92,1.1-.99,1.57c-.06,.44,.16,.84,.58,1.21,10.93,9.68,17.71,23.81,17.67,39.27,0,.82,.18,1.61,.49,1.98,.31,.37,1.37,.24,1.37,.24,0,0,50.82-6.09,62.61-7.5,2.71-.32,8.04-2.03,8.04-2.03,0,0,4.66,1.95,6.96,2.4,20.86,4.08,118.3,23.14,118.3,23.14l-79.18,4.3s-.84,.11-1.13,.4c-.3,.29-.59,.79-.66,1.33-.06,.43-.12,.85-.19,1.28-6.51,43.19-30.6,83.44-65.29,110.15-.89,.69-1.69,.91-2.29,.82-.86-.13-1.28-1.37-1.28-1.37l-6.48-19.25s-.46-.98-.2-2.25c.15-.72,.82-1.4,1.53-1.98,15.6-12.88,27.02-28.08,36.21-46.49,6.28-12.59,10.63-26.09,13.01-39.94,.07-.42,.12-.72-.03-.92-.15-.2-.85-.27-.85-.27,0,0-10.84,.59-14.33,.78-2.21,.12-6.78,1.65-6.78,1.65,0,0-3.95-2.41-6-2.98-11.43-3.14-62.41-17.17-62.41-17.17,0,0-1.2-.21-1.54,.04-.33,.25-.38,.81-.48,1.47-1.99,13.07-8.76,24.4-18.35,32.34-.48,.39-.64,.91-.69,1.37-.04,.45,.43,1.36,.43,1.36,0,0,30.49,40.08,37.52,49.32,1.56,2.05,5.88,4.98,5.88,4.98,0,0,.17,5.17,.86,7.18,6.89,20.09,39.26,114.5,39.26,114.5,0,0-33.61-53.9-40.45-64.86-.19-.3-.34-.53-.59-.6-.25-.07-.61,.03-.94,.19-18.06,8.87-35.93,14.23-56.02,16.13-1.37,.13-1.36-.96-2.76-.86,0,0-.27,.05-.48-.15-.17-.17-.24-.62-.24-.62,0,0-1.48,.72-1.6,.12-.14-.71-.31-1.58-.39-1.99-.09-.47,1.24-.8,1.16-1.21-.07-.36-1.57-.93-1.64-1.28-.55-2.81-3.07-15.76-3.07-15.76,0,0-.13-.42,.09-.66,.14-.15,.34-.3,.64-.32,5.86-.39,9.91-1.84,15.87-2.92,12.15-2.2,23.95-6.02,35.11-11.25,.42-.2,.55-.56,.62-.88,.07-.32-.19-1.05-.19-1.05,0,0-6.93-11.12-9.03-14.48-1.18-1.9-4.89-4.55-4.89-4.55,0,0-.05-5.86-.74-8.21-.4-1.34-.95-3.23-1.63-5.52-.24-.82,.42-2.15,.15-3.06-.19-.63-1.3-.81-1.49-1.48-5.24-17.77-14.3-48.53-14.3-48.53,0,0-.36-.98-.69-1.13-.33-.15-.81-.06-1.3,.25-6.28,3.95-13.43,6.59-21.05,7.57-.56,.07-1.05,.16-1.31-.02-.26-.18-.26-1.06-.26-1.06,0,0,6.53-54.95,7.53-67.49,.09-1.06,2.81-5.2,2.89-6.2,.08-.96-1.41-.92-1.77-1.44-.25-.37-.4-1.68-.4-1.68l1.61-20.27s-.03-1.06,.2-1.28c.23-.22,.77-.15,1.19-.03,5.26,1.51,8.21,1.21,12.62,4.17,.56,.38,1.2,.74,1.63,.59,.43-.15,.94-1.5,.94-1.5,0,0,21.18-48.44,25.88-59.2,.78-1.79,1.73-6.11,1.73-6.11,0,0,3.84-2.98,5.45-4.85,13.88-16.09,78.42-90.93,78.42-90.93l-35.72,69.56s-.42,1.05-.19,2.18h0Zm-92.94-36.21c.32-.22,.95-.16,1.09-.15,21.66,1.9,42.02,7.92,61.37,17.64,.54,.27,1.04,.76,1.01,1.15-.03,.52-.54,1.15-.54,1.15l-13.22,17.14s-.57,.74-.96,.81c-.39,.07-.9-.17-1.4-.41-15.31-7.26-31.12-12.5-48.42-13.97-.12,0-.61-.12-.72-.25-.31-.36-.23-1.03-.23-1.03l1.49-21.29s.04-.44,.54-.78h0Z" />
	<path class="uuid-883db5d0-64fe-443f-b323-fa98dfe99792" d="M164.62,98.59c.43,.1,.68-.04,1.04-.24,15.94-9.03,29.71-14.73,48.73-17.83,.14-.02,.59-.11,.82,.05,.24,.16,.27,.57,.27,.57,0,0,.51,1.77,.71,2.48,.17,.6-1.06,1.4-.89,2,.21,.73,1.9,1.52,2.15,2.38,.8,2.79,4.07,14.17,4.07,14.17,0,0,.16,.65,.03,.84-.21,.31-.29,.39-.59,.44-14.93,2.45-26.75,7.41-39.96,14.31-.24,.13-.3,.26-.32,.45-.02,.18,.18,.64,.18,.64,0,0,6.81,8.33,9.09,11.12,1.53,1.87,5.52,4.13,5.52,4.13,0,0,.42,4.93,1.1,6.66,4.32,10.97,23.89,60.62,23.89,60.62,0,0,.41,.92,.78,1.04,.37,.12,.92,0,1.46-.3,3.24-1.73,2.82-1.43,6.43-2.46,1.16-.33,1.72,1.1,2.91,.85,.42-.09,1.65-1.53,2.45,.03,.13,.25,.83-.48,1.07-.31,.24,.17,.38,1.34,.38,1.34l5.23,97.04s.01,.92-.22,1.14c-.23,.22-.69,.27-1.17,.2-7.97-1.16-15.38-4.13-21.79-8.48-.46-.31-.95-.43-1.25-.36-.3,.07-.55,.77-.55,.77,0,0-16.45,50.34-20.14,61.64-.67,2.05-.7,6.9-.7,6.9,0,0-3.81,2.97-5.06,4.82-11.67,17.36-66.31,98.61-66.31,98.61l27.09-72.81s.23-.77,.12-1.16c-.11-.39-.38-.93-.8-1.21-19.78-13.62-36.78-31.29-49.31-51.93-2.72-4.48-5.22-9.09-7.49-13.81-.41-.85,1.34-2.45,.94-3.31-.31-.68-2.78-.63-3.08-1.31-5.17-11.62-9.01-23.81-11.49-36.29-.13-.64-.22-1.17,0-1.48,.22-.31,1.34-.37,1.34-.37l20.77,1.11s1.55,.19,2.1,.79c.49,.53,1.04,2.01,1.18,2.55,8.11,31.72,27.32,60.22,53.25,80.13,.58,.44,1.11,.69,1.51,.58,.39-.11,.84-1.26,.84-1.26,0,0,2.93-9.78,3.9-13.01,.63-2.11,.61-7.67,.61-7.67,0,0,4.2-2.14,5.66-3.88,7.68-9.14,41.71-49.65,41.71-49.65,0,0,.69-.73,.68-1.14-.01-.41-.35-.95-.75-1.31-3.84-3.39-7.18-7.33-9.89-11.71-.52-.84,3.46-8.4,.25-5.25-.71,.69-2.67,.93-3.09,.03-2.22-4.7-3.75-9.79-4.48-15.15-.07-.55-.19-1-.45-1.24-.42-.38-1.27-.06-1.27-.06,0,0-47.67,11.25-58.78,13.87-2.64,.62-7.85,3.44-7.85,3.44,0,0-5.67-2.03-8.48-2.25-2.31-.19-5.53-.45-9.44-.76-1.04-.08-1.18-1.61-2.32-1.7-.68-.05-2.33,1.33-3.04,1.27C69.53,265.09,0,259.47,0,259.47l74.82-12.59s1.05-.21,1.36-.63c.3-.41,.46-1.13,.47-1.86,.39-19.93,4.2-39.81,11.55-58.49,7.85-19.96,19.56-38.22,34.17-53.83,.29-.31,2.18-1.53,4.13-1.66,2.63-.16,5.5,.8,5.9,.38,.75-.77-6.45-2.44-5.69-3.2,3.08-3.06,6.27-6.01,9.56-8.83,.39-.33,.87-.41,1.19-.3,.32,.11,.73,.96,.73,.96,0,0,3.5,7.61,4.4,9.58,.14,.31-.38,.99-1.56,1.39-1.66,.55-4.16,.82-3.99,1.2,.26,.57,.06-1.17,4.11,.63,.24,.11,1.26-1.28,2.14-.83,.9,.46,1.66,2.76,1.78,3.01,.4,.87,1.72,3.74,1.72,3.74,0,0,.34,1.12,.3,1.62-.05,.5-.2,1.01-.57,1.36-3.61,3.45-5.91,6.69-9.38,10.65-21.48,24.53-34.07,56.36-35.93,88.96-.03,.58,.36,1,.64,1.24,.28,.24,1.05,.2,1.05,.2,0,0,10.61-1.79,14.49-2.44,2.94-.5,8.7-2.87,8.7-2.87,0,0,5.38,2.22,8.02,2.63,11.19,1.76,59.27,9.32,59.27,9.32,0,0,1.08,.18,1.37-.3,.22-.37,.33-.88,.34-1.6,.41-16.79,8.8-31.74,21.62-41.03,.51-.37,.8-.9,.82-1.34,.02-.44-.72-1.31-.72-1.31,0,0-35.75-38.57-43.75-47.2-1.42-1.53-5.22-3.74-5.22-3.74,0,0-.97-4.89-1.94-6.91-9.2-19.15-52.3-108.83-52.3-108.83l50.22,61.45s.37,.51,.81,.61h0Zm90.21,297.51c.39,.4,.34,2.02,.34,2.02l.89,19.23s-.07,.95-.89,1.79c-.53,.54-1.72,.67-1.87,.67-6.09,.21-16.8-.95-22.12-1.45-16.48-1.55-32.63-5.63-47.91-11.9-.82-.34-1.33-.83-1.54-1.3-.21-.47,.29-1.52,.29-1.52l10.96-16.22s1-1.43,1.7-1.68c.7-.25,1.65-.14,2.49,.18,17.71,6.61,36.74,10.29,55.66,9.8,.74-.02,1.6-.02,1.99,.38h0Z" />
</svg>
