<?xml version="1.0" encoding="UTF-8"?>
<svg width="500" height="500" version="1.1" viewBox="0 0 132.3 132.3" xmlns="http://www.w3.org/2000/svg" xmlns:cc="http://creativecommons.org/ns#" xmlns:dc="http://purl.org/dc/elements/1.1/" xmlns:rdf="http://www.w3.org/1999/02/22-rdf-syntax-ns#">
  <g transform="matrix(.3528 0 0 .3528 29.95 111.5)">
    <path d="m213-127.5c-0.9031 2.033-0.6435 11.95 1.115 13.57-2.347 1.386-2.472 8.234 0.1536 9.353-0.5777-0.0329-1.781 4e-3 -2.252-0.2413 0.2194 1.74-4.94 20.28-4.157 20.52 0.1572-0.3949 0.117-0.7386-0.1207-1.031-0.841 2.285-3.079 8.285-2.717 9.371-2.505 1.821-1.459 2.932-2.051 5.616-0.0329-0.3986-0.607-1.689-0.2304-2.059-0.2962 1.199-0.6508-1.719-0.6837-1.894-1.024 2.783-2.044 5.569-3.068 8.355 0.4351 0.106 0.8702 0.2084 1.305 0.3145-1.101 1.481-3.166 2.837-3.503 6.223-0.0987 0.3144 0.574-2.139 0.6326-1.708-0.0658 0.9214 0.0877 0.9141 0.4644-0.01825-2.176 6.589-0.1682-0.0035 0.2121 2.552-0.4205-0.3254-1.053-0.7496-1.302-0.3291 0.8848 0.0219-0.6801-0.9287-0.4132-0.7057-0.5594 1.616-1.755 2.49-2.512 4.837 0.5631-1.828 1.594-3.609 2.34-5.254-0.117 0.3693-0.3327 0.3437-0.6472-0.08041-0.7752 0.9726-2.055 4.19-2.453 5.605-0.2669 0.5814-0.4827 4.128-3.792 5.927-2.921 2.797-4.223 4.881-5.415 7.481-0.8227-0.3035 0.1426-0.2998-0.0219 0.04752-1.214-0.03658-0.5009-0.7934-1.77 0.8812 0.1316-0.4863-1.254 2.336-0.7386 1.572-0.724 0.8702 0.2816-0.3876-0.5558 0.8044-0.1134-0.9104-1.825 1.729-1.517 1.495-4.395 2.629-4.102 3.141-9.671 5.4 0.234 0.2815 0.5265 0.3108 0.8739 0.09136-0.4424 0.8812-1.773 0.7825-1.221 0.1426-0.4388 0.4717-0.3035 0.4205-1.349 0.234 0.234 0.3803 0.3474 0.2011 0.8044 0.2779-1.664 1.338 0.2303 0.0075-0.7313-0.0219 0.4241-0.0219-0.4497 1.199-0.4168 1.101 0.702-0.01461 0.1719-0.7459 0.6143 0.1755-0.9507 0.2304-0.1865-0.2084-1.433-0.1645 0.6545 0.7386-0.1645 0.5558-0.7605 0.7934 0.5631 0.2084 1.126 0.4132 1.689 0.6216-0.4241 0.3474-1.229 0.7459-1.806 1.327 0.2962-0.2998 0.6472-0.5155 1.06-0.6545 0.106-0.0146-1.207 1.433-1.188 1.43-0.3949 0.2998-8.457 3.733-9.631 3.338 0.4022 0.2304 0.8044 0.1426 1.199-0.2669-0.4753 0.7276-1.163 1.185-2.062 1.371 0.2267-0.06943 0.3985-0.03658 0.5228 0.09506 0.1499 0.03292-1.101 0.2633-0.9397 0.2194 0.0292 0.06213 0.1938 0.04022 0.1974 0.04022-0.3839-0.2267-0.0695 0.128-0.0915 0.1609-0.2267-0.1828-1.002-0.8958-1.364-1.441-4e-3 0.0035-0.1499 1.291-0.6545 1.755-0.0255-0.5412 0.3583-1.536 0.5265-1.876-1.572 1.664 0.362 1.642-2.154 2.592 1.477-0.4826 2.826-0.1463-0.7057 1.079 1.879-1.093-4.629 3.547-1.053-0.06944-1.985 1.367-2.212 0.9799-3.141 1.009 0.0585-0.06213-0.8483 1.163-1.382 1.528-0.4388 0.1938 1.452-1.572 1.481-1.645-0.0804 0.07311-0.1316 0.08415-0.1536 0.02921-0.8922 0.9397-2.889 1.865-3.485 1.331-0.1792-0.3912 0.8483-0.0804 0.702-0.03657 0 0.2486-5.762 2.929-3.766 1.817-0.351 0.2669-0.7313 0.4826-1.133 0.6435 1.781-1.159-12.89 2.508 2.72-1.331-1.898 0.2559-2.314 0.2121-1.251-0.1316-1.916 0.1024-1.693 1.21-2.91 1.602-0.0182-0.4278 0.139-0.7788 0.4717-1.057-1.514 0.9324-2.161 1.949-4.432 2.468-0.0695-0.1499 0.0329-0.2267 0.3035-0.223-0.3693 0.2194-0.6143-0.5448-0.6911-0.8885 0.4607 0.7532 0.128 1.071-0.9982 0.947 0.0366-0.09506 0.8739-1.141 0.9177-1.207-2.19 0.9178-5.558 5.112-3.389-0.7313-0.6984 0.6618-1.397 1.32-2.095 1.978 1.474-2.797 3.697-5.247 4.658-8.311-0.4168 3.199 1.166-1.247 3.152-4.779 0.0658-0.03293 0.9324-2.673 1.013-2.64-8e-3 0.09508-0.2267 0.83 0.128 0.947 0.574-2.022 1.609-9.503-1.506-5.898 0.7825-0.7861 4.764-7.353 3.4-2.907 1.664-1.905 2.936-4.044 3.814-6.417 0.1536 0.819-0.1938 1.166 0.724 1.119 2.574 0.1499 2.962-11.42 3.898-13.39-0.3364 1.309 9.858-3.569 2.845-3.554 2.859-1.123 4.296-1.042 5.243-2.856-3.719-2.197 4.541-3.477 8e-3 -5.466 2.45-1.737 3.06-4.029 0.969-5.583 3.144-0.01095 2.293-2.187 1.422-4.797 1.071 0.1865 2.048-0.04387 2.929-0.6801-0.5009-0.9982-1.137-1.901-1.905-2.709 1.686 0.4461 4.377 1.974 5.349 0.3437-0.34 0.6289-0.2523 0.8922 0.2596 0.7825 0.4351-0.5412 0.5521-1.06-0.0622-1.814 0.1572-0.01826 1.232-0.362 1.115-0.2304 0.7057-0.8483 0.5996-1.865-0.3181-3.042 2.07-0.2742 3.159-1.397 3.262-3.375-1.265 1.13-2.698 1.868-4.296 2.212 3.539-1.868 7.825-8.636 2.062-10.8 4.073-1.049 5.711-4.976 5.536-8.501 2.958 1.495 3.009-2.216 6.256-2.856-0.5558-1.013-0.4132-0.9799-1.294-2.095 0.0987-0.1133 0.2048-0.2633 0.3583-0.3181 0.0402 0.0109 0.9397 0.7167 1.013 0.6801 0.4095-0.819 2.34-9.134 1.338-8.819 9.543-7.148 23.87-7.993 35.67-11.14-1.744 0.4168-0.8922 1.17-1.364 1.836zm-87.76 65.39c-0.8702 2.534-3.192 7.433-4.318 7.854-0.0658 0.6691 0.5375 0.1316 0.7093 0.7057-0.9251 0.6179-1.671 1.433-2.23 2.446-0.5302 0.9324 0.9982-2.172 1.038-2.241-0.7825 1.872-1.119 2.307-1.009 1.298-1.759 1.909 0.8154 0.7496 0.9982 2.132-0.0513-0.223-1.276-0.7678-1.126-1.046 0.117 0.2962 0.8227 0.8922 1.126 1.046-0.3145 0.02921-0.4168 0.04387-0.3072 0.04752-0.0182 0.0035-0.0182 0.0035-4e-3 0-0.6691-0.0146-0.4095-0.03658-1.013-0.128 0.6289 0.1463-1.283 2.197-1.152 2.143 0.2377-0.7057 0.4132-1.43 0.5265-2.165-0.5448 1.415-4.19 5.108-3.035 5.283-1.466 1.386-2.172 3.057-3.024 4.592-0.6655 1.123-2.07 2.728-0.3912 3.199-1.006 0.0877 0.1828 0.585-0.6801 1.053 0.3766-0.245 0.5521-0.5594 0.8446-0.1901-1.492 1.448-1.035-0.223-2.307 2.739-0.5558-0.1609-0.5558 0.8154-0.5155-0.5631 0.1243-1.309-0.0695 0.9836-0.1901 1.152-0.8812-0.2852-0.7496-1.009 0.3985-2.172-4e-3 0.7569 0.0146 0.4717 0.0512-0.8519-0.3547 0.7752-3.221 6.486-3.145 6.892 0.0731-0.08415-2.197 1.419-2.742 2.223-6.815-10.26-10.72-23.45-15.03-34.28-0.5009 0.2852-0.9982 0.5667-1.495 0.8483 4.11-1.349 0.3766-9.902-2.79-9.415 2.362-1.598-5.17-14.42-4.911-14.54 1.203 2.135-0.128-1.642 0.01825-1.258-0.3291 1.049-0.3364 2.432-0.8008 3.433-0.5923-0.6911-1.185-1.386-1.777-2.08 2.549-1.079 3.419-1.232 1.408-4.154 0.06578 0.4168 0.128 0.83 0.1901 1.247-1.686-2.223-0.8848-5.393-3.722-7.85 1.693-0.4607 0.5302-0.7605 1.294-2.241 0.01095 0.1207 0.01095 0.117 0-0.0109 0.1974 0.0695 0.4205 0.2706 0.9178 1.086-0.4168-0.691 0.6728 0.1682 0.4241 0.3693 1.002 0.1755 4.629-1.108 5.572-1.58 0.1353-0.0146-0.8519-1.027-0.6508-0.3876 0.3693-0.7276 2.563-1.265 2.856-1.393-0.3949 0.1426-0.585 0.0292-0.574-0.3327 1.123-0.2779 2.973 0.2048 3.799 0.3254-1.536 0.7569-4.826 2.055-6.417 2.538 2.874-0.5887 3.945-1.444 6.329-1.825-1.247-0.3547 2.68-0.9251 3.101-1.02-1.057 0.1499-2.322-0.1938-3.353-0.2889-0.0219 0.0329 8.618-1.572 9.711-1.817 5.294-1.207 8.044-1.554 13.69-3.313-0.351 0.4022 1.316-0.7057 2.073-0.8483-0.574 0.8922 2.87-0.5814 2.132-0.4242 3.847-0.2998 6.998-2.289 12.25-2.428-0.0951-0.3291-0.3327-0.4644-0.7057-0.4022 1.221-1.203 5.536-1.817 6.757-0.9909-1.422-0.9616 1.474 0.5046-1.868-0.4826-0.351-0.4314 3.079-1.148 1.686-0.2815 1.901-0.6435 7.455-3.17 9.189-1.953-0.2852-0.3072-0.6435-0.3181-1.075-0.0255 0.0915 0.0915 5.236-1.364 6.022-1.528-0.6033 0.2925-1.038 0.1974-1.298-0.2815 2.333-0.5631 2.75-0.7678 1.254-0.6143 1.433-0.3547 4.029-1.634 1.7 0.2194 1.382-0.6947 4.443-0.7532 5.605-1.558-0.5265 0.2377-1.031 0.5119-1.521 0.819 1.075-0.1353 3.985-1.411 4.439-0.8812 0.0695 0.2669 0.1718-1.163 0.2852-0.1134 0.2962-0.7788 0.9507-1.397 1.733-1.601-1.536 1.715-2.918 4.285-3.814 6.812-0.5412 0.3766-11.2 14.87-10.91 17.95v-0.0329c0.1719 0.0366 0.0439-0.5265 0.5631-0.4315-0.1975 0.3912-0.6691 0.6362-0.3803 1.046-0.2669-0.1755-0.5046-0.2852-0.5521-0.2779-0.3181-1.108-3.532 4.889-3.057 2.399-3.057 1.448-5.112 9.496-6.943 12.79-1.726 3.112-8.212 9.174-4.911 11.92-0.8885 0.4095-4.432 3.028-4.94 3.697zm-53.3-61.99c-0.5887 0.2962-1.214 0.49-1.868 0.5741-3.104 0.6326-7.218 2.358-9.284-5.207-0.362 0.2925-0.4059 0.6764-0.1316 1.155-1.751-1.982-4.358-8.468-3.887-11.11-0.5082 2.863-0.1792-3.77 0.2779 3.071 0.9945-1.876-6.958-13.86-6.23-16.76-1.327-2.048-0.9104-2.731-1.909-5.035 0.7057 0.8081 0.8044 1.55 0.2925 2.219-0.5997-1.108-1.115-2.223-1.495-3.415-0.02921-0.1353 0.3693 1.349 0.2962 1.346-0.6691-0.8592-1.057-3.368-1.397-4.516-0.06578-0.1097-0.01095-0.1243-0.03658-0.2048 0.4534 0.596 0.8556 1.232 1.207 1.898-1.298-2.918-2.26-5.942-3.634-8.779 0.9031 0.6582 1.364 1.536 1.382 2.633 0.0035-1.634-1.4-3.689-2.062-5.335 0.3071 0.1828 0.5594 0.4241 0.7569 0.7276-0.2852-0.7057-1.481-3.993-0.607-1.225-1.43-1.236-4.585-7.167-3.536-5.762-0.7349-1.642-2.183-3.85-2.841-5.035 0.373 0.3144 0.3035-0.2486 0.4644 0.128 0.04022-0.0768 0.08041-0.0951 0.128-0.0549-0.03657-0.0548-0.0075-0.0915 0.08407-0.1097-0.2377-0.1645-0.234-0.2559-0.4863-0.8446 0.5411 0.0439 0.596 0.245 0.9543 0.2194-1.832-1.521-2.329-3.433-3.346-5.872 0.1938 0.3766 0.3912 0.7496 0.585 1.126-1.36-3.291-1.155-2.395 0.6728-4.406-0.83-0.4205-1.514-0.1426-2.051 0.8337 0.02556 3.499 0.0219-0.2669 0.01825-0.2633 0.4936-6.04 7.422 1.444 6.358-5.262 1.927-0.8227 4.505-2.585 4.98-3.938-0.03293-1.174 1.024-1.097 2.552-1.649-0.1865 0.0768-1.404 0.4571-1.441 0.5814 2.029-0.3218 10.96-3.049 10.34-3.832 0.8556 0.4205 0.117-0.0219 0.6728 0.5996-0.2523-0.3218 0.6728 1.287-1.013-1.349 0.2377 0.1865 0.8812 0.841 0.1609 0.0841 0.1828 0.1353 0.3474 0.2925 0.4863 0.4717-0.1828-0.2888-0.04387-0.1792 0.4168 0.3291-0.2962-0.3327-1.21-1.199-0.2523-0.2779-0.3876-0.3218-0.6362-0.6984-0.9909-1.035-0.0075 4e-3 0.3949 0.3181 0.1792 0.106 0.4461 0.2889 0.9909 0.8995 1.327 1.291-0.947-0.8739-0.1243-0.1646-1.455-1.419 0.04387-0.0146 0.2706 0.223 0.02921-0.0109 0.0075-4e-3 0.6106 0.479 0.6289 0.5009-0.01095-0.0146-0.128-0.1645-0.08406-0.1024 0.01095 8e-3 -0.4534-0.4278-0.3876-0.4461 3.272 2.453 18.51-12.76 22.68-9.521 3.459 0.0439 4.655-1.503 7.982-2.468 4.274-1.24 5.51-1.598 6.94-2.428 8.304 4.468 21.76-1.718 31.3 1.627-0.6545-0.4863-1.305-0.9762-1.956-1.47 2.402 2.285 3.634-0.256 3.532-0.1609 4e-3 -0.1792 0.0695-0.34 0.1974-0.479 0.0768 0.1865 0.234 0.2596 0.1755 0.0219 0 0.128-0.1755 0.4607-0.2888 0.7386-0.0402 0.0255 0.7167-0.8446 8e-3 0.0768 0.3437-0.9214 0.0439-0.1097 0.1828-0.4863 8e-3 -4e-3 0.0915 0.3364 0.0987 0.3583-0.0439-0.3254-0.1719-0.1718 0.0109-0.6545 0.0915 0.362 0.1865 0.7276 0.2815 1.09-0.1792 0.0182-0.1682-0.6984-0.2962-0.5704 0.2376 0.8848 0.0768 0.3364 4e-3 0.1353-0.0219 0.0695 0.1207 0.3144 0.1353 0.3839-0.0109 0.0255-0.1646-0.3474-0.139-0.3803-0.0255 0.5302 0.223 0.0622-0.1719 0.2779 0.351 1.071 0.5485 0.819 0.7386 1.24 3.474 0.6289 6.132 1.499 9.774 2.249-1.697 0.4826-3.17-0.6106-4.728-1.064 1.309 0.4461 7.569 1.4 7.558 1.389-2.165 1.13 1.316-1.353 1.375-1.371-1.378 4.318 7.85 6.062 11.25 7.66 4.241 1.993 17.68 10.83 20.11 8.037 1.861 3.719 4.691 5.569 6.856 9.035 0.6435-0.6947 1.287-1.393 1.927-2.088 0.5192 0.5448-3.225 2.179-0.5594 3.945 1.554 1.024 3.953 1.082 5.62 1.554 0.8775 0.2486 3.046-0.117 3.386-0.0548 1.569 0.2779 2.614 4.815 4.545 2.055-1.123 2.044-2.194 4.121-3.207 6.223 1.514 1.598-2.53 6.066-2.804 8.201-3.569 0.5485-9.192 15.81-10.6 18.83 0.1609-0.2084 1.532 0.0695 1.43 0.5082-5.828 4e-3 -5.174 8.995-11.96 10.67 0.7276 0.0182 1.455 0.0329 2.183 0.0475-3.806 0.9982-7.708 0.1718-11.93 1.342-3.879 1.075-6.691 3.806-11.34 3.759 1.591-0.2194 1.364-0.6691 3.119-0.8922-2.333 0.1645-6.271 0.9433-6.976 0.6947-0.3876 0.9287-0.4424 0.8154-1.569 0.9543 2.432 0.0366-6.973 1.313-1.123 0-3.605-0.2413-8.205 1.247-11.66 2.143 3.817-0.1499-6.293 2.238 2.585 0.0475-3.62 0.5156 1.06-0.2011 1.422-0.6216-0.4095 0.4717-2.267 1.06 0.2413 0.4607-1.4 0.3949-4.304 1.086-5.192 1.09-1.81 8e-3 -0.2048 2.212-1.466 2.512-0.8044-3.221 1.536-3.737 4.029-4.179-3.163 0.34-4.545 0.139-4.113 3.96-0.1901-0.4863-0.479-0.574-0.8629-0.2633 0.1865 0 0.362 0.0439 0.5265 0.1316-1.272 0.2706-0.0146 0.457-1.214 0.6837-1.163-0.2669-1.038-0.3803-2.512 0.1243-0.3254-1.543-0.5375-2.614-2.143-2.282 2.256 0.106-5.013 1.601-4.881 1.576 1.602-0.1609 3.207-0.256 4.815-0.2852-0.9141 1.408-11.55 2.029-12.39 2.559-2.973-0.5814-7.58 0.6216-8.103 2.695-0.5192-0.2194-0.4278-0.6837-0.9433-0.479 0.3583-0.7861 0.7166-1.569 1.075-2.355-5.773 1.631-11.14 3.455-17.03 4.702 0.4278-0.0219 0.8593-0.0439 1.291-0.0658-0.1316 0.0255-3.528 0.8739-3.397 0.8446-0.9872 0.2267 0.0035-0.0182-1.609 0.2304 1.77-1.492-3.74 0.7569-4.435 0.8629 2.055-0.6399-2.45 0.0658-2.6 0.245zm1.276 106.2c-0.07311 0.0075-1.075-0.7642-1.071-0.8519-0.2596 0.6947-2.684 0.3327-2.545 0.2889-0.7459-0.1938-5.47-2.044-4.709-1.697-3.397-1.17-2.468-0.1645-3.009-2.048-0.9982 0.03658 1.415 1.261-0.9031 0.2742 0.3474-0.2267 0.6618-0.4607 0.8593-0.5996-4.874 0.4461-13.48-10.16-15.65-10.06-0.3839-1.711-6.238-4.695-7.964-6.165-4.249-3.613-10.55-11.05-14.04-15.46 0.3181 0.841 1.064 1.225 1.536 1.934-1.411-1.057-3.02-3.375-4.223-5.821 0.4936 0.3364 0.9616 0.702 1.408 1.104-1.795-2.808-7.843-15.04-8.922-14.01 1.068-1.982-2.837-4.794-2.457-6.764 1.053 0.3364 0.1645-0.3437 0.5046-0.2925 6.373 0.947 19.64-4.366 26.18-5.909 0.1389-0.0292 5.993-1.762 6.746-1.656 5.814 0.8227 0.9872-0.9543 4.062 2.867 1.082 1.342 2.417 8.132 3.4 8.373-0.2523-0.6618-5.861-7.024 0.5192 3.397 0.01095-0.3254 0.0219-0.6508 0.03293-0.9763 1.415 2.139 2.285 6.479 4.066 9.401-0.2998-0.3583-0.5704-0.7386-0.8154-1.137 0.1243 1.104 1.77 5.104 1.152 3.569-0.5777 2.282 1.155 2.486 2.585 2.139-4.578 1.942 2.179 1.945 4.655 2.095-1.631 1.839-1.898 2.157-3.843 3.726 0.3473 0.5229 0.9214 0.702 1.729 0.5338-1.181 1.192 2.135 2.728 4.113 3.989-7.229 5.825 3.313 7.247 5.869 13.26-1.166-1.773-4.219-3.894-3.7 0.06578-0.5192-0.2084-1.035-0.4315-1.543-0.6655 0.479 2.066 0.2413 3.229 0.3218 6.428 0.5887 0.3693 1.112-0.09873 1.353-0.0075 0.223 0.9616-0.2669 1.843 0.06943 3.09 0.2742-0.3071 0.234-0.8995 0.351-1.265 0.2962 0.6691 0.1463 0.351 0.106 0.6545 0.06214 0.1353 0.6874-0.1133 0.5631-0.04752-0.1097-0.3437-0.4095-0.5119-0.4095-0.936 1.236-0.8885-0.06213 2.154 0.03658 2.007-0.0877-0.128-0.1389-0.3803-0.2523-0.4424 0.0035 0.0804-0.03657 0.117-0.128 0.1024 0.3437-0.06943 0.01461 0.6216-0.06943 0.7678 0.3985-0.3949 0.09507 0.1975 0.585 0.9178-0.4534-0.5594-0.2486-1.163 0.1389-1.594 0.01095 0.07675 0.06577 1.25-0.1682 0.34 0.01825-0.07311-0.09506 0.5631-0.1024 0.2157-0.09872 0.2888 1.773 2.815 2.022 3.974-0.1426-1.148 0.5412-1.481 0.8666 0.4497 0.8044-0.6947-0.7532-0.4424 0.05847 0.6362-0.02556-0.08415 0.01825-0.2048-0.01826-0.0075v0.0035c0.0075 0.07311-0.0219-0.3656 0.02921-0.1207-0.1097-0.04753-1.082-0.5667-0.9653-0.5558 0.256 0.5155 1.671 1.678 1.583 2.483zm-64.18-93.95c-1.539 0.3766 1.543 1.02 0.9324 0.7569-0.05848-0.0804-7.766 3.591-7.777 8e-3 0.08406 0.5155-0.09507 0.8117-0.5375 0.8922-0.06943-0.1719-1.104-3.975 0.2194-2.135-0.02555-0.0622-0.4388-3.89-0.5558-3.887 0.4863-0.0366 0.7093 0.2742 0.6728 0.9324 0.1024-0.9032-0.3583-3.042 0.1024-3.207-0.8995 4e-3 -1.13-2.779-0.8702-2.267 0.2486-2.636-0.373-3.92 0.9763-5.265-0.3108-0.3876-0.9397 0.0768-0.6874-0.8081 0.223 0.1938 0.6399 0.5009 0.8519 0.7752 0.2011-0.852-0.07676-1.13-0.841-0.8264 0.6216-2.881 3.335-10.5 2.929-14.19 1.74-0.6179 4.885-6.417 4.223-7.298-0.6472-3.349 9.039-18.06 8.549-20.17-0.5485 0.1828-0.8081-0.1645-1.071-0.4022 0.4278-0.2925 1.649 0.3803 2.165 0.5521-0.2523-0.0841 0.5814-1.349 0.2194-0.8849-0.2962-0.1645-0.3181-0.4168-0.06943-0.7642 0.2157-0.6435-0.5192 1.484-0.6691 1.452 0.2194-0.117 1.075-1.861 1.17-2.018 0.03292 0.3693-0.3839 1.404-0.3291 1.667 0.5448-0.4132 1.291-2.124 1.784-2.991 0.5485 0.9616 0.0146-0.0109-0.1938 0.4497 0.5119 1.108 4.11 3.905 2.841 5.485-0.1316 3.068 1.064 6.216 2.545 7.346-1.7 2.351-0.3437 1.788 0.702 3.148 0.947 0.3839 4.574 14.26 5.298 15.99-0.0219-0.3474 1.068-1.086 1.316-0.7276-3.009 3.335-0.8629 4.709 2.804 6.768-1.177-0.0402-2.417 0.5594-3.598 0.6362 1.609 1.974 3.101 3.861 4.095 6.117-0.3254-0.3474-0.607-0.7276-0.841-1.148 0.4059 3.115 1.247 3.66 1.093 4.154-0.2048 1.393 0.8007 3.247 1.455 4.483 0.1792-0.2267 0.3839-0.2523 0.6216-0.0768-0.0292-0.0512-0.8885-1.294-1.104-1.137 0.4095 0.0768 0.607-0.0841 0.5887-0.4863-0.0877-0.1718 1.766 3.327 1.861 2.432 0.3839 0.9104-0.8446-0.4241 0.0034 1.24-0.468-0.0182-2.351-1.77-2.53-2.289 0.1682 0.7203 1.294 0.8154 1.327 1.426-0.4827-0.3803-1.313 0.5704 1.159 0.936-2.49-2.666-11.96 3.485-14.92 2.98-0.7678-0.3839-7.598 0.8922-12.2 1.346 0.1389 0.2523 0.3474 0.3766 0.6216 0.3656-0.5814 0.6435-4.636 1.664-4.333 0.6362zm188.3-40.27c0.6545-0.5119-0.0951 2.241 0.1462 2.04-0.607-0.2194 6.951-14.15 7.73-15.06 0.0475 0.5338 0.3291 0.9068 0.841 1.119 0.117-0.4936-0.8593-1.123-0.7459-1.708-0.3693 0.2486 5.7 14.59 6.278 16.29-5.656 1.097-11.33 2.102-16.99 3.17 0.1353-0.2889 1.77-4.552 2.742-5.85zm54.69 9.646c5.627-1.949 8.369-2.662 12.48-4.75-12.48 1.711 11.08-6.362-0.6326-7.079 2.731-1.24-5.631-0.3766-7.061-0.4058-0.3693-0.3218-2.94-0.5741 0.1353-2.161-4.219-0.6582-8.812 0.4351-15.58 1.898 0.0109-0.2486 8e-3 8e-3 8e-3 -0.2084 1.748-0.4059 3.488-0.8264 5.229-1.261-1.755 0.2523-3.496 0.5814-5.221 0.9836 0.0731-2.614-2.208-7.514-3.057-10.37 0.4607 1.046 0.8519 2.11 1.225 3.185-0.6618-2.804-1.865-7.788-4.424-9.232 0-0.9104 2.534 3.781 1.953 2.442-0.7386-0.9945-1.261-1.682-2.004-2.358 0.0768 0.5777 0.5667 1.463-0.2267-0.1024 0.0292 0.0987 0.4205 1.404 0.106 1.715 0.0219-0.7825-0.7569-1.408-0.8044-2.23 0.2267 0.3949 0.2267 0.2852 4e-3 -0.3218 0.0584 0.1792 0.1536 0.3291 0.2815 0.4497-1.192-5.232-4.6-10.16-7.305-14.91 0.6362 1.002 1.28 1.996 1.931 2.987-1.627-2.867-3.616-4.965-5.042-7.817-3.035-6.055-3.112-6.388-0.1974-12.26 3.503-7.071 7.145-14.07 10.72-21.11-0.5887 1.229-1.166 2.457-1.759 3.682 14.82-30.26 29.26-61.94 47.74-89.67-0.4205 0.1572-0.841 0.3144-1.261 0.468 0.3035-0.5814 0.6106-1.163 0.9141-1.744-1.108 0.9507-2.878 1.163-4.11 1.971 0.3768-0.7788-0.7823-4.004-0.6689-5.185-9.368 18.46-15.52 30.78-26.67 46.55 2.201-3.188-0.8154 0.2377-1.408 1.302-1.335 2.399-1.989 5.653-3.51 7.931-0.9543 1.426-2.395 1.572-2.841 2.216-2.219 3.207-3.923 7.134-6.252 11.06-3.481-2.351-6.629 7.459-8.165 10.51 0-4e-3 0.6106-0.1974 0.6106-0.1609-0.7605 1.331-2.216 1.433-2.435 1.459-1.389 1.203-0.6216 1.236-2.128 1.243-0.3327 0.9031-4.113 11.24-2.859 11.34-0.2377 0.1024 1.086-1.104 1.002-1.042-0.2706 0.2194-0.3803 1.126-0.3876 1.086-0.8519 0.0439-2.49-0.5448-3.265-0.702 0.0146-0.1682 0.6106 0.8958-0.3693 1.389-0.0402-0.2925-0.0731-1.539-0.0731-1.547-0.702 1.302-0.3254 1.459-1.254 2.698 1.419 0.5996 1.042 1.221 2.399 1.912-0.9178 0.5996-2.896 2.665-3.887 2.845 0.0256 0.3364 0.4973 0.0804 0.4315 0.5704-2.552 0.1243-0.4863 1.576-0.1353 2.468-0.2779 0.4168-1.737 1.879-2.399 2.534-2.274-1.974-1.744-1.854-1.773-3.342-0.0585-0.0329-0.8812 0.351-0.819 0.4351 0.7934-0.5082 0.4022-0.5448 0.8848-0.5228-0.6764-0.5594-3.309-1.426-4.443-1.561-0.1792-1.942-1.898-3.638-3.397-5.349-0.5631 0.6326-1.247-0.9726-0.2194 1.433-0.7642-1.653-7.298-5.635-8.468-6.282-2-1.104-1.693-3.616-5.693-1.989 0.3035-5.203-3.203-4.592-7.368-5.814 1.053-1.74 0.7971-1.411 0.9104-2.603-4.282 1.316-5.357-2.896-8.391-1.656 0.1828-3.73-2.874-2.417-3.73-5.017-0.5484 2.494-1.609 4.746-3.174 6.764-0.8556-2.212-1.192-4.501-1.009-6.863 0.1316 1.488-4.322-1.737-2.457-1.21 1.203 0.6691-5.086-1.909-8.647-3.181 1.806-0.1792 3.62-0.223 5.437-0.1316-3.496-1.386-5.32-3.623-7.759-0.7642-0.4534-3.81-4.278-2.706-6.673-3.353-0.6399-0.1755-18.1-3.028-18.12-3.075 0.3218 0.1609 0.6435 0.3108 0.9689 0.4644-0.2962 0.4753-0.6911 0.0255-1.148 0.0329 0.4132-8e-3 0.9031 0.3181 0.8081 0.6618-2.453-0.6984-3.265-1.583-4.245-0.1755 0.0255-0.0366 8e-3 -0.0329-0.0549 0.0146-0.9434-2.04-2.212-2.073-4.432-2.424-0.724-0.117-2.698 0.5667-4.406 0.7642-2.731 0.3181-5.452 0.5448-8.176 0.936-2.208 0.3181-5.667 4.772-5.609 0.936-1.177 3.02-4.618-2.358-8.881-0.5338-0.09507-0.8044-2.815 1.521-3.474 1.887-3.331 1.846-4.589 1.474-4.428 4.702-1.126-2.98-7.507-6.549-11.43-1.923-0.2486 0.2925-0.01825 4.662-0.5631 6.618-1.909-1.726-1.949-3.276-4.797-3.594-1.627 1.755-7.814 1.868-10.11 2.728-2.091 0.7788-0.702 0.4424-2.04 0.947-1.269 0.479-9.989 3.243-7.053 2.314-6.015 1.901-14.37 7.02-16.15 8.567-2.907 2.278-4.856 5.02-7.766 7.236-3.865-9.744-6.867-16.3-10.48-26.69 0.2486 0.3693 0.5009 0.7386 0.7496 1.108-1.729-5.174-4.41-9.817-6.465-14.86-0.4461 0.1828 1.949 5.967 1.923 6.753-0.7825-4.051-4.486-9.068-3.079-10.6-2.194-5.653-4.772-11.3-7.071-16.98 1.36 3.905 3.196 7.631 4.607 11.52-0.2815-0.5777-0.5631-1.155-0.841-1.729 0.3583 0.7386 2.79 5.861 2.68 5.58-0.01095 0.8556 0.2962 1.455-0.2523 2.351-0.362-0.8775 0.2304-1.444 0.1572-2.311-0.1426 0.5521-0.2815 1.108-0.4241 1.66-1.7-4.121-2.808-10.28-5.247-13.75 0.6143 1.02 1.177 2.07 1.689 3.144-2.823-5.996-4.969-12.29-7.346-18.47 0.3949 0.8592 0.7934 1.718 1.192 2.578-1.814-4.684-3.258-7.92-6.004-10.83 2.45 0.5156 3.978 3.43 4.475 6.088-2.285-5.865-6.22-7.649-11.15-11.89 0.5923 1.4 0.479 3.108 0.9909 4.541-0.5411-0.0987-1.082-0.1974-1.623-0.2998 0.1499 0.0586 1.708 0.7788 1.726 0.7788-0.4132-0.0695-0.83-0.139-1.243-0.2084 1.188 1.854 2.995 7.188 5.031 5.942-0.7861 2.629-1.492 4.947-0.5777 6.289-0.1609 0.0951-1.572 0.3876-1.839 0.3803 3.81 7.536 5.236 14.96 6.859 22.41 1.817 8.337 6.413 17.47 7.247 25.78 0.468-0.49 0.936-0.9836 1.408-1.477 0.2523 0.1828 0.5046 0.3656 0.7569 0.5448-4.355 1.587 2.278 21.26 3.74 25.35-0.0146-0.0329 0.01825-0.0768 0.08041 0.0915-0.0219 8e-3 0.4973-1.422 0.4168-1.155 0.4388 0.702-0.09872 1.967-0.2413 2.761-0.5997-0.351-1.199-0.7057-1.795-1.057 2.417 5.554 5.086 8.834 3.013 14.08-1.247 3.17-3.854 3.996-4.976 6.037-0.3181 0.5777-1.912 7.894-2.87 10.74-1.594-1.02-3.254-2.567-2.9 0.4205-1.144-0.9178-5.975 4.472-7.287 8.132-1.046 2.918-0.6508 4.998-1.378 6.38-0.8008 1.521-1.726-0.0366-2.87 2.45-1.188 2.567 0.3547 4.055-0.0877 6.79-7.422-2.062-0.4461 20.6-7.071 21.96 1.305 2.026 1.137 4.044 2.878 5.642-0.5485 2.512-2.424-5.452 0.0585 1.686-6.819-0.256-6.143 2.845-6.702 9.061-0.4607 5.082 1.009 11.25-0.01825 16.1-2.011 9.507 3.788 1.931-3.148 5.752-2.885 1.591-8.516 1.777-11.99 2.479-6.592 1.324-16.19 0.958-21.93 4.099-5.649 3.09-5.89 8.154-7.393 13.28 1.806-0.106 3.247 0.6472 4.322 2.26-7.594 3.411-5.031 10.6-8.936 15.81 2.676 1.049 5.39-0.3547 8.574-1.174-1.784 1.836-4.132 3.74-4.07 6.6 3.038-0.05119 15.6 1.09 17.39-3.163-0.05485 0.3583-0.07675 0.7167-0.0585 1.082 1.17-1.982 4.709-7.821 4.183-2.139 2.296-4.856 3.02-1.101 3.565 1.719 2.739-0.6618 9.324-6.084 10.29-8.132 1.441 1.759 0.9433 3.009 0.7569 6.062 3.331-0.6545 9.39-3.009 12.81-2.903 5.357 0.1718 1.792-1.901 5.843 3.62 1.272 1.733 0.1572 0.4863 2.505 0.7752-5.148 4.289 14.95 28.79 19.23 33.89 1.024 1.221 32.75 30.24 33.73 28.28-1.499-0.8922-2.863-1.36-4.241-2.146 9.258 6.055 18.49 10.6 28.87 14.36-2.307-0.9909-4.614-1.982-6.922-2.973 2.819 0.9507 11.15 4.768 11.72 4.9 3.049 0.6984 8.797 0.7167 11.26 2.673 2.077 1.653-0.8154 6.432 3.587 5.525-3.36 2.746 6.223 19.94 6.457 24.21-0.2523-1.057-0.5082-2.102-0.702-3.166 1.082 1.558 1.737 4.446 2.556 6.684 0.2596-0.2157 1.444 0.04753 1.711-0.1755 0 2.428-1.879 4.026 0.08406 8.296-0.3035-0.7971-0.49-1.865-0.7569-2.735 2.124 2.691 3.7 3.675 6.874 6.783-2.79-5.62 3.086-19.5 8.296-22.82-0.9799 0.6764-0.9543 0.3547 0.0768-0.9543-0.1024 0.5558-0.3803 0.9141-0.8263 1.071-8e-3 -0.5704 1.313-2.823 1.686-3.58 0.6472 1.492 0.3656 2.57-0.936 3.463 1.66-1.115 2.384-4.077 4.084-6.238-0.0366-0.0219-0.0731-0.04753-0.106-0.07311-1.499 1.693-2.421 3.408-2.914 5.444 0.1024-0.3254-0.0439-2.75-0.0731-2.728-0.0768 0.1243-0.1243 0.0877-0.1426-0.1133 0.2742 0.5302-0.5046 1.996-0.6326 2.384 0.117-0.3583-0.0475-3.598 0.6326-2.384 0.0146 0.02556 2.695-2.925 2.413-3.163 0.49 0.4059 0.0366 0.0877 0.0182 0.7532 1.126 2.318 0.1645-0.6874 0.3327-0.468-0.0951-0.07675-0.0658-0.05483 0.0841 0.06214-0.5338-0.2413-0.8081-1.254-1.108-1.393 3.068 1.236 4.552-4.819 5.949-7.722 0.2267 0.5375 0.4534 1.075 0.6838 1.612 0.83-1.912 1.821-3.77 2.728-5.649 1.43 1.086 6.238-0.04753 9.353-0.468-1.229 0.256-2.446 0.2925-3.653 0.1024 1.25-0.3693 3.755-1.02 5.013-0.9178-2.399 0.4351-5.43 0.7496-7.737 0.7093 4.274-0.5009 8.644-1.825 10.68-2.395-0.3218 1.338-3.254 2.508 0.106 1.656-3.188 1.218-6.947 1.47-10.5 1.923 5.507-0.5448 9.697-1.744 14.64-2.768-0.8702-0.2815-0.1207-0.7788-1.814-0.4095 0.49-0.8995 0.5594-0.2523-0.0915-1.006 0.1792-0.03657 1.086-0.2889 0.83 0.04387 0.1536-0.2011 0.6728-0.8008 0.7642-0.8702 0.0182-0.01095 0.0439-0.02921 0.0402-0.02556-0.0366 0.0219 1.302 2.472 1.495 2.79 3.547-2.856 11.32-2.556 16.34-4.468-0.8739 0.373-1.77 0.6582-2.691 0.8556 5.324-2.004 13.37-8.099 18.63-9.265-5.803 2.541-11.1 5.283-17.13 7.448 3.148-1.887 6.72-2.318 9.927-3.942-0.0695 0.04387 8.242-3.923 9.613-4.958 3.287 1.115 7.693-3.207 11.29-5.496-2.004 1.046 0.6947-0.585 1.272-1.057-0.2048 0.1901-0.362 0.3401-0.6106 0.5009 0.8812 0.06212 1.857-0.585 3.024-0.5448-0.1682 0.1133-0.351 0.1974-0.5485 0.2523 0.2121-0.05118 1.832-0.5923 0.6874-0.2413 2-0.8666 8.077-7.152 8.699-6.969 2.015-0.596 9.759-4.563 9.759-6.83 1.192-1.784 1.777-2.183 2.377-4.3-0.3145 0.5997-0.7094 1.137-1.188 1.605 0.1133-0.5777 0.1243-0.7678 0.6362-1.119-0.0513-0.1243 0.3291-1.656 0.117-1.397 0.3876 0.5814 0.7971-0.1499 0.4351 0.9104-0.7459 2.066 5.368-2.611 3.751-2.918-1.832 2.647-1.558 2.282-3.554 2.362 4e-3 -0.0146 3.883-0.6764 2.34-3.726 0.4022-0.1609 4.497-3.744 4.439-3.682 0.819-0.7971 0.585-0.9251 0.2852-1.938 0 0.6545 1.953-4.83 0.5521-0.1938 1.788-4.026 7.093-7.784 9.298-10.56 1.532-1.931 1.495-5.466 3.119-8.26 2.856 0.2633 2.157-3.408 4.706-4.073 0.1902-4.176 3.324-15.41 7.006-17.95-0.4424-0.4059-0.9141-0.2121-1.408 0.585 1.196-0.8666 0.9946-1.236 0.5082-1.96 0.2194-0.04022 1.923-4.698 2.293-5.152-0.2084 0.6143-0.3729 1.24-0.5046 1.879 0.2304-1.444 0.7167-2.015 1.192-3.21-0.6728-0.2486 0.2048-0.05847-0.8995-1.89 0.2413 0.5667 0.3912 1.163 0.4497 1.781-0.0402-0.05482-0.6472-0.2925-0.7459-0.1463-0.0658-1.053-0.2486-2.739 0.5631-2.984-0.7752 0.2157-0.117-0.3071-0.256-1.276 0.8483 0.7386 0.1133 1.729-0.0219 2.589 0.7569-1.196 0.5375-1.174 0.5082-1.956 0.1682 0.3291 0.0475 0.5704 0.4388 0.4388 0.1243-1.762 1.587-4.501 0.8812-6.647 0.457 1.503-0.6801 4.41-2.391 4.154 0.4388-2.219 3.751-0.3985 1.25-5.273 0.8885 0.691 0.6435 1.693 0.702 2.676 0.0255-0.7386-0.6472-3.251-0.5777-3.36 1.795 0.9982 1.016 3.038 1.09 4.64 1.035 0.0329-0.2157-4.329-0.936-4.764 2.15-0.3218 1.229-2.779 1.309-3.335 0.1316 0.8519-0.1499 1.788 0.0658 0.4973 0.223 0.5412 0.1536 0.8666-0.2084 0.9726-0.1536-1.825 2.197-6.059-0.2596-5.817-0.2194-2.358 0.2925-4.483 2.106-5.13-0.1426-0.3327-0.5594-0.362 0.3327-0.128-0.5558-1.338-0.373-3.455-0.362-3.788 8e-3 -0.0182 0.3876 0.4424 0.4717 0.2413-1.437-1.159-0.7971-11.75-0.8848-13.2 0.5192 3.792-1.382-10.38 0.1865-4.099-0.2413-1.576-0.479-6.976-1.298-8.315 0.4168 0.6837 0.4132 5.602 0.6033 6.622 0.117-2.428-2.907-8.318-0.7971-10.38 2.029-1.978 5.678 2.505 6.746-1.781" style="fill:#211e1e"/>
  </g>
</svg>
