<svg width="500" height="500" version="1.1" viewBox="0 0 132.3 132.3" xmlns="http://www.w3.org/2000/svg">
  <path d="m127.3 65.53c-0.0282 0.01485-0.0492 0.03013-0.0738 0.04516-3.708 1.842-6.777 3.375-9.497 4.922-0.9074 0.5151-1.774 1.032-2.614 1.561-3.2 2.318-6.619 4.932-9.134 8.061 0.8696-2.99 1.52-6.227 2.058-9.148 0.3021-1.003 0.6622-1.899 1.092-2.727 2.209-4.421 6.834-7.67 11.75-7.913 0.9751 0.6347 1.952 1.225 2.93 1.773 0.9776 0.5483 1.957 1.056 2.932 1.518 0.8559 0.4682 1.67 1.316 0.5528 1.908m-55.81-12.09-2.482 2.217c-2.823 2.523-8.308-0.1433-13.04-3.835-0.9466-0.7381-1.863-1.517-2.723-2.303-3.12-2.706-5.514-5.881-9.709-6.118 2.823-0.3087 5.867-0.3711 8.594 0.9614 1.312 0.526 2.466 1.158 3.299 1.803 2.894 2.246 4.163 3.418 8.1 5.62 2.801 1.565 5.465 2.376 7.963 1.655m-3.934-15.35c-6.95-2.698-13.08-2.113-17.69-0.2539-0.9222 0.3708-1.783 0.7945-2.58 1.252-1.674 0.6904-2.686 2.036-3.916 3.136 0.3249-1.618 1.556-2.718 2.416-4.181 0.4904-0.6008 1.024-1.162 1.601-1.684 1.727-1.564 3.835-2.767 6.315-3.599 4.435-1.488 10.03-1.719 15.74-0.6474 3.334 0.6234 5.987 2.258 8.552 3.835 2.607 1.606 5.292 3.258 8.704 3.898l-5.493 4.907c-4.346 0.453-10.76-5.546-13.65-6.668m11.15 30.88c2.904 8.129 5.01 16.43 5.003 24.85-3.45-9.31-8.104-17.99-9.49-27.8 0.07398-1.233 0.4844-2.279 1.331-3.037l2.481-2.217c-0.3729 0.8986-0.5359 1.847-0.5257 2.835 0.0083 0.9885 0.1868 2.02 0.4809 3.109 0.1966 0.7254 0.4382 1.483 0.7183 2.263m14.14-2.577c-0.1317-0.4996-0.3867-1.112-0.7176-1.806-1.649-3.466-5.158-8.951-4.378-12.51l5.497-4.911c0.06269 0.8658 0.1943 1.692 0.3757 2.49 0.55 3.838 3.409 7.042 4.336 10.81 0.2609 0.7352 0.4907 1.49 0.6693 2.272 0.1788 0.7825 0.3067 1.594 0.3687 2.439 0.07067 0.9674 0.1062 1.927 0.1058 2.875-0.03838 0.828-0.08764 1.671-0.1537 2.52-0.06615 0.851-0.1482 1.709-0.2522 2.567-1.642 7.86-4.382 19.16-13.37 21 6.234-6.897 9.113-16.55 7.991-25.62-0.1249-0.701-0.2832-1.41-0.4728-2.132m-56.41 54.44c10.14-8.009 16.8-14.3 20.2-18.48 0.4699-0.5772 1.438-1.428 2.585-3.023 1.304-1.817 2.593-4.421 3.782-6.227 0.4251-0.7204 0.8002-1.462 1.131-2.24 0.6604-1.558 1.141-3.269 1.498-5.26 0.01616-0.514 0.1468-1.343 0.2176-2.18 0.07081-0.8361 0.08164-1.678-0.142-2.216-0.3037-0.8354-0.5221-1.614-0.652-2.355-0.3916-2.228 0.01541-4.135 1.318-6.312 0.4756-0.7934 0.9967-1.581 1.549-2.34 1.107-1.521 2.343-2.937 3.62-4.078 0.3106-0.2775 0.773-0.689 1.35-1.204-0.1323 0.6474-0.1689 1.33-0.1291 2.035 0.03969 0.7063 0.1548 1.435 0.3228 2.182 2.765 9.878 9.889 26.52 10.69 26.64 1.598 0.2515 11.15-0.9917 15.96-19.74 0.2139-0.8308 0.2933-1.69 0.4022-2.536 0.2167-1.693 0.3344-3.378 0.3726-5.013 0.0126-1.149-0.0245-2.292-0.1063-3.419-1.135-6.851-5.483-12.71-6.199-20.12-0.2572-0.1195-0.561-0.07451-0.7737 0.1136l-0.1675-0.1875s-0.5825 0.519-1.55 1.378l0.1134 0.1269-18.69 16.7c-1.239 1.107-3.609 3.269-6.015 5.853-0.8012 0.8626-1.607 1.772-2.376 2.711-2.143 2.509-3.386 4.608-3.817 8.09 1.178-0.1675 2.346 0.6774 2.98 1.882 0.4135 0.9586 0.0066 2.43-0.5133 3.343-2.884-2.741-7.352-2.29-10.65-3.602-0.8256-0.3277-1.573-0.7698-2.197-1.408-0.6234-0.6379-1.123-1.472-1.449-2.58-0.9423-4.029-0.213-8.665-3.292-12.11 2.383-0.8012 4.142 1.168 4.477 3.525 3.069-0.5285 6.163-1.523 8.869-3.407 0.9452-0.6163 1.874-1.266 2.762-1.92 2.665-1.959 4.974-3.944 6.319-5.14 5.962-5.341 20.56-18.45 20.56-18.45 0.2115-0.189 0.2904-0.4858 0.2005-0.755-0.08806-0.2689-0.3311-0.4615-0.6139-0.4858-3.842-0.3359-6.661-2.071-9.646-3.909-2.677-1.648-5.444-3.351-9.039-4.025-7.97-1.492-17.02-0.7631-22.97 4.361-0.8502 0.7321-1.638 1.553-2.351 2.47-1.569 2.08-2.633 4.357-3.01 6.908 2.357-0.3349 4.636 0.7285 6.668 2.012-3.473 3.546-8.379 3.503-12.27 6.089-2.409 1.267-2.128 4.558 0.1242 6.086 2.279 1.063 4.66 0.2614 5.945-1.77 1.608-3.651 3.902-7.028 6.417-10.16 1.514 2.189 3.793 3.253 5.493 5.151 0.5938 0.4982 1.281 1.053 2.036 1.619 3.019 2.264 7.116 4.72 10.58 4.618-0.4653 0.416-0.8492 0.7606-1.114 0.9977-2.552 2.28-6.181 4.279-9.455 5.43-0.8188 0.2872-1.617 0.5228-2.369 0.695-0.7532 0.1732-1.461 0.2849-2.103 0.3246-0.2896-0.9067-1.13-1.612-2.237-2.043-6.58-1.917-12.46 2.896-17.15 6.883-0.7141 0.5807-1.471 1.209-2.26 1.877-0.658 0.5585-1.339 1.145-2.038 1.757-0.6992 0.6128-1.416 1.252-2.149 1.915-5.574 4.953-10.57 10.75-15.72 16.35-0.6887 0.8471-1.356 1.697-1.999 2.549-1.286 1.702-2.473 3.404-3.523 5.084 0.1603-1.745 0.3796-3.481 0.6499-5.204 0.1362-0.8619 0.284-1.72 0.4463-2.572 2.373-10.53 12.09-17 16.74-26.57 0.5497-0.9388 1.075-1.892 1.569-2.863 1.983-3.881 3.488-8.023 4.297-12.46 0.2943-1.076 0.6813-2.059 1.143-2.973 2.303-4.565 6.46-7.345 10.19-10.59 0.9349-0.7592 1.865-1.486 2.786-2.19 3.683-2.816 7.239-5.274 10.39-7.37 0.08062-0.05299 0.152-0.1047 0.2308-0.1578 3.115-1.038 6.372-1.776 9.374-1.974 5.285-0.35 8.492-1.587 11.82-4.562 2.269-2.026 3.515-3.835 4.403-6.901 5.758 10.94 14.56 21.33 17.85 25.04 0.6643 0.7377 1.571 1.721 2.668 2.845 6.442 6.17 13.37 11.94 20.29 17.7-4.219 0.23-7.913 3.528-10.17 6.721-0.762 1.092-1.373 2.263-1.869 3.599-0.622 4.449-1.909 8.714-3.793 12.68-0.4713 0.9917-0.9801 1.965-1.517 2.926-1.28 1.949-2.533 3.902-3.849 5.779-0.6576 0.9402-1.333 1.862-2.036 2.76-2.462 2.663-4.978 5.797-7.649 8.083-0.8383 0.6449-1.696 1.256-2.571 1.842-2.122 0.8996-4.308 1.353-6.523 1.64-1.108 0.1431-2.225 0.2447-3.345 0.3432-1.341 0.0186-2.654 0.1338-3.941 0.3353-1.286 0.1998-2.543 0.489-3.771 0.8552-1.049 0.3574-2.059 0.7744-3.039 1.242-0.978 0.4675-1.923 0.9868-2.841 1.548-3.025 1.786-5.677 4.269-8.266 6.851-0.8629 0.8612-3.609 3.697-4.477 4.576-5.546 6.816-16.27 10.99-25.8 5.782 2.346 0.4911 3.669-0.5331 12.8-5.828m30.44-4.512c-3.549 2.167-6.798 5.066-10.1 7.606-0.8259 0.6357-1.655 1.249-2.491 1.822-0.6837 0.4795-1.379 0.9296-2.089 1.343-0.7074 0.4124-1.429 0.7871-2.163 1.115-2.943 1.413-6.234 1.695-9.716 1.265 5.892-0.8376 8.428-5.62 12.5-10.06 0.7028-0.7384 1.414-1.469 2.141-2.181 2.181-2.136 4.519-4.096 7.268-5.557 0.8143-0.4336 1.656-0.821 2.523-1.153 0.8672-0.3338 1.762-0.6114 2.687-0.8252 0.9265-0.2657 1.864-0.4996 2.811-0.7067 2.842-0.6199 5.772-0.9949 8.704-1.18-3.613 1.901-6.788 4.294-9.974 6.915-0.6904 0.5511-1.391 1.091-2.104 1.599m-61.53 3.44c-0.1712-0.7395-0.3245-1.472-0.4586-2.201-0.2006-1.093-0.363-2.185-0.495-3.279-0.1311-1.095-0.2337-2.193-0.3069-3.293l10.42-9.307 0.0026 3e-3c0.6068-0.5422 1.215-0.9744 1.842-1.253 0.6283-0.2779 1.277-0.404 1.964-0.3333 2.398 0.6326 4.202 2.052 5.32 3.853 0.5602 0.9 0.9497 1.897 1.157 2.938 0.8675 4.692-2.165 8.732-5.394 11.31-0.5595 0.4999-1.141 0.9713-1.739 1.408-1.789 1.309-3.711 2.309-5.539 2.845-0.9776 5e-3 -2.467-0.1753-3.497-0.8926-1.265-0.611-2.04-1.294-3.274-1.795m-1.327-16.65c1.85-3.391 4.354-6.876 7.049-10.17 0.6738-0.8252 1.36-1.638 2.058-2.433 4.17-4.636 8.876-9.282 13.39-13.58 0.7747-0.7007 1.533-1.375 2.269-2.018 1.472-1.287 2.854-2.451 4.103-3.466 0.7493-0.6089 1.449-1.163 2.085-1.665 2.023-1.504 4.241-3.483 7.088-4.258 0.9462-0.1814 1.681 0.269 2.232 0.9522 2.606 4.463 0.9459 9.046 0.4636 13.46-0.06559 1.165 0.1635 2.289 0.6968 3.195 0.5334 0.9067 1.377 1.597 2.543 1.902 4.59 1.188 10.25-0.9314 12.51 2.453 0.7398 1.105 1.011 2.144 0.9695 3.139-0.7366 2.168-1.735 4.198-2.937 6.103-0.6015 0.9543-1.253 1.877-1.949 2.772-1.921 2.588-4.085 4.897-6.403 7.014-0.774 0.7052-3.148 3.328-3.962 4.008-13.64 11.4-18 14.74-26.37 14.71-0.7952 0.031-1.605-0.0218-2.43-0.1705-0.8245-0.1487-1.666-0.3934-2.522-0.7483 1.026-0.9166 2.054-1.87 3.079-2.842 0.5123-0.4872 1.024-0.979 1.534-1.473 4.29-4.544 11.79-9.032 9.564-16.39-0.2393-0.7786-0.5726-1.539-0.9871-2.257-1.659-2.865-4.608-5.01-7.92-4.583-0.9145 0.1494-1.92 0.4837-3.021 1.067-1.1 0.5839-2.298 1.415-3.595 2.561l-0.0018-2e-3 -0.1039 0.0928c-0.0029 3e-3 -0.0048 4e-3 -0.0077 7e-3l-9.459 8.453c-0.06866-1.945-0.05592-3.891 0.03958-5.832m21.48-53.59c-0.3254 0.7021-0.6019 1.411-0.8421 2.125-0.5331 2.93-1.329 5.758-2.367 8.474-0.346 0.9056-0.7187 1.799-1.118 2.68-3.206 6.989-7.522 13.06-12.52 18.86 2.724-6.862 3.609-14.29 7.645-20.55 0.5345-0.8996 1.103-1.781 1.698-2.646 1.791-2.596 3.814-5.049 6.093-7.321 0.4699-0.5426 0.942-1.08 1.413-1.617m47.49-45.16c0.6922-0.7155 1.391 0.2116 1.713 1.079 0 0 0.0059-0.00695 0.0068-0.00783 0.701 2.037 1.586 4.107 2.595 6.17-0.9134 4.047-2.09 5.733-4.371 7.772-3.066 2.736-6.04 3.874-10.97 4.202-1.865 0.1234-3.828 0.4558-5.797 0.9314 7.395-5.588 10.69-10.64 16.82-20.14m56.1 57.19s4e-3 -0.0071 5e-3 -8e-3c-0.9504-0.4131-1.908-0.8809-2.869-1.394-0.9617-0.5154-1.928-1.076-2.895-1.69-8.541-5.669-15.6-13.08-23.05-20.04-0.6308-0.6675-1.229-1.321-1.787-1.942-6.654-7.508-17.85-21.37-21.49-33.26-0.01326 0.0084-0.02554 0.01591-0.02554 0.01591-0.8541-2.868-3.63-4.315-5.243-2.175l-1.028 1.588c-0.6901 1.068-1.34 2.084-1.96 3.053-5.627 8.799-8.728 13.65-17.48 19.47-3.838 2.553-8.266 5.634-12.81 9.24-0.9081 0.7215-1.821 1.465-2.737 2.24-3.669 3.011-6.989 6.223-10.15 9.638-0.6312 0.6851-1.256 1.377-1.878 2.077-2.468 2.316-4.689 4.816-6.664 7.458-0.6597 0.8816-1.292 1.78-1.898 2.692-5.747 10.09-8.488 21.39-12.55 32.04-0.2642 1.109-0.5006 2.211-0.713 3.305-1.699 8.746-1.916 16.94-0.647 24.48 0.1758 1.046 0.3817 2.08 0.6146 3.101 2.779 2.411 5.814 4.202 9 5.423 1.064 0.4089 2.147 0.7564 3.263 1.086 1.79 0.4241 3.599 0.8591 5.43 1.274 0.9134 0.2076 1.831 0.41 2.751 0.604 8.114 1.431 16.62 4.015 24.69 1.337 1.009-0.3067 2.004-0.6661 2.984-1.073 6.862-2.849 13.07-8.002 19.32-12.27 0.9882-0.665 1.97-1.34 2.947-2.026 2.929-2.058 5.8-4.205 8.626-6.417 0.9596-0.6484 1.911-1.308 2.851-1.98 4.703-3.364 9.123-7.074 12.78-11.63 0.7225-0.7649 1.421-1.545 2.096-2.348 1.348-1.606 2.604-3.305 3.747-5.116 0.701-0.8721 1.392-1.718 2.086-2.569 0.7024-0.8435 1.406-1.693 2.117-2.55 2.541-3.599 5.493-6.238 8.968-8.234 0.75-0.4749 1.526-0.9325 2.332-1.387 2.421-1.363 5.13-2.698 8.368-4.294 0.8951-0.4399 1.825-0.8993 2.8-1.383l0.9123-0.4555c0.1291-0.08771 0.2794-0.177 0.4689-0.2668 2.682-1.286 1.566-4.396-1.295-5.613" stroke-width=".3528"/>
  <path d="m32.73 114c5.017-1.211 8.954-4.731 11.82-9.194 0.5299-0.8506 1.003-1.734 1.415-2.639 0.8252-1.811 1.413-3.715 1.734-5.62 0.1534-1.104 0.1896-2.217 0.09893-3.332-0.09063-1.116-0.308-2.236-0.6657-3.344-0.2267-0.6622-0.5243-1.311-0.8989-1.945-0.3754-0.6347-0.827-1.255-1.363-1.855-0.6008-0.7945-1.275-1.578-2.012-2.304-2.21-2.179-5.003-3.849-8.139-3.764-0.9921-0.03024-2.027 0.07681-3.096 0.3592-1.067 0.2824-2.169 0.7409-3.292 1.409-6.573 3.92-8.196 6.52-11.73 11.03 1.523-0.7691 3.177-1.122 4.851-1.089 0.8383 0.01704 1.68 0.1293 2.515 0.3379 2.838 0.8951 5.299 2.709 7.158 5.02 0.6213 0.7712 1.174 1.597 1.654 2.463 0.4329 1.232 0.9032 2.53 1.269 3.877 0.3408 2.642 1.336 5.737-0.2216 8.675-0.2881 0.7208-0.6502 1.361-1.091 1.912" stroke-width=".3528"/>
</svg>
