<svg width="500" height="500" version="1.1" viewBox="0 0 132.3 132.3" xmlns="http://www.w3.org/2000/svg">
  <path d="m81.49 88.41 0.6608-9.713c-4.749 4.107-9.444 6.562-14.02 8.806 4.205 1.118 8.732 1.416 13.36 0.9074zm-15.9-1.694c0.09399-0.04696 0.188-0.09392 0.2831-0.1397 5.528-2.687 11.25-5.465 16.96-10.96l0.03736 0.03719 11.02-11.65-13.2-6.273c-5.694-0.04763-19.27 2.329-33.55 7.839 1.239 5.557 3.856 10.48 7.762 14.41 3.057 3.07 6.693 5.303 10.69 6.738zm-18.8-22.96c9.289-3.546 18.95-6.015 26.19-7.148l-0.4766-19.38c-0.2077-0.4692-0.4124-0.9261-0.6121-1.366-2.012-0.0032-4.336-0.08143-6.728-0.1614-3.846-0.1303-7.822-0.2645-10.58-0.07621-0.6484 0.04318-1.363 0.08446-2.177 0.124-3.124 5.56-5.126 11.52-5.825 17.53-0.4251 3.651-0.3425 7.162 0.2047 10.48zm7.673-29.95c2.851-0.1935 6.873-0.058 10.76 0.07373 3.378 0.1133 6.837 0.229 9.212 0.1075-3.117-2.576-7.557-6.407-12.45-10.63-0.1314 0.1283-0.2659 0.2487-0.3951 0.3771-3.136 3.12-5.839 6.534-8.069 10.14 0.3293-0.01863 0.6417-0.03888 0.9395-0.05842zm8.852-11.72c6.541 5.652 12.65 10.92 15.26 12.86 4.883 2.183 23.07 9.977 28.1 12.13-2.065-16.84 1.589-34.72 1.628-34.9l0.0329-0.121 0.1481-0.3898 0.2539-0.4943c-13.48-5.691-31.61-1.712-45.41 10.92zm54.58-4.784c-2.215-2.225-4.735-4.008-7.476-5.37l-0.3335 0.6682c-0.1978 1.01-2.813 14.69-2.06 28.82 1.175-2.708 2.715-5.976 4.625-9.423l0.0921-0.1351c2.046-2.5 5.246-5.719 9.257-9.31-0.9974-1.635-2.145-3.17-3.46-4.579-0.2114-0.2265-0.4262-0.4519-0.647-0.6717zm5.027 6.88c-3.768 3.391-6.777 6.417-8.714 8.778-2.718 4.915-4.689 9.483-5.871 12.48 0.1237 1.22 0.2746 2.435 0.4608 3.637l3.128 11.01 3.032 0.8386c0.459 0.06086 1.134 0.478 3.81 2.26 0.1518 0.1005 0.3059 0.2032 0.4611 0.3072 3.786-6.103 6.199-12.76 6.982-19.48 0.8559-7.335-0.3092-14.13-3.29-19.82zm-11.72 49.36c2.669-2.656 5.024-5.521 7.038-8.538-0.1618-0.1064-0.3236-0.2151-0.4854-0.3214-1.182-0.7882-2.642-1.758-3.085-1.965l-3.81-1.053c-3.087-0.1466-11.83 2.071-15 2.957l-0.06379 0.01849-11.68 12.36-0.7596 11.15c9.674-1.5 19.64-6.446 27.85-14.61zm-45.79 18.84c0.2208 1.994-0.4632 4.061-2.042 5.532-2.652 2.473-6.809 2.327-9.282-0.3253-0.6626-0.712-1.131-1.532-1.42-2.399l-3.219 0.7994 0.7042 2.313c-3.103 1.041-6.058-1.491-14.01 5.253l-11.02 10.4c-0.5296 0.6904-0.9081 1.506-1.1 2.804-0.3906 2.663-3.213 8.467-6.851 9.755-3.637 1.291-11.58 0.7677-17.16 3.022 2.591-5.43 2.551-13.39 4.061-16.94 1.511-3.553 7.476-6.015 10.16-6.245 2.185-0.1858 3.06-0.9681 4.272-2.105l0.07014 0.0743 8.608-8.132c8.594-8.245 5.998-11.52 7.314-14.69l2.257 0.8633 1.022-3.155c-0.8428-0.3488-1.627-0.8732-2.29-1.585-2.475-2.654-2.328-6.809 0.3253-9.282 1.467-1.368 3.395-1.931 5.243-1.715-3.556-15.6 2.49-34.41 17.04-48.09 9.73-9.155 21.8-14.69 33.99-15.59 12.27-0.9049 23.16 2.991 30.69 10.97 0.01 0.01048 0.0197 0.02088 0.0296 0.03136 15.49 16.47 11.67 45.3-8.52 64.32-14.49 13.63-33.54 18.54-48.86 14.14zm35.2-44.38-12.55-5.902c-4.512-0.5938-8.471 0.2508-10.93 1.134 3.056 10.35 14.95 18.81 29.91 12.69-2.014-3.343-4.191-5.927-6.432-7.924" fill="#17110f" stroke-width=".3528"/>
</svg>
