<svg width="500" height="500" version="1.1" viewBox="0 0 132.3 132.3" xmlns="http://www.w3.org/2000/svg">
  <path d="m118.9 15.68c0.6682 0.4717 2.935-1.796 2.935-1.796l1e-3 -0.0014h-1e-3c-0.4685-0.4731-2.094-1.744-2.094-1.744-0.0529-0.04082-0.1028-0.08464-0.1527-0.1255l-0.0212-0.01662c-0.0151-0.01058-0.0287-0.02417-0.0423-0.0393-0.0907-0.09222-0.1391-0.2555-0.1376-0.4188-3e-3 -0.1511 0.0363-0.2978 0.1315-0.3778 0.0196-0.02117 0.0423-0.0393 0.068-0.0544h1e-3c0.6802-0.4414 1.298-0.9145 1.846-1.418 0.5352-0.5154 1.046-1.104 1.528-1.755l1e-3 -0.00141c0.0136-0.02117 0.0302-0.0393 0.0484-0.05592l5e-3 -0.00603 3e-3 -0.00318c3e-3 -0.00318 8e-3 -0.00603 0.0106-0.00907l5e-3 -0.00455c0.0892-0.0786 0.2297-0.1058 0.3718-0.0937 0.1632 0.00755 0.3235 0.06802 0.4096 0.1632 0.0136 0.01362 0.0257 0.02872 0.0363 0.04382l0.0151 0.02268c0.0378 0.05292 0.0786 0.1043 0.1164 0.1602 0.5154 0.7677 1.055 1.501 1.613 2.198 0 0 1.859-2.234 1.87-2.248l0.0166-0.02117c0.0105-0.0151 0.0242-0.02872 0.0393-0.04234 0.0907-0.0907 0.2555-0.1391 0.4188-0.1376 0.1511-0.00318 0.2978 0.03627 0.3778 0.1315 0.0212 0.01965 0.0393 0.04234 0.0544 0.06802v0.00141c0.4428 0.6802 0.9145 1.298 1.418 1.845 0.5154 0.5352 1.104 1.046 1.755 1.528l1e-3 0.0014c0.0212 0.01362 0.0393 0.03023 0.0559 0.04837l0.0181 0.01813 5e-3 6e-3c0.0786 0.08767 0.1058 0.2283 0.0937 0.3704-8e-3 0.1632-0.068 0.325-0.1632 0.4096-0.0136 0.01362-0.0287 0.02568-0.0438 0.03627l-0.0227 0.0151c-0.0529 0.0393-0.1043 0.0786-0.1602 0.1164-0.7677 0.5169-1.501 1.057-2.198 1.613 0.6604 0.5987 1.359 1.182 2.095 1.744 0.0529 0.04082 0.1028 0.08464 0.1526 0.127l0.0212 0.0151c0.0151 0.0121 0.0287 0.0242 0.0423 0.0393 0.0892 0.09222 0.1391 0.2555 0.1376 0.4188 3e-3 0.1436-0.0332 0.2811-0.1164 0.3659l-6e-3 0.0046c-3e-3 0.0032-6e-3 6e-3 -9e-3 0.0075l-3e-3 0.0046-6e-3 0.0046c-0.0181 0.01813-0.0378 0.03327-0.059 0.04533l-1e-3 0.0014c-0.6802 0.4414-1.298 0.9145-1.845 1.416-0.5352 0.5154-1.046 1.104-1.528 1.755l-1e-3 0.0032c-0.0166 0.02268-0.0347 0.04382-0.0574 0.0635-0.0862 0.08919-0.2358 0.1209-0.3856 0.1088-0.1632-0.0091-0.3235-0.06802-0.4096-0.1648-0.9099-1.291-1.781-2.423-1.781-2.423v-0.0014c-0.4551 0.4414-2.586 1.926-2.107 2.932 0.4777 1.007 3.265 1.285 4.978 3.111l0.0514 0.05592c0.4445 0.4763 0.901 1.02 1.382 1.648 2.369 3.083 2.644 4.742 2.644 4.742s-1.708 1.543-2.323 2.261c-0.6664 0.7769-1.196 3.242-1.196 3.242s-2.837 0.4322-4.152 1.521c-0.8178 0.6756-2.428 1.85-2.817 2.133l-0.0861 0.0635s-0.201-0.712-0.8178-1.382l-0.0317-0.03323c-0.7028-0.7469-1.93-1.428-3.98-0.9977-3.916 0.8238-9.289 6.294-9.289 6.294s-5.828-0.4474-7.807 0.8919c-1.271 0.8601 0.9222 2.775-0.8813 4.519-1.883 1.818-4.276 1.856-5.458 1.793-0.1134-6e-3 -0.5486 2.845-2.364 2.555 0 0-1.714-0.4354-2.446-0.07557-0.8933 0.4399-2.221 1.584-2.913 2.718-0.7179 1.171 0.1391 2.872-1.07 4.011l-4.068 3.824c-1.226 1.153-3.669 0.526-4.855 1.49-4.23 3.434-15.99 14.39-19.87 18.51-1.01 1.072-0.198 3.192-1.376 4.297l-5.14 4.833c-1.192 1.12-3.12-0.0045-4.269 0.9402-3.201 2.632-15.09 13.67-18.09 16.77-0.4276 0.4399 0.417 1.312 0.09977 1.838-0.6379 1.058-3.019 1.809-3.927 4.512-0.9085 2.703-0.3189 4.096-1.153 5.144-0.8312 1.049-2.134-0.26-3.849 1.149-1.714 1.409-4.001 3.577-5.348 3.418-1.348-0.1587-3.488-1.324-5.087-0.5366-0.8481 0.4188-1.716 1.067-2.115 1.221-0.04534 0.0166-0.4399-0.0453-0.3613-0.3838 0.09826-0.4156 0.8781-1.215 1.348-2.036 0.8859-1.546-0.1466-3.754-0.2222-5.109-0.07557-1.356 2.23-3.504 3.74-5.13 1.513-1.623 0.2857-3.003 1.383-3.771 1.099-0.7677 2.453-0.0952 5.207-0.8344 2.754-0.7405 3.655-3.071 4.745-3.644 0.5398-0.2812 1.351 0.6093 1.814 0.2131 3.277-2.804 15.03-14 17.86-17.04 1.014-1.09 0.01056-3.082 1.202-4.205l5.14-4.833c1.178-1.106 3.244-0.1678 4.375-1.11 4.346-3.616 16.01-14.68 19.69-18.69 1.034-1.125 0.5592-3.602 1.785-4.752l4.067-3.824c1.211-1.137 2.86-0.1799 4.068-0.8206 1.161-0.6153 2.372-1.853 2.861-2.713 0.4036-0.7088 0.07557-2.446 0.07557-2.446-0.0272-2.291 2.796-2.048 2.808-2.199 0.1285-1.628 0.1179-3.726 2.115-5.44 1.876-1.607 3.627 0.6107 4.505-0.6241 1.738-2.446 1.353-7.645 1.353-7.645s5.793-5.027 6.855-8.884c0.5472-1.989-0.0302-3.248-0.7194-4.001l-0.0317-0.03327c-0.5969-0.6365-1.265-0.8993-1.35-0.931l-0.0091-0.0032s1.54-1.877 2.37-2.763c1.167-1.245 1.773-4.05 1.773-4.05s2.494-0.3764 3.309-0.9931c0.7543-0.5715 2.4-2.18 2.4-2.18s1.638 0.3764 4.572 2.929c0.6181 0.538 1.15 1.045 1.611 1.534l0.0514 0.0544c1.681 1.799 2.016 4.378 2.868 4.978zm-22.23 29.78-2.119 1.977 0.01965 0.0091c0.4294 0.1965 0.9039 0.269 1.36 0.04234 1.108-0.5486 1.025-1.388 0.7511-1.998zm-4.287-4.706c-0.5955-0.3204-1.445-0.4763-2.069 0.6121-0.2585 0.4488-0.2086 0.9356-0.03323 1.382zm31.71-14.74c-0.065-0.06954-0.1345-0.1391-0.2041-0.2086-4.982-4.95-9.261 1.15-7.088 3.481l0.0121 0.01514c0.0816 0.08464 0.1693 0.1632 0.2676 0.2373 0.3431 0.257 1.333-0.3659 2.007 0.3539l0.0167 0.01813c5e-3 6e-3 0.0106 0.01207 0.0151 0.01813 0.6968 0.7994-0.2268 1.758 0.322 2.514 0.0242 0.03323 0.0514 0.0665 0.0801 0.09674l0.0106 0.01055c1.605 1.666 9.152-1.625 4.586-6.506zm-17.52-7.243c0.0257 0.0272 0.0529 0.05292 0.0816 0.07557 0.7211 0.5941 1.734-0.2675 2.489 0.4763 0.7317 0.7194 0.0242 1.696 0.2645 2.059 0.0711 0.1088 0.1497 0.2071 0.2343 0.2963l0.0121 0.01362c2.205 2.281 8.524-1.611 3.898-6.876-4.703-5.352-8.605 2.231-6.989 3.944zm13.84 1.433c0.2993-0.2434-1.129-1.851-1.427-1.551-0.5398 0.5486-0.3461 1.347-0.1406 1.571 0.1678 0.1814 0.8464 0.5652 1.567-0.01965" fill-rule="evenodd" stroke-width=".3528"/>
  <path d="m8.08e-4 5.307 18.78 10.51s2.233 0.8164 4.025 2.4c1.292 1.143 65.8 64.39 71.76 70.24l1.146-1.173s0.0014-0.0016 0.0032-0.0031l0.3838-0.393s0.07405-0.0544 0.1874-0.09522c0.04382-0.01664 0.0907-0.03022 0.1421-0.03627 0.1421-0.02268 0.3144-0.0045 0.4791 0.127 0.08164 0.04989 0.1678 0.1164 0.2585 0.2041 0.2131 0.2041 0.4699 0.4519 0.7511 0.7317 1.001 0.966 2.177 2.177 2.4 2.406 0.393 0.4036 1.608 1.135 1.202 3.567-0.136 0.8206-0.4294 1.676-0.8192 2.518-0.2146 0.532-0.4851 1.082-0.8192 1.642 0.1315 0.4717 0.6816 1.649 1.226 2.189 0.5715 0.5684 1.554 0.5684 2.251 1.131 1.286 1.035 1.11 2.134 1.841 2.852 0.8615 0.8464 1.806 0.6696 2.86 1.844 0.331 0.3687 0.561 1.286 1.312 2.009 0.804 0.774 0.7151 0.653 1.516 0.8905 0.7994 0.2388 1.238 0.8435 1.372 1.536 0.1013 0.5228 0.4851 1.4 0.8178 1.909 0.062 0.0952 0.1557 0.0877 0.1904 0.062 3.445-2.494 6.386-1.678 8.672 0.5426 2.449 2.378 3.279 5.585 0.2222 9.423l0.9053 0.8859c0.6135 0.6015 0.6241 1.587 0.0227 2.201l-0.0181 0.0196c-0.0635 0.0635-0.13 0.1224-0.201 0.1723-0.0499 0.0711-0.1058 0.1406-0.1678 0.2041l-0.0196 0.0197c-0.6015 0.6135-1.587 0.6241-2.201 0.0227l-0.9053-0.8859c-3.771 3.136-6.996 2.375-9.427-0.0242-2.264-2.237-3.218-5.077-0.8086-8.566 0.0257-0.0363 0.062-0.1678-0.0212-0.2237-5e-3 -3e-3 -6e-3 -8e-3 -9e-3 -0.0106-0.4368-0.3944-1.353-0.7317-1.876-0.8224-0.6954-0.1194-1.309-0.5458-1.564-1.341-0.2539-0.7952-0.13-0.7088-0.9222-1.497-0.7391-0.7363-1.66-0.9462-2.036-1.27-1.196-1.029-1.038-1.977-1.903-2.821-0.7331-0.7165-1.829-0.5168-2.892-1.781-0.5758-0.6848-0.5969-1.667-1.178-2.227-0.5486-0.532-1.74-1.058-2.213-1.179-0.5518 0.3446-1.097 0.6273-1.625 0.8524-0.833 0.4082-1.683 0.718-2.5 0.8721-2.422 0.4579-3.177-0.7405-3.592-1.126-0.2343-0.2192-1.469-1.371-2.456-2.35-0.2857-0.2736-0.538-0.526-0.7465-0.7345-0.08919-0.0892-0.1587-0.1738-0.2101-0.254-0.1345-0.1617-0.1572-0.3341-0.1376-0.4763 6e-3 -0.0514 0.01813-0.09977 0.03323-0.1436 0.0393-0.1134 0.09222-0.189 0.09222-0.189l0.3856-0.3916c0.0014-0.0031 0.0014-0.0045 0.0014-0.0045l1.149-1.17c-5.959-5.828-70.56-69.01-71.72-70.24-1.62-1.759-2.483-3.976-2.483-3.976l-10.91-18.55" fill-rule="evenodd" stroke-width=".3528"/>
</svg>
