<svg width="500" height="500" viewBox="0 0 132.29 132.29" xmlns="http://www.w3.org/2000/svg"><defs><clipPath id="a"><path d="M76.535 304H83v4.797h-6.465z"/></clipPath><clipPath id="b"><path d="M83 295.48h6V302h-6z"/></clipPath><clipPath id="c"><path d="M85 299h4.55v7H85z"/></clipPath></defs><g transform="matrix(9.93464 0 0 9.93464 -758.863 -2935.456)" clip-path="url(#a)"><path d="M80.391 305.78c.73-.246.871-.477 1.145-.984l1.074.238c-.336.644-1.328 1.055-1.555 1.172-.004.058.031.133.113.195.149.106.364.215.719.149-.414.293-1.04.296-1.352-.032-2.32.582-3.34 1.008-4 2.282.149-1.254.73-1.618 1.383-2.106-.144-.469.114-1.137.637-1.293-.273.238-.285.86-.188.992.055.078 1.137-.316 2.024-.613"/></g><path d="M87.767 99.149c8.188-9.043 16.183-13.31 21.965-23.518-10.206 11.293-26.584 15.95-41.834 10.556-7.723-2.717-14.01-7.645-18.473-13.776 3.415 11.137 20.918 27.436 25.03 30.58 3.416 2.6 5.9 9.158 7.025 9.623-2.057-.853 4.036-11.021 6.286-13.466M33.325 23.645c0 .04-.271 2.95-.271 2.989-.62 15.794 3.221 26.738 11.526 36.982-3.298-8.42-3.687-16.997-.466-26.156 5.433-15.29 15.912-24.643 34.578-26.156-15.6-5.083-28.213-4.54-39.584 1.747-1.746.814-7.528 2.445-7.916 1.63-.466 1.397 2.29 5.277 2.173 7.722 0 .194 0 1.048-.04 1.242-.466 1.397 0-.232 0 0"/><g transform="matrix(9.93464 0 0 9.93464 -758.863 -2935.456)" clip-path="url(#b)"><path d="M86.789 295.89c-1.117-.23-1.578.105-2.836.402 1.125.145 1.719.535 2.402 1.258 1.23.684 1.926 2.05 2.07 3.64.294-1.984.173-3.558-.445-4.718-.09-.188-.382-.824-.578-.992.028.129-.328.41-.613.41"/></g><path d="M69.09 83.353c1.436.504 2.91.892 4.346 1.241C62.803 77.26 57.72 67.984 56.128 59.72c-4.113-3.22-8.576-14.67-8.887-20.374-6.286 18.782 4.308 37.798 21.849 44.008M80.813 12.916C68.24 14.973 57.102 21.415 50.93 32.048c13.195-11.215 28.29-15.523 48.316-4.075-5.938-10.012-12.651-14.01-18.434-15.057M116.975 63.285c-1.358-15.29-4.929-28.563-16.338-38.109 20.723 29.222-5.82 54.486-18.239 59.53 15.872.622 32.365-16.764 34.578-21.42"/><path d="M91.542 63.781c5.2-7.063 3.958-16.027.31-21.227.389 6.326-.853 9.275-2.561 11.952-4.58 1.94-9.47 4.851-17.153.66 7.063 7.567 13.35 9.236 19.403 8.615"/><path d="M81.608 66.066C70.548 62.535 67.249 54.23 67.249 54.23s-.93-6.325 1.94-14.475c-5.161 3.299-9.74 13.854-10.244 18.007 4.269 4.269 12.302 9.546 22.663 8.305"/><path d="M50.612 35.964c-1.32 5.589 2.212 12.807 6.092 17.658 1.785-9.78 9.003-17.192 19.598-22.703-8.809-1.63-17.347-.543-25.69 5.045M80.614 41.329c2.367.232 7.994 4.773 8.887 7.529 1.436-8.033-2.445-12.419-7.761-16.26-5.9 1.94-10.827 7.683-11.798 14.474 4.269-4.54 8.344-5.976 10.672-5.743M22.596 77.193c3.066 2.523 15.484 9.236 37.565 14.747-7.917-7.567-12.651-13.544-15.794-23.479-7.335-6.52-11.875-18.239-12.846-26.583-2.794 4.89-4.191 19.52-4.734 25.574-.544 6.054-2.29 9.508-4.192 9.74"/><g transform="matrix(9.93464 0 0 9.93464 -758.863 -2935.456)" clip-path="url(#c)"><path d="M89.551 303.75c-.168 0-.258-.207-.273-.703.039-1.102-.133-2.188-.414-3.203-.047.883-.075 2-.868 2.886-.445.95-.941 1.704-2.129 2.383.832.02 1.774-.207 2.778-.773.37-.188.797-.442.906-.59"/></g><path d="M101.477 32.785c-3.959-3.803-21.344-14.242-35.509-5.588 4.424-.582 18.938-1.203 28.369 11.914 4.696 6.52 4.463 16.687 1.513 22.353 9.236-10.595 10.012-21.15 5.627-28.679"/><path d="M104.259 54.443c-12.148 17.851-26.622 23.944-43.115 8.46 2.212 8.809 11.681 17.929 17.23 20.722 8.228-3.415 23.518-17.191 25.886-29.183"/></svg>