<?xml version="1.0" encoding="UTF-8"?>
<svg width="500" height="500" version="1.1" viewBox="0 0 132.3 132.3" xmlns="http://www.w3.org/2000/svg" xmlns:cc="http://creativecommons.org/ns#" xmlns:dc="http://purl.org/dc/elements/1.1/" xmlns:rdf="http://www.w3.org/1999/02/22-rdf-syntax-ns#">
  <g transform="matrix(.3528 0 0 .3528 29.95 111.5)">
    <path d="m84.64-261.1c-82.44 0-149.5 67.07-149.5 149.5 0 82.44 67.07 149.5 149.5 149.5 82.44 0 149.5-67.07 149.5-149.5 0-82.44-67.07-149.5-149.5-149.5zm0 319c-93.48 0-169.5-76.05-169.5-169.5 0-93.48 76.05-169.5 169.5-169.5 93.48 0 169.5 76.05 169.5 169.5 0 93.48-76.05 169.5-169.5 169.5"/>
    <path d="m190.3-217.2h-211.3v211.3h211.3zm-6.014 6.014v199.2h-199.2v-199.2h199.2"/>
    <path d="m128.7-67.54h-88.06v-88.06h88.06v88.06"/>
    <path d="m84.64-211.9c-55.32 0-100.3 45.01-100.3 100.3 0 55.32 45.01 100.3 100.3 100.3 55.32 0 100.3-45 100.3-100.3 0-55.32-45.01-100.3-100.3-100.3zm0 4.265c52.97 0 96.06 43.09 96.06 96.06 0 52.97-43.09 96.06-96.06 96.06-52.97 0-96.06-43.09-96.06-96.06 0-52.97 43.09-96.06 96.06-96.06"/>
    <path d="m154.8-314.8 135.3 1.919-1.919 135.3z"/>
  </g>
</svg>
