<?xml version="1.0" encoding="UTF-8"?>
<svg id="uuid-fde273a4-e927-43b2-8698-b0f141b35e18" xmlns="http://www.w3.org/2000/svg" viewBox="0 0 500 500">
	<defs>
		<style>
			.uuid-89aee10b-ffef-4e5f-bbdd-3daacd386642{fill-rule:evenodd;}
		</style>
	</defs>
	<path class="uuid-89aee10b-ffef-4e5f-bbdd-3daacd386642" d="M104.22,78.6s8.88,1.59,12.7-.09c5.09-2.23,6.69-6.54,6.69-6.54,0,0-3.61-2.32-5.95-5.47-3.57-4.82-4.1-11.25-4.1-11.25,0,0,12.1,7.95,21.9,7.58,9.8-.37,24.17-4.06,24.17-4.06,0,0-.91,.83-6.66-6.7-7.36-9.64-7.67-17.27-7.67-17.27,0,0,9.47,6.19,14.89,8.21,5.42,2.03,14.32,3.01,14.32,3.01,0,0-2.67-1.48-5.15-6.36-2.48-4.87-4.27-13.77-4.27-13.77,0,0,13.04,17.34,35.95,14.75C235.8,36.69,262.46,1,262.46,1c0,0,.24,9.33-1.24,13.93-1.67,5.18-4.27,8.86-4.27,8.86,0,0,3.79,.6,8.66-2,3.5-1.86,10.41-11.03,10.41-11.03,0,0,.14,11.3-5.49,18.96-2.33,3.16-6.17,4.97-6.17,4.97,0,0,13.54,6.33,18.96,10.96,11.76,10.03,15.36,19.05,15.36,19.05,0,0-8.09-3.69-11.81-4.48-3.73-.79-8.35-.29-8.35-.29,0,0,11.22,11.68,14.57,20.22,2.56,6.53,8.1,18.28,8.1,18.28,0,0-32.8-14.3-62.83-19.33-15.59-2.61-38.4-4.83-50.34,.52-2.48,1.11-5.46,4.78-5.21,8.78,.17,2.75,3.91,10.2,3.91,10.2,0,0-12.62-3.5-18.02-6.91-3.71-2.34-13.3-6.46-17.37-4.44-3.13,1.55-1.53,9.38,.19,12.93,1.72,3.55,4.49,7.9,4.49,7.9,0,0-8.72-1.23-14.79-7-2.24-2.13-6.22-6.8-6.22-6.8,0,0-10.86-1.77-17.46-5.14-5.59-2.85-13.31-10.53-13.31-10.53h0Zm91.98-17.39s8.46-8.02,17.32-9.69c16.19-3.05,31.24,2.51,31.24,2.51,0,0-9.24,.8-11.96,1.15-2.02,.26-4.39,.96-4.39,.96,0,0-1.89,9.64-12.91,9.42-11.01-.22-19.3-4.34-19.3-4.34h0Z" />
	<path class="uuid-89aee10b-ffef-4e5f-bbdd-3daacd386642" d="M199.98,112.49l-7.53,6.33s1.95,4.47-3.2,6.42c-9.39,3.56-22.96-7-22.96-7,0,0,.46,6.46,5.87,13.35,5.28,6.72,9.54,7.06,9.54,7.06,0,0-.55,9.71,2.97,14.23,3.52,4.52,9.15,9.24,9.15,9.24,0,0-6.57-10.69,5.69-25,13.63-15.91,35.98-22.85,35.98-22.85,0,0-9.49-1.52-19.83-2.19-7.87-.51-15.7,.4-15.7,.4h0Z" />
	<path class="uuid-89aee10b-ffef-4e5f-bbdd-3daacd386642" d="M197.44,361.41c64.3,16.04,166.23-10.98,163.69-111.51-.67-26.35-19.49-33.7-19.49-33.7,0,0,3.5-1.06,9.62-.57,3.05,.24,6.82,2.15,6.82,2.15,0,0-9.73-84.05-109.61-105.42C133.29,87.73,54.69,178.31,59.85,246.34c.11,1.45,15.7-8.2,15.7-8.2,0,0-5.99,8.58-7.7,12.21-3.43,7.27-4.51,12.35-3.18,23.56,2.1,17.67,36.8,151.96,180.09,149.63,100.63-1.64,166.07-83.95,167.53-154.32,2.67-128.79-103.43-168.81-103.43-168.81,0,0-3.89-8.05-6.8-16.42-2.36-6.8-12.88-18.43-12.88-18.43,0,0,7.51,2.47,10.76,3.78,2.86,1.16,8.72,4.09,8.72,4.09,0,0-3.42-11.35-8.95-18.89-7.98-10.89-23.9-19.75-23.9-19.75,0,0,200.77,16.57,195.95,230.77-1.84,81.86-73.49,205.41-234.92,205.44-76.13,.02-190.74-50.94-207.48-199.06C14.86,143.38,131.7,96.88,131.7,96.88c0,0,8.2,9.19,13.88,11.18,5.13,1.8,13.84,2.57,13.84,2.57,0,0-3.96-10.35-4.97-14.95-1.01-4.6,2.32-3.94,6.33-2.44,4.25,1.59,10.12,4.79,16.86,6.75,4.67,1.36,13.73,2,13.73,2,0,0-1.27-4.46-2.75-9.14-1.31-4.14-.89-6.99,1.44-8.53,2.72-1.8,40.88-6.34,86.31,10.16,56.23,20.42,84.85,62.26,96.85,93.61,1,2.6,7.65-8.54,7.65-8.54,0,0-4.63,14.98-2.22,24.93,1.1,4.56,2.09,8.16,2.58,10.61,3.55,17.79,3.6,52.32-11.13,83.67-3.07,6.54-2.45,11.45-.29,13.02,2.16,1.57,10.83,.55,10.83,.55,0,0-10.92,2.21-20.44,10.37-16.86,14.46-30.47,37.71-73.35,51.01-42.55,13.2-70.23,3.78-87.35-1.82,4.29,3.54,9.06,7.08,12.71,8.74,15.25,6.92,28.26,5.28,28.26,5.28,0,0,5.42,14.37,9.51,18.67,4.09,4.31,17.46,9.95,17.46,9.95,0,0-61.13,13.38-101.17-26.89-41.66-41.9-43.92-83.99-43.92-83.99,0,0,8.12,16.3,19.83,26.8,11.61,10.41,24.38,10.73,36.57,9.06,18.74-2.57,40.97-21.65,66-24.09,8.22-.8,21.46,6.14,21.46,6.14,0,0-18.08,.75-24.02,15.56-3.44,8.57-.05,23.37-.05,23.37,0,0-18.02-.47-24.84-.23-7.99,.27-14.87,.74-19.88,1.16h0Z" />
</svg>
