<?xml version="1.0" encoding="UTF-8"?>
<svg id="uuid-5f77f79c-aff6-4f9b-a06e-152908307eb3" xmlns="http://www.w3.org/2000/svg" xmlns:xlink="http://www.w3.org/1999/xlink" viewBox="0 0 500 500">
	<defs>
		<style>
			.uuid-93a76a48-8104-4b4e-8fc1-34130ee46d91{fill:none;}.uuid-476d6b16-0afe-4b0a-ab4b-774cb547b8a7{clip-path:url(#uuid-db9afc5e-5e28-4332-8764-d7b0cf47fb5a);}.uuid-272f2a84-52b7-4764-a9ea-1c6b356f6cea{clip-path:url(#uuid-1c0bc8ac-2213-4dba-bb0b-a96311edffe1);}
		</style>
		<clipPath id="uuid-db9afc5e-5e28-4332-8764-d7b0cf47fb5a">
			<rect class="uuid-93a76a48-8104-4b4e-8fc1-34130ee46d91" x="-16.16" y="-28" width="532.32" height="532.32" />
		</clipPath>
		<clipPath id="uuid-1c0bc8ac-2213-4dba-bb0b-a96311edffe1">
			<rect class="uuid-93a76a48-8104-4b4e-8fc1-34130ee46d91" x="-16.16" y="-28" width="532.32" height="532.32" />
		</clipPath>
	</defs>
	<g class="uuid-476d6b16-0afe-4b0a-ab4b-774cb547b8a7">
		<g class="uuid-272f2a84-52b7-4764-a9ea-1c6b356f6cea">
			<path d="M475.6,241.71c7.11-37.03-6.76-66.63-30.32-87.76-32.18-28.85-83.12-26.7-109.36-17.59-13.26,4.6-31.88,12.61-48.3,20.01,1.57-6.08,1.77-12.49,.41-18.61-3.06-13.73-13.66-25.17-27.04-29.4-.34-.11-1.44-1.66-1.47-2.11-.44-5.82-.93-11.65-1.08-17.5h.03c7.91,.22,15.75,.97,23.6,1.59,.93,.07,1.91,.3,2.69,.12,.63-.15,1.1-.64,1.46-1.2l.17-.63v-.2s-.03-.72-.03-.72c-.31-1.66-.58-3.31-.81-4.98-.24-1.72-.34-3.63-.34-3.63,.07-2.69,.58-5.37,1.06-8.03,.03-.18,.06-.35,.1-.53l.02-.65s0-.46-.17-.84c-.27-.59-.84-.95-1.46-1.2l-.65-.05-.25,.02-.7,.06c-8.23,.66-16.46,1.48-24.73,1.68h0c.22-8.04,.94-15.84,1.56-23.75,.08-1.02,.32-2.1,.14-2.91-.13-.6-.58-1.06-1.09-1.44-.19-.07-.39-.14-.58-.21l-.68-.02c-5.63,.54-10.83,.59-16.04,.13-.71-.06-1.41-.24-2.1-.11-.8,.16-1.38,.85-1.67,1.64l-.04,.62c.69,8.67,1.51,17.34,1.74,26.04h-.03c-7.9-.21-15.73-.97-23.59-1.59-.94-.07-1.93-.3-2.71-.12-.63,.14-1.1,.64-1.46,1.2l-.17,.63v.19s.03,.72,.03,.72c.3,1.6,.56,3.21,.79,4.83,.25,1.82,.36,3.79,.36,3.79-.07,2.69-.58,5.37-1.06,8.03-.03,.18-.06,.35-.1,.53l-.02,.65s0,.46,.17,.84c.27,.59,.84,.95,1.46,1.2l.65,.05,.25-.02,.71-.06c8.24-.66,16.46-1.48,24.72-1.68h0c-.16,5.74-.63,11.59-1.08,17.46-.04,.58-1.13,2.04-1.62,2.2-8.72,2.79-16.36,8.61-21.35,16.23-6.02,9.19-7.96,20.85-5.33,31.45,0,.04,.02,.07,.03,.1-16.26-7.31-34.56-15.17-47.65-19.71-26.24-9.11-77.18-11.26-109.36,17.59-23.57,21.13-37.43,50.73-30.32,87.76,7.34,38.23,29.49,67.81,37.59,85.88,3.11,6.94,5.58,13.99,7.54,20.65,.4,2.79,.33,6.94-2.79,9.63-2.76,2.38-2.32,7.68-1.14,9.64,4.15,6.91,5.37,7.69,4.19,8.75-2.58,.19-5.16,.37-7.74,.57-1.01,.08-3.04,.86-3.03,3.76,0,2.16-.01,7.34,0,9.42,.01,2.81,2.02,2.94,3.02,2.86,1.69-.13,2.62-.3,4.32-.39,.82-.05,1.24,.54,1.24,1.13,0,2.1,.02,10.23,.05,12.39,0,.71-1.19,1.26-1.19,1.26-.99,.08-2.97,.86-2.96,3.76,0,2.16-.01,7.34,0,9.42,.01,2.81,1.97,2.94,2.95,2.86,.84-.07,1.68-.12,2.53-.19,.78,.22,1.74,.87,2.09,2.74,.33,1.78,.07,2.64-.24,3.06-1.01,.26-2.46,1.2-2.46,3.78,.02,2.87,1.92,3,2.88,2.92,58.34-4.98,116.81-7.73,175.12-7.76,14.7,0,29.22,.41,43.83,.71,46.49,.97,92.98,3.5,139.38,7.62,1,.09,2.95-.75,3-2.81h0c0-.11,0-.29,0-.61,0-1.83-1.24-2.81-2.21-3.16-.37-.33-.79-1.16-.4-3.24,.33-1.77,1.22-2.45,1.98-2.7,.81,.07,1.61,.13,2.42,.19,1.03,.09,3.03-.73,3.09-2.73,.06-2.17-.01-7.88,0-10.05,.01-2.17-1.15-3.13-2.11-3.21-.52-.04-1.47-.94-1.45-1.46,.12-2.67-.05-8.4,.07-11.16,.08-1.92,1.02-2.19,4.81-1.81,1.05,.1,3.1-.73,3.16-2.73,.07-2.17-.01-7.88,0-10.05,.01-2.17-1.96-3.13-2.94-3.21-2.46-.2-4.93-.39-7.39-.58-1.07-1.03,.19-1.91,4.25-8.68,1.18-1.96,1.62-7.26-1.14-9.64-5.05-4.36-2.11-12.55-2.11-12.55h-.02c1.85-6.01,4.11-12.29,6.89-18.49,8.1-18.07,30.25-47.65,37.59-85.88m-210.15,50.03h5.23c9.48,0,46.29,4.84,53.94,5.83,.87,.11,2.25-1.57,2.05-2.78-.67-4.11-2.13-12.87-2.13-19.58,0-7.12,1.64-17.3,2.24-21.1,.13-.84-1.33-2.27-2.25-2.15-7.81,1.02-44.08,5.81-53.52,5.81h-5.56v-6.33c0-5.37,1.26-20.86,2.55-35.29l.41-.04s.02-3.05,1.49-5.07c2.16-2.98,5.73-6.58,5.67-9.05-.06-2.45-.86-3.8,.18-4.67,1.19-.44,2.42-.85,3.71-1.2,27.98-7.65,52.94,1.44,66.12,10.04,35.09,22.9,4.7,66.65-3.77,92.01-5.17,15.48-8.58,29.16-10.8,40.84-.7,1.9-2.16,4.86-4.96,6.54-4.71,2.84-8.72,4.31-9.26,6.94-1.74,8.46,4.07,10.98,3.36,14.23-.49,2.25-3.08,4.14-3.43,3.77,.02,.07,.06,.18,.11,.31-16.64-.5-33.28-.83-49.91-.98-.58-.7-.59-2.05,.73-5.12,2.59-6.03,6.51-9.85,7.01-14.9,.22-2.26-.27-3.65-3.58-7.44-1.08-1.23-1.86-2.95-2.42-4.55-1.5-15.11-3.21-34.41-3.21-40.21v-5.87Zm90.74,96.16c4.44,0,8.05,3.61,8.05,8.05s-3.61,8.05-8.05,8.05-8.05-3.61-8.05-8.05,3.6-8.05,8.05-8.05m-18.74,6.51c0,4.44-3.6,8.05-8.05,8.05s-8.05-3.61-8.05-8.05,3.6-8.05,8.05-8.05,8.05,3.61,8.05,8.05m-26.79-.77c0,4.44-3.6,8.05-8.05,8.05s-8.05-3.61-8.05-8.05,3.6-8.05,8.05-8.05,8.05,3.61,8.05,8.05m-26.79-.77c0,4.44-3.61,8.05-8.05,8.05s-8.05-3.61-8.05-8.05,3.61-8.05,8.05-8.05,8.05,3.61,8.05,8.05m-34.83-8.3c4.44,0,8.05,3.61,8.05,8.05s-3.6,8.05-8.05,8.05-8.05-3.61-8.05-8.05,3.6-8.05,8.05-8.05m-29.93-188.34c.95,.26,1.86,.55,2.76,.86,1.67,.86,.69,2.22,.62,4.95-.06,2.46,3.51,6.07,5.67,9.05,1.47,2.02,1.49,5.07,1.49,5.07l.44,.04c1.28,14.42,2.54,29.87,2.54,35.23v6.33h-5.56c-9.51,0-46.27-4.87-53.69-5.84-.82-.11-2.21,1.36-2.07,2.23,.6,3.86,2.23,13.95,2.23,21.04s-1.55,16.05-2.18,19.93c-.16,1,1.2,2.55,2,2.44,7.4-.96,44.51-5.84,54.04-5.84h5.23v5.87c0,5.7-1.65,24.48-3.13,39.47-.3,1.05-.67,2.15-1.1,3.14-1.47,3.37-4.64,6.3-4.55,8.76,.25,7.01,3.2,10.25,6.03,16.16,.08,.17,1.05,3,.17,4.65-16.07,.1-32.14,.38-48.2,.81-.11,0-.22,0-.34,0-.8-.25-2.68-1.87-3.09-3.76-.71-3.25,5.1-5.77,3.36-14.23-.54-2.62-4.55-4.1-9.26-6.94-2.8-1.68-4.26-4.64-4.96-6.54-2.23-11.69-5.63-25.37-10.8-40.84-8.47-25.36-38.87-69.11-3.77-92.01,13.18-8.6,38.14-17.69,66.12-10.04m11.19,196.9c0,4.44-3.61,8.05-8.05,8.05s-8.05-3.61-8.05-8.05,3.6-8.05,8.05-8.05,8.05,3.61,8.05,8.05m-26.79,.51c0,4.44-3.6,8.05-8.05,8.05s-8.05-3.61-8.05-8.05,3.61-8.05,8.05-8.05,8.05,3.61,8.05,8.05m-26.79,.51c0,4.44-3.6,8.05-8.05,8.05s-8.05-3.61-8.05-8.05,3.6-8.05,8.05-8.05,8.05,3.61,8.05,8.05m-26.79,1.53c0,4.44-3.61,8.05-8.05,8.05s-8.05-3.61-8.05-8.05,3.61-8.05,8.05-8.05,8.05,3.61,8.05,8.05m-84.01-128.62c-19.15-34.88-3.06-108.88,66.53-100.07,6.48,.82,13.55,2.18,20.91,3.89-39.38,12.83-51.63,44.23-49.62,68.82,3.07,37.58,24.57,53.28,34.6,90.31,.69,2.56,1.32,5.07,1.91,7.54,.3,2.15,.37,7.76-5.01,15.12-2.39,3.26-2.57,8.72-.74,10.51,1.54,1.52,4.86,6.9,4.61,8.94-12.16,.55-24.31,1.17-36.46,1.9-4.52-.76,5.77-11.16,.89-18.77-1.87-2.91-6.48-4.2-8.78-8.95-6.29-24.36-16.03-55.91-28.83-79.24m57.22,129.9c0,4.44-3.6,8.05-8.05,8.05s-8.05-3.61-8.05-8.05,3.6-8.05,8.05-8.05,8.05,3.61,8.05,8.05m-26.79,1.79c0,4.44-3.6,8.05-8.05,8.05s-8.05-3.61-8.05-8.05,3.6-8.05,8.05-8.05,8.05,3.61,8.05,8.05m325.92,28.55c-.27,1.06-1.01,1.47-1.36,1.61-58.17-4.92-116.45-7.38-174.56-7.41-4.11,0-8.21,0-12.32,.03-52.43,.29-104.76,2.57-156.96,6.81-.38-.18-1-.6-1.24-1.55-.46-1.79-1.05-3.91-.16-4.13,.19-.05,.34-.08,.51-.11,56.18-4.26,112.47-6.42,168.6-6.44,15.09,0,30,.14,45,.43,44.1,.87,88.19,3.06,132.21,6.54,.14,.03,.26,.06,.42,.09,.89,.22,.3,2.34-.16,4.13m-47.36-29.83c0-4.44,3.6-8.05,8.05-8.05s8.05,3.61,8.05,8.05-3.6,8.05-8.05,8.05-8.05-3.61-8.05-8.05m26.79,1.79c0-4.44,3.61-8.05,8.05-8.05s8.05,3.61,8.05,8.05-3.6,8.05-8.05,8.05-8.05-3.61-8.05-8.05m1.69-51.55c-2.4,4.15-6.62,5.44-8.39,8.2-4.7,7.33,4.66,17.24,1.34,18.65-12.24-.78-24.49-1.47-36.74-2.06-1.07-1.46,2.75-7.76,4.44-9.42,1.83-1.79,1.65-7.25-.74-10.51-5.38-7.36-5.31-12.97-5.01-15.12,.59-2.47,1.22-4.99,1.91-7.54,10.04-37.03,31.53-52.73,34.6-90.31,2.01-24.58-10.25-55.99-49.62-68.82,7.36-1.71,14.43-3.07,20.91-3.89,69.59-8.81,85.67,65.19,66.53,100.07-13.07,23.82-22.95,56.21-29.22,80.76" />
		</g>
	</g>
</svg>
