<svg width="500" height="500" version="1.1" viewBox="0 0 132.3 132.3" xmlns="http://www.w3.org/2000/svg">
  <path d="m105.1 66.52c-0.3186 0.7172-0.227 4.216 0.3934 4.787-0.828 0.489-0.8721 2.905 0.0542 3.3-0.2038-0.01161-0.6283 0.0014-0.7945-0.08513 0.0774 0.6139-1.743 7.155-1.467 7.239 0.0555-0.1393 0.0413-0.2606-0.0426-0.3637-0.2967 0.8061-1.086 2.923-0.9586 3.306-0.8838 0.6424-0.5147 1.034-0.7236 1.981-0.0116-0.1406-0.2142-0.5959-0.0813-0.7264-0.1045 0.423-0.2296-0.6065-0.2412-0.6682-0.3613 0.9818-0.7211 1.965-1.082 2.948 0.1535 0.0374 0.307 0.07352 0.4604 0.111-0.3884 0.5225-1.117 1.001-1.236 2.195-0.03482 0.1109 0.2025-0.7546 0.2232-0.6026-0.02322 0.3251 0.03094 0.3225 0.1638-0.0064-0.7677 2.325-0.05934-0.0012 0.07483 0.9003-0.1484-0.1148-0.3715-0.2645-0.4593-0.1161 0.3122 0.0077-0.2399-0.3276-0.1458-0.249-0.1974 0.5701-0.6192 0.8785-0.8862 1.706 0.1987-0.6449 0.5624-1.273 0.8256-1.854-0.04128 0.1303-0.1174 0.1213-0.2283-0.02837-0.2735 0.3431-0.725 1.478-0.8654 1.977-0.09416 0.2051-0.1703 1.456-1.338 2.091-1.031 0.9868-1.49 1.722-1.91 2.639-0.2902-0.1071 0.05031-0.1058-0.0077 0.01677-0.4283-0.01291-0.1767-0.2799-0.6245 0.3109 0.04643-0.1716-0.4424 0.8241-0.2606 0.5546-0.2554 0.307 0.09935-0.1367-0.1961 0.2838-0.04001-0.3212-0.6439 0.61-0.5352 0.5274-1.551 0.9275-1.447 1.108-3.412 1.905 0.08256 0.0993 0.1858 0.1096 0.3083 0.0322-0.1561 0.3109-0.6255 0.2761-0.4308 0.0503-0.1548 0.1664-0.1071 0.1484-0.4759 0.0826 0.08255 0.1342 0.1226 0.071 0.2838 0.098-0.5871 0.472 0.08125 3e-3 -0.258-8e-3 0.1496-8e-3 -0.1587 0.423-0.147 0.3884 0.2477-5e-3 0.06065-0.2632 0.2167 0.0619-0.3354 0.0813-0.0658-0.0735-0.5056-0.058 0.2309 0.2606-0.05804 0.1961-0.2683 0.2799 0.1987 0.0735 0.3973 0.1458 0.5959 0.2193-0.1496 0.1226-0.4336 0.2632-0.6372 0.4682 0.1045-0.1058 0.2283-0.1819 0.374-0.2309 0.0374-5e-3 -0.4258 0.5056-0.4191 0.5045-0.1393 0.1058-2.984 1.317-3.398 1.178 0.1419 0.0813 0.2838 0.0503 0.423-0.0942-0.1677 0.2567-0.4103 0.4181-0.7275 0.4837 0.07998-0.0245 0.1406-0.0129 0.1844 0.0335 0.05289 0.0116-0.3884 0.0929-0.3315 0.0774 0.0103 0.0219 0.06837 0.0142 0.06964 0.0142-0.1354-0.08-0.02452 0.0451-0.03228 0.0568-0.07998-0.0645-0.3535-0.316-0.4812-0.5084-0.0014 1e-3 -0.05288 0.4555-0.2309 0.6192-9e-3 -0.1909 0.1264-0.5419 0.1858-0.6618-0.5546 0.5871 0.1277 0.5793-0.7599 0.9145 0.5211-0.1703 0.997-0.0516-0.249 0.3807 0.6629-0.3856-1.633 1.251-0.3715-0.0245-0.7003 0.4823-0.7804 0.3457-1.108 0.356 0.02064-0.0219-0.2993 0.4103-0.4876 0.5391-0.1548 0.0684 0.5123-0.5546 0.5225-0.5804-0.02837 0.0258-0.04643 0.0297-0.05419 0.0103-0.3148 0.3315-1.019 0.658-1.23 0.4696-0.06322-0.138 0.2993-0.0284 0.2477-0.0129 0 0.0877-2.033 1.033-1.329 0.641-0.1238 0.0942-0.258 0.1703-0.3997 0.227 0.6283-0.4089-4.548 0.8848 0.9596-0.4696-0.6696 0.0903-0.8164 0.0748-0.4414-0.0464-0.676 0.0361-0.5973 0.4269-1.027 0.5652-0.0064-0.1509 0.04904-0.2748 0.1664-0.3729-0.5341 0.329-0.7624 0.6876-1.564 0.8707-0.02452-0.0529 0.01161-0.08 0.1071-0.0787-0.1303 0.0774-0.2167-0.1922-0.2438-0.3135 0.1625 0.2657 0.04516 0.3778-0.3522 0.3341 0.01291-0.0335 0.3083-0.4026 0.3238-0.4258-0.7726 0.3238-1.961 1.804-1.196-0.258-0.2464 0.2335-0.4929 0.4657-0.7391 0.6978 0.52-0.9868 1.304-1.851 1.643-2.932-0.147 1.129 0.4114-0.4399 1.112-1.686 0.02321-0.0116 0.329-0.943 0.3574-0.9314-0.0028 0.0335-0.07998 0.2928 0.04516 0.3341 0.2025-0.7134 0.5677-3.353-0.5313-2.081 0.2761-0.2773 1.681-2.594 1.2-1.026 0.5871-0.6721 1.036-1.427 1.346-2.264 0.05419 0.2889-0.06837 0.4114 0.2554 0.3948 0.9081 0.05289 1.045-4.029 1.375-4.724-0.1187 0.4618 3.478-1.259 1.004-1.254 1.009-0.3962 1.516-0.3676 1.85-1.008-1.312-0.7751 1.602-1.227 0.0028-1.928 0.8644-0.6128 1.08-1.421 0.3419-1.97 1.109-0.0039 0.809-0.7716 0.5017-1.692 0.3778 0.0658 0.7225-0.01548 1.033-0.2399-0.1767-0.3522-0.4011-0.6707-0.6721-0.9557 0.5948 0.1574 1.544 0.6964 1.887 0.1213-0.12 0.2219-0.08901 0.3148 0.09159 0.2761 0.1535-0.1909 0.1948-0.374-0.02194-0.64 0.05546-0.0064 0.4346-0.1277 0.3934-0.08128 0.249-0.2993 0.2115-0.658-0.1122-1.073 0.7303-0.09674 1.114-0.4929 1.151-1.191-0.4463 0.3987-0.9519 0.659-1.516 0.7804 1.249-0.659 2.761-3.047 0.7275-3.81 1.437-0.3701 2.015-1.756 1.953-2.999 1.044 0.5274 1.062-0.7818 2.207-1.008-0.1961-0.3574-0.1458-0.3457-0.4565-0.7391 0.03482-0.03997 0.07225-0.09289 0.1264-0.1122 0.01418 0.0038 0.3315 0.2529 0.3574 0.2399 0.1445-0.2889 0.8256-3.222 0.472-3.111 3.367-2.522 8.421-2.82 12.58-3.93-0.6153 0.147-0.3148 0.4128-0.4812 0.6477zm-30.96 23.07c-0.307 0.894-1.126 2.622-1.523 2.771-0.02322 0.2361 0.1896 0.04643 0.2502 0.249-0.3264 0.218-0.5895 0.5056-0.7867 0.8629-0.1871 0.329 0.3522-0.7663 0.3662-0.7906-0.2761 0.6604-0.3948 0.8139-0.356 0.4579-0.6206 0.6735 0.2877 0.2645 0.3522 0.7522-0.0181-0.07867-0.4502-0.2709-0.3973-0.369 0.04128 0.1045 0.2902 0.3148 0.3973 0.369-0.111 0.01031-0.147 0.01548-0.1084 0.01677-0.0064 0.0012-0.0064 0.0012-0.0014 0-0.2361-0.0052-0.1445-0.01291-0.3574-0.04516 0.2219 0.05161-0.4526 0.7751-0.4064 0.756 0.08386-0.249 0.1458-0.5045 0.1858-0.7638-0.1922 0.4992-1.478 1.802-1.071 1.864-0.5172 0.489-0.7663 1.079-1.067 1.62-0.2348 0.3962-0.7303 0.9624-0.138 1.129-0.3549 0.03094 0.06449 0.2064-0.2399 0.3715 0.1329-0.08644 0.1948-0.1974 0.298-0.06707-0.5264 0.5109-0.3651-0.07868-0.8139 0.9663-0.1961-0.05677-0.1961 0.2877-0.1819-0.1987 0.04385-0.4618-0.02452 0.347-0.06707 0.4064-0.3109-0.1006-0.2645-0.356 0.1406-0.7663-0.0014 0.267 0.0052 0.1664 0.01806-0.3006-0.1251 0.2735-1.136 2.288-1.11 2.431 0.02579-0.0297-0.7751 0.5006-0.9674 0.7843-2.404-3.62-3.782-8.273-5.303-12.09-0.1767 0.1006-0.3522 0.1999-0.5274 0.2993 1.45-0.4759 0.1329-3.493-0.9843-3.322 0.8333-0.5638-1.824-5.087-1.733-5.13 0.4244 0.7532-0.04516-0.5793 0.0064-0.4438-0.1161 0.3701-0.1187 0.858-0.2825 1.211-0.209-0.2438-0.4181-0.489-0.6269-0.7338 0.8993-0.3807 1.206-0.4346 0.4967-1.466 0.02321 0.147 0.04516 0.2928 0.06707 0.4399-0.5948-0.7843-0.3122-1.903-1.313-2.769 0.5973-0.1625 0.1871-0.2683 0.4565-0.7906 0.0039 0.04258 0.0039 0.04128 0-0.0038 0.06964 0.02452 0.1484 0.09547 0.3238 0.3831-0.147-0.2438 0.2374 0.05934 0.1496 0.1303 0.3535 0.06192 1.633-0.3909 1.966-0.5574 0.04773-0.0052-0.3006-0.3623-0.2296-0.1367 0.1303-0.2567 0.9042-0.4463 1.008-0.4915-0.1393 0.05031-0.2064 0.0103-0.2025-0.1174 0.3962-0.09804 1.049 0.07225 1.34 0.1148-0.5419 0.267-1.703 0.725-2.264 0.8954 1.014-0.2077 1.392-0.5094 2.233-0.6439-0.4399-0.1251 0.9455-0.3264 1.094-0.3599-0.3729 0.05289-0.8192-0.06837-1.183-0.1019-0.0077 0.01161 3.04-0.5546 3.426-0.641 1.868-0.4258 2.838-0.5483 4.83-1.169-0.1238 0.1419 0.4643-0.249 0.7314-0.2993-0.2025 0.3148 1.013-0.2051 0.7522-0.1497 1.357-0.1058 2.469-0.8076 4.322-0.8566-0.03355-0.1161-0.1174-0.1638-0.249-0.1419 0.4308-0.4244 1.953-0.641 2.384-0.3496-0.5017-0.3393 0.52 0.178-0.659-0.1703-0.1238-0.1522 1.086-0.405 0.5948-0.09931 0.6707-0.227 2.63-1.118 3.242-0.689-0.1006-0.1084-0.227-0.1122-0.3793-9e-3 0.03228 0.03228 1.847-0.4812 2.125-0.5391-0.2128 0.1032-0.3662 0.06964-0.4579-0.09931 0.8231-0.1987 0.9702-0.2709 0.4424-0.2167 0.5056-0.1251 1.421-0.5765 0.5998 0.0774 0.4876-0.2451 1.567-0.2657 1.977-0.5497-0.1857 0.08386-0.3637 0.1806-0.5366 0.2889 0.3793-0.04773 1.406-0.4978 1.566-0.3109 0.02452 0.09416 0.06061-0.4103 0.1006-0.04001 0.1045-0.2748 0.3354-0.4929 0.6114-0.5648-0.5419 0.6051-1.029 1.512-1.346 2.403-0.1909 0.1329-3.951 5.246-3.849 6.333v-0.01161c0.06065 0.01291 0.01549-0.1857 0.1987-0.1522-0.06968 0.138-0.2361 0.2245-0.1342 0.369-0.09416-0.06192-0.178-0.1006-0.1948-0.09804-0.1122-0.3909-1.246 1.725-1.079 0.8464-1.079 0.5109-1.804 3.35-2.449 4.512-0.6089 1.098-2.897 3.237-1.733 4.205-0.3135 0.1445-1.564 1.068-1.743 1.304zm-18.8-21.87c-0.2077 0.1045-0.4283 0.1729-0.659 0.2025-1.095 0.2232-2.547 0.8319-3.275-1.837-0.1277 0.1032-0.1432 0.2386-0.04643 0.4075-0.6178-0.6992-1.538-2.988-1.371-3.92-0.1793 1.01-0.06322-1.33 0.09804 1.083 0.3509-0.6619-2.455-4.89-2.198-5.913-0.4682-0.7225-0.3212-0.9635-0.6735-1.776 0.249 0.2851 0.2838 0.5468 0.1032 0.7829-0.2116-0.3909-0.3934-0.7843-0.5274-1.205-0.0103-0.04773 0.1303 0.4759 0.1045 0.4749-0.2361-0.3031-0.3729-1.188-0.4929-1.593-0.02321-0.0387-0.0039-0.04385-0.0129-0.07225 0.16 0.2103 0.3019 0.4346 0.4258 0.6696-0.4579-1.029-0.7973-2.096-1.282-3.097 0.3186 0.2322 0.4812 0.5419 0.4876 0.9289 0.0012-0.5765-0.4939-1.301-0.7275-1.882 0.1083 0.06449 0.1974 0.1496 0.267 0.2567-0.1006-0.249-0.5225-1.409-0.2141-0.4322-0.5045-0.4361-1.618-2.529-1.248-2.033-0.2593-0.5793-0.7702-1.358-1.002-1.776 0.1316 0.1109 0.1071-0.08771 0.1638 0.04516 0.01419-0.02709 0.02837-0.03355 0.04516-0.01937-0.0129-0.01933-0.0026-0.03228 0.02966-0.0387-0.08386-0.05803-0.08255-0.09028-0.1716-0.298 0.1909 0.01549 0.2103 0.08644 0.3367 0.0774-0.6463-0.5366-0.8217-1.211-1.18-2.072 0.06837 0.1329 0.138 0.2645 0.2064 0.3973-0.4798-1.161-0.4075-0.845 0.2374-1.554-0.2928-0.1484-0.5341-0.05031-0.7236 0.2941 9e-3 1.234 0.0077-0.09416 0.0064-0.09289 0.1741-2.131 2.618 0.5094 2.243-1.856 0.6798-0.2902 1.589-0.912 1.757-1.389-0.01162-0.4142 0.3613-0.387 0.9003-0.5818-0.0658 0.02709-0.4953 0.1613-0.5084 0.2051 0.7158-0.1135 3.867-1.076 3.648-1.352 0.3019 0.1484 0.04128-0.0077 0.2374 0.2115-0.08901-0.1135 0.2374 0.4541-0.3574-0.4759 0.08386 0.0658 0.3109 0.2967 0.05676 0.02967 0.06449 0.04773 0.1226 0.1032 0.1716 0.1664-0.06449-0.1019-0.01548-0.06322 0.147 0.1161-0.1045-0.1174-0.4269-0.423-0.08901-0.09804-0.1367-0.1135-0.2245-0.2464-0.3496-0.3651-0.0026 0.0014 0.1393 0.1122 0.06322 0.0374 0.1574 0.1019 0.3496 0.3173 0.4682 0.4555-0.3341-0.3083-0.04385-0.05807-0.5133-0.5006 0.01548-0.0052 0.09547 0.07867 0.01031-0.0038 0.0026-0.0014 0.2154 0.169 0.2219 0.1767-0.0039-0.0052-0.04516-0.05804-0.02966-0.03613 0.0039 0.0028-0.16-0.1509-0.1367-0.1574 1.154 0.8654 6.53-4.502 8.002-3.359 1.22 0.01549 1.642-0.5303 2.816-0.8707 1.508-0.4375 1.944-0.5638 2.448-0.8566 2.93 1.576 7.677-0.6061 11.04 0.574-0.2309-0.1716-0.4604-0.3444-0.6901-0.5186 0.8474 0.8061 1.282-0.09032 1.246-0.05676 0.0014-0.06322 0.02452-0.12 0.06964-0.169 0.0271 0.0658 0.08255 0.09159 0.06192 0.0077 0 0.04516-0.06192 0.1625-0.1019 0.2606-0.01418 9e-3 0.2529-0.298 0.0028 0.0271 0.1213-0.3251 0.01549-0.0387 0.06449-0.1716 0.0028-0.0014 0.03228 0.1187 0.03482 0.1264-0.01549-0.1148-0.06065-0.06061 0.0038-0.2309 0.03228 0.1277 0.0658 0.2567 0.09931 0.3846-0.06322 0.0064-0.05934-0.2464-0.1045-0.2012 0.08383 0.3122 0.0271 0.1187 0.0014 0.04773-0.0077 0.02452 0.04258 0.1109 0.04773 0.1354-0.0038 9e-3 -0.05807-0.1226-0.04904-0.1342-9e-3 0.1871 0.07867 0.02194-0.06065 0.09804 0.1238 0.3778 0.1935 0.2889 0.2606 0.4375 1.226 0.2219 2.163 0.5288 3.448 0.7934-0.5987 0.1703-1.118-0.2154-1.668-0.3754 0.4618 0.1574 2.67 0.4939 2.666 0.49-0.7638 0.3987 0.4643-0.4773 0.4851-0.4837-0.4862 1.523 2.769 2.139 3.969 2.702 1.496 0.7031 6.238 3.821 7.095 2.835 0.6566 1.312 1.655 1.965 2.419 3.188 0.227-0.2451 0.4541-0.4915 0.6798-0.7366 0.1832 0.1922-1.138 0.7688-0.1974 1.392 0.5483 0.3613 1.395 0.3817 1.983 0.5483 0.3096 0.08771 1.075-0.04128 1.195-0.01933 0.5535 0.09804 0.9222 1.699 1.603 0.725-0.3962 0.7211-0.774 1.454-1.131 2.195 0.5341 0.5638-0.8926 2.14-0.9893 2.893-1.259 0.1935-3.243 5.578-3.74 6.643 0.05677-0.07352 0.5405 0.02452 0.5045 0.1793-2.056 0.0014-1.825 3.173-4.219 3.764 0.2567 0.0064 0.5133 0.01161 0.7702 0.01676-1.343 0.3522-2.719 0.06061-4.209 0.4735-1.369 0.3793-2.361 1.343-4.001 1.326 0.5613-0.0774 0.4812-0.2361 1.1-0.3148-0.8231 0.05804-2.212 0.3328-2.461 0.2451-0.1367 0.3276-0.1561 0.2877-0.5535 0.3367 0.858 0.01291-2.46 0.4632-0.3962 0-1.272-0.08513-2.895 0.4399-4.114 0.7561 1.347-0.05288-2.22 0.7896 0.912 0.01676-1.277 0.1819 0.374-0.07095 0.5017-0.2193-0.1445 0.1664-0.7998 0.374 0.08513 0.1625-0.4939 0.1393-1.518 0.3831-1.832 0.3846-0.6386 0.0028-0.07225 0.7804-0.5172 0.8862-0.2838-1.136 0.5419-1.318 1.421-1.474-1.116 0.12-1.603 0.04904-1.451 1.397-0.06707-0.1716-0.169-0.2025-0.3044-0.09289 0.0658 0 0.1277 0.01549 0.1857 0.04643-0.4488 0.09547-0.0052 0.1612-0.4283 0.2412-0.4103-0.09416-0.3662-0.1342-0.8862 0.04385-0.1148-0.5444-0.1896-0.9222-0.7561-0.8051 0.7959 0.0374-1.769 0.5648-1.722 0.556 0.5652-0.05677 1.131-0.09032 1.699-0.1006-0.3225 0.4967-4.075 0.7158-4.371 0.9028-1.049-0.2051-2.674 0.2193-2.859 0.9508-0.1832-0.0774-0.1509-0.2412-0.3328-0.169 0.1264-0.2773 0.2528-0.5535 0.3793-0.8308-2.037 0.5754-3.93 1.219-6.008 1.659 0.1509-0.0077 0.3032-0.01549 0.4555-0.02321-0.04643 9e-3 -1.245 0.3083-1.198 0.298-0.3483 0.07998 0.0012-0.0064-0.5677 0.08129 0.6245-0.5264-1.319 0.267-1.565 0.3044 0.725-0.2258-0.8644 0.02321-0.9173 0.08644zm0.4502 37.47c-0.02579 3e-3 -0.3793-0.2696-0.3778-0.3006-0.09159 0.2451-0.9469 0.1174-0.8979 0.1019-0.2632-0.0684-1.93-0.7211-1.661-0.5987-1.198-0.4128-0.8707-0.058-1.062-0.7225-0.3522 0.0129 0.4992 0.4449-0.3186 0.0967 0.1226-0.08 0.2335-0.1625 0.3032-0.2115-1.72 0.1574-4.756-3.584-5.521-3.549-0.1354-0.6036-2.201-1.656-2.81-2.175-1.499-1.275-3.722-3.898-4.953-5.454 0.1122 0.2967 0.3754 0.4322 0.5419 0.6823-0.4978-0.3729-1.065-1.191-1.49-2.054 0.1741 0.1187 0.3393 0.2477 0.4967 0.3895-0.6333-0.9907-2.767-5.306-3.148-4.943 0.3768-0.6992-1.001-1.691-0.8668-2.386 0.3715 0.1187 0.05804-0.1213 0.178-0.1032 2.248 0.3341 6.929-1.54 9.236-2.085 0.049-0.0103 2.114-0.6216 2.38-0.5842 2.051 0.2902 0.3483-0.3367 1.433 1.011 0.3817 0.4735 0.8527 2.869 1.2 2.954-0.08901-0.2335-2.068-2.478 0.1832 1.198 0.0039-0.1148 0.0077-0.2296 0.01162-0.3444 0.4992 0.7546 0.8061 2.286 1.434 3.317-0.1058-0.1264-0.2012-0.2606-0.2877-0.4011 0.04385 0.3895 0.6245 1.801 0.4064 1.259-0.2038 0.8051 0.4075 0.8771 0.912 0.7546-1.615 0.6851 0.7688 0.6862 1.642 0.7391-0.5754 0.6488-0.6696 0.761-1.356 1.315 0.1225 0.1845 0.3251 0.2477 0.61 0.1883-0.4167 0.4205 0.7532 0.9624 1.451 1.407-2.55 2.055 1.169 2.557 2.071 4.678-0.4114-0.6255-1.488-1.374-1.305 0.02321-0.1832-0.07352-0.3651-0.1522-0.5444-0.2348 0.169 0.7289 0.08513 1.139 0.1135 2.268 0.2077 0.1303 0.3923-0.0348 0.4773-3e-3 0.07867 0.3392-0.09416 0.6502 0.0245 1.09 0.09674-0.1083 0.08255-0.3173 0.1238-0.4463 0.1045 0.2361 0.05161 0.1238 0.0374 0.2309 0.02192 0.0477 0.2425-0.04 0.1987-0.0168-0.0387-0.1212-0.1445-0.1806-0.1445-0.3302 0.4361-0.3135-0.02192 0.7599 0.01291 0.7081-0.03094-0.0452-0.049-0.1342-0.08901-0.1561 0.0012 0.0284-0.0129 0.0413-0.04516 0.0361 0.1213-0.0245 0.0052 0.2193-0.0245 0.2709 0.1406-0.1393 0.03354 0.0697 0.2064 0.3238-0.16-0.1974-0.08771-0.4103 0.049-0.5624 0.0039 0.0271 0.0232 0.441-0.05934 0.12 0.0064-0.0258-0.03354 0.1987-0.03613 0.0761-0.03483 0.1019 0.6255 0.9931 0.7134 1.402-0.05031-0.405 0.1909-0.5225 0.3057 0.1586 0.2838-0.2451-0.2657-0.1561 0.02063 0.2244-9e-3 -0.0297 0.0064-0.0723-0.0064-3e-3v1e-3c0.0026 0.0258-0.0077-0.129 0.01031-0.0426-0.0387-0.0168-0.3817-0.1999-0.3406-0.1961 0.09032 0.1819 0.5895 0.592 0.5585 0.876zm-22.64-33.15c-0.543 0.1329 0.5444 0.3599 0.329 0.267-0.02063-0.02836-2.74 1.267-2.744 0.0028 0.02966 0.1819-0.03354 0.2864-0.1896 0.3148-0.02449-0.06065-0.3895-1.402 0.0774-0.7532-9e-3 -0.02194-0.1548-1.372-0.1961-1.371 0.1716-0.01291 0.2502 0.09674 0.2374 0.329 0.03613-0.3186-0.1264-1.073 0.03613-1.131-0.3173 0.0014-0.3987-0.9804-0.307-0.7998 0.08771-0.93-0.1316-1.383 0.3444-1.857-0.1097-0.1367-0.3315 0.0271-0.2425-0.2851 0.07867 0.06837 0.2258 0.1767 0.3006 0.2735 0.07095-0.3006-0.02708-0.3987-0.2967-0.2916 0.2193-1.016 1.177-3.704 1.033-5.006 0.6139-0.218 1.723-2.264 1.49-2.575-0.2283-1.182 3.189-6.372 3.016-7.116-0.1935 0.06449-0.2851-0.05803-0.3778-0.1419 0.1509-0.1032 0.5818 0.1342 0.7638 0.1948-0.08901-0.02967 0.2051-0.4759 0.0774-0.3122-0.1045-0.05803-0.1122-0.147-0.0245-0.2696 0.0761-0.227-0.1832 0.5236-0.2361 0.5123 0.0774-0.04128 0.3793-0.6566 0.4128-0.712 0.01161 0.1303-0.1354 0.4953-0.1161 0.5881 0.1922-0.1458 0.4555-0.7493 0.6294-1.055 0.1935 0.3393 0.0052-0.0038-0.06837 0.1587 0.1806 0.3909 1.45 1.378 1.002 1.935-0.04643 1.082 0.3754 2.193 0.8979 2.592-0.5998 0.8294-0.1213 0.6308 0.2477 1.111 0.3341 0.1354 1.614 5.031 1.869 5.641-0.0077-0.1226 0.3768-0.3831 0.4643-0.2567-1.062 1.177-0.3044 1.661 0.9893 2.388-0.4152-0.01418-0.8527 0.1974-1.269 0.2245 0.5677 0.6964 1.094 1.362 1.445 2.158-0.1148-0.1226-0.2142-0.2567-0.2967-0.405 0.1432 1.099 0.4399 1.291 0.3856 1.466-0.07225 0.4914 0.2825 1.146 0.5133 1.582 0.06322-0.07998 0.1354-0.08901 0.2193-0.0271-0.0103-0.01806-0.3135-0.4565-0.3895-0.4011 0.1445 0.0271 0.2141-0.02967 0.2077-0.1716-0.03094-0.06061 0.623 1.174 0.6566 0.858 0.1354 0.3212-0.298-0.1496 0.0012 0.4375-0.1651-0.0064-0.8294-0.6245-0.8926-0.8076 0.05934 0.2541 0.4565 0.2877 0.4682 0.5031-0.1703-0.1342-0.4632 0.2012 0.4089 0.3302-0.8785-0.9406-4.219 1.23-5.264 1.051-0.2709-0.1354-2.681 0.3148-4.304 0.4749 0.049 0.08901 0.1226 0.1329 0.2193 0.129-0.2051 0.227-1.636 0.5871-1.529 0.2245zm66.43-14.21c0.2309-0.1806-0.03355 0.7906 0.05158 0.7197-0.2141-0.0774 2.452-4.992 2.727-5.313 0.0168 0.1883 0.1161 0.3199 0.2967 0.3948 0.0413-0.1741-0.3032-0.3962-0.2632-0.6026-0.1303 0.08771 2.011 5.147 2.215 5.747-1.995 0.387-3.997 0.7416-5.994 1.118 0.04773-0.1019 0.6245-1.606 0.9674-2.064zm19.29 3.403c1.985-0.6876 2.953-0.9392 4.403-1.676-4.403 0.6036 3.909-2.245-0.2232-2.497 0.9635-0.4375-1.987-0.1329-2.491-0.1432-0.1303-0.1135-1.037-0.2025 0.0477-0.7624-1.488-0.2322-3.109 0.1535-5.497 0.6696 4e-3 -0.08771 3e-3 0.0028 3e-3 -0.07352 0.6167-0.1432 1.231-0.2916 1.845-0.4449-0.6192 0.08901-1.233 0.2051-1.842 0.347 0.0258-0.9222-0.779-2.651-1.079-3.659 0.1625 0.369 0.3006 0.7444 0.4322 1.124-0.2335-0.9893-0.658-2.748-1.561-3.257 0-0.3212 0.894 1.334 0.689 0.8615-0.2606-0.3509-0.4449-0.5934-0.707-0.8319 0.0271 0.2038 0.1999 0.5161-0.08-0.03613 0.0103 0.03482 0.1484 0.4953 0.0374 0.6051 8e-3 -0.2761-0.267-0.4967-0.2838-0.7867 0.08 0.1393 0.08 0.1006 1e-3 -0.1135 0.0206 0.06322 0.0542 0.1161 0.0993 0.1587-0.4205-1.846-1.623-3.584-2.577-5.26 0.2245 0.3535 0.4516 0.7042 0.6813 1.054-0.574-1.011-1.276-1.752-1.779-2.758-1.071-2.136-1.098-2.254-0.0696-4.325 1.236-2.495 2.521-4.964 3.782-7.448-0.2077 0.4336-0.4114 0.8668-0.6206 1.299 5.228-10.68 10.32-21.85 16.84-31.64-0.1484 0.05546-0.2967 0.1109-0.4449 0.1651 0.1071-0.2051 0.2154-0.4103 0.3225-0.6153-0.3909 0.3354-1.015 0.4103-1.45 0.6954 0.1329-0.2748-0.276-1.413-0.236-1.829-3.305 6.513-5.475 10.86-9.409 16.42 0.7765-1.125-0.2877 0.08386-0.4968 0.4593-0.471 0.8464-0.7017 1.994-1.238 2.798-0.3367 0.5031-0.845 0.5546-1.002 0.7818-0.7829 1.131-1.384 2.517-2.206 3.902-1.228-0.8294-2.339 2.632-2.881 3.708 0-0.0014 0.2154-0.06964 0.2154-0.05677-0.2683 0.4696-0.7818 0.5056-0.8591 0.5147-0.49 0.4244-0.2193 0.4361-0.7508 0.4385-0.1174 0.3186-1.451 3.965-1.009 4.001-0.0839 0.03613 0.3831-0.3895 0.3535-0.3676-0.0955 0.0774-0.1342 0.3973-0.1368 0.3831-0.3006 0.01549-0.8785-0.1922-1.152-0.2477 5e-3 -0.05934 0.2154 0.316-0.1303 0.49-0.0142-0.1032-0.0258-0.543-0.0258-0.5458-0.2477 0.4593-0.1148 0.5147-0.4424 0.9519 0.5006 0.2115 0.3676 0.4308 0.8464 0.6746-0.3238 0.2115-1.022 0.9402-1.371 1.004 9e-3 0.1187 0.1754 0.02837 0.1522 0.2012-0.9004 0.04385-0.1716 0.556-0.0477 0.8707-0.098 0.147-0.6128 0.6629-0.8464 0.894-0.8023-0.6964-0.6153-0.6541-0.6255-1.179-0.0206-0.01161-0.3109 0.1238-0.2889 0.1535 0.2799-0.1793 0.1419-0.1922 0.3122-0.1844-0.2386-0.1974-1.167-0.5031-1.568-0.5507-0.0632-0.6851-0.6696-1.283-1.198-1.887-0.1987 0.2232-0.4399-0.3431-0.0774 0.5056-0.2696-0.5832-2.575-1.988-2.988-2.216-0.7056-0.3895-0.5973-1.276-2.008-0.7017 0.1071-1.836-1.13-1.62-2.599-2.051 0.3715-0.6139 0.2812-0.4978 0.3212-0.9183-1.511 0.4643-1.89-1.022-2.96-0.5842 0.06449-1.316-1.014-0.8527-1.316-1.77-0.1935 0.8799-0.5677 1.674-1.12 2.386-0.3019-0.7804-0.4205-1.588-0.356-2.421 0.04643 0.525-1.525-0.6128-0.8668-0.4269 0.4244 0.2361-1.794-0.6735-3.051-1.122 0.6372-0.06322 1.277-0.07867 1.918-0.04643-1.233-0.489-1.877-1.278-2.737-0.2696-0.16-1.344-1.509-0.9547-2.354-1.183-0.2258-0.06192-6.386-1.068-6.393-1.085 0.1135 0.05677 0.227 0.1097 0.3418 0.1638-0.1045 0.1677-0.2438 9e-3 -0.405 0.01161 0.1458-0.0028 0.3186 0.1122 0.2851 0.2335-0.8654-0.2464-1.152-0.5585-1.498-0.06192 9e-3 -0.01291 0.0028-0.01161-0.01937 0.0052-0.3328-0.7197-0.7804-0.7314-1.564-0.8552-0.2554-0.04128-0.9519 0.1999-1.554 0.2696-0.9635 0.1122-1.923 0.1922-2.884 0.3302-0.779 0.1122-1.999 1.684-1.979 0.3302-0.4152 1.065-1.629-0.8319-3.133-0.1883-0.03354-0.2838-0.9931 0.5366-1.226 0.6657-1.175 0.6513-1.619 0.52-1.562 1.659-0.3973-1.051-2.648-2.31-4.033-0.6784-0.08771 0.1032-0.0064 1.645-0.1987 2.335-0.6735-0.6089-0.6876-1.156-1.692-1.268-0.574 0.6192-2.757 0.659-3.567 0.9624-0.7377 0.2748-0.2477 0.1561-0.7197 0.3341-0.4477 0.169-3.524 1.144-2.488 0.8164-2.122 0.6707-5.07 2.477-5.698 3.022-1.026 0.8037-1.713 1.771-2.74 2.553-1.364-3.438-2.423-5.751-3.697-9.416 0.08771 0.1303 0.1767 0.2606 0.2645 0.3909-0.61-1.825-1.556-3.463-2.281-5.243-0.1574 0.06449 0.6876 2.105 0.6784 2.382-0.2761-1.429-1.583-3.199-1.086-3.74-0.774-1.994-1.684-3.987-2.495-5.991 0.4798 1.378 1.128 2.692 1.625 4.064-0.09931-0.2038-0.1987-0.4075-0.2967-0.61 0.1264 0.2606 0.9843 2.068 0.9455 1.969-0.0039 0.3019 0.1045 0.5133-0.08901 0.8294-0.1277-0.3096 0.08129-0.5094 0.05546-0.8153-0.05031 0.1948-0.09931 0.3909-0.1496 0.5856-0.5998-1.454-0.9907-3.627-1.851-4.851 0.2167 0.3599 0.4152 0.7303 0.5959 1.109-0.996-2.115-1.753-4.336-2.592-6.516 0.1393 0.3031 0.2799 0.6061 0.4205 0.9095-0.64-1.653-1.149-2.794-2.118-3.821 0.8644 0.1819 1.403 1.21 1.579 2.148-0.8061-2.069-2.194-2.699-3.934-4.195 0.209 0.4939 0.169 1.097 0.3496 1.602-0.1909-0.03482-0.3817-0.06964-0.5726-0.1058 0.05288 0.02067 0.6026 0.2748 0.6089 0.2748-0.1458-0.02452-0.2928-0.04904-0.4385-0.07352 0.4191 0.6541 1.057 2.536 1.775 2.096-0.2773 0.9275-0.5264 1.745-0.2038 2.219-0.05677 0.03355-0.5546 0.1367-0.6488 0.1342 1.344 2.659 1.847 5.278 2.42 7.906 0.641 2.941 2.263 6.163 2.557 9.095 0.1651-0.1729 0.3302-0.347 0.4967-0.5211 0.08901 0.06449 0.178 0.129 0.267 0.1922-1.536 0.5599 0.8037 7.501 1.319 8.943-0.0052-0.01161 0.0064-0.0271 0.02837 0.03228-0.0077 0.0028 0.1754-0.5017 0.147-0.4075 0.1548 0.2477-0.03483 0.694-0.08513 0.9741-0.2116-0.1238-0.423-0.249-0.6333-0.3729 0.8527 1.959 1.794 3.117 1.063 4.967-0.4399 1.118-1.36 1.41-1.756 2.13-0.1122 0.2038-0.6746 2.785-1.013 3.789-0.5624-0.3599-1.148-0.9056-1.023 0.1484-0.4036-0.3238-2.108 1.578-2.571 2.869-0.369 1.029-0.2296 1.763-0.4862 2.251-0.2825 0.5366-0.6089-0.01291-1.013 0.8644-0.4191 0.9056 0.1251 1.431-0.03094 2.396-2.618-0.7275-0.1574 7.268-2.495 7.747 0.4604 0.7148 0.4011 1.427 1.015 1.99-0.1935 0.8862-0.8552-1.923 0.02064 0.5948-2.406-0.09032-2.167 1.004-2.364 3.197-0.1625 1.793 0.356 3.969-0.0064 5.68-0.7095 3.354 1.336 0.6813-1.111 2.029-1.018 0.5613-3.004 0.6269-4.23 0.8746-2.326 0.4671-5.712 0.338-7.737 1.446-1.993 1.09-2.078 2.877-2.608 4.685 0.6372-0.0374 1.146 0.2283 1.525 0.7973-2.679 1.203-1.775 3.74-3.153 5.578 0.9441 0.3701 1.902-0.1251 3.025-0.4142-0.6294 0.6477-1.458 1.319-1.436 2.328 1.072-0.01806 5.504 0.3846 6.135-1.116-0.01935 0.1264-0.02708 0.2529-0.02064 0.3817 0.4128-0.6992 1.661-2.759 1.476-0.7546 0.81-1.713 1.065-0.3884 1.258 0.6065 0.9663-0.2335 3.29-2.146 3.63-2.869 0.5084 0.6206 0.3328 1.062 0.267 2.139 1.175-0.2309 3.313-1.062 4.519-1.024 1.89 0.06061 0.6322-0.6707 2.061 1.277 0.4488 0.6114 0.05546 0.1716 0.8838 0.2735-1.816 1.513 5.274 10.16 6.784 11.96 0.3613 0.4308 11.55 10.67 11.9 9.977-0.5288-0.3148-1.01-0.4798-1.496-0.7571 3.266 2.136 6.523 3.74 10.19 5.066-0.8139-0.3496-1.628-0.6992-2.442-1.049 0.9945 0.3354 3.934 1.682 4.135 1.729 1.076 0.2464 3.104 0.2528 3.973 0.943 0.7328 0.5832-0.2877 2.269 1.265 1.949-1.185 0.9688 2.195 7.035 2.278 8.541-0.08901-0.3729-0.1793-0.7416-0.2477-1.117 0.3817 0.5497 0.6128 1.569 0.9018 2.358 0.09159-0.0761 0.5094 0.0168 0.6036-0.0619 0 0.8566-0.6629 1.42 0.02966 2.927-0.1071-0.2812-0.1729-0.658-0.267-0.9649 0.7493 0.9494 1.305 1.297 2.425 2.393-0.9843-1.983 1.089-6.88 2.927-8.051-0.3457 0.2386-0.3367 0.1251 0.0271-0.3367-0.03613 0.1961-0.1342 0.3225-0.2915 0.3778-0.0028-0.2012 0.4632-0.996 0.5948-1.263 0.2283 0.5264 0.129 0.9067-0.3302 1.222 0.5856-0.3934 0.8411-1.438 1.441-2.201-0.01291-8e-3 -0.02579-0.0168-0.0374-0.0258-0.5288 0.5973-0.8541 1.202-1.028 1.921 0.03613-0.1148-0.01549-0.9702-0.02579-0.9624-0.0271 0.0438-0.04385 0.0309-0.05031-0.04 0.09674 0.187-0.178 0.7042-0.2232 0.8411 0.04128-0.1264-0.01676-1.269 0.2232-0.8411 0.0052 9e-3 0.9508-1.032 0.8513-1.116 0.1729 0.1432 0.01291 0.0309 0.0064 0.2657 0.3973 0.8178 0.05803-0.2425 0.1174-0.1651-0.03355-0.0271-0.02321-0.0194 0.02967 0.0219-0.1883-0.0851-0.2851-0.4424-0.3909-0.4914 1.082 0.4361 1.606-1.7 2.099-2.724 0.07998 0.1896 0.16 0.3793 0.2412 0.5687 0.2928-0.6746 0.6424-1.33 0.9624-1.993 0.5045 0.3831 2.201-0.0168 3.3-0.1651-0.4336 0.0903-0.8629 0.1032-1.289 0.0361 0.441-0.1303 1.325-0.3598 1.769-0.3238-0.8464 0.1535-1.916 0.2645-2.73 0.2502 1.508-0.1767 3.05-0.6439 3.768-0.845-0.1135 0.472-1.148 0.8848 0.0374 0.5842-1.125 0.4297-2.451 0.5186-3.704 0.6784 1.943-0.1922 3.421-0.6153 5.165-0.9766-0.307-0.0993-0.04258-0.2748-0.64-0.1445 0.1729-0.3174 0.1974-0.089-0.03228-0.3549 0.06322-0.0129 0.3831-0.1019 0.2928 0.0155 0.05419-0.071 0.2374-0.2825 0.2696-0.307 0.0064-4e-3 0.01549-0.0103 0.01418-9e-3 -0.01291 8e-3 0.4593 0.8721 0.5274 0.9843 1.251-1.008 3.994-0.9018 5.765-1.576-0.3083 0.1316-0.6245 0.2322-0.9494 0.3019 1.878-0.707 4.717-2.857 6.573-3.269-2.047 0.8965-3.916 1.864-6.043 2.628 1.111-0.6657 2.371-0.8178 3.502-1.391-0.02452 0.0155 2.908-1.384 3.391-1.749 1.16 0.3934 2.714-1.131 3.983-1.939-0.707 0.369 0.2451-0.2064 0.4488-0.3729-0.07225 0.0671-0.1277 0.12-0.2154 0.1767 0.3109 0.0219 0.6552-0.2064 1.067-0.1922-0.05934 0.04-0.1238 0.0696-0.1935 0.089 0.07483-0.0181 0.6463-0.209 0.2425-0.0851 0.7056-0.3057 2.85-2.523 3.069-2.459 0.7109-0.2103 3.443-1.61 3.443-2.41 0.4205-0.6294 0.6269-0.7702 0.8386-1.517-0.111 0.2116-0.2503 0.4011-0.4191 0.5662 0.04-0.2038 0.0439-0.2709 0.2245-0.3948-0.0181-0.0438 0.1161-0.5842 0.0413-0.4929 0.1368 0.2051 0.2812-0.0529 0.1535 0.3212-0.2632 0.7289 1.894-0.9212 1.323-1.029-0.6463 0.9339-0.5497 0.8051-1.254 0.8333 1e-3 -5e-3 1.37-0.2386 0.8256-1.315 0.1419-0.0568 1.587-1.321 1.566-1.299 0.2889-0.2812 0.2064-0.3264 0.1006-0.6837 0 0.2309 0.689-1.704 0.1948-0.06837 0.6308-1.42 2.502-2.746 3.28-3.726 0.5405-0.6813 0.5274-1.928 1.1-2.914 1.008 0.09289 0.761-1.202 1.66-1.437 0.0671-1.473 1.173-5.437 2.472-6.333-0.1561-0.1432-0.3225-0.07483-0.4967 0.2064 0.422-0.3057 0.3509-0.4361 0.1793-0.6915 0.0774-0.01419 0.6784-1.657 0.809-1.818-0.0735 0.2167-0.1316 0.4375-0.178 0.6629 0.0813-0.5094 0.2528-0.7109 0.4205-1.132-0.2374-0.08771 0.0722-0.02063-0.3174-0.6668 0.0851 0.1999 0.138 0.4103 0.1587 0.6283-0.0142-0.01934-0.2283-0.1032-0.2632-0.05161-0.0232-0.3715-0.0877-0.9663 0.1987-1.053-0.2735 0.0761-0.0413-0.1083-0.0903-0.4502 0.2993 0.2606 0.04 0.61-8e-3 0.9134 0.267-0.4219 0.1896-0.4142 0.1793-0.6901 0.0593 0.1161 0.0168 0.2012 0.1548 0.1548 0.0439-0.6216 0.5599-1.588 0.3109-2.345 0.1612 0.5303-0.2399 1.556-0.8435 1.466 0.1548-0.7829 1.323-0.1406 0.441-1.86 0.3135 0.2438 0.227 0.5973 0.2477 0.9441 9e-3 -0.2606-0.2283-1.147-0.2038-1.185 0.6333 0.3522 0.3584 1.072 0.3846 1.637 0.3652 0.01161-0.0761-1.527-0.3302-1.681 0.7585-0.1135 0.4336-0.9804 0.4618-1.177 0.0464 0.3006-0.0529 0.6308 0.0232 0.1754 0.0787 0.1909 0.0542 0.3057-0.0735 0.3431-0.0542-0.6439 0.7751-2.138-0.0916-2.052-0.0774-0.8319 0.1032-1.582 0.743-1.81-0.0503-0.1174-0.1974-0.1277 0.1174-0.04516-0.1961-0.472-0.1316-1.219-0.1277-1.336 3e-3 -0.0064 0.1367 0.1561 0.1664 0.08513-0.507-0.4089-0.2812-4.145-0.3122-4.657 0.1832 1.338-0.4876-3.662 0.0658-1.446-0.0851-0.556-0.169-2.461-0.4579-2.934 0.147 0.2412 0.1458 1.976 0.2128 2.336 0.0413-0.8566-1.026-2.935-0.2812-3.662 0.7158-0.6978 2.003 0.8838 2.38-0.6283" fill="#211e1e" stroke-width=".3528"/>
</svg>
