<?xml version="1.0" standalone="no"?>
<!DOCTYPE svg PUBLIC "-//W3C//DTD SVG 20010904//EN"
 "http://www.w3.org/TR/2001/REC-SVG-20010904/DTD/svg10.dtd">
<svg version="1.0" xmlns="http://www.w3.org/2000/svg"
 width="1000.000000pt" height="518.000000pt" viewBox="0 0 1000.000000 518.000000"
 preserveAspectRatio="xMidYMid meet">

<g transform="translate(0.000000,518.000000) scale(0.100000,-0.100000)"
fill="#000000" stroke="none">
<path d="M4830 5174 c-238 -21 -505 -78 -695 -148 -55 -21 -167 -70 -250 -111
-282 -138 -442 -254 -705 -511 -102 -99 -473 -450 -825 -779 -1113 -1041
-1710 -1601 -1721 -1616 -7 -8 -88 -180 -182 -384 -93 -203 -231 -504 -307
-668 -75 -165 -134 -301 -132 -304 3 -2 316 116 696 263 l690 268 533 498
c349 327 534 494 539 486 3 -7 10 -35 14 -63 4 -27 22 -109 41 -182 194 -754
754 -1404 1474 -1711 803 -342 1709 -264 2431 209 122 80 276 198 359 275 84
78 1213 1134 1710 1599 212 198 495 464 629 590 l244 230 177 385 c97 212 236
515 309 673 73 159 130 291 128 294 -3 2 -316 -116 -696 -263 l-691 -268 -506
-474 c-356 -333 -509 -471 -514 -462 -5 8 -11 34 -15 59 -3 25 -18 91 -31 146
-194 785 -739 1436 -1474 1759 -183 80 -444 154 -665 187 -125 19 -459 32
-565 23z m426 -1199 c275 -47 522 -170 720 -358 212 -200 348 -437 416 -721
19 -77 22 -121 23 -291 0 -221 -15 -318 -77 -494 -160 -453 -550 -790 -1038
-897 -68 -15 -126 -19 -285 -19 -176 1 -211 3 -295 24 -570 141 -954 541
-1077 1121 -27 126 -24 401 4 531 29 128 55 204 112 325 202 424 595 716 1056
783 102 15 344 12 441 -4z"/>
<path d="M4450 2590 l0 -580 573 2 572 3 0 575 0 575 -572 3 -573 2 0 -580z"/>
</g>
</svg>
