<svg xmlns="http://www.w3.org/2000/svg" width="500" height="500" viewBox="0 0 132.292 132.292"><g style="display:inline;opacity:1"><path style="display:inline;fill:#000;stroke-width:.264583" d="M60.504 11.627A60.333 60.333 0 0 0 .198 71.959a60.333 60.333 0 0 0 60.333 60.333 60.333 60.333 0 0 0 60.333-60.333A60.333 60.333 0 0 0 60.53 11.627a60.333 60.333 0 0 0-.027 0zm-.136 7.28a53.053 53.053 0 0 1 .163 0 53.053 53.053 0 0 1 37.477 15.501H23.054a53.053 53.053 0 0 1 37.314-15.502zM22.981 34.481v74.955A53.053 53.053 0 0 1 7.478 71.959a53.053 53.053 0 0 1 15.503-37.477zm75.1 0a53.053 53.053 0 0 1 15.503 37.477 53.053 53.053 0 0 1-15.502 37.478zm-72.916 2.112h31.49a35.577 35.577 0 0 0-31.49 31.495zm39.238 0h31.493v31.49a35.577 35.577 0 0 0-31.493-31.49zm-3.872 1.3A34.065 34.065 0 0 1 94.596 71.96a34.065 34.065 0 0 1-34.065 34.065 34.065 34.065 0 0 1-34.065-34.065 34.065 34.065 0 0 1 34.065-34.065zm-15.705 18.36v31.41h31.41v-31.41zM25.166 75.83a35.577 35.577 0 0 0 31.493 31.494H25.165zm70.73.003v31.49H64.407a35.577 35.577 0 0 0 31.49-31.49zM23.054 109.51h74.954a53.053 53.053 0 0 1-37.477 15.502 53.053 53.053 0 0 1-37.477-15.502z" transform="translate(-.198)"/><path style="fill:#000;fill-opacity:1;stroke-width:.264583" d="M84.515 0h47.975v47.975z" transform="translate(-.198)"/></g></svg>