<svg width="500" height="500" version="1.1" viewBox="0 0 132.3 132.3" xmlns="http://www.w3.org/2000/svg">
  <g transform="matrix(.3528 0 0 .3528 -21.83 -44.79)">
    <path transform="matrix(.75 0 0 .75 61.89 127)" d="m240 33.57c-0.1897 0.001067-0.3784 0.01628-0.5664 0.05273-0.8794 0.1731-1.509 0.9396-1.832 1.801l-0.04492 0.6738c0.7564 9.5 1.654 19 1.904 28.54l-0.03125-0.00586c-8.657-0.2324-17.23-1.061-25.84-1.74-1.034-0.082-2.113-0.3287-2.975-0.1328-0.688 0.1595-1.199 0.7013-1.6 1.316l-0.1914 0.6875 0.00586 0.2148 0.02734 0.7832c0.3235 1.754 0.6153 3.519 0.8613 5.287 0.278 2 0.3965 4.15 0.3965 4.15-0.07289 2.948-0.6381 5.887-1.162 8.799-0.03186 0.1914-0.06907 0.3809-0.1055 0.5723l-0.02343 0.7109s3e-5 0.5112 0.1914 0.9258c0.2916 0.6516 0.9162 1.043 1.6 1.316l0.7148 0.05078 0.2734-0.02344 0.7754-0.05859c9.031-0.7199 18.04-1.628 27.08-1.842v0.009765c-0.1777 6.283-0.6896 12.69-1.182 19.12-0.05012 0.6424-1.244 2.242-1.777 2.41-9.559 3.057-17.92 9.431-23.39 17.78-6.589 10.07-8.717 22.85-5.842 34.46 0.01187 0.04796 0.02702 0.09469 0.03907 0.1426-17.85-8.029-37.84-16.64-52.21-21.63-28.75-9.978-84.56-12.33-119.8 19.27-25.82 23.15-41.01 55.58-33.22 96.15 8.037 41.89 32.31 74.3 41.18 94.09 3.408 7.606 6.115 15.33 8.262 22.63 0.4377 3.051 0.3581 7.598-3.055 10.55-3.025 2.611-2.542 8.411-1.248 10.57 4.516 7.517 5.867 8.414 4.609 9.559-2.835 0.2128-5.67 0.4263-8.504 0.6484-1.112 0.08658-3.332 0.9433-3.322 4.119 0 2.365-0.01364 8.037 0 10.32 0.01367 3.085 2.205 3.217 3.312 3.131 1.854-0.1458 2.87-0.3288 4.729-0.4336 0.8931-0.05012 1.363 0.5887 1.363 1.24 0 2.301 0.02349 11.2 0.05078 13.57 0.009111 0.7837-1.305 1.377-1.305 1.377-1.08 0.08657-3.249 0.9433-3.244 4.119 0.004667 2.365-0.009333 8.037 0 10.32 0.01367 3.085 2.156 3.217 3.236 3.131 0.9061-0.07323 1.813-0.1407 2.719-0.2129 0.8664 0.2253 1.955 0.9164 2.344 3 0.3671 1.972 0.06888 2.902-0.2832 3.355-1.108 0.2876-2.677 1.317-2.68 4.131 0.01994 3.157 2.103 3.294 3.154 3.203 63.91-5.454 128-8.475 191.9-8.502 16.1-0.00456 32.01 0.4428 48.02 0.7754 50.94 1.057 101.9 3.841 152.7 8.352 1.098 0.09568 3.229-0.8201 3.293-3.08 0.00181-0.06476 3.4e-4 -0.02832 0.00195-0.08398-0.00246-0.08083-0.00447-0.134-0.00195-0.5859 0.01118-2.002-1.36-3.081-2.42-3.461-0.41-0.3634-0.869-1.27-0.4453-3.547 0.3628-1.943 1.336-2.677 2.168-2.951 0.884 0.07334 1.768 0.1386 2.652 0.2129 1.125 0.09112 3.312-0.798 3.381-2.994 0.0684-2.378-0.0136-8.634 0-11.01 0.01367-2.378-1.263-3.435-2.311-3.521-0.5696-0.04556-1.609-1.026-1.586-1.596 0.1321-2.93-0.04948-9.204 0.07812-12.22 0.09114-2.105 1.121-2.396 5.268-1.986 1.148 0.1139 3.391-0.798 3.459-2.994 0.07293-2.378-0.0136-8.629 0-11.01 0.01366-2.378-2.151-3.43-3.227-3.521-2.699-0.2198-5.4-0.4273-8.1-0.6387-1.172-1.124 0.2049-2.097 4.664-9.514 1.289-2.151 1.772-7.956-1.254-10.57-5.527-4.775-2.314-13.76-2.314-13.76h-0.00586c2.027-6.594 4.489-13.47 7.533-20.26 8.871-19.79 33.14-52.2 41.18-94.09 7.787-40.57-7.406-73-33.23-96.15-35.25-31.6-91.07-29.25-119.8-19.27-14.57 5.055-34.9 13.83-52.93 21.95 1.726-6.666 1.953-13.7 0.457-20.41-3.358-15.04-14.97-27.59-29.63-32.21-0.3691-0.1185-1.575-1.816-1.611-2.309-0.4875-6.379-1.017-12.76-1.186-19.18h0.03126c8.671 0.2324 17.26 1.067 25.86 1.746 1.025 0.082 2.097 0.3229 2.953 0.127 0.6926-0.1595 1.198-0.6974 1.604-1.312l0.1855-0.6875-0.0039-0.2129-0.02735-0.7852c-0.3372-1.813-0.6322-3.632-0.8828-5.459-0.2552-1.886-0.3691-3.98-0.3691-3.98 0.06833-2.943 0.6368-5.888 1.156-8.795 0.0364-0.1959 0.06907-0.3868 0.1055-0.5781l0.02344-0.7109s-6.9e-4 -0.5111-0.1875-0.9258c-0.2962-0.647-0.92-1.043-1.604-1.316l-0.7109-0.05078-0.2734 0.02344-0.7656 0.05859c-9.022 0.7199-18.03 1.627-27.1 1.846l0.00586-0.01367c0.2461-8.794 1.031-17.34 1.705-26 0.08662-1.116 0.3418-2.298 0.1504-3.195-0.1412-0.6607-0.6349-1.162-1.195-1.572l-0.00195 0.001953c-0.2142-0.07747-0.4226-0.151-0.6367-0.2285l-0.748-0.02344c-6.169 0.5923-11.86 0.6483-17.57 0.1426-0.5878-0.0512-1.165-0.1751-1.734-0.1719zm209.2 429.7c0.01051 0.3452 0.04781-1.659 0 0zm-57.63-292.8c64.68 1.099 78.94 74.59 59.27 110.4-14.33 26.1-25.12 61.54-31.99 88.44-2.623 4.578-7.267 5.99-9.213 9.018-5.155 8.032 5.117 18.9 1.461 20.43-13.41-0.8572-26.83-1.609-40.25-2.258-1.171-1.596 3.011-8.502 4.861-10.32 2-1.968 1.805-7.947-0.8106-11.52-5.826-7.973-5.817-14.05-5.498-16.47 0.6488-2.744 1.334-5.522 2.104-8.363 11-40.57 34.55-57.78 37.91-98.95 2.2-26.93-11.23-61.33-54.36-75.39 8.054-1.876 15.81-3.37 22.9-4.268 4.765-0.6029 9.303-0.8526 13.62-0.7793zm-283.2 0.1289c4.312-0.07326 8.85 0.1745 13.62 0.7773 7.089 0.8971 14.84 2.392 22.89 4.268-43.13 14.06-56.55 48.46-54.35 75.39 3.363 41.17 26.92 58.37 37.91 98.95 0.7695 2.84 1.453 5.615 2.102 8.357 0.321 2.41 0.338 8.493-5.492 16.47-2.615 3.577-2.817 9.555-0.8164 11.52 1.686 1.656 5.306 7.531 5.049 9.771-13.32 0.598-26.64 1.296-39.95 2.1-4.933-0.8426 6.328-12.23 0.9785-20.56-2.058-3.207-7.145-4.613-9.652-9.881-6.896-26.69-17.52-61.18-31.55-86.75-19.67-35.83-5.411-109.3 59.27-110.4zm196.9 29.55c21.3-0.2913 39.39 7.076 50.22 14.14 38.45 25.1 5.153 73.02-4.133 100.8-5.661 16.94-9.392 31.93-11.83 44.72-0.7545 2.082-2.354 5.335-5.438 7.193-5.167 3.107-9.559 4.721-10.15 7.596-1.905 9.272 4.461 12.03 3.682 15.6-0.5376 2.455-3.361 4.518-3.752 4.131 0.00988 0.02799 0.09012 0.2433 0.125 0.3398-18.23-0.5516-36.46-0.9068-54.68-1.074-0.6336-0.7667-0.6528-2.247 0.7949-5.611 2.843-6.602 7.136-10.79 7.678-16.32 0.246-2.479-0.2996-4.001-3.922-8.152-1.186-1.361-2.038-3.246-2.648-5.012-0.5291-5.345-1.083-11.13-1.59-16.78-1.063-11.85-1.922-22.94-1.922-27.24v-6.43h5.73c10.39 0 50.71 5.298 59.1 6.383 0.9568 0.123 2.46-1.712 2.246-3.043-0.729-4.506-2.328-14.1-2.328-21.45 0-0.9756 0.02751-2.005 0.07812-3.064 0.3543-7.419 1.807-16.41 2.377-20.05 0.1412-0.9158-1.457-2.488-2.469-2.355-8.561 1.116-48.29 6.369-58.64 6.369h-6.092v-6.93c0-5.903 1.393-22.81 2.805-38.67l0.4297-0.03711s0.02245-3.34 1.631-5.559c2.374-3.258 6.279-7.213 6.215-9.91-0.06371-2.688-0.9479-4.167 0.2012-5.121 1.302-0.4836 2.647-0.9306 4.059-1.316 7.664-2.094 15.12-3.044 22.22-3.141zm18.6 194.2c-0.00382-0.0108-0.04883-0.1309-0.04883-0.1309-6.6e-4 0.05922 0.01891 0.1012 0.04883 0.1309zm-129.1-194.1c7.1 0.0971 14.56 1.045 22.22 3.139 1.026 0.2805 2.014 0.5966 2.982 0.9297 1.88 0.9423 0.798 2.434 0.7266 5.439-0.0638 2.697 3.841 6.658 6.215 9.916 1.608 2.214 1.631 5.559 1.631 5.559l0.459 0.03906c1.409 15.84 2.799 32.71 2.799 38.6v6.93h-6.092c-10.42 0-50.69-5.331-58.83-6.393-0.893-0.1185-2.42 1.486-2.27 2.447 0.6561 4.228 2.441 15.29 2.441 23.05 0 7.568-1.694 17.58-2.391 21.83-0.1777 1.098 1.311 2.792 2.195 2.674 8.11-1.048 48.77-6.396 59.21-6.396h5.73v6.43c0 6.248-1.811 26.75-3.43 43.17-0.3331 1.178-0.7149 2.392-1.203 3.512-1.613 3.695-5.08 6.898-4.984 9.596 0.2734 7.678 3.499 11.23 6.611 17.71 0.09204 0.1909 1.149 3.277 0.1914 5.088-17.61 0.1139-35.21 0.4041-52.8 0.875 0.01295-0.02594 0.02583-0.0511 0.02539-0.08985 0 0-0.0314 0.08474-0.0332 0.08985-0.1517 0.00406-0.3034 0.00763-0.4551 0.01171-0.921-0.3682-2.869-2.102-3.307-4.102-0.7792-3.568 5.586-6.33 3.682-15.6-0.5924-2.875-4.984-4.488-10.15-7.6-3.072-1.846-4.672-5.079-5.432-7.164-2.44-12.8-6.173-27.8-11.84-44.75-9.286-27.78-42.58-75.71-4.133-100.8 10.83-7.067 28.92-14.43 50.22-14.14zm50.38 244c16.53-0.00456 32.87 0.1511 49.3 0.4746 48.3 0.951 96.6 3.348 144.8 7.162 0.1755 0.03888 0.293 0.05611 0.4961 0.1055 0.9751 0.2369 0.3274 2.56-0.1738 4.523-0.2936 1.161-1.102 1.609-1.49 1.76-6.4e-4 -6e-5 -0.0013 5e-5 -0.00195 0-63.73-5.388-127.6-8.091-191.2-8.121-4.502 0-8.999 0.0104-13.5 0.0332-57.44 0.3178-114.8 2.8-172 7.449-0.4169-0.1942-1.078-0.6361-1.342-1.682-0.5012-1.964-1.147-4.282-0.1719-4.523 0.3342-0.08123 0.5553-0.1199 0.8164-0.1738 61.47-4.65 123-6.978 184.5-7.008z"/>
    <g fill="#fff" fill-rule="evenodd">
      <path d="m117.1 439.3c3.65 0 6.612 2.963 6.612 6.612 0 3.646-2.963 6.609-6.612 6.609-3.646 0-6.609-2.963-6.609-6.609 0-3.65 2.963-6.612 6.609-6.612"/>
      <path d="m139.1 437.9c3.646 0 6.609 2.963 6.609 6.612 0 3.646-2.963 6.609-6.609 6.609-3.65 0-6.612-2.963-6.612-6.609 0-3.65 2.963-6.612 6.612-6.612"/>
      <path d="m161.1 436.8c3.646 0 6.609 2.963 6.609 6.612 0 3.646-2.963 6.609-6.609 6.609-3.65 0-6.612-2.963-6.612-6.609 0-3.65 2.963-6.612 6.612-6.612"/>
      <path d="m381.3 439.8c3.65 0 6.612 2.963 6.612 6.612 0 3.646-2.963 6.609-6.612 6.609-3.65 0-6.612-2.963-6.612-6.609 0-3.65 2.963-6.612 6.612-6.612"/>
      <path d="m249.2 434.3c3.65 0 6.612 2.966 6.612 6.612 0 3.65-2.963 6.612-6.612 6.612-3.65 0-6.609-2.963-6.609-6.612 0-3.646 2.959-6.612 6.609-6.612"/>
      <path d="m359.2 438.3c3.646 0 6.609 2.963 6.609 6.612 0 3.646-2.963 6.609-6.609 6.609-3.65 0-6.612-2.963-6.612-6.609 0-3.65 2.963-6.612 6.612-6.612"/>
      <path d="m337.2 437c3.65 0 6.612 2.963 6.612 6.612 0 3.65-2.963 6.612-6.612 6.612-3.646 0-6.609-2.963-6.609-6.612 0-3.65 2.963-6.612 6.609-6.612"/>
      <path d="m315.2 435.8c3.646 0 6.609 2.963 6.609 6.609 0 3.65-2.963 6.612-6.609 6.612-3.65 0-6.612-2.963-6.612-6.612 0-3.646 2.963-6.609 6.612-6.609"/>
      <path d="m293.2 435.1c3.65 0 6.612 2.963 6.612 6.612 0 3.65-2.963 6.612-6.612 6.612-3.646 0-6.609-2.963-6.609-6.612 0-3.65 2.963-6.612 6.609-6.612"/>
      <path d="m183.2 435.6c3.65 0 6.609 2.963 6.609 6.612 0 3.646-2.959 6.612-6.609 6.612-3.65 0-6.612-2.966-6.612-6.612 0-3.65 2.963-6.612 6.612-6.612"/>
      <path d="m205.2 435.1c3.65 0 6.612 2.963 6.612 6.612 0 3.65-2.963 6.612-6.612 6.612-3.65 0-6.612-2.963-6.612-6.612 0-3.65 2.963-6.612 6.612-6.612"/>
      <path d="m227.2 434.7c3.65 0 6.612 2.963 6.612 6.612 0 3.65-2.963 6.612-6.612 6.612-3.65 0-6.612-2.963-6.612-6.612 0-3.65 2.963-6.612 6.612-6.612"/>
      <path d="m271.2 434.5c3.65 0 6.612 2.963 6.612 6.612 0 3.646-2.963 6.609-6.612 6.609-3.646 0-6.609-2.963-6.609-6.609 0-3.65 2.963-6.612 6.609-6.612"/>
    </g>
  </g>
</svg>
