<?xml version="1.0" standalone="no"?>
<!DOCTYPE svg PUBLIC "-//W3C//DTD SVG 20010904//EN"
 "http://www.w3.org/TR/2001/REC-SVG-20010904/DTD/svg10.dtd">
<svg version="1.0" xmlns="http://www.w3.org/2000/svg"
 width="500.000000pt" height="500.000000pt" viewBox="0 0 500.000000 500.000000"
 preserveAspectRatio="xMidYMid meet">

<g transform="translate(0.000000,500.000000) scale(0.100000,-0.100000)"
fill="#000000" stroke="none">
<path d="M2140 4575 l-355 -355 -507 0 -508 0 0 -507 0 -508 -352 -352 -353
-353 353 -353 352 -352 0 -508 0 -507 507 0 508 0 357 -357 358 -358 358 358
357 357 508 0 507 0 0 507 0 508 352 352 353 353 -353 353 -352 352 0 508 0
507 -508 0 -507 0 -355 355 c-195 195 -357 355 -360 355 -3 0 -165 -160 -360
-355z m485 5 l120 -120 -245 0 -245 0 120 120 c66 66 122 120 125 120 3 0 59
-54 125 -120z m292 -292 c29 -29 53 -56 53 -60 0 -4 -211 -8 -470 -8 -258 0
-470 3 -470 7 0 4 23 31 52 60 l52 53 365 0 365 0 53 -52z m-1657 -231 c0 -1
-72 -74 -160 -162 l-160 -160 0 163 0 162 160 0 c88 0 160 -1 160 -3z m30
-332 c-184 -184 -338 -335 -342 -335 -5 0 -8 37 -8 82 l0 83 252 252 253 253
90 0 90 0 -335 -335z m1052 212 l-122 -124 0 -191 0 -192 -70 0 c-68 0 -75 2
-156 51 -47 28 -87 49 -90 46 -3 -3 6 -23 20 -45 l25 -41 -57 -6 -57 -7 -135
-134 -135 -134 -135 135 c-122 122 -138 135 -170 135 l-35 0 102 102 103 103
70 -70 70 -70 88 88 87 87 123 0 122 0 0 122 0 123 72 72 72 73 165 0 165 0
-122 -123z m595 51 l73 -72 0 -123 0 -123 122 0 123 0 87 -87 88 -88 70 70 70
70 103 -103 102 -102 -35 0 c-32 0 -48 -13 -170 -135 l-135 -135 -135 135
-135 135 -193 0 -192 0 0 192 0 191 -122 124 -122 123 164 0 165 0 72 -72z
m870 -180 l253 -253 0 -82 c0 -46 -3 -83 -8 -83 -4 0 -158 151 -342 335 l-335
335 90 0 90 0 252 -252z m253 92 c0 -88 -1 -160 -3 -160 -1 0 -74 72 -162 160
l-160 160 163 0 162 0 0 -160z m-1092 -740 l192 0 0 -192 0 -193 137 -137 138
-138 -138 -138 -137 -137 0 -193 0 -192 -192 0 -193 0 -137 -137 -138 -138
-138 138 -137 137 -193 0 -192 0 0 193 0 192 -135 135 -135 135 -135 -135
-135 -135 0 -193 0 -192 -177 2 -178 3 -3 109 c-3 124 -2 126 71 126 l47 0 0
122 0 123 87 87 88 88 -88 88 -87 87 0 123 0 122 -47 0 c-73 0 -74 2 -71 126
l3 109 178 3 177 2 0 -192 0 -193 135 -135 135 -135 135 135 135 135 0 192 0
193 195 0 195 0 47 -29 c26 -17 49 -28 51 -26 2 2 -8 22 -23 45 -15 23 -24 49
-20 59 3 9 53 64 111 121 l105 104 137 -137 137 -137 193 0z m1090 -122 l3
-118 -61 0 -60 0 0 -122 0 -123 -87 -87 -88 -88 87 -87 87 -88 3 -125 3 -125
58 -3 58 -3 -3 -112 -3 -112 -172 -3 -173 -2 0 191 0 192 -137 139 -137 138
137 138 137 139 0 192 0 191 173 -2 172 -3 3 -117z m-3288 -540 l0 -472 -55
54 -55 54 0 365 0 365 52 53 c29 29 54 53 55 53 2 0 3 -212 3 -472z m3570 2
l0 -366 -55 -54 -55 -54 0 474 0 474 55 -54 55 -54 0 -366z m-3810 -2 l0 -233
-117 117 -118 118 115 115 c63 63 116 115 117 115 2 0 3 -105 3 -232z m4060
117 l115 -115 -115 -115 c-63 -63 -118 -115 -122 -115 -5 0 -8 104 -8 230 0
127 3 230 8 230 4 0 59 -52 122 -115z m-2547 -1055 l187 0 0 -187 0 -188 122
-122 123 -123 -170 0 -169 0 -68 67 -68 67 0 128 0 128 -127 0 -128 0 -87 87
-88 88 -70 -70 -70 -70 -95 95 -95 95 31 7 c23 4 69 43 168 142 l136 136 140
-140 140 -140 188 0z m1536 136 c79 -78 146 -136 159 -138 20 -3 11 -15 -73
-98 l-95 -95 -69 69 -69 69 -90 -87 -89 -86 -122 0 -121 0 0 -122 0 -123 -72
-72 -72 -73 -165 0 -165 0 122 123 122 124 0 186 0 187 187 0 187 0 135 135
c75 74 140 135 145 135 5 0 71 -60 145 -134z m-1969 -748 c0 -5 -39 -8 -87 -8
l-88 0 -247 247 -248 248 0 95 0 95 335 -335 c184 -184 335 -338 335 -342z
m2450 580 l0 -83 -252 -252 -253 -253 -90 0 -90 0 335 335 c184 184 338 335
342 335 5 0 8 -37 8 -82z m-2955 -428 l160 -160 -163 0 -162 0 0 160 c0 88 1
160 3 160 1 0 74 -72 162 -160z m2955 0 l0 -160 -167 0 -168 0 160 160 c88 88
163 160 167 160 5 0 8 -72 8 -160z m-1090 -328 c0 -4 -26 -33 -58 -65 l-58
-57 -355 0 -355 0 -57 58 c-31 32 -57 61 -57 65 0 4 212 7 470 7 259 0 470 -4
470 -8z m-358 -364 l-112 -113 -112 113 -113 112 225 0 225 0 -113 -112z"/>
<path d="M2410 3005 l-85 -85 -122 0 -123 0 0 -121 0 -122 -87 -88 -87 -89 87
-89 87 -88 0 -122 0 -121 121 0 122 0 88 -87 89 -87 89 87 88 87 122 0 121 0
0 121 0 122 87 88 87 89 -87 89 -87 88 0 122 0 121 -123 0 -122 0 -85 85 c-47
47 -87 85 -90 85 -3 0 -43 -38 -90 -85z"/>
</g>
</svg>
