<?xml version="1.0" encoding="UTF-8"?>
<svg id="uuid-f160c02a-6591-4198-ad3d-46d41e3c0f67" xmlns="http://www.w3.org/2000/svg" viewBox="0 0 500 500">
	<defs>
		<style>
			.uuid-d898073d-50ff-4e40-beaf-5afa653e65e5{fill-rule:evenodd;}
		</style>
	</defs>
	<path class="uuid-d898073d-50ff-4e40-beaf-5afa653e65e5" d="M433,417.21c-30.25,33.57-69.48,59.1-113.18,72.25-54.18,16.31-113.73,13.54-166.68-8.61-55.92-23.39-102.71-68.06-128.89-122.86C-3.53,299.85-7.69,230.83,13.07,169.53c17.54-51.8,52.61-97.42,97.99-127.76C151.38,14.83,199.87,.23,248.08,.11h.8c47.82,.12,95.86,14.42,136.08,41.04,10.98,7.26,21.36,15.43,31.04,24.35,46.75,40.79,77.59,99.53,83.08,162.69,3.77,43.42-4.19,87.8-23.1,127.08-10.97,22.78-25.59,43.68-42.99,61.94h0ZM250.07,27.29c-.65,0-1.3,0-1.95,0-42.88,.1-85.5,12.89-121.26,36.56C71.72,100.34,34,162.18,27.84,229.35c-3.66,39.98,3.54,80.83,20.77,116.88,29.9,62.58,89.78,109.62,158.62,122.66,14.12,2.68,28.49,3.94,42.85,3.83V27.29h0Z" />
</svg>
