<?xml version="1.0" standalone="no"?>
<!DOCTYPE svg PUBLIC "-//W3C//DTD SVG 20010904//EN"
 "http://www.w3.org/TR/2001/REC-SVG-20010904/DTD/svg10.dtd">
<svg version="1.0" xmlns="http://www.w3.org/2000/svg"
 width="501.000000pt" height="500.000000pt" viewBox="0 0 501.000000 500.000000"
 preserveAspectRatio="xMidYMid meet">

<g transform="translate(0.000000,500.000000) scale(0.100000,-0.100000)"
fill="#000000" stroke="none">
<path d="M3595 4989 c-477 -65 -872 -370 -1102 -849 -109 -228 -177 -493 -273
-1075 -34 -203 -64 -372 -67 -375 -15 -14 -159 176 -284 376 -44 71 -86 129
-93 129 -7 0 -49 -45 -93 -100 -92 -115 -192 -212 -311 -304 -80 -62 -82 -65
-65 -82 10 -9 94 -62 186 -118 185 -110 355 -226 432 -295 l50 -44 -45 -47
c-69 -72 -407 -386 -580 -540 -298 -265 -723 -610 -1142 -926 -108 -82 -199
-153 -202 -158 -4 -5 20 -24 51 -42 230 -130 344 -241 468 -456 26 -46 50 -83
54 -83 3 1 60 74 126 163 268 361 617 804 825 1047 258 301 693 770 714 770
29 -1 235 -294 386 -549 46 -78 87 -141 91 -141 5 0 36 37 70 81 92 121 180
211 307 312 62 50 109 94 105 98 -4 4 -68 46 -142 94 -182 117 -382 268 -370
279 4 4 96 22 205 42 488 86 598 107 734 140 443 109 763 272 1007 512 231
228 356 510 370 837 27 615 -384 1150 -987 1286 -101 23 -323 32 -425 18z
m315 -369 c109 -22 213 -61 297 -112 445 -267 574 -892 278 -1338 -59 -89
-208 -230 -325 -308 -362 -241 -911 -389 -1517 -409 l-193 -6 0 139 c0 318 52
676 141 984 119 407 344 758 588 915 110 71 273 132 396 148 88 12 243 6 335
-13z"/>
</g>
</svg>
