<svg width="500" height="500" version="1.1" viewBox="0 0 132.3 132.3" xmlns="http://www.w3.org/2000/svg">
  <g transform="matrix(.3528 0 0 .3528 -21.83 -44.79)">
    <path d="m234.4 366.2h30.06v-8.394h-21.54v-74.01l11.34-13.27-11.34 2.05v-11.37h-8.525v12.91-12.91h-72.84v-72.53l64.28-25.07 46.84 0.1031 66.01 25.66 0.0752 71.83h-74.13v35.09l49.41 5.187 4.736-31.09h19.99l0.1504 127.4-74.55 67.63v-67.17h-30.24v67.17l-72.58-67.17v-127.8h18.7l4.736 31.09 49.41-5.187zm118.6-57.37v-36.27l34.18 5.065 2.415 16.94 16.16 4.886-17.22 53.08 18.17-8.238 15.95-66.2-69.66-14.02v-68.89l83.92 32.62-5.472 121.8-18.47-2.34-2.081 16.38-12.44 3.14 0.4625 5.87 11.29-1.755 0.4597 10.36-7.951 5.026 1.215 17.7-8.542 26.32-42.39-25.95v-78.35l17.31-20.27zm-290.1-60.04-0.9416-20.98 85.39-33.3v69.57l-69.66 14.02 15.95 66.2 18.17 8.238-17.22-53.08 16.16-4.886 2.415-16.94 34.18-5.065v131.8l-43.86 25.73-8.542-26.1 1.215-17.7-7.954-5.026 0.4652-10.36 11.29 1.755 0.4652-5.421-12.44-3.588-2.081-16.38-18.47 2.34-4.251-94.58 6.31-7.388-6.589 1.192" fill-rule="evenodd"/>
  </g>
</svg>
