<?xml version="1.0" encoding="UTF-8"?>
<svg width="500" height="500" version="1.1" viewBox="0 0 132.3 132.3" xmlns="http://www.w3.org/2000/svg" xmlns:cc="http://creativecommons.org/ns#" xmlns:dc="http://purl.org/dc/elements/1.1/" xmlns:rdf="http://www.w3.org/1999/02/22-rdf-syntax-ns#">
  <g transform="matrix(.3528 0 0 .3528 29.95 111.5)">
    <path d="m252.1-271.6c1.894 1.337 8.32-5.09 8.32-5.09l4e-3 -4e-3h-4e-3c-1.328-1.341-5.934-4.944-5.934-4.944-0.15-0.1157-0.2914-0.2399-0.4327-0.3556l-0.06-0.0471c-0.0429-0.03-0.0814-0.0685-0.12-0.1114-0.2571-0.2614-0.3942-0.7241-0.3899-1.187-9e-3 -0.4284 0.1028-0.844 0.3728-1.071 0.0557-0.06 0.12-0.1114 0.1928-0.1542h4e-3c1.928-1.251 3.68-2.592 5.231-4.019 1.517-1.461 2.965-3.128 4.332-4.974l4e-3 -4e-3c0.0386-0.06 0.0857-0.1114 0.1371-0.1585l0.0128-0.0171 9e-3 -9e-3c9e-3 -9e-3 0.0214-0.0171 0.0301-0.0257l0.0128-0.0129c0.2528-0.2228 0.6512-0.2999 1.054-0.2656 0.4627 0.0214 0.9169 0.1928 1.161 0.4627 0.0385 0.0386 0.0728 0.0814 0.1028 0.1242l0.0429 0.0643c0.107 0.15 0.2228 0.2956 0.3299 0.4542 1.461 2.176 2.991 4.254 4.572 6.23 0 0 5.27-6.332 5.3-6.371l0.0472-0.06c0.0299-0.0428 0.0686-0.0814 0.1114-0.12 0.2571-0.2571 0.7241-0.3942 1.187-0.3899 0.4284-9e-3 0.844 0.1028 1.071 0.3727 0.06 0.0557 0.1114 0.12 0.1542 0.1928v4e-3c1.255 1.928 2.592 3.68 4.019 5.231 1.461 1.517 3.128 2.965 4.974 4.332l4e-3 4e-3c0.06 0.0386 0.1114 0.0857 0.1585 0.1371l0.0514 0.0514 0.0128 0.0171c0.2228 0.2485 0.2999 0.647 0.2656 1.05-0.0214 0.4627-0.1928 0.9212-0.4627 1.161-0.0385 0.0386-0.0814 0.0728-0.1242 0.1028l-0.0643 0.0428c-0.15 0.1114-0.2956 0.2228-0.4542 0.3299-2.176 1.465-4.254 2.995-6.23 4.572 1.872 1.697 3.852 3.35 5.938 4.944 0.15 0.1157 0.2913 0.2399 0.4327 0.3599l0.06 0.0428c0.0429 0.0343 0.0814 0.0686 0.12 0.1114 0.2528 0.2614 0.3942 0.7241 0.3899 1.187 9e-3 0.407-0.0942 0.7969-0.3299 1.037l-0.0171 0.0129c-9e-3 9e-3 -0.0171 0.0171-0.0257 0.0214l-9e-3 0.0129-0.0171 0.0129c-0.0514 0.0514-0.1072 0.0943-0.1671 0.1285l-4e-3 4e-3c-1.928 1.251-3.68 2.592-5.231 4.015-1.517 1.461-2.965 3.128-4.332 4.974l-4e-3 9e-3c-0.0472 0.0643-0.0985 0.1242-0.1628 0.18-0.2442 0.2528-0.6684 0.3428-1.093 0.3085-0.4627-0.0257-0.9169-0.1928-1.161-0.467-2.579-3.659-5.047-6.868-5.047-6.868v-4e-3c-1.29 1.251-7.331 5.458-5.973 8.312 1.354 2.853 9.254 3.642 14.11 8.817l0.1457 0.1585c1.26 1.35 2.554 2.892 3.916 4.67 6.714 8.74 7.493 13.44 7.493 13.44s-4.841 4.374-6.585 6.41c-1.889 2.202-3.389 9.19-3.389 9.19s-8.042 1.225-11.77 4.31c-2.318 1.915-6.881 5.244-7.986 6.045l-0.2442 0.18s-0.5698-2.018-2.318-3.916l-0.0899-0.0942c-1.992-2.117-5.471-4.049-11.28-2.828-11.1 2.335-26.33 17.84-26.33 17.84s-16.52-1.268-22.13 2.528c-3.603 2.438 2.614 7.866-2.498 12.81-5.338 5.154-12.12 5.261-15.47 5.081-0.3213-0.0171-1.555 8.063-6.701 7.241 0 0-4.859-1.234-6.932-0.2142-2.532 1.247-6.294 4.49-8.256 7.703-2.035 3.32 0.3942 8.14-3.033 11.37l-11.53 10.84c-3.475 3.269-10.4 1.491-13.76 4.224-11.99 9.734-45.33 40.79-56.31 52.46-2.862 3.038-0.5613 9.049-3.899 12.18l-14.57 13.7c-3.38 3.175-8.843-0.01283-12.1 2.665-9.074 7.459-42.78 38.74-51.28 47.53-1.212 1.247 1.182 3.719 0.2828 5.21-1.808 2.999-8.556 5.128-11.13 12.79-2.575 7.661-0.904 11.61-3.269 14.58-2.356 2.973-6.05-0.7369-10.91 3.256-4.859 3.993-11.34 10.14-15.16 9.687-3.822-0.4499-9.888-3.753-14.42-1.521-2.404 1.187-4.863 3.025-5.994 3.462-0.1285 0.04716-1.247-0.1285-1.024-1.088 0.2785-1.178 2.489-3.445 3.822-5.771 2.511-4.383-0.4156-10.64-0.6298-14.48-0.2142-3.843 6.32-9.931 10.6-14.54 4.289-4.601 0.8098-8.513 3.92-10.69 3.115-2.176 6.954-0.2699 14.76-2.365 7.806-2.099 10.36-8.706 13.45-10.33 1.53-0.7969 3.83 1.727 5.141 0.6041 9.289-7.948 42.6-39.69 50.61-48.29 2.875-3.089 0.02994-8.736 3.406-11.92l14.57-13.7c3.338-3.136 9.194-0.4756 12.4-3.145 12.32-10.25 45.37-41.61 55.82-52.98 2.931-3.188 1.585-10.21 5.06-13.47l11.53-10.84c3.432-3.222 8.106-0.5098 11.53-2.326 3.29-1.744 6.722-5.253 8.11-7.691 1.144-2.009 0.2142-6.932 0.2142-6.932-0.0771-6.495 7.926-5.805 7.96-6.234 0.3642-4.614 0.3342-10.56 5.994-15.42 5.317-4.554 10.28 1.731 12.77-1.769 4.927-6.932 3.835-21.67 3.835-21.67s16.42-14.25 19.43-25.18c1.551-5.638-0.0857-9.207-2.039-11.34l-0.0899-0.0943c-1.692-1.804-3.586-2.549-3.826-2.639l-0.0257-9e-3s4.366-5.321 6.718-7.832c3.308-3.53 5.026-11.48 5.026-11.48s7.069-1.067 9.379-2.815c2.138-1.62 6.804-6.178 6.804-6.178s4.644 1.067 12.96 8.303c1.752 1.525 3.26 2.961 4.567 4.349l0.1457 0.1542c4.764 5.098 5.715 12.41 8.128 14.11zm-63.02 84.41-6.007 5.604 0.0557 0.0257c1.217 0.557 2.562 0.7626 3.856 0.12 3.14-1.555 2.905-3.933 2.129-5.664zm-12.15-13.34c-1.688-0.9083-4.096-1.35-5.865 1.735-0.7326 1.272-0.5912 2.652-0.0942 3.916zm89.88-41.79c-0.1842-0.1971-0.3813-0.3942-0.5784-0.5912-14.12-14.03-26.25 3.26-20.09 9.867l0.0342 0.0429c0.2314 0.2399 0.4799 0.4627 0.7584 0.6727 0.9726 0.7284 3.779-1.037 5.69 1.003l0.0472 0.0514c0.0128 0.0171 0.03 0.0342 0.0429 0.0514 1.975 2.266-0.6427 4.983 0.9126 7.125 0.0686 0.0942 0.1457 0.1885 0.2271 0.2742l0.0301 0.0299c4.55 4.721 25.94-4.606 13-18.44zm-49.65-20.53c0.0728 0.0771 0.15 0.15 0.2314 0.2142 2.044 1.684 4.914-0.7583 7.056 1.35 2.074 2.039 0.0685 4.807 0.7498 5.835 0.2014 0.3085 0.4242 0.587 0.6641 0.8398l0.0342 0.0386c6.251 6.465 24.16-4.567 11.05-19.49-13.33-15.17-24.39 6.324-19.81 11.18zm39.23 4.062c0.8483-0.6898-3.2-5.248-4.045-4.396-1.53 1.555-0.9811 3.817-0.3984 4.452 0.4756 0.5141 2.399 1.602 4.443-0.0557" style="fill-rule:evenodd"/>
    <path d="m-84.89-301 53.23 29.8s6.328 2.314 11.41 6.804c3.663 3.239 186.5 182.5 203.4 199.1l3.248-3.325s4e-3 -0.0044 9e-3 -0.0088l1.088-1.114s0.2099-0.1542 0.5313-0.2699c0.1242-0.04716 0.2571-0.08566 0.4027-0.1028 0.4027-0.06427 0.8912-0.01283 1.358 0.3599 0.2314 0.1414 0.4756 0.3299 0.7326 0.5784 0.6041 0.5784 1.332 1.281 2.129 2.074 2.836 2.738 6.17 6.17 6.804 6.821 1.114 1.144 4.559 3.218 3.406 10.11-0.3856 2.326-1.217 4.751-2.322 7.138-0.6084 1.508-1.375 3.068-2.322 4.653 0.3727 1.337 1.932 4.674 3.475 6.204 1.62 1.611 4.404 1.611 6.38 3.205 3.646 2.935 3.145 6.05 5.218 8.085 2.442 2.399 5.12 1.898 8.106 5.227 0.9383 1.045 1.59 3.646 3.719 5.694 2.279 2.194 2.027 1.851 4.297 2.524 2.266 0.6769 3.509 2.391 3.89 4.353 0.2871 1.482 1.375 3.967 2.318 5.411 0.1757 0.2699 0.4413 0.2485 0.5398 0.1757 9.764-7.069 18.1-4.756 24.58 1.538 6.941 6.739 9.293 15.83 0.6298 26.71l2.566 2.511c1.739 1.705 1.769 4.499 0.0643 6.238l-0.0514 0.05572c-0.1799 0.1799-0.3685 0.347-0.5698 0.4884-0.1414 0.2014-0.2999 0.3985-0.4756 0.5784l-0.0557 0.05572c-1.705 1.739-4.499 1.769-6.238 0.06427l-2.566-2.511c-10.69 8.89-19.83 6.731-26.72-0.06855-6.418-6.341-9.122-14.39-2.292-24.28 0.0728-0.1028 0.1757-0.4756-0.06-0.6341-0.0128-0.0088-0.0171-0.02139-0.0257-0.02994-1.238-1.118-3.835-2.074-5.317-2.331-1.971-0.3385-3.71-1.547-4.434-3.8-0.7198-2.254-0.3684-2.009-2.614-4.242-2.095-2.087-4.704-2.682-5.771-3.599-3.389-2.918-2.943-5.604-5.394-7.995-2.078-2.031-5.184-1.465-8.196-5.047-1.632-1.941-1.692-4.726-3.338-6.311-1.555-1.508-4.931-2.999-6.272-3.342-1.564 0.9769-3.11 1.778-4.606 2.416-2.361 1.157-4.769 2.035-7.086 2.472-6.864 1.298-9.006-2.099-10.18-3.192-0.6641-0.6212-4.164-3.886-6.962-6.662-0.8098-0.7755-1.525-1.491-2.116-2.082-0.2528-0.2528-0.4499-0.4927-0.5955-0.7198-0.3813-0.4584-0.4456-0.9469-0.3899-1.35 0.0171-0.1457 0.0514-0.2828 0.0942-0.407 0.1114-0.3213 0.2614-0.5356 0.2614-0.5356l1.093-1.11c4e-3 -0.0088 4e-3 -0.01283 4e-3 -0.01283l3.256-3.316c-16.89-16.52-200-195.6-203.3-199.1-4.593-4.987-7.039-11.27-7.039-11.27l-30.91-52.59" style="fill-rule:evenodd"/>
  </g>
</svg>
