<svg width="500" height="500" version="1.1" viewBox="0 0 132.3 132.3" xmlns="http://www.w3.org/2000/svg">
  <path d="m114.6 110.4c-8.002 8.884-18.38 15.64-29.95 19.12-14.33 4.315-30.09 3.581-44.1-2.278-14.8-6.188-27.18-18.01-34.11-32.51-7.349-15.38-8.45-33.64-2.957-49.85 4.643-13.71 13.92-25.78 25.93-33.81 10.67-7.13 23.5-10.99 36.27-11.02h0.2106c12.65 0.03009 25.36 3.814 36.02 10.86 2.905 1.921 5.652 4.082 8.217 6.442 12.37 10.79 20.53 26.34 21.98 43.04 0.997 11.49-1.109 23.23-6.114 33.63-2.901 6.029-6.77 11.56-11.37 16.39zm-48.4-103.2c-0.1719-0.00212-0.3438-0.00212-0.5158-0.00212-11.35 0.02579-22.62 3.411-32.09 9.674-14.59 9.656-24.57 26.02-26.2 43.78-0.9691 10.58 0.937 21.39 5.497 30.93 7.913 16.56 23.75 29 41.98 32.46 3.736 0.707 7.539 1.042 11.34 1.012v-117.9" fill-rule="evenodd" stroke-width=".3528"/>
</svg>
