<svg version="1.1" id="Layer_1"
  xmlns="http://www.w3.org/2000/svg"
  xmlns:xlink="http://www.w3.org/1999/xlink" x="0px" y="0px" width="100%" viewBox="0 0 500 479" xml:space="preserve">
  <path fill="#FFFFFF" opacity="0.000000" stroke="none" d="M372.000000,1.000002 C414.990417,1.000000 457.980804,1.000000 500.978394,0.999999 C500.985596,160.621445 500.985596,320.242889 500.985596,479.932190 C334.415741,479.932190 167.831482,479.932190 1.123598,479.932190 C1.123598,320.451447 1.123598,160.902756 1.123598,1.000000 C117.355736,1.000000 233.711838,1.000000 350.367981,1.369738 C342.990112,1.882299 336.279327,4.476053 331.267517,10.348581 C322.366638,20.778093 310.748932,27.762228 299.285431,34.535152 C277.649994,47.317924 255.246811,58.794670 233.370178,71.180664 C228.251724,74.078613 223.916672,78.385605 219.336929,82.183868 C218.605377,82.790588 217.969589,84.250786 218.164307,85.120590 C219.854095,92.668846 221.461105,100.256004 223.653717,107.665588 C225.837006,115.043663 228.667770,122.230148 231.421951,130.092484 C254.201126,112.127945 282.168152,102.553612 308.788055,90.404221 C305.924957,79.994957 305.920227,79.851212 308.623047,75.587105 C312.223907,77.815468 315.791077,80.130569 319.469269,82.253273 C321.274445,83.295036 323.387695,84.867760 325.184448,84.661072 C330.739380,84.022064 336.351898,83.104477 341.682220,81.455246 C352.499115,78.108421 362.449982,72.537193 374.220764,71.423340 C379.036926,70.967590 384.897644,66.508827 385.192749,59.483772 C385.506775,52.008152 385.361908,44.495907 386.078186,37.063320 C386.352875,34.212555 388.399139,31.511074 389.735565,28.789421 C391.443115,25.311939 394.356079,22.017340 394.794769,18.406445 C395.886749,9.417971 388.261810,2.674488 377.475983,1.979331 C375.637238,1.860822 373.824677,1.336727 372.000000,1.000002 M386.162323,230.695557 C378.089478,234.275192 370.016602,237.854828 362.759186,241.072891 C363.201294,244.057373 363.442902,245.688293 363.684509,247.319229 C362.105194,247.311874 360.500519,247.123169 358.952515,247.339661 C356.631104,247.664337 354.003265,247.704132 352.108643,248.856400 C341.921875,255.051712 332.033661,261.739075 321.829254,267.903839 C308.514191,275.947815 294.677887,283.165314 281.637329,291.619904 C253.692780,309.737213 225.747330,327.763855 195.555634,342.064362 C190.941513,344.249847 187.280472,348.485168 183.253189,351.861298 C179.331116,355.149170 175.947495,359.369629 171.552170,361.747620 C158.998062,368.539856 147.953201,377.134460 137.833694,387.092896 C133.802109,391.060242 129.369980,394.617676 125.274010,398.523010 C113.739922,409.520447 101.312210,419.776947 91.064423,431.873810 C80.064430,444.858612 71.139046,459.601471 61.344799,473.602631 C61.177235,473.842224 61.469410,474.403442 61.800980,476.159027 C69.014229,468.690552 75.510620,461.795074 82.189758,455.081451 C100.169067,437.009125 119.855492,421.335785 143.061859,410.229187 C160.785431,401.746643 177.906494,392.002960 195.648178,383.561371 C208.903717,377.254303 222.516907,371.542023 236.370270,366.710114 C244.056656,364.029175 251.034134,360.857178 257.129333,355.524994 C259.870392,353.127075 262.781311,350.816010 265.930603,349.018158 C270.279480,346.535492 273.282471,343.705750 272.017059,338.156708 C271.805298,337.228058 272.503052,336.092072 272.992462,334.257294 C275.662842,336.432281 277.776367,338.153717 279.905884,339.888214 C287.081635,335.962067 294.020233,332.120575 301.001007,328.357300 C310.299591,323.344574 319.156769,316.921539 329.050659,313.732574 C347.470337,307.795593 364.901306,300.156860 381.116852,289.748657 C388.853394,284.782837 397.229431,283.366180 406.162476,282.907196 C415.890686,282.407349 425.610657,281.369934 435.274200,280.107361 C443.138580,279.079865 450.944855,277.516022 458.704315,275.851776 C460.289032,275.511841 461.808990,273.867157 462.901520,272.467102 C464.590088,270.303253 465.884583,267.831940 468.148438,264.206116 C470.102905,268.544220 471.299622,271.200470 473.068848,275.127411 C476.430267,271.997253 480.344513,269.682068 482.354584,266.251251 C491.241882,251.082123 495.332672,234.157211 498.985657,217.154694 C499.959442,212.622375 497.795471,209.827744 493.244019,208.932251 C491.459106,208.581070 489.659637,208.299652 487.882660,207.913376 C481.544922,206.535645 474.682800,207.274750 469.677979,201.364212 C464.420959,195.155869 455.201324,194.656296 448.765076,199.701248 C442.723785,204.436569 436.485138,208.600601 428.836700,210.322861 C426.959595,210.745560 425.271240,211.993073 423.486420,212.840973 C411.256531,218.650833 399.024048,224.455231 386.162323,230.695557 M415.405518,97.136238 C412.605927,93.981392 409.717529,93.866066 406.311829,96.409958 C398.883636,101.958458 391.442810,107.511314 383.734375,112.653488 C380.386108,114.887047 378.349731,117.068550 378.867126,121.355629 C379.074738,123.075996 378.030609,124.947441 377.556183,126.750114 C377.056274,126.954865 376.556366,127.159615 376.056427,127.364357 C374.384827,125.154984 372.713257,122.945602 371.129333,120.852112 C368.244629,122.393700 365.865875,123.898781 363.310516,124.990509 C351.462402,130.052307 339.540192,134.940887 327.696503,140.012863 C321.949249,142.474060 315.748566,144.398041 310.726868,147.944107 C284.973511,166.129883 259.571533,184.812561 233.935150,203.165695 C231.421875,204.964951 230.703278,206.708984 230.680740,209.690002 C230.635880,215.625916 232.480331,220.740250 234.610077,226.250961 C237.455688,233.613953 237.998611,241.866867 239.428406,249.213333 C248.387573,244.527832 257.213379,238.818268 266.812012,235.108093 C290.580444,225.920914 314.666931,217.626465 335.162750,201.726715 C338.058197,199.480545 341.851746,198.125839 345.440216,197.083832 C364.342926,191.595047 383.396545,186.614014 402.230774,180.905609 C414.809479,177.093201 426.676300,171.417084 440.058655,169.609116 C446.176086,168.782623 452.655334,163.426468 453.730865,155.910370 C455.230560,145.429794 458.084778,135.822052 464.035583,126.818466 C468.517059,120.038002 466.522125,113.198601 459.197876,109.625534 C453.744690,106.965256 447.309448,105.737694 441.190033,105.160515 C432.168488,104.309608 423.300995,103.705177 415.405518,97.136238 M211.901688,121.722778 C208.272629,114.249336 204.643555,106.775887 200.831726,98.926048 C190.497375,108.740501 180.710480,118.022621 170.937317,127.319168 C151.756104,145.564972 132.760666,164.011978 113.301910,181.956680 C107.118256,187.659241 101.939705,193.697769 97.526627,200.913223 C92.097153,209.790482 86.200562,218.942154 78.532608,225.753952 C68.028793,235.085007 59.723614,245.804245 52.204506,257.359070 C50.608910,259.811035 49.947514,262.870911 48.855713,265.650726 C47.878719,267.610870 44.670826,268.492249 43.525951,270.531738 C30.500381,293.735413 17.773645,317.107086 5.021385,340.463531 C3.810702,342.680969 2.967688,345.099152 1.489533,348.489380 C3.038209,347.493042 3.581091,347.325989 3.826729,346.959625 C15.944713,328.885132 31.193781,313.499420 46.056141,297.786194 C55.771549,287.514587 65.114426,276.833282 75.439293,267.210052 C88.189178,255.326630 102.833694,245.466660 113.364998,231.225647 C114.242783,230.038651 115.536308,229.165085 116.598389,228.107452 C123.270027,221.463852 130.063828,214.936386 136.566086,208.130585 C148.279877,195.869934 158.952682,182.448654 171.673569,171.363510 C184.111572,160.524918 198.580246,152.021118 212.101105,142.413040 C213.292709,141.566269 214.999268,140.022247 214.878387,138.987640 C214.231522,133.450623 213.080276,127.972549 211.901688,121.722778 M118.416618,335.959778 C120.865822,333.965698 124.052612,332.404694 125.551201,329.852478 C126.973457,327.430145 126.628380,323.970184 127.171127,320.197174 C129.835602,321.714630 131.748947,322.804321 133.496399,323.799530 C147.700455,310.195862 164.351242,300.492157 180.429672,289.934631 C196.595215,279.319885 212.322113,268.037140 228.506332,256.864075 C222.392517,244.816620 213.462494,233.138901 212.175400,217.807861 C209.063553,219.915405 206.572113,221.540649 204.144760,223.256592 C184.782898,236.943680 165.346649,250.528717 146.158417,264.455383 C142.646790,267.004089 140.158768,270.963562 137.199814,274.273224 C133.477936,278.436218 130.069336,282.943268 125.960869,286.681152 C120.334648,291.799896 113.685173,295.845703 108.345596,301.217499 C95.454712,314.186157 82.842155,327.450745 70.539780,340.980133 C56.212791,356.736023 41.848534,372.506012 28.445078,389.035858 C20.344553,399.025848 14.037717,410.470306 6.924952,421.261230 C7.353693,421.578949 7.782435,421.896667 8.211177,422.214417 C8.809792,421.761261 9.484028,421.380280 9.995621,420.844147 C17.006571,413.496582 24.301168,406.390411 30.908361,398.694611 C38.468369,389.889038 46.698353,381.720520 57.109287,376.801514 C79.392517,366.272980 96.774498,348.605347 118.416618,335.959778z"/>
  <path fill="#060609" opacity="1.000000" stroke="none" d="M371.600006,1.000002 C373.824677,1.336727 375.637238,1.860822 377.475983,1.979331 C388.261810,2.674488 395.886749,9.417971 394.794769,18.406445 C394.356079,22.017340 391.443115,25.311939 389.735565,28.789421 C388.399139,31.511074 386.352875,34.212555 386.078186,37.063320 C385.361908,44.495907 385.506775,52.008152 385.192749,59.483772 C384.897644,66.508827 379.036926,70.967590 374.220764,71.423340 C362.449982,72.537193 352.499115,78.108421 341.682220,81.455246 C336.351898,83.104477 330.739380,84.022064 325.184448,84.661072 C323.387695,84.867760 321.274445,83.295036 319.469269,82.253273 C315.791077,80.130569 312.223907,77.815468 308.623047,75.587105 C305.920227,79.851212 305.924957,79.994957 308.788055,90.404221 C282.168152,102.553612 254.201126,112.127945 231.421951,130.092484 C228.667770,122.230148 225.837006,115.043663 223.653717,107.665588 C221.461105,100.256004 219.854095,92.668846 218.164307,85.120590 C217.969589,84.250786 218.605377,82.790588 219.336929,82.183868 C223.916672,78.385605 228.251724,74.078613 233.370178,71.180664 C255.246811,58.794670 277.649994,47.317924 299.285431,34.535152 C310.748932,27.762228 322.366638,20.778093 331.267517,10.348581 C336.279327,4.476053 342.990112,1.882299 350.834045,1.369738 C352.714355,1.000000 354.428711,1.000000 356.786530,1.360251 C360.953339,1.480335 364.476654,1.240167 368.000000,1.000000 C369.066681,1.000000 370.133331,1.000000 371.600006,1.000002z"/>
  <path fill="#6D6D6F" opacity="1.000000" stroke="none" d="M367.541931,1.000000 C364.476654,1.240167 360.953339,1.480335 357.214996,1.360251 C360.361298,1.000000 363.722565,1.000000 367.541931,1.000000z"/>
  <path fill="#060609" opacity="1.000000" stroke="none" d="M386.477356,230.478485 C399.024048,224.455231 411.256531,218.650833 423.486420,212.840973 C425.271240,211.993073 426.959595,210.745560 428.836700,210.322861 C436.485138,208.600601 442.723785,204.436569 448.765076,199.701248 C455.201324,194.656296 464.420959,195.155869 469.677979,201.364212 C474.682800,207.274750 481.544922,206.535645 487.882660,207.913376 C489.659637,208.299652 491.459106,208.581070 493.244019,208.932251 C497.795471,209.827744 499.959442,212.622375 498.985657,217.154694 C495.332672,234.157211 491.241882,251.082123 482.354584,266.251251 C480.344513,269.682068 476.430267,271.997253 473.068848,275.127411 C471.299622,271.200470 470.102905,268.544220 468.148438,264.206116 C465.884583,267.831940 464.590088,270.303253 462.901520,272.467102 C461.808990,273.867157 460.289032,275.511841 458.704315,275.851776 C450.944855,277.516022 443.138580,279.079865 435.274200,280.107361 C425.610657,281.369934 415.890686,282.407349 406.162476,282.907196 C397.229431,283.366180 388.853394,284.782837 381.116852,289.748657 C364.901306,300.156860 347.470337,307.795593 329.050659,313.732574 C319.156769,316.921539 310.299591,323.344574 301.001007,328.357300 C294.020233,332.120575 287.081635,335.962067 279.905884,339.888214 C277.776367,338.153717 275.662842,336.432281 272.992462,334.257294 C272.503052,336.092072 271.805298,337.228058 272.017059,338.156708 C273.282471,343.705750 270.279480,346.535492 265.930603,349.018158 C262.781311,350.816010 259.870392,353.127075 257.129333,355.524994 C251.034134,360.857178 244.056656,364.029175 236.370270,366.710114 C222.516907,371.542023 208.903717,377.254303 195.648178,383.561371 C177.906494,392.002960 160.785431,401.746643 143.061859,410.229187 C119.855492,421.335785 100.169067,437.009125 82.189758,455.081451 C75.510620,461.795074 69.014229,468.690552 61.800980,476.159027 C61.469410,474.403442 61.177235,473.842224 61.344799,473.602631 C71.139046,459.601471 80.064430,444.858612 91.064423,431.873810 C101.312210,419.776947 113.739922,409.520447 125.274010,398.523010 C129.369980,394.617676 133.802109,391.060242 137.833694,387.092896 C147.953201,377.134460 158.998062,368.539856 171.552170,361.747620 C175.947495,359.369629 179.331116,355.149170 183.253189,351.861298 C187.280472,348.485168 190.941513,344.249847 195.555634,342.064362 C225.747330,327.763855 253.692780,309.737213 281.637329,291.619904 C294.677887,283.165314 308.514191,275.947815 321.829254,267.903839 C332.033661,261.739075 341.921875,255.051712 352.108643,248.856400 C354.003265,247.704132 356.631104,247.664337 358.952515,247.339661 C360.500519,247.123169 362.105194,247.311874 363.684509,247.319229 C363.442902,245.688293 363.201294,244.057373 362.759186,241.072891 C370.016602,237.854828 378.089478,234.275192 386.477356,230.478485z"/>
  <path fill="#060609" opacity="1.000000" stroke="none" d="M415.669495,97.380394 C423.300995,103.705177 432.168488,104.309608 441.190033,105.160515 C447.309448,105.737694 453.744690,106.965256 459.197876,109.625534 C466.522125,113.198601 468.517059,120.038002 464.035583,126.818466 C458.084778,135.822052 455.230560,145.429794 453.730865,155.910370 C452.655334,163.426468 446.176086,168.782623 440.058655,169.609116 C426.676300,171.417084 414.809479,177.093201 402.230774,180.905609 C383.396545,186.614014 364.342926,191.595047 345.440216,197.083832 C341.851746,198.125839 338.058197,199.480545 335.162750,201.726715 C314.666931,217.626465 290.580444,225.920914 266.812012,235.108093 C257.213379,238.818268 248.387573,244.527832 239.428406,249.213333 C237.998611,241.866867 237.455688,233.613953 234.610077,226.250961 C232.480331,220.740250 230.635880,215.625916 230.680740,209.690002 C230.703278,206.708984 231.421875,204.964951 233.935150,203.165695 C259.571533,184.812561 284.973511,166.129883 310.726868,147.944107 C315.748566,144.398041 321.949249,142.474060 327.696503,140.012863 C339.540192,134.940887 351.462402,130.052307 363.310516,124.990509 C365.865875,123.898781 368.244629,122.393700 371.129333,120.852112 C372.713257,122.945602 374.384827,125.154984 376.056427,127.364357 C376.556366,127.159615 377.056274,126.954865 377.556183,126.750114 C378.030609,124.947441 379.074738,123.075996 378.867126,121.355629 C378.349731,117.068550 380.386108,114.887047 383.734375,112.653488 C391.442810,107.511314 398.883636,101.958458 406.311829,96.409958 C409.717529,93.866066 412.605927,93.981392 415.669495,97.380394z"/>
  <path fill="#060609" opacity="1.000000" stroke="none" d="M212.002533,122.098442 C213.080276,127.972549 214.231522,133.450623 214.878387,138.987640 C214.999268,140.022247 213.292709,141.566269 212.101105,142.413040 C198.580246,152.021118 184.111572,160.524918 171.673569,171.363510 C158.952682,182.448654 148.279877,195.869934 136.566086,208.130585 C130.063828,214.936386 123.270027,221.463852 116.598389,228.107452 C115.536308,229.165085 114.242783,230.038651 113.364998,231.225647 C102.833694,245.466660 88.189178,255.326630 75.439293,267.210052 C65.114426,276.833282 55.771549,287.514587 46.056141,297.786194 C31.193781,313.499420 15.944713,328.885132 3.826729,346.959625 C3.581091,347.325989 3.038209,347.493042 1.489533,348.489380 C2.967688,345.099152 3.810702,342.680969 5.021385,340.463531 C17.773645,317.107086 30.500381,293.735413 43.525951,270.531738 C44.670826,268.492249 47.878719,267.610870 48.855713,265.650726 C49.947514,262.870911 50.608910,259.811035 52.204506,257.359070 C59.723614,245.804245 68.028793,235.085007 78.532608,225.753952 C86.200562,218.942154 92.097153,209.790482 97.526627,200.913223 C101.939705,193.697769 107.118256,187.659241 113.301910,181.956680 C132.760666,164.011978 151.756104,145.564972 170.937317,127.319168 C180.710480,118.022621 190.497375,108.740501 200.831726,98.926048 C204.643555,106.775887 208.272629,114.249336 212.002533,122.098442z"/>
  <path fill="#060609" opacity="1.000000" stroke="none" d="M118.117073,336.158356 C96.774498,348.605347 79.392517,366.272980 57.109287,376.801514 C46.698353,381.720520 38.468369,389.889038 30.908361,398.694611 C24.301168,406.390411 17.006571,413.496582 9.995621,420.844147 C9.484028,421.380280 8.809792,421.761261 8.211177,422.214417 C7.782435,421.896667 7.353693,421.578949 6.924952,421.261230 C14.037717,410.470306 20.344553,399.025848 28.445078,389.035858 C41.848534,372.506012 56.212791,356.736023 70.539780,340.980133 C82.842155,327.450745 95.454712,314.186157 108.345596,301.217499 C113.685173,295.845703 120.334648,291.799896 125.960869,286.681152 C130.069336,282.943268 133.477936,278.436218 137.199814,274.273224 C140.158768,270.963562 142.646790,267.004089 146.158417,264.455383 C165.346649,250.528717 184.782898,236.943680 204.144760,223.256592 C206.572113,221.540649 209.063553,219.915405 212.175400,217.807861 C213.462494,233.138901 222.392517,244.816620 228.506332,256.864075 C212.322113,268.037140 196.595215,279.319885 180.429672,289.934631 C164.351242,300.492157 147.700455,310.195862 133.496399,323.799530 C131.748947,322.804321 129.835602,321.714630 127.171127,320.197174 C126.628380,323.970184 126.973457,327.430145 125.551201,329.852478 C124.052612,332.404694 120.865822,333.965698 118.117073,336.158356z"/>
</svg>
