<svg version="1.1" id="Layer_1"
  xmlns="http://www.w3.org/2000/svg"
  xmlns:xlink="http://www.w3.org/1999/xlink" x="0px" y="0px" width="100%" viewBox="0 0 500 249" xml:space="preserve">
  <path fill="#FFFFFF" opacity="0.000000" stroke="none" d="M375.000000,250.000000 C250.041550,250.000000 125.583099,250.000000 1.062323,250.000000 C1.062323,167.069290 1.062323,84.138519 1.062323,1.103872 C167.666641,1.103872 334.333313,1.103872 500.978943,1.103872 C500.978943,84.083488 500.978943,167.041748 500.978943,250.000000 C459.138580,250.000000 417.319305,250.000000 375.000000,250.000000 M247.962540,243.671280 C248.439484,245.165588 248.916412,246.659897 249.393356,248.154205 C249.634964,248.104736 249.876587,248.055267 250.118210,248.005814 C249.971664,246.272583 249.825134,244.539368 249.661453,241.939240 C250.500214,224.847229 251.055267,207.734436 252.304016,190.672440 C252.880859,182.790726 254.249283,174.858047 256.285034,167.222076 C258.401215,159.284378 265.160065,151.838867 256.434296,143.585541 C258.696869,142.812714 260.223267,142.291336 261.401886,141.888763 C264.677917,130.478424 267.120514,118.954956 271.440826,108.184700 C273.630127,102.726852 279.189941,98.612198 283.259918,93.919746 C288.835938,87.490868 294.803680,82.433151 304.350006,82.700027 C309.011292,82.830322 312.194305,80.910866 315.709412,86.866791 C320.305145,94.653763 323.164368,102.257896 322.953918,111.079483 C322.744385,119.860771 322.228180,128.634735 321.886475,136.490814 C320.337524,138.622086 318.766418,140.172409 317.926971,142.049881 C315.031921,148.524399 313.894531,156.514816 309.355957,161.379013 C298.467041,173.049179 286.653229,184.058533 272.471619,191.925598 C270.374084,193.089172 267.788605,193.379272 265.422485,194.051010 C262.207184,194.963852 258.985748,195.855057 255.766922,196.755524 C255.899887,197.482269 256.032837,198.209015 256.165802,198.935760 C265.068237,197.840988 273.977173,196.795944 282.869629,195.625488 C286.145813,195.194260 289.361084,194.261581 292.641907,193.910965 C306.016693,192.481613 318.143585,187.138687 330.354889,182.058151 C331.366089,181.637436 332.302094,180.826782 333.040253,179.991592 C339.876495,172.256821 346.482819,164.310089 353.520599,156.765106 C358.721344,151.189560 362.672272,144.919281 364.810425,137.739517 C367.580750,128.436722 371.149963,118.996605 371.585419,109.487854 C371.959778,101.312920 376.183014,97.811729 381.898682,94.988182 C387.226013,92.356430 393.147736,90.927917 398.922028,88.930237 C397.627686,92.563423 400.843628,93.944878 403.514801,96.497307 C407.397980,100.207924 411.213745,105.072525 412.521271,110.104301 C413.959808,115.640129 413.099243,122.010933 412.200562,127.858162 C410.999603,135.672104 408.798035,143.332260 407.025787,151.058380 C405.915497,155.898682 405.791138,161.285660 403.477844,165.459259 C399.327484,172.947281 394.136078,179.919891 388.856689,186.700653 C384.751160,191.973724 379.507294,195.527969 372.509705,197.172287 C365.294312,198.867798 358.535706,202.507355 351.577209,205.296356 C351.656738,205.729874 351.736267,206.163406 351.815796,206.596939 C361.940033,205.414917 372.067810,204.261841 382.186951,203.037735 C386.729309,202.488266 391.555511,202.378006 393.217621,197.121872 C395.120911,197.939697 397.159454,199.584656 398.099487,199.099808 C406.819580,194.602112 416.262543,190.838882 423.692902,184.685562 C431.978973,177.823639 438.385925,168.692581 445.980042,160.132996 C446.678284,163.277298 447.856171,165.886627 447.724518,168.428146 C446.901917,184.306396 446.412231,200.244583 444.519623,216.007721 C443.484802,224.626862 442.324738,231.596558 444.899200,240.648132 C446.245483,236.024612 447.283691,231.894653 448.646210,227.874619 C455.640198,207.239456 463.606079,186.884232 469.535187,165.950485 C476.537109,141.228790 490.203918,118.623199 492.626617,92.512939 C493.946869,78.284241 502.977997,64.681778 496.125427,49.778751 C495.998840,49.503445 496.200653,49.084476 496.089539,48.793552 C495.287689,46.694321 494.565948,44.550697 493.571014,42.543995 C492.930115,41.251308 491.941101,40.104237 490.982147,39.001400 C488.331940,35.953480 486.142273,32.073719 482.829468,30.111950 C471.623413,23.475954 459.161652,21.587778 446.365356,23.248238 C443.808258,23.580048 440.662262,26.187176 439.444092,28.586182 C437.011292,33.377163 435.549683,38.699165 434.024811,43.900898 C432.882080,47.798897 432.267853,51.851849 431.395172,55.944298 C419.578857,48.570118 406.992096,44.012653 393.254730,46.270893 C380.119598,48.430122 366.492798,50.161633 356.402893,60.498837 C350.384003,52.476906 343.687897,45.951080 332.850800,45.498211 C329.665802,45.365112 326.599609,43.254749 323.380737,42.868027 C318.240295,42.250427 312.792542,41.268944 307.879425,42.324677 C299.214661,44.186546 290.854858,47.467476 281.724945,50.357681 C282.973022,46.080177 283.969635,42.608273 285.000031,39.146435 C286.530426,34.004795 286.755737,29.181074 283.157928,24.528421 C282.038574,23.080864 282.673035,20.398478 281.948792,18.492590 C281.087341,16.225548 280.060699,12.808133 278.355957,12.271709 C267.361115,8.812024 256.297180,4.444809 244.987167,3.459148 C235.408051,2.624333 225.420258,5.698632 215.698578,7.502461 C206.237488,9.257932 204.920502,11.977062 206.155319,21.711567 C206.605453,25.260136 205.405991,29.025660 204.905121,32.684814 C204.471649,35.851757 203.762085,38.995335 203.556473,42.173946 C203.421005,44.268162 203.962555,46.406181 204.316757,49.553329 C196.021729,46.907707 188.484756,44.250111 180.791595,42.170212 C177.535843,41.289993 173.867722,41.058090 170.538452,41.552071 C166.516113,42.148884 162.713898,44.580040 158.711914,44.896774 C147.278519,45.801662 138.599258,50.870590 132.697281,60.389145 C129.432755,57.954250 126.716682,54.811390 123.316498,53.618504 C115.584259,50.905800 107.592064,48.782017 99.559814,47.125282 C93.292519,45.832581 86.353310,42.807102 81.402908,50.473885 C80.023575,49.001987 78.970573,47.878315 78.192818,47.048370 C73.382401,48.613770 69.036591,50.027977 64.546104,51.489265 C63.237476,48.182507 61.832851,45.519760 61.124840,42.683140 C58.691288,32.933208 51.714233,28.802847 42.581009,27.290539 C39.469322,26.775295 36.280441,26.311850 33.147789,26.421814 C26.093456,26.669432 18.698330,27.258419 14.441557,33.762276 C10.822146,39.292316 10.675732,46.700001 5.669684,51.691929 C5.460099,51.900925 5.420817,52.305733 5.355044,52.630035 C4.721235,55.755116 3.968464,58.863785 3.515776,62.015362 C3.175546,64.384010 2.944834,66.836609 3.181355,69.200203 C3.406620,71.451309 4.473433,73.604874 4.871928,75.854172 C7.210967,89.056870 8.327635,102.603180 12.028817,115.405594 C16.736130,131.688232 23.465672,147.390457 29.468742,163.288025 C30.097874,164.954117 32.330105,166.097046 32.735920,167.748703 C33.678738,171.585938 33.372116,175.781830 34.608238,179.486588 C40.720146,197.804459 47.205837,215.997284 53.470249,234.264862 C54.835827,238.247009 55.835136,242.354767 57.003128,246.404663 C57.559525,246.350052 58.115917,246.295425 58.672314,246.240814 C58.672314,239.535782 59.002609,232.809952 58.581974,226.131409 C58.136795,219.063187 56.975338,212.040161 56.130169,204.996994 C55.638004,200.895554 55.003754,196.804337 54.699085,192.688843 C54.245026,186.555283 54.025650,180.404358 53.706421,174.260818 C54.138409,174.104477 54.570393,173.948135 55.002380,173.791794 C75.650787,201.487869 105.811554,204.295166 136.542099,205.635468 C129.943588,202.411774 123.351753,198.805389 116.302612,197.169037 C107.821960,195.200409 102.346466,190.194824 97.469177,183.651489 C93.127686,177.826965 88.448029,172.254501 83.973564,166.640976 C83.843384,164.681412 83.868942,162.217133 83.489372,159.816895 C81.093102,144.663559 75.012276,130.257385 75.725204,114.397202 C76.116714,105.687576 80.638885,99.912300 86.538750,95.749687 C95.875153,89.162422 110.133171,93.207169 116.335518,102.901512 C116.817528,103.654907 117.088585,104.706070 117.053299,105.602921 C116.606697,116.953766 119.209068,127.659134 124.069435,137.813202 C125.490608,140.782257 127.685104,143.381134 129.525162,146.149689 C129.998032,145.957077 130.470917,145.764465 130.943787,145.571854 C130.116409,146.607330 129.289047,147.642792 128.436539,148.709702 C137.437225,159.050842 146.120483,169.142441 154.972610,179.083694 C156.438004,180.729370 158.497421,182.034470 160.527405,182.958618 C174.318420,189.236954 188.858063,192.594879 203.755493,195.379333 C213.544525,197.209000 223.039978,198.287079 232.925156,197.277435 C230.248535,195.930359 227.508224,194.434967 224.688690,194.266663 C214.253830,193.643784 207.836487,185.622101 199.708710,180.892929 C195.119354,178.222565 191.986481,173.169601 187.755829,169.733749 C181.541534,164.686905 177.091537,158.684219 174.187897,151.166046 C167.760986,134.525406 163.019775,117.589058 167.232376,99.761604 C168.681549,93.628792 172.234070,87.611382 176.226547,82.673996 C177.572647,81.009323 183.245789,82.844765 186.941559,83.076996 C187.273834,83.097885 187.638947,83.006042 187.936172,83.112923 C191.434357,84.370811 195.725006,84.786064 198.249268,87.113014 C203.823074,92.251129 208.610809,98.267555 213.513641,104.098518 C216.521088,107.675293 219.148148,111.571899 222.039276,115.449974 C218.797379,116.119705 220.481506,118.766884 221.259995,121.316353 C221.980698,123.676537 222.347076,126.146843 223.098770,128.495255 C225.099747,134.746429 227.175980,140.974823 229.324860,147.176712 C230.116959,149.462845 231.665726,151.568115 232.068817,153.894608 C234.839615,169.886566 237.230103,185.945267 240.076202,201.923126 C242.518463,215.633774 245.403641,229.265533 247.962540,243.671280z"/>
  <path fill="#000000" opacity="1.000000" stroke="none" d="M248.092926,242.932159 C245.403641,229.265533 242.518463,215.633774 240.076202,201.923126 C237.230103,185.945267 234.839615,169.886566 232.068817,153.894608 C231.665726,151.568115 230.116959,149.462845 229.324860,147.176712 C227.175980,140.974823 225.099747,134.746429 223.098770,128.495255 C222.347076,126.146843 221.980698,123.676537 221.259995,121.316353 C220.481506,118.766884 218.797379,116.119705 222.039276,115.449974 C219.148148,111.571899 216.521088,107.675293 213.513641,104.098518 C208.610809,98.267555 203.823074,92.251129 198.249268,87.113014 C195.725006,84.786064 191.434357,84.370811 187.936172,83.112923 C187.638947,83.006042 187.273834,83.097885 186.941559,83.076996 C183.245789,82.844765 177.572647,81.009323 176.226547,82.673996 C172.234070,87.611382 168.681549,93.628792 167.232376,99.761604 C163.019775,117.589058 167.760986,134.525406 174.187897,151.166046 C177.091537,158.684219 181.541534,164.686905 187.755829,169.733749 C191.986481,173.169601 195.119354,178.222565 199.708710,180.892929 C207.836487,185.622101 214.253830,193.643784 224.688690,194.266663 C227.508224,194.434967 230.248535,195.930359 232.925156,197.277435 C223.039978,198.287079 213.544525,197.209000 203.755493,195.379333 C188.858063,192.594879 174.318420,189.236954 160.527405,182.958618 C158.497421,182.034470 156.438004,180.729370 154.972610,179.083694 C146.120483,169.142441 137.437225,159.050842 128.436539,148.709702 C129.289047,147.642792 130.116409,146.607330 130.943787,145.571854 C130.470917,145.764465 129.998032,145.957077 129.525162,146.149689 C127.685104,143.381134 125.490608,140.782257 124.069435,137.813202 C119.209068,127.659134 116.606697,116.953766 117.053299,105.602921 C117.088585,104.706070 116.817528,103.654907 116.335518,102.901512 C110.133171,93.207169 95.875153,89.162422 86.538750,95.749687 C80.638885,99.912300 76.116714,105.687576 75.725204,114.397202 C75.012276,130.257385 81.093102,144.663559 83.489372,159.816895 C83.868942,162.217133 83.843384,164.681412 83.973564,166.640976 C88.448029,172.254501 93.127686,177.826965 97.469177,183.651489 C102.346466,190.194824 107.821960,195.200409 116.302612,197.169037 C123.351753,198.805389 129.943588,202.411774 136.542099,205.635468 C105.811554,204.295166 75.650787,201.487869 55.002380,173.791794 C54.570393,173.948135 54.138409,174.104477 53.706421,174.260818 C54.025650,180.404358 54.245026,186.555283 54.699085,192.688843 C55.003754,196.804337 55.638004,200.895554 56.130169,204.996994 C56.975338,212.040161 58.136795,219.063187 58.581974,226.131409 C59.002609,232.809952 58.672314,239.535782 58.672314,246.240814 C58.115917,246.295425 57.559525,246.350052 57.003128,246.404663 C55.835136,242.354767 54.835827,238.247009 53.470249,234.264862 C47.205837,215.997284 40.720146,197.804459 34.608238,179.486588 C33.372116,175.781830 33.678738,171.585938 32.735920,167.748703 C32.330105,166.097046 30.097874,164.954117 29.468742,163.288025 C23.465672,147.390457 16.736130,131.688232 12.028817,115.405594 C8.327635,102.603180 7.210967,89.056870 4.871928,75.854172 C4.473433,73.604874 3.406620,71.451309 3.181355,69.200203 C2.944834,66.836609 3.175546,64.384010 3.515776,62.015362 C3.968464,58.863785 4.721235,55.755116 5.355044,52.630035 C5.420817,52.305733 5.460099,51.900925 5.669684,51.691929 C10.675732,46.700001 10.822146,39.292316 14.441557,33.762276 C18.698330,27.258419 26.093456,26.669432 33.147789,26.421814 C36.280441,26.311850 39.469322,26.775295 42.581009,27.290539 C51.714233,28.802847 58.691288,32.933208 61.124840,42.683140 C61.832851,45.519760 63.237476,48.182507 64.546104,51.489265 C69.036591,50.027977 73.382401,48.613770 78.192818,47.048370 C78.970573,47.878315 80.023575,49.001987 81.402908,50.473885 C86.353310,42.807102 93.292519,45.832581 99.559814,47.125282 C107.592064,48.782017 115.584259,50.905800 123.316498,53.618504 C126.716682,54.811390 129.432755,57.954250 132.697281,60.389145 C138.599258,50.870590 147.278519,45.801662 158.711914,44.896774 C162.713898,44.580040 166.516113,42.148884 170.538452,41.552071 C173.867722,41.058090 177.535843,41.289993 180.791595,42.170212 C188.484756,44.250111 196.021729,46.907707 204.316757,49.553329 C203.962555,46.406181 203.421005,44.268162 203.556473,42.173946 C203.762085,38.995335 204.471649,35.851757 204.905121,32.684814 C205.405991,29.025660 206.605453,25.260136 206.155319,21.711567 C204.920502,11.977062 206.237488,9.257932 215.698578,7.502461 C225.420258,5.698632 235.408051,2.624333 244.987167,3.459148 C256.297180,4.444809 267.361115,8.812024 278.355957,12.271709 C280.060699,12.808133 281.087341,16.225548 281.948792,18.492590 C282.673035,20.398478 282.038574,23.080864 283.157928,24.528421 C286.755737,29.181074 286.530426,34.004795 285.000031,39.146435 C283.969635,42.608273 282.973022,46.080177 281.724945,50.357681 C290.854858,47.467476 299.214661,44.186546 307.879425,42.324677 C312.792542,41.268944 318.240295,42.250427 323.380737,42.868027 C326.599609,43.254749 329.665802,45.365112 332.850800,45.498211 C343.687897,45.951080 350.384003,52.476906 356.402893,60.498837 C366.492798,50.161633 380.119598,48.430122 393.254730,46.270893 C406.992096,44.012653 419.578857,48.570118 431.395172,55.944298 C432.267853,51.851849 432.882080,47.798897 434.024811,43.900898 C435.549683,38.699165 437.011292,33.377163 439.444092,28.586182 C440.662262,26.187176 443.808258,23.580048 446.365356,23.248238 C459.161652,21.587778 471.623413,23.475954 482.829468,30.111950 C486.142273,32.073719 488.331940,35.953480 490.982147,39.001400 C491.941101,40.104237 492.930115,41.251308 493.571014,42.543995 C494.565948,44.550697 495.287689,46.694321 496.089539,48.793552 C496.200653,49.084476 495.998840,49.503445 496.125427,49.778751 C502.977997,64.681778 493.946869,78.284241 492.626617,92.512939 C490.203918,118.623199 476.537109,141.228790 469.535187,165.950485 C463.606079,186.884232 455.640198,207.239456 448.646210,227.874619 C447.283691,231.894653 446.245483,236.024612 444.899200,240.648132 C442.324738,231.596558 443.484802,224.626862 444.519623,216.007721 C446.412231,200.244583 446.901917,184.306396 447.724518,168.428146 C447.856171,165.886627 446.678284,163.277298 445.980042,160.132996 C438.385925,168.692581 431.978973,177.823639 423.692902,184.685562 C416.262543,190.838882 406.819580,194.602112 398.099487,199.099808 C397.159454,199.584656 395.120911,197.939697 393.217621,197.121872 C391.555511,202.378006 386.729309,202.488266 382.186951,203.037735 C372.067810,204.261841 361.940033,205.414917 351.815796,206.596939 C351.736267,206.163406 351.656738,205.729874 351.577209,205.296356 C358.535706,202.507355 365.294312,198.867798 372.509705,197.172287 C379.507294,195.527969 384.751160,191.973724 388.856689,186.700653 C394.136078,179.919891 399.327484,172.947281 403.477844,165.459259 C405.791138,161.285660 405.915497,155.898682 407.025787,151.058380 C408.798035,143.332260 410.999603,135.672104 412.200562,127.858162 C413.099243,122.010933 413.959808,115.640129 412.521271,110.104301 C411.213745,105.072525 407.397980,100.207924 403.514801,96.497307 C400.843628,93.944878 397.627686,92.563423 398.922028,88.930237 C393.147736,90.927917 387.226013,92.356430 381.898682,94.988182 C376.183014,97.811729 371.959778,101.312920 371.585419,109.487854 C371.149963,118.996605 367.580750,128.436722 364.810425,137.739517 C362.672272,144.919281 358.721344,151.189560 353.520599,156.765106 C346.482819,164.310089 339.876495,172.256821 333.040253,179.991592 C332.302094,180.826782 331.366089,181.637436 330.354889,182.058151 C318.143585,187.138687 306.016693,192.481613 292.641907,193.910965 C289.361084,194.261581 286.145813,195.194260 282.869629,195.625488 C273.977173,196.795944 265.068237,197.840988 256.165802,198.935760 C256.032837,198.209015 255.899887,197.482269 255.766922,196.755524 C258.985748,195.855057 262.207184,194.963852 265.422485,194.051010 C267.788605,193.379272 270.374084,193.089172 272.471619,191.925598 C286.653229,184.058533 298.467041,173.049179 309.355957,161.379013 C313.894531,156.514816 315.031921,148.524399 317.926971,142.049881 C318.766418,140.172409 320.337524,138.622086 321.886475,136.490814 C322.228180,128.634735 322.744385,119.860771 322.953918,111.079483 C323.164368,102.257896 320.305145,94.653763 315.709412,86.866791 C312.194305,80.910866 309.011292,82.830322 304.350006,82.700027 C294.803680,82.433151 288.835938,87.490868 283.259918,93.919746 C279.189941,98.612198 273.630127,102.726852 271.440826,108.184700 C267.120514,118.954956 264.677917,130.478424 261.401886,141.888763 C260.223267,142.291336 258.696869,142.812714 256.434296,143.585541 C265.160065,151.838867 258.401215,159.284378 256.285034,167.222076 C254.249283,174.858047 252.880859,182.790726 252.304016,190.672440 C251.055267,207.734436 250.500214,224.847229 249.398773,242.383591 C248.788376,242.862686 248.440659,242.897430 248.092926,242.932159z"/>
  <path fill="#000000" opacity="1.000000" stroke="none" d="M248.027740,243.301727 C248.440659,242.897430 248.788376,242.862686 249.407349,242.817047 C249.825134,244.539368 249.971664,246.272583 250.118210,248.005814 C249.876587,248.055267 249.634964,248.104736 249.393356,248.154205 C248.916412,246.659897 248.439484,245.165588 248.027740,243.301727z"/>
</svg>
