<?xml version="1.0" encoding="UTF-8"?>
<svg id="uuid-aaba4da0-f676-49e2-aa95-e630fc229459" xmlns="http://www.w3.org/2000/svg" viewBox="0 0 500 500">
	<defs>
		<style>
			.uuid-6de631de-6479-463f-b72e-489b94315ac2{fill:#231f20;fill-rule:evenodd;}
		</style>
	</defs>
	<path class="uuid-6de631de-6479-463f-b72e-489b94315ac2" d="M408.07,98.93c1.97,1.4,8.68-5.31,8.68-5.31h0s0,0,0,0c-1.39-1.4-6.19-5.16-6.19-5.16-.16-.12-.3-.25-.45-.37l-.06-.05s-.08-.07-.12-.12c-.27-.27-.41-.76-.41-1.24,0-.45,.11-.88,.39-1.12,.06-.06,.13-.11,.2-.16h0c2.01-1.31,3.84-2.71,5.46-4.19,1.58-1.52,3.09-3.26,4.52-5.19h0c.04-.07,.09-.12,.14-.17h.02s.01-.02,.01-.02c0,0,.02-.02,.03-.03h.01c.26-.25,.68-.33,1.1-.29,.48,.03,.96,.2,1.21,.48,.04,.04,.08,.08,.11,.13l.04,.07c.12,.16,.24,.31,.34,.47,1.53,2.27,3.12,4.44,4.77,6.5h0s5.5-6.61,5.53-6.65l.05-.06s.07-.09,.12-.12c.27-.27,.76-.41,1.24-.41,.45,0,.88,.11,1.12,.39,.06,.06,.11,.13,.16,.2h0c1.31,2.02,2.7,3.84,4.19,5.46,1.52,1.58,3.26,3.09,5.19,4.52h0c.06,.05,.12,.09,.17,.15v.02s.02,.01,.02,.01c.01,0,.02,.02,.03,.03v.02c.25,.26,.33,.68,.29,1.1-.03,.48-.2,.96-.48,1.21-.04,.04-.08,.08-.13,.11l-.07,.04c-.16,.12-.31,.24-.47,.35-2.27,1.53-4.44,3.12-6.5,4.77,1.95,1.77,4.02,3.5,6.19,5.16,.16,.12,.3,.25,.45,.37l.06,.05s.08,.07,.12,.11c.27,.27,.41,.76,.41,1.24,0,.42-.1,.83-.34,1.08h-.02s-.02,.03-.03,.04h-.01s-.02,.03-.02,.03c-.05,.05-.11,.09-.17,.13h0c-2.01,1.31-3.84,2.71-5.46,4.19-1.58,1.52-3.09,3.26-4.52,5.19h0c-.05,.08-.11,.14-.17,.2-.26,.27-.7,.36-1.14,.32-.48-.03-.96-.2-1.21-.48-2.69-3.82-5.26-7.17-5.26-7.17h0c-1.35,1.3-7.65,5.69-6.23,8.67,1.42,2.98,9.66,3.8,14.72,9.2l.15,.16c1.31,1.41,2.66,3.02,4.08,4.87,7,9.12,7.81,14.02,7.81,14.02,0,0-5.05,4.56-6.87,6.69-1.97,2.3-3.54,9.59-3.54,9.59,0,0-8.39,1.28-12.28,4.5-2.42,2-7.18,5.47-8.33,6.31l-.26,.19s-.59-2.1-2.42-4.08l-.09-.1c-2.08-2.21-5.71-4.22-11.77-2.95-11.58,2.43-27.47,18.61-27.47,18.61,0,0-17.24-1.32-23.09,2.64-3.76,2.54,2.73,8.21-2.61,13.36-5.57,5.38-12.64,5.49-16.14,5.3-.34-.02-1.62,8.41-6.99,7.55,0,0-5.07-1.29-7.23-.22-2.64,1.3-6.57,4.68-8.62,8.03-2.12,3.46,.41,8.49-3.16,11.86l-12.03,11.31c-3.62,3.41-10.85,1.55-14.36,4.4-12.5,10.15-47.28,42.55-58.74,54.72-2.99,3.17-.59,9.44-4.07,12.71l-15.2,14.29c-3.53,3.31-9.22-.01-12.62,2.78-9.46,7.78-44.63,40.41-53.5,49.57-1.26,1.3,1.23,3.88,.3,5.43-1.89,3.13-8.93,5.35-11.61,13.35-2.69,7.99-.95,12.12-3.41,15.22-2.46,3.1-6.31-.77-11.38,3.39-5.07,4.17-11.82,10.58-15.81,10.11-3.99-.47-10.31-3.92-15.04-1.59-2.51,1.24-5.07,3.15-6.26,3.61-.13,.05-1.3-.13-1.06-1.13,.29-1.23,2.6-3.59,3.99-6.02,2.62-4.57-.43-11.1-.66-15.11s6.59-10.36,11.06-15.16c4.47-4.8,.84-8.88,4.09-11.15,3.25-2.27,7.26-.28,15.4-2.47,8.14-2.19,10.8-9.08,14.04-10.77,1.59-.83,3.99,1.8,5.36,.63,9.69-8.29,44.44-41.4,52.79-50.37,3-3.22,.03-9.11,3.55-12.43l15.2-14.29c3.48-3.27,9.59-.49,12.94-3.28,12.86-10.69,47.33-43.41,58.23-55.27,3.06-3.33,1.66-10.65,5.28-14.06l12.03-11.31c3.58-3.36,8.46-.54,12.03-2.43,3.44-1.82,7.01-5.48,8.46-8.02,1.19-2.1,.22-7.23,.22-7.23-.08-6.78,8.27-6.05,8.31-6.5,.38-4.81,.35-11.02,6.25-16.08,5.54-4.75,10.72,1.81,13.32-1.85,5.14-7.23,4-22.6,4-22.6,0,0,17.13-14.87,20.27-26.27,1.62-5.88-.09-9.6-2.13-11.83l-.09-.1c-1.77-1.88-3.74-2.66-3.99-2.75h-.03s4.56-5.56,7.01-8.18c3.45-3.68,5.24-11.98,5.24-11.98,0,0,7.37-1.11,9.78-2.94,2.23-1.69,7.1-6.44,7.1-6.44,0,0,4.84,1.11,13.51,8.66,1.83,1.59,3.4,3.09,4.77,4.54l.15,.16c4.97,5.32,5.96,12.94,8.48,14.72h0Zm-65.74,88.06l-6.27,5.84,.06,.03c1.27,.58,2.67,.8,4.02,.13,3.28-1.62,3.03-4.1,2.22-5.91l-.04-.09h0Zm-12.67-13.92c-1.76-.95-4.27-1.41-6.12,1.81-.76,1.33-.62,2.77-.1,4.08l6.22-5.89h0Zm93.76-43.6c-.19-.2-.39-.41-.6-.62-14.73-14.64-27.38,3.4-20.96,10.3l.04,.04c.24,.25,.5,.49,.79,.7,1.01,.76,3.94-1.08,5.94,1.05l.05,.05s.03,.03,.05,.05c2.06,2.37-.67,5.2,.95,7.43,.07,.1,.15,.2,.24,.29l.03,.03c4.75,4.93,27.06-4.8,13.57-19.24l-.08-.09h0Zm-51.79-21.41c.08,.08,.16,.15,.24,.22,2.13,1.76,5.12-.79,7.36,1.41,2.16,2.13,.07,5.01,.78,6.09,.21,.32,.44,.61,.69,.87l.04,.04c6.52,6.74,25.2-4.76,11.52-20.33-13.9-15.82-25.44,6.6-20.67,11.66l.03,.03h0Zm40.93,4.24c.88-.72-3.34-5.47-4.22-4.58-1.6,1.62-1.02,3.98-.41,4.64,.49,.54,2.5,1.67,4.63-.06h0Z" />
	<path class="uuid-6de631de-6479-463f-b72e-489b94315ac2" d="M56.57,68.3l55.53,31.08s6.6,2.41,11.9,7.1c3.82,3.38,194.55,190.4,212.15,207.65l3.39-3.47s0,0,.01,0l1.14-1.16s.22-.16,.55-.28c.13-.05,.27-.09,.42-.11,.42-.07,.93-.01,1.42,.38,.24,.15,.5,.35,.76,.6,.63,.61,1.39,1.34,2.22,2.16,2.96,2.86,6.44,6.44,7.1,7.12,1.16,1.19,4.76,3.35,3.55,10.54-.41,2.42-1.27,4.96-2.42,7.44-.63,1.57-1.43,3.2-2.42,4.85,.39,1.39,2.02,4.88,3.62,6.47,1.69,1.68,4.59,1.68,6.66,3.34,3.8,3.06,3.28,6.31,5.44,8.44,2.55,2.5,5.34,1.98,8.46,5.45,.98,1.09,1.66,3.8,3.88,5.94,2.38,2.29,2.11,1.93,4.48,2.63,2.37,.7,3.66,2.49,4.06,4.54,.3,1.55,1.43,4.14,2.42,5.65,.18,.28,.46,.26,.56,.18,10.19-7.37,18.88-4.96,25.63,1.6,7.24,7.03,9.7,16.52,.66,27.87l2.67,2.62c1.81,1.78,1.85,4.69,.07,6.51l-.06,.06c-.19,.19-.38,.36-.59,.51-.15,.21-.31,.41-.5,.6l-.05,.06c-1.78,1.81-4.69,1.85-6.51,.07l-2.68-2.62c-11.16,9.27-20.69,7.02-27.87-.07-6.7-6.61-9.52-15.01-2.39-25.33,.07-.11,.18-.49-.06-.66-.01,0-.02-.02-.03-.03-1.29-1.16-4-2.16-5.54-2.43-2.05-.35-3.87-1.61-4.62-3.96-.75-2.35-.39-2.09-2.73-4.43-2.18-2.18-4.91-2.8-6.02-3.75-3.54-3.04-3.07-5.85-5.63-8.34-2.17-2.12-5.41-1.53-8.55-5.27-1.7-2.03-1.77-4.93-3.48-6.58-1.63-1.57-5.14-3.13-6.55-3.49-1.63,1.02-3.24,1.85-4.8,2.52-2.46,1.21-4.98,2.12-7.39,2.58-7.16,1.35-9.4-2.19-10.62-3.33-.69-.65-4.35-4.05-7.27-6.95-.84-.81-1.59-1.56-2.21-2.17-.26-.26-.47-.51-.62-.75-.4-.48-.46-.99-.4-1.41,.02-.15,.05-.29,.1-.42,.11-.34,.27-.56,.27-.56l1.14-1.16s0-.01,0-.01l3.4-3.46c-17.62-17.23-208.6-203.99-212.06-207.74-4.79-5.2-7.35-11.75-7.35-11.75l-32.24-54.86h0Z" />
</svg>
