<svg width="500" height="500" version="1.1" viewBox="0 0 132.3 132.3" xmlns="http://www.w3.org/2000/svg" xmlns:cc="http://creativecommons.org/ns#" xmlns:dc="http://purl.org/dc/elements/1.1/" xmlns:rdf="http://www.w3.org/1999/02/22-rdf-syntax-ns#">
  <path d="m62.77 0.3971c-3.132-1.73-4.259 2.626-5.185 4.743-2.159 4.935-4.29 9.988-7.347 14.45-1.552 2.265-3.435 4.33-5.383 6.26-4.718 4.674-9.653 9.069-14.14 13.98-3.763 4.12-6.978 8.686-10.12 13.28-2.526 3.688-5.21 7.249-7.009 11.38-1.535 3.527-2.435 7.368-3.294 11.1-1.551 6.748-2.635 13.63-3.869 20.44-0.5312 2.932-0.5577 5.975-0.5008 8.949 0.09677 5.057 0.6276 10.14 1.884 15.05 0.6738 2.633 1.161 6.257 3.675 7.707 6.147 3.547 13.42 4.038 20.36 4.234 6.642 0.1882 13.57 1.053 19.99-1.171 8.525-2.955 14.85-10.1 21.14-16.22 3.678-3.578 7.286-7.224 10.95-10.81 2.895-2.835 6.032-5.592 8.516-8.803 5.476-7.079 9.065-15.19 13.77-22.75 3.471-5.573 9.209-9.312 14.49-13.02 1.409-0.9878 2.86-1.929 4.221-2.984 0.7486-0.5802 1.49-1.26 1.461-2.29-0.0577-2.051-2.335-2.923-3.969-3.408-4.75-1.411-9.126-3.679-13.34-6.257-6.43-3.932-12.89-8.214-18.79-12.9-5.375-4.264-10.38-9.17-15.04-14.2-3.065-3.308-5.951-6.874-8.331-10.71-1.188-1.916-2.085-4.909-4.15-6.05m-14.58 25.52c0.3786-0.9967 1.277-1.615 1.964-2.393 1.026-1.163 1.911-2.441 2.809-3.702 2.33-3.272 4.131-6.968 5.768-10.62 0.6063-1.354 1.227-2.703 1.844-4.052 0.2179-0.4764 0.5201-1.231 1.167-1.172 1.026 0.09381 1.657 1.932 2.109 2.68 0.7074 1.169 1.829 2.423 2.238 3.731 0.4677 1.499-0.2265 3.694-0.8487 5.072-1.454 3.22-4.439 6.11-7.677 7.489-3.025 1.288-6.326 1.714-9.374 2.97m55.73 45.95c-0.161-1.603 0.185-3.292 0.2746-4.9 0.0969-1.741 0.053-3.525 0.4048-5.239 0.7594-3.702 3.053-7.078 6.226-9.132 1.179-0.7632 2.756-1.75 4.215-1.71 1.432 0.0389 3.093 1.101 4.445 1.566 0.768 0.264 3.005 0.6386 2.893 1.783-0.0692 0.7069-0.9945 1.16-1.506 1.519-1.505 1.057-3.013 2.115-4.494 3.204-4.77 3.506-9.517 7.689-12.46 12.91m-36.26-59.55c3.505 5.019 7.881 9.525 12.3 13.74 3.417 3.259 6.856 6.69 10.71 9.443 4.642 3.312 9.486 6.384 14.35 9.353 2.695 1.643 5.592 3.136 8.142 4.994-1.139 0.5631-2.328 0.939-3.39 1.663-3.026 2.062-5.526 5.725-6.269 9.319-0.6228 3.015-0.3347 6.191-0.9561 9.242-0.9609 4.719-2.735 9.058-4.903 13.34-1.692 3.344-3.764 6.536-5.982 9.556-1.264 1.721-2.624 3.636-4.502 4.757-3.472 2.074-7.451 2.562-11.27 3.636-3.036 0.8538-5.812 2.141-8.326 4.056-3.084 2.35-5.676 5.239-7.987 8.349-2.419 3.256-4.457 6.881-7.266 9.835-2.535 2.666-6.076 4.756-9.644 5.645-1.511 0.3763-3.048 0.5881-4.605 0.5885-2.146 5e-4 -4.217-0.4081-6.25-1.07 2.941-0.8028 5.008-2.527 7.345-4.42 1.882-1.525 3.686-2.97 5.353-4.725 4.214-4.439 8.182-9.178 11.83-14.09 3.82-5.144 7.356-10.9 8.872-17.2 0.6575-2.734 0.9277-5.779 0.3095-8.548-0.4986-2.234-1.819-3.915-1.597-6.333 0.2559-2.789 1.865-5.804 3.468-8.063 0.7362-1.037 1.667-1.906 2.256-3.043 0.5616 1.354 0.6053 2.863 1.193 4.23 2.535 5.9 5.958 11.6 9.362 17.03 1.019 1.628 2.023 3.274 3.148 4.832 0.3971 0.5497 0.8501 1.408 1.562 1.577 1.307 0.3103 3.113-0.9224 4.087-1.681 3.22-2.508 5.17-6.3 6.357-10.14 1.987-6.425 2.828-14.17 0.5246-20.63-1.48-4.154-4.175-7.764-6.235-11.63-1.026-1.926-1.507-4.17-2.609-6.027-1.238 0.813-1.839 1.954-2.759 3.075l-5.033 6.103c-4.226 5.125-8.612 10.16-12.57 15.49-2.139 2.881-4.667 6.112-5.618 9.633-0.2372 0.8775-0.7539 2.641-0.2348 3.475 0.3227 0.5182 1.193 0.5689 1.687 0.8853 1.581 1.013 1.82 2.576 1.166 4.263-1.399-0.66-2.73-1.146-4.285-1.291-3.265-0.3057-6.764 0.2489-9.354-2.173-1.539-1.439-1.922-3.741-2.442-5.689-0.7207-2.699-1.596-5.2-3.689-7.15 2.629-0.8869 3.82 0.7913 5.035 2.814 2.215-1.399 4.702-2.074 6.787-3.765 3.671-2.977 6.707-6.652 9.699-10.28l14.33-17.38c0.4548-0.5516 1.805-1.708 1.517-2.516-0.2841-0.7987-2.087-0.5254-2.745-0.5908-2.621-0.2608-5.074-1.279-7.48-2.282-2.027-0.8446-4.077-1.741-6.247-2.155-2.133-0.4069-4.271-0.4174-6.431-0.3098-7.031 0.3502-14.7 2.699-18.95 8.694-1.123 1.581-1.965 3.493-2.394 5.382-0.2211 0.9739-0.235 1.976-0.4877 2.941l0.2654 0.2188c2.098-0.8577 4.628 0.0257 6.567 0.957-1.941 2.346-4.432 3.663-7.059 5.101-1.562 0.8551-3.575 1.815-4.552 3.379-1.05 1.679-0.06945 4.141 1.757 4.823 1.28 0.4778 2.974 0.1092 4.028-0.7218 1.369-1.08 1.618-2.897 2.176-4.447 0.9613-2.67 2.142-5.677 3.917-7.915 1.63 1.344 3.387 2.342 5.165 3.467 2.81 1.778 5.693 3.434 8.938 4.298 1.638 0.4361 3.251 0.3043 4.898 0.5478-1.448 1.235-2.545 2.808-3.999 4.058-2.778 2.391-5.876 3.983-9.275 5.28-1.481-1.736-3.531-1.971-5.715-1.59-3.529 0.615-6.613 2.935-9.045 5.468-6.212 6.469-11.73 13.54-16.72 20.99-3.176 4.743-6.428 9.448-8.572 14.78-0.5854-1.706-0.346-3.829-0.3196-5.613 0.1435-9.674 6.356-16.8 10.33-25.14 2.159-4.532 3.801-9.496 4.65-14.44 0.3944-2.299 0.3489-4.655 0.7743-6.94 0.4228-2.271 1.441-4.522 2.779-6.401 3.467-4.867 7.789-9.297 12.09-13.43 1.807-1.738 3.626-3.978 5.81-5.24 5.221-3.018 11.93-2.811 16.59-6.827 1.82-1.568 3.444-3.515 4.399-5.735 0.4833-1.123 0.4856-2.719 1.229-3.668m11.71 23.92-3.064 3.715c-0.485 0.5882-0.977 1.403-1.698 1.719-1.414 0.6189-3.301-0.01613-4.678-0.4737-3.409-1.132-6.511-3.381-10.07-4.007-6.79-1.194-13.91 0.1956-19.21 4.787-0.9001 0.7802-1.611 1.813-2.366 2.73l-0.1326-0.1094c0.4771-1.57 1.129-3.184 2.033-4.565 3.659-5.585 10.23-7.973 16.62-8.589 2.289-0.2208 4.619-0.3474 6.904 0.0076 3.354 0.5212 6.352 2.2 9.508 3.337 2.041 0.735 4.071 0.9694 6.161 1.449m7.43 6.127c0.5131 1.555 0.9908 3.144 1.796 4.58 1.911 3.408 4.443 6.225 5.841 9.946 1.573 4.187 1.563 9.038 1.117 13.42-0.5473 5.378-1.452 11.55-5.454 15.56-1.135 1.139-2.471 1.857-3.877 2.598l-0.1327-0.1094c4.616-7.464 6.387-16.94 3.836-25.47-1.164-3.89-4.172-6.675-6.132-10.13-0.7518-1.327-1.876-3.201-1.535-4.793 0.2593-1.211 1.67-2.399 2.438-3.33 0.6378-0.7734 1.242-1.746 2.102-2.279m-20.12 9.264c-0.9486 1.15-1.871 2.679-3.258 3.332-2.48 1.168-5.711 0.0454-8.066-0.9536-2.753-1.168-5.274-2.729-7.764-4.37-1.642-1.082-3.217-2.329-5.071-3.041-1.176-0.4514-2.406-0.5317-3.637-0.7252 3.299-1.156 6.969-0.956 10.2 0.3376 1.574 0.6306 2.99 1.611 4.483 2.403 2.103 1.117 4.341 2.093 6.622 2.783 2.29 0.6923 4.174 0.4324 6.494 0.2346m7.43 6.127c1e-3 0.884-0.0865 1.74 0.0738 2.619 0.5744 3.153 2.481 5.958 3.9 8.781 2.059 4.097 3.781 8.4 5.038 12.81 0.5733 2.011 1.29 4.215 1.252 6.321-3.882-6.908-8.596-13.46-11.57-20.84-0.7157-1.774-1.932-3.982-1.433-5.938 0.2562-1.004 0.8687-1.758 1.514-2.54 0.3774-0.4571 0.7206-0.9039 1.227-1.217m-51.19 69.91c2.661-3.227 5.313-6.488 7.74-9.89 1.599-2.241 3.266-4.456 3.59-7.294 0.622-5.461-4.914-11.86-10.69-9.706-2.756 1.031-4.666 3.387-6.476 5.582l-6.784 8.226c-0.5145-1.65-0.9847-3.819-0.7823-5.549 0.1116-0.9531 0.6033-1.886 0.9791-2.759 0.8177-1.899 1.772-3.715 2.748-5.535 4.637-8.647 10.9-16.46 17.12-24 2.122-2.573 4.448-5.214 6.976-7.399 0.9499-0.8207 2.262-1.986 3.576-2.061 2.373-0.1357 3.525 3.391 3.879 5.204 0.5324 2.73 0.1044 5.468 0.3842 8.205 0.1462 1.432 0.6967 3.003 1.968 3.81 1.01 0.641 2.318 0.6904 3.478 0.6475 3.733-0.1375 9.182-2.542 11.52 1.711 0.8429 1.535 0.3481 3.057-0.105 4.632-0.9806 3.409-2.731 6.583-4.623 9.562-0.9946 1.566-2.163 2.957-3.266 4.44-2.765 3.721-5.547 7.252-8.745 10.62-2.803 2.953-5.476 5.939-8.789 8.356-3.613 2.636-9.27 4.609-13.7 3.195m58.79-25.08c-1.472 1.47-3.169 2.726-4.676 4.168-1.662 1.59-3.112 3.384-4.729 5.016-1.706 1.722-3.54 3.303-5.212 5.064-5.085 5.357-10.38 12.43-18.65 12.04 1.451-0.8104 2.886-1.462 4.105-2.634 3.107-2.987 4.783-7.243 7.331-10.67 2.469-3.323 5.309-6.38 8.915-8.474 1.868-1.085 3.974-1.882 5.994-2.636 2.168-0.8098 4.603-1.707 6.923-1.87m-59.57-47.78c-0.4818 1.664-0.4353 3.356-0.6146 5.066-0.2537 2.418-0.6816 4.821-1.304 7.172-1.972 7.444-5.645 13.93-9.34 20.61l-0.1327-0.1094c0.8705-5.079 1.246-10.34 2.479-15.34 0.9178-3.726 2.486-7.329 4.359-10.67 0.8509-1.518 1.827-2.942 2.784-4.392 0.5125-0.7766 0.993-1.801 1.77-2.33m-2.05 42.22 0.1326 0.1094c4.99-3.941 12.64-0.7269 16 3.85 1.161 1.583 1.889 3.512 2.49 5.36 0.9064 2.787 1.49 5.926-0.1615 8.575 1.007 5.8e-4 1.986-0.7043 2.789-1.266 2.125-1.486 3.82-3.329 5.247-5.481 2.821-4.254 4.568-9.914 3.428-15-0.7398-3.295-2.582-5.484-5.12-7.577-3.337-2.752-7.248-4.403-11.58-2.858-2.578 0.9202-4.717 2.89-6.648 4.771-2.788 2.715-4.744 6.122-6.577 9.511m6.369 8.225c0.8199 0.5181 1.579 1.192 2.179 1.953 4.064 5.163 0.4449 11.47-3.499 15.38-1.431 1.42-3.202 3.223-5.234 3.707-1.665 0.3967-3.08-0.1634-4.607-0.7506-0.5929-0.2282-1.303-0.3934-1.831-0.7526-0.6272-0.426-0.8384-1.266-1.071-1.945-0.4682-1.367-0.9113-2.744-1.261-4.147-0.1537-0.6169-0.4203-1.338-0.3147-1.981 0.09941-0.6044 0.6234-1.096 0.9969-1.549l6.893-8.359c0.8436-1.023 1.684-2.199 3.001-2.633 1.536-0.5065 3.447 0.2521 4.748 1.074z" style="fill:#100b0c"/>
</svg>
