<?xml version="1.0" encoding="UTF-8"?>
<svg id="uuid-b701ada5-bac9-4de1-9e63-cd040cad8a45" xmlns="http://www.w3.org/2000/svg" viewBox="0 0 500 500">
	<path d="M253.76,73.46c-97.43,0-176.7,79.27-176.7,176.7s79.27,176.7,176.7,176.7,176.7-79.27,176.7-176.7S351.19,73.46,253.76,73.46h0Zm0,376.92c-110.5,0-200.35-89.89-200.35-200.35S143.3,49.67,253.76,49.67s200.35,89.89,200.35,200.35-89.89,200.35-200.35,200.35" />
	<path d="M378.66,125.36H128.89v249.77h249.77V125.36Zm-7.11,7.11v235.46H136.09V132.47h235.46" />
	<path d="M305.86,302.26h-104.1v-104.1h104.1v104.1" />
	<path d="M253.76,131.62c-65.4,0-118.57,53.2-118.57,118.57s53.2,118.57,118.57,118.57,118.57-53.2,118.57-118.57-53.2-118.57-118.57-118.57h0Zm0,5.04c62.62,0,113.54,50.93,113.54,113.54s-50.93,113.54-113.54,113.54-113.54-50.93-113.54-113.54,50.93-113.54,113.54-113.54" />
	<path d="M336.68,10l159.91,2.27-2.27,159.91L336.68,10Z" />
</svg>
