<?xml version="1.0" encoding="utf-8"?>
<svg version="1.1" id="Layer_1" x="0px" y="0px" width="100%" viewBox="0 0 437 414" enable-background="new 0 0 496 688" xmlns="http://www.w3.org/2000/svg">
  <defs/>
  <path fill="#000000" opacity="1.000000" stroke="none" d="M 308.686 278.366 C 291.071 299.577 269.552 314.236 243.037 320.955 C 235.992 322.741 228.671 323.517 221.436 324.431 C 218.532 324.798 216.614 325.361 216.92 328.796 C 217.188 331.808 215.887 333.535 212.655 333.581 C 209.174 333.63 208.458 331.368 208.523 328.633 C 208.595 325.607 207.156 324.729 204.295 324.483 C 174.203 321.894 148.087 310.273 126.694 288.927 C 109.218 271.49 98.002 250.493 92.994 226.172 C 91.848 220.608 91.421 214.991 90.477 209.425 C 90.007 206.654 88.703 205.854 86.083 205.979 C 81.928 206.178 77.761 206.155 73.598 206.154 C 70.577 206.153 69.158 204.803 69.211 201.538 C 69.264 198.352 70.971 197.48 73.594 197.419 C 77.424 197.33 81.261 197.223 85.087 197.361 C 88.424 197.481 90.134 196.643 90.522 192.782 C 92.159 176.482 96.051 160.76 103.532 146.045 C 113.867 125.717 128.58 109.344 147.857 97.195 C 164.708 86.575 182.949 79.914 203.027 78.943 C 206.832 78.759 208.817 77.166 208.489 73.01 C 208.214 69.533 208.442 66.017 208.432 62.519 C 208.423 59.415 208.855 56.825 212.988 57.009 C 216.656 57.172 217.298 59.325 217.216 62.382 C 217.122 65.871 217.468 69.382 217.219 72.854 C 216.929 76.896 218.631 78.724 222.558 78.961 C 250.021 80.622 273.833 91.417 294.158 109.383 C 311.378 124.605 323.414 143.584 330.075 165.795 C 332.759 174.744 334.2 183.884 334.901 193.152 C 335.124 196.096 336.352 197.353 339.224 197.345 C 343.555 197.332 347.887 197.362 352.216 197.476 C 355.006 197.549 357.024 198.437 356.895 201.884 C 356.769 205.228 354.804 206.157 351.993 206.201 C 347.83 206.267 343.664 206.272 339.5 206.26 C 336.457 206.251 335.104 207.565 334.89 210.757 C 333.202 235.872 324.168 258.189 308.686 278.366 M 245.659 107.849 C 237.989 105.723 230.39 103.344 222.384 102.638 C 218.33 102.28 216.689 103.542 216.881 107.847 C 217.191 114.829 216.981 121.834 216.969 128.83 C 216.953 138.152 216.951 138.122 225.847 140.306 C 227.775 140.78 229.63 141.551 231.518 142.186 C 245.017 146.724 255.825 154.737 263.987 166.515 C 269.717 174.784 272.47 184.119 274.683 193.67 C 275.306 196.36 276.388 197.317 278.959 197.306 C 288.452 197.264 297.946 197.274 307.439 197.323 C 310.177 197.337 311.519 196.141 311.236 193.389 C 310.794 189.103 310.957 184.608 309.665 180.586 C 306.373 170.338 303.216 160.081 297.465 150.689 C 285.186 130.633 268.314 116.444 245.659 107.849 M 124.445 158.505 C 118.296 168.926 116.387 180.545 114.874 192.282 C 114.459 195.509 115.317 197.357 119.044 197.314 C 128.373 197.204 137.704 197.249 147.033 197.332 C 149.903 197.357 151.004 196.319 151.363 193.302 C 152.606 182.879 156.719 173.453 162.801 164.991 C 172.691 151.232 186.327 143.16 202.823 139.902 C 206.905 139.096 208.781 137.482 208.575 132.993 C 208.223 125.346 208.484 117.67 208.498 110.006 C 208.512 102.21 208.02 101.846 200.184 103.027 C 181.354 105.865 164.313 112.978 149.828 125.327 C 139.271 134.326 130.316 144.842 124.445 158.505 M 217.005 296.301 C 216.885 299.14 218.404 299.966 221.047 300.03 C 227.117 300.177 233.031 298.818 238.687 297.214 C 259.887 291.201 277.27 279.494 290.795 261.799 C 302.314 246.729 308.889 229.949 311.173 211.286 C 311.577 207.987 310.572 206.237 306.944 206.271 C 297.785 206.359 288.624 206.349 279.465 206.26 C 276.47 206.231 275.12 207.304 274.505 210.419 C 273.092 217.583 271.053 224.683 267.434 231.041 C 257.325 248.796 242.419 259.985 221.889 262.976 C 218.328 263.495 216.788 265.095 216.898 268.924 C 217.15 277.743 216.985 286.575 217.005 296.301 M 123.54 242.977 C 125.482 249.099 129.167 254.363 132.84 259.389 C 143.615 274.13 157.361 285.398 174.233 292.768 C 183.631 296.874 193.433 298.993 203.558 300.023 C 207.23 300.396 208.616 298.969 208.536 295.234 C 208.348 286.409 208.316 277.573 208.536 268.749 C 208.633 264.854 206.818 263.389 203.36 262.921 C 198.739 262.296 194.231 261.135 189.938 259.319 C 168.074 250.071 155.863 233.164 151.336 210.279 C 150.959 208.372 150.963 206.432 148.476 206.419 C 137.385 206.362 126.293 206.394 114.663 206.394 C 115.434 219.216 117.565 231.152 123.54 242.977 M 256.355 170.116 C 246.521 157.321 233.901 149.601 217.303 148.099 C 217.159 150.057 216.983 151.358 216.981 152.659 C 216.96 165.64 217.122 178.623 216.882 191.599 C 216.802 195.936 218.14 197.479 222.542 197.403 C 235.353 197.182 248.169 197.337 260.983 197.284 C 262.562 197.278 264.351 197.781 265.907 195.87 C 264.777 186.961 261.745 178.488 256.355 170.116 M 185.978 155.21 C 172.069 163.72 163.661 175.98 160.333 191.961 C 159.448 196.213 160.713 197.362 164.665 197.334 C 177.476 197.245 190.29 197.183 203.099 197.376 C 207.25 197.439 208.626 195.946 208.568 191.857 C 208.387 179.048 208.523 166.235 208.483 153.423 C 208.478 151.804 208.766 150.084 207.589 148.396 C 199.889 148.047 193.329 151.717 185.978 155.21 M 233.105 206.315 C 228.944 206.323 224.783 206.323 220.622 206.344 C 218.219 206.356 216.954 207.436 216.963 209.991 C 217.007 223.463 217.009 236.935 216.993 250.407 C 216.99 253.17 218.262 254.312 221.013 254.121 C 225.696 253.797 230.247 252.696 234.429 250.75 C 244.932 245.862 253.443 238.406 259.145 228.356 C 262.845 221.835 265.625 214.703 265.511 206.319 C 254.675 206.319 244.39 206.319 233.105 206.315 M 205.631 206.401 C 191.996 206.358 178.361 206.339 164.726 206.258 C 160.875 206.235 159.293 207.38 160.447 211.672 C 161.35 215.037 162.155 218.417 163.495 221.627 C 170.641 238.748 183.259 249.513 201.306 253.797 C 207.262 255.21 208.454 254.179 208.473 248.154 C 208.51 236.18 208.533 224.207 208.478 212.234 C 208.468 210.197 209.169 207.76 205.631 206.401 Z"/>
</svg>