<?xml version="1.0" standalone="no"?>
<!DOCTYPE svg PUBLIC "-//W3C//DTD SVG 20010904//EN"
 "http://www.w3.org/TR/2001/REC-SVG-20010904/DTD/svg10.dtd">
<svg version="1.0" xmlns="http://www.w3.org/2000/svg"
 width="529.000000pt" height="460.000000pt" viewBox="0 0 529.000000 460.000000"
 preserveAspectRatio="xMidYMid meet">
<metadata>
Created by potrace 1.16, written by Peter Selinger 2001-2019
</metadata>
<g transform="translate(0.000000,460.000000) scale(0.100000,-0.100000)"
fill="#000000" stroke="none">
<path d="M2186 4292 c-17 -4 -70 -56 -88 -87 -4 -7 -11 -39 -14 -71 -4 -34
-15 -70 -26 -84 -22 -27 -18 -71 9 -123 8 -17 19 -57 23 -89 5 -33 15 -67 24
-77 8 -9 24 -41 36 -71 22 -54 22 -56 5 -121 -15 -61 -15 -70 -1 -119 12 -42
16 -101 16 -266 l0 -213 -32 -23 c-31 -22 -41 -23 -158 -20 -109 3 -128 6
-147 24 -15 14 -33 19 -60 18 -83 -3 -116 0 -130 12 -9 7 -83 15 -205 20 -104
4 -219 15 -255 23 -89 21 -162 19 -214 -5 -24 -11 -58 -20 -75 -20 -24 0 -41
-11 -78 -52 -67 -73 -72 -91 -45 -158 25 -63 36 -77 100 -131 36 -30 62 -42
113 -53 37 -7 70 -17 74 -21 4 -4 -6 -18 -21 -31 l-28 -24 23 -30 c19 -27 68
-50 105 -50 7 0 39 -9 70 -19 77 -25 450 -45 655 -35 l148 7 39 -26 c22 -15
43 -37 47 -49 3 -13 16 -36 28 -53 20 -28 21 -43 22 -216 0 -169 2 -188 21
-220 11 -19 23 -54 26 -79 3 -24 12 -49 19 -55 7 -5 27 -28 43 -50 29 -39 30
-44 33 -168 3 -116 2 -130 -18 -162 -24 -38 -24 -69 1 -173 9 -40 9 -62 1 -89
-6 -21 -7 -43 -3 -52 5 -9 12 -52 16 -96 7 -79 25 -132 80 -236 14 -26 25 -60
25 -76 0 -48 19 -89 47 -102 32 -14 36 -10 56 54 9 28 23 70 33 95 14 36 18
80 20 215 2 190 25 310 67 349 16 15 27 48 41 118 19 96 19 99 1 153 -19 54
-19 55 3 107 12 31 25 95 31 154 6 56 13 108 16 117 4 8 -1 27 -10 41 -22 33
-13 70 23 101 l26 23 -17 55 c-13 40 -15 62 -7 81 13 34 7 165 -9 194 -7 13
-10 36 -6 52 8 37 51 47 82 18 24 -22 68 -22 228 2 39 6 214 14 390 19 316 9
351 12 390 37 17 11 127 35 175 38 8 1 17 3 20 6 3 3 17 11 33 17 15 7 27 17
27 22 0 11 -48 27 -107 35 -23 3 -62 15 -88 26 -26 11 -68 20 -94 20 -51 0
-111 16 -111 31 0 11 43 17 178 24 124 7 142 11 142 30 0 17 -41 22 -219 30
-73 3 -141 10 -150 15 -14 8 -13 9 6 10 14 0 27 10 35 28 16 33 -16 31 550 40
229 4 420 10 424 15 4 4 2 7 -5 7 -7 0 -19 6 -26 14 -20 19 -251 33 -296 17
-27 -9 -39 -8 -74 9 -49 24 -59 25 -75 5 -16 -20 -73 -19 -130 2 -33 12 -118
19 -320 29 -189 9 -290 17 -323 28 -30 9 -110 18 -207 22 -137 6 -162 10 -176
26 -25 27 -120 25 -178 -4 -38 -18 -49 -20 -72 -10 -21 10 -24 15 -14 27 20
24 7 58 -37 90 -42 30 -70 82 -59 110 6 18 67 20 83 4 9 -9 14 -5 19 16 5 19
0 50 -16 95 -28 81 -24 149 11 186 21 22 22 28 11 56 -7 20 -8 37 -2 48 22 41
43 225 47 411 l4 197 -27 21 c-19 15 -39 21 -62 19 -36 -3 -42 -9 -62 -64 -9
-25 -44 -54 -65 -54 -2 0 -13 19 -23 43 -23 52 -66 76 -102 57 -17 -9 -26 -8
-45 4 -17 11 -46 15 -107 13 -46 -1 -92 -4 -102 -5z m-837 -1691 c36 -10 36
-26 1 -51 -35 -25 -93 -35 -144 -26 -31 6 -36 11 -36 35 0 19 7 31 23 39 24
12 118 14 156 3z"/>
</g>
</svg>
