<svg width="500" height="500" version="1.1" viewBox="0 0 132.3 132.3" xmlns="http://www.w3.org/2000/svg">
  <path d="m82.73 36.95c-1.255 1.556-6.365 3.464-7.201 5.712-3.491-2.254-8.287-5.281-11.79-5.341 6.234-2.12 8.291-1.66 11.89-0.2726 2.804 0.1714 7.448-0.1997 9.73-1.011-0.6382 0.3171-1.37-0.641-2.625 0.9134zm-17.5 1.363-0.0014-0.01217c-0.04047-0.07963 0.03373-0.1444 0.08637-0.06749zm61.56-18.57c1.565-2.368-0.7098-4.738-1.381-5.602-0.6707-0.8622-1.19-3.835-2.043-4.272-0.8527-0.4385-3.352 0.8919-3.581 1.577-0.228 0.6855-2.634 2.731-4.53 5.006-18.24 5.267-14.98 2.722-19.8 7.702 0 0-1.414 0.3509-2.47 0.4967-1.654 0.2254-2.792 1.507-4.371 2.764 0 0-1.216-1.712-1.633-2.1-0.5034-0.4696-2.671-2.179-4.699-1.289-2.181 0.9568-18.58 1.533-18.58 1.533s-5.013-1.59-11.05-0.6139c-0.5518 0.08905-3.02 0.8622-3.549 0.9931-0.7758 0.1916-1.605 0.0028-2.3 0.2996 0 0 5.758 1.577 6.791 2.92-0.8933-0.03507-1.938 1.352-3.831 1.965-5.98-1.641-11.25-1.554-18.07-1.716-2.017-0.04724-6.001 0.7151-10.76 2.161-2.56 0.7786-3.581-1.753-6.767 0.05398-2.825 1.603-10.57 4.699-9.406 4.95 3.509 0.7652 6.594-0.695 5.186 0.5479-2.51 2.215-7.575 3.494-9.96 7.631 2.556-1.304 5.225-1.78 7.822-0.9931 2.911 0.8813 4.96 1.923 7.172 2.39 4.724 0.9998 7.303 0.4668 10.89 1.883 1.966 0.7747 5.133 0.5599 7.084 0.8555 1.403 0.2119 1.374 2.765 5.599 5.25-2.962-0.5059-6.527-3.394-7.476-3.297-3.507 4.339-5.186 4.611-13.54 7.303-2.753 0.888-5.814 2.78-9.829 4.294 9.808 0.9473 11.17 3.8 17.01 3.135-5.899 3.997-10.08 10.93-17.87 13.34 4.145 0.3023 12.32-1.846 15.92-3.68-0.7031 1.564-5.052 5.334-7.052 6.403 1.78-0.1363 7.275 0.4696 9.014-3.082-2.298 4.685-8.259 8.58-14.71 11.66 3.094-0.2024 7.377-1.549 11.64-4.442-2.192 3.786-10.09 11.13-17.26 14.91 5.038-1.135 8.069-0.5532 10.7-1.672 2.561-1.089 6.054-2.88 8.196-4.572 2.845-2.252 4.833-6.301 10.69-10.89-6.767 9.85-9.039 14.48-13.36 17.81 1.244-0.2618 5.123-0.0351 6.841-1.177-0.7705 2.078-8.414 9.515-15.96 14.6 5.733-1.731 16.71-9.145 20.23-12.57-0.07963 0.6735-2.459 6.357-5.133 9.399 2.139-1.198 9.638-7.038 10.98-9.466 1.554-2.814 13.24-18.27 14.92-20.29-0.1471 1.22-12.01 20.86-12.38 24.8-0.1768 1.904-2.476 5.19-2.951 7.345-0.6262 2.837-0.8651 5.775-2.331 8.545 3.588-2.139 13.97-17.5 18.32-23.42-0.2078 2.596-1.488 6.506-1.888 9.907-0.1673 1.425-0.6693 5.027-1.591 6.622-0.8298 1.434-0.9811 4.142-1.213 5.846 2.677-2.394 7.419-6.862 9.053-9.674 0.857-1.472 3.481-4.809 4.583-8.682 1.043 1.657 1.057 1.426 1.372 2.714 0.2524 1.031-0.7366 2.789-0.7504 4.463-0.02024 2.357-0.5775 4.541-0.4428 5.655 4.064-4.72 5.885-14.33 6.961-19.83 0.2065 4.604 1.05 5.916 1.317 7.264 0.3373 1.707-0.116 4.301-0.228 8.464 4.258-8.739 4.668-8.968 5.094-14.7 1.058 2.494 1.127 7.525 1.413 10.94 0.143 1.71 4.329 4.202 6.17 4.95-2.372-5.056-2.459-16.64-2.459-16.64s-0.3927-7.045 1.765-9.522c0.9205-1.057 3.326-0.9702 4.71-1.846 4.625-2.93 10.76-2.201 12.7-0.4805 1.552 1.376 3.047 4.251 0.4103 6.731 2.664-1.22 5.772-2.936 8.573-5.574 0 0 1.278 3.726-0.2429 6.654 2.17-2.398 5.811-2.429 7.606-5.197 1.307-2.013 4.703 3.68 5.387 3.719 0.5048 0.02967 3.754-2.089 4.403-2.571 0.6492-0.4805 1.297-5.867 2.993-7.028 1.695-1.162 2.268-2.341 3.003-3.101 0.7342-0.7596 0.3171-1.063 0.1889-1.366-0.1268-0.3023-1.471-0.8054-2.303-0.8231-0.8312-0.01485-1.214 0.251-2.217 0.07151 3.648-4.174 1.83-10.95-0.4805-13.94 0.1714 2.919-1.469 7.123-3.648 10.06-0.6788 0.9162-0.6382-0.7366-2.511 2.066-0.2861 0.4276-2.204-1.202-4.438-0.8097 1.117-3.655-0.6654-9.586-3.432-12.41 0.1242 5.553-0.8259 9.056-1.684 9.526-0.3658 0.2011-1.276 0.4953-1.842 2.252 0 0-1.963-1.066-2.862-1.317-0.8986-0.2496-1.75-0.5818-2.225-2.096-0.4738-1.514-6.52-2.905-8.171-2.047-2.87 1.491-4.96 0.4925-7.345 1.05-2.065 0.483-4.128 2.641-4.791 1.295-0.3602-1.873 1.135-7.077 2.086-11.51 0.5437-2.533 0.2834-5.204 0.9825-5.864 3.094-2.912 11.29-3.965 12.67-4.802 1.379-0.8354 4.128-3.342 5.955-3.527l4.209-4.576c0.8054 3.248 2.448 2.204 2.495 3.047 0.1903 3.457 1.537 7.296 0.9878 8.799 3.673-2.846 4.128-15.3 4.128-15.3 2.511 0.05398 5.077-1.005 6.096-2.905 0.8097 2.192 1.568 1.158 2.101 1.739 2.495 2.726 1.564 5.486 0.7666 8.114 6.559-6.957 4.251-12.57 2.215-15.46 0 0 0.5736-2.56 0.0742-4.759-0.1633-0.7194-0.9621-2.687-2.078-2.988" stroke-width=".3528"/>
</svg>
