<?xml version="1.0" standalone="no"?>
<!DOCTYPE svg PUBLIC "-//W3C//DTD SVG 20010904//EN"
 "http://www.w3.org/TR/2001/REC-SVG-20010904/DTD/svg10.dtd">
<svg version="1.0" xmlns="http://www.w3.org/2000/svg"
 width="529.000000pt" height="460.000000pt" viewBox="0 0 529.000000 460.000000"
 preserveAspectRatio="xMidYMid meet">
<metadata>
Created by potrace 1.16, written by Peter Selinger 2001-2019
</metadata>
<g transform="translate(0.000000,460.000000) scale(0.100000,-0.100000)"
fill="#000000" stroke="none">
<path d="M1540 4029 c-14 -6 -63 -15 -110 -20 -47 -6 -102 -19 -123 -30 -21
-10 -45 -19 -55 -19 -9 0 -37 -11 -62 -24 -25 -13 -56 -27 -69 -31 -14 -4 -49
-24 -79 -44 -30 -20 -70 -45 -87 -56 -82 -51 -117 -79 -201 -162 -49 -50 -105
-116 -124 -147 -19 -32 -47 -73 -62 -93 -15 -19 -39 -61 -53 -92 -15 -31 -34
-72 -44 -91 -10 -19 -22 -51 -26 -70 -4 -19 -14 -46 -21 -60 -13 -23 -27 -102
-56 -302 -11 -78 -8 -116 27 -346 8 -56 21 -113 29 -125 8 -12 17 -37 21 -56
4 -19 18 -54 31 -79 13 -25 24 -51 24 -58 0 -12 19 -44 83 -139 8 -11 30 -45
49 -75 20 -30 76 -95 124 -144 84 -83 119 -112 199 -161 19 -12 42 -28 53 -38
10 -9 22 -17 26 -17 4 0 20 -8 34 -19 15 -10 43 -23 63 -30 20 -6 53 -20 74
-31 22 -11 44 -20 51 -20 6 0 31 -9 55 -19 24 -10 82 -24 129 -30 47 -6 101
-16 120 -21 51 -15 224 -12 310 5 41 8 102 19 135 24 62 10 150 38 220 70 126
59 145 69 172 93 54 47 125 52 161 11 67 -75 82 -103 93 -174 13 -78 44 -126
101 -155 16 -8 37 -22 46 -31 9 -8 51 -39 92 -69 119 -85 164 -118 184 -137
11 -9 23 -17 27 -17 3 0 34 -21 67 -48 61 -46 96 -73 167 -122 20 -14 54 -38
75 -55 21 -16 55 -41 75 -55 20 -14 63 -45 95 -70 32 -25 74 -55 92 -68 18
-13 67 -48 108 -77 41 -30 90 -65 108 -77 55 -39 186 -137 210 -157 12 -11 44
-23 70 -27 26 -3 72 -13 102 -20 78 -20 86 -10 82 108 -3 106 2 96 -147 251
-55 58 -188 196 -295 308 -107 112 -243 253 -301 314 -59 60 -142 148 -185
194 -44 46 -138 143 -209 215 l-130 131 -76 11 c-70 10 -82 16 -142 64 -83 66
-93 115 -37 175 10 11 32 49 50 85 17 36 40 81 50 100 9 19 21 51 25 70 4 19
15 50 25 70 10 19 21 65 24 101 4 37 13 89 21 115 18 58 20 278 4 321 -5 15
-17 72 -25 127 -8 55 -19 105 -25 112 -5 6 -18 35 -28 65 -43 123 -78 196
-124 259 -10 14 -32 47 -49 73 -40 62 -233 255 -287 287 -24 14 -55 34 -69 46
-46 36 -250 134 -279 134 -4 0 -21 7 -38 16 -16 9 -73 22 -125 30 -52 8 -108
19 -124 24 -37 13 -283 12 -316 -1z m309 -194 c24 -8 75 -19 115 -24 40 -5 84
-16 97 -24 13 -8 44 -21 69 -27 25 -7 52 -18 60 -25 8 -7 26 -16 40 -20 14 -4
36 -17 50 -27 14 -11 53 -37 87 -59 70 -44 197 -164 236 -224 15 -22 40 -59
56 -82 30 -42 101 -182 101 -199 0 -5 9 -26 20 -47 11 -21 25 -72 30 -113 5
-41 15 -85 22 -97 18 -30 18 -293 0 -324 -6 -12 -17 -57 -23 -100 -6 -43 -19
-92 -30 -109 -10 -17 -19 -37 -19 -44 0 -7 -16 -45 -35 -84 -34 -67 -49 -91
-118 -195 -39 -58 -172 -187 -237 -228 -30 -20 -66 -43 -80 -53 -36 -24 -149
-80 -162 -80 -6 0 -34 -11 -62 -24 -28 -13 -80 -26 -116 -30 -36 -3 -83 -13
-105 -21 -54 -19 -217 -19 -281 0 -27 8 -78 18 -114 21 -36 3 -79 14 -96 24
-17 10 -46 21 -64 25 -29 6 -123 51 -160 75 -16 11 -38 25 -111 74 -53 35
-215 196 -229 228 -10 21 -47 78 -69 104 -14 18 -81 160 -81 174 0 7 -9 27
-19 44 -12 18 -24 66 -30 114 -6 45 -15 92 -21 103 -15 26 -14 262 0 289 6 10
15 57 21 102 6 46 17 92 24 104 7 11 19 40 26 65 7 24 21 55 31 68 10 13 18
31 18 39 0 17 68 123 88 135 6 4 12 13 12 20 0 28 135 161 255 252 66 49 209
125 237 125 7 0 31 10 53 21 22 12 71 26 110 30 38 5 88 16 110 24 55 19 239
20 294 0z"/>
<path d="M1521 3704 c-57 -8 -120 -24 -142 -34 -21 -11 -44 -20 -52 -20 -30 0
-158 -75 -267 -156 -71 -54 -200 -197 -200 -223 0 -6 -8 -19 -17 -29 -22 -22
-80 -137 -89 -177 -4 -16 -15 -46 -25 -65 -10 -21 -22 -85 -30 -163 -15 -156
0 -380 31 -433 10 -17 21 -46 25 -63 8 -39 63 -150 87 -175 10 -11 18 -24 18
-29 0 -18 126 -159 189 -210 68 -55 110 -83 176 -117 22 -11 51 -27 65 -35 14
-8 34 -15 45 -15 11 0 35 -9 53 -20 87 -53 530 -53 630 0 20 11 43 20 50 20
19 0 159 70 173 86 6 8 15 14 20 14 27 0 198 153 237 212 9 14 33 50 53 79 51
76 89 145 89 161 0 8 9 32 21 53 20 40 59 262 59 340 0 73 -39 307 -54 324 -8
9 -17 33 -21 54 -4 20 -16 48 -26 61 -11 13 -19 28 -19 33 0 18 -87 147 -140
207 -55 63 -179 166 -199 166 -5 0 -14 6 -20 14 -13 16 -151 86 -170 86 -6 0
-29 9 -50 20 -79 40 -333 57 -500 34z m289 -141 c13 -13 30 -23 39 -23 8 0 11
-3 7 -7 -4 -4 -37 -10 -74 -14 -133 -14 -213 -29 -249 -49 -21 -11 -43 -20
-51 -20 -15 0 -97 -44 -177 -95 -67 -43 -205 -177 -252 -245 -32 -46 -72 -122
-116 -220 -13 -30 -32 -98 -42 -150 -13 -74 -23 -101 -44 -123 l-26 -28 -6 73
c-6 69 -3 99 32 285 6 29 14 55 19 58 5 3 14 24 21 47 6 22 19 53 28 67 10 14
26 37 35 51 53 81 69 101 127 159 55 55 99 90 158 126 9 5 27 17 41 26 14 8
41 21 61 28 20 6 53 20 74 31 22 11 51 20 65 20 14 1 52 7 85 15 33 8 96 13
140 12 68 -2 84 -5 105 -24z m745 -846 c10 -63 10 -97 0 -177 -8 -55 -20 -109
-29 -122 -9 -12 -16 -30 -16 -39 0 -18 -57 -129 -96 -186 -77 -115 -254 -262
-351 -293 -21 -7 -45 -19 -54 -26 -8 -8 -38 -18 -65 -23 -27 -6 -78 -17 -114
-27 -71 -18 -250 -16 -284 3 -15 8 -5 14 60 33 44 12 115 30 159 40 44 9 98
27 120 39 22 11 46 21 53 21 7 0 45 19 84 43 39 23 80 47 92 54 27 15 166 150
188 183 10 14 31 43 47 65 28 38 73 123 120 228 13 29 28 99 38 178 19 144 25
145 48 6z"/>
</g>
</svg>
