<?xml version="1.0" encoding="UTF-8"?>
<svg width="500" height="500" version="1.1" viewBox="0 0 132.3 132.3" xmlns="http://www.w3.org/2000/svg" xmlns:cc="http://creativecommons.org/ns#" xmlns:dc="http://purl.org/dc/elements/1.1/" xmlns:rdf="http://www.w3.org/1999/02/22-rdf-syntax-ns#">
  <g transform="matrix(.3528 0 0 .3528 29.95 111.5)">
    <path d="m27.89-25.9c20.67-6.954 24.6-13.42 32.3-27.81l30.22 6.748c-9.433 18.15-37.44 29.7-43.73 33.02-0.1377 1.698 0.8339 3.741 3.221 5.497 4.108 3.03 10.16 6.12 20.16 4.154-11.61 8.312-29.21 8.343-37.99-0.8224-65.41 16.34-94.09 28.31-112.7 64.18 4.147-35.25 20.51-45.52 38.93-59.25-4.085-13.24 3.164-32.05 17.89-36.4-7.708 6.675-7.983 24.23-5.298 27.93 1.618 2.23 32.08-8.878 56.98-17.25" style="fill:#211e1e"/>
    <path d="m164-34.97c23.22-25.53 45.95-37.69 62.33-66.56-29 31.95-75.4 45.18-118.6 29.88-21.83-7.731-39.71-21.62-52.38-39.03 9.743 31.57 59.35 77.71 71.02 86.62 9.697 7.402 16.7 25.99 19.85 27.31-5.853-2.452 11.47-31.24 17.8-38.21" style="fill:#211e1e"/>
    <path d="m9.754-248.9c-0.00382 0.1033-0.7804 8.446-0.7842 8.546-1.741 44.72 9.211 75.73 32.69 104.8-9.303-23.82-10.45-48.14-1.239-74.14 15.35-43.35 45.08-69.86 97.98-74.16-44.19-14.4-80.05-12.85-112.2 4.984-5.042 2.261-21.44 6.897-22.45 4.575-1.423 4.017 6.407 14.96 6.12 21.88-0.0306 0.57 0.01531 2.976-0.153 3.523-1.228 3.997 0.0306-0.6388 0 0" style="fill:#211e1e"/>
    <path d="m208.1-304.4c-31.37-6.549-44.41 2.907-79.88 11.28 31.77 4.093 48.41 15.06 67.73 35.45 34.6 19.29 54.26 57.77 58.32 102.6 8.259-55.9 4.831-100.3-12.51-132.9-2.532-5.367-10.79-23.21-16.36-27.93 0.811 3.573-9.219 11.45-17.3 11.53" style="fill:#211e1e"/>
    <path d="m111.2-79.86c4.074 1.442 8.182 2.609 12.3 3.512-30.09-20.72-44.51-46.99-49.06-70.41-11.67-9.211-24.29-41.63-25.15-57.86-17.85 53.27 12.2 107.2 61.92 124.8" style="fill:#211e1e"/>
    <path d="m144.5-279.4c-35.67 5.795-67.29 24.15-84.73 54.21 37.4-31.78 80.21-43.92 136.9-11.51-16.81-28.43-35.92-39.7-52.21-42.7" style="fill:#211e1e"/>
    <path d="m247-136.7c-3.867-43.29-14.02-80.94-46.32-108 58.74 82.9-16.54 154.4-51.74 168.7 44.99 1.748 91.72-47.46 98.07-60.7" style="fill:#211e1e"/>
    <path d="m174.8-135.2c14.68-20.06 11.15-45.46 0.8224-60.24 1.094 18.01-2.437 26.34-7.207 33.91-13.05 5.482-26.9 13.78-48.67 1.894 20.02 21.39 37.84 26.19 55.06 24.44" style="fill:#211e1e"/>
    <path d="m146.6-128.7c-31.35-10.03-40.74-33.57-40.74-33.57s-2.647-17.93 5.528-41.01c-14.66 9.387-27.56 39.35-29.02 51.08 12.07 12.07 34.88 27.07 64.23 23.5" style="fill:#211e1e"/>
    <path d="m58.73-213.9c-3.676 15.85 6.285 36.32 17.25 50.07 5.057-27.78 25.57-48.68 55.6-64.33-24.94-4.652-49.17-1.515-72.85 14.26" style="fill:#211e1e"/>
    <path d="m143.8-198.8c6.652 0.6771 22.58 13.48 25.21 21.31 4.036-22.81-7.042-35.23-22-46.11-16.81 5.524-30.69 21.85-33.46 41.08 12.02-12.88 23.59-16.95 30.24-16.27" style="fill:#211e1e"/>
    <path d="m-20.63-97.05c8.603 7.084 43.79 26.11 106.4 41.72-22.45-21.41-35.83-38.34-44.8-66.58-20.74-18.45-33.64-51.6-36.36-75.29-7.934 13.86-11.95 55.37-13.46 72.5-1.522 17.14-6.526 26.99-11.81 27.64" style="fill:#211e1e"/>
    <path d="m285.8-82.85c-4.632-0.0612-7.28-5.807-7.696-19.81 1.197-31.01-3.756-61.65-11.63-90.27-1.27 24.93-2.123 56.37-24.43 81.3-12.52 26.73-26.5 47.92-59.93 67.11 23.4 0.5623 49.99-5.811 78.22-21.76 10.46-5.29 22.48-12.41 25.46-16.57" style="fill:#211e1e"/>
    <path d="m202.8-222.9c-11.17-10.83-60.5-40.48-100.7-15.89 12.62-1.653 53.73-3.458 80.44 33.74 13.28 18.5 12.7 47.36 4.261 63.33 26.25-30.02 28.47-59.93 15.99-81.18" style="fill:#211e1e"/>
    <path d="m210.7-161.8c-34.42 50.67-75.42 67.96-122.2 24.02 6.289 24.98 33.08 50.85 48.85 58.72 23.28-9.624 66.63-48.7 73.32-82.74" style="fill:#211e1e"/>
  </g>
</svg>
