<?xml version="1.0" encoding="UTF-8"?>
<svg width="500" height="500" version="1.1" viewBox="0 0 132.3 132.3" xmlns="http://www.w3.org/2000/svg" xmlns:cc="http://creativecommons.org/ns#" xmlns:dc="http://purl.org/dc/elements/1.1/" xmlns:rdf="http://www.w3.org/1999/02/22-rdf-syntax-ns#">
  <g transform="matrix(.3528 0 0 .3528 29.95 111.5)">
    <path d="m149.6-211.3c-3.557 4.41-18.04 9.819-20.41 16.19-9.895-6.388-23.49-14.97-33.42-15.14 17.67-6.009 23.5-4.705 33.69-0.7726 7.948 0.4858 21.11-0.5661 27.58-2.865-1.809 0.8989-3.882-1.817-7.44 2.589zm-49.59 3.863-4e-3 -0.0345c-0.1147-0.2257 0.0956-0.4093 0.2448-0.1913zm174.5-52.64c4.437-6.713-2.012-13.43-3.913-15.88-1.901-2.444-3.374-10.87-5.791-12.11-2.417-1.243-9.501 2.528-10.15 4.471-0.6464 1.943-7.466 7.742-12.84 14.19-51.7 14.93-42.47 7.715-56.12 21.83 0 0-4.009 0.9945-7 1.408-4.689 0.6388-7.914 4.272-12.39 7.834 0 0-3.446-4.854-4.628-5.952-1.427-1.331-7.57-6.177-13.32-3.653-6.181 2.712-52.66 4.345-52.66 4.345s-14.21-4.506-31.33-1.74c-1.564 0.2524-8.56 2.444-10.06 2.815-2.199 0.5432-4.548 8e-3 -6.518 0.8491 0 0 16.32 4.471 19.25 8.277-2.532-0.0994-5.493 3.833-10.86 5.569-16.95-4.651-31.88-4.406-51.22-4.865-5.718-0.1339-17.01 2.027-30.5 6.124-7.256 2.207-10.15-4.969-19.18 0.153-8.006 4.544-29.95 13.32-26.66 14.03 9.945 2.169 18.69-1.97 14.7 1.553-7.114 6.277-21.47 9.903-28.23 21.63 7.244-3.695 14.81-5.045 22.17-2.815 8.25 2.498 14.06 5.451 20.33 6.774 13.39 2.834 20.7 1.323 30.88 5.336 5.573 2.196 14.55 1.587 20.08 2.425 3.978 0.6005 3.894 7.837 15.87 14.88-8.396-1.434-18.5-9.62-21.19-9.344-9.941 12.3-14.7 13.07-38.39 20.7-7.803 2.517-16.48 7.879-27.86 12.17 27.8 2.685 31.66 10.77 48.22 8.885-16.72 11.33-28.56 30.97-50.66 37.82 11.75 0.8568 34.93-5.233 45.12-10.43-1.993 4.433-14.32 15.12-19.99 18.15 5.045-0.3863 20.62 1.331 25.55-8.736-6.514 13.28-23.41 24.32-41.7 33.06 8.771-0.5737 20.91-4.391 33-12.59-6.212 10.73-28.61 31.54-48.91 42.26 14.28-3.217 22.87-1.568 30.33-4.739 7.26-3.087 17.16-8.162 23.23-12.96 8.063-6.384 13.7-17.86 30.31-30.86-19.18 27.92-25.62 41.05-37.88 50.48 3.527-0.742 14.52-0.09946 19.39-3.335-2.184 5.89-23.85 26.97-45.24 41.39 16.25-4.907 47.35-25.92 57.34-35.62-0.2257 1.909-6.969 18.02-14.55 26.64 6.063-3.397 27.32-19.95 31.12-26.83 4.406-7.975 37.52-51.79 42.3-57.52-0.4169 3.458-34.04 59.12-35.08 70.3-0.5011 5.397-7.019 14.71-8.365 20.82-1.775 8.04-2.452 16.37-6.606 24.22 10.17-6.063 39.61-49.61 51.94-66.39-0.589 7.359-4.219 18.44-5.351 28.08-0.4743 4.039-1.897 14.25-4.51 18.77-2.352 4.066-2.781 11.74-3.439 16.57 7.589-6.785 21.03-19.45 25.66-27.42 2.429-4.173 9.868-13.63 12.99-24.61 2.957 4.697 2.995 4.043 3.89 7.692 0.7153 2.922-2.088 7.906-2.127 12.65-0.05738 6.682-1.637 12.87-1.255 16.03 11.52-13.38 16.68-40.63 19.73-56.22 0.5852 13.05 2.976 16.77 3.733 20.59 0.9562 4.839-0.3289 12.19-0.6464 23.99 12.07-24.77 13.23-25.42 14.44-41.68 2.999 7.069 3.194 21.33 4.005 31.01 0.4054 4.846 12.27 11.91 17.49 14.03-6.724-14.33-6.969-47.16-6.969-47.16s-1.113-19.97 5.003-26.99c2.609-2.995 9.428-2.75 13.35-5.233 13.11-8.304 30.5-6.238 36-1.362 4.399 3.901 8.637 12.05 1.163 19.08 7.55-3.458 16.36-8.323 24.3-15.8 0 0 3.622 10.56-0.6885 18.86 6.151-6.797 16.47-6.885 21.56-14.73 3.706-5.707 13.33 10.43 15.27 10.54 1.431 0.08411 10.64-5.921 12.48-7.287 1.84-1.362 3.676-16.63 8.484-19.92 4.804-3.293 6.43-6.636 8.511-8.79 2.081-2.153 0.8989-3.014 0.5355-3.871-0.3595-0.8568-4.169-2.283-6.529-2.333-2.356-0.0421-3.442 0.7114-6.284 0.2027 10.34-11.83 5.187-31.03-1.362-39.52 0.4858 8.273-4.165 20.19-10.34 28.52-1.924 2.597-1.809-2.088-7.118 5.856-0.8109 1.212-6.246-3.408-12.58-2.295 3.167-10.36-1.886-27.17-9.727-35.17 0.3519 15.74-2.341 25.67-4.774 27-1.037 0.5699-3.618 1.404-5.221 6.384 0 0-5.565-3.022-8.113-3.733-2.547-0.7076-4.961-1.649-6.307-5.94-1.343-4.292-18.48-8.235-23.16-5.802-8.136 4.227-14.06 1.396-20.82 2.976-5.852 1.369-11.7 7.485-13.58 3.672-1.021-5.309 3.217-20.06 5.913-32.62 1.541-7.179 0.8032-14.75 2.785-16.62 8.771-8.254 31.99-11.24 35.9-13.61 3.909-2.368 11.7-9.474 16.88-9.998l11.93-12.97c2.283 9.207 6.938 6.246 7.072 8.637 0.5393 9.8 4.357 20.68 2.8 24.94 10.41-8.067 11.7-43.38 11.7-43.38 7.118 0.153 14.39-2.85 17.28-8.235 2.295 6.212 4.445 3.282 5.955 4.93 7.072 7.726 4.433 15.55 2.173 23 18.59-19.72 12.05-35.63 6.277-43.81 0 0 1.626-7.256 0.2104-13.49-0.4628-2.039-2.727-7.615-5.89-8.468"/>
  </g>
</svg>
