<?xml version="1.0" encoding="UTF-8"?>
<svg width="500" height="500" version="1.1" viewBox="0 0 132.3 132.3" xmlns="http://www.w3.org/2000/svg" xmlns:cc="http://creativecommons.org/ns#" xmlns:dc="http://purl.org/dc/elements/1.1/" xmlns:rdf="http://www.w3.org/1999/02/22-rdf-syntax-ns#">
  <g transform="matrix(.3528 0 0 .3528 29.95 111.5)">
    <path d="m239.9-3.025c-22.68 25.18-52.11 44.33-84.89 54.19-40.63 12.23-85.3 10.15-125-6.457-41.94-17.54-77.03-51.04-96.67-92.15-20.83-43.6-23.95-95.36-8.382-141.3 13.16-38.85 39.45-73.06 73.5-95.82 30.24-20.21 66.6-31.16 102.8-31.24h0.597c35.87 0.0853 71.89 10.81 102.1 30.78 8.235 5.446 16.02 11.57 23.29 18.26 35.06 30.59 58.19 74.65 62.31 122 2.826 32.56-3.143 65.85-17.33 95.31-8.223 17.09-19.19 32.76-32.24 46.45zm-137.2-292.4c-0.4873-6e-3 -0.9746-6e-3 -1.462-6e-3 -32.16 0.0731-64.12 9.667-90.95 27.42-41.35 27.37-69.65 73.75-74.26 124.1-2.747 29.99 2.656 60.62 15.58 87.66 22.43 46.94 67.33 82.21 119 92 10.59 2.004 21.37 2.954 32.14 2.869v-334.1" style="fill-rule:evenodd"/>
  </g>
</svg>
