<?xml version="1.0" encoding="UTF-8"?>
<svg width="500" height="500" version="1.1" viewBox="0 0 132.3 132.3" xmlns="http://www.w3.org/2000/svg" xmlns:cc="http://creativecommons.org/ns#" xmlns:dc="http://purl.org/dc/elements/1.1/" xmlns:rdf="http://www.w3.org/1999/02/22-rdf-syntax-ns#">
  <g transform="matrix(.3528 0 0 .3528 29.95 111.5)">
    <path d="m276-130.3c-0.08 0.0421-0.1394 0.0854-0.2091 0.128-10.51 5.222-19.21 9.566-26.92 13.95-2.572 1.46-5.029 2.924-7.409 4.424-9.07 6.569-18.76 13.98-25.89 22.85 2.465-8.476 4.307-17.65 5.834-25.93 0.8563-2.843 1.877-5.382 3.096-7.731 6.26-12.53 19.37-21.74 33.31-22.43 2.764 1.799 5.533 3.472 8.304 5.026s5.547 2.994 8.31 4.304c2.426 1.327 4.734 3.73 1.567 5.408m-158.2-34.26-7.035 6.285c-8.002 7.15-23.55-0.4061-36.96-10.87-2.683-2.092-5.282-4.299-7.719-6.528-8.843-7.671-15.63-16.67-27.52-17.34 8.001-0.8751 16.63-1.052 24.36 2.725 3.719 1.491 6.991 3.282 9.35 5.111 8.202 6.366 11.8 9.688 22.96 15.93 7.938 4.436 15.49 6.735 22.57 4.692m-11.15-43.51c-19.7-7.647-37.07-5.99-50.14-0.7198-2.614 1.051-5.055 2.252-7.313 3.549-4.746 1.957-7.612 5.771-11.1 8.888 0.9208-4.587 4.41-7.704 6.848-11.85 1.39-1.703 2.903-3.295 4.537-4.774 4.896-4.433 10.87-7.842 17.9-10.2 12.57-4.219 28.42-4.872 44.62-1.835 9.45 1.767 16.97 6.399 24.24 10.87 7.39 4.552 15 9.236 24.67 11.05l-15.57 13.91c-12.32 1.284-30.5-15.72-38.7-18.9m31.6 87.52c8.232 23.04 14.2 46.57 14.18 70.43-9.78-26.39-22.97-50.99-26.9-78.8 0.2097-3.496 1.373-6.461 3.774-8.607l7.032-6.283c-1.057 2.547-1.519 5.234-1.49 8.037 0.0235 2.802 0.5294 5.727 1.363 8.811 0.5574 2.056 1.242 4.204 2.036 6.415m40.08-7.304c-0.3733-1.416-1.096-3.152-2.034-5.118-4.674-9.823-14.62-25.37-12.41-35.45l15.58-13.92c0.1777 2.454 0.5507 4.797 1.065 7.057 1.559 10.88 9.664 19.96 12.29 30.65 0.7396 2.084 1.391 4.223 1.897 6.441 0.5068 2.218 0.8693 4.517 1.045 6.913 0.2003 2.742 0.301 5.461 0.3 8.148-0.1088 2.347-0.2484 4.736-0.4356 7.143-0.1875 2.412-0.4202 4.845-0.7149 7.275-4.653 22.28-12.42 54.32-37.89 59.51 17.67-19.55 25.83-46.92 22.65-72.61-0.3541-1.987-0.8027-3.998-1.34-6.042m-159.9 154.3c28.75-22.7 47.61-40.52 57.27-52.38 1.332-1.636 4.077-4.049 7.326-8.57 3.696-5.15 7.35-12.53 10.72-17.65 1.205-2.042 2.268-4.144 3.205-6.348 1.872-4.417 3.234-9.266 4.246-14.91 0.0458-1.457 0.4162-3.808 0.6169-6.178 0.2007-2.37 0.2314-4.755-0.4024-6.282-0.8608-2.368-1.48-4.574-1.848-6.676-1.11-6.316 0.04367-11.72 3.735-17.89 1.348-2.249 2.825-4.48 4.391-6.633 3.137-4.312 6.64-8.324 10.26-11.56 0.8804-0.7866 2.191-1.953 3.827-3.414-0.3751 1.835-0.4788 3.771-0.366 5.767 0.1125 2.002 0.4389 4.068 0.9151 6.186 7.836 28 28.03 75.16 30.3 75.52 4.529 0.713 31.61-2.811 45.25-55.95 0.6062-2.355 0.8314-4.791 1.14-7.189 0.6143-4.798 0.9479-9.576 1.056-14.21 0.0357-3.257-0.0693-6.496-0.3012-9.69-3.217-19.42-15.54-36.02-17.57-57.02-0.729-0.3387-1.59-0.2112-2.193 0.3219l-0.4749-0.5315s-1.651 1.471-4.393 3.905l0.3214 0.3598-52.98 47.33c-3.513 3.139-10.23 9.266-17.05 16.59-2.271 2.445-4.554 5.024-6.736 7.684-6.074 7.113-9.598 13.06-10.82 22.93 3.34-0.4747 6.651 1.92 8.447 5.334 1.172 2.717 0.01871 6.889-1.455 9.475-8.175-7.768-20.84-6.49-30.2-10.21-2.34-0.9289-4.459-2.182-6.226-3.99-1.767-1.808-3.182-4.171-4.108-7.314-2.671-11.42-0.6036-24.56-9.331-34.32 6.755-2.271 11.74 3.311 12.69 9.992 8.699-1.498 17.47-4.318 25.14-9.656 2.679-1.747 5.312-3.589 7.829-5.441 7.555-5.554 14.1-11.18 17.91-14.57 16.9-15.14 58.28-52.29 58.28-52.29 0.5996-0.5358 0.823-1.377 0.5682-2.14-0.2496-0.7622-0.9385-1.308-1.74-1.377-10.89-0.9521-18.88-5.869-27.34-11.08-7.588-4.67-15.43-9.499-25.62-11.41-22.59-4.23-48.24-2.163-65.12 12.36-2.41 2.075-4.643 4.403-6.664 7.002-4.448 5.895-7.462 12.35-8.531 19.58 6.68-0.9494 13.14 2.065 18.9 5.702-9.843 10.05-23.75 9.929-34.77 17.26-6.829 3.592-6.031 12.92 0.3519 17.25 6.46 3.012 13.21 0.741 16.85-5.018 4.558-10.35 11.06-19.92 18.19-28.8 4.29 6.205 10.75 9.22 15.57 14.6 1.683 1.412 3.632 2.985 5.771 4.588 8.557 6.417 20.17 13.38 30 13.09-1.319 1.179-2.407 2.156-3.159 2.828-7.234 6.463-17.52 12.13-26.8 15.39-2.321 0.8142-4.582 1.482-6.714 1.97-2.135 0.4908-4.141 0.8076-5.962 0.92-0.8209-2.57-3.204-4.568-6.34-5.79-18.65-5.434-35.32 8.209-48.62 19.51-2.024 1.646-4.169 3.426-6.406 5.321-1.865 1.583-3.796 3.245-5.778 4.981-1.982 1.737-4.015 3.548-6.091 5.427-15.8 14.04-29.97 30.47-44.55 46.34-1.952 2.401-3.843 4.811-5.667 7.224-3.644 4.825-7.009 9.649-9.985 14.41 0.4543-4.945 1.076-9.867 1.842-14.75 0.386-2.443 0.805-4.876 1.265-7.291 6.726-29.86 34.26-48.19 47.45-75.3 1.558-2.661 3.046-5.363 4.448-8.116 5.62-11 9.887-22.74 12.18-35.33 0.8343-3.049 1.931-5.837 3.239-8.427 6.527-12.94 18.31-20.82 28.89-30.02 2.65-2.152 5.285-4.212 7.898-6.208 10.44-7.983 20.52-14.95 29.45-20.89 0.2285-0.1502 0.4309-0.2968 0.6542-0.4473 8.83-2.943 18.06-5.033 26.57-5.595 14.98-0.9921 24.07-4.499 33.51-12.93 6.432-5.742 9.962-10.87 12.48-19.56 16.32 31.01 41.28 60.47 50.59 70.98 1.883 2.091 4.452 4.879 7.563 8.065 18.26 17.49 37.89 33.83 57.51 50.18-11.96 0.652-22.43 10-28.84 19.05-2.16 3.096-3.892 6.413-5.298 10.2-1.763 12.61-5.41 24.7-10.75 35.94-1.336 2.811-2.778 5.57-4.3 8.293-3.627 5.524-7.179 11.06-10.91 16.38-1.864 2.665-3.779 5.278-5.77 7.822-6.979 7.549-14.11 16.43-21.68 22.91-2.376 1.828-4.808 3.561-7.286 5.22-6.014 2.55-12.21 3.835-18.49 4.649-3.142 0.4056-6.306 0.6935-9.482 0.9729-3.8 0.05275-7.523 0.3791-11.17 0.9505-3.646 0.5663-7.207 1.386-10.69 2.424-2.972 1.013-5.837 2.195-8.614 3.52-2.772 1.325-5.451 2.797-8.054 4.387-8.574 5.062-16.09 12.1-23.43 19.42-2.446 2.441-10.23 10.48-12.69 12.97-15.72 19.32-46.12 31.16-73.12 16.39 6.649 1.392 10.4-1.511 36.27-16.52m86.28-12.79c-10.06 6.141-19.27 14.36-28.63 21.56-2.341 1.802-4.69 3.539-7.062 5.163-1.938 1.359-3.91 2.635-5.922 3.806-2.005 1.169-4.05 2.231-6.132 3.16-8.343 4.004-17.67 4.804-27.54 3.586 16.7-2.374 23.89-15.93 35.43-28.52 1.992-2.093 4.009-4.165 6.069-6.182 6.183-6.054 12.81-11.61 20.6-15.75 2.308-1.229 4.695-2.327 7.152-3.268 2.458-0.9463 4.995-1.733 7.615-2.339 2.626-0.7531 5.283-1.416 7.969-2.003 8.056-1.757 16.36-2.82 24.67-3.346-10.24 5.388-19.24 12.17-28.27 19.6-1.957 1.562-3.943 3.092-5.965 4.531m-174.4 9.75c-0.4852-2.096-0.9197-4.173-1.3-6.239-0.5685-3.099-1.029-6.193-1.403-9.294-0.3715-3.104-0.6623-6.216-0.87-9.334l29.53-26.38 0.0073 0.0082c1.72-1.537 3.443-2.762 5.222-3.553 1.781-0.7876 3.619-1.145 5.567-0.9448 6.798 1.793 11.91 5.816 15.08 10.92 1.588 2.551 2.692 5.378 3.28 8.328 2.459 13.3-6.137 24.75-15.29 32.06-1.586 1.417-3.235 2.753-4.928 3.991-5.07 3.711-10.52 6.545-15.7 8.063-2.771 0.01493-6.992-0.497-9.912-2.53-3.586-1.732-5.781-3.667-9.281-5.089m-3.761-47.2c5.244-9.611 12.34-19.49 19.98-28.83 1.91-2.339 3.854-4.644 5.832-6.897 11.82-13.14 25.16-26.31 37.94-38.49 2.196-1.986 4.346-3.897 6.431-5.721 4.171-3.648 8.089-6.948 11.63-9.824 2.124-1.726 4.107-3.297 5.911-4.718 5.735-4.262 12.02-9.872 20.09-12.07 2.682-0.5143 4.764 0.7625 6.327 2.699 7.388 12.65 2.681 25.64 1.314 38.15-0.1859 3.303 0.4633 6.487 1.975 9.057 1.512 2.57 3.903 4.527 7.209 5.391 13.01 3.367 29.04-2.64 35.46 6.953 2.097 3.131 2.865 6.076 2.748 8.896-2.088 6.144-4.917 11.9-8.325 17.3-1.705 2.705-3.551 5.319-5.523 7.856-5.445 7.335-11.58 13.88-18.15 19.88-2.194 1.999-8.923 9.433-11.23 11.36-38.66 32.32-51.03 41.78-74.74 41.69-2.254 0.08799-4.55-0.06189-6.887-0.4833-2.337-0.4214-4.721-1.115-7.149-2.121 2.908-2.598 5.822-5.3 8.726-8.056 1.452-1.381 2.903-2.775 4.348-4.174 12.16-12.88 33.42-25.6 27.11-46.45-0.6782-2.207-1.623-4.363-2.798-6.396-4.702-8.121-13.06-14.2-22.45-12.99-2.592 0.4236-5.441 1.371-8.562 3.023-3.119 1.655-6.513 4.011-10.19 7.26l-5e-3 -0.0056-0.2944 0.263c-0.0082 0.0073-0.01361 0.01216-0.02177 0.01945l-26.81 23.96c-0.1946-5.512-0.1585-11.03 0.1122-16.53m60.89-151.9c-0.9222 1.99-1.706 3.999-2.387 6.024-1.511 8.305-3.766 16.32-6.71 24.02-0.9806 2.567-2.037 5.099-3.169 7.595-9.088 19.81-21.32 37.02-35.5 53.45 7.721-19.45 10.23-40.51 21.67-58.25 1.515-2.55 3.126-5.048 4.812-7.5 5.076-7.358 10.81-14.31 17.27-20.75 1.332-1.538 2.67-3.062 4.006-4.584m134.6-128c1.962-2.028 3.942 0.5998 4.855 3.059 0 0 0.0166-0.0197 0.0193-0.0222 1.987 5.773 4.496 11.64 7.356 17.49-2.589 11.47-5.923 16.25-12.39 22.03-8.691 7.756-17.12 10.98-31.09 11.91-5.285 0.3497-10.85 1.292-16.43 2.64 20.96-15.84 30.29-30.16 47.68-57.1m159 162.1s0.0113-0.0202 0.0141-0.0226c-2.694-1.171-5.407-2.497-8.131-3.95-2.726-1.461-5.464-3.049-8.205-4.79-24.21-16.07-44.23-37.08-65.33-56.81-1.788-1.892-3.483-3.745-5.064-5.504-18.86-21.28-50.59-60.57-60.9-94.28-0.0376 0.0238-0.0724 0.0451-0.0724 0.0451-2.421-8.13-10.29-12.23-14.86-6.164l-2.914 4.501c-1.956 3.027-3.799 5.908-5.555 8.654-15.95 24.94-24.74 38.69-49.54 55.18-10.88 7.237-23.43 15.97-36.31 26.19-2.574 2.045-5.162 4.152-7.758 6.348-10.4 8.534-19.81 17.64-28.76 27.32-1.789 1.942-3.561 3.902-5.322 5.887-6.996 6.564-13.29 13.65-18.89 21.14-1.87 2.499-3.662 5.046-5.379 7.629-16.29 28.59-24.06 60.63-35.57 90.83-0.749 3.144-1.419 6.267-2.021 9.368-4.815 24.79-5.431 48.03-1.834 69.39 0.4984 2.966 1.082 5.896 1.742 8.79 7.876 6.834 16.48 11.91 25.51 15.37 3.015 1.159 6.087 2.144 9.249 3.078 5.073 1.202 10.2 2.435 15.39 3.612 2.589 0.5883 5.189 1.162 7.799 1.712 23 4.056 47.11 11.38 69.99 3.791 2.86-0.8693 5.679-1.888 8.457-3.042 19.45-8.074 37.06-22.68 54.76-34.78 2.801-1.885 5.585-3.799 8.353-5.743 8.301-5.833 16.44-11.92 24.45-18.19 2.72-1.838 5.417-3.707 8.082-5.613 13.33-9.534 25.86-20.05 36.22-32.97 2.048-2.168 4.028-4.378 5.94-6.655 3.821-4.551 7.382-9.369 10.62-14.5 1.987-2.472 3.947-4.87 5.913-7.283 1.991-2.391 3.985-4.8 6.001-7.229 7.201-10.2 15.57-17.68 25.42-23.34 2.126-1.346 4.324-2.643 6.61-3.93 6.862-3.862 14.54-7.646 23.72-12.17 2.537-1.247 5.173-2.549 7.937-3.92l2.586-1.291c0.366-0.2486 0.7919-0.5016 1.329-0.7561 7.601-3.644 4.439-12.46-3.671-15.91"/>
    <path d="m7.878 6.968c14.22-3.432 25.38-13.41 33.49-26.06 1.502-2.411 2.844-4.914 4.011-7.48 2.339-5.134 4.004-10.53 4.914-15.93 0.4349-3.128 0.5374-6.283 0.2804-9.445-0.2569-3.162-0.873-6.337-1.887-9.479-0.6425-1.877-1.486-3.715-2.548-5.512-1.064-1.799-2.344-3.557-3.864-5.257-1.703-2.252-3.613-4.472-5.703-6.531-6.264-6.177-14.18-10.91-23.07-10.67-2.812-0.08573-5.746 0.2177-8.776 1.018-3.025 0.8005-6.147 2.1-9.331 3.995-18.63 11.11-23.23 18.48-33.25 31.26 4.316-2.18 9.006-3.179 13.75-3.086 2.376 0.04829 4.763 0.3664 7.129 0.9577 8.045 2.537 15.02 7.679 20.29 14.23 1.761 2.186 3.328 4.526 4.689 6.981 1.227 3.491 2.56 7.172 3.598 10.99 0.9661 7.489 3.786 16.26-0.628 24.59-0.8165 2.043-1.843 3.857-3.093 5.42"/>
  </g>
</svg>
