<svg width="500" height="500" version="1.1" viewBox="0 0 132.3 132.3" xmlns="http://www.w3.org/2000/svg">
  <g fill="#211e1e" stroke-width=".3528">
    <path d="m39.79 102.4c7.292-2.453 8.679-4.735 11.4-9.811l10.66 2.381c-3.328 6.403-13.21 10.48-15.43 11.65-0.04858 0.5991 0.2942 1.32 1.136 1.939 1.449 1.069 3.584 2.159 7.112 1.466-4.096 2.932-10.31 2.943-13.4-0.2902-23.08 5.765-33.19 9.988-39.76 22.64 1.463-12.44 7.236-16.06 13.73-20.9-1.441-4.671 1.116-11.31 6.312-12.84-2.719 2.355-2.816 8.548-1.869 9.854 0.5708 0.7867 11.32-3.132 20.1-6.086"/>
    <path d="m87.81 99.16c8.192-9.007 16.21-13.3 21.99-23.48-10.23 11.27-26.6 15.94-41.84 10.54-7.702-2.727-14.01-7.628-18.48-13.77 3.437 11.14 20.94 27.42 25.06 30.56 3.421 2.611 5.892 9.169 7.003 9.635-2.065-0.8651 4.047-11.02 6.28-13.48"/>
    <path d="m33.39 23.69c-0.0013 0.03644-0.2753 2.98-0.2767 3.015-0.6142 15.78 3.25 26.72 11.53 36.97-3.282-8.404-3.687-16.98-0.4371-26.16 5.415-15.29 15.9-24.65 34.57-26.16-15.59-5.08-28.24-4.533-39.58 1.758-1.779 0.7977-7.564 2.433-7.92 1.614-0.502 1.417 2.26 5.278 2.159 7.719-0.0108 0.2011 0.0054 1.05-0.05398 1.243-0.4332 1.41 0.0108-0.2254 0 0"/>
    <path d="m103.4 4.108c-11.07-2.31-15.67 1.026-28.18 3.98 11.21 1.444 17.08 5.313 23.9 12.51 12.21 6.806 19.14 20.38 20.58 36.2 2.914-19.72 1.704-35.39-4.414-46.89-0.8933-1.893-3.807-8.188-5.772-9.854 0.2861 1.261-3.252 4.04-6.103 4.068"/>
    <path d="m69.18 83.33c1.437 0.5087 2.887 0.9205 4.339 1.239-10.62-7.31-15.7-16.58-17.31-24.84-4.117-3.25-8.57-14.69-8.873-20.41-6.297 18.79 4.304 37.82 21.85 44.03"/>
    <path d="m80.93 12.93c-12.58 2.044-23.74 8.52-29.89 19.13 13.19-11.21 28.3-15.49 48.3-4.061-5.931-10.03-12.67-14.01-18.42-15.06"/>
    <path d="m117.1 63.27c-1.364-15.27-4.946-28.56-16.34-38.1 20.72 29.25-5.835 54.47-18.25 59.52 15.87 0.6167 32.36-16.74 34.6-21.41"/>
    <path d="m91.62 63.8c5.179-7.077 3.934-16.04 0.2901-21.25 0.386 6.354-0.8598 9.293-2.543 11.96-4.604 1.934-9.49 4.862-17.17 0.6682 7.063 7.546 13.35 9.24 19.43 8.622"/>
    <path d="m81.67 66.09c-11.06-3.539-14.37-11.84-14.37-11.84s-0.9339-6.326 1.95-14.47c-5.172 3.312-9.723 13.88-10.24 18.02 4.258 4.258 12.31 9.55 22.66 8.291"/>
    <path d="m50.67 36.04c-1.297 5.592 2.217 12.81 6.086 17.66 1.784-9.801 9.021-17.17 19.62-22.7-8.799-1.641-17.35-0.5345-25.7 5.031"/>
    <path d="m80.68 41.36c2.347 0.2389 7.966 4.756 8.894 7.518 1.424-8.047-2.484-12.43-7.762-16.27-5.931 1.949-10.83 7.709-11.8 14.49 4.241-4.544 8.323-5.98 10.67-5.74"/>
    <path d="m22.67 77.26c3.035 2.499 15.45 9.212 37.54 14.72-7.92-7.553-12.64-13.53-15.81-23.49-7.317-6.509-11.87-18.2-12.83-26.56-2.799 4.89-4.216 19.53-4.749 25.58-0.537 6.047-2.302 9.522-4.167 9.751"/>
    <path d="m130.8 82.27c-1.634-0.02159-2.568-2.049-2.715-6.989 0.4223-10.94-1.325-21.75-4.103-31.85-0.4481 8.795-0.749 19.89-8.619 28.68-4.417 9.43-9.349 16.91-21.14 23.68 8.256 0.1984 17.64-2.05 27.6-7.677 3.69-1.866 7.931-4.378 8.982-5.846"/>
    <path d="m101.5 32.86c-3.941-3.821-21.34-14.28-35.53-5.606 4.452-0.5832 18.96-1.22 28.38 11.9 4.685 6.527 4.481 16.71 1.503 22.34 9.261-10.59 10.04-21.14 5.641-28.64"/>
    <path d="m104.3 54.42c-12.14 17.88-26.61 23.98-43.11 8.474 2.219 8.813 11.67 17.94 17.23 20.72 8.213-3.395 23.51-17.18 25.87-29.19"/>
  </g>
</svg>
