<?xml version="1.0" encoding="UTF-8"?>
<svg id="uuid-fca2a99d-c6e4-417c-9989-18c9d91922d0" xmlns="http://www.w3.org/2000/svg" viewBox="0 0 500 500">
	<path d="M277.63,152.42c-3.9,4.83-19.78,10.76-22.38,17.75-10.85-7-25.75-16.42-36.64-16.6,19.37-6.59,25.76-5.16,36.93-.84,8.71,.53,23.14-.62,30.24-3.14-1.98,.99-4.26-1.99-8.15,2.84h0Zm-54.37,4.23v-.04c-.13-.25,.1-.45,.27-.21l-.27,.25h0Zm191.32-57.7c4.86-7.36-2.2-14.73-4.29-17.4-2.08-2.68-3.7-11.91-6.35-13.28-2.65-1.36-10.42,2.77-11.13,4.9-.71,2.13-8.19,8.48-14.08,15.56-56.68,16.37-46.56,8.46-61.53,23.93,0,0-4.39,1.09-7.67,1.54-5.14,.7-8.67,4.68-13.58,8.59,0,0-3.78-5.32-5.07-6.53-1.56-1.46-8.3-6.77-14.6-4-6.78,2.97-57.73,4.77-57.73,4.77,0,0-15.58-4.94-34.35-1.91-1.71,.28-9.38,2.68-11.03,3.09-2.41,.6-4.99,0-7.15,.93,0,0,17.89,4.9,21.11,9.07-2.78-.11-6.02,4.2-11.91,6.11-18.58-5.1-34.95-4.83-56.15-5.34-6.27-.15-18.65,2.22-33.43,6.71-7.96,2.42-11.13-5.45-21.03,.17-8.78,4.98-32.83,14.6-29.23,15.38,10.9,2.38,20.49-2.16,16.12,1.7-7.8,6.88-23.53,10.86-30.95,23.72,7.94-4.05,16.23-5.53,24.31-3.08,9.04,2.74,15.41,5.97,22.28,7.43,14.68,3.1,22.69,1.45,33.85,5.85,6.11,2.41,15.95,1.74,22.01,2.66,4.36,.66,4.27,8.59,17.4,16.31-9.21-1.57-20.28-10.54-23.24-10.24-10.9,13.48-16.11,14.32-42.08,22.69-8.55,2.76-18.06,8.64-30.54,13.34,30.47,2.94,34.71,11.81,52.86,9.74-18.32,12.42-31.32,33.96-55.54,41.46,12.89,.94,38.29-5.74,49.46-11.44-2.19,4.86-15.7,16.58-21.91,19.9,5.53-.42,22.6,1.46,28.01-9.57-7.14,14.56-25.67,26.66-45.72,36.24,9.61-.63,22.92-4.82,36.17-13.8-6.81,11.77-31.37,34.58-53.62,46.33,15.65-3.53,25.07-1.72,33.25-5.2,7.96-3.38,18.82-8.95,25.46-14.21,8.84-7,15.02-19.58,33.23-33.83-21.02,30.61-28.09,45-41.52,55.34,3.86-.81,15.91-.11,21.26-3.66-2.39,6.46-26.14,29.57-49.6,45.37,17.81-5.38,51.92-28.41,62.86-39.05-.25,2.09-7.64,19.75-15.96,29.2,6.65-3.72,29.95-21.87,34.11-29.41,4.83-8.74,41.13-56.78,46.37-63.05-.46,3.79-37.32,64.81-38.46,77.07-.55,5.92-7.69,16.13-9.17,22.82-1.94,8.82-2.69,17.95-7.24,26.55,11.15-6.64,43.43-54.39,56.93-72.78-.64,8.07-4.62,20.21-5.86,30.79-.52,4.43-2.08,15.62-4.95,20.57-2.58,4.46-3.05,12.87-3.77,18.17,8.32-7.44,23.05-21.32,28.13-30.06,2.66-4.58,10.82-14.94,14.23-26.98,3.24,5.15,3.28,4.43,4.26,8.43,.79,3.2-2.29,8.67-2.33,13.87-.06,7.32-1.79,14.11-1.38,17.58,12.63-14.66,18.29-44.54,21.63-61.63,.64,14.31,3.26,18.38,4.09,22.57,1.05,5.3-.36,13.36-.71,26.3,13.23-27.15,14.5-27.87,15.83-45.69,3.29,7.75,3.5,23.39,4.39,34,.45,5.31,13.45,13.06,19.17,15.38-7.37-15.71-7.64-51.7-7.64-51.7,0,0-1.22-21.89,5.49-29.59,2.86-3.28,10.34-3.02,14.63-5.74,14.37-9.1,33.43-6.84,39.47-1.49,4.82,4.28,9.47,13.21,1.27,20.92,8.28-3.79,17.94-9.12,26.63-17.32,0,0,3.97,11.57-.75,20.68,6.74-7.45,18.05-7.55,23.64-16.14,4.07-6.26,14.61,11.43,16.74,11.55,1.57,.09,11.67-6.49,13.68-7.99,2.01-1.5,4.03-18.23,9.3-21.84,5.27-3.61,7.05-7.27,9.33-9.63,2.28-2.36,.98-3.31,.59-4.24-.4-.94-4.57-2.51-7.16-2.56-2.58-.05-3.77,.78-6.89,.22,11.34-12.97,5.68-34.02-1.5-43.33,.53,9.07-4.57,22.13-11.34,31.27-2.11,2.84-1.98-2.29-7.8,6.42-.89,1.33-6.85-3.73-13.79-2.52,3.47-11.36-2.07-29.79-10.66-38.55,.39,17.26-2.57,28.13-5.23,29.6-1.14,.62-3.97,1.54-5.72,7,0,0-6.1-3.31-8.89-4.09-2.79-.78-5.44-1.81-6.91-6.51-1.47-4.7-20.26-9.03-25.4-6.36-8.92,4.63-15.42,1.53-22.83,3.26-6.41,1.5-12.83,8.21-14.88,4.03-1.12-5.82,3.52-21.99,6.48-35.75,1.69-7.87,.88-16.17,3.05-18.22,9.62-9.05,35.07-12.32,39.35-14.91,4.29-2.6,12.83-10.39,18.51-10.96l13.08-14.22c2.5,10.09,7.6,6.85,7.75,9.47,.59,10.74,4.78,22.67,3.07,27.34,11.41-8.84,12.83-47.55,12.83-47.55,7.8,.17,15.78-3.12,18.95-9.03,2.51,6.81,4.87,3.6,6.53,5.41,7.75,8.47,4.86,17.04,2.38,25.21,20.38-21.62,13.21-39.06,6.88-48.04,0,0,1.78-7.95,.23-14.79-.51-2.23-2.99-8.35-6.46-9.29h0Z" />
</svg>
