<svg width="500" height="500" version="1.1" viewBox="0 0 132.3 132.3" xmlns="http://www.w3.org/2000/svg">
  <g stroke-width=".3528">
    <path d="m59.81 19.38c-29.08 0-52.74 23.66-52.74 52.74 0 29.08 23.66 52.74 52.74 52.74 29.08 0 52.74-23.66 52.74-52.74 0-29.08-23.66-52.74-52.74-52.74zm0 112.5c-32.98 0-59.8-26.83-59.8-59.8 0-32.98 26.83-59.8 59.8-59.8 32.98 0 59.8 26.83 59.8 59.8 0 32.98-26.83 59.8-59.8 59.8"/>
    <path d="m97.09 34.87h-74.55v74.55h74.55zm-2.122 2.122v70.28h-70.28v-70.28h70.28"/>
    <path d="m75.36 87.67h-31.07v-31.07h31.07v31.07"/>
    <path d="m59.81 36.74c-19.52 0-35.39 15.88-35.39 35.39 0 19.52 15.88 35.39 35.39 35.39 19.52 0 35.39-15.88 35.39-35.39 0-19.52-15.88-35.39-35.39-35.39zm0 1.505c18.69 0 33.89 15.2 33.89 33.89s-15.2 33.89-33.89 33.89-33.89-15.2-33.89-33.89 15.2-33.89 33.89-33.89"/>
    <path d="m84.56 0.4386 47.73 0.677-0.677 47.73z"/>
  </g>
</svg>
