<svg version="1.1" id="Layer_1"
  xmlns="http://www.w3.org/2000/svg"
  xmlns:xlink="http://www.w3.org/1999/xlink" x="0px" y="0px" width="100%" viewBox="0 0 200 214" enable-background="new 0 0 200 214" xml:space="preserve">
  <path fill="#040404" opacity="1.000000" stroke="none" d="M101.000000,1.000000 C108.354256,1.000000 115.708504,1.000000 123.780716,1.301211 C132.559433,4.110273 140.821701,6.113292 148.638138,9.233227 C163.942047,15.341783 174.991287,26.519846 182.934494,40.716602 C187.451096,48.789043 191.308624,57.230389 195.455399,65.509377 C195.894043,66.385162 196.871567,67.570801 196.601181,68.131241 C194.203537,73.100937 198.372269,72.940132 201.000000,74.000000 C201.000000,75.066673 201.000000,76.133339 200.641144,77.804184 C200.289734,81.194496 200.297150,83.980644 200.210663,87.236237 C200.127213,91.523132 200.137695,95.340576 200.136292,99.516312 C200.005890,100.579575 199.887405,101.284554 199.425278,102.119537 C198.369308,106.160507 197.656982,110.071472 197.018005,114.329788 C196.929962,115.113716 196.768585,115.550308 196.281052,116.100609 C195.118317,119.433136 194.281738,122.651939 193.548340,126.145317 C193.442642,126.946838 193.233795,127.473793 192.639221,128.113419 C191.980515,129.435455 191.707565,130.644806 191.506073,132.099442 C191.344727,132.562119 191.111908,132.779541 190.556427,133.068039 C189.821899,134.077179 189.410019,135.015244 188.907288,136.257339 C187.891418,137.379349 186.966385,138.197327 185.672577,139.017365 C184.574310,139.783707 183.844818,140.548004 182.977631,141.603775 C180.796600,143.349228 178.753265,144.803223 176.319763,146.230728 C175.355179,146.900909 174.780762,147.597565 174.200745,148.244049 C174.195145,148.193878 174.291443,148.224258 173.930786,148.196564 C172.386124,149.462769 171.202118,150.756668 169.918793,152.362732 C168.482635,153.780411 167.145782,154.885956 165.478790,155.996704 C164.425903,156.878860 163.703186,157.755798 162.908478,158.846466 C162.836517,159.060165 162.393631,159.145386 161.992798,159.149750 C159.235748,159.775299 156.830566,160.257492 154.540100,161.065094 C152.938583,161.629807 151.493958,162.639526 149.592590,163.634628 C147.790527,163.844574 146.375168,163.870361 144.644928,163.645691 C141.727280,163.255203 139.004074,163.545120 136.554245,162.858994 C133.897491,162.114929 129.314316,162.555756 131.286652,157.014633 C133.818359,153.863510 136.085342,150.944504 138.680878,147.948792 C141.008957,146.672256 143.008484,145.472412 145.316772,144.108521 C146.664734,143.046661 147.703949,142.148865 148.827469,141.264664 C148.911789,141.278244 148.999969,141.131912 149.314484,141.154037 C150.093475,140.801514 150.557953,140.426849 151.350922,140.073776 C152.849594,138.945953 154.019745,137.796555 155.519440,136.503052 C156.472519,135.646378 157.096085,134.933792 158.019958,134.215363 C159.038803,133.109207 159.757355,132.008911 160.757690,130.674866 C162.562469,126.293228 164.085449,122.145355 165.792816,117.648666 C165.962799,116.525116 165.948364,115.750397 166.163025,114.732956 C166.728897,112.989792 167.065704,111.489342 167.628540,109.697769 C167.876785,108.927666 167.898987,108.448669 168.205353,107.787949 C168.617813,106.737625 168.746109,105.869049 169.051758,104.653748 C169.427826,102.515427 169.626541,100.723824 170.101074,98.711761 C170.505249,97.327347 170.633621,96.163414 170.929016,94.691780 C171.073486,93.926193 171.050903,93.468300 171.233459,92.731537 C171.738541,90.630814 172.038513,88.808952 172.546478,86.578957 C172.653702,83.782837 172.552917,81.394852 172.548752,78.625175 C171.563385,74.538467 170.481415,70.833458 169.533295,66.793335 C169.377716,65.305588 169.088257,64.152954 168.870239,62.704117 C168.628647,61.938236 168.315628,61.468544 168.043488,60.636581 C166.021500,56.860569 163.958603,53.446831 161.912170,49.719200 C161.376526,48.795536 160.824417,48.185764 160.234268,47.397079 C160.196213,47.218170 159.876770,47.039886 159.849747,46.710548 C158.919617,45.191357 158.016495,44.001507 157.028229,42.483505 C154.666931,39.421150 152.390778,36.686947 150.082886,33.635605 C149.413422,32.800682 148.775681,32.282906 147.969879,31.480068 C141.091080,23.814405 132.344055,19.652575 123.104568,16.949341 C107.804459,12.472931 92.466385,10.866265 78.309296,20.917072 C76.698853,22.060406 74.996811,23.074715 72.970596,24.120100 C71.415611,25.424812 70.227264,26.758272 68.942108,28.383623 C67.926338,29.462746 67.007362,30.249977 65.752022,31.061335 C64.976776,31.770876 64.537903,32.456291 64.071640,33.097534 C64.044266,33.053356 64.139458,33.095100 63.796562,33.111526 C63.023289,33.822922 62.592915,34.517887 62.134018,35.163712 C62.105492,35.114567 62.211521,35.155460 61.843220,35.175385 C61.053631,35.965385 60.632343,36.735462 60.105522,37.799034 C58.414398,39.764050 56.828808,41.435570 54.863480,43.152199 C54.089619,44.017529 53.695499,44.837746 53.233212,45.973694 C51.431549,48.524712 49.698055,50.760006 47.627785,53.044647 C46.854874,54.053112 46.418736,55.012230 45.991543,55.986229 C46.000488,56.001106 45.970455,55.983494 45.595844,56.030685 C44.598583,57.284821 43.975937,58.491764 43.395584,59.938816 C43.405346,60.527615 43.243526,60.799297 42.638954,61.042610 C42.219284,62.061504 42.113079,63.031754 42.042870,64.375290 C41.260086,66.819489 40.441311,68.890404 39.274769,71.106567 C39.160412,74.847488 39.393822,78.443161 39.736427,82.469429 C39.894390,85.267471 39.943161,87.634903 39.784988,90.161186 C39.956665,90.890839 40.335274,91.461639 40.976181,92.276207 C41.573357,93.659660 41.908241,94.799355 42.124565,96.307373 C42.012791,97.446960 42.019577,98.218216 41.784637,99.184578 C41.984875,100.258110 42.426838,101.136536 43.019768,102.355042 C43.294262,104.148788 43.417793,105.602463 43.395447,107.448334 C43.784901,108.899200 44.320232,109.957870 45.012474,111.231682 C45.259491,111.599777 45.349594,111.752731 45.344208,112.217712 C45.636852,113.248734 46.024990,113.967743 46.403965,115.049591 C46.669945,116.589828 46.945087,117.767227 47.110935,119.326576 C47.163605,123.529633 44.013123,122.432808 41.859039,122.840347 C41.128723,123.077484 40.563812,123.535164 39.712505,124.156738 C38.297092,124.908501 37.168068,125.496361 35.686916,126.051804 C32.875263,127.631416 30.415739,129.243454 27.624863,130.936478 C25.480520,132.262817 23.667530,133.508163 21.540489,134.730560 C20.679873,135.291656 20.133305,135.875656 19.564634,136.528290 C19.542532,136.596909 19.675255,136.653244 19.311596,136.676163 C17.638309,137.092606 16.328680,137.486130 15.018203,137.545517 C14.379980,136.461075 13.742605,135.710770 12.886814,134.683914 C12.543303,133.245392 12.418211,132.083420 12.512501,130.651611 C12.095345,128.573380 11.458808,126.764954 10.681055,124.704193 C10.536331,123.886780 10.532824,123.321716 10.676062,122.362808 C10.302206,120.634521 9.781605,119.300079 9.123537,117.653610 C8.997636,116.892517 9.009200,116.443451 9.265703,115.731712 C8.872088,112.957092 8.233535,110.445129 7.425022,107.562424 C7.214328,106.115608 7.173594,105.039543 7.377612,103.697983 C7.002428,100.930023 6.382491,98.427582 5.605540,95.504967 C5.536777,92.412903 5.625029,89.740997 6.000246,86.911041 C7.783340,82.337425 9.279468,77.921867 10.740131,73.345467 C10.704668,73.184624 10.974509,72.995667 11.322100,72.937103 C14.471854,66.820663 17.419481,60.824188 20.013086,54.678307 C21.257328,51.729908 21.832048,48.498974 22.662132,45.142342 C22.778551,44.598183 22.942816,44.307674 23.489040,44.036057 C29.857622,44.023106 27.052719,39.958572 27.125061,36.998276 C27.220922,36.826687 27.613987,36.820820 27.960485,36.866371 C29.219028,36.037643 30.131075,35.163364 31.176609,34.015152 C31.852600,33.485050 32.395103,33.228882 33.292931,32.959930 C34.732994,31.916899 35.817741,30.886660 36.917477,29.909700 C36.932465,29.962980 36.852539,29.886395 37.216755,29.909782 C39.711567,28.243036 41.842159,26.552902 44.126263,24.654068 C44.590992,24.309286 44.902218,24.173204 45.536491,24.057796 C46.582260,23.448231 47.304974,22.817991 48.187187,21.912933 C49.434906,21.032188 50.523125,20.426266 51.948109,19.871140 C52.866756,19.351925 53.448639,18.781916 54.163536,18.044487 C54.296555,17.877068 54.724155,17.870247 55.097958,17.895901 C56.607994,16.859108 57.744232,15.796659 59.027836,14.486392 C59.981342,13.737363 60.787487,13.236152 61.934177,12.807346 C62.856556,12.273543 63.438381,11.667334 64.268532,10.829065 C67.493622,8.924597 70.470390,7.252185 73.765564,5.710510 C74.758087,5.375921 75.432205,4.910597 76.440994,4.315448 C78.340927,3.667066 79.906181,3.148508 81.921661,2.768697 C88.581261,2.271630 94.790634,1.635815 101.000000,1.000000z"/>
  <path fill="#070707" opacity="1.000000" stroke="none" d="M1.000002,154.463181 C3.399740,151.397324 5.612731,148.579926 8.267738,146.270721 C9.917603,144.835739 12.237034,144.170593 14.986172,143.045288 C19.222511,141.335281 22.728628,139.739914 26.539944,138.065491 C27.889692,136.977463 28.934242,135.968460 30.318439,134.937485 C32.939774,133.106476 35.221462,131.297470 37.773529,129.474792 C38.356033,129.288696 38.668152,129.116287 39.345047,128.968689 C43.141827,127.334541 46.573830,125.675591 50.318611,123.986694 C51.263931,123.432243 51.896473,122.907738 52.863869,122.316071 C56.454922,120.464531 59.711117,118.680153 63.271286,116.970894 C64.043991,116.671707 64.512726,116.297409 65.341888,115.888443 C67.865067,114.823830 70.224174,114.054657 72.099289,112.642708 C72.912262,112.030540 72.728195,110.094269 73.018112,108.405075 C75.963982,106.366096 78.888756,104.681458 81.864723,103.313599 C81.855598,104.053787 81.795280,104.477188 81.507713,104.931396 C80.976578,105.136429 80.850250,105.396812 80.562439,105.872421 C79.058746,106.970299 77.894096,107.939110 76.729446,108.907913 C76.875412,109.273964 77.021370,109.640007 77.167336,110.006050 C78.444809,109.661423 79.722282,109.316795 81.390610,109.076645 C85.535736,107.829391 89.290016,106.477654 93.355782,105.167419 C94.110344,104.803192 94.553421,104.397461 95.350693,104.053055 C97.136383,103.327278 98.567871,102.540184 100.417007,101.815277 C103.194809,101.407890 105.554970,100.938324 108.276764,100.639877 C111.092377,100.508446 113.546349,100.205887 116.445770,99.975410 C119.593918,100.002129 122.296623,99.956764 125.253838,100.140640 C125.005455,101.617012 124.502563,102.864143 123.619354,104.075485 C119.230522,105.599350 115.221985,107.159019 110.974335,108.675827 C110.385300,108.694839 110.140312,108.889076 109.668961,109.195312 C108.676369,109.721169 108.015099,110.267380 107.100815,110.791046 C106.490898,111.281090 106.133995,111.793694 105.444801,112.444611 C104.140114,113.621429 103.167709,114.659935 102.132812,115.697266 C102.070312,115.696083 101.999969,115.799438 101.664108,115.791306 C99.601517,116.170692 97.874786,116.558205 95.846466,116.932381 C94.692352,117.555916 93.839821,118.192780 92.758179,119.066780 C92.114494,119.792984 91.699936,120.282059 91.189072,120.755066 C91.092773,120.739014 91.000832,120.911263 90.666069,120.893906 C89.520111,121.240280 88.708923,121.604019 87.535248,121.966797 C82.256302,124.456993 77.188400,126.696922 72.480637,129.534348 C69.694214,131.213776 67.476753,133.837189 64.722168,136.216187 C62.285976,138.255142 60.131062,140.114014 57.661655,142.106842 C50.780209,148.155380 44.213249,154.069992 37.304482,159.978226 C35.636768,160.859955 34.310871,161.748047 32.699425,162.766815 C32.256050,163.253830 32.098217,163.610168 31.712681,164.181976 C30.544849,165.769562 29.604721,167.141678 28.351364,168.670670 C27.102453,171.242249 26.166769,173.656967 25.046413,176.266434 C24.783459,176.805634 24.705175,177.150055 24.358997,177.660004 C23.763357,178.562622 23.435610,179.299744 22.963551,180.153503 C22.819235,180.270157 22.765245,180.637344 22.449390,180.729553 C21.852785,181.575226 21.572033,182.328690 21.175686,183.388138 C21.028757,184.127182 20.997421,184.560257 20.743420,185.191956 C20.382364,185.939362 20.243975,186.488159 19.882397,187.147156 C19.398514,187.468094 19.178568,187.715088 18.620354,187.945923 C17.480772,187.956299 16.720205,188.019150 15.747557,187.835876 C14.013233,186.065292 12.490992,184.540848 10.934826,182.706131 C10.281447,181.905624 9.661995,181.415390 8.949070,180.634827 C8.192410,179.577621 7.529222,178.810745 6.893422,177.728943 C6.387185,176.789230 5.853561,176.164413 5.308690,175.268524 C5.119704,174.688538 4.941964,174.379608 4.800442,173.718414 C4.019097,171.736572 3.201534,170.106995 2.402749,168.310944 C2.421527,168.144485 2.211297,167.883591 2.195085,167.556076 C1.785914,167.152374 1.392957,167.076187 1.000000,167.000000 C1.000000,162.975449 1.000000,158.950912 1.000002,154.463181z"/>
  <path fill="#0A0A0A" opacity="1.000000" stroke="none" d="M133.997513,191.154114 C129.411392,191.278931 124.825272,191.403748 119.371918,191.399994 C116.463890,191.177322 114.423088,191.083237 112.507668,190.994919 C112.290062,188.841904 112.130234,187.260635 111.970413,185.679367 C111.638229,185.668854 111.306046,185.658340 110.973854,185.647827 C110.331268,188.113190 109.688683,190.578552 109.046089,193.043915 C109.046089,193.043915 108.915031,193.514832 108.455780,193.778564 C107.337669,195.374557 106.678810,196.706833 106.019951,198.039093 C105.916084,199.075912 105.812210,200.112717 105.221703,201.643799 C104.139862,205.387131 103.544655,208.636200 102.949448,211.885254 C101.713112,212.720657 100.476776,213.556061 99.120224,214.695724 C97.611107,215.000000 96.222221,215.000000 94.267288,214.677124 C87.445137,212.280426 83.258614,205.029800 83.721237,196.389435 C89.064186,189.505219 94.098099,182.766251 99.407928,175.941040 C99.907768,175.360046 100.131691,174.865341 100.597366,174.156128 C102.179245,172.564621 103.519379,171.187592 105.196678,169.800781 C105.965988,168.825607 106.398125,167.860199 106.961960,166.752350 C107.093651,166.609894 107.271156,166.264893 107.540588,166.214874 C108.345314,165.675720 108.880600,165.186584 109.470612,164.278915 C109.463531,163.585861 109.401733,163.311325 109.688248,163.034729 C113.355629,159.244629 116.674683,155.456589 120.281311,151.606476 C120.940262,151.154373 121.311646,150.764359 122.000175,150.514343 C123.446167,149.376678 124.575005,148.098999 125.944084,146.578888 C129.135101,143.592728 132.085876,140.848999 135.391602,138.092911 C136.468002,137.530807 137.189453,136.981064 138.128784,136.490311 C138.681564,136.498993 138.899338,136.312195 139.309326,136.026794 C140.073242,135.695724 140.527802,135.326797 141.396454,134.947113 C142.847183,135.102890 143.883850,135.269379 144.920502,135.435883 C144.547775,136.400818 144.295410,137.438812 143.767166,138.309372 C143.276688,139.117691 142.491776,139.747360 141.515198,140.619537 C139.998718,141.139130 138.803513,141.494888 137.608307,141.850647 C138.175064,142.509048 138.741821,143.167435 139.308578,143.825836 C140.206116,143.825836 141.103638,143.825836 142.329987,143.915405 C143.105942,143.973267 143.553070,143.941574 144.248749,144.010010 C144.667542,144.164307 144.837784,144.218445 145.008011,144.272568 C143.008484,145.472412 141.008957,146.672256 138.527893,147.668381 C133.927139,148.747223 132.128647,152.277588 130.237625,155.668457 C130.075851,155.958542 130.740952,156.709763 131.021927,157.246750 C129.314316,162.555756 133.897491,162.114929 136.554245,162.858994 C139.004074,163.545120 141.727280,163.255203 144.644928,163.645691 C138.561249,166.324646 132.570892,165.225037 125.678680,161.555054 C123.172844,165.827927 120.468330,170.439590 117.332535,175.527145 C115.564713,178.404694 114.228165,180.806335 112.891624,183.207977 C113.276535,183.528946 113.661446,183.849899 114.046364,184.170853 C116.605751,179.575439 120.431160,178.308640 125.270172,178.892899 C127.112587,179.115341 129.087204,178.242889 131.001556,177.869446 C132.608856,177.696640 134.216171,177.523849 136.561066,177.499725 C138.627136,177.264175 139.955643,176.879974 141.284134,176.495773 C141.666336,176.426178 142.048553,176.356583 142.863739,176.456512 C143.864731,176.401642 144.432770,176.177261 145.000793,175.952896 C145.389984,175.887115 145.779190,175.821320 146.760986,175.824173 C148.009781,175.467407 148.665970,175.042007 149.322159,174.616608 C150.246826,174.379562 151.171478,174.142517 152.796875,173.908966 C155.066284,173.039688 156.634949,172.166946 158.203613,171.294189 C158.537460,171.131958 158.871307,170.969727 159.781738,170.819519 C160.977997,170.330017 161.597641,169.828491 162.217300,169.326965 C165.967987,167.869324 169.718674,166.411682 173.469345,164.954041 C173.906906,165.432648 174.344467,165.911240 174.782028,166.389847 C173.899429,167.814346 173.296112,169.558670 172.089600,170.612289 C163.189529,178.384689 153.081390,184.138412 141.297546,188.085358 C139.985580,188.495117 139.334106,188.934052 138.682617,189.372986 C138.065094,189.592560 137.447586,189.812119 136.210739,190.065964 C135.060120,190.451538 134.528824,190.802826 133.997513,191.154114z"/>
  <path fill="#333333" opacity="1.000000" stroke="none" d="M200.148193,99.158020 C200.137695,95.340576 200.127213,91.523132 200.397964,87.253586 C200.679199,86.801491 201.000000,87.000000 201.000000,87.000000 C201.000000,90.692909 201.000000,94.385818 200.786850,98.577789 C200.573700,99.076859 200.148178,99.158020 200.148193,99.158020z"/>
  <path fill="#181818" opacity="1.000000" stroke="none" d="M72.970596,24.120100 C72.121201,25.420225 70.905167,26.691601 69.364021,28.027355 C70.227264,26.758272 71.415611,25.424812 72.970596,24.120100z"/>
  <path fill="#040404" opacity="1.000000" stroke="none" d="M151.655563,100.784470 C150.960861,101.176865 150.266159,101.569260 149.016937,102.078255 C147.793427,102.660751 147.124435,103.126656 146.455429,103.592560 C145.955338,103.571831 145.455246,103.551102 144.550354,103.339241 C143.415863,102.811684 142.686142,102.475273 141.956436,102.138863 C140.470642,100.530472 138.984848,98.922081 137.151749,96.885399 C136.185516,96.027016 135.566574,95.596931 134.947647,95.166847 C134.594543,94.757469 134.241440,94.348091 133.507629,93.566063 C132.399963,92.856766 131.672974,92.520119 130.945999,92.183472 C130.650208,92.009178 130.354416,91.834877 129.659027,91.349510 C128.486115,90.764404 127.712799,90.490356 126.939468,90.216309 C126.939468,90.216316 126.584717,89.952827 126.231796,89.635529 C124.896233,88.961433 123.913597,88.604637 122.930954,88.247841 C122.930954,88.247841 122.643684,87.933640 122.311844,87.581955 C119.308212,86.430031 116.636406,85.629799 113.964607,84.829567 C113.651390,84.728539 113.338173,84.627510 112.549545,84.301193 C110.686462,83.836159 109.298782,83.596413 107.911102,83.356667 C107.314194,83.136337 106.717278,82.916000 105.603424,82.378326 C102.640205,82.322052 100.193924,82.583122 97.747643,82.844193 C97.747643,82.844193 97.340645,82.864670 96.871887,82.980484 C95.836792,83.670593 95.270454,84.244888 94.704124,84.819183 C94.233810,85.090797 93.763504,85.362411 92.851189,85.909546 C91.038315,87.817871 89.667435,89.450676 88.296555,91.083481 C87.771530,91.671494 87.246506,92.259506 86.359131,93.275749 C85.687263,94.476593 85.377754,95.249207 85.068245,96.021820 C85.068245,96.021820 84.810638,96.299057 84.491623,96.633179 C83.675552,98.243149 83.178490,99.519012 82.411911,100.965935 C82.032768,101.756943 81.923149,102.376884 81.813522,102.996826 C78.888756,104.681458 75.963982,106.366096 73.018112,108.405075 C72.257446,108.844116 71.517899,108.928795 70.024193,109.000854 C64.792061,110.780678 60.314075,112.573128 55.836090,114.365578 C55.836090,114.365578 55.840900,114.165695 55.726761,113.826202 C54.473022,111.885857 53.333424,110.285004 52.193825,108.684143 C52.103622,108.316002 52.013420,107.947861 51.864990,106.991119 C51.346016,105.083145 50.885269,103.763771 50.424522,102.444397 C50.398792,101.205475 50.373058,99.966553 50.362091,98.056778 C50.163387,95.608261 49.949917,93.830597 49.736450,92.052925 C49.778320,90.957573 49.820187,89.862213 49.987373,88.176102 C50.105507,86.717453 50.098328,85.849556 50.091148,84.981667 C50.238045,84.388588 50.384945,83.795502 50.759705,82.652908 C51.204201,80.705826 51.420834,79.308243 51.637463,77.910667 C51.868591,76.997360 52.099724,76.084061 52.610340,74.637749 C53.075977,73.030304 53.262131,71.955872 53.448284,70.881432 C53.593216,70.468071 53.738152,70.054710 54.117073,69.143661 C54.597370,67.424622 54.843689,66.203278 55.090004,64.981934 C55.322533,64.728424 55.458321,64.430779 55.733704,63.594963 C56.877342,60.373196 57.784641,57.645466 58.691940,54.917736 C58.691944,54.917736 58.997795,54.599686 59.357513,54.329006 C60.144783,53.372192 60.572338,52.686058 60.999893,51.999924 C60.999893,51.999924 61.000000,52.000000 61.325611,51.954536 C62.863991,50.664635 64.076759,49.420197 65.289536,48.175758 C65.733078,47.879837 66.176628,47.583916 67.108551,47.110054 C68.171951,46.354256 68.746986,45.776394 69.322006,45.198532 C70.462486,44.323586 71.602966,43.448643 73.183640,42.256668 C74.127853,41.319084 74.631874,40.698536 75.135895,40.077988 C75.709709,39.626511 76.283531,39.175034 77.315567,38.463131 C78.428215,37.428204 79.082634,36.653702 79.737053,35.879196 C80.039955,35.683064 80.342857,35.486927 81.086334,35.045372 C81.975952,34.174732 82.424995,33.549515 82.874039,32.924301 C82.874046,32.924301 82.954987,32.955544 83.321854,32.850216 C86.782967,31.779350 89.877213,30.813816 92.971451,29.848280 C93.707672,29.806637 94.443893,29.764994 95.935425,29.738438 C98.984169,29.314936 101.277588,28.876347 103.571014,28.437756 C108.920570,28.454033 114.270119,28.470312 120.299774,28.692610 C122.691605,29.192112 124.403351,29.485596 126.115089,29.779079 C126.115089,29.779079 126.112732,29.893896 126.192230,30.193592 C126.987206,31.031103 128.114044,32.178532 128.356308,32.015053 C131.845825,29.660404 134.918564,31.557413 138.069702,32.755787 C138.069702,32.755787 138.358505,33.071270 138.671600,33.393578 C139.673843,34.084614 140.363007,34.453339 141.052170,34.822067 C141.052170,34.822067 141.338287,35.097855 141.618683,35.436440 C142.620102,36.113945 143.341110,36.452862 144.062134,36.791779 C146.568481,39.380466 149.074829,41.969162 151.871368,45.052307 C152.749573,46.074245 153.337570,46.601734 153.925568,47.129227 C154.946823,48.862839 155.968079,50.596447 157.100739,52.937874 C157.688995,54.201935 158.165848,54.858181 158.642700,55.514427 C158.722412,55.848965 158.802109,56.183506 158.957336,57.105667 C160.719131,61.456093 162.405411,65.218895 164.091675,68.981697 C164.148651,70.031258 164.205643,71.080826 164.226456,72.931564 C164.272552,75.188606 164.354797,76.644463 164.437057,78.100327 C164.307404,78.826195 164.177750,79.552063 163.881256,80.940086 C163.390594,83.448898 163.066788,85.295555 162.742981,87.142212 C162.548965,87.544182 162.354980,87.946152 161.830658,88.834122 C160.707001,90.892723 159.913635,92.465324 159.120270,94.037926 C157.890930,95.275154 156.661606,96.512383 154.968079,98.048584 C153.554459,99.159851 152.605011,99.972160 151.655563,100.784470z"/>
  <path fill="#101010" opacity="1.000000" stroke="none" d="M42.000954,170.998260 C39.675575,168.907516 37.350193,166.816788 34.994179,164.029892 C34.304020,163.101196 33.644497,162.868668 32.984970,162.636154 C34.310871,161.748047 35.636768,160.859955 37.437637,160.337082 C39.216839,160.327087 40.837933,160.320312 41.773163,159.516022 C47.270794,154.788132 52.608475,149.874268 58.357803,145.055527 C61.881931,147.210938 64.772263,149.506378 63.901443,154.060120 C62.370636,156.128479 61.182724,158.074158 59.827492,160.330139 C59.083458,161.962616 58.777866,163.518906 57.877487,164.561539 C55.498310,167.316650 52.861378,169.849167 50.327045,172.470291 C51.800327,170.196365 53.273605,167.922424 54.746883,165.648499 C54.305508,165.294022 53.864128,164.939560 53.422749,164.585083 C50.487793,166.999496 47.552834,169.413910 44.155151,171.683350 C43.128605,171.358322 42.564781,171.178284 42.000954,170.998260z"/>
  <path fill="#141414" opacity="1.000000" stroke="none" d="M88.793640,126.666275 C89.807495,127.913986 90.821342,129.161697 91.659973,130.916611 C88.654030,134.126251 85.823296,136.828690 82.672562,139.683151 C80.472740,141.426529 78.592926,143.017883 76.374657,144.677261 C70.665428,144.191360 69.781075,139.030258 67.146599,136.103073 C67.422279,136.029190 67.486870,135.735382 67.551468,135.441574 C67.371567,135.632324 67.191666,135.823074 66.672134,136.051544 C65.889488,136.071548 65.446472,136.053833 65.003448,136.036118 C67.476753,133.837189 69.694214,131.213776 72.480637,129.534348 C77.188400,126.696922 82.256302,124.456993 87.386513,122.297913 C87.998055,123.975426 88.395851,125.320847 88.793640,126.666275z"/>
  <path fill="#060606" opacity="1.000000" stroke="none" d="M87.011284,160.010895 C85.425331,162.093582 83.839378,164.176285 82.055740,166.917480 C81.560745,168.401657 81.263443,169.227341 80.993988,170.037338 C81.021828,170.021667 81.034416,169.959030 80.671188,169.854401 C75.968979,175.558228 71.629982,181.366684 67.290985,187.175140 C60.537964,192.244415 58.853893,199.758301 56.910004,207.813248 C55.965626,209.027893 55.629128,209.869324 55.292633,210.710754 C55.292633,210.710754 55.296394,210.931366 54.843140,210.962326 C53.591530,211.632126 52.793171,212.270981 51.994808,212.909821 C51.747181,213.118851 51.499554,213.327896 51.005222,213.467346 C49.713009,213.292358 48.667503,213.186935 47.098335,213.144989 C45.861671,212.861023 45.148666,212.513596 44.145554,211.631058 C43.144417,210.767426 42.433388,210.438904 41.722355,210.110382 C40.652302,209.233749 39.582253,208.357101 38.627750,206.772980 C37.538708,204.041199 36.334122,202.016922 35.129532,199.992630 C34.923321,199.451538 34.717106,198.910431 34.651871,197.631500 C34.738483,192.999954 34.684128,189.106216 34.629768,185.212494 C34.629768,185.212494 34.624874,185.058136 35.042995,184.972046 C35.903675,184.163986 36.346237,183.442032 36.788795,182.720078 C36.788795,182.720078 36.809120,182.814301 37.118790,182.808990 C37.943817,182.121841 38.459171,181.439972 38.974525,180.758118 C38.949833,180.409378 39.096615,180.162613 40.019913,180.013138 C44.305946,178.100433 49.069180,177.589890 50.298904,172.516632 C50.298904,172.516632 50.323647,172.499969 50.325348,172.485138 C52.861378,169.849167 55.498310,167.316650 57.877487,164.561539 C58.777866,163.518906 59.083458,161.962616 60.207108,160.352509 C62.798676,158.677643 64.843300,157.290756 66.887924,155.903854 C72.486458,155.154678 73.480881,149.020782 78.283539,146.398254 C80.927689,144.764633 82.988716,143.391541 85.389450,141.950867 C87.913422,140.289032 90.122650,138.727585 92.273781,137.089828 C93.896149,135.854675 95.444145,134.521835 97.025253,133.232483 C97.324928,133.059113 97.624603,132.885727 98.548805,132.790497 C99.785980,132.255508 100.398621,131.642365 101.137527,130.767456 C101.567886,130.025284 101.871979,129.544861 102.176056,129.064438 C103.240829,128.416306 104.305611,127.768173 106.034004,127.079315 C107.462502,126.340759 108.227394,125.642944 108.992279,124.945129 C108.992271,124.945122 109.039536,124.688423 109.536530,124.764542 C111.694756,124.073692 113.356003,123.306717 115.233322,122.344681 C115.643257,122.142418 115.837105,122.135216 116.201813,122.326782 C116.921181,122.072861 117.469688,121.620155 118.018196,121.167450 C118.587456,120.968903 119.156708,120.770348 120.366470,120.714798 C121.715965,120.400604 122.424965,119.943405 123.133957,119.486214 C123.133957,119.486214 123.113091,119.187111 123.380310,119.124908 C124.106529,119.081612 124.565536,119.100510 125.269836,119.351639 C126.683640,119.024933 127.852142,118.465988 129.020645,117.907051 C129.717789,118.653214 130.414917,119.399384 130.707855,120.751221 C129.942963,121.805801 129.582260,122.254715 129.221558,122.703629 C129.221558,122.703629 129.084274,122.682632 128.703156,122.716949 C127.878555,122.823227 127.435089,122.895187 126.808426,122.757675 C126.071419,123.072327 125.517609,123.596458 124.742439,124.337250 C123.593422,125.338013 122.665764,126.122116 121.738098,126.906219 C120.582932,127.687996 119.427765,128.469772 117.595001,129.223022 C116.283699,129.833344 115.649986,130.472229 115.016281,131.111099 C114.203270,131.710434 113.390266,132.309784 112.013977,132.696686 C111.020050,133.778824 110.589417,135.073395 110.158783,136.367966 C110.158783,136.367966 110.297806,136.764404 110.066315,137.003128 C109.430885,137.469757 109.026947,137.697662 108.310715,137.996887 C105.323906,141.382965 102.649384,144.697723 99.631241,148.022705 C97.414017,149.673004 95.540428,151.313095 93.666840,152.953186 C92.216377,154.441940 90.765915,155.930695 88.764313,157.651535 C87.812538,158.592712 87.411911,159.301804 87.011284,160.010895z"/>
  <path fill="#0A0A0A" opacity="1.000000" stroke="none" d="M97.585220,173.613480 C97.377640,174.070496 97.187149,174.175110 96.897156,174.590149 C92.252930,180.772415 87.708221,186.644257 83.091568,192.858902 C79.993805,193.195160 76.967972,193.188599 73.444534,192.755341 C72.283951,191.902664 71.620979,191.476685 70.958008,191.050690 C70.958008,191.050690 70.999542,191.000458 70.957901,190.681061 C71.239265,188.735718 71.138290,186.841217 71.965797,185.534866 C74.324554,181.811264 77.183662,178.406494 79.584427,174.706635 C80.450249,173.372284 80.572723,171.555603 81.034416,169.959030 C81.034416,169.959030 81.021828,170.021667 81.320526,169.925537 C82.839249,168.987137 84.059280,168.144867 85.279312,167.302597 C85.884056,167.303391 86.488792,167.304169 87.532928,167.599548 C88.708511,168.146103 89.444702,168.398071 90.180893,168.650055 C90.507439,168.813461 90.833984,168.976883 91.503525,169.570068 C93.274345,170.597763 94.702171,171.195679 96.129997,171.793594 C96.620766,172.282761 97.111534,172.771927 97.585220,173.613480z"/>
  <path fill="#181818" opacity="1.000000" stroke="none" d="M99.974869,148.012482 C102.649384,144.697723 105.323906,141.382965 108.306435,138.377808 C109.743019,139.445648 110.871597,140.203888 112.000168,140.962112 C112.813843,141.217087 113.627525,141.472061 114.956039,141.906433 C116.314369,142.295364 117.157875,142.504898 118.001381,142.714432 C119.512047,143.800400 121.022713,144.886383 122.425102,146.281799 C121.769989,147.024918 121.223137,147.458572 120.629341,148.164780 C120.313797,148.682968 120.045197,148.928619 119.605797,149.387619 C116.514946,152.507385 113.636177,155.457077 110.655548,158.299957 C109.369591,159.526489 107.872932,160.532135 106.232819,161.875031 C102.450615,159.708130 98.907578,157.304352 95.584091,154.318298 C97.194054,151.828201 98.584457,149.920349 99.974869,148.012482z"/>
  <path fill="#181818" opacity="1.000000" stroke="none" d="M115.017242,122.539734 C113.356003,123.306717 111.694756,124.073692 109.665810,124.746719 C110.681602,123.914261 112.065102,123.175743 113.982834,122.348129 C114.683800,122.352592 114.850517,122.446159 115.017242,122.539734z"/>
</svg>
