<svg version="1.1" id="Layer_1"
  xmlns="http://www.w3.org/2000/svg"
  xmlns:xlink="http://www.w3.org/1999/xlink" x="0px" y="0px" width="100%" viewBox="0 0 200 174" enable-background="new 0 0 200 174" xml:space="preserve">
  <path fill="#050505" opacity="1.000000" stroke="none" d="M138.454102,175.000000 C134.838669,174.106033 131.701492,173.110382 128.508102,172.351288 C126.089325,171.776352 123.516273,171.762909 121.165596,171.015869 C119.181824,170.385452 117.419037,169.059662 114.959358,167.713852 C112.692261,170.240646 110.553551,168.197723 107.983528,165.896881 C100.558723,159.249756 93.227608,152.421082 85.237427,146.504013 C77.263321,140.598831 73.730141,132.613708 71.673805,123.493546 C69.519699,113.939743 67.451881,104.363937 65.066360,94.868080 C64.765312,93.669716 62.747364,92.047882 61.554825,92.072510 C55.589184,92.195709 49.619541,93.296707 43.677475,93.128677 C33.568409,92.842796 26.372606,98.481003 18.691347,103.719536 C14.899629,106.305450 10.207048,107.570442 5.140731,109.772781 C8.265032,98.190811 44.956837,73.305367 51.739891,77.153503 C54.147610,72.276260 58.799274,73.629379 62.727779,73.559219 C65.603310,73.507858 67.047127,72.854660 68.381584,70.081291 C70.381836,65.924210 73.041901,61.998657 75.953651,58.406048 C77.216911,56.847401 79.804619,56.362183 80.526276,55.146523 C81.206116,52.427906 81.323601,49.384636 82.670708,47.051239 C86.794571,39.908054 91.230774,32.927475 95.906380,26.131958 C97.210129,24.237099 99.584473,22.782234 101.775406,21.844463 C112.754074,17.145334 123.809509,12.621747 134.890472,8.167055 C140.510818,5.907598 146.241989,3.923743 151.961517,1.407646 C154.041672,1.000000 156.083328,1.000000 158.730057,1.333160 C160.555603,1.775333 161.776077,1.884347 163.424515,2.026891 C165.567673,2.041228 167.282867,2.022034 169.420776,2.049440 C171.895645,1.730693 173.947830,1.365347 176.000000,1.000000 C177.714355,1.000000 179.428711,1.000000 181.627716,1.373230 C185.342285,2.650339 188.572205,3.554219 191.892242,4.775313 C193.064835,5.788157 194.147293,6.483788 194.918945,7.253534 C194.182739,7.337026 193.757355,7.346401 193.008636,7.210404 C191.724213,7.555370 190.763092,8.045708 189.507782,8.630546 C188.805466,8.776175 188.397354,8.827305 187.834106,8.689212 C187.041000,8.801973 186.403046,9.103957 185.452789,9.579668 C184.215698,9.973216 183.290878,10.193036 182.015991,10.299290 C179.714661,11.321637 177.763412,12.457552 175.561066,13.780655 C174.493408,14.616965 173.676834,15.266088 172.551361,15.902576 C171.780502,16.504534 171.318542,17.119123 170.651749,17.957027 C169.680817,18.828773 168.914688,19.477203 167.820221,20.082935 C166.602921,20.907450 165.713989,21.774664 164.577759,22.814142 C163.656952,23.422289 162.983444,23.858171 161.955261,24.207115 C160.089981,25.442888 158.579361,26.765600 156.831757,28.382824 C154.810074,29.190960 153.025345,29.704586 150.995667,30.288708 C150.904922,31.314529 150.792770,32.582424 150.366699,33.943569 C148.723831,35.718834 147.394867,37.400848 145.974426,39.280380 C145.882965,39.477901 145.607513,39.815006 145.283417,39.870464 C144.709061,40.696156 144.458786,41.466389 144.110077,42.414764 C144.011642,42.592903 143.686050,42.837204 143.359192,42.895393 C142.782806,43.735653 142.533295,44.517719 142.135117,45.560524 C141.573608,46.504086 141.160782,47.186909 140.414886,47.945862 C139.889389,48.824959 139.696960,49.627922 139.405151,50.771473 C134.516068,60.455547 129.726379,69.799034 124.936691,79.142525 C125.317665,79.716583 125.698647,80.290634 126.079620,80.864693 C142.867447,74.984467 159.538498,68.755295 177.583466,61.698971 C176.333633,64.052109 175.893417,65.321381 175.100220,66.306442 C166.813202,76.598022 155.094879,82.011131 143.705475,87.672440 C137.827576,90.594154 131.312378,92.358429 124.935516,94.096848 C121.929581,94.916298 121.446846,96.453728 121.399208,99.020485 C121.098389,115.228462 126.146614,129.085236 137.829910,140.787186 C147.004013,149.975906 158.212875,154.946686 170.166702,158.452744 C177.521835,160.609985 185.279556,162.223053 192.764557,157.733307 C194.429932,156.734375 196.930298,157.127472 199.024780,157.234650 C191.743271,163.783554 184.256821,169.581848 174.896332,172.389542 C172.853653,173.002228 170.961487,174.116653 169.000000,175.000000 C167.933334,175.000000 166.866653,175.000000 165.238007,174.591553 C160.449005,174.129745 156.221970,174.076370 151.608566,173.949188 C150.148132,174.250229 149.074066,174.625122 148.000000,175.000000 C144.969406,175.000000 141.938812,175.000000 138.454102,175.000000z"/>
  <path fill="#0B0B0B" opacity="1.000000" stroke="none" d="M0.999999,119.454117 C3.190596,120.471542 5.643891,121.668045 7.524426,123.464211 C14.188984,129.829773 22.602442,131.713074 31.208023,132.369293 C39.154926,132.975296 50.917019,123.497513 48.972095,113.702629 C48.693378,112.298981 48.933491,110.792313 48.933491,109.333328 C49.375610,109.098457 49.817726,108.863594 50.259846,108.628723 C51.386501,110.131020 53.028828,111.472588 53.555386,113.161926 C56.760544,123.445023 57.142689,133.545456 49.080521,141.965988 C43.763809,147.519058 32.254093,153.020370 23.437435,148.523605 C20.811255,147.184189 17.718058,146.745956 15.126448,145.357864 C13.043715,144.242294 11.073761,142.565643 9.622202,140.696518 C6.765952,137.018616 4.304596,133.034027 1.339942,129.088165 C1.000000,125.969406 1.000000,122.938812 0.999999,119.454117z"/>
  <path fill="#7A7A7A" opacity="1.000000" stroke="none" d="M151.994949,174.023010 C156.221970,174.076370 160.449005,174.129745 164.838013,174.591553 C160.975449,175.000000 156.950912,175.000000 152.461548,174.755753 C151.996750,174.511505 151.994949,174.023010 151.994949,174.023010z"/>
  <path fill="#8E8E8E" opacity="1.000000" stroke="none" d="M151.608566,173.949188 C151.994949,174.023010 151.996750,174.511505 151.998383,174.755753 C150.933304,175.000000 149.866623,175.000000 148.399963,175.000000 C149.074066,174.625122 150.148132,174.250229 151.608566,173.949188z"/>
  <path fill="#0C0C0C" opacity="1.000000" stroke="none" d="M193.847153,94.036713 C192.623016,108.088905 183.362320,119.075851 170.188461,120.583229 C158.229187,121.951645 144.261536,113.633575 141.558533,97.437859 C143.373596,98.412415 144.789719,98.864059 145.806580,99.765907 C157.547043,110.178375 169.792328,107.771248 177.423325,94.024567 C181.421906,86.821388 184.063080,79.672455 182.370377,71.368065 C182.287460,70.961304 183.085846,70.374901 183.626816,69.673950 C191.800491,75.797188 192.185349,84.958427 193.847153,94.036713z"/>
</svg>
