<svg width="500" height="500" version="1.1" viewBox="0 0 132.3 132.3" xmlns="http://www.w3.org/2000/svg">
  <path d="m66.14-0.01664-66.15 66.15 66.15 66.15 66.15-66.15zm21.36 37.6c2.958-0.0071 6.245 0.5406 8.57 2.511l26.01 26.01-55.54 55.51-33.52-33.52c2.16-1.268 4.287-3.519 4.763-7.515 1.024-8.652-6.223-9.258-6.223-9.258s10.53-3.218 13.97 5.398c1.392 3.479 0.9322 7.97 0.9322 7.97s4.109-3.347 3.808-13c-0.2626-8.076-9.219-12.17-9.219-12.17s8.536-3.151 15.86 6.147c3.572 4.556 2.337 12.75 2.337 12.75s5.252-4.464 3.665-15.48c-1.234-8.629-11.91-17.4-11.91-17.4s14.39-1.668 22.65 13.46c3.794 6.946 3.731 16.4 3.731 16.4s3.506-5.173 3.874-11.44c0.5252-8.692-5.66-14.62-5.66-14.62s9.388-0.09166 13.75 7.906c3.94 7.247-1.655 16.24-1.655 16.24s8.009-6.303 7.197-18.74c-0.8404-13.05-14.47-16.24-14.47-16.24s3.265-0.9264 7.07-0.9354z" fill="#700c1c" stroke-width=".2646"/>
</svg>
