<svg version="1.1" id="Layer_1"
  xmlns="http://www.w3.org/2000/svg"
  xmlns:xlink="http://www.w3.org/1999/xlink" x="0px" y="0px" width="100%" viewBox="0 0 124 200" enable-background="new 0 0 124 200" xml:space="preserve">
  <path fill="#0C0C0C" opacity="1.000000" stroke="none" d="M93.967606,163.987457 C97.848175,159.370850 99.973335,159.067337 103.694305,161.808853 C106.785629,164.086441 106.346123,166.465988 104.683876,169.101105 C98.702682,178.582947 97.836594,189.480133 96.000229,200.556305 C96.000000,201.000000 95.500000,201.000000 95.210373,200.741882 C94.840408,200.329315 94.760063,200.174866 94.679710,200.020416 C94.363487,195.651627 94.047256,191.282837 93.696892,186.197632 C93.468414,184.978256 93.274086,184.475311 93.079750,183.972366 C92.919052,180.602158 92.758362,177.231949 92.593124,173.123749 C93.048264,169.586334 93.507935,166.786896 93.967606,163.987457z"/>
  <path fill="#101010" opacity="1.000000" stroke="none" d="M125.000000,184.541931 C121.736809,179.749237 118.105713,174.683334 115.341209,169.181961 C113.531975,165.581573 112.608864,161.408951 111.971268,157.384521 C111.399590,153.776108 113.280533,151.323578 117.638313,150.985260 C119.396355,151.560684 120.785431,152.248093 122.540779,153.461853 C122.818466,157.128571 122.386284,160.307266 122.731384,163.399216 C123.130234,166.972702 124.213753,170.469757 125.000000,174.000000 C125.000000,177.361282 125.000000,180.722580 125.000000,184.541931z"/>
  <path fill="#121212" opacity="1.000000" stroke="none" d="M1.000000,43.399994 C10.369595,46.356663 17.891296,52.092365 23.273806,60.496819 C23.905905,61.483795 23.990528,62.821396 24.669914,64.355438 C24.098042,66.158821 23.185204,67.603226 22.272366,69.047623 C21.448763,68.540932 20.491585,67.466293 19.824074,67.623283 C16.466349,68.412994 14.377058,67.420860 12.624797,64.344826 C9.189284,58.313904 5.355941,52.509605 1.343619,46.805759 C1.000000,45.933331 1.000000,44.866661 1.000000,43.399994z"/>
  <path fill="#121212" opacity="1.000000" stroke="none" d="M46.548618,35.413452 C44.034000,36.763542 41.444359,38.665131 39.193447,38.325012 C37.626373,38.088219 36.381222,34.849861 35.297321,32.791710 C34.950249,32.132675 35.254082,30.644258 35.811207,30.069489 C42.845608,22.812258 42.369869,13.107789 44.382214,4.220160 C44.564648,3.414427 44.667553,2.590686 44.903694,1.387653 C45.000000,1.000000 45.500000,1.000000 45.750000,1.000000 C46.401859,3.204609 47.043972,5.396622 47.160351,7.616199 C47.503864,14.167850 47.776230,20.730165 47.787933,27.288822 C47.792526,29.861185 47.030876,32.434917 46.548618,35.413452z"/>
  <path fill="#070707" opacity="1.000000" stroke="none" d="M22.172960,69.064087 C23.185204,67.603226 24.098042,66.158821 25.006714,64.359550 C25.002550,64.004677 24.999960,63.999962 25.332527,63.947685 C26.082235,63.195450 26.499380,62.495491 26.916527,61.795536 C30.631536,55.770954 33.758972,49.247299 38.288517,43.914570 C40.881458,40.861843 45.754189,39.745529 49.839394,37.505569 C58.575123,33.917934 66.952347,30.223404 75.599968,27.339746 C85.751175,23.954699 96.270714,24.701860 106.691422,26.198141 C109.621048,26.618799 112.470436,27.598331 115.356628,28.321520 C115.249695,28.880907 115.142754,29.440292 115.035820,29.999680 C110.977806,30.283909 106.923744,30.719646 102.861076,30.825563 C87.118462,31.235973 72.690918,35.973793 61.695549,47.160107 C43.146008,66.031784 34.925220,88.979530 40.408035,115.386757 C41.521332,120.748802 46.093567,125.910454 50.203857,130.036072 C62.880375,142.759888 78.627922,149.605179 96.505241,150.158844 C102.511604,150.344879 108.656006,147.556015 114.655952,145.842026 C117.652954,144.985901 117.570061,144.695740 117.110748,148.182404 C109.141785,152.148209 101.340134,155.831894 92.891602,159.649429 C91.500000,159.943649 90.755272,160.104004 89.618591,160.141022 C88.148506,160.119446 87.070374,160.221222 85.674622,160.191711 C84.911621,160.132919 84.466232,160.205399 83.619431,160.130676 C81.809174,160.045227 80.400330,160.106979 78.991493,160.168747 C77.922081,160.038452 76.852661,159.908157 75.103348,159.695587 C73.274261,159.573364 72.125069,159.533386 70.975883,159.493439 C69.272430,159.272079 67.568970,159.050720 65.198135,158.677505 C63.682674,158.440674 62.834591,158.355698 61.986507,158.270721 C54.441936,157.085388 47.707539,154.321274 42.313858,148.652542 C40.152908,146.381378 37.935463,143.877380 35.230076,142.459412 C22.036051,135.544052 18.837978,122.913040 16.033587,109.973305 C15.367322,106.899101 14.754158,103.813393 14.389871,100.033234 C14.489830,96.903557 14.316489,94.473625 14.143148,92.043686 C14.450114,88.951981 14.757080,85.860275 15.616712,82.401360 C19.426121,81.588203 20.158695,80.329788 17.476782,77.972328 C18.297741,76.126907 19.118700,74.281487 20.507671,72.148621 C21.420649,71.000336 21.765610,70.139496 22.110571,69.278648 C22.110571,69.278648 22.073555,69.080551 22.172960,69.064087z"/>
  <path fill="#111111" opacity="1.000000" stroke="none" d="M87.250610,172.898605 C76.480873,175.087952 72.096489,185.702133 64.008636,191.748184 C63.413044,190.573395 63.074226,190.136169 63.155960,190.033401 C69.691345,181.816223 70.001846,169.982269 79.409546,162.836182 C81.279381,162.573090 82.540169,162.562912 84.042610,162.692322 C84.826050,162.975845 85.367836,163.119797 85.964104,163.519211 C86.529449,164.229965 87.040329,164.685287 87.598679,165.573395 C87.514305,168.303665 87.382462,170.601135 87.250610,172.898605z"/>
  <path fill="#0F0F0F" opacity="1.000000" stroke="none" d="M19.901047,29.097351 C19.408180,24.969196 18.972477,21.280695 18.536772,17.592196 C19.139660,17.366272 19.742550,17.140347 20.345438,16.914423 C22.873173,21.930361 25.711018,26.819851 27.825016,32.004486 C29.361090,35.771751 30.403282,39.883575 30.802423,43.926983 C31.135580,47.301952 29.150661,50.318932 25.352106,50.188580 C20.482801,50.021484 19.301447,47.495918 19.872927,42.313602 C20.337273,38.102806 19.961441,33.799362 19.901047,29.097351z"/>
</svg>
