<svg width="500" height="500" version="1.1" viewBox="0 0 132.3 132.3" xmlns="http://www.w3.org/2000/svg">
  <g transform="matrix(.3528 0 0 .3528 77.43 149.5)">
    <path d="m-38.82-156.4c0 6.903 3.692 14.13 11.4 21.51l76.89 0.321v-43.34h-77.22c-7.384 7.063-11.08 14.29-11.08 21.51 0 6.903 3.692 14.13 11.4 21.51l76.89 0.321v-43.34h-77.22c-7.384 7.063-11.08 14.29-11.08 21.51 0 6.903 3.692 14.13 11.4 21.51l76.89 0.321v-43.34h-77.22c-7.384 7.063-11.08 14.29-11.08 21.51m0-170.3c-3.211-3.692-7.545-5.619-13.32-5.619l-0.9632 0.3211h-0.4816c-9.471 0-15.25 3.05-17.34 8.99-1.766 4.334-2.729 8.348-2.89 12.36 0 0.1607-1.445 0.4816-4.495 0.8026l-4.334 0.8026c0-1.124-1.124-4.013-3.371-8.829-3.05-4.495-6.1-6.742-9.311-6.742-8.187 0-13 0.6421-14.61 2.087-1.766 0.6422-4.334 2.569-7.384 6.1-3.211 4.334-5.458 8.508-6.582 12.2l-0.8026 1.926c0 1.284 3.532 27.61 10.6 79.14 1.445 11.24 2.89 23.44 4.174 36.76l18.78 0.321h8.027l-1.605-77.7c1.766-0.6421 3.211-1.124 4.334-1.124h0.6421c1.124 0 2.408 0.321 3.853 0.9632l9.311 77.86 4.495 0.1607 21.99 0.1607 3.05-76.09c2.087-0.8026 4.013-1.284 5.779-1.284 1.605 0 3.211 0.321 4.655 1.124l0.321 1.445 2.247 74.49h30.18l3.692-74.33c2.247-3.05 4.174-4.655 5.94-4.655 1.766 0 3.692 1.926 5.94 5.458l-0.9632 69.03v4.495l15.41 0.1607h19.58l4.976-123.9c-4.334-13.32-10.76-19.91-19.42-19.91h-0.6421c-4.655 0-9.632 3.211-15.09 9.632l-4.174 3.853-6.903-0.4816c-4.174-11.72-7.384-18.3-9.953-19.58-1.445-1.124-6.261-1.926-14.61-1.926h-0.1607c-5.137 0-8.829 4.334-10.92 13-0.321 0.9632-1.124 3.692-2.247 8.508l-11.72 1.124c0-3.211-1.124-6.903-3.692-11.08-3.211-3.692-7.545-5.619-13.32-5.619l-0.9632 0.3211h-0.4816c-9.471 0-15.25 3.05-17.34 8.99-1.766 4.334-2.729 8.348-2.89 12.36 0 0.1607-1.445 0.4816-4.495 0.8026l-4.334 0.8026c0-1.124-1.124-4.013-3.371-8.829-3.05-4.495-6.1-6.742-9.311-6.742-8.187 0-13 0.6421-14.61 2.087-1.766 0.6422-4.334 2.569-7.384 6.1-3.211 4.334-5.458 8.508-6.582 12.2l-0.8026 1.926c0 1.284 3.532 27.61 10.6 79.14 1.445 11.24 2.89 23.44 4.174 36.76l18.78 0.321h8.027l-1.605-77.7c1.766-0.6421 3.211-1.124 4.334-1.124h0.6421c1.124 0 2.408 0.321 3.853 0.9632l9.311 77.86 4.495 0.1607 21.99 0.1607 3.05-76.09c2.087-0.8026 4.013-1.284 5.779-1.284 1.605 0 3.211 0.321 4.655 1.124l0.321 1.445 2.247 74.49h30.18l3.692-74.33c2.247-3.05 4.174-4.655 5.94-4.655 1.766 0 3.692 1.926 5.94 5.458l-0.9632 69.03v4.495l15.41 0.1607h19.58l4.976-123.9c-4.334-13.32-10.76-19.91-19.42-19.91h-0.6421c-4.655 0-9.632 3.211-15.09 9.632l-4.174 3.853-6.903-0.4816c-4.174-11.72-7.384-18.3-9.953-19.58-1.445-1.124-6.261-1.926-14.61-1.926h-0.1607c-5.137 0-8.829 4.334-10.92 13-0.321 0.9632-1.124 3.692-2.247 8.508l-11.72 1.124c0-3.211-1.124-6.903-3.692-11.08-3.211-3.692-7.545-5.619-13.32-5.619l-0.9632 0.3211h-0.4816c-9.471 0-15.25 3.05-17.34 8.99-1.766 4.334-2.729 8.348-2.89 12.36 0 0.1607-1.445 0.4816-4.495 0.8026l-4.334 0.8026c0-1.124-1.124-4.013-3.371-8.829-3.05-4.495-6.1-6.742-9.311-6.742-8.187 0-13 0.6421-14.61 2.087-1.766 0.6422-4.334 2.569-7.384 6.1-3.211 4.334-5.458 8.508-6.582 12.2l-0.8026 1.926c0 1.284 3.532 27.61 10.6 79.14 1.445 11.24 2.89 23.44 4.174 36.76l18.78 0.321h8.027l-1.605-77.7c1.766-0.6421 3.211-1.124 4.334-1.124h0.6421c1.124 0 2.408 0.321 3.853 0.9632l9.311 77.86 4.495 0.1607 21.99 0.1607 3.05-76.09c2.087-0.8026 4.013-1.284 5.779-1.284 1.605 0 3.211 0.321 4.655 1.124l0.321 1.445 2.247 74.49h30.18l3.692-74.33c2.247-3.05 4.174-4.655 5.94-4.655 1.766 0 3.692 1.926 5.94 5.458l-0.9632 69.03v4.495l15.41 0.1607h19.58l4.976-123.9c-4.334-13.32-10.76-19.91-19.42-19.91h-0.6421c-4.655 0-9.632 3.211-15.09 9.632l-4.174 3.853-6.903-0.4816c-4.174-11.72-7.384-18.3-9.953-19.58-1.445-1.124-6.261-1.926-14.61-1.926h-0.1607c-5.137 0-8.829 4.334-10.92 13-0.321 0.9632-1.124 3.692-2.247 8.508l-11.72 1.124c0-3.211-1.124-6.903-3.692-11.08m6.903-97.12 187.3 187.3-187.3 187.7-187.5-187.7zm0 0 187.3 187.3-187.3 187.7-187.5-187.7zm0 0 187.3 187.3-187.3 187.7-187.5-187.7z" fill="#750019"/>
  </g>
</svg>
