<svg xmlns="http://www.w3.org/2000/svg" width="500" height="500" viewBox="0 0 132.292 132.292"><defs><clipPath id="a"><path d="M65 418h19v19H65zm0 0"/></clipPath><clipPath id="b"><path d="m65.203 427.39 8.945 8.946 8.946-8.945-8.946-8.946zm0 0"/></clipPath></defs><g clip-path="url(#a)" transform="matrix(7.39447 0 0 7.39447 -482.143 -3094.182)"><g clip-path="url(#b)"><path style="fill:#780f17;fill-opacity:1;fill-rule:nonzero;stroke:none" d="M78.535 425.125c-.23 1.09.442 2.305-.086 3.375-.039.266-.25.352-.476.426-.758.086-.79-.832-1.301-1.094-.297-.86.527-1.242.633-1.98.175-.25.406-.32.668-.336.14-.16.265-.825.562-.391m-1.531 3.602c.18.808.16 1.859-.629 2.445-.262.262-.707.297-1.059.242-.98-.527.215-1.527-.507-2.176-.157-.23-.598-.582-.844-.426l-.031.036c.296.23.437.652.242.968-.473.473-1.02 1.036-1.723 1.317-.453 0-.86-.14-1.226-.387-.286-.508-.688-1.02-.457-1.687.808-1.211 2.09-1.598 3.25-2.407.597-.03 1.14.317 1.421.899.493.457 1.371.387 1.563 1.176m-7.293-2.442c-.012-.476.406-.773.336-1.265.05-.106.156-.086.265-.086.07.261.368.367.579.507.472.79.671 1.86.214 2.743-.335.156-.812.386-1.18.12-.386-.562-.14-1.3-.214-2.019m2.23-2.328c.25-.371.477-.687.688-1.055.32.036.281.457.426.684.422.563.382 1.32.488 2.02-.066.445-.106.914-.578 1.144-.3.156-.598.422-.965.246-.32-.12-.3-.527-.355-.844.105-.664-.051-1.562.296-2.195m3.344-1.476c.367-.106.317.351.367.562.403.527.79 1.125.985 1.758.125.668.156 1.527-.352 1.98-.734.477-1.07-.402-1.543-.75-.195-.988-.3-2.25.418-3.039-.066-.16-.05-.39.125-.511m-1.137 13.855 8.946-8.945-8.946-8.946-8.945 8.946zm0 0"/></g></g></svg>