<svg version="1.1" id="Layer_1"
  xmlns="http://www.w3.org/2000/svg"
  xmlns:xlink="http://www.w3.org/1999/xlink" x="0px" y="0px" width="100%" viewBox="0 0 200 185" enable-background="new 0 0 200 185" xml:space="preserve">
  <path fill="#060606" opacity="1.000000" stroke="none" d="M75.595284,17.409491 C66.938988,23.649366 58.282696,29.889242 48.610367,36.861526 C46.532627,40.042915 43.922676,44.726940 40.650833,48.890881 C35.497452,55.449375 35.444649,63.225361 35.378666,70.726578 C35.283802,81.510857 36.403259,92.301041 36.802425,103.096176 C37.049408,109.775734 39.905365,115.241196 42.803032,121.170151 C51.967236,139.921127 70.008545,148.508301 85.625412,159.591400 C91.250389,163.583389 99.792648,163.773529 107.123772,164.949295 C112.439468,165.801849 117.952713,165.433578 123.378632,165.581772 C125.134857,165.629745 126.893509,165.589279 129.031219,165.589279 C128.179871,169.884644 125.028938,170.274078 122.119278,171.293060 C110.078224,175.509995 97.850433,173.634781 85.655411,172.616608 C77.697281,171.952164 69.769920,170.543777 61.809559,170.374969 C51.450085,170.155273 44.263935,164.706284 37.647614,157.728195 C35.018867,154.955719 32.030422,152.493790 29.634687,149.542282 C28.182556,147.753281 27.551979,145.297424 27.013029,144.134918 C24.098574,142.564590 21.705620,141.480804 19.527435,140.066284 C9.698457,133.683319 5.309220,123.667267 1.380280,113.058723 C1.000000,111.611107 1.000000,110.222221 1.309564,108.206818 C1.704434,106.090935 1.789739,104.601570 1.915259,102.680702 C1.949807,100.518082 1.944139,98.786957 1.956597,96.688187 C1.649816,95.213684 1.324908,94.106842 1.000000,93.000000 C1.000000,90.958336 1.000000,88.916664 1.263029,86.144958 C1.663610,83.258537 1.801162,81.102173 1.950071,78.534332 C1.640952,76.081917 1.320476,74.040955 1.000000,72.000000 C1.000000,70.285645 1.000000,68.571281 1.335043,66.288918 C2.411826,64.805420 3.474579,63.998177 3.827486,62.951580 C4.530013,60.868118 4.245740,58.239010 5.411830,56.559082 C13.373460,45.089130 21.585569,33.792397 29.785746,22.489750 C30.526983,21.468073 31.625952,20.487427 32.775532,20.013866 C46.262001,14.458183 59.800140,9.027975 73.291199,3.483294 C74.639870,2.929006 75.768990,1.840549 77.000000,1.000001 C78.066673,1.000000 79.133339,1.000000 80.766937,1.378747 C83.889236,1.504997 86.444618,1.252498 89.000000,1.000000 C89.444443,1.000000 89.888893,1.000000 90.769707,1.389566 C97.471252,2.826878 103.736427,3.874623 110.347321,5.063906 C113.696175,7.246349 118.692642,6.043693 119.539452,10.994659 C115.743073,10.786215 112.371063,10.485934 108.558510,10.025532 C104.078796,9.970401 100.039627,10.075390 95.613213,10.113819 C90.836411,11.395662 86.446861,12.744066 81.707794,14.039285 C79.437279,15.127230 77.516281,16.268360 75.595284,17.409491z"/>
  <path fill="#070707" opacity="1.000000" stroke="none" d="M191.987030,136.293030 C191.987030,136.293045 192.069946,136.364182 192.288177,136.643127 C193.482590,137.986526 194.458771,139.050949 195.347687,140.492432 C195.804321,141.594818 196.348236,142.320160 196.892151,143.045502 C196.892151,143.045502 197.161057,142.957642 197.288025,143.243301 C198.609985,145.019302 199.804993,146.509659 201.000000,148.000000 C201.000000,148.750000 201.000000,149.500000 200.685638,150.682831 C199.918915,151.757553 199.466537,152.399445 198.914169,153.376160 C191.534409,161.053558 183.170456,157.612350 174.899353,155.724457 C173.899979,155.044250 173.002182,154.744751 171.800919,154.454865 C170.665665,153.898682 169.833878,153.332855 168.907990,152.444931 C165.916763,151.251419 163.019684,150.379990 159.597046,149.499451 C158.927521,150.645828 158.233688,152.195740 158.732040,152.890579 C161.282135,156.446121 165.467346,159.390839 166.609543,163.275726 C168.895432,171.050583 167.670700,178.973251 163.000000,186.000000 C161.611115,186.000000 160.222214,186.000000 158.416656,186.000000 C153.884369,183.090973 149.768723,180.181946 145.336914,176.788727 C144.423096,175.801300 143.825424,175.298050 143.227753,174.794815 C139.885452,170.426758 136.543152,166.058685 133.005676,161.062500 C132.134262,158.958862 131.458008,157.483368 130.781769,156.007858 C130.654892,155.451935 130.528015,154.896011 130.356354,153.693954 C130.011734,151.368271 129.711868,149.688705 129.412018,148.009155 C129.349304,144.978516 129.286575,141.947876 129.477386,138.253555 C129.060486,136.066559 128.390030,134.543228 127.719589,133.019913 C127.452530,132.031265 127.185478,131.042633 126.745010,129.437958 C125.293251,123.851028 124.014908,118.880119 122.736565,113.909218 C122.738373,113.508728 122.740173,113.108246 122.769295,112.044449 C122.487312,109.928551 122.178001,108.475960 121.868690,107.023369 C121.872742,105.946007 121.876793,104.868637 122.150299,103.230164 C122.502571,102.077187 122.585373,101.485313 122.668175,100.893448 C122.966179,99.707756 123.264191,98.522057 123.859756,96.780380 C124.186813,95.428177 124.216316,94.631958 124.245819,93.835739 C124.384392,93.425797 124.522964,93.015854 124.928207,92.108131 C125.306953,91.027489 125.419029,90.444626 125.531113,89.861763 C126.832405,85.754524 128.133698,81.647285 129.434982,77.540054 C130.120041,77.536507 130.805115,77.532959 131.490173,77.529411 C130.039413,91.601517 134.770737,103.812981 141.471069,116.055359 C141.662354,117.487396 142.010910,118.248581 142.359451,119.009766 C142.536072,119.458679 142.712692,119.907600 142.666656,120.897583 C142.850067,121.960640 143.256149,122.482620 143.662216,123.004608 C144.453278,125.095825 145.244324,127.187042 145.760056,129.886108 C146.176086,131.608459 146.867462,132.722977 147.558838,133.837479 C148.706177,132.590851 149.853516,131.344223 151.000854,130.097595 C153.108521,130.669312 155.216187,131.241028 157.724243,132.285706 C159.061066,132.899811 159.997467,133.040970 160.933884,133.182129 C162.346863,133.133423 163.759857,133.084717 165.588333,132.931595 C166.760010,133.037552 167.516205,133.247925 168.731262,133.838058 C169.794525,134.142090 170.398926,134.066360 171.003326,133.990631 C172.732559,133.943039 174.461777,133.895462 176.676758,134.320160 C178.240097,135.931183 179.269989,137.125061 180.449509,138.146103 C180.616180,138.290390 181.512329,137.591980 182.276672,136.912476 C185.650681,136.458588 188.818863,136.375809 191.987030,136.293030  M158.218445,147.778336 C157.147659,146.770721 156.076874,145.763123 154.882660,144.107986 C153.715820,142.819748 152.548965,141.531509 151.416687,140.281433 C151.548798,138.882172 151.704330,137.234772 151.859848,135.587387 C151.439590,135.317322 151.019318,135.047256 150.599060,134.777191 C149.473785,135.790421 147.238037,137.093597 147.413879,137.767075 C148.209747,140.815155 147.018021,145.234116 152.540604,146.315887 C153.947205,147.622147 155.353806,148.928406 158.064117,150.725479 C158.131348,149.952896 158.198563,149.180313 158.218445,147.778336z"/>
  <path fill="#DFDFDF" opacity="1.000000" stroke="none" d="M201.000000,34.666672 C200.513596,34.681675 200.027176,34.363342 199.540771,34.045013 C199.839325,33.729450 200.137878,33.413895 200.718216,33.049171 C201.000000,33.444447 201.000000,33.888889 201.000000,34.666672z"/>
  <path fill="#090909" opacity="1.000000" stroke="none" d="M201.000000,152.666672 C200.559692,153.004181 200.119400,153.008377 199.346619,153.026947 C199.466537,152.399445 199.918915,151.757553 200.685638,151.057831 C201.000000,151.444443 201.000000,151.888901 201.000000,152.666672z"/>
  <path fill="#090909" opacity="1.000000" stroke="none" d="M173.868134,117.952477 C173.205505,119.084953 172.542862,120.217422 171.627747,121.845734 C170.968674,123.229134 170.562073,124.116699 170.155487,125.004265 C168.897324,126.520409 167.639175,128.036545 166.192978,129.824722 C161.503464,129.304855 157.001968,128.512955 151.749481,127.588936 C162.427643,111.752388 161.315903,95.151871 159.455353,78.089973 C157.491241,60.078266 148.530502,46.891396 134.211975,35.859188 C132.260010,34.211304 130.641113,33.091763 129.022202,31.972218 C127.029503,30.563845 125.036797,29.155472 122.635063,27.289114 C121.471649,26.572327 120.717270,26.313524 119.962891,26.054722 C119.297371,25.612869 118.631859,25.171019 117.500290,24.318783 C114.284386,23.435326 111.534546,22.962252 108.784698,22.489178 C105.630592,22.115725 102.476494,21.742271 98.655388,21.082552 C96.251678,20.702093 94.514961,20.607901 92.778252,20.513710 C90.859711,20.444189 88.941170,20.374670 86.212189,20.338127 C83.162964,20.371107 80.924164,20.371107 77.702431,20.371107 C79.731857,18.582882 80.878395,17.572605 82.431854,16.527010 C84.158195,16.182217 85.477623,15.872743 87.124130,15.651743 C88.455704,15.383378 89.460197,15.026538 90.822220,14.698211 C92.112953,14.597074 93.046173,14.467424 94.069702,14.500418 C94.160011,14.663060 94.529297,14.708470 94.761261,14.971756 C97.488419,15.066698 99.983604,14.898354 102.730980,14.761039 C103.490082,14.771823 103.996994,14.751576 104.733078,15.002121 C107.454796,15.060457 109.947357,14.848003 112.781006,14.632168 C114.256447,14.661418 115.390816,14.694052 116.738480,15.013765 C119.393509,15.644018 121.835251,15.987191 124.276985,16.330364 C126.754173,16.759401 129.231354,17.188438 132.327621,17.913399 C134.044556,18.291214 135.142426,18.373106 136.240280,18.454998 C138.337173,19.408756 142.262619,18.351597 140.653076,23.210356 C147.149078,23.126659 149.989792,27.661615 153.508453,32.299374 C158.068970,37.241421 162.224243,41.715168 166.461578,46.493595 C167.223816,47.581673 167.903992,48.365067 168.630798,49.505836 C169.599899,51.216881 170.522369,52.570560 171.425262,54.246593 C172.012604,55.708725 172.619553,56.848503 173.178543,58.319405 C173.592743,59.387699 174.054916,60.124863 174.465622,61.189323 C175.182816,63.454639 175.951477,65.392662 176.720123,67.330688 C176.962280,68.619881 177.204437,69.909081 177.480759,71.834045 C177.644516,73.645599 177.774109,74.821388 177.813751,76.389992 C178.130234,78.520935 178.536652,80.259056 178.943069,81.997177 C178.873535,82.228012 178.803986,82.458847 178.981903,82.957672 C179.229355,83.225662 179.084793,83.259758 179.084808,83.259758 C179.002335,84.287262 178.919876,85.314758 178.878708,87.052597 C178.850800,88.089684 178.920319,88.383614 179.128586,88.644699 C179.049561,89.454880 178.970535,90.265060 178.892212,91.818329 C178.973236,94.040527 179.053574,95.519646 179.133911,96.998764 C178.994324,98.720917 178.854721,100.443062 178.657654,102.869949 C178.628906,104.013962 178.657623,104.453239 178.431351,105.121216 C178.058456,106.231651 177.940552,107.113388 177.822647,107.995125 C176.797012,110.396690 175.771378,112.798256 174.549377,115.748665 C174.191391,116.849167 174.029755,117.400818 173.868134,117.952477z"/>
  <path fill="#131313" opacity="1.000000" stroke="none" d="M125.023582,130.203568 C124.051552,130.553818 122.614426,131.505234 122.175888,131.165924 C112.595749,123.754105 103.169144,116.141190 97.019943,105.397713 C96.222290,104.004105 96.098732,102.224670 95.660614,100.615417 C103.798561,105.232605 111.465004,109.582283 119.517235,114.426849 C121.609871,120.015678 123.316727,125.109627 125.023582,130.203568z"/>
  <path fill="#191919" opacity="1.000000" stroke="none" d="M127.975288,153.998154 C127.446465,155.118729 127.139923,157.001312 126.351318,157.231339 C122.399895,158.383987 118.176582,160.238113 114.318962,159.742615 C105.993126,158.673126 97.809792,156.410416 89.627937,154.393417 C88.390045,154.088242 87.473167,152.480911 86.760071,151.018845 C100.294960,151.950226 113.578209,156.607971 126.722244,149.160629 C127.460785,151.043640 127.718033,152.520889 127.975288,153.998154z"/>
  <path fill="#8C8C8C" opacity="1.000000" stroke="none" d="M129.007599,32.323803 C130.641113,33.091763 132.260010,34.211304 133.948151,35.657951 C132.342590,34.881832 130.667801,33.778610 129.007599,32.323803z"/>
</svg>
