<?xml version="1.0" standalone="no"?>
<!DOCTYPE svg PUBLIC "-//W3C//DTD SVG 20010904//EN"
 "http://www.w3.org/TR/2001/REC-SVG-20010904/DTD/svg10.dtd">
<svg version="1.0" xmlns="http://www.w3.org/2000/svg"
 width="500.000000pt" height="500.000000pt" viewBox="0 0 500.000000 500.000000"
 preserveAspectRatio="xMidYMid meet">

<g transform="translate(0.000000,500.000000) scale(0.100000,-0.100000)"
fill="#000000" stroke="none">
<path d="M2130 4905 l0 -35 -160 0 -160 0 0 -30 0 -30 -90 0 -90 0 0 -30 0
-30 -65 0 -65 0 0 -30 0 -30 -60 0 -60 0 0 -35 0 -35 -65 0 -65 0 0 -30 0 -30
-60 0 -60 0 0 -30 c0 -28 -3 -30 -35 -30 l-35 0 0 -95 0 -95 125 0 125 0 0 30
0 30 125 0 125 0 0 35 0 35 250 0 250 0 0 -35 0 -35 160 0 160 0 0 -30 0 -30
90 0 90 0 0 -30 c0 -28 3 -30 35 -30 l35 0 0 -95 0 -95 -35 0 -35 0 0 -95 0
-95 -30 0 -30 0 0 -60 0 -60 -60 0 -60 0 0 -30 c0 -28 -3 -30 -35 -30 -33 0
-35 -2 -35 -35 l0 -35 -60 0 -60 0 0 -30 c0 -27 -3 -30 -30 -30 -27 0 -30 -3
-30 -30 0 -28 -3 -30 -35 -30 -32 0 -35 2 -35 30 0 27 -3 30 -30 30 l-30 0 0
65 0 65 -30 0 -30 0 0 185 0 185 -30 0 c-27 0 -30 3 -30 30 0 28 -3 30 -35 30
l-35 0 0 95 0 95 -90 0 -90 0 0 -30 c0 -28 -3 -30 -35 -30 -32 0 -35 -2 -35
-30 0 -27 -3 -30 -30 -30 l-30 0 0 -65 0 -65 30 0 c27 0 30 -3 30 -30 0 -28 3
-30 35 -30 32 0 35 -2 35 -30 0 -27 3 -30 30 -30 l30 0 0 -65 0 -65 30 0 c27
0 30 -3 30 -30 0 -27 -3 -30 -30 -30 -27 0 -30 -3 -30 -30 0 -27 -3 -30 -30
-30 -28 0 -30 -3 -30 -35 0 -33 -2 -35 -35 -35 l-35 0 0 -90 0 -90 35 0 c33 0
35 -2 35 -35 0 -32 2 -35 30 -35 l30 0 0 -60 0 -60 30 0 c27 0 30 -3 30 -30
l0 -30 -60 0 -60 0 0 -35 c0 -33 -2 -35 -35 -35 l-35 0 0 -60 0 -60 -30 0
c-27 0 -30 -3 -30 -30 l0 -30 -60 0 -60 0 0 -35 0 -35 -65 0 -65 0 0 -30 c0
-27 -3 -30 -30 -30 l-30 0 0 -60 0 -60 -30 0 c-28 0 -30 -3 -30 -35 0 -33 -2
-35 -35 -35 -32 0 -35 -2 -35 -30 0 -27 -3 -30 -30 -30 -27 0 -30 -3 -30 -30
0 -27 -3 -30 -30 -30 -27 0 -30 3 -30 30 l0 30 -65 0 -65 0 0 30 0 30 -60 0
-60 0 0 -30 c0 -27 -3 -30 -30 -30 -27 0 -30 -3 -30 -30 0 -28 -3 -30 -35 -30
l-35 0 0 -65 0 -65 -60 0 -60 0 0 35 c0 32 -2 35 -30 35 -27 0 -30 3 -30 30 0
28 -3 30 -35 30 -32 0 -35 2 -35 30 0 27 -3 30 -30 30 l-30 0 0 315 0 315 -30
0 -30 0 0 -65 0 -65 -30 0 c-27 0 -30 -3 -30 -30 0 -28 -3 -30 -35 -30 l-35 0
0 -530 0 -530 35 0 35 0 0 -125 0 -125 30 0 30 0 0 -65 0 -65 30 0 30 0 0 -60
0 -60 30 0 30 0 0 -65 0 -65 35 0 35 0 0 -60 0 -60 30 0 c28 0 30 -3 30 -35 0
-32 2 -35 30 -35 l30 0 0 -60 0 -60 30 0 c27 0 30 -3 30 -30 0 -28 3 -30 35
-30 33 0 35 -2 35 -35 0 -32 2 -35 30 -35 l30 0 0 -60 0 -60 60 0 60 0 0 -30
c0 -28 3 -30 35 -30 33 0 35 -2 35 -35 0 -32 2 -35 30 -35 27 0 30 -3 30 -30
0 -27 3 -30 30 -30 27 0 30 -3 30 -30 l0 -30 65 0 65 0 0 -30 c0 -27 3 -30 30
-30 28 0 30 -3 30 -35 l0 -35 60 0 60 0 0 345 0 345 -30 0 -30 0 0 65 0 65
-30 0 -30 0 0 60 0 60 -30 0 -30 0 0 65 0 65 -35 0 c-32 0 -35 2 -35 30 0 27
-3 30 -30 30 l-30 0 0 155 0 155 30 0 30 0 0 65 0 65 35 0 c32 0 35 2 35 30
l0 30 155 0 155 0 0 -30 0 -30 60 0 60 0 0 -35 c0 -33 2 -35 35 -35 32 0 35
-2 35 -30 l0 -30 60 0 60 0 0 -30 c0 -27 3 -30 30 -30 27 0 30 -3 30 -30 l0
-30 65 0 65 0 0 -65 0 -65 30 0 30 0 0 -125 0 -125 -30 0 -30 0 0 -60 0 -60
-30 0 c-28 0 -30 -3 -30 -35 0 -33 -2 -35 -35 -35 -32 0 -35 -2 -35 -30 0 -27
-3 -30 -30 -30 l-30 0 0 -60 0 -60 -30 0 c-28 0 -30 -3 -30 -35 0 -32 -2 -35
-30 -35 -27 0 -30 -3 -30 -30 0 -28 -3 -30 -35 -30 l-35 0 0 -60 0 -60 -30 0
-30 0 0 -65 0 -65 -30 0 -30 0 0 -60 0 -60 -30 0 c-28 0 -30 -3 -30 -35 0 -32
2 -35 30 -35 l30 0 0 -60 0 -60 60 0 60 0 0 -30 0 -30 95 0 95 0 0 -35 0 -35
95 0 95 0 0 -30 0 -30 560 0 560 0 0 30 0 30 125 0 125 0 0 35 0 35 65 0 65 0
0 30 0 30 60 0 60 0 0 30 0 30 65 0 65 0 0 30 0 30 60 0 60 0 0 35 0 35 65 0
65 0 0 30 c0 27 3 30 30 30 27 0 30 3 30 30 0 27 3 30 30 30 27 0 30 3 30 30
0 28 3 30 35 30 33 0 35 2 35 35 0 32 2 35 30 35 27 0 30 3 30 30 0 27 3 30
30 30 27 0 30 3 30 30 0 27 3 30 30 30 27 0 30 3 30 30 0 28 3 30 35 30 33 0
35 2 35 35 0 32 2 35 30 35 27 0 30 3 30 30 0 27 3 30 30 30 l30 0 0 60 0 60
30 0 30 0 0 65 0 65 35 0 c32 0 35 2 35 30 0 27 3 30 30 30 l30 0 0 65 0 65
30 0 30 0 0 60 0 60 30 0 30 0 0 95 0 95 35 0 35 0 0 185 0 185 -35 0 c-33 0
-35 2 -35 35 0 32 -2 35 -30 35 -27 0 -30 3 -30 30 0 27 -3 30 -30 30 -27 0
-30 3 -30 30 0 27 -3 30 -30 30 -27 0 -30 3 -30 30 l0 30 -65 0 -65 0 0 35 0
35 -95 0 -95 0 0 -35 c0 -32 -2 -35 -30 -35 -27 0 -30 -3 -30 -30 0 -27 -3
-30 -30 -30 l-30 0 0 -60 0 -60 -30 0 c-28 0 -30 -3 -30 -35 0 -33 -2 -35 -35
-35 l-35 0 0 -60 0 -60 35 0 35 0 0 -65 0 -65 -35 0 -35 0 0 -60 0 -60 -30 0
-30 0 0 -65 0 -65 -30 0 -30 0 0 -60 0 -60 -30 0 c-27 0 -30 -3 -30 -30 0 -28
-3 -30 -35 -30 l-35 0 0 -65 0 -65 -30 0 -30 0 0 -95 0 -95 -30 0 c-27 0 -30
-3 -30 -30 0 -27 -3 -30 -30 -30 -27 0 -30 -3 -30 -30 0 -28 -3 -30 -35 -30
-32 0 -35 -2 -35 -30 l0 -30 -90 0 -90 0 0 125 0 125 -35 0 -35 0 0 155 0 155
-30 0 -30 0 0 125 0 125 -30 0 c-27 0 -30 3 -30 30 0 27 -3 30 -30 30 -27 0
-30 3 -30 30 l0 30 -190 0 -190 0 0 35 c0 32 -2 35 -30 35 -27 0 -30 3 -30 30
0 27 -3 30 -30 30 l-30 0 0 95 0 95 -35 0 -35 0 0 60 0 60 35 0 35 0 0 95 0
95 30 0 c27 0 30 3 30 30 0 27 3 30 30 30 27 0 30 3 30 30 0 27 3 30 30 30 28
0 30 3 30 35 0 32 -2 35 -30 35 l-30 0 0 60 0 60 30 0 c27 0 30 3 30 30 0 28
3 30 35 30 l35 0 0 125 0 125 -35 0 -35 0 0 95 0 95 35 0 c32 0 35 -2 35 -30
0 -27 3 -30 30 -30 27 0 30 -3 30 -30 l0 -30 60 0 60 0 0 30 c0 28 3 30 35 30
l35 0 0 60 0 60 30 0 30 0 0 125 0 125 30 0 c28 0 30 3 30 35 l0 35 125 0 125
0 0 30 0 30 65 0 65 0 0 -30 0 -30 60 0 60 0 0 30 0 30 95 0 95 0 0 30 0 30
95 0 95 0 0 30 c0 27 3 30 30 30 l30 0 0 65 0 65 60 0 60 0 0 95 0 95 -30 0
c-27 0 -30 3 -30 30 0 27 -3 30 -30 30 -27 0 -30 3 -30 30 0 27 -3 30 -30 30
-27 0 -30 3 -30 30 0 28 -3 30 -35 30 -33 0 -35 2 -35 35 l0 35 -60 0 -60 0 0
30 c0 27 -3 30 -30 30 -27 0 -30 3 -30 30 l0 30 -65 0 -65 0 0 30 0 30 -60 0
-60 0 0 35 0 35 -65 0 -65 0 0 30 0 30 -60 0 -60 0 0 30 0 30 -95 0 -95 0 0
30 0 30 -190 0 -190 0 0 35 0 35 -340 0 -340 0 0 -35z m-1500 -2625 c0 -27 3
-30 30 -30 27 0 30 3 30 30 l0 30 60 0 60 0 0 -125 0 -125 -30 0 c-27 0 -30 3
-30 30 0 27 -3 30 -30 30 -28 0 -30 3 -30 35 0 32 -2 35 -30 35 -27 0 -30 3
-30 30 0 28 -3 30 -35 30 -32 0 -35 2 -35 30 0 28 3 30 35 30 32 0 35 -2 35
-30z"/>
</g>
</svg>
