<svg width="500" height="500" version="1.1" viewBox="0 0 132.3 132.3" xmlns="http://www.w3.org/2000/svg">
  <g transform="matrix(.3528 0 0 .3528 77.43 149.5)">
    <path transform="matrix(.75 0 0 .75 -219.5 -423.8)" d="m249.9 0-249.8 250 250 250 249.8-249.8-250-250.2zm-0.8633 39.65c34.7 58.84 70.48 119.4 102.2 180.6l-71.77 71.77-85.56-144.8 55.17-107.5zm-93.75 92.67 118.3 195c39.22-33.62 76.29-71.77 114-108 11.85 7.328 43.32 58.4 54.31 58.4l-195.3 195-216.8-217 125.4-123.5z" fill="#750019"/>
  </g>
</svg>
