<svg width="500" height="500" version="1.1" viewBox="0 0 132.3 132.3" xmlns="http://www.w3.org/2000/svg">
  <g transform="matrix(.3528 0 0 .3528 77.43 149.5)">
    <path d="m-14.82-236c0.3211 3.692 2.247 8.027 5.458 13 3.692 4.495 6.742 7.063 8.99 8.187 4.655 2.729 8.027 4.174 10.6 4.174h111.1l2.247-1.124v-43.99l-2.247-3.532h-116.4c-1.445 0.4816-4.655 2.89-9.632 6.742-4.976 4.013-8.348 9.632-10.11 16.53m-85.56 40.13c-1.605 1.284-2.408 2.247-2.408 3.05-0.6421 5.94-0.9632 10.6-0.9632 13.65 0 13.32 3.371 21.67 10.11 25.36 2.729 1.445 5.298 2.247 7.545 2.247h116.1c3.371-1.124 6.742-3.211 9.953-6.261 3.692-4.655 5.458-11.08 5.458-19.42v-3.532c0-4.976-1.284-9.953-3.532-15.09zm10.27-125.2c-3.853 0.9632-7.545 3.371-11.08 7.224-2.89 4.495-4.495 10.6-4.495 18.14 0 7.545 1.284 13.81 3.853 18.94h142.1c2.087-6.742 3.05-12.52 3.05-17.5 0-14.77-4.655-23.6-13.97-26.17l-3.853-0.6421zm-95.03 61.8-2.247 2.568v43.66l2.247 2.408h116.7c2.247 0 6.261-2.568 12.04-7.545 4.495-5.458 6.903-10.43 7.384-15.25-0.6421-4.655-3.532-9.792-8.348-15.41-4.816-4.655-9.792-8.027-15.09-10.43zm153.3-164.5 187.3 187.3-187.3 187.7-187.7-187.7z" fill="#750019"/>
  </g>
</svg>
