<svg width="499.994" height="499.994" viewBox="0 0 132.29 132.29" xmlns="http://www.w3.org/2000/svg"><defs><clipPath id="a"><path d="M178 471h19v19h-19z"/></clipPath><clipPath id="b"><path d="m178.18 480.62 8.95 8.95 8.945-8.946-8.95-8.95z"/></clipPath></defs><g clip-path="url(#a)" transform="matrix(7.3945 0 0 7.3961 -1317.6 -3488.6)"><g clip-path="url(#b)"><path d="m186.44 478.94-3.621-2.64v.007l2.64 3.621-4.437.688 4.438.695-2.653 3.625h.012l3.621-2.644.688 4.43h.011l.684-4.422h.011l3.622 2.644v-.008l-2.653-3.625 4.43-.695-4.422-.688v-.008l2.645-3.62h-.012c-.106.085-1.317.968-3.621 2.64l-.684-4.43zm.7-7.262 8.937 8.938-8.938 8.949-8.953-8.95z" style="fill:#780f17"/></g></g></svg>