<svg width="500" height="500" version="1.1" viewBox="0 0 132.3 132.3" xmlns="http://www.w3.org/2000/svg">
  <path d="m63.73 94.32c0 2.435 1.303 4.985 4.022 7.589l27.13 0.1132v-15.29h-27.24c-2.605 2.492-3.909 5.042-3.909 7.589 0 2.435 1.303 4.985 4.022 7.589l27.13 0.1132v-15.29h-27.24c-2.605 2.492-3.909 5.042-3.909 7.589 0 2.435 1.303 4.985 4.022 7.589l27.13 0.1132v-15.29h-27.24c-2.605 2.492-3.909 5.042-3.909 7.589m0-60.08c-1.133-1.303-2.662-1.982-4.699-1.982l-0.3398 0.1133h-0.1699c-3.341 0-5.38 1.076-6.118 3.172-0.623 1.529-0.9628 2.945-1.02 4.361 0 0.05669-0.5098 0.1699-1.586 0.2832l-1.529 0.2832c0-0.3965-0.3965-1.416-1.189-3.115-1.076-1.586-2.152-2.379-3.285-2.379-2.888 0-4.586 0.2265-5.154 0.7363-0.623 0.2266-1.529 0.9063-2.605 2.152-1.133 1.529-1.926 3.002-2.322 4.304l-0.2832 0.6795c0 0.453 1.246 9.741 3.74 27.92 0.5098 3.965 1.02 8.27 1.473 12.97l6.626 0.1132h2.832l-0.5662-27.41c0.623-0.2265 1.133-0.3965 1.529-0.3965h0.2265c0.3965 0 0.8495 0.1132 1.359 0.3398l3.285 27.47 1.586 0.0567 7.758 0.0567 1.076-26.84c0.7363-0.2832 1.416-0.453 2.039-0.453 0.5662 0 1.133 0.1132 1.642 0.3965l0.1132 0.5098 0.7927 26.28h10.65l1.303-26.22c0.7927-1.076 1.473-1.642 2.096-1.642s1.303 0.6795 2.096 1.926l-0.3398 24.35v1.586l5.437 0.0567h6.908l1.756-43.71c-1.529-4.699-3.796-7.024-6.851-7.024h-0.2265c-1.642 0-3.398 1.133-5.324 3.398l-1.473 1.359-2.435-0.1699c-1.473-4.135-2.605-6.456-3.511-6.908-0.5098-0.3965-2.209-0.6795-5.154-0.6795h-0.0567c-1.812 0-3.115 1.529-3.853 4.586-0.1132 0.3398-0.3965 1.303-0.7927 3.002l-4.135 0.3965c0-1.133-0.3965-2.435-1.303-3.909-1.133-1.303-2.662-1.982-4.699-1.982l-0.3398 0.1133h-0.1699c-3.341 0-5.38 1.076-6.118 3.172-0.623 1.529-0.9628 2.945-1.02 4.361 0 0.0567-0.5098 0.1699-1.586 0.2832l-1.529 0.2832c0-0.3965-0.3965-1.416-1.189-3.115-1.076-1.586-2.152-2.379-3.285-2.379-2.888 0-4.586 0.2265-5.154 0.7363-0.623 0.2266-1.529 0.9063-2.605 2.152-1.133 1.529-1.926 3.002-2.322 4.304l-0.2832 0.6795c0 0.453 1.246 9.741 3.74 27.92 0.5098 3.965 1.02 8.27 1.473 12.97l6.626 0.1132h2.832l-0.5662-27.41c0.623-0.2265 1.133-0.3965 1.529-0.3965h0.2265c0.3965 0 0.8495 0.1132 1.359 0.3398l3.285 27.47 1.586 0.05669 7.758 0.0567 1.076-26.84c0.7363-0.2832 1.416-0.453 2.039-0.453 0.5662 0 1.133 0.1132 1.642 0.3965l0.1132 0.5098 0.7927 26.28h10.65l1.303-26.22c0.7927-1.076 1.473-1.642 2.096-1.642s1.303 0.6795 2.096 1.926l-0.3398 24.35v1.586l5.437 0.05669h6.908l1.756-43.71c-1.529-4.699-3.796-7.024-6.851-7.024h-0.2265c-1.642 0-3.398 1.133-5.324 3.398l-1.473 1.359-2.435-0.1699c-1.473-4.135-2.605-6.456-3.511-6.908-0.5098-0.3965-2.209-0.6795-5.154-0.6795h-0.0567c-1.812 0-3.115 1.529-3.853 4.586-0.1132 0.3398-0.3965 1.303-0.7927 3.002l-4.135 0.3965c0-1.133-0.3965-2.435-1.303-3.909-1.133-1.303-2.662-1.982-4.699-1.982l-0.3398 0.1133h-0.1699c-3.341 0-5.38 1.076-6.118 3.172-0.623 1.529-0.9628 2.945-1.02 4.361 0 0.0567-0.5098 0.1699-1.586 0.2832l-1.529 0.2832c0-0.3965-0.3965-1.416-1.189-3.115-1.076-1.586-2.152-2.379-3.285-2.379-2.888 0-4.586 0.2265-5.154 0.7363-0.623 0.2266-1.529 0.9063-2.605 2.152-1.133 1.529-1.926 3.002-2.322 4.304l-0.2832 0.6795c0 0.453 1.246 9.741 3.74 27.92 0.5098 3.965 1.02 8.27 1.473 12.97l6.626 0.1132h2.832l-0.5662-27.41c0.623-0.2265 1.133-0.3965 1.529-0.3965h0.2265c0.3965 0 0.8495 0.1132 1.359 0.3398l3.285 27.47 1.586 0.0567 7.758 0.05669 1.076-26.84c0.7363-0.2832 1.416-0.453 2.039-0.453 0.5662 0 1.133 0.1132 1.642 0.3965l0.1132 0.5098 0.7927 26.28h10.65l1.303-26.22c0.7927-1.076 1.473-1.642 2.096-1.642 0.623 0 1.303 0.6795 2.096 1.926l-0.3398 24.35v1.586l5.437 0.0567h6.908l1.756-43.71c-1.529-4.699-3.796-7.024-6.851-7.024h-0.2265c-1.642 0-3.398 1.133-5.324 3.398l-1.473 1.359-2.435-0.1699c-1.473-4.135-2.605-6.456-3.511-6.908-0.5098-0.3965-2.209-0.6795-5.154-0.6795h-0.0567c-1.812 0-3.115 1.529-3.853 4.586-0.1132 0.3398-0.3965 1.303-0.7927 3.002l-4.135 0.3965c0-1.133-0.3965-2.435-1.303-3.909m2.435-34.26 66.08 66.08-66.08 66.22-66.15-66.22zm0 0 66.08 66.08-66.08 66.22-66.15-66.22zm0 0 66.08 66.08-66.08 66.22-66.15-66.22z" fill="#750019" stroke-width=".3528"/>
</svg>
