<svg width="500" height="500" version="1.1" viewBox="0 0 132.3 132.3" xmlns="http://www.w3.org/2000/svg">
  <g transform="matrix(.3528 0 0 .3528 77.43 149.5)">
    <path transform="matrix(.75 0 0 .75 -219.5 -423.8)" d="m250 0-250 250 250 250 250-250-250-250zm80.71 142.1c11.18-0.02672 23.6 2.043 32.39 9.49l98.31 98.31-209.9 209.8-126.7-126.7c8.165-4.793 16.2-13.3 18-28.4 3.871-32.7-23.52-34.99-23.52-34.99s39.8-12.16 52.8 20.4c5.261 13.15 3.523 30.12 3.523 30.12s15.53-12.65 14.39-49.13c-0.9926-30.52-34.84-46.01-34.84-46.01s32.26-11.91 59.95 23.23c13.5 17.22 8.834 48.19 8.834 48.19s19.85-16.87 13.85-58.51c-4.665-32.61-45.01-65.76-45.01-65.76s54.39-6.302 85.61 50.87c14.34 26.25 14.1 61.98 14.1 61.98s13.25-19.55 14.64-43.22c1.985-32.85-21.39-55.24-21.39-55.24s35.48-0.3464 51.96 29.88c14.89 27.39-6.254 61.39-6.254 61.39s30.27-23.82 27.2-70.82c-3.176-49.33-54.69-61.39-54.69-61.39s12.34-3.501 26.72-3.535z" fill="#700c1c"/>
  </g>
</svg>
