<svg width="499.994" height="499.994" viewBox="0 0 132.29 132.29" xmlns="http://www.w3.org/2000/svg"><defs><clipPath id="a"><path d="M180 527h14v14h-14z"/></clipPath><clipPath id="b"><path d="m178.19 533.85 8.945 8.945 8.946-8.945-8.946-8.945z"/></clipPath></defs><path d="m178.19 533.85 8.945 8.945 8.946-8.945-8.946-8.945zm1.438 0 7.507-7.508 7.508 7.508-7.508 7.508z" style="fill:#780f17" transform="translate(-1317.6 -3881.4) scale(7.3945)"/><g clip-path="url(#a)" transform="translate(-1317.6 -3881.4) scale(7.3945)"><g clip-path="url(#b)"><path d="M191.74 533.84a4.59 4.59 0 0 1-2.16 3.883l-1.051-4.207 2.488-2.13c.45.712.723 1.548.723 2.454m-7.613 3.45 2.375-2.036 2.656 2.7c-.61.3-1.29.484-2.02.484a4.553 4.553 0 0 1-3.011-1.149m-.645-.687 1.738-2.653.73.742-2.468 1.915v-.004m-.945-2.762c0-.754.199-1.457.523-2.086l1.598 1.621-1.633 2.488a4.574 4.574 0 0 1-.488-2.023m4.601-4.602c.075 0 .141.02.215.024l-2.258 3.445-1.605-1.64a4.574 4.574 0 0 1 3.648-1.829m.329.036a4.558 4.558 0 0 1 3.07 1.488l-2.223 1.898zm-.93 4.914-.88-.903 1.466-2.23.531 2.176zm.55.562.774-.66.477 1.938zm-4.292-3.27-.036-.034.036.035-2.368 2.367 6.696 6.691 6.695-6.695-6.695-6.691z" style="fill:#780f17"/></g></g></svg>