<svg width="500" height="500" version="1.1" viewBox="0 0 132.3 132.3" xmlns="http://www.w3.org/2000/svg">
  <g transform="matrix(.3528 0 0 .3528 77.43 149.5)">
    <g transform="translate(-9.091 4.546)">
      <path d="m-22.99-428.3-187.4 187.4 187.4 187.4 187.6-187.4z" style="fill:#750019"/>
      <g transform="translate(9.091 -4.546)">
        <path d="m-0.5687-327.4c8.489 11.1 16.65 23.51 20.73 36.9 2.612 13.88 3.265 32-7.347 41.47-15.51 9.959-22.53-8.489-32.49-15.84-3.918-20.57-6.204-47.02 8.816-63.67-1.306-3.264-0.9797-8 2.612-10.61 7.673-2.286 6.693 7.346 7.673 11.75" style="fill:#fff"/>
        <path d="m-54.93-316c8.816 11.75 8 27.59 10.29 42.28-1.469 9.305-2.286 19.1-12.24 24-6.204 3.264-12.41 8.816-20.08 5.061-6.694-2.449-6.367-10.94-7.51-17.63 2.286-13.88-1.143-32.65 6.204-46.04 5.224-7.673 10.12-14.37 14.37-22.04 6.694 0.815 6.041 9.469 8.979 14.37" style="fill:#fff"/>
        <path d="m-100.3-277.1c9.959 16.49 14.04 39.02 4.571 57.47-7.02 3.264-17.14 7.999-24.81 2.612-8-11.92-2.939-27.26-4.408-42.45-0.326-9.959 8.489-16.16 7.02-26.45 1.143-2.286 3.265-1.797 5.551-1.797 1.469 5.388 7.673 7.673 12.08 10.61" style="fill:#fff"/>
        <path d="m60-283.8c-4.898 22.86 9.142 48.32-1.959 70.85-0.6532 5.551-5.061 7.346-9.959 8.816-15.84 1.797-16.49-17.31-27.26-22.86-6.204-18.12 11.1-26.12 13.39-41.63 3.592-5.061 8.489-6.693 13.88-7.02 2.939-3.264 5.551-17.31 11.92-8.163" style="fill:#fff"/>
        <path d="m-4.977-233.1c10.45 9.632 28.73 8.163 32.81 24.65 3.755 16.98 3.428 39.18-13.22 51.26-5.551 5.551-14.69 6.367-22.2 5.224-20.57-11.1 4.571-32.16-10.61-45.71-3.265-4.734-12.41-12.08-17.63-8.816l-0.6532 0.652c6.204 4.898 9.142 13.71 5.061 20.24-9.959 9.959-21.39 21.71-36.08 27.59-9.632 0-18.12-2.775-25.79-8-5.877-10.61-14.37-21.39-9.469-35.43 16.82-25.3 43.75-33.47 68.08-50.45 12.41-0.652 23.84 6.693 29.71 18.77" style="fill:#fff"/>
      </g>
    </g>
  </g>
</svg>
