<svg width="499.994" height="499.994" viewBox="0 0 132.29 132.29" xmlns="http://www.w3.org/2000/svg"><defs><clipPath id="a"><path d="M178 445h19v18h-19z"/></clipPath><clipPath id="b"><path d="m178.18 454 8.95 8.95 8.945-8.946-8.95-8.95z"/></clipPath></defs><g clip-path="url(#a)" transform="matrix(7.3948 0 0 7.395 -1317.6 -3291.2)"><g clip-path="url(#b)"><path d="M186.8 457.83c0 .328.184.668.547 1.02l3.672.019v-2.07h-3.684c-.355.34-.535.68-.535 1.03 0 .329.184.669.547 1.02l3.672.02v-2.07h-3.684c-.355.34-.535.68-.535 1.03 0 .329.184.669.547 1.02l3.672.02v-2.07h-3.684c-.355.34-.535.68-.535 1.03m0-8.132c-.148-.176-.36-.266-.637-.266l-.039.012h-.031c-.441 0-.719.145-.824.434a1.757 1.757 0 0 0-.133.586c0 .015-.07.027-.215.043l-.21.039c0-.055-.052-.196-.16-.422-.142-.219-.29-.324-.446-.324-.39 0-.621.035-.696.101-.085.027-.203.121-.351.293a1.821 1.821 0 0 0-.313.582l-.043.094c0 .058.168 1.316.508 3.77.07.534.137 1.12.2 1.757l.898.012h.383l-.078-3.703a.6.6 0 0 1 .21-.055h.032c.05 0 .113.016.18.043l.445 3.715.21.008 1.051.011.153-3.632a.708.708 0 0 1 .27-.063c.074 0 .148.02.222.055l.012.066.109 3.555h1.441l.172-3.543c.11-.148.203-.223.285-.223.086 0 .18.09.282.262l-.04 3.29v.214l.735.008h.93l.242-5.91c-.211-.633-.52-.95-.93-.95h-.031c-.219 0-.461.153-.715.454l-.203.191-.332-.031c-.195-.559-.352-.867-.473-.926-.07-.062-.3-.094-.699-.094h-.008c-.242 0-.414.207-.516.618-.019.046-.058.183-.109.402l-.555.062c0-.156-.062-.332-.183-.535-.149-.175-.36-.265-.637-.265l-.039.011h-.031c-.442 0-.719.145-.824.434a1.757 1.757 0 0 0-.133.586c0 .015-.07.027-.215.043l-.211.039c0-.055-.05-.195-.16-.422-.14-.219-.29-.324-.445-.324-.391 0-.622.035-.696.101-.086.028-.203.122-.351.293a1.821 1.821 0 0 0-.313.582l-.043.094c0 .059.168 1.317.508 3.77.07.535.137 1.12.2 1.757l.898.012h.382l-.078-3.703a.6.6 0 0 1 .211-.055h.031c.051 0 .114.016.18.043l.445 3.715.211.008 1.051.012.153-3.633a.708.708 0 0 1 .27-.062c.073 0 .148.02.222.054l.011.067.11 3.554h1.441l.172-3.543c.11-.148.203-.222.285-.222.086 0 .18.09.281.261l-.039 3.29v.214l.735.008h.93l.242-5.91c-.211-.633-.52-.95-.93-.95h-.031c-.219 0-.461.153-.715.454l-.203.191-.332-.03c-.196-.56-.352-.868-.473-.927-.07-.062-.3-.093-.7-.093h-.007c-.242 0-.414.207-.516.617-.02.047-.058.184-.11.402l-.554.063c0-.156-.062-.332-.183-.535-.149-.176-.36-.266-.637-.266l-.04.012h-.03c-.442 0-.72.144-.825.433a1.757 1.757 0 0 0-.132.586c0 .016-.07.028-.215.043l-.211.04c0-.055-.051-.196-.16-.423-.141-.218-.29-.324-.446-.324-.39 0-.62.035-.695.102-.086.027-.203.12-.352.293a1.821 1.821 0 0 0-.312.582l-.043.094c0 .058.168 1.316.508 3.769.07.535.136 1.121.199 1.758l.898.012h.383l-.078-3.704a.6.6 0 0 1 .211-.054h.031c.051 0 .114.015.18.043l.445 3.715.211.008 1.051.011.152-3.633a.708.708 0 0 1 .27-.062c.074 0 .148.02.223.055l.011.066.11 3.555h1.441l.172-3.543c.11-.149.203-.223.285-.223.086 0 .18.09.281.262l-.039 3.289v.215l.735.008h.93l.241-5.91c-.21-.633-.52-.95-.93-.95h-.03c-.22 0-.461.153-.715.453l-.203.192-.332-.031c-.196-.559-.352-.868-.473-.926-.07-.063-.3-.094-.7-.094h-.007c-.243 0-.414.207-.516.617-.02.047-.059.184-.11.403l-.554.062c0-.156-.063-.332-.184-.535m.336-4.633 8.938 8.942-8.942 8.949-8.949-8.95zm0 0 8.938 8.942-8.942 8.949-8.949-8.95zm0 0 8.938 8.942-8.942 8.949-8.949-8.95z" style="fill:#780f17"/></g></g></svg>