<svg width="500" height="500" version="1.1" viewBox="0 0 132.3 132.3" xmlns="http://www.w3.org/2000/svg">
  <path d="m66.11-4.1e-4 -66.11 66.11 66.11 66.11 66.19-66.11z" fill="#750019" stroke-width=".3528"/>
  <g fill="#fff" stroke-width=".3528">
    <path d="m77.23 33.99c2.995 3.916 5.874 8.294 7.314 13.02 0.9215 4.897 1.152 11.29-2.592 14.63-5.472 3.514-7.949-2.995-11.46-5.588-1.382-7.257-2.189-16.59 3.11-22.46-0.4608-1.152-0.3456-2.822 0.9215-3.743 2.707-0.8065 2.361 2.592 2.707 4.145"/>
    <path d="m58.05 38.02c3.11 4.145 2.822 9.734 3.63 14.92-0.5183 3.283-0.8065 6.738-4.318 8.467-2.189 1.152-4.378 3.11-7.084 1.786-2.362-0.864-2.246-3.86-2.65-6.22 0.8065-4.897-0.4032-11.52 2.189-16.24 1.843-2.707 3.57-5.07 5.07-7.776 2.362 0.2875 2.131 3.341 3.168 5.07"/>
    <path d="m42.04 51.74c3.514 5.818 4.953 13.77 1.613 20.28-2.477 1.152-6.047 2.822-8.753 0.9215-2.822-4.205-1.037-9.617-1.555-14.98-0.115-3.514 2.995-5.701 2.477-9.332 0.4033-0.8065 1.152-0.634 1.958-0.634 0.5183 1.901 2.707 2.707 4.262 3.743"/>
    <path d="m98.6 49.38c-1.728 8.065 3.225 17.05-0.6911 25-0.2304 1.958-1.786 2.592-3.514 3.11-5.588 0.634-5.818-6.107-9.617-8.065-2.189-6.393 3.916-9.215 4.724-14.69 1.267-1.786 2.995-2.361 4.897-2.477 1.037-1.152 1.958-6.107 4.205-2.88"/>
    <path d="m75.67 67.26c3.687 3.398 10.14 2.88 11.58 8.697 1.325 5.991 1.209 13.82-4.664 18.08-1.958 1.958-5.183 2.246-7.832 1.843-7.257-3.916 1.613-11.35-3.743-16.13-1.152-1.67-4.378-4.262-6.22-3.11l-0.2304 0.23c2.189 1.728 3.225 4.837 1.786 7.141-3.514 3.514-7.546 7.659-12.73 9.734-3.398 0-6.393-0.979-9.099-2.822-2.073-3.743-5.07-7.546-3.341-12.5 5.934-8.926 15.44-11.81 24.02-17.8 4.378-0.23 8.411 2.361 10.48 6.622"/>
  </g>
</svg>
