<svg version="1.1" id="Layer_1"
  xmlns="http://www.w3.org/2000/svg"
  xmlns:xlink="http://www.w3.org/1999/xlink" x="0px" y="0px" width="100%" viewBox="0 0 200 201" enable-background="new 0 0 200 201" xml:space="preserve">
  <path fill="#060606" opacity="1.000000" stroke="none" d="M1.000000,105.000000 C1.000000,100.975456 1.000000,96.950912 1.356548,92.372635 C7.550833,81.698547 13.626970,71.705788 19.137407,61.410248 C22.473598,55.177006 25.336115,48.834641 33.006413,46.490597 C34.314941,45.891094 35.321140,45.178860 36.669167,44.355766 C40.931488,42.368149 44.851978,40.491386 49.077789,38.707390 C49.992989,38.285370 50.602867,37.770584 51.558300,37.186043 C53.165314,36.514946 54.426773,35.913609 56.009033,35.424408 C57.678055,34.891453 59.026276,34.246357 60.725815,33.535843 C61.997822,33.234386 62.918507,32.998348 64.155640,32.859909 C64.976990,32.572666 65.481873,32.187820 66.326599,31.746632 C67.342308,31.558210 68.018181,31.426130 69.011795,31.446194 C70.551514,31.042826 71.773499,30.487314 73.419357,29.896433 C75.810448,29.751028 77.777649,29.640991 80.053238,29.628708 C80.969177,29.221331 81.576744,28.716204 82.458138,28.134752 C83.091331,27.938215 83.450691,27.818001 84.249573,27.807117 C85.877396,27.797411 87.065712,27.678373 88.625793,27.638130 C90.248901,27.914612 91.500237,28.112303 92.871544,28.640141 C94.087173,29.140146 95.182838,29.310001 96.634727,29.552450 C97.942886,29.806528 98.894821,29.988012 99.923111,30.486961 C100.773270,30.982590 101.547066,31.160751 102.598053,31.424635 C103.253777,31.589611 103.632309,31.668863 104.176849,32.030529 C104.930183,32.495499 105.517525,32.678059 106.409134,32.987923 C107.354385,33.270203 107.995369,33.425175 108.783539,33.887886 C111.371361,34.998264 113.811996,35.800896 116.477905,36.764275 C117.035744,37.082619 117.368317,37.240215 117.774902,37.717712 C119.247520,39.008442 120.646126,39.979271 122.022827,40.974396 C122.000916,40.998688 122.050217,40.955814 122.039032,41.280624 C122.673538,42.082687 123.319229,42.559940 124.083092,43.246948 C124.339478,43.751873 124.529976,44.008175 124.746597,44.563732 C125.508034,45.904919 126.295639,46.907982 127.237930,48.149292 C127.613113,48.910793 127.833611,49.434052 127.980865,50.265182 C128.452576,51.158112 128.997513,51.743156 129.622070,52.596657 C129.851303,53.206394 130.000931,53.547680 130.092422,54.188435 C130.530106,55.102211 131.025940,55.716515 131.645645,56.664452 C133.616791,60.599808 135.464035,64.201546 137.231628,68.168953 C140.147385,76.686523 143.142807,84.838417 146.188507,93.383156 C146.372421,95.084923 146.506058,96.393837 146.436584,98.146080 C146.362457,101.163544 146.491440,103.737686 146.512146,106.670319 C146.304596,108.020508 146.205338,109.012215 145.853333,110.262566 C145.206497,112.432182 144.812424,114.343163 144.280609,116.509796 C143.801208,117.229424 143.459534,117.693398 142.731140,118.080040 C140.585953,117.319092 138.627029,116.925453 137.117279,115.881950 C135.003876,114.421204 133.225159,112.476234 131.141296,110.518066 C130.597000,109.908089 130.214676,109.518456 129.835846,108.805428 C129.178085,108.051514 128.516815,107.621010 127.716995,107.055191 C127.578438,106.919868 127.262436,106.695839 127.252228,106.352127 C125.775826,105.076141 124.309624,104.143867 122.621140,103.002213 C121.722160,102.348373 121.045471,101.903915 120.271835,101.151398 C118.746613,100.018349 117.318336,99.193359 115.890060,98.368370 C115.566582,98.658218 115.243103,98.948067 114.919624,99.237915 C115.855759,100.902313 116.791893,102.566719 117.869339,104.478355 C118.213005,105.046890 118.415352,105.368179 118.514534,106.032280 C119.523003,108.324463 120.634644,110.273842 121.876099,112.472260 C122.172012,113.056900 122.338112,113.392502 122.391853,114.031708 C122.754425,114.969864 123.229347,115.604416 123.770119,116.561539 C124.005928,117.519943 124.175873,118.155785 124.211990,119.182106 C126.998093,126.764969 129.918030,133.957352 132.915771,141.333755 C132.993591,141.517776 133.207535,141.855286 133.140839,142.195953 C133.656036,143.412048 134.237915,144.287491 134.889389,145.350937 C134.959000,145.538940 135.148270,145.892426 135.044510,146.248566 C135.502029,147.834183 136.063309,149.063644 136.713333,150.555695 C136.952347,151.155823 137.102615,151.493378 137.146454,152.167511 C137.681259,153.348602 138.322525,154.193115 139.132050,155.303833 C140.269714,156.662140 141.239105,157.754196 142.180557,159.192047 C143.157425,160.716919 144.162231,161.896042 145.849731,163.876266 C148.195587,160.473251 150.088211,157.727737 151.990417,154.991119 C152.000000,155.000000 151.982300,154.980759 152.331146,154.979584 C155.303284,150.227356 157.926590,145.476303 160.737457,140.336884 C161.022934,139.460114 161.156906,138.975830 161.213623,138.482681 C163.090408,122.158783 161.072159,105.964554 159.158203,89.825226 C157.919830,79.382637 155.462051,69.620819 149.543350,60.027122 C140.096207,44.714127 126.110184,35.543262 112.013161,25.545982 C111.191628,24.936089 110.464111,24.636608 109.398758,24.228210 C106.480591,22.849165 103.900261,21.579037 101.223824,20.054813 C100.084984,19.469664 99.042244,19.138613 97.711243,18.755892 C97.038818,18.634697 96.654648,18.565172 96.106628,18.200264 C94.902138,17.673464 93.861488,17.442045 92.428772,17.135475 C90.456627,16.853146 88.876541,16.645967 87.104622,16.108480 C84.509476,15.652193 82.106171,15.526213 79.257378,15.342577 C73.294868,15.308347 67.777840,15.331770 61.903305,15.183229 C59.943508,15.522077 58.341228,16.032887 56.449162,16.603115 C55.771770,16.735275 55.384163,16.808014 54.749561,16.687721 C52.565926,17.132139 50.629292,17.769587 48.361153,18.493008 C47.352013,18.676537 46.674370,18.774090 45.794888,18.683121 C44.291737,19.113895 42.990425,19.733194 41.353447,20.420258 C40.343494,20.607983 39.669209,20.727943 38.784626,20.651209 C37.383343,21.024689 36.192356,21.594862 34.638252,22.217791 C33.304047,22.385130 32.332958,22.499716 30.980316,22.443718 C29.771681,22.152245 28.944597,22.031357 28.144958,21.570614 C32.407120,18.384357 36.641838,15.537955 41.238350,12.706032 C46.169128,10.561529 50.738113,8.402547 55.577362,6.163414 C56.179863,5.908105 56.512104,5.732948 57.193863,5.680623 C58.839989,5.334737 60.136593,4.866019 61.806656,4.363136 C63.402355,4.071780 64.624596,3.814590 66.209335,3.695311 C68.176781,3.336862 69.781738,2.840503 71.724480,2.334180 C72.708183,1.882812 73.354088,1.441406 74.000000,1.000001 C77.692909,1.000000 81.385818,1.000000 85.560768,1.353204 C86.685593,1.826860 87.328377,1.947312 88.314758,2.181833 C89.615456,2.340657 90.572563,2.385412 91.783615,2.724792 C96.729538,3.220958 101.421524,3.422498 106.551117,3.723392 C109.995857,3.862756 113.002975,3.902765 116.311890,4.130944 C118.397560,5.467058 120.507622,6.319603 121.882599,7.837866 C123.593834,9.727417 124.050110,9.712631 124.182289,7.147832 C124.197891,7.114047 124.217499,7.185843 124.522560,7.054365 C125.164993,6.377117 125.502365,5.831346 126.290634,5.309222 C128.832932,5.515245 130.924332,5.697620 133.278061,6.125714 C137.152328,8.321463 140.745010,10.308727 144.391296,12.192266 C145.185959,12.602760 146.172241,12.642310 147.238983,12.964979 C147.407715,13.077252 147.806747,13.148360 147.888840,13.470501 C149.858994,15.334874 151.747055,16.877108 153.798859,18.682541 C154.986099,19.956755 156.009583,20.967772 157.053284,22.314533 C158.384216,23.764446 159.694946,24.878614 161.002838,25.996429 C161.000000,26.000076 161.007324,25.994064 161.056244,26.326710 C166.758850,31.397003 172.412521,36.134651 178.227066,41.086697 C178.800186,41.638767 179.212448,41.976433 179.684158,42.648666 C182.057755,45.109978 184.371887,47.236717 186.778809,49.676582 C187.600540,51.316635 188.329514,52.643566 188.988297,54.288277 C189.450211,55.231190 189.982285,55.856319 190.549896,56.797630 C190.793701,57.710949 191.001984,58.308090 191.172424,59.270100 C193.437469,65.087654 195.740356,70.540337 198.029266,76.382431 C198.122879,77.803391 198.230499,78.834923 198.206329,80.263336 C198.578827,82.892708 199.083145,85.125221 199.569183,87.744370 C200.033936,89.420677 200.516968,90.710342 201.000000,92.000000 C201.000000,94.041664 201.000000,96.083336 200.644073,98.778603 C200.214661,102.275696 200.141159,105.119186 200.012177,108.429703 C200.304459,114.264481 200.652222,119.632240 201.000000,125.000000 C201.000000,126.388893 201.000000,127.777779 200.646286,129.631195 C199.419403,131.673645 198.546219,133.251541 197.340378,134.881500 C194.091705,139.696640 191.175705,144.459747 188.184052,149.154846 C188.108414,149.086823 188.227234,149.251984 187.880905,149.270325 C185.949539,151.973068 184.280670,154.611984 182.794388,157.350006 C177.203522,167.649521 173.479401,179.543762 160.319016,183.286896 C159.693741,183.464737 159.110870,183.809174 158.526855,184.111908 C152.592834,187.187851 146.662674,190.271271 140.386932,193.498199 C138.431290,194.304276 136.820175,194.964737 134.859283,195.504486 C131.672882,196.588455 128.836273,197.793121 125.682396,199.009796 C124.955528,199.123459 124.545929,199.225143 123.810493,199.229431 C122.558929,199.667175 121.633186,200.202316 120.392014,200.751984 C119.717720,201.177689 119.358864,201.588852 119.000000,202.000000 C118.555557,202.000000 118.111107,202.000000 117.193535,201.593964 C114.130249,201.161682 111.540092,201.135422 108.571426,201.045746 C107.128609,201.321564 106.064308,201.660782 105.000000,202.000000 C103.933327,202.000000 102.866661,202.000000 101.414078,201.647064 C100.165726,201.043900 99.303291,200.793640 98.241135,200.228165 C96.306641,199.741852 94.571877,199.570755 92.459488,199.315460 C91.053261,199.165588 90.024673,199.099899 88.703079,198.820541 C86.215782,198.217270 84.021492,197.827667 81.410858,197.337677 C78.992714,197.188400 76.990913,197.139465 74.685257,196.863083 C71.180237,196.310577 67.979080,195.985519 64.385872,195.568176 C62.651772,195.409927 61.309719,195.343979 59.801643,194.976562 C58.772106,193.759430 57.908588,192.843781 56.697433,191.875244 C54.750114,192.197983 52.527328,193.434082 51.656349,192.803391 C47.411217,189.729385 43.446484,186.246735 39.533524,182.740189 C32.633091,176.556488 25.842228,170.250504 18.956398,163.682922 C18.236887,162.968918 17.566477,162.567719 16.687933,161.924255 C15.309110,160.461884 14.138420,159.241760 13.010968,157.710648 C12.490462,156.822067 11.926720,156.244461 11.309868,155.394394 C11.110875,154.783264 10.964992,154.444611 10.860504,153.747772 C9.891897,151.598206 8.881895,149.806808 7.820685,147.706207 C7.445843,146.637390 7.122210,145.877762 6.843939,144.764038 C6.038118,142.833755 5.186934,141.257568 4.267958,139.413086 C4.041643,138.812698 3.883121,138.480576 3.786763,137.721100 C3.376476,134.738876 2.904026,132.184021 2.425857,129.224823 C1.946758,126.880333 1.473379,124.940163 1.000000,123.000000 C1.000000,120.958336 1.000000,118.916664 1.398054,116.322227 C1.844855,113.851120 1.893602,111.932785 2.027147,109.625824 C1.741297,107.824806 1.370648,106.412399 1.000000,105.000000  M89.997780,122.445595 C87.179878,111.392387 84.458000,100.312698 81.426453,89.318405 C81.033241,87.892380 79.230415,86.493111 77.745575,85.816093 C75.596161,84.836075 73.141075,84.526466 69.856567,83.684959 C69.111626,84.949608 68.271660,88.525581 66.244827,89.424011 C59.443352,92.438873 61.939957,96.637047 63.809364,101.059113 C64.581421,102.885422 65.162094,104.794548 65.969711,106.603561 C69.552055,114.627754 73.448212,122.523010 76.737503,130.664246 C81.522980,142.508621 85.841972,154.540817 90.471878,166.449387 C91.176796,168.262482 92.361885,169.932648 93.537392,171.510620 C96.709366,175.768600 100.124275,179.850281 103.192276,184.179443 C105.248634,187.081070 107.563950,187.948502 110.305374,186.738113 C103.589729,165.402069 96.945625,144.293304 89.997780,122.445595  M117.698105,165.870163 C119.200172,168.826996 120.607994,171.837067 122.236961,174.722244 C123.349884,176.693420 123.719437,180.042297 127.356155,178.595551 C131.904785,176.786011 133.857025,173.108322 132.459320,169.524948 C129.143936,161.025040 125.509880,152.628036 122.653893,143.975143 C117.870171,129.481735 113.561760,114.830658 109.114174,100.227402 C106.748772,92.460808 96.980286,87.235886 88.024788,89.326973 C88.749702,91.513123 89.289238,93.758331 90.218040,95.828918 C93.402641,102.928352 97.156548,109.802719 99.904243,117.061623 C105.947845,133.027725 111.509361,149.176285 117.698105,165.870163  M74.220894,154.220642 C68.433517,135.606430 62.646133,116.992210 56.649891,97.706207 C53.460396,103.237495 50.654690,108.634766 47.337868,113.697174 C44.365314,118.234123 45.416870,122.160728 47.379997,126.718231 C52.274872,138.081955 56.153107,149.907028 61.466846,161.057266 C64.232185,166.860016 68.759109,172.026352 73.289001,176.707214 C75.911964,179.417587 80.121574,180.592499 84.413826,182.883698 C80.771019,172.691391 77.605209,163.833679 74.220894,154.220642  M37.644188,138.667603 C41.274513,144.620773 44.904835,150.573944 49.058102,157.384644 C50.517437,151.395676 44.055710,131.556412 39.433716,127.614159 C38.694500,131.462784 38.075539,134.685333 37.644188,138.667603z"/>
  <path fill="#3D3D3D" opacity="1.000000" stroke="none" d="M201.000000,124.532394 C200.652222,119.632240 200.304459,114.264481 200.245117,108.438675 C200.533539,107.980621 201.000000,108.000000 201.000000,108.000000 C201.000000,113.354927 201.000000,118.709862 201.000000,124.532394z"/>
  <path fill="#DFDFDF" opacity="1.000000" stroke="none" d="M199.569183,87.744370 C199.844330,85.736496 200.101227,84.115257 200.679047,82.247009 C201.000000,85.030594 201.000000,88.061188 201.000000,91.545891 C200.516968,90.710342 200.033936,89.420677 199.569183,87.744370z"/>
  <path fill="#5A5A5A" opacity="1.000000" stroke="none" d="M201.000000,107.550018 C201.000000,108.000000 200.533539,107.980621 200.300598,107.971649 C200.141159,105.119186 200.214661,102.275696 200.644073,99.216103 C201.000000,101.700012 201.000000,104.400032 201.000000,107.550018z"/>
  <path fill="#505050" opacity="1.000000" stroke="none" d="M108.949936,201.109161 C111.540092,201.135422 114.130249,201.161682 116.860199,201.593964 C114.629440,202.000000 112.258888,202.000000 109.429199,201.777435 C108.970070,201.554855 108.949936,201.109161 108.949936,201.109161z"/>
  <path fill="#757575" opacity="1.000000" stroke="none" d="M2.027147,109.625824 C1.942348,110.014450 1.471087,110.012909 1.235543,110.006454 C1.000000,108.611107 1.000000,107.222221 1.000000,105.416664 C1.370648,106.412399 1.741297,107.824806 2.027147,109.625824z"/>
  <path fill="#717171" opacity="1.000000" stroke="none" d="M108.571426,201.045746 C108.949936,201.109161 108.970070,201.554855 108.985031,201.777435 C107.933296,202.000000 106.866600,202.000000 105.399948,202.000000 C106.064308,201.660782 107.128609,201.321564 108.571426,201.045746z"/>
  <path fill="#9B9B9B" opacity="1.000000" stroke="none" d="M188.988297,54.288280 C189.620392,54.588909 190.182312,55.207325 190.629303,56.153595 C189.982285,55.856319 189.450211,55.231190 188.988297,54.288280z"/>
</svg>
