<svg width="499.994" height="499.994" viewBox="0 0 132.29 132.29" xmlns="http://www.w3.org/2000/svg"><defs><clipPath id="a"><path d="M65 498h19v19H65z"/></clipPath><clipPath id="b"><path d="m65.195 507.23 8.953 8.95 8.945-8.946-8.953-8.95z"/></clipPath></defs><g clip-path="url(#a)" transform="matrix(7.3929 0 0 7.3945 -481.98 -3684.6)"><g clip-path="url(#b)"><path d="M74.957 507.25c.02.176.105.383.262.625.18.21.324.336.433.387.215.133.383.199.504.199h5.297l.11-.05v-2.099l-.11-.171h-5.55c-.071.027-.227.136-.462.324a1.46 1.46 0 0 0-.484.785m-4.078 1.918c-.082.062-.121.105-.121.14-.028.29-.043.508-.04.657-.003.633.16 1.035.485 1.21a.758.758 0 0 0 .352.102h5.539c.164-.047.32-.144.472-.293.176-.222.266-.53.266-.925v-.176c0-.235-.059-.473-.172-.715zm.484-5.973c-.183.047-.355.16-.523.344-.145.215-.215.504-.215.867 0 .356.063.656.184.899h6.777c.098-.317.144-.594.144-.829 0-.71-.222-1.128-.668-1.253l-.18-.028zm-4.53 2.946-.11.12v2.09l.11.11h5.57c.109 0 .3-.121.574-.363.21-.254.328-.497.355-.727-.035-.215-.172-.461-.406-.734a2.683 2.683 0 0 0-.715-.496zm7.315-7.852 8.942 8.941-8.942 8.953-8.953-8.953z" style="fill:#780f17"/></g></g></svg>