<svg width="500" height="500" version="1.1" viewBox="0 0 132.3 132.3" xmlns="http://www.w3.org/2000/svg">
  <g fill="#750019" stroke-width=".3528">
    <path d="m66.08-0.01664-66.08 66.19 66.08 66.11 66.19-66.11zm-46.92 67.28c51.16-62.62 91.66 0.4572 91.66 0.4572s-41.77 63.61-91.66-0.4572"/>
    <path d="m68.77 87.02c6.629 0 12.8-2.572 17.49-7.257 4.685-4.685 7.257-10.86 7.257-17.49s-2.572-12.86-7.257-17.54c-4.685-4.629-10.86-7.257-17.49-7.257-13.66 0-24.8 11.14-24.8 24.8 0 6.629 2.572 12.8 7.257 17.49 4.685 4.685 10.92 7.257 17.54 7.257m-20.58-24.75c0-5.486 2.172-10.69 6.001-14.51 3.888-3.888 9.088-6.058 14.57-6.058s10.63 2.171 14.51 6.058c3.888 3.828 6.058 9.028 6.058 14.51 0 11.31-9.257 20.58-20.58 20.58-5.486 0-10.69-2.172-14.57-6.058-3.828-3.888-6.001-9.028-6.001-14.51"/>
    <path d="m57.4 62.57c0-3.257 1.257-6.287 3.542-8.573 2.286-2.286 5.313-3.542 8.573-3.542 3.257 0 6.287 1.257 8.573 3.542 2.286 2.286 3.542 5.313 3.542 8.573 0 6.686-5.43 12.12-12.12 12.12-3.257 0-6.287-1.257-8.573-3.542-2.286-2.286-3.542-5.313-3.542-8.573"/>
  </g>
  <path d="m48.6 54.39c0-6.058 5.027-10.97 11.26-10.97 6.17 0 11.26 4.915 11.26 10.97 0 6.001-5.087 10.92-11.26 10.92-6.23 0-11.26-4.915-11.26-10.92" fill="#fff" stroke-width=".3528"/>
</svg>
