<svg width="500" height="500" version="1.1" viewBox="0 0 132.3 132.3" xmlns="http://www.w3.org/2000/svg">
  <g transform="matrix(.3528 0 0 .3528 77.43 149.5)">
    <g fill="#750019">
      <path d="m-32.16-423.8-187.3 187.6 187.3 187.4 187.6-187.4zm-133 190.7c145-177.5 259.8 1.296 259.8 1.296s-118.4 180.3-259.8-1.296"/>
      <path d="m-24.54-177.1c18.79 0 36.29-7.289 49.57-20.57 13.28-13.28 20.57-30.78 20.57-49.57 0-18.79-7.289-36.45-20.57-49.73-13.28-13.12-30.78-20.57-49.57-20.57-38.71 0-70.3 31.59-70.3 70.3 0 18.79 7.289 36.29 20.57 49.57 13.28 13.28 30.94 20.57 49.73 20.57m-58.32-70.14c0-15.55 6.156-30.29 17.01-41.14 11.02-11.02 25.76-17.17 41.31-17.17 15.55 0 30.13 6.155 41.14 17.17 11.02 10.85 17.17 25.59 17.17 41.14 0 32.07-26.24 58.32-58.32 58.32-15.55 0-30.29-6.156-41.31-17.17-10.85-11.02-17.01-25.59-17.01-41.14"/>
      <path d="m-56.78-246.4c0-9.233 3.564-17.82 10.04-24.3 6.479-6.479 15.06-10.04 24.3-10.04 9.233 0 17.82 3.564 24.3 10.04 6.479 6.479 10.04 15.06 10.04 24.3 0 18.95-15.39 34.34-34.34 34.34-9.233 0-17.82-3.564-24.3-10.04-6.479-6.479-10.04-15.06-10.04-24.3"/>
    </g>
    <path d="m-81.73-269.6c0-17.17 14.25-31.1 31.91-31.1 17.49 0 31.91 13.93 31.91 31.1 0 17.01-14.42 30.94-31.91 30.94-17.66 0-31.91-13.93-31.91-30.94" fill="#fff"/>
  </g>
</svg>
