<svg width="499.994" height="499.994" viewBox="0 0 132.29 132.29" xmlns="http://www.w3.org/2000/svg"><defs><clipPath id="a"><path d="M65 445h19v18H65z"/></clipPath><clipPath id="b"><path d="m74.148 445.06-8.945 8.945 8.945 8.946 8.945-8.946z"/></clipPath><clipPath id="c"><path d="M73 451h4v5h-4z"/></clipPath><clipPath id="d"><path d="m74.148 445.06-8.945 8.945 8.945 8.946 8.945-8.946z"/></clipPath></defs><g clip-path="url(#a)" transform="matrix(7.3961 0 0 7.3945 -482.28 -3291)"><g clip-path="url(#b)"><path d="M67.801 454.15c1.84-2.25 3.566-3.277 5.125-3.61a3.35 3.35 0 0 0-1.77 2.942c0 .89.348 1.73.981 2.363a3.33 3.33 0 0 0 2.371.985c.89 0 1.73-.352 2.363-.985a3.292 3.292 0 0 0 .98-2.367c0-.851-.32-1.648-.898-2.27 2.012 1.118 3.239 3.004 3.239 3.004s-5.64 8.606-12.391-.062m6.707-3.45a2.737 2.737 0 0 1 1.964.813 2.78 2.78 0 0 1-3.934 3.934 2.779 2.779 0 0 1-.812-1.969c0-.234.079-.457.133-.68-.035-.124-.078-.25-.078-.386 0-.82.68-1.48 1.52-1.48.027 0 .054.015.086.015.347-.156.722-.25 1.12-.246m-.359-5.645-8.941 8.946 8.941 8.945 8.946-8.945z" style="fill:#780f17"/></g></g><g clip-path="url(#c)" transform="matrix(7.3961 0 0 7.3945 -482.28 -3291)"><g clip-path="url(#d)"><path d="M74.609 455.16c.906 0 1.637-.734 1.637-1.64 0-.438-.172-.848-.477-1.157a1.64 1.64 0 0 0-1.05-.46c.058.16.105.327.105.507 0 .82-.684 1.484-1.527 1.484-.09 0-.176-.035-.262-.054.062.312.187.61.414.836.308.312.719.484 1.16.484" style="fill:#780f17"/></g></g></svg>