<svg width="500" height="500" version="1.1" viewBox="0 0 132.3 132.3" xmlns="http://www.w3.org/2000/svg">
  <g transform="matrix(.3528 0 0 .3528 77.43 149.5)">
    <g transform="matrix(1.199 0 0 1.199 6.734 47.25)">
      <path d="m-188.6-236.4 156.3 156.3 156.3-156.3-156.3-156.3z" fill="#700c1c"/>
      <path d="m-32.31-105.2 131.2-131.2-131.2-131.2-131.2 131.2z" fill="#fff"/>
      <path d="m-32.37-119.5 117-117-117-117-117 117z" fill="#700c1c"/>
      <path d="m-112.5-236.6c0-44.38 36-80.37 80.37-80.37 44.41 0 80.41 36 80.41 80.37 0 44.41-36 80.41-80.41 80.41-44.38 0-80.37-36-80.37-80.41" fill="#fff"/>
      <path d="m-23.15-247.3-9.279-38.05-25.6 39.01 15.39 15.76zm-9.837 26.56 21.79 22.34-8.286-33.92zm-32.65-14-30.54 46.52 43.26-33.58zm-41.86-42.55 9.837-9.682 29.79 30.54 40.9-62.41 15.39 61.6 39.91-34.17 8.968 10.46-45.15 38.64 19.18 76.65-5.741 3.289-48.81-49.59-42.55 36.46-21.41-20.92 31.68-48.35-33.17-33.7" fill="#700c1c"/>
    </g>
  </g>
</svg>
