<svg version="1.1" id="Layer_1" xmlns="http://www.w3.org/2000/svg"
  xmlns:xlink="http://www.w3.org/1999/xlink" x="0px" y="0px" width="100%" viewBox="0 0 600 628"
  enable-background="new 0 0 600 628" xml:space="preserve">
<path fill="#000000" opacity="1.000000" stroke="none" d="M231.625000,1.000000 C232.107788,1.869871 232.215561,2.739743 232.287231,4.113228 C232.153275,5.744071 232.055435,6.871302 231.639618,8.274045 C230.926102,18.929375 230.370224,29.307039 230.230835,39.690292 C230.187943,42.886169 231.282776,46.097321 231.856659,49.301479 C232.040268,51.258213 232.223892,53.214943 232.287872,55.788574 C232.221161,57.608849 232.274078,58.812225 232.047958,60.146393 C231.703705,61.080360 231.638474,61.883541 231.384216,63.136974 C231.946030,69.230057 232.510895,74.905251 233.485947,80.509071 C235.586655,92.582222 231.165283,103.067131 225.774292,113.326645 C225.392670,114.052902 224.167206,114.505760 223.245544,114.746254 C220.522705,115.456734 217.729416,116.602692 215.010529,116.486061 C207.810837,116.177216 200.419266,114.700432 200.831970,105.780159 C200.896255,104.390625 200.372681,102.705658 199.539642,101.592270 C196.854553,98.003647 197.661957,95.080269 200.877975,92.547066 C208.246506,86.743011 211.460587,78.066597 215.927292,70.335907 C217.106750,68.294579 215.737137,64.780434 215.665253,61.676765 C215.935257,61.046669 216.078018,60.682392 216.514175,60.233627 C217.825043,57.924580 219.368469,55.783001 219.735657,53.455837 C220.274551,50.040325 219.972382,46.492107 220.022034,42.663528 C220.098785,41.886246 220.182083,41.445866 220.598145,40.941605 C221.942459,38.865326 223.410934,36.944664 223.838501,34.815018 C224.275574,32.638012 223.691574,30.256006 223.638580,27.650188 C223.652237,26.920103 223.581909,26.503571 223.858246,26.217159 C224.759445,25.604496 225.690216,24.917562 225.810059,24.110256 C226.951828,16.418486 227.956177,8.706312 229.000000,1.000001 C229.750000,1.000000 230.500000,1.000000 231.625000,1.000000z"/>
<path fill="#000000" opacity="1.000000" stroke="none" d="M253.873428,488.496918 C253.734680,488.365540 253.595917,488.234131 253.335815,487.831726 C253.178589,487.361145 253.142700,487.161621 253.383179,486.691864 C253.552109,484.155090 253.859467,481.759491 253.207321,479.662292 C252.675613,477.952393 251.266769,475.748688 249.767609,475.272430 C247.001938,474.393829 244.624786,475.731750 243.614624,479.037170 C242.074677,479.490356 240.899872,479.892853 239.511627,480.126465 C238.804184,479.728180 238.310165,479.498779 237.842041,478.889832 C236.484726,474.153809 233.506714,471.677399 228.876282,470.853210 C228.745041,470.712189 228.522720,470.397522 228.640717,470.034912 C228.723328,469.178833 228.887466,468.482941 228.622787,468.222015 C224.320404,463.980103 220.174057,459.542664 215.557419,455.667725 C211.320206,452.111298 206.562714,449.174774 201.969406,445.626221 C201.205780,444.388153 200.654221,443.302155 199.785812,442.618744 C191.316299,435.953613 183.021423,429.034302 174.233810,422.813141 C160.659897,413.203552 154.736954,398.957855 150.052460,384.033417 C147.669235,376.440674 146.521683,368.460327 144.804337,360.657654 C144.698624,360.177368 144.472137,359.725006 144.339279,359.249207 C142.160110,351.445312 140.131821,343.595337 137.755844,335.851990 C136.420807,331.501190 138.826218,325.847961 133.320618,322.490082 C133.170151,320.721436 133.077164,319.358124 133.186020,317.784729 C133.207108,316.735107 133.026367,315.895569 132.879944,314.652588 C132.817032,313.178314 132.719818,312.107513 132.722641,310.601135 C132.564972,306.213898 132.100418,302.262238 132.099731,298.310486 C132.098785,292.863983 132.448166,287.417419 132.722641,281.546143 C132.811600,279.396057 132.825394,277.670685 133.107727,275.656128 C133.279099,272.243225 133.181915,269.119537 133.124573,265.662292 C133.231812,264.664124 133.299225,263.999481 133.680847,263.169922 C134.966248,259.648224 135.937439,256.291443 137.283844,252.845123 C139.422272,252.408478 141.185486,252.061386 143.129333,251.991379 C144.159836,251.411346 145.891678,250.184799 145.713104,249.758514 C144.728409,247.407730 143.277313,245.252335 141.957687,242.626221 C142.597885,240.276230 142.918060,238.107651 143.993927,236.421112 C149.432907,227.894867 155.160751,219.552948 160.603882,211.029266 C164.484314,204.952667 168.179108,198.750793 171.768555,192.496826 C176.549393,184.167053 180.979584,175.632645 185.883713,167.378220 C189.101364,161.962418 192.713715,156.753983 196.487625,151.705582 C198.889359,148.492767 203.611847,146.094162 204.309235,142.714615 C205.887848,135.064545 211.613022,132.501068 217.194443,129.766464 C224.350845,126.260178 231.947052,123.663353 239.251724,120.443222 C243.387802,118.619919 247.228195,116.124443 251.368073,114.311493 C255.855957,112.346146 260.512756,110.752914 265.140656,109.124725 C270.038696,107.401512 275.068024,106.029701 279.900146,104.145706 C288.830902,100.663673 297.688263,96.987816 306.519257,93.257881 C311.268402,91.251999 315.831116,88.798660 320.603149,86.854584 C325.259888,84.957474 329.966339,82.587234 334.846802,81.967850 C343.062500,80.925179 351.447205,81.292709 359.731720,80.675934 C363.109894,80.424431 366.388916,78.626541 369.754791,78.477905 C373.892487,78.295174 378.083496,79.020683 382.231323,79.520760 C383.814789,79.711670 385.338287,80.733276 386.896210,80.750969 C402.554260,80.928802 418.276154,80.134201 433.450958,85.412308 C437.858521,86.945335 442.498260,87.810822 447.208008,89.214325 C447.677246,89.507568 447.970093,89.568810 448.262909,89.630051 C446.428650,90.417595 444.594391,91.205132 442.128052,91.593094 C440.233490,91.273872 438.970947,91.354225 437.508179,91.441185 C437.307922,91.447792 436.909180,91.498878 436.709473,91.175781 C434.680298,91.155807 432.850769,91.458931 430.607727,91.724281 C427.527130,91.894127 424.860077,92.101746 421.782654,92.121124 C419.602051,91.884354 417.831818,91.835831 415.706848,91.572784 C407.700806,91.317528 400.042053,91.074043 392.402435,91.353134 C389.943451,91.442963 386.329163,91.192207 386.330658,95.495255 C385.351776,95.628082 384.372925,95.760910 382.683685,95.555038 C379.783661,95.411339 377.594025,95.606339 375.135620,95.946732 C373.591888,96.241798 372.316925,96.391464 370.974762,96.235283 C367.180511,94.927559 366.546570,95.278107 365.425903,99.015564 C365.036438,99.299461 364.964417,99.516632 364.703064,99.758003 C363.579102,99.752754 362.829376,99.784805 362.062988,99.535057 C361.412109,99.573387 360.777893,99.893501 359.984863,100.349197 C359.551392,100.624138 359.407013,100.847595 359.109344,100.931564 C358.592468,100.649094 358.359100,100.590225 358.039459,100.224022 C357.197998,99.752213 355.943268,99.227821 355.763245,99.477707 C353.391266,102.769920 349.800842,102.360046 346.447968,102.870224 C343.900665,103.257805 340.453918,102.705154 340.348114,107.095741 C339.459320,107.290955 338.742676,107.382164 337.852600,107.186371 C334.965271,106.912430 331.926514,106.216888 330.680542,110.158432 C329.628174,110.507713 328.832275,110.689270 327.764221,110.710587 C324.903137,111.961060 322.314148,113.371773 319.409912,114.834328 C318.075378,115.217506 317.056091,115.548843 315.816589,115.707481 C314.372437,116.607330 313.148529,117.679886 311.555359,118.811501 C310.471558,119.088699 309.756989,119.306839 308.711639,119.473801 C307.606842,120.636520 306.832794,121.850418 305.768921,123.224983 C304.686005,123.776779 303.892944,124.167915 302.986877,124.245232 C301.688477,125.047699 300.503052,126.163994 299.104584,127.393578 C298.891571,127.506866 298.456604,127.715752 298.103271,127.536079 C296.860992,128.248413 295.972076,129.140427 294.759674,130.179962 C293.051086,131.172806 291.542419,131.868179 290.302673,132.889893 C285.424805,136.909836 281.883148,142.783600 274.719879,143.625870 C273.801544,143.733826 272.899567,145.386124 272.295074,146.490067 C270.603180,149.579758 269.412384,153.000198 267.389801,155.838242 C264.854309,159.395996 261.444641,162.323822 258.839081,165.839798 C250.416016,177.205963 242.021667,188.601242 233.956299,200.221313 C229.953781,205.987930 225.876709,211.947098 223.322952,218.407928 C220.642242,225.190002 219.777222,232.684631 218.039566,239.848648 C217.660538,241.411224 216.790695,242.854858 216.412750,244.417587 C214.811386,251.038818 209.949295,256.852905 211.408722,264.530945 C211.300415,265.200134 211.262085,265.586578 210.947723,266.113342 C210.417664,266.806915 210.163666,267.360229 209.541779,267.993744 C208.557114,270.441833 207.940292,272.809723 207.282379,275.578918 C207.232849,277.324585 207.224442,278.668915 206.928833,280.250244 C206.790802,282.330505 206.939987,284.173828 207.067993,286.471741 C207.185303,289.369965 207.323776,291.813568 207.434784,294.559509 C207.724304,295.245361 208.041306,295.628845 208.358307,296.012329 C208.130020,298.085999 207.901733,300.159637 207.110641,302.615753 C205.831131,303.851257 204.551544,304.664246 204.487457,305.563812 C204.009918,312.266693 203.617035,318.986053 203.588654,325.701935 C203.582764,327.097717 205.207550,328.500397 206.309021,330.030457 C206.868729,330.172638 207.200211,330.184296 207.531708,330.195984 C207.775024,331.966003 208.018341,333.735992 208.254089,336.059875 C208.279602,337.051636 208.312698,337.489532 208.078079,338.166931 C207.736206,339.586548 207.662064,340.766632 207.373688,342.295105 C207.164627,347.962982 205.576859,353.613312 210.270981,358.334747 C211.183228,361.788971 212.161850,364.853699 213.089294,368.304199 C213.933319,371.155243 214.261307,374.077484 215.818069,376.009796 C224.320328,386.563141 232.927795,397.047821 241.920731,407.181946 C245.588226,411.314789 250.426086,414.386993 254.533386,418.157532 C259.078766,422.330139 263.227417,426.947357 267.898163,430.964813 C269.772400,432.576935 272.648224,432.969604 274.945221,434.155426 C282.342133,437.974030 289.659760,441.946136 297.053284,445.771423 C300.504456,447.557037 304.032318,449.202332 307.575073,450.801300 C312.165344,452.872986 316.719818,455.070618 321.446045,456.782318 C326.963257,458.780487 332.861816,459.825928 338.211853,462.162048 C346.188660,465.645203 354.278229,468.409271 362.918152,469.515930 C365.368866,469.829834 367.903656,469.920074 370.237549,470.639587 C381.162720,474.007538 392.362549,474.081757 403.114807,471.236572 C411.358063,469.055267 420.577423,470.663605 427.931000,465.029297 C429.877228,463.538086 431.962738,462.228607 434.260468,460.773193 C434.905823,460.631531 435.274963,460.552368 436.014099,460.658783 C437.906799,460.558350 439.429535,460.272339 441.270508,459.951111 C442.068542,459.299530 442.548370,458.683197 443.297058,457.823883 C445.270386,457.324585 446.974792,457.068237 449.052612,456.866211 C451.080139,456.648010 453.535492,457.080444 452.083740,453.600494 C452.154999,452.930878 452.139069,452.659515 452.123108,452.388184 C452.548187,452.322723 452.973297,452.257263 453.669006,452.739716 C455.401703,458.172943 449.599426,459.158630 448.484558,462.893066 C446.489288,464.022583 444.822845,465.096161 442.752869,466.139648 C441.689423,466.143982 440.939423,465.984222 440.383179,466.242188 C433.621307,469.378113 426.865814,472.530853 420.188263,475.839783 C419.640900,476.111023 419.674469,477.554596 419.158875,478.609619 C418.260986,478.919983 417.642303,479.074188 416.808167,478.947754 C413.710663,478.271423 410.943848,478.042816 411.034149,482.495026 C410.191040,482.812805 409.601990,482.960968 408.795898,482.848450 C405.617523,482.119507 403.421997,482.751038 403.009705,486.476257 C402.182068,486.823517 401.599365,486.989746 400.809998,486.903564 C398.124390,486.864594 395.205505,486.452454 395.066711,490.532196 C394.209717,490.852509 393.611969,491.002930 392.799988,490.899597 C390.029785,491.075134 386.441711,489.769531 386.000122,494.443481 C384.433044,494.725677 383.222290,494.916138 381.730225,494.825867 C378.598938,494.954895 375.748962,495.364655 372.536072,495.824646 C371.441528,495.872650 370.709900,495.870422 369.665955,495.600647 C356.437500,495.378754 343.521423,495.424347 330.222107,495.468414 C328.561859,495.475098 327.284790,495.483307 325.769775,495.129395 C321.017212,494.891418 316.502655,495.015503 311.532684,495.142151 C307.760468,495.001648 304.443604,494.858673 301.025635,494.380737 C297.442596,490.593781 293.404449,490.264069 288.692749,491.924469 C287.952301,491.868408 287.531006,491.811432 286.982727,491.429382 C284.900024,491.113373 282.944275,491.122406 280.534698,491.122864 C278.291138,491.269440 276.501465,491.424591 274.513702,491.473358 C274.315643,491.366974 273.973694,491.075043 273.960999,490.696411 C271.924255,485.780029 268.168518,486.924652 264.330872,487.485016 C263.711395,487.499359 263.357147,487.496368 262.826447,487.160217 C261.095856,486.933929 259.541718,487.040833 257.689575,487.166931 C256.928772,487.466034 256.465912,487.745880 255.622375,487.986603 C254.785629,488.130615 254.329529,488.313782 253.873428,488.496918z"/>
<path fill="#000000" opacity="1.000000" stroke="none" d="M478.114075,570.010254 C478.405304,571.420471 478.696472,572.830627 478.626160,574.820923 C476.353363,574.722473 474.442078,574.043945 472.674927,572.999756 C467.925537,562.744385 463.073975,552.833496 458.114471,542.976990 C456.503113,539.774658 454.378632,536.818970 452.902740,533.562805 C451.019531,529.408020 449.571564,525.057007 447.907867,520.801575 C445.482422,514.597656 443.031921,508.403473 440.720642,501.734985 C440.563232,496.509949 440.277252,491.755005 440.017456,486.598083 C440.430756,483.526550 440.817841,480.857025 441.544281,478.091431 C450.439880,470.577728 458.793488,473.584106 467.116882,478.478119 C472.745239,481.787476 468.888519,487.205139 469.953583,491.535034 C470.369873,493.227386 469.859802,495.147614 469.440613,497.038696 C468.762482,498.750488 468.415375,500.387604 468.055634,502.459045 C467.936920,504.913483 467.830872,506.933624 467.467407,509.016968 C467.171478,509.729767 467.132904,510.379272 467.074036,511.478638 C467.047760,513.898621 466.776764,515.911499 467.085663,517.831055 C468.002869,523.530823 469.148376,529.193909 470.135986,535.269958 C470.696259,537.126648 471.325195,538.584656 471.975555,540.448486 C472.055328,542.207275 472.113617,543.560181 471.873322,545.174927 C471.416412,546.994263 471.258148,548.551880 471.094727,550.514038 C471.255005,551.713867 471.420410,552.509155 471.562927,553.536255 C471.526062,554.079590 471.545593,554.388977 471.430359,555.043518 C471.208496,555.890320 471.155060,556.389893 471.111664,557.229126 C472.044434,558.375977 472.967194,559.183228 473.907715,560.393555 C475.321716,563.867859 476.717896,566.939087 478.114075,570.010254z"/>
<path fill="#000000" opacity="1.000000" stroke="none" d="M90.106674,134.470901 C92.983681,135.303589 96.004791,136.186447 98.532341,137.828857 C108.612320,144.378845 118.731667,150.899338 128.454926,157.956406 C135.088745,162.771194 141.445877,168.101669 147.236725,173.891693 C150.571030,177.225540 152.545914,181.924500 155.092697,186.033783 C155.430481,186.578781 155.447357,187.315735 155.754684,187.887558 C160.113678,195.997864 154.188690,206.656204 144.963730,206.998138 C141.353714,207.131943 136.386887,208.050522 134.385452,206.145462 C130.609833,202.551636 127.424461,197.488708 125.985519,192.465820 C122.998489,182.039093 118.223137,173.233154 110.557243,165.388077 C105.238594,159.945099 101.856812,152.640350 97.374374,146.334656 C95.501396,143.699829 93.018478,141.498581 90.486328,139.019196 C90.114502,137.582184 90.069221,136.226166 90.106674,134.470901z"/>
<path fill="#000000" opacity="1.000000" stroke="none" d="M387.646667,618.672852 C387.870819,621.298340 387.825745,623.619019 387.794006,626.371460 C387.414734,626.847107 387.022095,626.891113 386.043243,626.677734 C384.956238,625.533508 384.455475,624.646484 383.954712,623.759521 C383.962067,622.838257 383.969421,621.917053 384.132141,620.297363 C384.376678,616.906311 384.465881,614.213806 384.691650,611.047424 C384.900482,608.041016 384.972748,605.508423 385.373718,602.977966 C386.350220,602.961487 386.998016,602.942871 387.645813,602.924194 C387.556396,608.072144 387.466949,613.220093 387.646667,618.672852z"/>
<path fill="#000000" opacity="1.000000" stroke="none" d="M449.052612,456.866211 C449.557831,455.881927 450.436432,454.951904 451.655823,454.010345 C453.535492,457.080444 451.080139,456.648010 449.052612,456.866211z"/>
<path fill="#000000" opacity="1.000000" stroke="none" d="M441.270508,459.951080 C441.429840,459.356903 441.907410,458.727509 442.706573,458.082458 C442.548370,458.683197 442.068542,459.299530 441.270508,459.951080z"/>
<path fill="#000000" opacity="1.000000" stroke="none" d="M471.873322,545.174927 C472.741028,546.320374 473.310120,547.727661 473.518555,549.542480 C472.471893,550.003174 471.785889,550.056335 471.099854,550.109436 C471.258148,548.551880 471.416412,546.994263 471.873322,545.174927z"/>
<path fill="#000000" opacity="1.000000" stroke="none" d="M469.440613,497.038696 C469.377228,498.543427 468.982849,500.122833 468.328369,501.863464 C468.415375,500.387604 468.762482,498.750488 469.440613,497.038696z"/>
<path fill="#000000" opacity="1.000000" stroke="none" d="M473.844055,557.106689 C474.003571,557.966309 474.163086,558.825867 474.106262,559.837952 C472.967194,559.183228 472.044434,558.375977 471.453461,557.261353 C472.471497,557.004822 473.157745,557.055725 473.844055,557.106689z"/>
<path fill="#000000" opacity="1.000000" stroke="none" d="M467.467407,509.016968 C467.668243,509.520813 467.611694,510.087860 467.324768,510.841858 C467.132904,510.379272 467.171478,509.729767 467.467407,509.016968z"/>
<path fill="#000000" opacity="1.000000" stroke="none" d="M158.008209,69.099319 C162.323013,76.932281 166.532547,84.404716 170.409973,92.045685 C172.044067,95.265869 173.164795,98.786240 174.193481,102.266327 C176.997910,111.753822 180.650620,121.146599 182.037231,130.852631 C183.385468,140.289886 179.657272,148.835632 170.742950,153.835342 C169.087219,154.763977 166.456116,154.371811 164.375793,154.010254 C162.190109,153.630371 160.182220,152.219757 157.996597,151.848495 C152.257919,150.873718 148.241119,147.103806 148.201920,141.269608 C148.173248,137.000961 148.344955,132.442108 149.782516,128.507782 C153.748581,117.653465 152.250748,106.997360 150.362488,96.097084 C148.124542,83.178314 146.429535,70.162132 144.737228,57.157200 C144.561066,55.803410 145.996368,54.239922 146.683990,52.773727 C148.319687,53.811665 150.593826,54.473675 151.468765,55.959576 C153.881805,60.057690 155.709534,64.500443 158.008209,69.099319z"/>
<path fill="#000000" opacity="1.000000" stroke="none" d="M348.335571,508.478760 C348.710754,508.501892 349.085907,508.524963 349.854797,508.926300 C357.955841,514.279297 360.491608,521.196777 357.811249,530.266113 C356.857880,532.417358 356.114014,534.297363 355.300323,536.531982 C354.202545,537.696777 353.174652,538.506958 351.783508,539.232422 C350.266235,540.086487 349.112274,541.025269 347.727295,542.107300 C347.336548,542.563843 347.176788,542.877075 347.016998,543.190430 C346.616638,543.248047 346.216248,543.305725 345.514709,543.401733 C343.452850,543.517334 341.283752,542.959229 340.002533,543.782532 C334.606201,547.250488 328.757904,550.446228 324.402618,555.008850 C316.451172,563.338867 309.441132,572.567566 302.100708,581.777710 C298.526428,585.681763 294.945190,589.289185 291.217651,592.738525 C290.166595,593.711060 288.158447,595.123047 287.517639,594.747864 C286.311340,594.041504 285.780334,592.181885 285.328705,590.342285 C289.307007,585.703186 293.546722,581.902710 296.386719,577.248230 C299.970032,571.375427 302.357605,564.780029 305.367004,558.547424 C306.975861,555.215454 309.054718,552.092712 310.456787,548.684387 C311.494720,546.161316 311.782928,543.329895 312.405151,540.635803 C312.437134,539.969666 312.469116,539.303589 312.831177,538.142761 C314.035950,536.282654 315.093536,534.999329 315.749969,533.536072 C317.492340,529.652161 319.061462,525.690430 320.699524,521.759705 C320.699524,521.759705 320.863586,521.397644 321.323334,521.228882 C322.817230,520.343811 324.055878,519.804260 324.852478,518.882629 C330.168945,512.731873 336.019440,507.812653 344.950653,508.954926 C346.040802,509.094360 347.205444,508.651703 348.335571,508.478760z"/>
<path fill="#000000" opacity="1.000000" stroke="none" d="M381.308838,586.878662 C381.187775,585.526428 381.066711,584.174255 380.962646,582.414185 C381.129395,577.618164 381.375092,573.230774 381.411591,568.841675 C381.546326,552.633179 381.170166,536.403442 381.928680,520.225830 C382.217621,514.064087 385.578339,508.377991 391.292450,504.746399 C392.357117,504.069794 393.080841,502.856689 394.030914,501.567688 C394.522125,501.174347 394.944366,501.104523 395.986755,501.302216 C401.800262,501.209229 405.978210,503.066254 409.552948,506.887543 C410.582916,507.988586 412.663971,508.106354 414.263153,508.674896 C414.263153,508.674896 414.274445,508.724854 414.214661,509.165771 C413.807129,514.201965 413.757080,518.847290 412.997101,523.373413 C412.558563,525.985168 410.973633,528.404541 409.904724,530.910522 C402.775970,537.762878 399.331970,546.090698 398.048004,555.963379 C396.865479,565.056274 393.849701,573.901917 391.832123,582.899292 C391.003540,586.594116 390.674683,590.401001 389.719482,594.620361 C388.868652,596.385132 388.416901,597.686584 387.965149,598.987976 C387.922363,600.043335 387.879578,601.098694 387.741302,602.539185 C386.998016,602.942871 386.350220,602.961487 385.344666,602.562500 C384.652618,599.196594 384.558319,596.194031 383.906830,593.317688 C383.402130,591.089478 382.200623,589.019165 381.308838,586.878662z"/>
<path fill="#000000" opacity="1.000000" stroke="none" d="M388.240021,598.804321 C388.416901,597.686584 388.868652,596.385132 389.658875,595.041870 C389.503174,596.206848 389.009033,597.413757 388.240021,598.804321z"/>
</svg>