<svg width="500" height="500" version="1.1" viewBox="0 0 132.3 132.3" xmlns="http://www.w3.org/2000/svg">
  <path d="m72.2 66.24c0.1133 1.303 0.7927 2.832 1.926 4.586 1.303 1.586 2.379 2.492 3.172 2.888 1.642 0.9628 2.832 1.473 3.74 1.473h39.2l0.7927-0.3965v-15.52l-0.7927-1.246h-41.07c-0.5098 0.1699-1.642 1.02-3.398 2.379-1.756 1.416-2.945 3.398-3.567 5.832m-30.19 14.16c-0.5662 0.453-0.8495 0.7927-0.8495 1.076-0.2265 2.096-0.3398 3.74-0.3398 4.816 0 4.699 1.189 7.645 3.567 8.947 0.9628 0.5098 1.869 0.7927 2.662 0.7927h40.96c1.189-0.3965 2.379-1.133 3.511-2.209 1.303-1.642 1.926-3.909 1.926-6.851v-1.246c0-1.756-0.453-3.511-1.246-5.324zm3.623-44.17c-1.359 0.3398-2.662 1.189-3.909 2.549-1.02 1.586-1.586 3.74-1.586 6.4 0 2.662 0.453 4.872 1.359 6.682h50.13c0.7363-2.379 1.076-4.417 1.076-6.174 0-5.211-1.642-8.326-4.929-9.233l-1.359-0.2265zm-33.53 21.8-0.7927 0.906v15.4l0.7927 0.8495h41.17c0.7927 0 2.209-0.906 4.248-2.662 1.586-1.926 2.435-3.68 2.605-5.38-0.2265-1.642-1.246-3.455-2.945-5.437-1.699-1.642-3.455-2.832-5.324-3.68zm54.08-58.04 66.08 66.08-66.08 66.22-66.22-66.22z" fill="#750019" stroke-width=".3528"/>
</svg>
