<svg width="500" height="500" version="1.1" viewBox="0 0 132.3 132.3" xmlns="http://www.w3.org/2000/svg">
  <g transform="matrix(.3528 0 0 .3528 77.43 149.5)">
    <path d="m-159.6-237.3c0 26.17 7.384 50.25 21.83 72.08 3.371 5.298 8.829 11.72 16.05 19.42 8.187 7.705 15.09 13.32 20.71 16.7 21.35 13.48 44.47 20.07 69.19 20.07 28.41 0 54.26-8.829 77.86-26.49 3.532-2.568 9.15-7.545 16.7-15.25 7.224-8.508 12.04-15.09 14.61-19.91 4.655-6.903 8.99-16.53 12.84-29.06 3.532-12.36 5.298-23.92 5.298-34.51v-4.495c0-18.78-4.655-37.72-14.13-56.83-14.45-26.49-35.32-45.91-62.61-58.11-0.6421 7.224-1.605 23.12-2.568 47.68-0.9632 12.52-2.087 22.8-3.532 30.66-2.087 9.632-4.334 17.98-6.742 25.36-4.174 10.27-9.15 19.91-15.25 28.74-3.211 4.655-8.187 10.76-15.25 18.14-6.903 6.742-12.52 11.72-16.7 14.77h-0.1605l1.445-175.5c-4.174 0-11.72 1.124-22.63 3.371-9.15 2.568-17.18 5.458-24.08 8.508-7.224 3.532-14.93 8.187-23.12 14.13-4.174 3.532-8.348 7.224-12.2 10.92-8.669 9.311-14.77 16.86-18.3 23.12-3.853 5.94-7.705 13.65-11.24 22.8-5.298 15.25-8.027 29.86-8.027 43.66m127.8-186.5 187.3 187.3-187.3 187.7-187.7-187.7z" fill="#750019"/>
  </g>
</svg>
