<svg width="500" height="500" version="1.1" viewBox="0 0 132.3 132.3" xmlns="http://www.w3.org/2000/svg">
  <path d="m21.12 65.78c0 9.233 2.605 17.73 7.702 25.43 1.189 1.869 3.115 4.135 5.662 6.851 2.888 2.718 5.324 4.699 7.306 5.892 7.532 4.756 15.69 7.081 24.41 7.081 10.02 0 19.14-3.115 27.47-9.346 1.246-0.906 3.228-2.662 5.892-5.38 2.549-3.002 4.248-5.324 5.154-7.024 1.642-2.435 3.172-5.832 4.53-10.25 1.246-4.361 1.869-8.439 1.869-12.18v-1.586c0-6.626-1.642-13.31-4.985-20.05-5.098-9.346-12.46-16.2-22.09-20.5-0.2265 2.549-0.5662 8.157-0.906 16.82-0.3398 4.417-0.7363 8.044-1.246 10.82-0.7363 3.398-1.529 6.343-2.379 8.947-1.473 3.623-3.228 7.024-5.38 10.14-1.133 1.642-2.888 3.796-5.38 6.4-2.435 2.379-4.417 4.135-5.892 5.211h-0.05663l0.5098-61.92c-1.473 0-4.135 0.3965-7.984 1.189-3.228 0.906-6.061 1.926-8.495 3.002-2.549 1.246-5.267 2.888-8.157 4.985-1.473 1.246-2.945 2.549-4.304 3.853-3.058 3.285-5.211 5.948-6.456 8.157-1.359 2.096-2.718 4.816-3.965 8.044-1.869 5.38-2.832 10.53-2.832 15.4m45.09-65.8 66.08 66.08-66.08 66.22-66.22-66.22z" fill="#750019" stroke-width=".3528"/>
</svg>
