<svg width="499.994" height="499.994" viewBox="0 0 132.29 132.29" xmlns="http://www.w3.org/2000/svg"><defs><clipPath id="a"><path d="M178 498h19v19h-19z"/></clipPath><clipPath id="b"><path d="m178.18 507.23 8.95 8.953 8.945-8.945-8.95-8.953z"/></clipPath></defs><g clip-path="url(#a)" transform="translate(-1317.6 -3684.6) scale(7.3945)"><g clip-path="url(#b)"><path d="M181.04 507.19c0 1.25.348 2.398 1.04 3.441.163.247.417.559.769.926.386.363.718.633.988.797 1.016.64 2.113.961 3.297.961 1.355 0 2.59-.426 3.715-1.273.168-.114.433-.356.796-.727.344-.402.575-.719.696-.945.222-.332.43-.793.617-1.387a6.01 6.01 0 0 0 .25-1.64v-.223c0-.895-.223-1.797-.676-2.707-.683-1.27-1.68-2.196-2.984-2.774-.035.344-.074 1.102-.121 2.274a15.704 15.704 0 0 1-.172 1.46 9.543 9.543 0 0 1-.324 1.212c-.196.492-.438.949-.727 1.37-.148.223-.39.512-.727.872-.328.32-.593.558-.796.703h-.008l.07-8.375c-.195 0-.555.055-1.082.16-.438.125-.82.258-1.148.406-.344.168-.711.395-1.102.676-.2.168-.395.344-.586.523-.41.438-.7.805-.867 1.102a5.447 5.447 0 0 0-.535 1.09c-.254.726-.383 1.418-.383 2.078m6.094-8.898 8.941 8.937-8.937 8.953-8.954-8.953z" style="fill:#780f17"/></g></g></svg>