<svg width="500" height="500" version="1.1" viewBox="0 0 132.3 132.3" xmlns="http://www.w3.org/2000/svg">
  <g stroke-width=".423">
    <path d="m0.0266 66.17 66.12 66.12 66.12-66.12-66.12-66.12z" fill="#700c1c"/>
    <path d="m66.14 121.7 55.5-55.5-55.5-55.5-55.5 55.5z" fill="#fff"/>
    <path d="m66.11 115.6 49.49-49.49-49.49-49.49-49.49 49.49z" fill="#700c1c"/>
    <path d="m32.22 66.09c0-18.77 15.23-34 34-34 18.79 0 34.01 15.23 34.01 34 0 18.79-15.23 34.01-34.01 34.01-18.77 0-34-15.23-34-34.01" fill="#fff"/>
    <path d="m70.01 61.56-3.925-16.1-10.83 16.5 6.51 6.667zm-4.161 11.24 9.217 9.45-3.505-14.35zm-13.81-5.922-12.92 19.68 18.3-14.2zm-17.71-18 4.161-4.096 12.6 12.92 17.3-26.4 6.51 26.06 16.88-14.45 3.794 4.425-19.1 16.34 8.113 32.42-2.428 1.391-20.65-20.98-18 15.42-9.057-8.849 13.4-20.45-14.03-14.26" fill="#700c1c"/>
  </g>
</svg>
