<svg width="210mm" height="297mm" viewBox="0 0 210 297" xmlns="http://www.w3.org/2000/svg"><defs><clipPath id="a"><path d="M65 418h19v19H65z"/></clipPath><clipPath id="b"><path d="m65.203 427.39 8.945 8.945 8.946-8.945-8.946-8.945z"/></clipPath></defs><g clip-path="url(#a)" transform="translate(-482.14 -3094.2) scale(7.3945)"><g clip-path="url(#b)"><path d="M78.535 425.12c-.23 1.09.441 2.305-.086 3.375-.039.266-.25.352-.476.426-.758.086-.79-.832-1.301-1.094-.297-.86.527-1.242.633-1.98.175-.25.406-.32.667-.336.141-.16.266-.825.563-.391m-1.531 3.602c.18.808.16 1.859-.63 2.445-.26.262-.706.297-1.058.242-.98-.527.215-1.527-.508-2.176-.156-.23-.597-.582-.843-.426l-.032.036c.297.23.438.652.243.968-.473.473-1.02 1.036-1.723 1.317-.453 0-.86-.14-1.227-.387-.285-.508-.687-1.02-.457-1.687.809-1.211 2.09-1.598 3.25-2.407.598-.03 1.14.317 1.422.899.492.457 1.371.387 1.563 1.176m-7.293-2.442c-.012-.476.406-.773.336-1.265.05-.106.156-.086.265-.086.07.261.367.367.578.508.473.789.672 1.859.215 2.742-.336.156-.812.386-1.18.12-.386-.562-.14-1.3-.214-2.019m2.23-2.328c.25-.37.477-.687.688-1.054.32.035.28.457.425.683.422.563.383 1.32.489 2.02-.067.445-.106.914-.578 1.144-.301.156-.598.422-.965.246-.32-.12-.301-.527-.356-.844.106-.664-.05-1.562.297-2.195m3.344-1.476c.367-.106.316.351.367.562.403.527.79 1.125.985 1.758.125.668.156 1.527-.352 1.98-.734.477-1.07-.402-1.543-.75-.195-.988-.3-2.25.418-3.039-.066-.16-.05-.39.125-.511m-1.137 13.855 8.946-8.946-8.946-8.945-8.945 8.945z" fill="#780f17"/></g></g></svg>