<svg version="1.1" id="Layer_1"
  xmlns="http://www.w3.org/2000/svg"
  xmlns:xlink="http://www.w3.org/1999/xlink" x="0px" y="0px" width="100%" viewBox="0 0 200 200" enable-background="new 0 0 200 200" xml:space="preserve">
  <path fill="#141414" opacity="1.000000" stroke="none" d="M73.997162,35.293610 C69.692032,38.793530 65.016441,39.752647 60.013882,37.764839 C55.441799,35.948086 55.314655,31.881710 58.730167,28.483084 C61.661247,25.566500 64.249779,21.959257 65.894997,18.180752 C68.172112,12.951009 69.423035,7.274446 71.056694,1.394610 C72.066673,1.000000 73.133339,1.000000 74.600006,1.000000 C74.857079,4.375410 74.714149,7.750819 74.449326,11.737011 C74.450752,13.268487 74.574089,14.189178 74.697426,15.109870 C74.629005,15.846878 74.560577,16.583887 74.530556,18.060768 C74.979172,20.560797 75.389389,22.320950 75.799606,24.081104 C75.829475,26.749437 75.859344,29.417772 75.607941,32.645451 C75.058502,33.779358 74.790337,34.353920 74.522171,34.928482 C74.522171,34.928482 74.076416,35.073097 73.997162,35.293610z"/>
  <path fill="#0E0E0E" opacity="1.000000" stroke="none" d="M182.384949,166.634369 C181.805161,165.519653 181.225372,164.404938 180.443359,162.727783 C179.771103,161.783768 179.301102,161.402176 178.831085,161.020599 C178.815033,159.621353 178.798996,158.222107 179.067261,156.203918 C181.237259,154.114609 183.122940,152.644241 185.008621,151.173874 C188.957306,151.752213 192.905991,152.330551 197.969818,153.072220 C193.704651,163.294754 197.438950,172.072067 200.581482,180.987946 C201.000000,182.066666 201.000000,183.133347 201.000000,184.600006 C199.524811,184.505936 197.576416,184.446259 196.655655,183.443222 C192.483322,178.898132 188.601089,174.086777 184.396271,168.799149 C183.580399,167.696152 182.982681,167.165253 182.384949,166.634369z"/>
  <path fill="#1B1B1B" opacity="1.000000" stroke="none" d="M1.000000,42.399994 C11.394684,46.472126 21.936480,50.643745 32.087666,55.613258 C34.861977,56.971416 36.463333,60.725559 39.020298,63.897915 C38.692677,64.092163 39.441406,63.648239 40.561581,63.426094 C39.365688,65.119545 37.798355,66.591225 36.144974,67.698082 C34.742027,67.237366 33.420261,67.184753 32.109165,67.037285 C28.463451,66.627220 24.822172,66.177734 21.179140,65.743813 C21.135662,65.428207 20.988976,65.171608 20.428158,64.541748 C19.160387,62.957115 18.203535,61.804745 17.246681,60.652374 C17.246681,60.652374 17.120340,60.305336 17.022327,59.844841 C16.279041,58.595844 15.633769,57.807346 14.988497,57.018845 C10.560806,53.363617 6.133116,49.708393 1.352713,46.026585 C1.000000,44.933331 1.000000,43.866661 1.000000,42.399994z"/>
  <path fill="#060606" opacity="1.000000" stroke="none" d="M36.231022,68.062897 C37.798355,66.591225 39.365688,65.119545 40.961761,63.315971 C40.990501,62.984066 40.999706,63.000229 41.311752,62.972042 C42.094097,62.317226 42.564392,61.690601 43.034687,61.063976 C43.034687,61.063976 42.999729,61.008545 43.350731,60.987724 C44.133247,60.309189 44.564758,59.651478 44.996269,58.993767 C44.996265,58.993763 45.000153,59.000000 45.315025,58.972095 C46.088707,58.310307 46.547516,57.676418 47.006325,57.042534 C54.005116,46.707348 63.567867,40.358505 76.184647,38.144402 C77.707664,37.631931 79.011177,37.391697 80.934761,36.995422 C82.051186,36.600430 82.547539,36.361488 83.043884,36.122551 C83.503075,36.101028 83.962257,36.079510 84.982956,35.926865 C86.021286,35.504597 86.498108,35.213448 86.974930,34.922302 C87.432571,34.909489 87.890213,34.896671 89.001602,34.813461 C91.133629,34.244717 92.611908,33.746357 94.090195,33.247997 C102.126038,31.309710 110.074585,28.774323 118.219704,27.583387 C128.536880,26.074867 139.010254,25.013609 149.422958,24.955372 C159.696350,24.897911 169.981171,26.295631 180.252686,27.154182 C181.698944,27.275070 183.098068,27.959833 184.519012,28.383596 C184.452347,28.875551 184.385666,29.367504 184.318985,29.859457 C177.966919,30.129131 171.610321,30.703215 165.263702,30.608299 C149.623718,30.374393 134.499680,33.219582 119.550804,37.472088 C104.745071,41.683872 92.603912,50.270981 80.819489,60.654785 C79.767868,61.510502 79.288872,62.140232 78.809875,62.769962 C78.809875,62.769962 78.901199,62.899677 78.512383,62.862553 C77.433411,63.565125 76.743256,64.304825 76.053101,65.044518 C76.053101,65.044518 76.004196,64.997688 75.701332,65.025795 C74.953209,65.719704 74.507942,66.385498 74.062683,67.051300 C74.062683,67.051300 74.006256,66.997528 73.676529,67.030869 C71.613426,70.739433 69.880058,74.414658 68.146683,78.089882 C68.146683,78.089882 67.951683,78.428658 67.539131,78.684769 C61.125870,86.823219 60.711098,96.074783 61.283127,105.308418 C61.532936,109.340797 63.497639,113.266930 64.683571,117.241310 C64.683571,117.241310 64.729523,117.260460 64.752312,117.616348 C65.814178,119.022430 66.853256,120.072639 67.892326,121.122849 C75.245804,126.160019 82.247017,131.858231 90.064751,136.024185 C96.265335,139.328369 103.331825,141.369247 110.251778,142.884216 C123.361832,145.754349 136.568146,148.459930 149.875275,150.070541 C161.169754,151.437561 172.450317,149.574448 183.340729,145.956345 C184.987381,145.409256 186.776657,145.291458 188.499969,144.975113 C188.707535,145.376602 188.915115,145.778091 189.122696,146.179581 C187.972946,147.038956 186.823181,147.898315 184.984009,148.888092 C181.720901,150.165146 179.147232,151.311783 176.573563,152.458420 C169.592697,154.515259 162.611832,156.572113 155.315735,158.852356 C153.656433,159.159180 152.312363,159.242615 150.108627,159.302368 C137.777466,159.333817 126.305962,159.388931 114.834457,159.444031 C112.186485,159.288849 109.538521,159.133667 106.140976,158.783920 C104.204666,158.549500 103.017921,158.509644 101.831184,158.469803 C96.628174,157.871292 91.425163,157.272781 85.646530,156.405304 C84.048660,155.436676 83.026405,154.737061 82.004150,154.037415 C79.897972,153.804489 77.528366,154.110611 75.736328,153.234863 C70.879181,150.861221 66.267151,147.986008 61.211212,144.751022 C59.459187,143.515045 58.053871,142.837708 56.648560,142.160370 C55.627586,141.772018 54.606613,141.383667 53.204426,140.479004 C52.006104,139.742783 51.188992,139.522903 50.371880,139.303024 C48.061108,138.355682 45.750340,137.408340 43.178146,135.839294 C41.553207,134.504608 40.189690,133.791626 38.826172,133.078644 C37.620369,132.157974 36.414566,131.237320 35.107262,129.630173 C31.766241,121.396507 28.543760,113.841942 25.282646,106.304092 C21.640869,97.886360 24.088346,89.416451 25.008503,80.956902 C25.291817,80.794380 25.575134,80.631859 26.457567,80.689850 C27.882923,80.638725 28.709164,80.367096 29.535404,80.095459 C28.848242,79.379807 28.161081,78.664154 27.473919,77.948509 C27.436741,77.368576 27.399565,76.788643 27.775169,75.856018 C28.577785,74.748581 28.967621,73.993843 29.357456,73.239113 C30.611088,72.168755 31.864721,71.098396 33.551208,69.763176 C34.733047,69.019836 35.482037,68.541367 36.231022,68.062897z"/>
  <path fill="#0F0F0F" opacity="1.000000" stroke="none" d="M131.232986,162.320526 C132.871094,162.592163 134.776184,162.433746 136.080353,163.243332 C137.744202,164.276184 140.186615,166.238144 140.035553,167.537018 C139.758469,169.919296 140.116714,173.738647 136.077911,174.021362 C124.168457,174.854950 116.485252,183.699478 106.998779,189.132599 C105.206635,190.158997 103.136040,190.699249 101.193924,191.463837 C100.903099,190.996490 100.612267,190.529129 100.321442,190.061783 C101.412834,188.746475 102.473740,187.404404 103.601265,186.120850 C107.167542,182.061066 111.573151,178.473495 114.125443,173.857941 C117.039413,168.588318 120.694870,164.972504 126.966583,162.850952 C128.909409,162.603409 130.071198,162.461975 131.232986,162.320526z"/>
  <path fill="#080808" opacity="1.000000" stroke="none" d="M154.174988,199.806061 C153.349243,197.612503 152.566360,195.141144 151.834000,192.654907 C151.333511,190.955872 150.903519,189.236084 150.176422,187.252106 C149.814560,186.336426 149.718292,185.694244 149.794373,184.302216 C148.690536,176.047913 148.473419,168.692764 153.004349,162.007034 C153.556793,161.656998 154.109222,161.306976 154.838623,160.782959 C157.125381,160.316330 159.235199,160.023682 161.848083,159.995880 C162.928146,160.448868 163.505157,160.636993 164.082169,160.825119 C164.372940,161.053970 164.663727,161.282837 165.427109,161.815277 C166.644165,162.305389 167.388626,162.491913 168.133072,162.678436 C168.387939,162.944489 168.642807,163.210541 169.014771,164.078705 C169.175156,165.492615 169.218460,166.304382 169.261749,167.116165 C166.891251,169.519730 164.520752,171.923279 161.637177,174.702148 C159.185608,179.762833 156.956924,184.355423 155.417404,189.168442 C154.494019,192.055267 154.646973,195.286392 154.316162,198.362762 C154.290558,198.749161 154.264969,199.135544 154.174988,199.806061z"/>
  <path fill="#0C0C0C" opacity="1.000000" stroke="none" d="M29.395966,21.007240 C29.288885,19.866077 29.181805,18.724915 28.957010,16.329243 C31.024025,17.358074 32.848091,17.687326 33.679779,18.775234 C38.542286,25.135761 43.527729,31.458096 47.671337,38.279484 C48.966923,40.412334 48.872284,44.894775 47.426830,46.769619 C45.943470,48.693630 42.053776,48.845024 39.163258,49.551418 C38.291279,49.764519 37.245377,49.197079 36.268772,49.062393 C31.105907,48.350388 29.982037,46.281857 31.593651,41.219219 C32.318584,38.941952 32.415020,36.464611 32.914833,33.341824 C32.534588,31.674099 32.036144,30.742605 31.537701,29.811110 C31.404634,29.107441 31.271568,28.403772 31.325771,27.078491 C30.807350,24.640333 30.101658,22.823786 29.395966,21.007240z"/>
</svg>
