<svg width="500" height="500" version="1.1" viewBox="0 0 132.3 132.3" xmlns="http://www.w3.org/2000/svg">
  <defs>
    <style type="text/css">.fil0 {fill:black;fill-rule:nonzero}</style>
  </defs>
  <polygon transform="matrix(1.393 0 0 1.393 1318 -1328)" points="-869.8 970.3 -876 969.7 -877.5 985 -895.9 995.6 -895.9 974.4 -883.3 965.5 -887 960.4 -895.9 966.7 -895.9 953.5 -902.1 953.5 -902.1 966.7 -911 960.4 -914.6 965.5 -902.1 974.3 -902.1 995.6 -920.5 985 -922 969.7 -928.2 970.3 -927.2 981.1 -938.6 974.5 -941.7 980 -930.3 986.5 -940.2 991.1 -937.6 996.8 -923.7 990.4 -905.3 1001 -923.6 1012 -937.6 1005 -940.2 1011 -930.3 1016 -941.7 1022 -938.6 1028 -927.2 1021 -928.2 1032 -922 1032 -920.5 1017 -902.1 1006 -902.1 1028 -914.7 1036 -911 1042 -902.1 1035 -902.1 1048 -895.9 1048 -895.9 1035 -887 1042 -883.4 1036 -895.9 1028 -895.9 1006 -877.5 1017 -876 1032 -869.8 1032 -870.8 1021 -859.4 1028 -856.3 1022 -867.7 1016 -857.8 1011 -860.4 1005 -874.3 1012 -892.7 1001 -874.4 990.4 -860.4 996.8 -857.8 991.1 -867.7 986.5 -856.3 980 -859.4 974.5 -870.8 981.1"/>
</svg>
