<svg width="500" height="500" viewBox="0 0 132.29 132.29" xmlns="http://www.w3.org/2000/svg"><defs><clipPath id="a"><path d="M449.63 145.95h6.074v7.7h-6.074z"/></clipPath></defs><g transform="matrix(17.1825 0 0 17.1825 -7711.647 -2507.86)" clip-path="url(#a)"><path d="M454.52 151.64c-.703.547-1.402.125-1.457-.07-.082-.29.672-.278 1.07-.371.516-.125.813.113.387.441m-1.402 1.066c-.11.118-.395-.039-.446-.187-.054.148-.34.305-.449.187-.11-.12.13-.48.45-.48.316 0 .554.36.445.48m-2.297-1.066c-.426-.328-.13-.566.39-.441.395.093 1.149.082 1.067.37-.055.196-.75.618-1.457.071m4.832-3.34c-.195-1.691-1.711-2.351-2.98-2.351s-2.79.66-2.985 2.351c-.27 2.324.547 2.63.57 3.242.02.618.055.946.672 1.008.617.063.805-.492.785 0-.02.492-.207.477.035.738.246.266.66.364.922.364.258 0 .676-.098.918-.364.242-.261.059-.246.04-.738-.024-.492.167.063.784 0 .614-.062.649-.39.668-1.008.02-.613.84-.918.57-3.242" style="fill:#63615e"/></g></svg>