<svg xmlns="http://www.w3.org/2000/svg" xmlns:xlink="http://www.w3.org/1999/xlink" xml:space="preserve" version="1.1" style="shape-rendering:geometricPrecision;text-rendering:geometricPrecision;image-rendering:optimizeQuality;" viewBox="0 0 1.142 1.4274999999999998" x="0px" y="0px" fill-rule="evenodd" clip-rule="evenodd">
	<defs>
		<style type="text/css">
			.fil0 {fill:none}
			.fil1 {fill:black}
		</style>
	</defs>
	<g>
		<g>
			<rect class="fil0" width="1.142" height="1.142" />
			<path class="fil1" d="M0.711 1.001l-0.14 -0.102 -0.141 0.103c-0.008,0.006 -0.019,0.004 -0.025,-0.004 -0.004,-0.005 -0.005,-0.011 -0.003,-0.016l0.054 -0.166 -0.141 -0.102c-0.008,-0.006 -0.01,-0.018 -0.004,-0.026 0.004,-0.005 0.01,-0.008 0.016,-0.007l0.173 0 0.054 -0.166c0.003,-0.01 0.013,-0.015 0.023,-0.012 0.006,0.002 0.01,0.007 0.012,0.012l0.053 0.166 0.175 0c0.01,0 0.018,0.008 0.018,0.018 0,0.006 -0.003,0.012 -0.008,0.015l-0.141 0.102 0.054 0.166c0.003,0.009 -0.002,0.02 -0.011,0.023 -0.007,0.002 -0.013,0 -0.018,-0.004zm-0.313 -0.607c0.052,-0.025 0.111,-0.038 0.173,-0.038 0.062,0 0.121,0.013 0.174,0.038l0.103 -0.103 0 -0.291 -0.107 0 0 0.079c0,0.01 -0.008,0.019 -0.018,0.019 -0.01,0 -0.019,-0.009 -0.019,-0.019l0 -0.079 -0.114 0 0 0.178c0,0.01 -0.009,0.018 -0.019,0.018 -0.01,0 -0.018,-0.008 -0.018,-0.018l0 -0.178 -0.115 0 0 0.079c0,0.01 -0.008,0.019 -0.018,0.019 -0.01,0 -0.019,-0.009 -0.019,-0.019l0 -0.079 -0.106 0 0 0.291 0.103 0.103zm0.184 0.468l0.106 0.077 -0.041 -0.124c-0.003,-0.007 0,-0.016 0.007,-0.021l0.106 -0.077 -0.13 0.001c-0.008,0 -0.016,-0.005 -0.019,-0.013l-0.04 -0.124 -0.04 0.124c-0.002,0.007 -0.009,0.013 -0.017,0.013l-0.131 -0.001 0.106 0.077c0.006,0.005 0.009,0.013 0.006,0.021l-0.04 0.124 0.105 -0.077c0.007,-0.005 0.015,-0.005 0.022,0zm0.254 0.17c0.068,-0.067 0.11,-0.161 0.11,-0.265 0,-0.103 -0.042,-0.197 -0.11,-0.265 -0.068,-0.067 -0.161,-0.109 -0.265,-0.109 -0.103,0 -0.197,0.042 -0.265,0.109 -0.068,0.068 -0.11,0.162 -0.11,0.265 0,0.104 0.042,0.198 0.11,0.265 0.068,0.068 0.162,0.11 0.265,0.11 0.104,0 0.197,-0.042 0.265,-0.11z" />
		</g>
	</g>
</svg>
