<?xml version="1.0" standalone="no"?>
<!DOCTYPE svg PUBLIC "-//W3C//DTD SVG 20010904//EN"
 "http://www.w3.org/TR/2001/REC-SVG-20010904/DTD/svg10.dtd">
<svg version="1.0" xmlns="http://www.w3.org/2000/svg"
 width="500.000000pt" height="426.000000pt" viewBox="0 0 500.000000 426.000000"
 preserveAspectRatio="xMidYMid meet">

<g transform="translate(0.000000,426.000000) scale(0.100000,-0.100000)"
fill="#000000" stroke="none">
<path d="M1360 3400 l0 -430 1140 0 1140 0 0 430 0 430 -1140 0 -1140 0 0
-430z m571 124 c103 -52 82 -221 -31 -255 -143 -43 -248 132 -142 235 49 46
109 53 173 20z m626 6 c60 -27 85 -71 80 -138 -4 -56 -27 -91 -79 -118 -54
-28 -118 -13 -167 40 -34 37 -40 118 -11 164 19 31 87 72 120 72 8 0 34 -9 57
-20z m662 -9 c44 -31 64 -67 64 -114 0 -110 -106 -178 -203 -129 -71 35 -98
116 -64 188 19 41 33 52 81 70 44 15 87 10 122 -15z"/>
<path d="M1400 2675 c0 -26 59 -176 96 -243 163 -297 445 -506 779 -577 39 -8
73 -15 78 -15 4 0 7 -33 7 -73 l0 -74 -39 -11 c-77 -23 -121 -100 -101 -174
12 -43 66 -93 109 -103 l31 -7 0 -122 0 -122 -44 -37 c-122 -101 -133 -291
-24 -404 l31 -32 -39 -10 c-22 -5 -141 -36 -266 -67 l-228 -56 0 -74 0 -74
710 0 710 0 0 74 0 74 -227 56 c-126 31 -245 62 -267 67 l-39 10 31 32 c109
113 98 303 -24 404 l-44 37 0 122 0 122 31 7 c44 10 97 60 109 104 20 74 -25
150 -101 173 l-39 11 0 73 0 73 38 6 c86 14 223 58 309 100 127 60 203 114
306 214 95 92 154 168 211 273 37 67 96 217 96 243 0 13 -138 15 -1100 15
-962 0 -1100 -2 -1100 -15z"/>
</g>
</svg>
