<?xml version="1.0" encoding="UTF-8"?>
<svg xmlns="http://www.w3.org/2000/svg" version="1.1" viewBox="0 0 96.3 106.5">
  <!-- Generator: Adobe Illustrator 28.7.1, SVG Export Plug-In . SVG Version: 1.2.0 Build 142)  -->
  <g>
    <g id="Layer_1">
      <path d="M87.5,66.4h0c-18.6.4-23-11.5-23.9-15.9,2.9-.4,5.7-1.1,8.4-2.2.8-.3,1.1-1.2.8-2-.2-.4-.5-.7-1-.9-7.6-2.2-14.4-8.1-20.1-17.5-2.8-4.6-5.6-5.7-8.5-6.9-1.8-.7-3.5-1.5-5.1-2.6-5.1-3.4-7.2-11.8-7.3-11.9-.2-.8-1-1.3-1.8-1.1,0,0-.2,0-.2,0l-8.2,3.5c-.1,0-.3.1-.4.2-4.7,3.9-3.5,11-2.1,15.6-1.8-.9-3.7-1.4-5.7-1.4-.8,0-1.5.6-1.5,1.4,0,1.4-.4,8.7,2.8,11.1,2.1,1.6,6.5,12.8,3.3,19.1,0,0,0,0,0,0-.3.9-8.2,21.1,3.8,38.6.5.7,1.4.9,2.1.4.7-.5.9-1.4.4-2.1-10.8-15.8-3.9-34.7-3.5-35.8,3.8-7.9-1.1-20.4-4.3-22.8-1.2-.9-1.6-4.2-1.7-6.9,2.3.6,4.4,1.6,6.2,3.1.6.5,1.6.5,2.1-.2.4-.5.5-1.1.2-1.6-1.6-3.3-4.7-12.5-.5-16.2l6.4-2.7c1,2.9,3.4,8.9,8,12,1.8,1.1,3.6,2.1,5.6,2.8,2.8,1.1,4.8,1.9,7,5.7,5.1,8.4,11.1,14.2,17.8,17.3-1.7.5-3.4.7-5.1.8-.8,0-1.5.7-1.5,1.5,0,0,0,0,0,.1,0,.2,2.1,20.2,26.4,20.2s.6,0,.9,0c.8,0,1.5-.7,1.5-1.5s-.7-1.5-1.5-1.5h0Z"/>
    </g>
  </g>
</svg>