<svg width="500" height="500" viewBox="0 0 132.29 132.29" xmlns="http://www.w3.org/2000/svg"><defs><clipPath id="a"><path d="M65.195 255.95h15.789V261H65.195z"/></clipPath><clipPath id="b"><path d="M65.195 260h15.789v4.363H65.195z"/></clipPath></defs><g clip-path="url(#a)" transform="translate(-547.61 -2118.1) scale(8.3955)"><path d="M69.891 259.32s.613.227 1.559.332c.582.066 1.12.09 1.656.086.535.004 1.074-.02 1.656-.086.945-.105 1.559-.332 1.559-.332s2.144 1.316 4.648.875c.219-.04-1.938-1.598-3.313-2.824-1.539-1.371-2.058-1.59-3.117-1.258-.758.242-1.058.48-1.433.68-.375-.2-.676-.438-1.438-.68-1.055-.332-1.57-.113-3.113 1.258-1.371 1.226-3.531 2.785-3.313 2.824 2.504.441 4.649-.875 4.649-.875" style="fill:#b02317"/></g><g clip-path="url(#b)" transform="translate(-547.61 -2118.1) scale(8.3955)"><path d="M76.684 263.26c.059-.281.055-1.023.027-1.625-.02-.371-.074-1.04-.183-1.348-.282-.035-.727-.16-.782-.168-.34-.054-1.398.137-2.07.27a3.506 3.506 0 0 1-.57.07 3.506 3.506 0 0 1-.57-.07c-.672-.133-1.727-.324-2.067-.27-.058.008-.504.133-.785.168-.105.309-.164.977-.18 1.348-.03.602-.035 1.344.024 1.625-.215-.191-1.125-1.738-1.102-2.824-.758.097-1.812.18-2.726.297.98 1.02 3.285 3.32 4.34 3.511 1.554.286 2.507-.011 3.066-.09.558.079 1.511.375 3.066.09 1.055-.191 3.36-2.492 4.34-3.511-.914-.118-1.969-.2-2.727-.297.024 1.086-.886 2.633-1.101 2.824" style="fill:#b02317"/></g></svg>