<svg width="500" height="500" version="1.1" viewBox="0 0 132.3 132.3" xmlns="http://www.w3.org/2000/svg">
  <defs>
    <style type="text/css">.fil0 {fill:black;fill-rule:nonzero}</style>
  </defs>
  <g stroke-width="1.384">
    <path d="m55.59 20.52c-0.3691 0-0.7368-0.146-1.009-0.4367l-9.755-10.38c-0.5246-0.557-0.4962-1.433 0.06085-1.956 0.5584-0.5232 1.434-0.4975 1.956 0.06085l9.755 10.38c0.5246 0.557 0.4962 1.433-0.06085 1.956-0.2677 0.2515-0.607 0.3758-0.9477 0.3758z"/>
    <path d="m76.21 20.62c-0.3447 0-0.6909-0.1284-0.9599-0.3867-0.5503-0.53-0.5678-1.406-0.03785-1.958l9.896-10.29c0.5286-0.5503 1.405-0.5678 1.958-0.03785 0.5503 0.53 0.5678 1.406 0.03785 1.958l-9.896 10.29c-0.2717 0.2826-0.6341 0.4245-0.9978 0.4245z"/>
    <path d="m65.9 20.57h-0.0094c-0.7652-0.0054-1.38-0.63-1.375-1.394l0.123-17.8c0.005399-0.7612 0.6246-1.375 1.384-1.375h0.0094c0.7652 0.005413 1.38 0.63 1.375 1.394l-0.123 17.8c-0.0054 0.7612-0.6246 1.375-1.384 1.375z"/>
    <path d="m55.59 20.52c-0.3691 0-0.7368-0.146-1.009-0.4367l-9.755-10.38c-0.5246-0.557-0.4962-1.433 0.06085-1.956 0.5584-0.5232 1.434-0.4975 1.956 0.06085l9.755 10.38c0.5246 0.557 0.4962 1.433-0.06085 1.956-0.2677 0.2515-0.607 0.3758-0.9477 0.3758z"/>
    <path d="m76.21 20.62c-0.3447 0-0.6909-0.1284-0.9599-0.3867-0.5503-0.53-0.5678-1.406-0.03785-1.958l9.896-10.29c0.5286-0.5503 1.405-0.5678 1.958-0.03785 0.5503 0.53 0.5678 1.406 0.03785 1.958l-9.896 10.29c-0.2717 0.2826-0.6341 0.4245-0.9978 0.4245z"/>
    <path d="m53.39 76.1-10.55 11.74-5.967-5.967c3.599-4.015 7.005-7.808 10.23-11.41z"/>
    <path d="m63.91 85.53c-3.641 3.253-7.739 6.922-12.34 11.05l-5.967-5.967 11.96-10.76z"/>
    <path d="m130.8 5.589-0.9275 19.48c-0.0415 0.8997-0.4569 1.744-1.135 2.34-43.24 38.76-23.9 21.43-43.66 39.14-1.911-2.132-3.807-4.236-5.676-6.327l38.6-34.74 0.623-10.98-10.55 0.8585-34.51 38.35c-1.938-2.16-3.849-4.278-5.718-6.368 31.09-34.68 35.52-39.61 36.02-40.16l0.0139-0.01369 0.0276-0.02772v-0.01384c0.1524-0.1661 0.6646-0.7338 2.187-2.437 0.5676-0.6784 1.371-1.08 2.257-1.149l18.95-1.371c1.952-0.1524 3.599 1.454 3.503 3.419z"/>
    <path d="m60.05 109c-3.378 3.364-8.846 3.364-12.22 0l-7.074-7.074-22.62 22.61c-0.1524 1.938-0.9691 3.821-2.45 5.302-3.323 3.323-8.708 3.323-12.03 0-3.323-3.322-3.323-8.708 0-12.03 1.467-1.468 3.35-2.284 5.275-2.45l22.64-22.62-7.074-7.074c-3.364-3.378-3.364-8.847 0-12.22z"/>
    <path d="m23.89 15.36-10.54-0.8585 0.6091 10.98 72.56 65.29-5.967 5.967c-61.91-55.52-38.18-34.24-77.32-69.33-0.6922-0.5954-1.108-1.44-1.149-2.34l-0.9275-19.48c-0.08307-1.966 1.551-3.572 3.516-3.419l18.95 1.371c0.8722 0.06929 1.675 0.4707 2.243 1.149 42.34 47.21 11.96 13.35 69.37 77.36l-5.967 5.967z"/>
    <path d="m72.25 109c3.378 3.364 8.846 3.364 12.22 0l7.074-7.074 22.62 22.61c0.1524 1.938 0.9691 3.821 2.45 5.302 3.323 3.323 8.708 3.323 12.03 0 3.323-3.322 3.323-8.708 0-12.03-1.467-1.468-3.35-2.284-5.275-2.45l-22.64-22.62 7.074-7.074c3.364-3.378 3.364-8.847 0-12.22z"/>
  </g>
</svg>
