<svg xmlns="http://www.w3.org/2000/svg" xmlns:xlink="http://www.w3.org/1999/xlink" version="1.1" x="0px" y="0px" viewBox="0 0 100 125" style="enable-background:new 0 0 100 100;" xml:space="preserve">
	<path d="M79.2,21.5C61.4,18.2,50.1,5,50.1,5l0,0c0,0-0.5,0.6-1.5,1.6c-0.3,0.3-0.8,0.7-1.2,1.2C46.9,8.2,46.5,8.5,46,9  c-1.4,1.2-3.2,2.7-5.4,4.1c-2.8,1.9-6.1,3.8-9.9,5.4c-0.6,0.3-1.3,0.5-2,0.8c-4.7,1.7-10,2.9-15.9,2.9c0,72.6,37.2,72.6,37.2,72.6h0  c0,0,3.6,0,8.6-2.2c0.5-0.2,1-0.5,1.5-0.7c2.9-1.5,6.1-3.7,9.3-7c0.3-0.3,0.6-0.6,0.9-0.9c0.6-0.6,1.2-1.3,1.7-2  c1.4-1.8,2.8-3.8,4.2-6.2c1.1-1.9,2.1-3.9,3.1-6.1C84,59,87.3,43.8,87.3,22.3C84.5,22.3,81.8,22,79.2,21.5z M50.1,80.1  c0,0-25,0-25-48.8c15,0,25-11.6,25-11.6V80.1z" />
</svg>
