<svg width="500" height="500" version="1.1" viewBox="0 0 132.3 132.3" xmlns="http://www.w3.org/2000/svg">
  <g stroke-width="1.393">
    <path d="m58.64 79.1-21.31 33.43c-2.228 3.482-1.254 8.218 2.368 10.45 1.254 0.8357 2.646 1.254 4.039 1.254 2.507 0 5.014-1.254 6.407-3.482l20.89-32.73-5.711-2.646c-2.786-1.393-5.153-3.621-6.686-6.268z"/>
    <circle cx="109.8" cy="21.44" r="13.37"/>
    <path d="m132 59.04c-0.975-3.343-4.457-5.293-7.8-4.457l-9.332 2.646-4.596-10.31c-1.393-3.064-3.621-5.711-6.407-7.521l-10.86-7.103c-3.203-2.089-7.103-3.064-10.86-2.786l-16.02 1.254c-1.671 0.1393-3.204 0.975-4.318 2.229l-10.86 12.81c-2.229 2.646-1.95 6.686 0.6964 8.914 2.646 2.229 6.686 1.95 8.914-0.6964l9.193-10.86 9.611-0.6964-13.79 24.79c-0.975 1.811-1.254 4.039-0.5571 5.989 0.6964 1.95 2.089 3.621 4.039 4.596l21.31 10.03-11.84 16.16c-2.507 3.343-1.671 8.078 1.671 10.59 1.393 0.975 2.925 1.532 4.457 1.532 2.368 0 4.596-1.114 6.128-3.064l17.27-23.68c1.393-1.811 1.811-4.178 1.254-6.407-0.5571-2.229-2.089-4.039-4.178-5.014l-14.9-7.103 10.31-15.18 5.153 11.56c0.975 2.368 3.343 3.761 5.85 3.761 0.5572 0 1.114-0.1393 1.671-0.2786l14.62-4.039c3.203-0.8357 5.153-4.318 4.178-7.661z"/>
    <path d="m14.62 40.66h25.77c3.064 0 5.571-2.507 5.571-5.571 0-3.064-2.507-5.571-5.571-5.571h-25.77c-3.064 0-5.571 2.507-5.571 5.571 0 3.064 2.507 5.571 5.571 5.571z"/>
    <path d="m10.03 65.59h25.77c3.064 0 5.571-2.507 5.571-5.571s-2.507-5.571-5.571-5.571h-25.77c-3.064 0-5.571 2.507-5.571 5.571 0.1395 3.064 2.507 5.571 5.571 5.571z"/>
    <path d="m31.2 79.38h-25.63c-3.064 0-5.571 2.507-5.571 5.571 0 3.064 2.507 5.571 5.571 5.571h25.77c3.064 0 5.571-2.507 5.571-5.571 0-3.064-2.646-5.571-5.711-5.571z"/>
  </g>
</svg>
