<svg width="500" height="500" version="1.1" viewBox="0 0 132.3 132.3" xmlns="http://www.w3.org/2000/svg">
  <defs>
    <style type="text/css">.fil0 {fill:black;fill-rule:nonzero}</style>
  </defs>
  <path d="m122.3 57.08-1.532-0.975 1.532-1.254c1.811-1.393 2.925-3.761 2.925-6.129v-13.93c0-2.786-1.393-5.293-3.761-6.686l-44.85-27.02c-2.786-1.671-6.407-1.393-8.914 0.6964l-58.5 47.22c-1.95 1.532-2.925 3.761-2.925 6.129v14.07c0 2.786 1.393 5.293 3.761 6.825l1.532 0.975-1.532 1.254c-1.811 1.532-2.925 3.761-2.925 6.129v13.79c0 2.786 1.393 5.293 3.761 6.825l42.9 25.77c1.811 0.975 3.621 1.532 5.571 1.532 2.368 0 4.875-0.8357 6.825-2.368l56.83-45.96c1.95-1.393 2.925-3.761 2.925-6.129v-14.07c0.1393-2.646-1.393-5.293-3.621-6.686zm-59.75-32.73 8.078-6.546c1.114-0.8357 2.646-0.975 3.761-0.2786l23.54 14.21c1.95 1.114 2.089 3.9 0.4179 5.432l-8.078 6.546c-1.114 0.8357-2.646 0.975-3.761 0.2786l-23.68-14.21c-1.95-1.254-2.089-4.039-0.2786-5.432zm-49.86 44.85v-10.72l42.06 25.35c1.254 0.6964 2.646 1.114 4.039 1.114 1.811 0 3.482-0.6964 5.014-1.811l55.02-44.43v10.17c0 0.4179-0.1393 0.8357-0.5571 1.254l-56.83 45.96c-1.532 1.114-3.621 1.393-5.293 0.2786l-42.76-25.91c-0.5571-0.2786-0.6964-0.6964-0.6964-1.254zm107 8.636c0 0.5571-0.1393 0.975-0.5571 1.254l-56.69 45.82c-1.393 1.254-3.482 1.393-5.154 0.4178l-42.9-25.77c-0.4179-0.2786-0.6964-0.8357-0.6964-1.393v-10.72l42.2 25.35c1.254 0.6964 2.646 1.114 4.039 1.114 1.811 0 3.482-0.6964 4.875-1.811l55.02-44.43v10.17z" stroke-width="1.393"/>
</svg>
