<svg width="500" height="500" version="1.1" viewBox="0 0 132.3 132.3" xmlns="http://www.w3.org/2000/svg">
  <defs>
    <style type="text/css">.fil0 {fill:black;fill-rule:nonzero}</style>
  </defs>
  <path d="m28.93 124h74.42c3.418 0 6.191-2.826 6.191-6.218 0-3.393-2.8-6.218-6.191-6.218h-74.42c-3.418 0-6.194 2.826-6.194 6.218 0 3.393 2.803 6.218 6.194 6.218zm74.42-20.71h-74.42c-1.698 0-3.163-0.9764-3.778-2.466l-24.64-45.13c-0.36-0.6658-0.5129-1.284-0.5129-2.002 0-1.594 0.7948-2.878 2.158-3.597 1.105-0.618 2.34-0.669 3.418-0.258l33.56 11.21 23.26-50.42c0.6929-1.492 2.184-2.365 3.749-2.365 1.569 0 3.058 0.8744 3.753 2.365l23.26 50.42 33.56-11.21c1.078-0.4109 2.313-0.36 3.393 0.258 1.387 0.7184 2.184 2.002 2.184 3.597 0 0.7184-0.1545 1.336-0.5128 2.002l-24.65 45.13c-0.6419 1.491-2.082 2.467-3.777 2.467z" clip-rule="evenodd" fill-rule="evenodd" stroke-width="1.593"/>
</svg>
