<svg width="500" height="500" version="1.1" viewBox="0 0 132.3 132.3" xmlns="http://www.w3.org/2000/svg">
  <defs>
    <style type="text/css">.fil0 {fill:black;fill-rule:nonzero}</style>
  </defs>
  <g stroke-width=".2604">
    <path d="m82.03 26.46h7.943c1.458 0 2.656-1.172 2.656-2.656v-21.15c0-1.458-1.172-2.656-2.656-2.656h-7.943c-1.458 0-2.656 1.172-2.656 2.656v21.17c0 1.458 1.172 2.63 2.656 2.63z"/>
    <path d="m131.5 19.06-18.28-18.28c-0.4948-0.4948-1.172-0.7812-1.875-0.7812h-5.521v33.07c0 3.646-2.969 6.615-6.615 6.615h-66.15c-3.646 0-6.615-2.969-6.615-6.615v-33.07h-13.23c-7.318 0-13.23 5.911-13.23 13.23v105.8c0 7.318 5.911 13.23 13.23 13.23h105.8c7.318 0 13.23-5.911 13.23-13.23v-98.13c0-0.7031-0.2865-1.38-0.7812-1.875zm-25.68 93.39c0 3.646-2.969 6.615-6.615 6.615h-66.15c-3.646 0-6.615-2.969-6.615-6.615v-39.69c0-3.646 2.969-6.615 6.615-6.615h66.15c3.646 0 6.615 2.969 6.615 6.615z"/>
  </g>
</svg>
