<svg xmlns="http://www.w3.org/2000/svg" xmlns:xlink="http://www.w3.org/1999/xlink" version="1.1" x="0px" y="0px" viewBox="0 0 512 640" enable-background="new 0 0 512 512" xml:space="preserve">
	<g>
		<path d="M317,103.6h30.5c5.6,0,10.2-4.5,10.2-10.2V12.2c0-5.6-4.5-10.2-10.2-10.2H317c-5.6,0-10.2,4.5-10.2,10.2v81.3   C306.8,99.1,311.3,103.6,317,103.6z" />
		<path d="M507,75.2L436.8,5c-1.9-1.9-4.5-3-7.2-3h-21.2v127c0,14-11.4,25.4-25.4,25.4H129c-14,0-25.4-11.4-25.4-25.4V2H52.8   C24.7,2,2,24.7,2,52.8v406.4C2,487.3,24.7,510,52.8,510h406.4c28.1,0,50.8-22.7,50.8-50.8V82.4C510,79.7,508.9,77.1,507,75.2z    M408.4,433.8c0,14-11.4,25.4-25.4,25.4H129c-14,0-25.4-11.4-25.4-25.4V281.4c0-14,11.4-25.4,25.4-25.4h254   c14,0,25.4,11.4,25.4,25.4V433.8z" />
	</g>
</svg>
