<svg xmlns="http://www.w3.org/2000/svg" xmlns:xlink="http://www.w3.org/1999/xlink" version="1.1" x="0px" y="0px" viewBox="0 0 30 37.5" style="enable-background:new 0 0 30 30;" xml:space="preserve">
	<g>
		<g>
			<path d="M26.1,11.8l-1.3-0.3c-0.1-0.3-0.3-0.7-0.4-1l0.7-1.1c0.5-0.7,0.4-1.7-0.2-2.3l-2-2c-0.6-0.6-1.6-0.7-2.3-0.3l-1.1,0.7    c-0.3-0.1-0.7-0.3-1-0.4L18.2,4c-0.2-0.9-0.9-1.5-1.8-1.5h-2.8c-0.9,0-1.6,0.6-1.8,1.5l-0.3,1.3c-0.3,0.1-0.7,0.3-1,0.4L9.4,5    C8.7,4.5,7.7,4.6,7.2,5.2l-2,2C4.6,7.8,4.5,8.7,4.9,9.5l0.7,1.1c-0.2,0.3-0.3,0.7-0.4,1L4,11.8c-0.8,0.2-1.5,0.9-1.5,1.8v2.8    c0,0.9,0.6,1.6,1.5,1.8l1.3,0.3c0.1,0.4,0.3,0.7,0.4,1l-0.7,1.1c-0.5,0.7-0.4,1.7,0.3,2.3l2,2c0.6,0.6,1.5,0.7,2.3,0.2l1.1-0.7    c0.3,0.2,0.7,0.3,1,0.4l0.3,1.3c0.2,0.9,0.9,1.4,1.8,1.4h2.8c0.9,0,1.6-0.6,1.8-1.4l0.3-1.3c0.3-0.1,0.7-0.2,1-0.4l1.1,0.7    c0.7,0.5,1.7,0.4,2.3-0.2l2-2c0.6-0.6,0.7-1.6,0.2-2.3l-0.7-1.1c0.1-0.3,0.3-0.6,0.4-1l1.3-0.3c0.8-0.2,1.4-0.9,1.4-1.8v-2.8    C27.5,12.8,26.9,12,26.1,11.8z M17.4,7.8c0.9,0.3,1.8,0.8,2.6,1.5c-0.4,0.4-0.9,0.7-1.4,1C18.3,9.4,18,8.5,17.4,7.8    C17.4,7.8,17.4,7.8,17.4,7.8z M15.5,7.5c1.1,0.5,1.7,2.1,2.1,3.2c-0.7,0.2-1.4,0.4-2.1,0.4V7.5z M15.5,12.3c0.8,0,1.6-0.2,2.3-0.5    c0.2,0.8,0.3,1.7,0.3,2.7h-2.6V12.3z M15.5,15.5h2.6c0,0.9-0.1,1.8-0.3,2.7c-0.7-0.3-1.5-0.4-2.3-0.5V15.5z M12.6,7.8    c-0.5,0.7-0.9,1.6-1.2,2.5c-0.5-0.3-1-0.6-1.4-1C10.8,8.6,11.6,8.1,12.6,7.8z M9.2,10.1c0.6,0.5,1.2,1,1.9,1.3    c-0.2,1-0.3,2-0.4,3.1H7.4C7.5,12.8,8.1,11.3,9.2,10.1z M9.2,19.9c-1.1-1.2-1.7-2.8-1.8-4.4h3.4c0,1.1,0.2,2.1,0.4,3.1    C10.4,19,9.8,19.4,9.2,19.9z M10,20.7c0.4-0.4,0.9-0.7,1.4-1c0.3,0.9,0.6,1.8,1.2,2.5C11.6,21.9,10.7,21.4,10,20.7z M14.5,22.5    c-1.1-0.5-1.7-2.1-2.1-3.2c0.7-0.2,1.3-0.4,2.1-0.4V22.5z M14.5,17.7c-0.8,0.1-1.6,0.2-2.3,0.5c-0.2-0.8-0.3-1.7-0.3-2.7h2.6V17.7    z M14.5,14.5h-2.6c0-0.9,0.1-1.8,0.3-2.7c0.7,0.3,1.5,0.4,2.3,0.5V14.5z M14.5,11.2c-0.7-0.1-1.4-0.2-2.1-0.4    c0.3-1.1,1-2.7,2.1-3.2V11.2z M15.5,22.5v-3.7c0.7,0,1.4,0.2,2.1,0.4c-0.1,0.5-0.3,0.9-0.5,1.3C16.7,21.6,16.1,22.2,15.5,22.5z     M17.4,22.2C17.4,22.2,17.4,22.2,17.4,22.2c0.5-0.8,0.9-1.6,1.2-2.5c0.5,0.3,1,0.6,1.4,1C19.3,21.4,18.4,21.9,17.4,22.2z     M20.8,19.9c-0.6-0.5-1.2-1-1.9-1.3c0.2-1,0.3-2,0.4-3.1h3.4C22.5,17.1,21.9,18.7,20.8,19.9z M19.2,14.5c0-1.1-0.1-2.1-0.4-3.1    c0.7-0.3,1.3-0.8,1.9-1.3c1.1,1.3,1.7,2.8,1.8,4.4H19.2z" />
		</g>
	</g>
</svg>
