<svg width="500" height="500" viewBox="0 0 132.29 132.29" xmlns="http://www.w3.org/2000/svg"><defs><clipPath id="a"><path d="M406.73 249.15h11.027v11.027H406.73z"/></clipPath></defs><g clip-path="url(#a)" transform="translate(-4879.4 -2989) scale(11.997)"><path d="M412.24 257.29a2.622 2.622 0 0 1-2.617-2.617 2.62 2.62 0 0 1 2.617-2.617 2.62 2.62 0 0 1 2.617 2.617 2.622 2.622 0 0 1-2.617 2.617m3.613-3.125a3.65 3.65 0 0 0-3.105-3.105v-1.899h-1.016v1.899a3.654 3.654 0 0 0-3.105 3.105h-1.899v1.016h1.899a3.654 3.654 0 0 0 3.105 3.105v1.899h1.016v-1.899a3.65 3.65 0 0 0 3.105-3.105h1.903v-1.016z"/></g><path d="M66.243 76.473c-5.623 0-10.216-4.592-10.216-10.216s4.593-10.216 10.216-10.216S76.46 60.634 76.46 66.257s-4.592 10.216-10.216 10.216"/></svg>