<svg width="500" height="500" version="1.1" viewBox="0 0 132.3 132.3" xmlns="http://www.w3.org/2000/svg">
  <defs>
    <style type="text/css">.fil0 {fill:black;fill-rule:nonzero}</style>
  </defs>
  <path d="m37.48 114.4c-2.774-20.51-12.73-21.42-12.73-21.42s-12.01-2.295-11.94-6.802c0.08106-5.07 4.745-8.728 1.55-15.55-2.27-4.847 1.359-8.566 1.226-11.69-0.226-5.426-3.725-6.89-2.423-18.75 2.584-23.48 13.61-39.69 53.83-40.18 40.08-0.489 48.58 14.7 52 35.53 0.4078 2.464 0.6266 4.198 0.4054 9.229-0.4692 10.74-1.757 11.22-1.87 14.77-0.0958 3.032 2.157 6.033 0.5676 11.09-2.764 8.791 1.784 10.4 0.9116 15.47-0.8058 4.664-10.83 7.768-12.34 8.121-6.572 1.541-9.285 8.985-11.5 20.79-1.012 5.387-2.359 9.419-4.6 13.04-1.256 2.027-2.307 3.253-3.101 3.994-0.2948 0.2653-0.7197 0.3292-1.078 0.1622-0.3588-0.1646-0.5846-0.5306-0.5726-0.9285 0.1106-3.12 0.2653-9.363-0.09828-12.76-0.2973-2.779-0.2015-11.14-2.309-13.06-2.663-2.42-12.7-0.4568-17.18-0.1474-6.992 0.4791-14.42-4.106-17.86 1.057-1.73 2.594-1.167 8.971-1.442 11.54-0.3613 3.4-0.2088 9.642-0.09828 12.76 0.01228 0.3979-0.2113 0.7617-0.5726 0.9285-0.3588 0.1671-0.7839 0.1032-1.078-0.1621-0.7934-0.7419-1.845-1.968-3.101-3.994-2.243-3.62-3.867-7.61-4.6-13.04zm68.19-46.53c-0.7394-2.12-3.501-8.848-8.883-8.283-2.626 0.2776-7.567 1.169-9.067 2.717-1.499 1.548-5.38 2.184-6.11 2.307-0.7296 0.1228-4.868 0.0737-5.182 1.528-0.312 1.457-1.275 4.159 0.01718 6.357 1.292 2.196 6.322 5.817 9.433 5.256 3.11-0.5627 7.285 1.747 10.4 2.523 3.68 0.9215 8.128 1.486 9.691-4.286 0.7052-2.607 0.0491-7.13-0.2948-8.121zm-77.89 1.661c0.6781-0.7984 3.711-10.44 8.35-9.959 2.626 0.2727 7.123 1.209 8.657 2.722 1.536 1.513 5.648 2.194 6.382 2.299 0.732 0.1056 5.119-0.3905 5.468 1.059 0.3464 1.45 1.371 4.131 0.1302 6.357-1.241 2.226-6.188 5.962-9.31 5.475-3.125-0.489-7.73 0.7839-10.84 1.567-3.14 0.7909-6.611 3.979-9.127-1.398-1.145-2.447-0.3881-7.324 0.2899-8.121" fill-rule="evenodd" stroke-width=".3528"/>
</svg>
