<svg width="500" height="500" version="1.1" viewBox="0 0 132.3 132.3" xmlns="http://www.w3.org/2000/svg">
  <g transform="matrix(.7131 0 0 .7131 22.87 -107.5)">
    <path d="m26.25 234.5c-0.1971 0.5926-0.1971 1.185-0.1971 1.778v32.79c0 0.3955 0 0.7896 0.1971 1.384 0.1971 1.185 7.112 32.4 8.1 36.55 0.3955 7.902 0.7896 15.61 1.185 23.51 0.1971 3.161 2.766 5.532 5.728 5.532l49.59 0.1971c0.7896 0 1.581-0.1971 2.37-0.5926 0.3955-0.1971 0.7896-0.3955 0.9881-0.5926 0.3955-0.1971 0.5926-0.5926 0.9881-0.7896 1.185-1.185 1.581-2.963 1.384-4.742-0.1971-0.7896-2.37-18.57 10.47-22.32 13.04-4.346 15.21-16 16.99-25.48 0.3955-2.173 0.7896-4.543 1.384-6.717 0-0.3955 0.1971-0.5926 0.1971-0.9881v-0.5926c0-0.5926 0-0.9881-0.1971-1.384 0-0.1971 0-0.3955-0.1971-0.3955v-0.1971c0-0.1971-0.197-0.1971-0.197-0.3955-0.1971-0.3955-0.3955-0.5926-0.5926-0.9881-1.185-1.384-2.766-2.173-4.742-2.173-7.705 0-15.21 0.1971-22.92 0.1971v-0.3955c0-15.01-0.1971-51.56-0.1971-51.56 0-2.37-1.384-4.543-3.754-5.334-7.112-2.766-16-2.963-24.69-1.778-1.976 0.1971-3.951 0.5926-5.728 0.9881-6.124 1.384-11.85 3.358-16.79 5.728-1.581 0.7896-3.161 1.581-4.939 2.569-0.7896 0.5926-1.778 0.9881-2.569 1.581h-0.1971c-0.7896 0.5926-1.778 1.185-2.569 1.778-3.952 3.557-7.509 7.706-9.088 12.84m-27.66-45.64c-1.185-2.569-1.384-4.939-1.185-6.915l-16.79 14.03s-5.728 4.742-0.9881 10.67l40.5 43.66v-11.46zm27.86-20.55-18.77 8.297s-6.915 3.161-3.754 10.07l18.37 42.28c2.766-5.532 7.309-9.878 12.05-13.24l-8.494-39.12c-0.791-3.36-0.3955-6.125 0.5926-8.298m-10.67-1.581 22.52-10.07-0.5926-0.5926c-0.1971 0-0.1971-0.197-0.3955-0.197 0 0-0.1971 0-0.1971-0.1971-0.1971 0-0.1971-0.1971-0.3955-0.1971 0 0-0.1971 0-0.1971-0.1971-0.1971 0-0.3955-0.1971-0.5926-0.1971h-0.1971c-0.1971-0.197-0.3955-0.197-0.7896-0.197-0.1971 0-0.3955-0.1971-0.5926-0.1971h-1.776c-0.1971 0-0.5926 0-0.9881 0.1971h-0.1971c-0.1971 0-0.3955 0.197-0.7896 0.197-0.1971 0-0.1971 0-0.3955 0.1971-0.1971 0.1971-0.3955 0.1971-0.5926 0.3955-0.1971 0-0.1971 0.1971-0.1971 0.1971-0.3955 0.1971-0.5926 0.3955-0.9881 0.7896zm36.15-3.16-5.136 0.9881-9.482 1.778s-7.309 1.384-5.927 8.89l8.1 37.14c1.185-0.7896 2.569-1.384 3.754-1.976 5.927-2.766 12.64-4.939 19.16-6.322l-0.0014-34.37c0-3.754 1.185-6.519 2.963-8.693zm-3.16-5.334 24.5-4.742c-0.1971-0.1971-0.3955-0.3955-0.5926-0.5926-0.3955-0.3955-0.9881-0.7896-1.581-1.185 0 0-0.1971 0-0.1971-0.197-0.1971-0.1971-0.3955-0.1971-0.7896-0.3955 0 0-0.1971 0-0.1971-0.1971-0.3955-0.1971-0.5926-0.1971-0.9881-0.1971h-1.581c-0.3955 0-0.5926 0-0.9881 0.1971h-0.3955c-0.3955 0.1971-0.9881 0.1971-1.581 0.5926zm40.7-1.976h14.42c-0.5926-0.5926-1.384-0.9881-2.173-1.384-0.197 0-0.197-0.197-0.3955-0.197h-2.569c-0.3955 0-0.7896 0-1.185 0.197zm54.13 103.9v-90.48s0-7.507-7.309-7.507h-60.65s-7.309 0-7.309 7.507v33.58c3.358-0.3955 6.519-0.7896 9.681-0.7896 6.519 0 12.25 0.9881 17.19 2.963 4.543 1.778 7.309 5.927 7.309 10.87l0.1971 46.03 16.99-0.1971c3.754 0 7.112 1.581 9.285 4.543 0.1971 0.3955 0.5926 0.7896 0.7896 1.185h6.322c1e-3 -0.1984 7.507-0.1984 7.507-7.705" stroke-width=".3528"/>
  </g>
</svg>
