<svg width="500" height="500" version="1.1" viewBox="0 0 132.3 132.3" xmlns="http://www.w3.org/2000/svg">
  <defs>
    <style type="text/css">.fil0 {fill:black;fill-rule:nonzero}</style>
  </defs>
  <g stroke-width="2.799">
    <path d="m70.69 130.2s11.76-1.444 11.76-13.2a37.04 37.04 0 0 0-5.103-15.51l-1.831-3.124a9.07 9.07 0 0 1-0.1932 3.589 7.807 7.807 0 0 1-1.783 2.718 14.97 14.97 0 0 0-2.304-7.575 23.25 23.25 0 0 0-7.192-7.197 13.36 13.36 0 0 1 1.307 4.876c-0.05599 1.993-0.6858 3.194-3.684 7.091a14.89 14.89 0 0 0-2.239 9.716 11.54 11.54 0 0 0-0.9714-2.335 13.07 13.07 0 0 0-4.168-3.421 6.735 6.735 0 0 1-0.4199 6.212c-2.483 3.079-4.462 5.4-3.919 10.03 0.9014 7.662 12 8.093 12 8.093z" fill-rule="evenodd"/>
    <circle cx="59.85" cy="15.54" r="3.964"/>
    <circle cx="44.19" cy="5.663" r="5.663"/>
    <circle cx="85.69" cy="19.48" r="4.557"/>
    <circle cx="74.82" cy="32.37" r="5.817"/>
    <path d="m37.96 111-12.45 17.96a2.1 2.1 0 1 0 3.452 2.391l12.88-18.57c-0.4451-0.1568-0.879-0.3219-1.296-0.5151-0.893-0.4031-1.738-0.837-2.587-1.268z"/>
    <path d="m90.48 112.8 12.84 18.53a2.1 2.1 0 1 0 3.452-2.391l-12.38-17.87c-0.9266 0.4311-1.859 0.8594-2.819 1.246-0.2351 0.1148-0.6299 0.2939-1.092 0.4815z"/>
    <path d="m108 37.37a6.231 6.231 0 0 1-0.14 1.008l-1.764 1.008a27.73 27.73 0 0 1-6.942 2.072 229.1 229.1 0 0 1-32.98 2.016 274.5 274.5 0 0 1-34.74-2.127 61.78 61.78 0 0 1-7.894-2.072 7.838 7.838 0 0 1-0.2519-1.848 5.817 5.817 0 0 1 8.734-5.011l0.168-0.05599a6.83 6.83 0 0 1-0.168-1.54 6.718 6.718 0 0 1 13.38-0.6438 7.838 7.838 0 0 1 3.163-1.26 9.185 9.185 0 0 0 5.543 10.3 9.333 9.333 0 0 0 3.387 0.6438 9.022 9.022 0 0 0 7.81-4.423 5.537 5.537 0 0 0 0.3359 0.8678 10.03 10.03 0 0 0 5.487 5.375 10.06 10.06 0 0 0 13.02-5.599 9.742 9.742 0 0 0 0.112-6.942 0.4143 0.4143 0 0 1 0.196 0.02799 4.708 4.708 0 0 1 1.26 0.7558 7.793 7.793 0 0 1 1.624-0.168 7.701 7.701 0 0 1 5.459 2.267 8.196 8.196 0 0 1 6.466-3.191 8.958 8.958 0 0 1 8.734 8.538z"/>
    <path d="m108.4 42.85-0.4283 0.2407a31.63 31.63 0 0 1-8.272 2.519 235.8 235.8 0 0 1-33.59 2.055 274.2 274.2 0 0 1-35.34-2.175 55.91 55.91 0 0 1-7.614-1.92 38.97 38.97 0 0 0-9.991 25.64c0 17.15 12.07 31.45 29.08 39.25a18.05 18.05 0 0 0 3.785 1.05 8.518 8.518 0 0 0 4.328-0.0308 0.4171 0.4171 0 0 0 0.1736-0.1036c0.1736-0.2128 0.2407-0.7502 0-2.153a34.49 34.49 0 0 0-4.479-10.64l10.48 5.694a13.95 13.95 0 0 1 1.755-3.006c2.783-3.62 2.799-4.028 2.799-4.647a12.16 12.16 0 0 0-1.078-4.165 81.04 81.04 0 0 0-5.557-10.64l11.55 6.377a27.99 27.99 0 0 1 8.684 8.56c0.4899 0.8846 1.016 1.702 1.4 2.542l0.8006-5.064 4.048 7.108a55.92 55.92 0 0 1 4.417 10.18 6.998 6.998 0 0 0 0.9602-0.0616 22.37 22.37 0 0 0 3.664-0.9882c17.34-6.998 29.06-22.11 29.06-39.26a39.14 39.14 0 0 0-10.63-26.36z"/>
    <path d="m55.65 35.31a4.902 4.902 0 1 0-2.729-6.371 4.902 4.902 0 0 0 2.729 6.371z" fill-rule="evenodd"/>
  </g>
</svg>
