<svg width="500" height="500" version="1.1" viewBox="0 0 132.3 132.3" xmlns="http://www.w3.org/2000/svg">
  <defs>
    <style type="text/css">.fil0 {fill:black;fill-rule:nonzero}</style>
  </defs>
  <g stroke-width=".27">
    <path d="m23.13 118.8c0.1814 3.627 1.749 7.046 4.377 9.552 2.628 2.505 6.119 3.906 9.75 3.914h57.64c3.639 4e-3 7.142-1.391 9.781-3.898 2.639-2.507 4.211-5.932 4.393-9.568l4.252-81.03c4.22-0.4219 7.894-3.064 9.638-6.929 1.745-3.865 1.295-8.368-1.181-11.81-2.475-3.443-6.6-5.305-10.82-4.883h-16.54c0-3.76-1.493-7.364-4.151-10.02-2.659-2.658-6.263-4.151-10.02-4.151h-28.35c-3.76 0-7.364 1.493-10.02 4.151-2.658 2.659-4.151 6.263-4.151 10.02h-16.54c-4.22-0.3797-8.322 1.521-10.76 4.985-2.439 3.464-2.844 7.968-1.063 11.81 1.78 3.844 5.478 6.447 9.697 6.827zm76.49-0.4725c-0.06117 1.212-0.5853 2.354-1.465 3.189-0.8796 0.8353-2.047 1.3-3.26 1.299h-57.64c-1.213 1e-3 -2.38-0.464-3.26-1.299-0.8796-0.8353-1.404-1.977-1.465-3.189l-4.016-80.56h75.36zm-47.72-108.9h28.35c1.253 0 2.455 0.4978 3.341 1.384 0.8859 0.8859 1.384 2.088 1.384 3.341h-37.8c0-1.253 0.4978-2.455 1.384-3.341 0.8859-0.8859 2.088-1.384 3.341-1.384zm-30.71 14.17h89.77c1.305 0 2.362 1.058 2.362 2.362 0 1.305-1.058 2.362-2.362 2.362h-89.77c-1.305 0-2.362-1.058-2.362-2.362 0-1.305 1.058-2.362 2.362-2.362z"/>
    <path d="m61.36 51.97h9.449v56.7h-9.449z"/>
    <path d="m80.25 61.42h9.449v37.8h-9.449z"/>
    <path d="m42.46 61.42h9.449v37.8h-9.449z"/>
  </g>
</svg>
