<svg width="500" height="500" version="1.1" viewBox="0 0 132.3 132.3" xmlns="http://www.w3.org/2000/svg">
  <defs>
    <style type="text/css">.fil0 {fill:black;fill-rule:nonzero}</style>
  </defs>
  <g fill="#2385c5" stroke-width="14.08">
    <path d="m103.2 26.24h15.73a66.88 66.88 0 0 0-29.93-22.17c3.464 3.295 6.605 7.422 9.407 12.32 1.76 3.028 3.352 6.323 4.788 9.844"/>
    <path d="m122.7 100.6a66.23 66.23 0 0 0 9.632-33.71h-21.95a111.6 111.6 0 0 1-5.225 33.71z"/>
    <path d="m132.1 61.3a66.53 66.53 0 0 0-9.463-29.6h-17.49a110.7 110.7 0 0 1 5.112 29.6z"/>
    <path d="m69.29 106.1v26.02c10.84-1.211 20.69-10.62 27.29-26.02z"/>
    <path d="m63.09 131.9v-25.74h-25.63c6.21 14.52 15.45 23.81 25.63 25.74"/>
    <path d="m63.09 26.24v-25.91c-10.24 1.873-19.53 11.28-25.69 25.91z"/>
    <path d="m69.85 0.183h-0.6056v26.12h27.33c-6.436-15.18-16.17-24.69-26.73-26.12"/>
    <path d="m30.84 106.1h-17.43a66.3 66.3 0 0 0 32.84 23.17c-3.971-3.521-7.605-8.027-10.73-13.49a75.24 75.24 0 0 1-4.675-9.675"/>
    <path d="m13.38 26.24h17.38c1.38-3.521 2.971-6.816 4.732-9.858a53.65 53.65 0 0 1 10.41-13.2 66.51 66.51 0 0 0-32.52 23.05"/>
    <path d="m118.9 106.1h-15.79a68.71 68.71 0 0 1-4.675 9.689 52.43 52.43 0 0 1-9.745 12.59 66.1 66.1 0 0 0 30.21-22.28"/>
    <path d="m9.717 31.73a65.62 65.62 0 0 0-9.463 29.6h23.49a108.6 108.6 0 0 1 5.07-29.6z"/>
    <path d="m-5.64e-5 66.79c0.1127 11.94 3.408 23.6 9.632 33.71h19.14a113 113 0 0 1-5.225-33.71z"/>
    <path d="m63.09 61.44v-29.6h-27.84a107.5 107.5 0 0 0-5.281 29.6zm6.196-29.57v29.6h34.77a105.4 105.4 0 0 0-5.351-29.6zm-6.196 68.72v-33.71h-33.23c0.07041 11.93 1.986 23.53 5.45 33.71zm6.196-33.66v33.71h29.38c3.521-10.11 5.394-21.77 5.492-33.71z"/>
  </g>
</svg>
