<svg xmlns="http://www.w3.org/2000/svg" xmlns:xlink="http://www.w3.org/1999/xlink" version="1.1" x="0px" y="0px" viewBox="0 0 30 37.5" enable-background="new 0 0 30 30" xml:space="preserve">
	<g>
		<path fill-rule="evenodd" clip-rule="evenodd" d="M5,7.7c0-0.5,0.2-0.9,0.5-1.3l4.4-5.1c0.2-0.3,0.6-0.4,1-0.3s0.6,0.3,0.8,0.7   l0.2,0.5c0.2,0.5,0.1,1.1-0.1,1.5L10,7h5.5c0.3,0,0.6,0.2,0.8,0.4c0.2,0.3,0.2,0.6,0.1,0.9l-2.9,7.4c-0.3,0.8-1,1.3-1.9,1.3L6,17   c-0.6,0-1-0.4-1-1L5,7.7z" />
		<path fill-rule="evenodd" clip-rule="evenodd" d="M3,8c0-0.6-0.4-1-1-1H0l0,10h2c0.6,0,1-0.4,1-1V8z" />
		<path fill-rule="evenodd" clip-rule="evenodd" d="M25,22.3c0,0.5-0.2,0.9-0.5,1.3l-4.4,5.1c-0.2,0.3-0.6,0.4-1,0.3   s-0.6-0.3-0.8-0.7l-0.2-0.5c-0.2-0.5-0.1-1.1,0.1-1.5L20,23h-5.5c-0.3,0-0.6-0.2-0.8-0.4s-0.2-0.6-0.1-0.9l2.9-7.4   c0.3-0.8,1-1.3,1.9-1.3H24c0.6,0,1,0.4,1,1L25,22.3z" />
		<path fill-rule="evenodd" clip-rule="evenodd" d="M27,22c0,0.6,0.4,1,1,1h2l0-10l-2,0c-0.6,0-1,0.4-1,1V22z" />
	</g>
</svg>
