<?xml version="1.0" encoding="UTF-8"?>
<svg width="700pt" height="700pt" version="1.1" viewBox="0 0 700 700" xmlns="http://www.w3.org/2000/svg">
 <g>
  <path d="m190.93 475.12c0.67188 13.434 6.4766 26.098 16.211 35.379 9.7344 9.2773 22.664 14.469 36.113 14.496h213.5c13.48 0.015625 26.453-5.1523 36.227-14.438 9.7734-9.2852 15.598-21.973 16.273-35.438l15.75-300.12c15.629-1.5625 29.238-11.348 35.699-25.664 6.4648-14.316 4.7969-30.996-4.375-43.75-9.168-12.754-24.445-19.648-40.074-18.086h-61.25c0-13.926-5.5312-27.277-15.375-37.125-9.8477-9.8438-23.199-15.375-37.125-15.375h-105c-13.926 0-27.277 5.5312-37.125 15.375-9.8438 9.8477-15.375 23.199-15.375 37.125h-61.25c-15.629-1.4062-30.824 5.6328-39.855 18.465-9.0352 12.832-10.535 29.512-3.9375 43.75 6.5938 14.238 20.289 23.879 35.918 25.285zm283.32-1.75c-0.22656 4.4883-2.168 8.7188-5.4258 11.812-3.2578 3.0938-7.582 4.8164-12.074 4.8125h-213.5c-4.4922 0.003906-8.8164-1.7188-12.074-4.8125-3.2578-3.0938-5.1992-7.3242-5.4258-11.812l-14.875-298.38h279.12zm-176.75-403.38h105c4.6406 0 9.0938 1.8438 12.375 5.125s5.125 7.7344 5.125 12.375h-140c0-4.6406 1.8438-9.0938 5.125-12.375s7.7344-5.125 12.375-5.125zm-113.75 52.5h332.5c4.832 0 8.75 3.918 8.75 8.75s-3.918 8.75-8.75 8.75h-332.5c-4.832 0-8.75-3.918-8.75-8.75s3.918-8.75 8.75-8.75z"/>
  <path d="m332.5 227.5h35v210h-35z"/>
  <path d="m402.5 262.5h35v140h-35z"/>
  <path d="m262.5 262.5h35v140h-35z"/>
 </g>
</svg>
