<svg xmlns="http://www.w3.org/2000/svg" xmlns:xlink="http://www.w3.org/1999/xlink" version="1.1" x="0px" y="0px" viewBox="0 0 100 125" enable-background="new 0 0 100 100" xml:space="preserve">
	<path d="M89.95,65.2c-4.061,4.06-9.46,6.3-15.2,6.3s-11.14-2.24-15.2-6.3l-6.72-6.72l5.65-5.65l6.72,6.72  c2.55,2.55,5.939,3.95,9.55,3.95c3.6,0,6.99-1.4,9.54-3.95c5.27-5.27,5.27-13.83,0-19.1c-2.55-2.55-5.94-3.95-9.54-3.95  c-3.61,0-7,1.4-9.55,3.95l-6.72,6.72L55.66,50L50,55.66l-2.83,2.82l-6.72,6.72c-4.06,4.06-9.46,6.3-15.2,6.3s-11.14-2.24-15.2-6.3  c-4.06-4.061-6.3-9.46-6.3-15.2s2.24-11.14,6.3-15.2c4.06-4.06,9.46-6.3,15.2-6.3s11.14,2.24,15.2,6.3l6.72,6.72l-5.65,5.65  l-6.72-6.72c-2.55-2.55-5.94-3.95-9.55-3.95c-3.6,0-6.99,1.4-9.54,3.95c-2.56,2.56-3.96,5.95-3.96,9.55c0,3.6,1.4,7,3.96,9.54  c2.55,2.56,5.94,3.96,9.54,3.96c3.61,0,7-1.4,9.55-3.95l6.72-6.72L44.34,50L50,44.34l2.83-2.82l6.72-6.72  c4.061-4.06,9.46-6.3,15.2-6.3s11.14,2.24,15.2,6.3C98.33,43.18,98.33,56.82,89.95,65.2z" />
</svg>
