<?xml version="1.0" standalone="no"?>
<!DOCTYPE svg PUBLIC "-//W3C//DTD SVG 20010904//EN"
 "http://www.w3.org/TR/2001/REC-SVG-20010904/DTD/svg10.dtd">
<svg version="1.0" xmlns="http://www.w3.org/2000/svg"
 width="500.000000pt" height="500.000000pt" viewBox="0 0 500.000000 500.000000"
 preserveAspectRatio="xMidYMid meet">

<g transform="translate(0.000000,500.000000) scale(0.100000,-0.100000)"
fill="#000000" stroke="none">
<path d="M2110 4590 c-287 -36 -564 -180 -775 -401 -138 -146 -233 -301 -295
-487 -44 -130 -61 -247 -67 -449 l-6 -183 -28 0 c-61 0 -142 -41 -205 -104
-81 -82 -92 -123 -100 -367 -8 -228 5 -389 36 -448 49 -97 148 -172 250 -189
l45 -8 7 -164 c9 -214 21 -305 53 -415 97 -335 345 -635 653 -793 112 -58 237
-103 349 -128 67 -15 127 -17 433 -16 531 3 583 11 816 126 157 78 261 154
375 274 105 110 177 213 239 345 88 185 115 313 128 607 l7 164 45 8 c102 17
201 92 250 189 36 70 50 331 31 564 -13 147 -25 180 -96 251 -62 63 -143 104
-204 104 l-28 0 -6 183 c-8 265 -37 403 -127 594 -121 258 -346 490 -595 612
-55 27 -136 61 -180 75 -172 55 -195 58 -580 61 -198 2 -389 0 -425 -5z m-78
-771 c86 -18 158 -58 224 -123 76 -77 102 -126 116 -226 15 -100 0 -211 -39
-281 -37 -70 -130 -154 -210 -192 -64 -30 -75 -32 -178 -32 -105 0 -114 2
-177 33 -176 86 -280 277 -249 456 42 250 274 415 513 365z m1079 -224 c23 -3
50 -19 73 -41 57 -56 68 -86 64 -175 -3 -69 -6 -81 -34 -116 -42 -51 -82 -73
-147 -80 -70 -7 -119 10 -174 60 -127 117 -66 324 107 357 19 4 44 6 55 4 11
-1 36 -5 56 -9z m-1139 -1236 l3 -161 33 -29 c46 -42 93 -40 138 5 l34 34 0
156 0 156 540 0 540 0 -2 -437 -3 -438 -135 0 -135 0 -5 158 -5 159 -34 30
c-29 26 -39 30 -74 25 -25 -3 -50 -16 -66 -31 -26 -26 -26 -29 -29 -186 l-3
-160 -517 2 -517 3 -3 438 -2 437 119 0 119 0 4 -161z"/>
</g>
</svg>
