<svg width="500" height="500" version="1.1" viewBox="0 0 132.3 132.3" xmlns="http://www.w3.org/2000/svg">
  <defs>
    <style type="text/css">.fil0 {fill:black;fill-rule:nonzero}</style>
    <style type="text/css">.fil0 {fill:none}
			.fil1 {fill:black}</style>
  </defs>
  <g stroke-width="1.393">
    <path d="m121.1 115.9-41.22-29.38 1.253-26.6 30.77 5.431c0.4178 0.1393 0.8355 0.1393 1.393 0.1393 3.621 0 6.823-2.507 7.38-6.266 0.6963-4.038-1.95-8.077-6.127-8.773l-98.31-17.41c-4.178-0.6963-8.077 1.95-8.773 6.127-0.6963 4.038 1.95 8.077 6.127 8.773l30.64 5.431-0.9748 26.88-20.75 11.28c-3.899 2.089-5.709 6.823-4.178 11l8.355 23.67c1.253 3.76 4.874 5.988 8.494 5.988 0.9748 0 2.089-0.1393 3.064-0.557 4.735-1.671 7.241-6.823 5.57-11.56l-5.849-16.43 19.77-10.58 52.78 37.6c1.532 1.114 3.481 1.671 5.292 1.671 2.785 0 5.57-1.393 7.38-3.76 2.924-4.178 1.95-9.748-2.089-12.67z"/>
    <path d="m67.51 36.21c10.03 0.1393 18.24-7.937 18.24-17.96 0-10.03-7.798-18.1-17.82-18.24-10.03-0.1393-18.24 7.937-18.24 17.96-0.1393 10.03 7.798 18.24 17.82 18.24z"/>
  </g>
</svg>
