<?xml version="1.0" encoding="UTF-8"?>
<svg width="1200pt" height="1200pt" version="1.1" viewBox="0 0 1200 1200" xmlns="http://www.w3.org/2000/svg">
 <path d="m319.05 869.84v84.129c0 15.871-15.871 28.57-38.094 28.57h-180.95c-20.637 0-38.094-12.699-38.094-28.57 0-77.777-19.047-325.4 17.461-363.49h-74.602c-17.461-34.922 15.871-71.43 49.207-92.062 23.809-1.5859 46.031-3.1758 69.84-3.1758 28.57-61.906 57.145-122.22 85.715-182.54 23.809-44.445 82.539-73.016 173.02-85.715 146.03-12.699 288.89-12.699 434.92 0 90.477 12.699 149.21 41.27 171.43 85.715 28.57 60.316 57.145 120.64 85.715 182.54 23.809 0 47.617 1.5859 71.43 3.1758 33.332 20.637 66.668 57.145 47.617 92.062h-73.016c34.922 38.094 17.461 285.71 17.461 363.49 0 15.871-17.461 28.57-38.094 28.57h-182.54c-20.637 0-38.094-12.699-38.094-28.57v-84.129zm173.02-122.22h214.29c7.9375 0 14.285 6.3477 14.285 14.285v50.793c0 7.9375-6.3477 14.285-14.285 14.285h-214.29c-6.3477 0-12.699-6.3477-12.699-14.285v-50.793c0-7.9375 6.3477-14.285 12.699-14.285zm-112.7-468.25c-44.445 4.7617-73.016 19.047-92.062 39.684-23.809 57.145-47.617 115.87-71.43 173.02 252.38 42.855 515.87 42.855 768.25 0-23.809-57.145-49.207-115.87-73.016-173.02-19.047-20.637-46.031-34.922-90.477-39.684-147.62-14.285-293.65-14.285-441.27 0zm574.6 349.21c-57.145 0-104.76 20.637-104.76 44.445s47.617 44.445 104.76 44.445c57.145 0 103.18-20.637 103.18-44.445s-46.031-44.445-103.18-44.445zm-707.94 0c57.145 0 103.18 20.637 103.18 44.445s-46.031 44.445-103.18 44.445c-57.145 0-104.76-20.637-104.76-44.445s47.617-44.445 104.76-44.445z" fill-rule="evenodd"/>
</svg>
