<svg xmlns="http://www.w3.org/2000/svg" xmlns:xlink="http://www.w3.org/1999/xlink" version="1.1" x="0px" y="0px" viewBox="0 0 90 112.5" enable-background="new 0 0 90 90" xml:space="preserve">
	<path d="M31.449,68.689c-0.043,0.428-0.006,0.875,0.15,1.318c0.381,1.068,1.275,1.938,2.334,2.266  c0.984,0.311,1.963,0.104,2.26-0.219l2.053-2.203c0.594-0.635,0.744-1.65,0.395-2.635c-0.859-1.646-2.01-2.24-3.484-2.506  L31.449,68.689z" />
	<path d="M28.703,57.674l-3.588,3.848c-0.729,0.793-0.938,2.012-0.531,3.18c0.432,1.234,1.463,2.238,2.697,2.613  c1.168,0.35,2.34,0.078,3.074-0.703l3.322-3.563c0.734-0.791,0.938-2.004,0.531-3.172c-0.432-1.24-1.469-2.24-2.697-2.613  C30.531,56.951,29.381,56.939,28.703,57.674z" />
	<path d="M21.59,51.342l-3.313,3.557c-0.73,0.787-0.934,2.01-0.531,3.182c0.432,1.23,1.463,2.234,2.697,2.609  c1.166,0.355,2.35,0.078,2.719-0.313l3.678-3.947c0.734-0.793,0.938-2.012,0.531-3.178c-0.434-1.238-1.465-2.238-2.699-2.609  C23.537,50.273,22.281,50.602,21.59,51.342z" />
	<path d="M15.109,44.33l-3.672,3.949c-0.734,0.791-0.938,2.004-0.531,3.166c0.428,1.244,1.465,2.244,2.699,2.619  c1.166,0.348,2.348,0.078,2.713-0.318L20,49.799v-0.004c0.734-0.781,0.938-1.996,0.531-3.162c-0.426-1.244-1.463-2.244-2.697-2.615  C16.891,43.693,15.75,43.637,15.109,44.33z" />
	<path d="M62.781,20.779c-2.375,1.328-5.676,1.566-8.891,1.797c-2.432,0.166-4.941,0.342-6.744,1.008l-10.025,3.699  c-0.068,0.027-0.137,0.043-0.209,0.053c-0.484,0.076-0.932,0.141-1.334,0.197c-2.441,0.344-2.723,0.449-3.004,1.172  c-0.256,0.668,0.025,1.631,0.719,2.449c0.566,0.672,2.781,2.77,7.338,1.691l5.709-0.754c3.197-0.412,5.76,1.672,7.807,3.354  L69.5,47.727l0.012-0.006c3.035-1.27,6.197-2.922,8.885-6.16L62.781,20.779z" />
	<path d="M41.656,20.033c-0.91,0.084-1.953,0.199-3.047,0.313c-6.051,0.646-9.406,0.9-11.113,0.584L11.787,41.377  c0.578,0.547,1.057,1.115,1.443,1.73c1.313-1.344,3.297-1.824,5.229-1.24c1.896,0.572,3.479,2.109,4.141,4.016  c0.281,0.807,0.369,1.635,0.297,2.428c0.775-0.109,1.594-0.064,2.4,0.182c1.891,0.568,3.48,2.109,4.137,4.016  c0.285,0.803,0.375,1.629,0.307,2.422c0.775-0.109,1.594-0.063,2.4,0.188c1.887,0.572,3.469,2.109,4.131,4.006  c0.416,1.203,0.432,2.441,0.094,3.551c0.193,0.037,0.391,0.084,0.588,0.146c1.693,0.525,3.131,1.916,3.75,3.631  c0.59,1.66,0.334,3.404-0.635,4.656l2.787,2.229c0.682,0.541,1.676,0.6,2.604,0.15c1.006-0.488,1.766-1.479,1.99-2.588  c0.094-0.463,0.063-0.912-0.043-1.328l-3.535-2.828c-0.475-0.381-0.559-1.084-0.188-1.572c0.375-0.484,1.063-0.574,1.541-0.193  l4.25,3.406c0.422,0.338,1.631,0.428,2.74-0.094c1.166-0.557,2.047-1.705,2.291-2.986c0.234-1.211-0.141-2.385-0.975-3.057  l-3.844-3.076c-0.479-0.381-0.563-1.086-0.188-1.568c0.371-0.49,1.063-0.58,1.537-0.193l5.588,4.469  c0.84,0.668,2.047,0.76,3.162,0.24c1.156-0.553,2.037-1.699,2.287-2.994c0.234-1.211-0.141-2.381-0.984-3.059l-5.59-4.463  c-0.479-0.385-0.563-1.088-0.188-1.58c0.375-0.482,1.063-0.566,1.543-0.186c0,0,8.488,6.787,8.494,6.787  c0.422,0.332,1.625,0.426,2.729-0.102c1.168-0.545,2.043-1.691,2.297-2.982c0.23-1.213-0.145-2.391-0.984-3.057L52.777,37.189  c-1.906-1.563-3.875-3.182-6.162-2.875l-5.594,0.73c-3.771,0.906-7.328,0.01-9.385-2.422c-1.24-1.465-1.662-3.277-1.105-4.734  c0.781-2.021,2.277-2.23,4.746-2.578c0.369-0.047,0.766-0.105,1.203-0.174l9.922-3.66c0.645-0.24,1.359-0.406,2.098-0.553  C45.949,19.936,44.1,19.877,41.656,20.033z" />
	<path d="M20.094,16.158c-1.807-0.137-3.457,1.225-5.832,4.318l-6.074,7.912c-2.197,2.854-3.02,4.629-2.838,6.133  c0.146,1.236,1.006,2.449,1.859,3.133l2.881,2.301l15.645-20.363l-2.025-1.621C22.318,16.861,21.178,16.242,20.094,16.158z" />
	<path d="M70.262,16.137c-1.084,0.068-2.234,0.674-3.637,1.768l-2.047,1.588l15.428,20.529L82,38.471  c1.725-1.338,2.605-2.535,2.766-3.77c0.199-1.5-0.598-3.289-2.76-6.18l-5.975-7.988C73.703,17.408,72.074,16.021,70.262,16.137z" />
</svg>
