<?xml version="1.0" encoding="UTF-8"?>
<svg xmlns="http://www.w3.org/2000/svg" version="1.1" viewBox="0 0 510.4 576.8">
  <!-- Generator: Adobe Illustrator 28.7.1, SVG Export Plug-In . SVG Version: 1.2.0 Build 142)  -->
  <g>
    <g id="Layer_1">
      <g>
        <path d="M45,494c2.8,16.8,18.6,31.2,37.1,33.5,6.1.8,12.2,1.5,18.4,2.1,14.7,1.6,26.7-8.8,26.2-22.5-2.3-62.9-3.2-125.7-2.5-188.6.1-13.8-12.5-24.5-27.7-23.3-6.3.5-12.6,1-18.9,1.5-19.1,1.7-34.7,15.4-36.7,32.1-6.5,55-5.1,110.6,4.2,165.1Z"/>
        <path d="M471.5,346.7c-1.6-2.7-3.6-5.2-5.9-7.3-9.5-9.7-25.4-11.3-34.8-1.3-19.5,22.3-39.2,47-58.8,72.7l-1.8,2.4c-7.3,9.1-17.7,14.3-28.6,14.4-23.7.1-44.5.1-68.3,0-7.3,0-15.2-6.6-15.2-15s7.9-14.9,15.2-14.9c16.5,0,30.1-.1,46.7,0,14.3,0,26-13.4,26-29.8v-.3c-.3-16.4-11.7-29.9-26-30-15.7-.1-31.4,0-47.1.4-8.5,0-16.7-3.2-22.9-9-31.4-30.6-77-24.6-110.6,4-.3,53.2.4,106.9,2.2,160,24.5,10.5,49.8,18,75.4,20.5,38.5,3.8,77.2,5.2,115.9,4.1,28.6-.8,55.6-18.8,72.7-45,20.7-31.9,41.4-62.2,61.9-89,9-11.5,9.7-27.2,3.9-36.8Z"/>
        <path d="M381.4,128c-12.1,15-24.6,30.5-37.2,46.4-2.5,3.1-3.9,7-3.9,11,0,19.7-.4,39.3-1.3,59-.6,12-12.8,21.6-23.5,18.1-17.6-5.7-35.6-11.9-53.8-18.7-3.7-1.3-7.7-1.3-11.3,0-18.3,6.7-36.2,13-53.8,18.6-10.7,3.5-22.9-6.1-23.5-18.1-.9-19.6-1.3-39.3-1.3-59,0-4-1.4-7.9-3.9-11-12.6-15.8-25.1-31.4-37.2-46.4-7.4-9.2-2.3-22.7,9.7-26.5,19.4-6.1,38.8-12.3,58.1-18.4,3.9-1.2,7.3-3.7,9.6-7,11.6-16.8,23.1-33.6,34.2-50.4,6.8-10.3,20.8-10.3,27.6,0,11.1,16.8,22.6,33.6,34.2,50.4,2.3,3.4,5.7,5.8,9.6,7.1,19.3,6.1,38.6,12.3,58.1,18.4,12,3.8,17.1,17.4,9.7,26.5Z"/>
      </g>
    </g>
  </g>
</svg>