<svg xmlns="http://www.w3.org/2000/svg" xmlns:xlink="http://www.w3.org/1999/xlink" viewBox="0 0 100 125" version="1.1" x="0px" y="0px">
	<g stroke="none" stroke-width="1" fill="none" fill-rule="evenodd">
		<path d="M45.8785187,15.6941738 C48.1883685,15.6941738 50.0608717,17.5429744 50.0608717,19.8235856 C50.0608717,22.1041967 48.1883685,23.9529974 45.8785187,23.9529974 L45.8785187,23.9529974 L14.3647059,23.9529974 L14.3647059,85.4353503 L76.6352941,85.4353503 L76.6352941,54.137634 C76.6352941,51.8570228 78.5077973,50.0082222 80.8176471,50.0082222 C83.1274968,50.0082222 85,51.8570228 85,54.137634 L85,54.137634 L85,85.4353503 C85,89.9965726 81.2549936,93.6941738 76.6352941,93.6941738 L76.6352941,93.6941738 L14.3647059,93.6941738 C9.74500639,93.6941738 6,89.9965726 6,85.4353503 L6,85.4353503 L6,23.9529974 C6,19.3917751 9.74500639,15.6941738 14.3647059,15.6941738 L14.3647059,15.6941738 Z M72.7236111,16.1568542 L84.0373196,27.4705627 L47.2509111,64.2569712 C46.5517489,64.9561334 45.6417748,65.4055584 44.661624,65.5357882 L44.661624,65.5357882 L33.1256313,67.0685425 L34.6583856,55.5325499 C34.7886154,54.552399 35.2380404,53.6424249 35.9372026,52.9432627 L35.9372026,52.9432627 L72.7236111,16.1568542 Z M81.5624458,7.31801948 C83.3198052,5.56066017 86.1690476,5.56066017 87.9264069,7.31801948 L87.9264069,7.31801948 L92.8761543,12.267767 C94.6335137,14.0251263 94.6335137,16.8743687 92.8761543,18.631728 L92.8761543,18.631728 L88.2799603,23.2279221 L76.9662518,11.9142136 Z" fill="#000000" fill-rule="nonzero" />
	</g>
</svg>
