<svg xmlns="http://www.w3.org/2000/svg" viewBox="0 0 50 50"><path d="M26.99 4.5h-1.6V0h-.79v4.5h-1.57l-.75 11.34h5.46L26.99 4.5ZM19.12 15.84l-.96-3.1h.02V6.05h-.79v6.69h.02l-.96 3.1h2.68ZM21.45 16.62H15.9v8.19l8.41-8.19h-2.86ZM33.53 25.35 25 17.05l-8.53 8.3h17.05ZM29.84 16.62h-4.15l8.41 8.19v-8.19h-4.26ZM33.59 15.84l-.96-3.1h.02V6.05h-.79v6.69h.02l-.96 3.1h2.68ZM15.9 50h4.81v-5.56c0-2.32 1.89-4.22 4.22-4.22h.16c2.32 0 4.22 1.89 4.22 4.22V50h4.81V26.14H15.9V50Zm12.73-20.61h.79v7.84h-.79v-7.84Zm-4.02 0h.79v7.84h-.79v-7.84Zm-4.02 0h.79v7.84h-.79v-7.84Z"/></svg>