<svg width="500" height="500" version="1.1" viewBox="0 0 132.3 132.3" xmlns="http://www.w3.org/2000/svg">
  <defs>
    <style type="text/css">.fil0 {fill:black;fill-rule:nonzero}</style>
  </defs>
  <path d="m123.3 87.89c-5.809 5.807-13.53 9.012-21.74 9.012-8.211 0-15.93-3.204-21.74-9.012l-9.612-9.612 8.082-8.082 9.612 9.612c3.648 3.648 8.495 5.65 13.66 5.65 5.149 0 9.999-2.003 13.65-5.65 7.538-7.538 7.538-19.78 0-27.32-3.648-3.648-8.497-5.65-13.65-5.65-5.164 0-10.01 2.003-13.66 5.65l-9.612 9.612-4.034 4.048-8.096 8.096-4.048 4.034-9.612 9.612c-5.807 5.807-13.53 9.012-21.74 9.012-8.211 0-15.93-3.204-21.74-9.012-5.807-5.809-9.012-13.53-9.012-21.74 0-8.211 3.204-15.93 9.012-21.74 5.807-5.807 13.53-9.012 21.74-9.012 8.211 0 15.93 3.204 21.74 9.012l9.612 9.612-8.082 8.082-9.612-9.612c-3.648-3.648-8.497-5.65-13.66-5.65-5.149 0-9.999 2.003-13.65 5.65-3.662 3.662-5.664 8.511-5.664 13.66 0 5.149 2.003 10.01 5.664 13.65 3.648 3.662 8.497 5.664 13.65 5.664 5.164 0 10.01-2.003 13.66-5.65l9.612-9.612 4.034-4.048 8.096-8.096 4.048-4.034 9.612-9.612c5.809-5.807 13.53-9.012 21.74-9.012 8.211 0 15.93 3.204 21.74 9.012 11.99 11.99 11.99 31.5 0 43.48z" stroke-width="1.43"/>
</svg>
