<svg width="500" height="500" version="1.1" viewBox="0 0 132.3 132.3" xmlns="http://www.w3.org/2000/svg">
  <g transform="matrix(.3528 0 0 .3528 -40.88 -57.06)">
    <path d="m136.6 381.4c14.21-2.369 27.24-9.476 39.09-23.69 4.738-26.06 28.43-30.8 48.56-27.24 76.99 13.03 103-3.555 116.1-9.476 8.292-2.369 17.77-21.32 11.84-41.46-2.369-8.292-2.369-15.4-1.186-20.14 1.186 0 2.369 1.186 3.555 2.369 7.107 3.555 15.4 8.292 22.51 9.476 5.924 0 11.84-1.186 15.4-7.107 4.738-7.107 1.186-16.58-4.738-22.51 4.738 0 8.292 0 13.03 1.186 8.292 3.555 14.21 23.69 26.06 36.72 10.66 13.03 30.8 18.95 36.72 21.32 10.66 4.738 9.476 27.24-10.66 30.8-16.58 2.369-31.98 2.369-49.75 1.186-11.84 30.8-3.555 88.83-52.12 100.7-8.292 30.8-10.66 59.23-14.21 91.21-3.555 14.21-27.24 17.77-27.24 0-1.186-26.06 1.186-52.12 2.369-79.36-24.87 8.292-56.86 7.107-76.99-3.555-7.107 27.24-11.84 59.23-20.14 84.1-3.555 15.4-26.06 13.03-24.87-5.924 8.292-43.83 0-61.59 8.292-86.47-11.84-10.66-17.77-17.77-20.14-39.09-14.21 7.107-30.8 8.292-41.46-13.03zm244-137.4c-11.84-9.476-24.87-17.77-20.14-45.01 1.186-7.107-5.924-21.32-14.21-5.924-5.924 8.292-5.924 15.4-15.4 14.21-11.84-1.186-17.77-13.03-14.21-34.35-1.186-13.03-8.292-14.21-17.77-5.924-11.84 14.21-17.77 42.64 5.924 58.04 18.95 13.03 35.53 18.95 53.3 30.8 30.8 21.32 36.72-1.186 22.51-11.84zm22.51 43.83c4.738 0 8.292 3.555 8.292 7.107 0 3.555-3.555 7.107-8.292 7.107-3.555 0-7.107-3.555-7.107-7.107 0-3.555 3.555-7.107 7.107-7.107zm-167 62.78c11.84 0 21.32 7.107 21.32 16.58 0 9.476-9.476 16.58-21.32 16.58-10.66 0-20.14-7.107-20.14-16.58 0-9.476 9.476-16.58 20.14-16.58zm49.75 16.58c10.66 0 18.95 8.292 18.95 20.14s-8.292 21.32-18.95 21.32c-9.476 0-17.77-9.476-17.77-21.32s8.292-20.14 17.77-20.14zm60.41-35.53c-18.95 8.292-27.24 11.84-47.38 15.4-1.186 13.03 8.292 20.14 24.87 20.14 20.14 0 30.8-20.14 22.51-35.53z" fill-rule="evenodd" stroke-width=".7043"/>
  </g>
</svg>
