<svg width="500" height="500" version="1.1" viewBox="0 0 132.3 132.3" xmlns="http://www.w3.org/2000/svg">
  <defs>
    <style type="text/css">.fil0 {fill:black;fill-rule:nonzero}</style>
  </defs>
  <path d="m59.82 14.92c3.465 0 6.274 2.773 6.274 6.194s-2.809 6.194-6.274 6.194h-47.27v92.22h93.41v-46.95c0-3.421 2.809-6.194 6.274-6.194 3.465 0 6.274 2.773 6.274 6.194v46.95c0 6.842-5.618 12.39-12.55 12.39h-93.41c-6.93 0-12.55-5.546-12.55-12.39v-92.22c0-6.842 5.618-12.39 12.55-12.39zm40.27 0.694 16.97 16.97-55.18 55.18c-1.049 1.049-2.414 1.723-3.884 1.918l-17.3 2.299 2.299-17.3c0.1953-1.47 0.8695-2.835 1.918-3.884zm13.26-13.26c2.636-2.636 6.91-2.636 9.546 0l7.425 7.425c2.636 2.636 2.636 6.91 0 9.546l-6.894 6.894-16.97-16.97z"/>
</svg>
