<svg width="500" height="500" version="1.1" viewBox="0 0 132.3 132.3" xmlns="http://www.w3.org/2000/svg">
  <defs>
    <style type="text/css">.fil0 {fill:black;fill-rule:nonzero}</style>
  </defs>
  <path d="m97.92 97.74c-12.07 9.394-24.08 2.147-25.02-1.202-1.408-4.98 11.54-4.774 18.38-6.372 8.862-2.147 13.96 1.941 6.646 7.574m-24.08 18.31c-1.889 2.027-6.784-0.6698-7.66-3.212-0.9274 2.542-5.839 5.238-7.711 3.212-1.889-2.061 2.233-8.244 7.728-8.244 5.427 0 9.514 6.183 7.642 8.244m-39.45-18.31c-7.316-5.633-2.233-9.721 6.698-7.574 6.784 1.597 19.73 1.408 18.32 6.354-0.9446 3.366-12.88 10.61-25.02 1.219m82.98-57.36c-3.349-29.04-29.38-40.38-51.18-40.38s-47.92 11.33-51.26 40.38c-4.637 39.91 9.394 45.17 9.789 55.68 0.3435 10.61 0.9446 16.25 11.54 17.31 10.6 1.082 13.83-8.45 13.48 0-0.3435 8.45-3.555 8.192 0.6011 12.67 4.225 4.568 11.33 6.251 15.83 6.251 4.431 0 11.61-1.683 15.77-6.251 4.156-4.482 1.013-4.225 0.687-12.67-0.4122-8.45 2.868 1.082 13.46 0 10.54-1.065 11.15-6.698 11.47-17.31 0.3435-10.53 14.43-15.77 9.789-55.68" fill="#63615e" stroke-width="17.17"/>
</svg>
