<svg width="500" height="500" version="1.1" viewBox="0 0 132.3 132.3" xmlns="http://www.w3.org/2000/svg">
  <defs>
    <style type="text/css">.fil0 {fill:black;fill-rule:nonzero}</style>
  </defs>
  <g clip-rule="evenodd" fill-rule="evenodd" stroke-width="4.41">
    <path d="m22.05 33.95c0-2.205 0.8819-3.969 2.205-5.733l19.4-22.49c0.8819-1.323 2.646-1.764 4.41-1.323 1.764 0.441 2.646 1.323 3.528 3.087l0.8819 2.205c0.8819 2.205 0.441 4.851-0.441 6.615l-7.938 14.55h24.25c1.323 0 2.646 0.8819 3.528 1.764 0.8819 1.323 0.8819 2.646 0.441 3.969l-12.79 32.63c-1.323 3.528-4.41 5.733-8.378 5.733h-24.69c-2.646 0-4.41-1.764-4.41-4.41z"/>
    <path d="m13.23 35.28c0-2.646-1.764-4.41-4.41-4.41h-8.819v44.1h8.819c2.646 0 4.41-1.764 4.41-4.41z"/>
    <path d="m110.2 98.34c0 2.205-0.882 3.969-2.205 5.733l-19.4 22.49c-0.8819 1.323-2.646 1.764-4.41 1.323-1.764-0.441-2.646-1.323-3.528-3.087l-0.8819-2.205c-0.8819-2.205-0.441-4.851 0.441-6.615l7.938-14.55h-24.25c-1.323 0-2.646-0.8819-3.528-1.764-0.8819-0.8819-0.8819-2.646-0.441-3.969l12.79-32.63c1.323-3.528 4.41-5.733 8.378-5.733h24.69c2.646 0 4.41 1.764 4.41 4.41z"/>
    <path d="m119.1 97.01c0 2.646 1.764 4.41 4.41 4.41h8.819v-44.1h-8.819c-2.646 0-4.41 1.764-4.41 4.41z"/>
  </g>
</svg>
