<?xml version="1.0" encoding="utf-8"?>
<svg version="1.1" x="0px" y="0px" viewBox="2 10 100 94" style="enable-background:new 0 0 100 100;" xmlns="http://www.w3.org/2000/svg">
  <defs/>
  <style type="text/css">
	.st0{fill-rule:evenodd;clip-rule:evenodd;}
</style>
  <g transform="matrix(1.010526, 0, 0, 1.052632, 1.85824, 4.43327)" style="transform-origin: 50px 51.4594px;">
    <g>
      <circle cx="79.7396927" cy="65.9307175" r="9.343071"/>
    </g>
    <g>
      <ellipse transform="matrix(0.3927676 -0.9196377 0.9196377 0.3927676 -47.9418755 59.2546959)" cx="20.8989182" cy="65.9307175" rx="9.3430681" ry="9.3430901"/>
    </g>
    <g>
      <path d="M93.9210739,42.5576935l-7.4621353-2.6343269l-7.3151779-12.5313721    c-0.9656143-1.6582088-2.7288132-2.6657791-4.6389618-2.6657791H37.4039917c-1.6058083,0-3.1275749,0.7136707-4.145649,1.9521065    L23.1723881,38.8843422L6.8626757,43.83815c-2.0885515,0.6401978-3.5788639,2.4663696-3.7887824,4.6073837l-0.5667222,10.883606    c-0.157455,3.0646667,2.2984695,5.6464691,5.3735805,5.6464691h0.5667219    c0.4828062-6.4440575,5.8879032-11.5343094,12.4474564-11.5343094c6.569994,0,11.9750919,5.0902519,12.4578953,11.5343094    h33.9417152c0.4828033-6.4440575,5.8878403-11.5343094,12.4473953-11.5343094    c6.5595474,0,11.9646454,5.0902519,12.4474487,11.5343094C95.1280518,64.9441528,97.5,62.5511971,97.5,59.6020279V47.6164284    C97.5,45.3494759,96.062149,43.3133888,93.9210739,42.5576935z M31.2432652,42.0748863    c-1.5533466,0-2.4034615-1.8051567-1.4169025-3.0016365l6.9269257-8.3962269    c0.3462982-0.4197731,0.8606224-0.6612072,1.4063339-0.6612072l10.9256248-0.0314522    c1.0075073-0.0105057,1.8366737,0.8185978,1.8366737,1.8261681v8.427681c0,1.0180779-0.8186607,1.8366737-1.8366737,1.8366737    H31.2432652z M78.4300232,42.0748863H59.968853c-1.0180779,0-1.8366737-0.8185959-1.8366737-1.8366737v-8.427681    c0-1.0180759,0.8185959-1.8366737,1.8366737-1.8366737h13.4864159c0.6507034,0,1.2489395,0.3463612,1.5847931,0.9025784    l4.9747543,8.4382496C80.7284927,40.5321121,79.8469238,42.0748863,78.4300232,42.0748863z"/>
    </g>
  </g>
</svg>