<?xml version="1.0" standalone="no"?>
<!DOCTYPE svg PUBLIC "-//W3C//DTD SVG 20010904//EN"
 "http://www.w3.org/TR/2001/REC-SVG-20010904/DTD/svg10.dtd">
<svg version="1.0" xmlns="http://www.w3.org/2000/svg"
 width="700.000000pt" height="603.000000pt" viewBox="0 0 700.000000 603.000000"
 preserveAspectRatio="xMidYMid meet">

<g transform="translate(0.000000,603.000000) scale(0.100000,-0.100000)"
fill="#000000" stroke="none">
<path d="M3406 5420 c-63 -16 -153 -70 -197 -117 -22 -24 -55 -74 -72 -111
l-32 -67 -3 -347 -3 -348 -1000 0 -999 0 0 -200 0 -200 300 0 300 0 0 -300 0
-300 500 0 500 0 0 -684 0 -683 800 331 800 331 0 353 0 352 500 0 500 0 0
300 0 300 300 0 300 0 0 200 0 200 -999 0 -1000 0 -3 348 -3 348 -37 76 c-68
136 -188 217 -336 224 -42 2 -94 -1 -116 -6z"/>
<path d="M3495 1960 l-790 -328 -3 -301 -2 -301 -200 0 -200 0 0 -200 0 -200
1200 0 1200 0 0 200 0 200 -200 0 -200 0 0 630 c0 347 -3 630 -7 629 -5 0
-363 -148 -798 -329z"/>
</g>
</svg>
