<svg width="500" height="500" version="1.1" viewBox="0 0 132.3 132.3" xmlns="http://www.w3.org/2000/svg">
  <g stroke-width=".2475">
    <path d="m88.31 47.15v-6.309h12.94v-7.312h4.555v-4.048h9.72v4.048h2.698v7.312h2.474v76.59h-22.15v-73.78l-1.73 0.6323z"/>
    <path d="m95.95 117.4h-23.27v-61.57l23.27-8.499z"/>
    <path d="m54.11 17.11h9.339v-13.05h4.151v13.05h10.57v33.98l-8.1 2.958v63.38h-3.25v-82.34h-12.71z"/>
    <path d="m31.85 37.69h4.638v-4.218h9.213v4.218h18.53v79.74h-22.82v-21.03h-4.573v-49.83h-4.987z"/>
    <path d="m12.01 99h4.577v-49.83h17.65v49.83h4.573v18.44h-26.8z"/>
    <path d="m4.1 120h124.1l4.1 8.2h-132.3z"/>
  </g>
</svg>
