<svg width="500" height="500" version="1.1" viewBox="0 0 132.3 132.3" xmlns="http://www.w3.org/2000/svg">
  <defs>
    <style type="text/css">.fil0 {fill:black;fill-rule:nonzero}</style>
  </defs>
  <g stroke-width="1.665">
    <path d="m43.49 105.6c-0.07158 0.7125-0.01 1.457 0.2497 2.194 0.6342 1.778 2.122 3.226 3.885 3.772 1.638 0.5177 3.268 0.1731 3.762-0.3646l3.418-3.667c0.9888-1.057 1.239-2.747 0.6575-4.386-1.43-2.74-3.346-3.729-5.8-4.172z"/>
    <path d="m38.92 87.31-5.973 6.406c-1.214 1.32-1.561 3.349-0.8839 5.294 0.7191 2.054 2.435 3.726 4.49 4.35 1.944 0.5826 3.895 0.1298 5.117-1.17l5.53-5.931c1.222-1.317 1.561-3.336 0.8839-5.28-0.7191-2.064-2.445-3.729-4.49-4.35-1.631-0.521-3.546-0.541-4.674 0.6825z"/>
    <path d="m27.08 76.77-5.515 5.921c-1.215 1.31-1.555 3.346-0.8839 5.297 0.7191 2.048 2.435 3.719 4.49 4.343 1.941 0.591 3.912 0.1298 4.526-0.521l6.123-6.57c1.222-1.32 1.561-3.349 0.8839-5.29-0.7225-2.061-2.439-3.726-4.493-4.343-1.889-0.6159-3.98-0.06825-5.131 1.164z"/>
    <path d="m16.29 65.1-6.113 6.574c-1.222 1.317-1.561 3.336-0.8839 5.27 0.7125 2.071 2.439 3.736 4.493 4.36 1.941 0.5793 3.909 0.1298 4.516-0.5294l6.129-6.57v-0.0067c1.222-1.3 1.561-3.323 0.8839-5.264-0.7092-2.071-2.435-3.736-4.49-4.353-1.57-0.541-3.469-0.6342-4.536 0.5194z"/>
    <path d="m95.64 25.89c-3.954 2.211-9.449 2.607-14.8 2.991-4.048 0.2763-8.225 0.5693-11.23 1.678l-16.69 6.158c-0.1132 0.04495-0.2281 0.07158-0.3479 0.08823-0.8057 0.1265-1.551 0.2347-2.221 0.3279-4.063 0.5726-4.533 0.7474-5.001 1.951-0.4262 1.112 0.04162 2.715 1.197 4.077 0.9422 1.119 4.629 4.611 12.22 2.815l9.504-1.255c5.322-0.6858 9.589 2.783 13 5.583l25.56 20.45 0.02-0.01c5.052-2.114 10.32-4.864 14.79-10.25z"/>
    <path d="m60.48 24.65c-1.515 0.1398-3.251 0.3313-5.072 0.521-10.07 1.075-15.66 1.498-18.5 0.9722l-26.15 34.04c0.9622 0.9106 1.76 1.856 2.402 2.88 2.186-2.237 5.488-3.036 8.705-2.064 3.156 0.9522 5.791 3.511 6.893 6.685 0.4678 1.343 0.6143 2.722 0.4944 4.042 1.29-0.1814 2.653-0.1065 3.995 0.303 3.148 0.9455 5.793 3.511 6.887 6.685 0.4744 1.337 0.6243 2.712 0.5111 4.032 1.29-0.1814 2.653-0.1049 3.995 0.313 3.141 0.9522 5.775 3.511 6.877 6.669 0.6925 2.003 0.7191 4.063 0.1565 5.911 0.3213 0.06159 0.6509 0.1398 0.9788 0.243 2.818 0.874 5.212 3.19 6.243 6.044 0.9822 2.763 0.556 5.667-1.057 7.751l4.639 3.711c1.135 0.9006 2.79 0.9988 4.335 0.2497 1.675-0.8124 2.94-2.462 3.313-4.308 0.1565-0.7707 0.1049-1.518-0.07158-2.211l-5.885-4.708c-0.7907-0.6342-0.9306-1.805-0.313-2.617 0.6243-0.8057 1.77-0.9555 2.565-0.3213l7.075 5.67c0.7025 0.5627 2.715 0.7125 4.561-0.1565 1.941-0.9272 3.408-2.838 3.814-4.971 0.3895-2.016-0.2347-3.97-1.623-5.089l-6.399-5.121c-0.7974-0.6342-0.9372-1.808-0.313-2.61 0.6176-0.8157 1.77-0.9655 2.559-0.3213l9.302 7.439c1.398 1.112 3.408 1.265 5.264 0.3995 1.924-0.9206 3.391-2.828 3.807-4.984 0.3895-2.016-0.2347-3.964-1.638-5.092l-9.306-7.429c-0.7974-0.6409-0.9372-1.811-0.313-2.63 0.6243-0.8024 1.77-0.9422 2.569-0.3096 0 0 14.13 11.3 14.14 11.3 0.7025 0.5527 2.705 0.7092 4.543-0.1698 1.944-0.9072 3.401-2.815 3.824-4.964 0.3829-2.019-0.2414-3.98-1.638-5.089l-27.66-22.13c-3.173-2.602-6.451-5.297-10.26-4.786l-9.312 1.215c-6.277 1.508-12.2 0.01665-15.62-4.032-2.064-2.439-2.767-5.455-1.839-7.881 1.3-3.364 3.79-3.712 7.901-4.292 0.6143-0.07824 1.275-0.1748 2.003-0.2897l16.52-6.093c1.074-0.3995 2.262-0.6759 3.492-0.9206-4.247-1.643-7.325-1.741-11.39-1.482z"/>
    <path d="m24.58 18.2c-3.008-0.2281-5.755 2.039-9.708 7.188l-10.11 13.17c-3.657 4.751-5.027 7.706-4.724 10.21 0.243 2.058 1.675 4.077 3.095 5.215l4.796 3.83 26.04-33.9-3.371-2.698c-2.317-1.848-4.215-2.878-6.019-3.018z"/>
    <path d="m108.1 18.17c-1.805 0.1132-3.719 1.122-6.054 2.943l-3.408 2.644 25.68 34.17 3.319-2.582c2.872-2.227 4.336-4.22 4.604-6.276 0.3313-2.497-0.9955-5.475-4.594-10.29l-9.946-13.3c-3.875-5.202-6.587-7.511-9.604-7.318z"/>
  </g>
</svg>
