<svg width="500" height="500" version="1.1" viewBox="0 0 132.3 132.3" xmlns="http://www.w3.org/2000/svg">
  <defs>
    <style type="text/css">.fil0 {fill:black;fill-rule:nonzero}</style>
    <style type="text/css">.fil0 {fill:none}
			.fil1 {fill:black}</style>
  </defs>
  <g clip-rule="evenodd" shape-rendering="geometricPrecision" stroke-width="115.8">
    <rect class="fil0" x=".0003845" y="-.0001819" width="132.3" height="132.3" image-rendering="optimizeQuality"/>
    <path class="fil1" d="m82.36 116-16.22-11.82-16.33 11.93c-0.9267 0.695-2.201 0.4634-2.896-0.4634-0.4634-0.5792-0.5792-1.274-0.3475-1.853l6.255-19.23-16.33-11.82c-0.9267-0.6951-1.158-2.085-0.4634-3.012 0.4634-0.5792 1.158-0.9267 1.853-0.8109h20.04l6.255-19.23c0.3475-1.158 1.506-1.738 2.664-1.39 0.6951 0.2317 1.158 0.8109 1.39 1.39l6.14 19.23h20.27c1.158 0 2.085 0.9267 2.085 2.085 0 0.6951-0.3475 1.39-0.9267 1.738l-16.33 11.82 6.255 19.23c0.3475 1.043-0.2317 2.317-1.274 2.664-0.8109 0.2317-1.506 0-2.085-0.4634zm-36.26-70.32c6.024-2.896 12.86-4.402 20.04-4.402 7.182 0 14.02 1.506 20.16 4.402l11.93-11.93v-33.71h-12.4v9.152c0 1.158-0.9267 2.201-2.085 2.201-1.158 0-2.201-1.043-2.201-2.201v-9.152h-13.21v20.62c0 1.158-1.043 2.085-2.201 2.085s-2.085-0.9267-2.085-2.085v-20.62h-13.32v9.152c0 1.158-0.9267 2.201-2.085 2.201s-2.201-1.043-2.201-2.201v-9.152h-12.28v33.71zm21.31 54.21 12.28 8.92-4.75-14.36c-0.3475-0.8109 0-1.853 0.8109-2.433l12.28-8.92-15.06 0.1158c-0.9267 0-1.853-0.5792-2.201-1.506l-4.634-14.36-4.634 14.36c-0.2317 0.8109-1.043 1.506-1.969 1.506l-15.18-0.1158 12.28 8.92c0.6951 0.5792 1.043 1.506 0.6951 2.433l-4.634 14.36 12.16-8.92c0.8109-0.5792 1.738-0.5792 2.549 0zm29.42 19.69c7.877-7.761 12.74-18.65 12.74-30.7 0-11.93-4.865-22.82-12.74-30.7-7.877-7.761-18.65-12.63-30.7-12.63-11.93 0-22.82 4.865-30.7 12.63-7.877 7.877-12.74 18.77-12.74 30.7 0 12.05 4.865 22.94 12.74 30.7 7.877 7.877 18.77 12.74 30.7 12.74 12.05 0 22.82-4.865 30.7-12.74z" fill-rule="evenodd" image-rendering="optimizeQuality"/>
  </g>
</svg>
