<svg width="500" height="500" version="1.1" viewBox="0 0 132.3 132.3" xmlns="http://www.w3.org/2000/svg">
  <path d="m66.12 97.54a31.45 31.45 0 0 1-31.39-31.39 31.43 31.43 0 0 1 31.39-31.39 31.43 31.43 0 0 1 31.39 31.39 31.45 31.45 0 0 1-31.39 31.39m43.34-37.49a43.79 43.79 0 0 0-37.25-37.25v-22.78h-12.19v22.78a43.83 43.83 0 0 0-37.25 37.25h-22.78v12.19h22.78a43.83 43.83 0 0 0 37.25 37.25v22.78h12.19v-22.78a43.79 43.79 0 0 0 37.25-37.25h22.83v-12.19z" stroke-width="12"/>
  <path d="m66.12 76.31c-5.623 0-10.22-4.592-10.22-10.22 0-5.624 4.593-10.22 10.22-10.22 5.623 0 10.22 4.593 10.22 10.22 0 5.623-4.592 10.22-10.22 10.22" stroke-width=".9999"/>
</svg>
