<?xml version="1.0" encoding="UTF-8"?>
<svg width="500" height="500" version="1.1" viewBox="0 0 132.3 132.3" xmlns="http://www.w3.org/2000/svg" xmlns:cc="http://creativecommons.org/ns#" xmlns:dc="http://purl.org/dc/elements/1.1/" xmlns:rdf="http://www.w3.org/1999/02/22-rdf-syntax-ns#">
  <metadata>
    <rdf:RDF>
      <cc:Work rdf:about="">
        <dc:format>image/svg+xml</dc:format>
        <dc:type rdf:resource="http://purl.org/dc/dcmitype/StillImage"/>
        <dc:title/>
      </cc:Work>
    </rdf:RDF>
  </metadata>
  <g transform="matrix(.3528 0 0 .3528 29.95 111.5)">
    <path d="m21.35 8.354c-7.863-58.14-36.09-60.71-36.09-60.71s-34.05-6.505-33.85-19.28c0.2298-14.37 13.45-24.74 4.394-44.08-6.435-13.74 3.851-24.28 3.475-33.13-0.6407-15.38-10.56-19.53-6.867-53.14 7.326-66.57 38.57-112.5 152.6-113.9 113.6-1.386 137.7 41.67 147.4 100.7 1.156 6.985 1.776 11.9 1.149 26.16-1.33 30.45-4.979 31.8-5.3 41.87-0.2716 8.594 6.115 17.1 1.609 31.44-7.835 24.92 5.056 29.47 2.584 43.85-2.284 13.22-30.71 22.02-34.97 23.02-18.63 4.367-26.32 25.47-32.61 58.92-2.869 15.27-6.686 26.7-13.04 36.96-3.559 5.745-6.539 9.221-8.789 11.32-0.8357 0.7521-2.04 0.9332-3.057 0.4596-1.017-0.4666-1.657-1.504-1.623-2.632 0.3134-8.844 0.7521-26.54-0.2786-36.17-0.8427-7.876-0.5711-31.58-6.546-37.01-7.549-6.86-36-1.295-48.7-0.4178-19.82 1.358-40.87-11.64-50.63 2.995-4.903 7.354-3.308 25.43-4.088 32.72-1.024 9.638-0.592 27.33-0.2786 36.18 0.0348 1.128-0.5989 2.159-1.623 2.632-1.017 0.4736-2.222 0.2925-3.057-0.4596-2.249-2.103-5.23-5.578-8.789-11.32-6.358-10.26-10.96-21.57-13.04-36.96zm193.3-131.9c-2.096-6.01-9.924-25.08-25.18-23.48-7.445 0.7869-21.45 3.315-25.7 7.702-4.248 4.387-15.25 6.191-17.32 6.539-2.068 0.3482-13.8 0.2089-14.69 4.332-0.8844 4.13-3.614 11.79 0.0487 18.02 3.663 6.226 17.92 16.49 26.74 14.9 8.817-1.595 20.65 4.952 29.47 7.152 10.43 2.612 23.04 4.213 27.47-12.15 1.999-7.389 0.1392-20.21-0.8357-23.02zm-220.8 4.708c1.922-2.263 10.52-29.59 23.67-28.23 7.445 0.773 20.19 3.426 24.54 7.716 4.353 4.29 16.01 6.219 18.09 6.518 2.075 0.2994 14.51-1.107 15.5 3.002 0.982 4.109 3.886 11.71 0.3691 18.02-3.517 6.31-17.54 16.9-26.39 15.52-8.858-1.386-21.91 2.222-30.73 4.443-8.9 2.242-18.74 11.28-25.87-3.963-3.245-6.936-1.1-20.76 0.8218-23.02" style="fill-rule:evenodd"/>
  </g>
</svg>
