<svg width="500" height="500" version="1.1" viewBox="0 0 132.3 132.3" xmlns="http://www.w3.org/2000/svg">
  <defs>
    <style type="text/css">.fil0 {fill:black;fill-rule:nonzero}</style>
  </defs>
  <path d="m28.5 38.68 7.459-16.05 9.541-8.931 20.82 3.296s-1.644 4.102-6.175 4.649c-4.525 0.5479-10.4 0.4617-10.4 0.4617l-4.954 6.966-1.62 8.046 24.4-13.31 24.92 0.4696 21.71 11.49s-4.735 4.157-12.5 2.842c-7.772-1.346-12.29-5.557-12.29-5.557l-13.49 0.8218-14.13 10.09 28.52-2.998 25.66 6.394 16.33 19.23s-8.625-1.683-10.83-2.356c-2.45-0.7983-12.88-7.279-12.88-7.279l-17.58-4.071-23.33 6.7 24.24-0.0313 19.6 13.6 5.635 21.29s-6.668 0.2661-10.34-5.666c-3.178-5.134-4.407-8.891-4.407-8.891l-13.03-8.594s-21.37 3.241-23.64 3.945c-2.317 0.7044-16.91 17.77-16.91 17.77s14.5 10.14 15.32 10.49c0.8297 0.3288 12.11-0.8923 12.11-0.8923s4.164-8.163 10.15-9.471c5.964-1.292 11.68 1.307 11.68 1.307s-5.533 3.029-9.291 9.51c-3.757 6.481-8.375 12.35-8.375 12.35s-18.69-1.746-21.22-1.346c-2.536 0.3992-8.923 3.64-8.923 3.64s-34.37-15.11-43.7-18.47c-9.291-3.421-6.026-36.99-6.026-36.99s27.28-18.87 27.92-24.46" fill="#6185c2" stroke-width="7.827"/>
</svg>
