<svg width="500" height="500" version="1.1" viewBox="0 0 132.3 132.3" xmlns="http://www.w3.org/2000/svg">
  <path d="m28.48 38.67 7.46-16.05 9.542-8.932 20.82 3.296s-1.644 4.102-6.176 4.65c-4.525 0.548-10.4 0.4618-10.4 0.4618l-4.955 6.967-1.62 8.047 24.4-13.31 24.92 0.4697 21.71 11.49s-4.736 4.157-12.5 2.842c-7.773-1.346-12.29-5.558-12.29-5.558l-13.49 0.8219-14.13 10.09 28.52-2.998 25.66 6.395 16.33 19.23s-8.626-1.683-10.83-2.356c-2.45-0.7984-12.88-7.28-12.88-7.28l-17.58-4.071-23.33 6.701 24.24-0.0313 19.6 13.6 5.636 21.29s-6.669 0.2661-10.34-5.667c-3.178-5.135-4.407-8.892-4.407-8.892l-13.03-8.595s-21.37 3.241-23.64 3.945c-2.317 0.7045-16.91 17.77-16.91 17.77s14.5 10.14 15.32 10.49c0.8298 0.3288 12.11-0.8924 12.11-0.8924s4.164-8.164 10.15-9.472c5.965-1.292 11.68 1.307 11.68 1.307s-5.534 3.029-9.292 9.511c-3.757 6.482-8.376 12.35-8.376 12.35s-18.69-1.746-21.22-1.346c-2.536 0.3992-8.924 3.64-8.924 3.64s-34.37-15.11-43.7-18.47c-9.292-3.421-6.027-36.99-6.027-36.99s27.28-18.87 27.92-24.46" fill="#6185c2" stroke-width="7.828"/>
</svg>
