<svg width="500" height="500" version="1.1" viewBox="0 0 132.3 132.3" xmlns="http://www.w3.org/2000/svg">
  <defs>
    <style type="text/css">.fil0 {fill:black;fill-rule:nonzero}</style>
  </defs>
  <path d="m109.1 24.31c-26.22-4.861-42.87-24.31-42.87-24.31s-0.7366 0.8839-2.21 2.357c-0.442 0.4419-1.179 1.031-1.768 1.768-0.7366 0.5893-1.326 1.031-2.062 1.768-2.062 1.768-4.714 3.978-7.955 6.04-4.125 2.799-8.986 5.598-14.58 7.955-0.8839 0.4419-1.915 0.7366-2.946 1.179-6.924 2.504-14.73 4.272-23.42 4.272 0 107 54.8 107 54.8 107s5.303 0 12.67-3.241c0.7366-0.2946 1.473-0.7366 2.21-1.031 4.272-2.21 8.986-5.451 13.7-10.31 0.442-0.442 0.8839-0.8839 1.326-1.326 0.8839-0.8839 1.768-1.915 2.504-2.946 2.062-2.652 4.125-5.598 6.187-9.134 1.62-2.799 3.094-5.745 4.567-8.986 6.924-15.76 11.79-38.16 11.79-69.83-4.125 0-8.102-0.4419-11.93-1.179zm-42.87 86.33s-36.83 0-36.83-71.89c22.1 0 36.83-17.09 36.83-17.09z" stroke-width="1.473"/>
</svg>
