<svg width="500" height="500" version="1.1" viewBox="0 0 132.3 132.3" xmlns="http://www.w3.org/2000/svg">
  <g fill="#b02317" stroke-width="8.396">
    <path d="m39.16 59.01s5.146 1.906 13.09 2.787c4.886 0.5541 9.403 0.7556 13.9 0.722 4.492 0.03358 9.017-0.1679 13.9-0.722 7.934-0.8815 13.09-2.787 13.09-2.787s18 11.05 39.02 7.346c1.839-0.3358-16.27-13.42-27.81-23.71-12.92-11.51-17.28-13.35-26.17-10.56-6.364 2.032-8.883 4.03-12.03 5.709-3.148-1.679-5.675-3.677-12.07-5.709-8.857-2.787-13.18-0.9487-26.14 10.56-11.51 10.29-29.64 23.38-27.81 23.71 21.02 3.702 39.03-7.346 39.03-7.346"/>
    <path d="m96.19 92.09c0.4953-2.359 0.4618-8.589 0.2267-13.64-0.1679-3.115-0.6213-8.731-1.536-11.32-2.368-0.2938-6.104-1.343-6.565-1.41-2.854-0.4534-11.74 1.15-17.38 2.267a29.43 29.43 0 0 1-4.785 0.5877 29.43 29.43 0 0 1-4.785-0.5877c-5.642-1.117-14.5-2.72-17.35-2.267-0.4869 0.06717-4.231 1.117-6.591 1.41-0.8815 2.594-1.377 8.202-1.511 11.32-0.2519 5.054-0.2938 11.28 0.2015 13.64-1.805-1.604-9.445-14.59-9.252-23.71-6.364 0.8144-15.21 1.511-22.89 2.493 8.228 8.563 27.58 27.87 36.44 29.48 13.05 2.401 21.05-0.0923 25.74-0.7556 4.685 0.6633 12.69 3.148 25.74 0.7556 8.857-1.604 28.21-20.92 36.44-29.48-7.674-0.9907-16.53-1.679-22.89-2.493 0.2015 9.118-7.438 22.11-9.244 23.71"/>
  </g>
</svg>
