<svg width="500" height="500" version="1.1" viewBox="0 0 132.3 132.3" xmlns="http://www.w3.org/2000/svg">
  <defs>
    <style type="text/css">.fil0 {fill:black;fill-rule:nonzero}</style>
  </defs>
  <g clip-rule="evenodd" shape-rendering="geometricPrecision">
    <path class="fil0" d="m110.3 61.8-12.42 21.51 12.42 21.51c3.155-6.496 4.937-13.79 4.937-21.51 0-7.702-1.782-15.01-4.937-21.51z" image-rendering="optimizeQuality" stroke-width=".01856"/>
    <path class="fil0" d="m81.9 55.66h24.81c-8.445-12.4-22.1-20.27-37.12-21.31z" image-rendering="optimizeQuality" stroke-width=".01856"/>
    <polygon class="fil0" transform="matrix(.01856 0 0 .01856 -26.65 -26.65)" points="5e3 3388 4395 4435 5605 4435" image-rendering="optimizeQuality"/>
    <path class="fil0" d="m25.57 55.66h24.81l12.3-21.31c-15.01 1.039-28.67 8.909-37.12 21.31z" image-rendering="optimizeQuality" stroke-width=".01856"/>
    <path class="fil0" d="m34.41 83.31-12.42-21.51c-3.155 6.496-4.937 13.81-4.937 21.51 0 7.721 1.782 15.01 4.937 21.51z" image-rendering="optimizeQuality" stroke-width=".01856"/>
    <polygon class="fil0" transform="matrix(.01856 0 0 .01856 -26.65 -26.65)" points="2797 7203 4028 7203 3413 6137" image-rendering="optimizeQuality"/>
    <path class="fil0" d="m62.69 132.3-12.32-21.32h-24.8c8.463 12.4 22.09 20.29 37.12 21.32z" image-rendering="optimizeQuality" stroke-width=".01856"/>
    <path class="fil0" d="m81.92 111-12.32 21.32c15.03-1.039 28.67-8.927 37.12-21.32z" image-rendering="optimizeQuality" stroke-width=".01856"/>
    <polygon class="fil0" transform="matrix(.01856 0 0 .01856 -26.65 -26.65)" points="6587 6137 6285 6661 5972 7203 7203 7203" image-rendering="optimizeQuality"/>
    <path class="fil0" d="m38.96 83.31 5.586 9.688c-1.336-2.97-2.06-6.236-2.06-9.688 0-3.415 0.7238-6.681 2.023-9.614z" image-rendering="optimizeQuality" stroke-width=".01856"/>
    <polygon class="fil0" transform="matrix(.01856 0 0 .01856 -26.65 -26.65)" points="3413 5713 4028 4648 2797 4648" image-rendering="optimizeQuality"/>
    <path class="fil0" d="m79.64 59.61h-26.99l-5.679 9.818c4.436-6.125 11.53-9.762 19.12-9.781 7.646 0 14.75 3.601 19.23 9.799z" image-rendering="optimizeQuality" stroke-width=".01856"/>
    <polygon class="fil0" transform="matrix(.01856 0 0 .01856 -26.65 -26.65)" points="5972 4648 6587 5714 7203 4648" image-rendering="optimizeQuality"/>
    <path class="fil0" d="m87.75 92.98 5.586-9.669-5.568-9.651c1.318 2.951 2.042 6.217 2.042 9.651 0 3.452-0.7238 6.719-2.06 9.669z" image-rendering="optimizeQuality" stroke-width=".01856"/>
    <path class="fil0" d="m79.66 107 5.679-9.855c-4.454 6.162-11.56 9.818-19.19 9.818-7.646 0-14.75-3.675-19.21-9.855l5.716 9.892z" image-rendering="optimizeQuality" stroke-width=".01856"/>
    <polygon class="fil0" transform="matrix(.01856 0 0 .01856 -26.65 -26.65)" points="4395 7415 5e3 8463 5605 7415" image-rendering="optimizeQuality"/>
    <g stroke-width=".01856">
      <path class="fil0" d="m48.31 91.76 15.87-9.465v-18.6c-10.08 1.002-17.76 9.484-17.76 19.62 0 3.025 0.6867 5.883 1.893 8.445z" image-rendering="optimizeQuality"/>
      <path class="fil0" d="m81.92 95.15-15.81-9.447-15.78 9.41c3.712 4.992 9.577 7.925 15.81 7.925s12.05-2.914 15.78-7.888z" image-rendering="optimizeQuality"/>
      <path class="fil0" d="m68.11 82.35 15.85 9.447c1.225-2.561 1.912-5.438 1.912-8.482 0-10.13-7.684-18.62-17.76-19.62z" image-rendering="optimizeQuality"/>
      <path class="fil0" d="m75.74 17.52h-19.19v13.62c6.329-1.151 12.86-1.151 19.19 0z" image-rendering="optimizeQuality"/>
    </g>
    <polygon class="fil0" transform="matrix(.01856 0 0 .01856 -26.65 -26.65)" points="4483 1674 5517 1674 5517 1436 4483 1436" image-rendering="optimizeQuality"/>
    <path class="fil0" d="m50.82 8.37c-1.429 0-2.617 1.169-2.617 2.598s1.188 2.598 2.617 2.598h30.66c1.429 0 2.617-1.151 2.617-2.598 0-1.429-1.169-2.598-2.617-2.598h-30.66z" image-rendering="optimizeQuality" stroke-width=".01856"/>
  </g>
</svg>
