<svg xmlns="http://www.w3.org/2000/svg" data-name="Layer 1 copy" viewBox="0 0 48 60" x="0px" y="0px">
	<title>
		Halloween_black
	</title>
	<path d="M25.623,47.25s4.2-.516,4.2-4.717A13.231,13.231,0,0,0,28,36.993l-.654-1.116a3.24,3.24,0,0,1-.069,1.282,2.789,2.789,0,0,1-.637.971,5.349,5.349,0,0,0-.823-2.706,8.305,8.305,0,0,0-2.569-2.571,4.774,4.774,0,0,1,.467,1.742c-.02.712-.245,1.141-1.316,2.533a5.32,5.32,0,0,0-.8,3.471,4.124,4.124,0,0,0-.347-.834,4.669,4.669,0,0,0-1.489-1.222,2.406,2.406,0,0,1-.15,2.219c-.887,1.1-1.594,1.929-1.4,3.582.322,2.737,4.286,2.891,4.286,2.891Z" style="" fill-rule="evenodd" />
	<circle cx="21.751" cy="6.301" r="1.416" />
	<circle cx="16.157" cy="2.773" r="2.023" />
	<circle cx="30.98" cy="7.71" r="1.628" />
	<circle cx="27.098" cy="12.314" r="2.078" />
	<path d="M13.933,40.406,9.487,46.823a.75.75,0,1,0,1.233.854l4.6-6.634c-.159-.056-.314-.115-.463-.184C14.538,40.715,14.236,40.56,13.933,40.406Z" />
	<path d="M32.694,41.058l4.586,6.619a.75.75,0,1,0,1.233-.854l-4.422-6.382c-.331.154-.664.307-1.007.445C33,40.927,32.859,40.991,32.694,41.058Z" />
	<path d="M38.94,14.1a2.226,2.226,0,0,1-.05.36l-.63.36a9.907,9.907,0,0,1-2.48.74A81.842,81.842,0,0,1,24,16.28a98.07,98.07,0,0,1-12.41-.76,22.071,22.071,0,0,1-2.82-.74,2.8,2.8,0,0,1-.09-.66,2.078,2.078,0,0,1,3.12-1.79l.06-.02a2.44,2.44,0,0,1-.06-.55,2.4,2.4,0,0,1,4.78-.23,2.8,2.8,0,0,1,1.13-.45,3.281,3.281,0,0,0,1.98,3.68,3.334,3.334,0,0,0,1.21.23,3.223,3.223,0,0,0,2.79-1.58,1.978,1.978,0,0,0,.12.31,3.582,3.582,0,0,0,1.96,1.92,3.594,3.594,0,0,0,4.65-2,3.48,3.48,0,0,0,.04-2.48.148.148,0,0,1,.07.01,1.682,1.682,0,0,1,.45.27,2.784,2.784,0,0,1,.58-.06,2.751,2.751,0,0,1,1.95.81,2.928,2.928,0,0,1,2.31-1.14A3.2,3.2,0,0,1,38.94,14.1Z" />
	<path d="M39.111,16.057l-.153.086a11.3,11.3,0,0,1-2.955.9,84.252,84.252,0,0,1-12,.734A97.962,97.962,0,0,1,11.379,17a19.973,19.973,0,0,1-2.72-.686,13.92,13.92,0,0,0-3.569,9.16c0,6.126,4.311,11.236,10.387,14.02a6.448,6.448,0,0,0,1.352.375,3.043,3.043,0,0,0,1.546-.011.149.149,0,0,0,.062-.037c.062-.076.086-.268,0-.769a12.322,12.322,0,0,0-1.6-3.8l3.743,2.034a4.985,4.985,0,0,1,.627-1.074c.994-1.293,1-1.439,1-1.66a4.345,4.345,0,0,0-.385-1.488,28.951,28.951,0,0,0-1.985-3.8l4.127,2.278A10,10,0,0,1,27.066,34.6c.175.316.363.608.5.908l.286-1.809,1.446,2.539a19.975,19.975,0,0,1,1.578,3.637,2.5,2.5,0,0,0,.343-.022,7.99,7.99,0,0,0,1.309-.353C38.721,37,42.91,31.6,42.91,25.475A13.982,13.982,0,0,0,39.111,16.057Z" />
	<path d="M20.249,13.365a1.751,1.751,0,1,0-.975-2.276A1.751,1.751,0,0,0,20.249,13.365Z" style="" fill-rule="evenodd" />
</svg>
