<svg xmlns="http://www.w3.org/2000/svg" xmlns:xlink="http://www.w3.org/1999/xlink" version="1.1" x="0px" y="0px" viewBox="0 0 100 125" enable-background="new 0 0 100 100" xml:space="preserve">
	<path fill-rule="evenodd" clip-rule="evenodd" d="M26.174,86.333h46.723c2.146,0,3.887-1.774,3.887-3.904s-1.758-3.904-3.887-3.904  H26.174c-2.146,0-3.889,1.774-3.889,3.904S24.045,86.333,26.174,86.333L26.174,86.333z M72.898,73.33H49.535H26.174  c-1.066,0-1.986-0.613-2.372-1.548L8.33,43.449c-0.226-0.418-0.322-0.806-0.322-1.257c0-1.001,0.499-1.807,1.355-2.258  c0.694-0.388,1.469-0.42,2.146-0.162l21.071,7.035l14.601-31.655c0.435-0.937,1.371-1.485,2.354-1.485  c0.985,0,1.92,0.549,2.356,1.485l14.601,31.655l21.071-7.035c0.677-0.258,1.452-0.226,2.13,0.162  c0.871,0.451,1.371,1.257,1.371,2.258c0,0.451-0.097,0.839-0.322,1.257L75.269,71.781C74.866,72.717,73.962,73.33,72.898,73.33z" />
</svg>
