<svg xmlns="http://www.w3.org/2000/svg" xmlns:xlink="http://www.w3.org/1999/xlink" version="1.1" x="0px" y="0px" viewBox="0 0 100 125" style="enable-background:new 0 0 100 100;" xml:space="preserve">
	<g>
		<g>
			<path d="M42.37885,17.04665c-0.2666,0-0.53223-0.10547-0.72852-0.31543l-7.0459-7.5    c-0.37891-0.40234-0.3584-1.03516,0.04395-1.41309c0.40332-0.37793,1.03613-0.35938,1.41309,0.04395l7.0459,7.5    c0.37891,0.40234,0.3584,1.03516-0.04395,1.41309C42.87006,16.9568,42.62494,17.04665,42.37885,17.04665z" />
		</g>
		<g>
			<path d="M57.2724,17.11403c-0.24902,0-0.49902-0.09277-0.69336-0.2793c-0.39746-0.38281-0.41016-1.01563-0.02734-1.41406    l7.14844-7.43555c0.38184-0.39746,1.01465-0.41016,1.41407-0.02734c0.39746,0.38281,0.41016,1.01563,0.02734,1.41406    l-7.14844,7.43555C57.79682,17.01149,57.5351,17.11403,57.2724,17.11403z" />
		</g>
		<g>
			<path d="M49.82514,17.08083c-0.00195,0-0.00488,0-0.00684,0c-0.55273-0.00391-0.99707-0.45508-0.99316-1.00684l0.08887-12.85938    c0.00391-0.5498,0.45117-0.99316,1-0.99316c0.00195,0,0.00488,0,0.00684,0c0.55272,0.00391,0.99707,0.45508,0.99316,1.00684    l-0.08887,12.85938C50.82123,16.63747,50.37397,17.08083,49.82514,17.08083z" />
		</g>
		<g>
			<path d="M42.37885,17.04665c-0.2666,0-0.53223-0.10547-0.72852-0.31543l-7.0459-7.5    c-0.37891-0.40234-0.3584-1.03516,0.04395-1.41309c0.40332-0.37793,1.03613-0.35938,1.41309,0.04395l7.0459,7.5    c0.37891,0.40234,0.3584,1.03516-0.04395,1.41309C42.87006,16.9568,42.62494,17.04665,42.37885,17.04665z" />
		</g>
		<g>
			<path d="M57.2724,17.11403c-0.24902,0-0.49902-0.09277-0.69336-0.2793c-0.39746-0.38281-0.41016-1.01563-0.02734-1.41406    l7.14844-7.43555c0.38184-0.39746,1.01465-0.41016,1.41407-0.02734c0.39746,0.38281,0.41016,1.01563,0.02734,1.41406    l-7.14844,7.43555C57.79682,17.01149,57.5351,17.11403,57.2724,17.11403z" />
		</g>
		<path d="M40.78608,57.18849l-7.62,8.47998l-4.31-4.30994c2.59998-2.90002,5.06-5.64001,7.39001-8.23999L40.78608,57.18849z" />
		<path d="M48.38605,63.99855c-2.63,2.34998-5.58997,5-8.90997,7.97998l-4.31-4.31006l8.64001-7.7699L48.38605,63.99855z" />
		<path d="M96.69605,6.25856l-0.66998,14.07007c-0.02997,0.6499-0.33002,1.25989-0.82001,1.68994   c-31.22998,28-17.26001,15.47998-31.53998,28.27002c-1.38-1.54004-2.75-3.06006-4.09998-4.57007l27.87995-25.08997l0.45001-7.93005   l-7.62,0.62012l-24.93,27.69995c-1.40002-1.56006-2.77997-3.09009-4.13-4.6001   C73.67609,11.36855,76.87611,7.80861,77.23609,7.40846c0,0,0,0,0.01001-0.00989c0.00995-0.01001,0.00995-0.01001,0.01996-0.02002   V7.36855c0.11005-0.12,0.48004-0.53003,1.58002-1.76001c0.40997-0.48999,0.98999-0.77991,1.63-0.82996l13.69-0.98999   C95.57606,3.67848,96.76606,4.83852,96.69605,6.25856z" />
		<path d="M45.59607,80.92848c-2.44,2.43005-6.39001,2.43005-8.83002,0l-5.10998-5.10986L15.31611,92.14857   c-0.11005,1.40002-0.70001,2.75989-1.77002,3.82996c-2.40002,2.40002-6.29004,2.40002-8.69,0   c-2.40002-2.3999-2.40002-6.29004,0-8.68994c1.06-1.06006,2.41998-1.65002,3.81-1.77002l16.34998-16.34009l-5.10999-5.10986   c-2.42999-2.44006-2.42999-6.39014,0-8.83008L45.59607,80.92848z" />
		<path d="M19.47608,13.31862l-7.60999-0.62012l0.44,7.93005l52.40998,47.16003l-4.31,4.30994   C15.6861,31.99855,32.82605,47.36855,4.5561,22.01857c-0.5-0.43005-0.80005-1.04004-0.83002-1.68994L3.0561,6.25856   c-0.06-1.42004,1.12-2.58008,2.53998-2.46997l13.69,0.98999c0.63,0.05005,1.21002,0.33997,1.62,0.82996   c30.58002,34.09998,8.64001,9.64001,50.10999,55.88l-4.31,4.31006L19.47608,13.31862z" />
		<path d="M54.40609,80.92848c2.44,2.43005,6.39001,2.43005,8.83002,0l5.10999-5.10986l16.33997,16.32996   c0.11005,1.40002,0.70001,2.75989,1.77002,3.82996c2.40002,2.40002,6.29004,2.40002,8.69,0   c2.40002-2.3999,2.40002-6.29004,0-8.68994c-1.06-1.06006-2.41998-1.65002-3.81-1.77002L74.98611,69.17848l5.10999-5.10986   c2.42999-2.44006,2.42999-6.39014,0-8.83008L54.40609,80.92848z" />
	</g>
</svg>
