<?xml version="1.0" encoding="UTF-8"?>
<svg xmlns="http://www.w3.org/2000/svg" version="1.1" viewBox="0 0 80 53.6">
  <!-- Generator: Adobe Illustrator 28.7.1, SVG Export Plug-In . SVG Version: 1.2.0 Build 142)  -->
  <g>
    <g id="Layer_1">
      <path d="M64,14.3c-6.6,0-12,5.4-12,12s5.4,12,12,12,12-5.4,12-12c0-6.6-5.4-12-12-12ZM64,34.3c-4.4,0-8-3.6-8-8s3.6-8,8-8,8,3.6,8,8c0,4.4-3.6,8-8,8Z"/>
      <path d="M21,15.3h-12c-2.8,0-5,2.2-5,5v12c0,2.8,2.2,5,5,5h12c2.8,0,5-2.2,5-5v-12c0-2.8-2.2-5-5-5ZM22,32.3c0,.6-.4,1-1,1h-12c-.6,0-1-.4-1-1v-12c0-.6.4-1,1-1h12c.6,0,1,.4,1,1v12Z"/>
      <path d="M49.8,27.2c0,0,0-.1,0-.2,0,0,0-.2,0-.2,0,0,0,0,0-.1,0-.3,0-.5,0-.8,0,0,0,0,0-.1,0,0,0-.2,0-.2,0,0,0-.1,0-.2,0,0,0-.1,0-.2,0,0-.1-.2-.2-.3,0,0,0,0,0,0l-6-6c-.8-.8-2.1-.8-2.8,0-.8.8-.8,2,0,2.8l2.6,2.6h-13.2c-1.1,0-2,.9-2,2s.9,2,2,2h13.2l-2.6,2.6c-.8.8-.8,2,0,2.8.8.8,2,.8,2.8,0,0,0,0,0,0,0l6-6s0,0,0,0c0,0,.2-.2.2-.3,0,0,0-.1,0-.2Z"/>
    </g>
  </g>
</svg>