<?xml version="1.0" standalone="no"?>
<!DOCTYPE svg PUBLIC "-//W3C//DTD SVG 20010904//EN"
 "http://www.w3.org/TR/2001/REC-SVG-20010904/DTD/svg10.dtd">
<svg version="1.0" xmlns="http://www.w3.org/2000/svg"
 width="500.000000pt" height="500.000000pt" viewBox="0 0 500.000000 500.000000"
 preserveAspectRatio="xMidYMid meet">

<g transform="translate(0.000000,500.000000) scale(0.100000,-0.100000)"
fill="#000000" stroke="none">
<path d="M2477 4721 c-34 -30 -35 -31 -70 -16 -54 22 -142 20 -167 -5 -25 -25
-19 -40 38 -86 26 -20 38 -34 27 -29 -11 4 -47 9 -80 12 -67 5 -104 -9 -120
-45 -6 -14 -24 -26 -47 -33 -53 -14 -84 -48 -58 -64 6 -3 10 -11 10 -16 0 -6
-5 -7 -11 -4 -16 10 -76 -4 -94 -21 -9 -9 -13 -24 -10 -34 4 -13 -1 -19 -19
-24 -13 -3 -33 -21 -45 -38 -17 -29 -18 -35 -6 -47 12 -13 9 -20 -20 -53 -59
-65 -36 -111 46 -93 40 9 36 -7 -7 -30 -78 -42 -122 -138 -70 -151 24 -6 24
-6 -14 -41 -48 -43 -59 -72 -34 -90 10 -7 29 -13 43 -14 l26 0 -23 -10 c-29
-11 -63 -50 -57 -65 2 -7 -16 -19 -40 -28 -60 -23 -72 -39 -52 -70 l16 -24
-36 9 c-89 20 -186 -34 -141 -79 9 -9 2 -9 -27 -1 -22 6 -65 9 -97 7 -91 -7
-149 -61 -94 -90 23 -12 20 -13 -39 -14 -79 -2 -168 -44 -173 -83 -2 -13 2
-28 10 -33 11 -8 10 -11 -2 -15 -27 -11 -110 -96 -116 -120 -4 -13 -1 -30 6
-38 15 -18 17 -16 -38 -40 -41 -18 -92 -65 -92 -86 0 -9 18 -18 65 -34 15 -5
7 -11 -39 -25 -58 -18 -126 -70 -126 -97 0 -17 33 -33 72 -33 l33 -1 -30 -13
c-43 -19 -115 -100 -115 -131 0 -27 34 -43 67 -31 11 4 5 -5 -12 -22 -51 -47
-75 -83 -75 -114 0 -17 6 -31 16 -35 13 -5 10 -11 -14 -37 -62 -66 -64 -106
-5 -106 l35 0 -40 -40 c-43 -44 -68 -91 -58 -115 3 -10 19 -15 45 -15 l39 0
-40 -39 c-33 -34 -38 -43 -29 -60 7 -12 26 -23 46 -27 l36 -6 -27 -35 c-61
-80 -87 -223 -40 -223 8 0 11 -19 8 -63 -4 -76 13 -111 41 -83 16 16 16 14 11
-28 -7 -45 9 -106 27 -106 4 0 15 10 25 23 14 19 15 19 9 2 -36 -98 -43 -201
-15 -228 9 -9 18 -4 39 20 l27 32 -4 -35 c-5 -43 16 -97 35 -90 13 5 12 -15
-3 -62 -2 -7 1 -22 6 -33 9 -15 15 -17 30 -9 10 5 21 10 23 10 9 0 -1 -70 -11
-83 -66 -79 -47 -236 34 -274 21 -11 35 -26 39 -43 16 -72 105 -132 166 -111
28 10 33 8 55 -19 63 -74 148 -56 197 40 34 67 44 149 27 219 -10 44 -10 55 3
69 48 55 64 154 37 224 -18 45 -57 85 -96 98 -23 8 -35 20 -43 43 -9 28 -9 30
3 15 59 -77 66 113 7 208 -18 29 -18 31 -1 42 12 7 21 7 28 0 6 -6 18 -8 27
-4 13 5 16 19 15 78 -1 40 1 93 4 118 7 41 -5 105 -29 165 -8 20 -8 20 14 0
22 -19 23 -19 37 0 29 39 10 144 -40 223 l-27 44 23 -7 c21 -6 40 -18 85 -50
32 -23 46 71 18 126 -16 29 -15 29 5 17 17 -11 22 -11 30 2 13 20 13 87 0 111
-14 25 -2 24 27 -2 18 -18 25 -20 38 -9 18 15 20 82 4 112 -19 35 -1 31 32 -6
30 -34 33 -36 50 -20 10 9 19 26 21 38 2 11 3 -34 3 -101 0 -131 9 -158 43
-137 16 10 17 6 17 -48 0 -46 5 -63 18 -73 14 -10 16 -18 7 -39 -5 -15 -10
-46 -10 -68 0 -39 1 -40 29 -35 l30 6 -15 -34 c-28 -69 -11 -117 32 -88 13 8
24 14 24 12 0 -2 -7 -26 -15 -53 -17 -56 -20 -132 -5 -141 17 -11 11 -43 -15
-82 -45 -65 -24 -104 40 -78 14 6 8 -4 -17 -33 -49 -54 -51 -90 -7 -99 l31 -6
-35 -31 c-56 -50 -73 -106 -32 -106 21 0 19 -7 -11 -38 -39 -41 -49 -74 -28
-89 10 -7 25 -13 33 -13 10 0 3 -13 -21 -37 -19 -21 -38 -46 -42 -57 -8 -23
10 -46 36 -46 19 0 19 -2 -6 -34 -35 -47 -35 -82 2 -91 22 -4 27 -11 26 -32
-1 -23 -7 -27 -66 -42 -35 -9 -78 -25 -94 -36 -20 -13 -42 -19 -69 -17 -32 3
-45 -2 -63 -21 -24 -25 -47 -123 -43 -186 2 -43 30 -93 58 -106 12 -5 25 -20
28 -34 17 -67 85 -116 144 -105 18 4 45 22 63 43 28 32 36 36 73 33 51 -4 90
24 106 77 11 37 14 39 73 51 181 35 256 135 171 229 -30 33 -33 40 -20 51 8 7
15 24 16 39 0 14 3 20 6 14 8 -22 32 -14 39 13 4 14 4 47 1 74 -4 36 -2 52 9
61 10 8 14 27 13 55 -4 54 5 64 21 24 14 -33 34 -39 45 -12 6 15 9 13 21 -10
17 -32 33 -29 57 10 l16 27 1 -31 c0 -42 24 -63 48 -41 15 14 18 14 31 0 13
-14 16 -14 33 7 10 12 18 28 18 36 0 8 5 14 10 14 6 0 10 -6 10 -14 0 -8 8
-24 18 -36 16 -20 19 -21 31 -6 13 15 15 15 33 -1 19 -17 20 -17 34 2 8 10 14
30 14 44 l1 26 16 -27 c24 -39 40 -42 57 -10 12 23 15 25 21 10 11 -27 31 -21
45 12 16 40 25 30 21 -24 -1 -27 3 -47 12 -54 11 -9 13 -29 9 -82 -4 -60 -2
-71 13 -76 10 -4 21 -1 26 7 6 11 9 8 9 -9 0 -12 5 -31 12 -42 11 -17 8 -23
-19 -50 -50 -49 -50 -101 0 -151 40 -39 93 -64 173 -79 57 -11 62 -15 68 -42
3 -16 19 -43 36 -60 26 -25 36 -29 73 -26 39 3 46 -1 75 -33 18 -21 45 -39 63
-43 59 -12 127 38 144 107 4 14 16 29 27 33 29 9 58 63 58 109 0 77 -19 157
-42 182 -18 19 -31 24 -63 21 -27 -2 -49 4 -69 17 -16 11 -59 27 -95 36 -58
15 -66 20 -66 40 0 17 9 28 28 36 35 15 35 44 1 89 -25 32 -25 34 -6 34 26 0
44 23 36 46 -4 11 -23 36 -42 56 -26 27 -31 38 -20 38 26 0 48 28 40 49 -4 11
-19 33 -34 50 -32 35 -34 41 -13 41 42 0 22 59 -37 111 l-30 26 31 6 c46 9 42
48 -9 99 -32 32 -35 39 -17 33 12 -4 31 -7 42 -8 31 -3 31 42 0 86 -26 39 -32
71 -15 82 14 9 12 71 -5 135 -8 30 -15 57 -15 59 0 2 11 -4 24 -12 43 -29 60
19 32 88 -14 33 -14 34 12 32 24 -2 27 2 30 31 2 19 -1 47 -7 64 -8 23 -7 33
3 44 19 19 29 68 21 105 -7 29 -6 30 14 17 38 -23 46 1 46 135 0 67 1 112 3
101 2 -12 11 -29 21 -38 17 -16 20 -14 50 20 33 37 51 41 32 6 -15 -29 -14
-97 3 -111 10 -8 19 -6 39 9 32 25 41 25 27 1 -13 -24 -13 -91 0 -111 8 -13
13 -13 30 -2 20 12 21 12 5 -17 -28 -55 -14 -149 18 -126 45 32 64 44 85 50
l23 7 -26 -40 c-50 -75 -70 -188 -41 -227 14 -19 15 -19 34 -2 20 18 20 18 5
-25 -10 -25 -16 -72 -15 -113 0 -38 1 -103 1 -143 0 -58 3 -73 16 -78 9 -4 21
-2 27 4 7 7 16 7 28 0 16 -10 15 -14 -6 -53 -32 -57 -47 -140 -33 -182 12 -37
25 -41 45 -15 12 15 12 13 3 -15 -8 -23 -20 -35 -44 -43 -114 -37 -147 -220
-58 -321 12 -14 12 -26 2 -78 -35 -169 65 -333 175 -287 18 7 41 25 52 40 18
24 22 26 51 15 24 -8 41 -8 68 1 39 13 91 70 100 110 4 17 18 32 39 42 51 25
86 116 72 190 -3 18 -16 49 -28 68 -12 19 -23 50 -24 68 -3 28 0 33 14 27 34
-13 37 -10 37 47 0 31 3 54 7 52 16 -10 40 46 36 86 l-4 40 24 -30 c13 -16 27
-30 32 -30 5 0 14 16 20 36 13 39 7 101 -16 167 -14 39 -14 40 4 24 10 -9 21
-17 24 -17 15 0 30 65 24 106 -5 42 -5 44 11 28 28 -27 45 7 41 82 -3 51 -1
64 14 73 34 21 12 132 -41 207 l-31 42 35 6 c20 4 39 16 46 27 9 17 4 26 -29
60 l-40 39 39 0 c21 0 41 5 44 10 12 20 -16 79 -57 119 l-40 41 35 0 c20 0 37
6 40 14 7 17 -16 63 -49 97 -21 22 -23 27 -10 32 10 4 16 18 16 35 0 31 -24
67 -75 114 -17 17 -23 26 -12 22 33 -12 67 4 67 31 0 31 -72 112 -115 131
l-30 13 27 1 c39 0 78 17 78 34 0 26 -75 83 -129 97 -53 13 -68 29 -28 29 13
0 32 6 43 14 19 14 19 15 -2 43 -11 15 -43 39 -70 53 -27 14 -51 26 -53 27 -2
2 2 9 9 18 7 8 10 25 6 38 -6 24 -90 110 -115 118 -11 4 -11 9 -1 26 19 30 7
49 -52 79 -40 20 -69 27 -115 28 -57 1 -60 2 -37 14 55 29 -3 83 -94 90 -32 2
-75 -1 -97 -7 -29 -8 -36 -8 -27 1 48 48 -66 102 -161 75 l-28 -8 21 21 c29
29 23 41 -35 70 -28 14 -50 30 -50 35 0 18 -31 54 -56 64 l-24 10 26 0 c14 1
33 7 43 14 25 18 14 47 -34 90 -38 35 -38 35 -14 41 52 13 8 109 -70 151 -45
25 -46 38 -2 30 41 -8 76 8 76 35 0 11 -15 37 -34 57 -27 31 -31 41 -23 55 15
23 -10 68 -45 82 -18 7 -26 16 -23 26 2 8 1 20 -3 27 -9 15 -56 33 -86 33 -20
0 -22 4 -18 26 5 30 -5 39 -60 54 -21 6 -38 17 -38 24 0 25 -40 49 -90 54 -52
5 -57 10 -40 43 17 31 -5 61 -43 58 -18 -1 -44 2 -60 6 -15 4 -45 3 -67 -3
-38 -9 -39 -9 -42 17 -4 38 -38 39 -81 2z m-171 -682 c83 -43 144 -97 144
-126 0 -35 -45 -97 -90 -124 -64 -39 -131 -39 -209 1 -105 52 -129 108 -86
195 53 109 110 121 241 54z m587 9 c16 -18 39 -52 49 -76 34 -76 5 -133 -93
-182 -77 -39 -135 -40 -204 -2 -49 27 -94 86 -95 125 0 52 184 167 268 167 37
0 49 -5 75 -32z m-720 -464 c13 -77 85 -110 126 -58 11 14 23 41 27 60 6 32 8
34 49 34 41 0 43 -2 49 -34 21 -113 131 -113 152 0 6 32 8 34 49 34 41 0 43
-2 49 -34 4 -19 16 -46 27 -60 41 -52 113 -19 126 58 5 31 9 36 33 36 64 0
119 -97 105 -187 -7 -51 -18 -61 -33 -28 -12 25 -51 41 -76 32 -21 -8 -47 -52
-55 -90 -6 -29 -10 -32 -48 -35 -40 -3 -40 -3 -51 40 -29 114 -127 117 -150 4
-8 -41 -8 -41 -52 -41 -44 0 -44 0 -52 41 -23 112 -121 110 -150 -3 -10 -42
-11 -43 -54 -43 -41 0 -44 2 -44 28 0 31 -33 90 -55 98 -26 10 -65 -6 -77 -31
-15 -33 -26 -23 -33 28 -14 90 41 187 105 187 24 0 28 -5 33 -36z"/>
<path d="M2220 3930 c-29 -29 -27 -94 5 -125 13 -14 31 -25 39 -25 58 0 99 65
76 121 -22 51 -83 66 -120 29z"/>
<path d="M2692 3943 c-23 -9 -44 -63 -37 -94 15 -66 77 -88 120 -44 32 31 34
96 5 125 -19 19 -59 25 -88 13z"/>
</g>
</svg>
