<svg width="500" height="500" version="1.1" viewBox="0 0 132.3 132.3" xmlns="http://www.w3.org/2000/svg">
  <g fill="#e8b84a" stroke-width="11.68">
    <path d="m45.41 63.4c-5.07 3.423-6.203 1.916-11.63 1.729-6.892-0.2336-8.177 10.31-17.79 9.497 5.701-1.822 16.14-12.64 1.273-24.55 1.962 0.4088 5.058 2.009 8.352 4.754 2.278 1.916 3.096 4.509 5.607 5.42 3.703 1.285 10.82 2.745 13.74-0.5373 3.878-4.299 6.845-6.074 9.953-6.261 2.325-0.1285 6.752 0.6425 8.387 4.065 0 0-0.1285-10.13-0.4088-13.91-0.4088-5.887-5.338-9.684-11.32-11.18-9.532-2.418-8.387-11.37-8.387-11.77 1.542 4.556 4.965 9.03 10.49 9.672 9.076 1.005 9.625-6.074 9.625-12.15v-4.147c-0.4556-16.38-39.25-15.06-35.45 13.88 0.7827 6.203 3.504 13.41 14.96 15.83-10.31-0.4088-19.39-3.925-20.44-20.76-6.974 2.278-11.63 9.404-11.63 18.21 0 0.771 0.04673 1.542 0.1402 2.278a2.605 2.605 0 0 1-1.413 2.64c-5.607 2.92-9.45 10.82-9.45 19.72 0 6.156 2.465 12.73 6.074 16.33a2.745 2.745 0 0 1 0.7242 2.465c-1.32 6.308-0.1752 15.61 4.556 21.31 3.154 3.738 8.644 6.168 14.2 6.121-1.051-4.696-0.2336-10.63 1.916-15.07 0.4556-0.08177-2.056-0.5841-4.334-2.955-3.831-3.972-1.519-9.953-1.519-9.953 0 9.17 7.862 9.45 7.862 9.45 7.885-12.59 21.26-9.31 21.4-9.31-3.972 0.549-15.42 1.729-19.58 14.05-6.028 17.71 6.39 30.3 20.8 30.57 6.425 0.0935 11.18-3.598 11.18-9.485v-11.87a5.116 5.116 0 0 0-2.874-4.649c-5.747-2.652-13.14 3.329-15.01 6.483 0 0 0.7242-5.525 6.845-9.228a9.661 9.661 0 0 1 3.376-1.273 9.742 9.742 0 0 0 7.663-9.579s1.098-15.15 0-19.53c-2.92-11.41-7.803-13.09-17.88-6.308"/>
    <path d="m132.3 65.85c0-8.901-3.785-16.8-9.45-19.72a2.57 2.57 0 0 1-1.367-2.64c0.0467-0.7359 0.0935-1.507 0.0935-2.278 0-8.808-4.649-15.93-11.59-18.21-1.051 16.83-10.13 20.35-20.44 20.76 11.45-2.418 14.19-9.625 14.96-15.78 3.738-28.97-35-30.3-35.45-13.92v4.159c0 6.074 0.549 13.14 9.579 12.14 5.572-0.6425 8.948-5.116 10.54-9.672 0 0.4088 1.145 9.345-8.387 11.77-5.981 1.507-10.96 5.292-11.37 11.18a355 355 0 0 0-0.3621 13.91c1.635-3.469 6.074-4.205 8.352-4.065 3.154 0.1869 6.109 1.962 9.941 6.261 2.967 3.271 10.09 1.822 13.78 0.5373 2.512-0.9111 3.329-3.458 5.607-5.42 3.294-2.792 6.39-4.381 8.352-4.754-14.87 11.92-4.427 22.73 1.285 24.55-9.637 0.8177-10.96-9.719-17.8-9.485-5.479 0.1752-6.612 1.682-11.68-1.741-10.08-6.799-14.92-5.105-17.84 6.308-1.098 4.369 0 19.52 0 19.52 0 4.614 3.154 8.668 7.663 9.532a10.16 10.16 0 0 1 3.329 1.332c6.168 3.691 6.845 9.217 6.845 9.217-1.822-3.201-9.217-9.17-14.95-6.483a5.035 5.035 0 0 0-2.885 4.661v11.86c0 5.934 4.743 9.579 11.18 9.497 14.37-0.2804 26.83-12.87 20.8-30.58-4.205-12.27-15.65-13.5-19.62-14.05 0.1402 0 13.52-3.236 21.45 9.31 0 0 7.803-0.2687 7.85-9.439 0 0 2.29 5.969-1.507 9.941-2.278 2.371-4.789 2.874-4.322 3.014 2.138 4.427 2.955 10.31 1.904 15.01 5.525 0.0467 11.05-2.371 14.19-6.109 4.743-5.712 5.887-15.01 4.556-21.31a2.745 2.745 0 0 1 0.7359-2.465c3.61-3.61 6.028-10.17 6.028-16.34"/>
  </g>
</svg>
