<?xml version="1.0" encoding="UTF-8"?>
<svg xmlns="http://www.w3.org/2000/svg" version="1.1" xmlns:svg="http://www.w3.org/2000/svg" viewBox="0 0 61.8 65.2">
  <!-- Generator: Adobe Illustrator 28.7.1, SVG Export Plug-In . SVG Version: 1.2.0 Build 142)  -->
  <g>
    <g id="Layer_1">
      <path d="M40.8,6c-1.1,0-2,.9-2,2s.9,2,2,2,2-.9,2-2-.9-2-2-2ZM24.8,7c-.5,0-1,.5-1,1s.5,1,1,1,1-.5,1-1-.5-1-1-1ZM16.3,9c-.4,0-.8.3-.9.7l-.5,1.4-1.4.5c-.9.3-.9,1.6,0,1.9l1.4.5.5,1.4c.3.9,1.6.9,1.9,0l.5-1.4,1.4-.5c.9-.3.9-1.6,0-1.9l-1.4-.5-.5-1.4c-.1-.4-.5-.7-.9-.7ZM47.3,10c-.2,0-.4.1-.5.3l-.4,1.3-1.3.4c-.5.2-.5.8,0,.9l1.3.4.4,1.3c.2.5.8.5.9,0l.4-1.3,1.3-.4c.5-.2.5-.8,0-.9l-1.3-.4-.4-1.3c0-.2-.3-.3-.5-.3ZM34.3,10.1c-.1,0-.3,0-.4.1-5.4,3.2-9.3,8.5-10.1,14.7-.7-.4-1.2-.9-1.7-1.5-.7-1-1.3-2.2-2-3.6-.4-.8-1.5-.7-1.8.1l-1,2.7c-1.2,3.3-2.5,8-.7,12.5,1.3,3.2,3.9,5.5,7.1,6.8-3.7,2.1-7.4,4.3-11.1,6.4-.2.1-1,.7-1.1,1.9,0,.7.2,1.5.6,2.2.4.7,1,1.3,1.6,1.6.6.3,1.5.5,2.2,0h0l10.6-6.1v7.4c0,.8.5,1.5,1.2,1.9.6.4,1.4.6,2.2.6s1.6-.2,2.2-.6c1-.6,1.2-1.5,1.2-1.9v-7.4l10.6,6.1h0c.2.1,1.1.5,2.2,0,.6-.3,1.2-.9,1.6-1.6.4-.7.6-1.5.6-2.2,0-.7-.3-1.5-1.1-1.9-3.5-2-7-4.1-10.6-6.1,0,0,.1,0,.2-.1.7-.3,1.4-.6,2.1-1,2.6-1.6,4.6-4.3,4.9-7.8.3-3-.6-5.3-1.9-7.2-1.4-1.9-3.2-3.4-4.9-5-2.2-2.1-2.6-4.4-2.5-6.2.1-1.9.8-3.3.8-3.4.3-.5,0-1.2-.6-1.4-.1,0-.3,0-.4,0h0ZM32.7,13.6c0,.4-.2.7-.2,1.2-.1,2.3.5,5.3,3.1,7.8,1.7,1.7,3.5,3.1,4.6,4.7,1.2,1.6,1.8,3.3,1.6,5.8-.3,2.9-1.8,4.9-4,6.3-.7.5-1.6.9-2.5,1.2.2-.3.4-.6.5-1,.8-2.1.2-4.2-.3-5.6l-.4-1.1c-.3-.8-1.4-.9-1.8-.1-.2.5-.4.8-.6,1.1-.6-2.3-2.2-4.1-4.2-5.4-.9-.5-1.9.4-1.4,1.3,0,0,.3.5.3,1.2,0,.7,0,1.4-.8,2.1-.7.7-1.4,1.3-2.1,2.2-.6.9-1,2-.9,3.4,0,.5.2.9.3,1.3-2.4-1.2-4.4-3.2-5.4-5.7-1.5-3.7-.4-8,.7-11.1l.2-.6c.3.6.6,1.3,1,1.9.9,1.2,2,2.2,3.7,2.8.6.2,1.3-.2,1.3-.9.3-5.2,3.1-9.7,7.2-12.9h0ZM22.8,15c-.5,0-1,.5-1,1s.5,1,1,1,1-.5,1-1-.5-1-1-1ZM40.3,16c-.8,0-1.5.7-1.5,1.5s.7,1.5,1.5,1.5,1.5-.7,1.5-1.5-.7-1.5-1.5-1.5ZM11.3,18c-.2,0-.4.1-.5.3l-.2.5-.5.2c-.5.2-.5.8,0,.9l.5.2.2.5c.2.5.8.5.9,0l.2-.5.5-.2c.5-.2.5-.8,0-.9l-.5-.2-.2-.5c0-.2-.3-.3-.5-.3ZM45.8,22c-.5,0-1,.5-1,1s.5,1,1,1,1-.5,1-1-.5-1-1-1ZM12.3,26c-.8,0-1.5.7-1.5,1.5s.7,1.5,1.5,1.5,1.5-.7,1.5-1.5-.7-1.5-1.5-1.5ZM29.1,32c1,1.1,1.7,2.4,1.8,3.9,0,.7.7,1.1,1.3.9.7-.2,1.1-.7,1.5-1.1.3,1.1.5,2.3,0,3.3-.6,1.5-2.3,2.6-4.1,2.6s-.3,0-.4,0c-.9,0-1.8-.3-2.5-.7-.8-.5-1.3-1.1-1.4-2.2,0-.9.1-1.4.5-2s1.1-1.2,1.8-1.9c.9-.8,1.2-1.8,1.3-2.7h0ZM26.3,42.8c1.1.5,2.3.8,3.5.8s.5,0,.7,0l-13.6,7.8c0-.4-.3-.9-.5-1.3-.2-.4-.5-.8-.8-1.1,3.6-2.1,7.2-4.1,10.8-6.2h0ZM34.5,43.5l9.6,5.5c-.3.3-.6.7-.8,1.1-.2.4-.4.8-.5,1.3l-9.6-5.5v-1.6l1.4-.8ZM35.3,45.2c-.2,0-.4,0-.5.2-.1.2,0,.5.2.7l2.5,1.5c.2.1.5,0,.7-.2.1-.2,0-.5-.2-.7l-2.5-1.5c0,0-.2,0-.2,0h0ZM31.2,45.4v7.9c-.4-.1-.9-.2-1.4-.2s-.9,0-1.4.2v-6.3l2.7-1.6ZM22.1,46l-1,.6c-.2.1-.3.5-.2.7.1.2.5.3.7.2l1-.6c.2-.1.3-.4.2-.7-.1-.2-.5-.3-.7-.2ZM30.3,46.5c-.3,0-.5.2-.5.5v2c0,.3.2.5.5.5.3,0,.5-.2.5-.5v-2c0-.3-.2-.5-.5-.5ZM19.8,47.5c0,0-.2,0-.2,0l-2.5,1.5c-.2.1-.3.5-.2.7.1.2.5.3.7.2l2.5-1.5c.2-.1.3-.5.2-.7,0-.2-.3-.3-.5-.2h0ZM13.5,50.1s0,0,.3,0c.2.1.6.4.8.8.2.4.3.8.3,1.1,0,.2,0,.3,0,.3,0,0,0,0-.3,0-.2-.1-.6-.4-.8-.8s-.3-.8-.3-1.1c0-.2,0-.3,0-.3h0ZM46.1,50.1s0,0,0,.3c0,.3,0,.7-.3,1.1-.2.4-.6.7-.8.8-.2,0-.3,0-.3,0,0,0,0,0,0-.3,0-.3,0-.7.3-1.1.2-.4.6-.7.8-.8.2,0,.3,0,.3,0h0ZM29.8,51v.5c0,.3.2.5.5.5s.5-.2.5-.5v-.5c0-.3-.2-.5-.5-.5s-.5.2-.5.5ZM29.8,55.1c.5,0,.9.1,1.1.3.2.1.2.2.2.2,0,0,0,0-.2.2-.2.1-.7.3-1.1.3s-.9-.1-1.1-.3c-.2-.1-.2-.2-.2-.2,0,0,0,0,.2-.2.2-.1.7-.3,1.1-.3Z"/>
    </g>
  </g>
</svg>