<svg width="500" height="500" version="1.1" viewBox="0 0 132.3 132.3" xmlns="http://www.w3.org/2000/svg">
  <defs>
    <style type="text/css">.fil0 {fill:black;fill-rule:nonzero}</style>
  </defs>
  <g stroke-width="1.51">
    <circle cx="43.34" cy="29.9" r="12.23"/>
    <path d="m44.85 86.38c0.302 1.359 0.4531 2.718 0.4531 4.229v0.151c0.6041-1.057 1.359-2.114 2.265-3.171 2.869-3.322 6.494-5.89 10.57-7.4-4.682-2.718-7.853-7.853-7.853-13.74 0-6.041 3.322-11.18 8.306-13.89-3.775-4.077-9.212-6.645-15.1-6.645-2.869 0-5.437 0.6041-7.853 1.51 0.7551 1.963 1.208 3.926 1.208 6.192 0 5.89-3.171 10.87-7.853 13.74 8.155 3.02 14.35 10.12 15.86 19.03z"/>
    <circle cx="88.95" cy="29.9" r="12.23"/>
    <path d="m103.4 67.35c-4.682-2.718-7.853-7.853-7.853-13.74 0-2.114 0.4531-4.228 1.208-6.192-2.416-1.057-5.135-1.51-7.853-1.51-5.89 0-11.33 2.567-15.1 6.494 4.984 2.718 8.457 8.004 8.457 14.04 0 5.89-3.171 10.87-7.853 13.74 3.926 1.359 7.4 3.775 10.12 6.796 0.9061 1.057 1.661 2.114 2.416 3.322 0-1.661 0.151-3.171 0.4531-4.682 1.812-8.457 7.853-15.4 16.01-18.27z"/>
    <circle cx="66.3" cy="66.6" r="12.23"/>
    <path d="m86.99 103.4c0-11.48-9.363-20.69-20.69-20.69s-20.69 9.363-20.69 20.69v6.494c4.833 3.02 12.53 4.682 20.69 4.682 8.155 0 15.86-1.812 20.69-4.682z"/>
    <circle cx="20.69" cy="53.76" r="12.23"/>
    <path d="m41.53 96.95v-6.494c0-11.48-9.363-20.69-20.69-20.69-11.33 0-20.84 9.363-20.84 20.84v6.494c4.833 3.02 12.53 4.682 20.69 4.682 8.306-0.151 15.86-1.812 20.84-4.833z"/>
    <circle cx="111.6" cy="53.76" r="12.23"/>
    <path d="m111.6 69.77c-11.48 0-20.69 9.363-20.69 20.69v6.494c4.833 3.02 12.53 4.682 20.69 4.682 8.155 0 15.86-1.812 20.69-4.682v-6.494c0-11.33-9.363-20.69-20.69-20.69z"/>
  </g>
</svg>
